<?xml version="1.0" encoding="utf-8" standalone="no"?>
<!DOCTYPE svg PUBLIC "-//W3C//DTD SVG 1.1//EN"
  "http://www.w3.org/Graphics/SVG/1.1/DTD/svg11.dtd">
<!-- Created with matplotlib (https://matplotlib.org/) -->
<svg height="220.457813pt" version="1.1" viewBox="0 0 336.094375 220.457813" width="336.094375pt" xmlns="http://www.w3.org/2000/svg" xmlns:xlink="http://www.w3.org/1999/xlink">
 <metadata>
  <rdf:RDF xmlns:cc="http://creativecommons.org/ns#" xmlns:dc="http://purl.org/dc/elements/1.1/" xmlns:rdf="http://www.w3.org/1999/02/22-rdf-syntax-ns#">
   <cc:Work>
    <dc:type rdf:resource="http://purl.org/dc/dcmitype/StillImage"/>
    <dc:date>2021-08-20T11:24:30.710155</dc:date>
    <dc:format>image/svg+xml</dc:format>
    <dc:creator>
     <cc:Agent>
      <dc:title>Matplotlib v3.3.4, https://matplotlib.org/</dc:title>
     </cc:Agent>
    </dc:creator>
   </cc:Work>
  </rdf:RDF>
 </metadata>
 <defs>
  <style type="text/css">*{stroke-linecap:butt;stroke-linejoin:round;}</style>
 </defs>
 <g id="figure_1">
  <g id="patch_1">
   <path d="M 0 220.457813 
L 336.094375 220.457813 
L 336.094375 0 
L 0 0 
z
" style="fill:#ffffff;"/>
  </g>
  <g id="axes_1">
   <g id="patch_2">
    <path d="M 46.713125 179.998125 
L 325.713125 179.998125 
L 325.713125 22.318125 
L 46.713125 22.318125 
z
" style="fill:#eaeaf2;"/>
   </g>
   <g id="matplotlib.axis_1">
    <g id="xtick_1">
     <g id="line2d_1">
      <path clip-path="url(#pcd77afb94c)" d="M 46.713125 179.998125 
L 46.713125 22.318125 
" style="fill:none;stroke:#ffffff;stroke-linecap:round;stroke-width:0.8;"/>
     </g>
     <g id="text_1">
      <!-- −3 -->
      <g style="fill:#262626;" transform="translate(39.342031 194.596563)scale(0.1 -0.1)">
       <defs>
        <path d="M 10.59375 35.5 
L 73.1875 35.5 
L 73.1875 27.203125 
L 10.59375 27.203125 
z
" id="DejaVuSans-8722"/>
        <path d="M 40.578125 39.3125 
Q 47.65625 37.796875 51.625 33 
Q 55.609375 28.21875 55.609375 21.1875 
Q 55.609375 10.40625 48.1875 4.484375 
Q 40.765625 -1.421875 27.09375 -1.421875 
Q 22.515625 -1.421875 17.65625 -0.515625 
Q 12.796875 0.390625 7.625 2.203125 
L 7.625 11.71875 
Q 11.71875 9.328125 16.59375 8.109375 
Q 21.484375 6.890625 26.8125 6.890625 
Q 36.078125 6.890625 40.9375 10.546875 
Q 45.796875 14.203125 45.796875 21.1875 
Q 45.796875 27.640625 41.28125 31.265625 
Q 36.765625 34.90625 28.71875 34.90625 
L 20.21875 34.90625 
L 20.21875 43.015625 
L 29.109375 43.015625 
Q 36.375 43.015625 40.234375 45.921875 
Q 44.09375 48.828125 44.09375 54.296875 
Q 44.09375 59.90625 40.109375 62.90625 
Q 36.140625 65.921875 28.71875 65.921875 
Q 24.65625 65.921875 20.015625 65.03125 
Q 15.375 64.15625 9.8125 62.3125 
L 9.8125 71.09375 
Q 15.4375 72.65625 20.34375 73.4375 
Q 25.25 74.21875 29.59375 74.21875 
Q 40.828125 74.21875 47.359375 69.109375 
Q 53.90625 64.015625 53.90625 55.328125 
Q 53.90625 49.265625 50.4375 45.09375 
Q 46.96875 40.921875 40.578125 39.3125 
z
" id="DejaVuSans-51"/>
       </defs>
       <use xlink:href="#DejaVuSans-8722"/>
       <use x="83.789062" xlink:href="#DejaVuSans-51"/>
      </g>
     </g>
    </g>
    <g id="xtick_2">
     <g id="line2d_2">
      <path clip-path="url(#pcd77afb94c)" d="M 81.588125 179.998125 
L 81.588125 22.318125 
" style="fill:none;stroke:#ffffff;stroke-linecap:round;stroke-width:0.8;"/>
     </g>
     <g id="text_2">
      <!-- −2 -->
      <g style="fill:#262626;" transform="translate(74.217031 194.596563)scale(0.1 -0.1)">
       <defs>
        <path d="M 19.1875 8.296875 
L 53.609375 8.296875 
L 53.609375 0 
L 7.328125 0 
L 7.328125 8.296875 
Q 12.9375 14.109375 22.625 23.890625 
Q 32.328125 33.6875 34.8125 36.53125 
Q 39.546875 41.84375 41.421875 45.53125 
Q 43.3125 49.21875 43.3125 52.78125 
Q 43.3125 58.59375 39.234375 62.25 
Q 35.15625 65.921875 28.609375 65.921875 
Q 23.96875 65.921875 18.8125 64.3125 
Q 13.671875 62.703125 7.8125 59.421875 
L 7.8125 69.390625 
Q 13.765625 71.78125 18.9375 73 
Q 24.125 74.21875 28.421875 74.21875 
Q 39.75 74.21875 46.484375 68.546875 
Q 53.21875 62.890625 53.21875 53.421875 
Q 53.21875 48.921875 51.53125 44.890625 
Q 49.859375 40.875 45.40625 35.40625 
Q 44.1875 33.984375 37.640625 27.21875 
Q 31.109375 20.453125 19.1875 8.296875 
z
" id="DejaVuSans-50"/>
       </defs>
       <use xlink:href="#DejaVuSans-8722"/>
       <use x="83.789062" xlink:href="#DejaVuSans-50"/>
      </g>
     </g>
    </g>
    <g id="xtick_3">
     <g id="line2d_3">
      <path clip-path="url(#pcd77afb94c)" d="M 116.463125 179.998125 
L 116.463125 22.318125 
" style="fill:none;stroke:#ffffff;stroke-linecap:round;stroke-width:0.8;"/>
     </g>
     <g id="text_3">
      <!-- −1 -->
      <g style="fill:#262626;" transform="translate(109.092031 194.596563)scale(0.1 -0.1)">
       <defs>
        <path d="M 12.40625 8.296875 
L 28.515625 8.296875 
L 28.515625 63.921875 
L 10.984375 60.40625 
L 10.984375 69.390625 
L 28.421875 72.90625 
L 38.28125 72.90625 
L 38.28125 8.296875 
L 54.390625 8.296875 
L 54.390625 0 
L 12.40625 0 
z
" id="DejaVuSans-49"/>
       </defs>
       <use xlink:href="#DejaVuSans-8722"/>
       <use x="83.789062" xlink:href="#DejaVuSans-49"/>
      </g>
     </g>
    </g>
    <g id="xtick_4">
     <g id="line2d_4">
      <path clip-path="url(#pcd77afb94c)" d="M 151.338125 179.998125 
L 151.338125 22.318125 
" style="fill:none;stroke:#ffffff;stroke-linecap:round;stroke-width:0.8;"/>
     </g>
     <g id="text_4">
      <!-- 0 -->
      <g style="fill:#262626;" transform="translate(148.156875 194.596563)scale(0.1 -0.1)">
       <defs>
        <path d="M 31.78125 66.40625 
Q 24.171875 66.40625 20.328125 58.90625 
Q 16.5 51.421875 16.5 36.375 
Q 16.5 21.390625 20.328125 13.890625 
Q 24.171875 6.390625 31.78125 6.390625 
Q 39.453125 6.390625 43.28125 13.890625 
Q 47.125 21.390625 47.125 36.375 
Q 47.125 51.421875 43.28125 58.90625 
Q 39.453125 66.40625 31.78125 66.40625 
z
M 31.78125 74.21875 
Q 44.046875 74.21875 50.515625 64.515625 
Q 56.984375 54.828125 56.984375 36.375 
Q 56.984375 17.96875 50.515625 8.265625 
Q 44.046875 -1.421875 31.78125 -1.421875 
Q 19.53125 -1.421875 13.0625 8.265625 
Q 6.59375 17.96875 6.59375 36.375 
Q 6.59375 54.828125 13.0625 64.515625 
Q 19.53125 74.21875 31.78125 74.21875 
z
" id="DejaVuSans-48"/>
       </defs>
       <use xlink:href="#DejaVuSans-48"/>
      </g>
     </g>
    </g>
    <g id="xtick_5">
     <g id="line2d_5">
      <path clip-path="url(#pcd77afb94c)" d="M 186.213125 179.998125 
L 186.213125 22.318125 
" style="fill:none;stroke:#ffffff;stroke-linecap:round;stroke-width:0.8;"/>
     </g>
     <g id="text_5">
      <!-- 1 -->
      <g style="fill:#262626;" transform="translate(183.031875 194.596563)scale(0.1 -0.1)">
       <use xlink:href="#DejaVuSans-49"/>
      </g>
     </g>
    </g>
    <g id="xtick_6">
     <g id="line2d_6">
      <path clip-path="url(#pcd77afb94c)" d="M 221.088125 179.998125 
L 221.088125 22.318125 
" style="fill:none;stroke:#ffffff;stroke-linecap:round;stroke-width:0.8;"/>
     </g>
     <g id="text_6">
      <!-- 2 -->
      <g style="fill:#262626;" transform="translate(217.906875 194.596563)scale(0.1 -0.1)">
       <use xlink:href="#DejaVuSans-50"/>
      </g>
     </g>
    </g>
    <g id="xtick_7">
     <g id="line2d_7">
      <path clip-path="url(#pcd77afb94c)" d="M 255.963125 179.998125 
L 255.963125 22.318125 
" style="fill:none;stroke:#ffffff;stroke-linecap:round;stroke-width:0.8;"/>
     </g>
     <g id="text_7">
      <!-- 3 -->
      <g style="fill:#262626;" transform="translate(252.781875 194.596563)scale(0.1 -0.1)">
       <use xlink:href="#DejaVuSans-51"/>
      </g>
     </g>
    </g>
    <g id="xtick_8">
     <g id="line2d_8">
      <path clip-path="url(#pcd77afb94c)" d="M 290.838125 179.998125 
L 290.838125 22.318125 
" style="fill:none;stroke:#ffffff;stroke-linecap:round;stroke-width:0.8;"/>
     </g>
     <g id="text_8">
      <!-- 4 -->
      <g style="fill:#262626;" transform="translate(287.656875 194.596563)scale(0.1 -0.1)">
       <defs>
        <path d="M 37.796875 64.3125 
L 12.890625 25.390625 
L 37.796875 25.390625 
z
M 35.203125 72.90625 
L 47.609375 72.90625 
L 47.609375 25.390625 
L 58.015625 25.390625 
L 58.015625 17.1875 
L 47.609375 17.1875 
L 47.609375 0 
L 37.796875 0 
L 37.796875 17.1875 
L 4.890625 17.1875 
L 4.890625 26.703125 
z
" id="DejaVuSans-52"/>
       </defs>
       <use xlink:href="#DejaVuSans-52"/>
      </g>
     </g>
    </g>
    <g id="xtick_9">
     <g id="line2d_9">
      <path clip-path="url(#pcd77afb94c)" d="M 325.713125 179.998125 
L 325.713125 22.318125 
" style="fill:none;stroke:#ffffff;stroke-linecap:round;stroke-width:0.8;"/>
     </g>
     <g id="text_9">
      <!-- 5 -->
      <g style="fill:#262626;" transform="translate(322.531875 194.596563)scale(0.1 -0.1)">
       <defs>
        <path d="M 10.796875 72.90625 
L 49.515625 72.90625 
L 49.515625 64.59375 
L 19.828125 64.59375 
L 19.828125 46.734375 
Q 21.96875 47.46875 24.109375 47.828125 
Q 26.265625 48.1875 28.421875 48.1875 
Q 40.625 48.1875 47.75 41.5 
Q 54.890625 34.8125 54.890625 23.390625 
Q 54.890625 11.625 47.5625 5.09375 
Q 40.234375 -1.421875 26.90625 -1.421875 
Q 22.3125 -1.421875 17.546875 -0.640625 
Q 12.796875 0.140625 7.71875 1.703125 
L 7.71875 11.625 
Q 12.109375 9.234375 16.796875 8.0625 
Q 21.484375 6.890625 26.703125 6.890625 
Q 35.15625 6.890625 40.078125 11.328125 
Q 45.015625 15.765625 45.015625 23.390625 
Q 45.015625 31 40.078125 35.4375 
Q 35.15625 39.890625 26.703125 39.890625 
Q 22.75 39.890625 18.8125 39.015625 
Q 14.890625 38.140625 10.796875 36.28125 
z
" id="DejaVuSans-53"/>
       </defs>
       <use xlink:href="#DejaVuSans-53"/>
      </g>
     </g>
    </g>
    <g id="text_10">
     <!-- $x$ -->
     <g style="fill:#262626;" transform="translate(182.313125 210.554219)scale(0.13 -0.13)">
      <defs>
       <path d="M 60.015625 54.6875 
L 34.90625 27.875 
L 50.296875 0 
L 39.984375 0 
L 28.421875 21.6875 
L 8.296875 0 
L -2.59375 0 
L 24.3125 28.8125 
L 10.015625 54.6875 
L 20.3125 54.6875 
L 30.8125 34.90625 
L 49.125 54.6875 
z
" id="DejaVuSans-Oblique-120"/>
      </defs>
      <use transform="translate(0 0.3125)" xlink:href="#DejaVuSans-Oblique-120"/>
     </g>
    </g>
   </g>
   <g id="matplotlib.axis_2">
    <g id="ytick_1">
     <g id="line2d_10">
      <path clip-path="url(#pcd77afb94c)" d="M 46.713125 179.998125 
L 325.713125 179.998125 
" style="fill:none;stroke:#ffffff;stroke-linecap:round;stroke-width:0.8;"/>
     </g>
     <g id="text_11">
      <!-- 0.0 -->
      <g style="fill:#262626;" transform="translate(23.81 183.797344)scale(0.1 -0.1)">
       <defs>
        <path d="M 10.6875 12.40625 
L 21 12.40625 
L 21 0 
L 10.6875 0 
z
" id="DejaVuSans-46"/>
       </defs>
       <use xlink:href="#DejaVuSans-48"/>
       <use x="63.623047" xlink:href="#DejaVuSans-46"/>
       <use x="95.410156" xlink:href="#DejaVuSans-48"/>
      </g>
     </g>
    </g>
    <g id="ytick_2">
     <g id="line2d_11">
      <path clip-path="url(#pcd77afb94c)" d="M 46.713125 148.462125 
L 325.713125 148.462125 
" style="fill:none;stroke:#ffffff;stroke-linecap:round;stroke-width:0.8;"/>
     </g>
     <g id="text_12">
      <!-- 0.2 -->
      <g style="fill:#262626;" transform="translate(23.81 152.261344)scale(0.1 -0.1)">
       <use xlink:href="#DejaVuSans-48"/>
       <use x="63.623047" xlink:href="#DejaVuSans-46"/>
       <use x="95.410156" xlink:href="#DejaVuSans-50"/>
      </g>
     </g>
    </g>
    <g id="ytick_3">
     <g id="line2d_12">
      <path clip-path="url(#pcd77afb94c)" d="M 46.713125 116.926125 
L 325.713125 116.926125 
" style="fill:none;stroke:#ffffff;stroke-linecap:round;stroke-width:0.8;"/>
     </g>
     <g id="text_13">
      <!-- 0.4 -->
      <g style="fill:#262626;" transform="translate(23.81 120.725344)scale(0.1 -0.1)">
       <use xlink:href="#DejaVuSans-48"/>
       <use x="63.623047" xlink:href="#DejaVuSans-46"/>
       <use x="95.410156" xlink:href="#DejaVuSans-52"/>
      </g>
     </g>
    </g>
    <g id="ytick_4">
     <g id="line2d_13">
      <path clip-path="url(#pcd77afb94c)" d="M 46.713125 85.390125 
L 325.713125 85.390125 
" style="fill:none;stroke:#ffffff;stroke-linecap:round;stroke-width:0.8;"/>
     </g>
     <g id="text_14">
      <!-- 0.6 -->
      <g style="fill:#262626;" transform="translate(23.81 89.189344)scale(0.1 -0.1)">
       <defs>
        <path d="M 33.015625 40.375 
Q 26.375 40.375 22.484375 35.828125 
Q 18.609375 31.296875 18.609375 23.390625 
Q 18.609375 15.53125 22.484375 10.953125 
Q 26.375 6.390625 33.015625 6.390625 
Q 39.65625 6.390625 43.53125 10.953125 
Q 47.40625 15.53125 47.40625 23.390625 
Q 47.40625 31.296875 43.53125 35.828125 
Q 39.65625 40.375 33.015625 40.375 
z
M 52.59375 71.296875 
L 52.59375 62.3125 
Q 48.875 64.0625 45.09375 64.984375 
Q 41.3125 65.921875 37.59375 65.921875 
Q 27.828125 65.921875 22.671875 59.328125 
Q 17.53125 52.734375 16.796875 39.40625 
Q 19.671875 43.65625 24.015625 45.921875 
Q 28.375 48.1875 33.59375 48.1875 
Q 44.578125 48.1875 50.953125 41.515625 
Q 57.328125 34.859375 57.328125 23.390625 
Q 57.328125 12.15625 50.6875 5.359375 
Q 44.046875 -1.421875 33.015625 -1.421875 
Q 20.359375 -1.421875 13.671875 8.265625 
Q 6.984375 17.96875 6.984375 36.375 
Q 6.984375 53.65625 15.1875 63.9375 
Q 23.390625 74.21875 37.203125 74.21875 
Q 40.921875 74.21875 44.703125 73.484375 
Q 48.484375 72.75 52.59375 71.296875 
z
" id="DejaVuSans-54"/>
       </defs>
       <use xlink:href="#DejaVuSans-48"/>
       <use x="63.623047" xlink:href="#DejaVuSans-46"/>
       <use x="95.410156" xlink:href="#DejaVuSans-54"/>
      </g>
     </g>
    </g>
    <g id="ytick_5">
     <g id="line2d_14">
      <path clip-path="url(#pcd77afb94c)" d="M 46.713125 53.854125 
L 325.713125 53.854125 
" style="fill:none;stroke:#ffffff;stroke-linecap:round;stroke-width:0.8;"/>
     </g>
     <g id="text_15">
      <!-- 0.8 -->
      <g style="fill:#262626;" transform="translate(23.81 57.653344)scale(0.1 -0.1)">
       <defs>
        <path d="M 31.78125 34.625 
Q 24.75 34.625 20.71875 30.859375 
Q 16.703125 27.09375 16.703125 20.515625 
Q 16.703125 13.921875 20.71875 10.15625 
Q 24.75 6.390625 31.78125 6.390625 
Q 38.8125 6.390625 42.859375 10.171875 
Q 46.921875 13.96875 46.921875 20.515625 
Q 46.921875 27.09375 42.890625 30.859375 
Q 38.875 34.625 31.78125 34.625 
z
M 21.921875 38.8125 
Q 15.578125 40.375 12.03125 44.71875 
Q 8.5 49.078125 8.5 55.328125 
Q 8.5 64.0625 14.71875 69.140625 
Q 20.953125 74.21875 31.78125 74.21875 
Q 42.671875 74.21875 48.875 69.140625 
Q 55.078125 64.0625 55.078125 55.328125 
Q 55.078125 49.078125 51.53125 44.71875 
Q 48 40.375 41.703125 38.8125 
Q 48.828125 37.15625 52.796875 32.3125 
Q 56.78125 27.484375 56.78125 20.515625 
Q 56.78125 9.90625 50.3125 4.234375 
Q 43.84375 -1.421875 31.78125 -1.421875 
Q 19.734375 -1.421875 13.25 4.234375 
Q 6.78125 9.90625 6.78125 20.515625 
Q 6.78125 27.484375 10.78125 32.3125 
Q 14.796875 37.15625 21.921875 38.8125 
z
M 18.3125 54.390625 
Q 18.3125 48.734375 21.84375 45.5625 
Q 25.390625 42.390625 31.78125 42.390625 
Q 38.140625 42.390625 41.71875 45.5625 
Q 45.3125 48.734375 45.3125 54.390625 
Q 45.3125 60.0625 41.71875 63.234375 
Q 38.140625 66.40625 31.78125 66.40625 
Q 25.390625 66.40625 21.84375 63.234375 
Q 18.3125 60.0625 18.3125 54.390625 
z
" id="DejaVuSans-56"/>
       </defs>
       <use xlink:href="#DejaVuSans-48"/>
       <use x="63.623047" xlink:href="#DejaVuSans-46"/>
       <use x="95.410156" xlink:href="#DejaVuSans-56"/>
      </g>
     </g>
    </g>
    <g id="ytick_6">
     <g id="line2d_15">
      <path clip-path="url(#pcd77afb94c)" d="M 46.713125 22.318125 
L 325.713125 22.318125 
" style="fill:none;stroke:#ffffff;stroke-linecap:round;stroke-width:0.8;"/>
     </g>
     <g id="text_16">
      <!-- 1.0 -->
      <g style="fill:#262626;" transform="translate(23.81 26.117344)scale(0.1 -0.1)">
       <use xlink:href="#DejaVuSans-49"/>
       <use x="63.623047" xlink:href="#DejaVuSans-46"/>
       <use x="95.410156" xlink:href="#DejaVuSans-48"/>
      </g>
     </g>
    </g>
    <g id="text_17">
     <!-- density: $p(x)$ -->
     <g style="fill:#262626;" transform="translate(17.08 142.303125)rotate(-90)scale(0.13 -0.13)">
      <defs>
       <path d="M 45.40625 46.390625 
L 45.40625 75.984375 
L 54.390625 75.984375 
L 54.390625 0 
L 45.40625 0 
L 45.40625 8.203125 
Q 42.578125 3.328125 38.25 0.953125 
Q 33.9375 -1.421875 27.875 -1.421875 
Q 17.96875 -1.421875 11.734375 6.484375 
Q 5.515625 14.40625 5.515625 27.296875 
Q 5.515625 40.1875 11.734375 48.09375 
Q 17.96875 56 27.875 56 
Q 33.9375 56 38.25 53.625 
Q 42.578125 51.265625 45.40625 46.390625 
z
M 14.796875 27.296875 
Q 14.796875 17.390625 18.875 11.75 
Q 22.953125 6.109375 30.078125 6.109375 
Q 37.203125 6.109375 41.296875 11.75 
Q 45.40625 17.390625 45.40625 27.296875 
Q 45.40625 37.203125 41.296875 42.84375 
Q 37.203125 48.484375 30.078125 48.484375 
Q 22.953125 48.484375 18.875 42.84375 
Q 14.796875 37.203125 14.796875 27.296875 
z
" id="DejaVuSans-100"/>
       <path d="M 56.203125 29.59375 
L 56.203125 25.203125 
L 14.890625 25.203125 
Q 15.484375 15.921875 20.484375 11.0625 
Q 25.484375 6.203125 34.421875 6.203125 
Q 39.59375 6.203125 44.453125 7.46875 
Q 49.3125 8.734375 54.109375 11.28125 
L 54.109375 2.78125 
Q 49.265625 0.734375 44.1875 -0.34375 
Q 39.109375 -1.421875 33.890625 -1.421875 
Q 20.796875 -1.421875 13.15625 6.1875 
Q 5.515625 13.8125 5.515625 26.8125 
Q 5.515625 40.234375 12.765625 48.109375 
Q 20.015625 56 32.328125 56 
Q 43.359375 56 49.78125 48.890625 
Q 56.203125 41.796875 56.203125 29.59375 
z
M 47.21875 32.234375 
Q 47.125 39.59375 43.09375 43.984375 
Q 39.0625 48.390625 32.421875 48.390625 
Q 24.90625 48.390625 20.390625 44.140625 
Q 15.875 39.890625 15.1875 32.171875 
z
" id="DejaVuSans-101"/>
       <path d="M 54.890625 33.015625 
L 54.890625 0 
L 45.90625 0 
L 45.90625 32.71875 
Q 45.90625 40.484375 42.875 44.328125 
Q 39.84375 48.1875 33.796875 48.1875 
Q 26.515625 48.1875 22.3125 43.546875 
Q 18.109375 38.921875 18.109375 30.90625 
L 18.109375 0 
L 9.078125 0 
L 9.078125 54.6875 
L 18.109375 54.6875 
L 18.109375 46.1875 
Q 21.34375 51.125 25.703125 53.5625 
Q 30.078125 56 35.796875 56 
Q 45.21875 56 50.046875 50.171875 
Q 54.890625 44.34375 54.890625 33.015625 
z
" id="DejaVuSans-110"/>
       <path d="M 44.28125 53.078125 
L 44.28125 44.578125 
Q 40.484375 46.53125 36.375 47.5 
Q 32.28125 48.484375 27.875 48.484375 
Q 21.1875 48.484375 17.84375 46.4375 
Q 14.5 44.390625 14.5 40.28125 
Q 14.5 37.15625 16.890625 35.375 
Q 19.28125 33.59375 26.515625 31.984375 
L 29.59375 31.296875 
Q 39.15625 29.25 43.1875 25.515625 
Q 47.21875 21.78125 47.21875 15.09375 
Q 47.21875 7.46875 41.1875 3.015625 
Q 35.15625 -1.421875 24.609375 -1.421875 
Q 20.21875 -1.421875 15.453125 -0.5625 
Q 10.6875 0.296875 5.421875 2 
L 5.421875 11.28125 
Q 10.40625 8.6875 15.234375 7.390625 
Q 20.0625 6.109375 24.8125 6.109375 
Q 31.15625 6.109375 34.5625 8.28125 
Q 37.984375 10.453125 37.984375 14.40625 
Q 37.984375 18.0625 35.515625 20.015625 
Q 33.0625 21.96875 24.703125 23.78125 
L 21.578125 24.515625 
Q 13.234375 26.265625 9.515625 29.90625 
Q 5.8125 33.546875 5.8125 39.890625 
Q 5.8125 47.609375 11.28125 51.796875 
Q 16.75 56 26.8125 56 
Q 31.78125 56 36.171875 55.265625 
Q 40.578125 54.546875 44.28125 53.078125 
z
" id="DejaVuSans-115"/>
       <path d="M 9.421875 54.6875 
L 18.40625 54.6875 
L 18.40625 0 
L 9.421875 0 
z
M 9.421875 75.984375 
L 18.40625 75.984375 
L 18.40625 64.59375 
L 9.421875 64.59375 
z
" id="DejaVuSans-105"/>
       <path d="M 18.3125 70.21875 
L 18.3125 54.6875 
L 36.8125 54.6875 
L 36.8125 47.703125 
L 18.3125 47.703125 
L 18.3125 18.015625 
Q 18.3125 11.328125 20.140625 9.421875 
Q 21.96875 7.515625 27.59375 7.515625 
L 36.8125 7.515625 
L 36.8125 0 
L 27.59375 0 
Q 17.1875 0 13.234375 3.875 
Q 9.28125 7.765625 9.28125 18.015625 
L 9.28125 47.703125 
L 2.6875 47.703125 
L 2.6875 54.6875 
L 9.28125 54.6875 
L 9.28125 70.21875 
z
" id="DejaVuSans-116"/>
       <path d="M 32.171875 -5.078125 
Q 28.375 -14.84375 24.75 -17.8125 
Q 21.140625 -20.796875 15.09375 -20.796875 
L 7.90625 -20.796875 
L 7.90625 -13.28125 
L 13.1875 -13.28125 
Q 16.890625 -13.28125 18.9375 -11.515625 
Q 21 -9.765625 23.484375 -3.21875 
L 25.09375 0.875 
L 2.984375 54.6875 
L 12.5 54.6875 
L 29.59375 11.921875 
L 46.6875 54.6875 
L 56.203125 54.6875 
z
" id="DejaVuSans-121"/>
       <path d="M 11.71875 12.40625 
L 22.015625 12.40625 
L 22.015625 0 
L 11.71875 0 
z
M 11.71875 51.703125 
L 22.015625 51.703125 
L 22.015625 39.3125 
L 11.71875 39.3125 
z
" id="DejaVuSans-58"/>
       <path id="DejaVuSans-32"/>
       <path d="M 49.609375 33.6875 
Q 49.609375 40.875 46.484375 44.671875 
Q 43.359375 48.484375 37.5 48.484375 
Q 33.5 48.484375 29.859375 46.4375 
Q 26.21875 44.390625 23.390625 40.484375 
Q 20.609375 36.625 18.9375 31.15625 
Q 17.28125 25.6875 17.28125 20.3125 
Q 17.28125 13.484375 20.40625 9.796875 
Q 23.53125 6.109375 29.296875 6.109375 
Q 33.546875 6.109375 37.1875 8.109375 
Q 40.828125 10.109375 43.40625 13.921875 
Q 46.1875 17.921875 47.890625 23.34375 
Q 49.609375 28.765625 49.609375 33.6875 
z
M 21.78125 46.390625 
Q 25.390625 51.125 30.296875 53.5625 
Q 35.203125 56 41.21875 56 
Q 49.609375 56 54.25 50.5 
Q 58.890625 45.015625 58.890625 35.109375 
Q 58.890625 27 56 19.65625 
Q 53.125 12.3125 47.703125 6.5 
Q 44.09375 2.640625 39.546875 0.609375 
Q 35.015625 -1.421875 29.984375 -1.421875 
Q 24.171875 -1.421875 20.21875 1 
Q 16.265625 3.421875 14.3125 8.203125 
L 8.6875 -20.796875 
L -0.296875 -20.796875 
L 14.40625 54.6875 
L 23.390625 54.6875 
z
" id="DejaVuSans-Oblique-112"/>
       <path d="M 31 75.875 
Q 24.46875 64.65625 21.28125 53.65625 
Q 18.109375 42.671875 18.109375 31.390625 
Q 18.109375 20.125 21.3125 9.0625 
Q 24.515625 -2 31 -13.1875 
L 23.1875 -13.1875 
Q 15.875 -1.703125 12.234375 9.375 
Q 8.59375 20.453125 8.59375 31.390625 
Q 8.59375 42.28125 12.203125 53.3125 
Q 15.828125 64.359375 23.1875 75.875 
z
" id="DejaVuSans-40"/>
       <path d="M 8.015625 75.875 
L 15.828125 75.875 
Q 23.140625 64.359375 26.78125 53.3125 
Q 30.421875 42.28125 30.421875 31.390625 
Q 30.421875 20.453125 26.78125 9.375 
Q 23.140625 -1.703125 15.828125 -13.1875 
L 8.015625 -13.1875 
Q 14.5 -2 17.703125 9.0625 
Q 20.90625 20.125 20.90625 31.390625 
Q 20.90625 42.671875 17.703125 53.65625 
Q 14.5 64.65625 8.015625 75.875 
z
" id="DejaVuSans-41"/>
      </defs>
      <use transform="translate(0 0.015625)" xlink:href="#DejaVuSans-100"/>
      <use transform="translate(63.476562 0.015625)" xlink:href="#DejaVuSans-101"/>
      <use transform="translate(125 0.015625)" xlink:href="#DejaVuSans-110"/>
      <use transform="translate(188.378906 0.015625)" xlink:href="#DejaVuSans-115"/>
      <use transform="translate(240.478516 0.015625)" xlink:href="#DejaVuSans-105"/>
      <use transform="translate(268.261719 0.015625)" xlink:href="#DejaVuSans-116"/>
      <use transform="translate(307.470703 0.015625)" xlink:href="#DejaVuSans-121"/>
      <use transform="translate(366.650391 0.015625)" xlink:href="#DejaVuSans-58"/>
      <use transform="translate(400.341797 0.015625)" xlink:href="#DejaVuSans-32"/>
      <use transform="translate(432.128906 0.015625)" xlink:href="#DejaVuSans-Oblique-112"/>
      <use transform="translate(495.605469 0.015625)" xlink:href="#DejaVuSans-40"/>
      <use transform="translate(534.619141 0.015625)" xlink:href="#DejaVuSans-Oblique-120"/>
      <use transform="translate(593.798828 0.015625)" xlink:href="#DejaVuSans-41"/>
     </g>
    </g>
   </g>
   <g id="line2d_16">
    <path clip-path="url(#pcd77afb94c)" d="M 46.713125 179.299311 
L 49.531307 179.110505 
L 52.349489 178.878025 
L 55.16767 178.593856 
L 57.985852 178.249051 
L 60.804034 177.833762 
L 63.622216 177.337302 
L 66.440398 176.748254 
L 69.25858 176.05464 
L 72.076761 175.244134 
L 74.894943 174.304346 
L 77.713125 173.223161 
L 80.531307 171.989141 
L 83.349489 170.591974 
L 86.16767 169.022973 
L 88.985852 167.275602 
L 91.804034 165.346021 
L 94.622216 163.233616 
L 97.440398 160.941511 
L 100.25858 158.477011 
L 103.076761 155.851979 
L 105.894943 153.083088 
L 108.713125 150.191951 
L 111.531307 147.205094 
L 114.349489 144.153755 
L 117.16767 141.0735 
L 119.985852 138.003665 
L 122.804034 134.986608 
L 125.622216 132.066807 
L 128.440398 129.28981 
L 131.25858 126.701088 
L 134.076761 124.344811 
L 136.894943 122.262605 
L 139.713125 120.492338 
L 142.531307 119.06697 
L 145.349489 118.013539 
L 148.16767 117.352309 
L 150.985852 117.096115 
L 153.804034 117.249957 
L 156.622216 117.810831 
L 159.440398 118.76783 
L 162.25858 120.102497 
L 165.076761 121.789415 
L 167.894943 123.797013 
L 170.713125 126.088548 
L 173.531307 128.623222 
L 176.349489 131.357383 
L 179.16767 134.245771 
L 181.985852 137.242744 
L 184.804034 140.303455 
L 187.622216 143.384924 
L 190.440398 146.446986 
L 193.25858 149.453069 
L 196.076761 152.370811 
L 198.894943 155.172483 
L 201.713125 157.835235 
L 204.531307 160.341165 
L 207.349489 162.677226 
L 210.16767 164.835005 
L 212.985852 166.810373 
L 215.804034 168.603053 
L 218.622216 170.216129 
L 221.440398 171.655515 
L 224.25858 172.92941 
L 227.076761 174.047767 
L 229.894943 175.021788 
L 232.713125 175.863458 
L 235.531307 176.585132 
L 238.349489 177.19918 
L 241.16767 177.717691 
L 243.985852 178.15224 
L 246.804034 178.513709 
L 249.622216 178.812162 
L 252.440398 179.056777 
L 255.25858 179.255801 
L 258.076761 179.416556 
L 260.894943 179.545464 
L 263.713125 179.648092 
L 266.531307 179.729214 
L 269.349489 179.79288 
L 272.16767 179.842493 
L 274.985852 179.880881 
L 277.804034 179.910375 
L 280.622216 179.932877 
L 283.440398 179.949924 
L 286.25858 179.96275 
L 289.076761 179.972331 
L 291.894943 179.97944 
L 294.713125 179.984678 
L 297.531307 179.98851 
L 300.349489 179.991295 
L 303.16767 179.993305 
L 305.985852 179.994746 
L 308.804034 179.995771 
L 311.622216 179.996496 
L 314.440398 179.997005 
L 317.25858 179.99736 
L 320.076761 179.997606 
L 322.894943 179.997775 
L 325.713125 179.997891 
" style="fill:none;stroke:#1f77b4;stroke-linecap:round;stroke-width:1.5;"/>
   </g>
   <g id="line2d_17">
    <path clip-path="url(#pcd77afb94c)" d="M 46.713125 179.435051 
L 49.531307 179.354573 
L 52.349489 179.264191 
L 55.16767 179.162937 
L 57.985852 179.049779 
L 60.804034 178.923632 
L 63.622216 178.783352 
L 66.440398 178.627743 
L 69.25858 178.455563 
L 72.076761 178.265525 
L 74.894943 178.056306 
L 77.713125 177.826555 
L 80.531307 177.5749 
L 83.349489 177.299962 
L 86.16767 177.000361 
L 88.985852 176.674735 
L 91.804034 176.321749 
L 94.622216 175.940114 
L 97.440398 175.528602 
L 100.25858 175.086063 
L 103.076761 174.611445 
L 105.894943 174.103811 
L 108.713125 173.562363 
L 111.531307 172.986455 
L 114.349489 172.375622 
L 117.16767 171.729593 
L 119.985852 171.048313 
L 122.804034 170.331961 
L 125.622216 169.580972 
L 128.440398 168.796045 
L 131.25858 167.978167 
L 134.076761 167.128617 
L 136.894943 166.248982 
L 139.713125 165.341161 
L 142.531307 164.407372 
L 145.349489 163.45015 
L 148.16767 162.472347 
L 150.985852 161.477123 
L 153.804034 160.467942 
L 156.622216 159.44855 
L 159.440398 158.422962 
L 162.25858 157.395441 
L 165.076761 156.370469 
L 167.894943 155.352721 
L 170.713125 154.347027 
L 173.531307 153.358344 
L 176.349489 152.391708 
L 179.16767 151.452199 
L 181.985852 150.544896 
L 184.804034 149.67483 
L 187.622216 148.846941 
L 190.440398 148.06603 
L 193.25858 147.336712 
L 196.076761 146.663374 
L 198.894943 146.050127 
L 201.713125 145.50077 
L 204.531307 145.018743 
L 207.349489 144.607099 
L 210.16767 144.268466 
L 212.985852 144.005023 
L 215.804034 143.818474 
L 218.622216 143.71003 
L 221.440398 143.680398 
L 224.25858 143.729771 
L 227.076761 143.857827 
L 229.894943 144.063733 
L 232.713125 144.346153 
L 235.531307 144.703261 
L 238.349489 145.132764 
L 241.16767 145.631925 
L 243.985852 146.197592 
L 246.804034 146.82623 
L 249.622216 147.51396 
L 252.440398 148.256597 
L 255.25858 149.049694 
L 258.076761 149.888583 
L 260.894943 150.768426 
L 263.713125 151.684255 
L 266.531307 152.631022 
L 269.349489 153.603646 
L 272.16767 154.597051 
L 274.985852 155.606219 
L 277.804034 156.626221 
L 280.622216 157.652261 
L 283.440398 158.679711 
L 286.25858 159.70414 
L 289.076761 160.721346 
L 291.894943 161.727378 
L 294.713125 162.718559 
L 297.531307 163.691502 
L 300.349489 164.643121 
L 303.16767 165.570643 
L 305.985852 166.471612 
L 308.804034 167.343892 
L 311.622216 168.185661 
L 314.440398 168.995409 
L 317.25858 169.771933 
L 320.076761 170.514318 
L 322.894943 171.221932 
L 325.713125 171.894407 
" style="fill:none;stroke:#ff7f0e;stroke-linecap:round;stroke-width:1.5;"/>
   </g>
   <g id="line2d_18">
    <path clip-path="url(#pcd77afb94c)" d="M 46.713125 179.998125 
L 49.531307 179.998125 
L 52.349489 179.998125 
L 55.16767 179.998124 
L 57.985852 179.998123 
L 60.804034 179.998118 
L 63.622216 179.998106 
L 66.440398 179.998073 
L 69.25858 179.997989 
L 72.076761 179.997778 
L 74.894943 179.99727 
L 77.713125 179.996087 
L 80.531307 179.993419 
L 83.349489 179.98761 
L 86.16767 179.975385 
L 88.985852 179.950525 
L 91.804034 179.901689 
L 94.622216 179.809025 
L 97.440398 179.63923 
L 100.25858 179.338857 
L 103.076761 178.825991 
L 105.894943 177.981091 
L 108.713125 176.638665 
L 111.531307 174.582531 
L 114.349489 171.54839 
L 117.16767 167.237837 
L 119.985852 161.347289 
L 122.804034 153.613159 
L 125.622216 143.870854 
L 128.440398 132.120325 
L 131.25858 118.586072 
L 134.076761 103.756271 
L 136.894943 88.385846 
L 139.713125 73.452818 
L 142.531307 60.066046 
L 145.349489 49.333867 
L 148.16767 42.214168 
L 150.985852 39.373654 
L 153.804034 41.084913 
L 156.622216 47.183284 
L 159.440398 57.09298 
L 162.25858 69.916731 
L 165.076761 84.569606 
L 167.894943 99.929412 
L 170.713125 114.974989 
L 173.531307 128.889596 
L 176.349489 141.116961 
L 179.16767 151.369168 
L 181.985852 159.595211 
L 184.804034 165.924717 
L 187.622216 170.602476 
L 190.440398 173.926923 
L 193.25858 176.201105 
L 196.076761 177.699693 
L 198.894943 178.651518 
L 201.713125 179.234517 
L 204.531307 179.579023 
L 207.349489 179.775492 
L 210.16767 179.883658 
L 212.985852 179.941162 
L 215.804034 179.970689 
L 218.622216 179.985335 
L 221.440398 179.992354 
L 224.25858 179.995605 
L 227.076761 179.99706 
L 229.894943 179.997689 
L 232.713125 179.997952 
L 235.531307 179.998059 
L 238.349489 179.9981 
L 241.16767 179.998116 
L 243.985852 179.998122 
L 246.804034 179.998124 
L 249.622216 179.998125 
L 252.440398 179.998125 
L 255.25858 179.998125 
L 258.076761 179.998125 
L 260.894943 179.998125 
L 263.713125 179.998125 
L 266.531307 179.998125 
L 269.349489 179.998125 
L 272.16767 179.998125 
L 274.985852 179.998125 
L 277.804034 179.998125 
L 280.622216 179.998125 
L 283.440398 179.998125 
L 286.25858 179.998125 
L 289.076761 179.998125 
L 291.894943 179.998125 
L 294.713125 179.998125 
L 297.531307 179.998125 
L 300.349489 179.998125 
L 303.16767 179.998125 
L 305.985852 179.998125 
L 308.804034 179.998125 
L 311.622216 179.998125 
L 314.440398 179.998125 
L 317.25858 179.998125 
L 320.076761 179.998125 
L 322.894943 179.998125 
L 325.713125 179.998125 
" style="fill:none;stroke:#2ca02c;stroke-linecap:round;stroke-width:1.5;"/>
   </g>
   <g id="patch_3">
    <path d="M 46.713125 179.998125 
L 46.713125 22.318125 
" style="fill:none;stroke:#ffffff;stroke-linecap:square;stroke-linejoin:miter;stroke-width:0.8;"/>
   </g>
   <g id="patch_4">
    <path d="M 325.713125 179.998125 
L 325.713125 22.318125 
" style="fill:none;stroke:#ffffff;stroke-linecap:square;stroke-linejoin:miter;stroke-width:0.8;"/>
   </g>
   <g id="patch_5">
    <path d="M 46.713125 179.998125 
L 325.713125 179.998125 
" style="fill:none;stroke:#ffffff;stroke-linecap:square;stroke-linejoin:miter;stroke-width:0.8;"/>
   </g>
   <g id="patch_6">
    <path d="M 46.713125 22.318125 
L 325.713125 22.318125 
" style="fill:none;stroke:#ffffff;stroke-linecap:square;stroke-linejoin:miter;stroke-width:0.8;"/>
   </g>
   <g id="text_18">
    <!-- Univariate normal distributions -->
    <g style="fill:#262626;" transform="translate(93.115625 16.318125)scale(0.12 -0.12)">
     <defs>
      <path d="M 8.6875 72.90625 
L 18.609375 72.90625 
L 18.609375 28.609375 
Q 18.609375 16.890625 22.84375 11.734375 
Q 27.09375 6.59375 36.625 6.59375 
Q 46.09375 6.59375 50.34375 11.734375 
Q 54.59375 16.890625 54.59375 28.609375 
L 54.59375 72.90625 
L 64.5 72.90625 
L 64.5 27.390625 
Q 64.5 13.140625 57.4375 5.859375 
Q 50.390625 -1.421875 36.625 -1.421875 
Q 22.796875 -1.421875 15.734375 5.859375 
Q 8.6875 13.140625 8.6875 27.390625 
z
" id="DejaVuSans-85"/>
      <path d="M 2.984375 54.6875 
L 12.5 54.6875 
L 29.59375 8.796875 
L 46.6875 54.6875 
L 56.203125 54.6875 
L 35.6875 0 
L 23.484375 0 
z
" id="DejaVuSans-118"/>
      <path d="M 34.28125 27.484375 
Q 23.390625 27.484375 19.1875 25 
Q 14.984375 22.515625 14.984375 16.5 
Q 14.984375 11.71875 18.140625 8.90625 
Q 21.296875 6.109375 26.703125 6.109375 
Q 34.1875 6.109375 38.703125 11.40625 
Q 43.21875 16.703125 43.21875 25.484375 
L 43.21875 27.484375 
z
M 52.203125 31.203125 
L 52.203125 0 
L 43.21875 0 
L 43.21875 8.296875 
Q 40.140625 3.328125 35.546875 0.953125 
Q 30.953125 -1.421875 24.3125 -1.421875 
Q 15.921875 -1.421875 10.953125 3.296875 
Q 6 8.015625 6 15.921875 
Q 6 25.140625 12.171875 29.828125 
Q 18.359375 34.515625 30.609375 34.515625 
L 43.21875 34.515625 
L 43.21875 35.40625 
Q 43.21875 41.609375 39.140625 45 
Q 35.0625 48.390625 27.6875 48.390625 
Q 23 48.390625 18.546875 47.265625 
Q 14.109375 46.140625 10.015625 43.890625 
L 10.015625 52.203125 
Q 14.9375 54.109375 19.578125 55.046875 
Q 24.21875 56 28.609375 56 
Q 40.484375 56 46.34375 49.84375 
Q 52.203125 43.703125 52.203125 31.203125 
z
" id="DejaVuSans-97"/>
      <path d="M 41.109375 46.296875 
Q 39.59375 47.171875 37.8125 47.578125 
Q 36.03125 48 33.890625 48 
Q 26.265625 48 22.1875 43.046875 
Q 18.109375 38.09375 18.109375 28.8125 
L 18.109375 0 
L 9.078125 0 
L 9.078125 54.6875 
L 18.109375 54.6875 
L 18.109375 46.1875 
Q 20.953125 51.171875 25.484375 53.578125 
Q 30.03125 56 36.53125 56 
Q 37.453125 56 38.578125 55.875 
Q 39.703125 55.765625 41.0625 55.515625 
z
" id="DejaVuSans-114"/>
      <path d="M 30.609375 48.390625 
Q 23.390625 48.390625 19.1875 42.75 
Q 14.984375 37.109375 14.984375 27.296875 
Q 14.984375 17.484375 19.15625 11.84375 
Q 23.34375 6.203125 30.609375 6.203125 
Q 37.796875 6.203125 41.984375 11.859375 
Q 46.1875 17.53125 46.1875 27.296875 
Q 46.1875 37.015625 41.984375 42.703125 
Q 37.796875 48.390625 30.609375 48.390625 
z
M 30.609375 56 
Q 42.328125 56 49.015625 48.375 
Q 55.71875 40.765625 55.71875 27.296875 
Q 55.71875 13.875 49.015625 6.21875 
Q 42.328125 -1.421875 30.609375 -1.421875 
Q 18.84375 -1.421875 12.171875 6.21875 
Q 5.515625 13.875 5.515625 27.296875 
Q 5.515625 40.765625 12.171875 48.375 
Q 18.84375 56 30.609375 56 
z
" id="DejaVuSans-111"/>
      <path d="M 52 44.1875 
Q 55.375 50.25 60.0625 53.125 
Q 64.75 56 71.09375 56 
Q 79.640625 56 84.28125 50.015625 
Q 88.921875 44.046875 88.921875 33.015625 
L 88.921875 0 
L 79.890625 0 
L 79.890625 32.71875 
Q 79.890625 40.578125 77.09375 44.375 
Q 74.3125 48.1875 68.609375 48.1875 
Q 61.625 48.1875 57.5625 43.546875 
Q 53.515625 38.921875 53.515625 30.90625 
L 53.515625 0 
L 44.484375 0 
L 44.484375 32.71875 
Q 44.484375 40.625 41.703125 44.40625 
Q 38.921875 48.1875 33.109375 48.1875 
Q 26.21875 48.1875 22.15625 43.53125 
Q 18.109375 38.875 18.109375 30.90625 
L 18.109375 0 
L 9.078125 0 
L 9.078125 54.6875 
L 18.109375 54.6875 
L 18.109375 46.1875 
Q 21.1875 51.21875 25.484375 53.609375 
Q 29.78125 56 35.6875 56 
Q 41.65625 56 45.828125 52.96875 
Q 50 49.953125 52 44.1875 
z
" id="DejaVuSans-109"/>
      <path d="M 9.421875 75.984375 
L 18.40625 75.984375 
L 18.40625 0 
L 9.421875 0 
z
" id="DejaVuSans-108"/>
      <path d="M 48.6875 27.296875 
Q 48.6875 37.203125 44.609375 42.84375 
Q 40.53125 48.484375 33.40625 48.484375 
Q 26.265625 48.484375 22.1875 42.84375 
Q 18.109375 37.203125 18.109375 27.296875 
Q 18.109375 17.390625 22.1875 11.75 
Q 26.265625 6.109375 33.40625 6.109375 
Q 40.53125 6.109375 44.609375 11.75 
Q 48.6875 17.390625 48.6875 27.296875 
z
M 18.109375 46.390625 
Q 20.953125 51.265625 25.265625 53.625 
Q 29.59375 56 35.59375 56 
Q 45.5625 56 51.78125 48.09375 
Q 58.015625 40.1875 58.015625 27.296875 
Q 58.015625 14.40625 51.78125 6.484375 
Q 45.5625 -1.421875 35.59375 -1.421875 
Q 29.59375 -1.421875 25.265625 0.953125 
Q 20.953125 3.328125 18.109375 8.203125 
L 18.109375 0 
L 9.078125 0 
L 9.078125 75.984375 
L 18.109375 75.984375 
z
" id="DejaVuSans-98"/>
      <path d="M 8.5 21.578125 
L 8.5 54.6875 
L 17.484375 54.6875 
L 17.484375 21.921875 
Q 17.484375 14.15625 20.5 10.265625 
Q 23.53125 6.390625 29.59375 6.390625 
Q 36.859375 6.390625 41.078125 11.03125 
Q 45.3125 15.671875 45.3125 23.6875 
L 45.3125 54.6875 
L 54.296875 54.6875 
L 54.296875 0 
L 45.3125 0 
L 45.3125 8.40625 
Q 42.046875 3.421875 37.71875 1 
Q 33.40625 -1.421875 27.6875 -1.421875 
Q 18.265625 -1.421875 13.375 4.4375 
Q 8.5 10.296875 8.5 21.578125 
z
M 31.109375 56 
z
" id="DejaVuSans-117"/>
     </defs>
     <use xlink:href="#DejaVuSans-85"/>
     <use x="73.193359" xlink:href="#DejaVuSans-110"/>
     <use x="136.572266" xlink:href="#DejaVuSans-105"/>
     <use x="164.355469" xlink:href="#DejaVuSans-118"/>
     <use x="223.535156" xlink:href="#DejaVuSans-97"/>
     <use x="284.814453" xlink:href="#DejaVuSans-114"/>
     <use x="325.927734" xlink:href="#DejaVuSans-105"/>
     <use x="353.710938" xlink:href="#DejaVuSans-97"/>
     <use x="414.990234" xlink:href="#DejaVuSans-116"/>
     <use x="454.199219" xlink:href="#DejaVuSans-101"/>
     <use x="515.722656" xlink:href="#DejaVuSans-32"/>
     <use x="547.509766" xlink:href="#DejaVuSans-110"/>
     <use x="610.888672" xlink:href="#DejaVuSans-111"/>
     <use x="672.070312" xlink:href="#DejaVuSans-114"/>
     <use x="711.433594" xlink:href="#DejaVuSans-109"/>
     <use x="808.845703" xlink:href="#DejaVuSans-97"/>
     <use x="870.125" xlink:href="#DejaVuSans-108"/>
     <use x="897.908203" xlink:href="#DejaVuSans-32"/>
     <use x="929.695312" xlink:href="#DejaVuSans-100"/>
     <use x="993.171875" xlink:href="#DejaVuSans-105"/>
     <use x="1020.955078" xlink:href="#DejaVuSans-115"/>
     <use x="1073.054688" xlink:href="#DejaVuSans-116"/>
     <use x="1112.263672" xlink:href="#DejaVuSans-114"/>
     <use x="1153.376953" xlink:href="#DejaVuSans-105"/>
     <use x="1181.160156" xlink:href="#DejaVuSans-98"/>
     <use x="1244.636719" xlink:href="#DejaVuSans-117"/>
     <use x="1308.015625" xlink:href="#DejaVuSans-116"/>
     <use x="1347.224609" xlink:href="#DejaVuSans-105"/>
     <use x="1375.007812" xlink:href="#DejaVuSans-111"/>
     <use x="1436.189453" xlink:href="#DejaVuSans-110"/>
     <use x="1499.568359" xlink:href="#DejaVuSans-115"/>
    </g>
   </g>
   <g id="legend_1">
    <g id="patch_7">
     <path d="M 242.413125 74.3525 
L 318.713125 74.3525 
Q 320.713125 74.3525 320.713125 72.3525 
L 320.713125 29.318125 
Q 320.713125 27.318125 318.713125 27.318125 
L 242.413125 27.318125 
Q 240.413125 27.318125 240.413125 29.318125 
L 240.413125 72.3525 
Q 240.413125 74.3525 242.413125 74.3525 
z
" style="fill:#eaeaf2;opacity:0.8;stroke:#cccccc;stroke-linejoin:miter;"/>
    </g>
    <g id="line2d_19">
     <path d="M 244.413125 35.416563 
L 264.413125 35.416563 
" style="fill:none;stroke:#1f77b4;stroke-linecap:round;stroke-width:1.5;"/>
    </g>
    <g id="line2d_20"/>
    <g id="text_19">
     <!-- $\mathcal{N}(0, 1)$ -->
     <g style="fill:#262626;" transform="translate(272.413125 38.916563)scale(0.1 -0.1)">
      <defs>
       <path d="M 67.09375 12.5 
L 67.203125 12.5 
Q 82.703125 63.59375 84.5 68.40625 
Q 85.5 70.90625 86.296875 72.09375 
Q 91.09375 79.5 97.703125 79.5 
Q 101.40625 79.5 103.90625 77.046875 
Q 106.40625 74.59375 106.40625 71.09375 
Q 106.40625 68.40625 105 66.75 
Q 103.59375 65.09375 101.09375 65.09375 
Q 99.5 65.09375 98.390625 66 
Q 97.296875 66.90625 96.84375 67.953125 
Q 96.40625 69 95.59375 69.890625 
Q 94.796875 70.796875 93.796875 70.796875 
Q 92.796875 70.796875 91.890625 70.4375 
Q 91 70.09375 90.390625 69.640625 
Q 89.796875 69.203125 89.140625 68.296875 
Q 88.5 67.40625 88.09375 66.796875 
Q 87.703125 66.203125 87.25 65.046875 
Q 86.796875 63.90625 86.640625 63.40625 
Q 86.5 62.90625 86.09375 61.75 
Q 85.703125 60.59375 85.703125 60.40625 
L 66.59375 -2.40625 
L 64.59375 -2.40625 
Q 48.09375 20 38.796875 45.203125 
L 38.59375 45.203125 
Q 37.59375 40.296875 36.84375 36.890625 
Q 36.09375 33.5 34.59375 28 
Q 33.09375 22.5 31.6875 18.59375 
Q 30.296875 14.703125 28.1875 10.203125 
Q 26.09375 5.703125 23.890625 2.890625 
Q 21.703125 0.09375 18.796875 -1.796875 
Q 15.90625 -3.703125 12.703125 -3.703125 
Q 9 -3.703125 6.5 -1.25 
Q 4 1.203125 4 4.703125 
Q 4 7.40625 5.390625 9.046875 
Q 6.796875 10.703125 9.296875 10.703125 
Q 10.90625 10.703125 12 9.796875 
Q 13.09375 8.90625 13.546875 7.84375 
Q 14 6.796875 14.796875 5.890625 
Q 15.59375 5 16.59375 5 
Q 19.09375 5 21.390625 7.5 
Q 23.703125 10 25.59375 14.5 
Q 27.5 19 29.09375 24.09375 
Q 30.703125 29.203125 32.140625 35.75 
Q 33.59375 42.296875 34.59375 47.390625 
Q 35.59375 52.5 36.6875 58.453125 
Q 37.796875 64.40625 38.40625 67.09375 
L 41.09375 67.09375 
Q 41.90625 65.09375 44.90625 57.5 
Q 47.90625 49.90625 49.09375 47 
Q 50.296875 44.09375 53 37.84375 
Q 55.703125 31.59375 57.546875 28.09375 
Q 59.40625 24.59375 62 20.1875 
Q 64.59375 15.796875 67.09375 12.5 
z
" id="STIXNonUnicode-Italic-57914"/>
       <path d="M 11.71875 12.40625 
L 22.015625 12.40625 
L 22.015625 4 
L 14.015625 -11.625 
L 7.71875 -11.625 
L 11.71875 4 
z
" id="DejaVuSans-44"/>
      </defs>
      <use transform="translate(0 0.5)" xlink:href="#STIXNonUnicode-Italic-57914"/>
      <use transform="translate(95.699982 0.5)" xlink:href="#DejaVuSans-40"/>
      <use transform="translate(134.713654 0.5)" xlink:href="#DejaVuSans-48"/>
      <use transform="translate(198.3367 0.5)" xlink:href="#DejaVuSans-44"/>
      <use transform="translate(249.606232 0.5)" xlink:href="#DejaVuSans-49"/>
      <use transform="translate(313.229279 0.5)" xlink:href="#DejaVuSans-41"/>
     </g>
    </g>
    <g id="line2d_21">
     <path d="M 244.413125 50.094688 
L 264.413125 50.094688 
" style="fill:none;stroke:#ff7f0e;stroke-linecap:round;stroke-width:1.5;"/>
    </g>
    <g id="line2d_22"/>
    <g id="text_20">
     <!-- $\mathcal{N}(2, 3)$ -->
     <g style="fill:#262626;" transform="translate(272.413125 53.594688)scale(0.1 -0.1)">
      <use transform="translate(0 0.5)" xlink:href="#STIXNonUnicode-Italic-57914"/>
      <use transform="translate(95.699982 0.5)" xlink:href="#DejaVuSans-40"/>
      <use transform="translate(134.713654 0.5)" xlink:href="#DejaVuSans-50"/>
      <use transform="translate(198.3367 0.5)" xlink:href="#DejaVuSans-44"/>
      <use transform="translate(249.606232 0.5)" xlink:href="#DejaVuSans-51"/>
      <use transform="translate(313.229279 0.5)" xlink:href="#DejaVuSans-41"/>
     </g>
    </g>
    <g id="line2d_23">
     <path d="M 244.413125 64.772813 
L 264.413125 64.772813 
" style="fill:none;stroke:#2ca02c;stroke-linecap:round;stroke-width:1.5;"/>
    </g>
    <g id="line2d_24"/>
    <g id="text_21">
     <!-- $\mathcal{N}(0, 0.2)$ -->
     <g style="fill:#262626;" transform="translate(272.413125 68.272813)scale(0.1 -0.1)">
      <use transform="translate(0 0.5)" xlink:href="#STIXNonUnicode-Italic-57914"/>
      <use transform="translate(95.699982 0.5)" xlink:href="#DejaVuSans-40"/>
      <use transform="translate(134.713654 0.5)" xlink:href="#DejaVuSans-48"/>
      <use transform="translate(198.3367 0.5)" xlink:href="#DejaVuSans-44"/>
      <use transform="translate(249.606232 0.5)" xlink:href="#DejaVuSans-48"/>
      <use transform="translate(313.229279 0.5)" xlink:href="#DejaVuSans-46"/>
      <use transform="translate(339.516388 0.5)" xlink:href="#DejaVuSans-50"/>
      <use transform="translate(403.139435 0.5)" xlink:href="#DejaVuSans-41"/>
     </g>
    </g>
   </g>
  </g>
 </g>
 <defs>
  <clipPath id="pcd77afb94c">
   <rect height="157.68" width="279" x="46.713125" y="22.318125"/>
  </clipPath>
 </defs>
</svg>
