<?xml version="1.0" encoding="utf-8" standalone="no"?>
<!DOCTYPE svg PUBLIC "-//W3C//DTD SVG 1.1//EN"
  "http://www.w3.org/Graphics/SVG/1.1/DTD/svg11.dtd">
<svg height="275.615188pt" version="1.1" viewBox="0 0 420.456875 275.615188" width="420.456875pt" xmlns="http://www.w3.org/2000/svg" xmlns:xlink="http://www.w3.org/1999/xlink">
 <metadata>
  <rdf:RDF xmlns:cc="http://creativecommons.org/ns#" xmlns:dc="http://purl.org/dc/elements/1.1/" xmlns:rdf="http://www.w3.org/1999/02/22-rdf-syntax-ns#">
   <cc:Work>
    <dc:type rdf:resource="http://purl.org/dc/dcmitype/StillImage"/>
    <dc:date>2021-09-09T06:42:30.239847</dc:date>
    <dc:format>image/svg+xml</dc:format>
    <dc:creator>
     <cc:Agent>
      <dc:title>Matplotlib v3.4.3, https://matplotlib.org/</dc:title>
     </cc:Agent>
    </dc:creator>
   </cc:Work>
  </rdf:RDF>
 </metadata>
 <defs>
  <style type="text/css">*{stroke-linecap:butt;stroke-linejoin:round;}</style>
 </defs>
 <g id="figure_1">
  <g id="patch_1">
   <path d="M -0 275.615188 
L 420.456875 275.615188 
L 420.456875 0 
L -0 0 
z
" style="fill:#ffffff;"/>
  </g>
  <g id="axes_1">
   <g id="patch_2">
    <path d="M 55.092813 235.1555 
L 405.305313 235.1555 
L 405.305313 35.7555 
L 55.092813 35.7555 
z
" style="fill:#eaeaf2;"/>
   </g>
   <g id="matplotlib.axis_1">
    <g id="xtick_1">
     <g id="line2d_1">
      <path clip-path="url(#pe670bd4be8)" d="M 55.092813 235.1555 
L 55.092813 35.7555 
" style="fill:none;stroke:#ffffff;stroke-linecap:round;stroke-width:0.8;"/>
     </g>
     <g id="text_1">
      <!-- 0.0 -->
      <g style="fill:#262626;" transform="translate(47.14125 249.753938)scale(0.1 -0.1)">
       <defs>
        <path d="M 2034 4250 
Q 1547 4250 1301 3770 
Q 1056 3291 1056 2328 
Q 1056 1369 1301 889 
Q 1547 409 2034 409 
Q 2525 409 2770 889 
Q 3016 1369 3016 2328 
Q 3016 3291 2770 3770 
Q 2525 4250 2034 4250 
z
M 2034 4750 
Q 2819 4750 3233 4129 
Q 3647 3509 3647 2328 
Q 3647 1150 3233 529 
Q 2819 -91 2034 -91 
Q 1250 -91 836 529 
Q 422 1150 422 2328 
Q 422 3509 836 4129 
Q 1250 4750 2034 4750 
z
" id="DejaVuSans-30" transform="scale(0.015625)"/>
        <path d="M 684 794 
L 1344 794 
L 1344 0 
L 684 0 
L 684 794 
z
" id="DejaVuSans-2e" transform="scale(0.015625)"/>
       </defs>
       <use xlink:href="#DejaVuSans-30"/>
       <use x="63.623047" xlink:href="#DejaVuSans-2e"/>
       <use x="95.410156" xlink:href="#DejaVuSans-30"/>
      </g>
     </g>
    </g>
    <g id="xtick_2">
     <g id="line2d_2">
      <path clip-path="url(#pe670bd4be8)" d="M 125.135313 235.1555 
L 125.135313 35.7555 
" style="fill:none;stroke:#ffffff;stroke-linecap:round;stroke-width:0.8;"/>
     </g>
     <g id="text_2">
      <!-- 0.2 -->
      <g style="fill:#262626;" transform="translate(117.18375 249.753938)scale(0.1 -0.1)">
       <defs>
        <path d="M 1228 531 
L 3431 531 
L 3431 0 
L 469 0 
L 469 531 
Q 828 903 1448 1529 
Q 2069 2156 2228 2338 
Q 2531 2678 2651 2914 
Q 2772 3150 2772 3378 
Q 2772 3750 2511 3984 
Q 2250 4219 1831 4219 
Q 1534 4219 1204 4116 
Q 875 4013 500 3803 
L 500 4441 
Q 881 4594 1212 4672 
Q 1544 4750 1819 4750 
Q 2544 4750 2975 4387 
Q 3406 4025 3406 3419 
Q 3406 3131 3298 2873 
Q 3191 2616 2906 2266 
Q 2828 2175 2409 1742 
Q 1991 1309 1228 531 
z
" id="DejaVuSans-32" transform="scale(0.015625)"/>
       </defs>
       <use xlink:href="#DejaVuSans-30"/>
       <use x="63.623047" xlink:href="#DejaVuSans-2e"/>
       <use x="95.410156" xlink:href="#DejaVuSans-32"/>
      </g>
     </g>
    </g>
    <g id="xtick_3">
     <g id="line2d_3">
      <path clip-path="url(#pe670bd4be8)" d="M 195.177813 235.1555 
L 195.177813 35.7555 
" style="fill:none;stroke:#ffffff;stroke-linecap:round;stroke-width:0.8;"/>
     </g>
     <g id="text_3">
      <!-- 0.4 -->
      <g style="fill:#262626;" transform="translate(187.22625 249.753938)scale(0.1 -0.1)">
       <defs>
        <path d="M 2419 4116 
L 825 1625 
L 2419 1625 
L 2419 4116 
z
M 2253 4666 
L 3047 4666 
L 3047 1625 
L 3713 1625 
L 3713 1100 
L 3047 1100 
L 3047 0 
L 2419 0 
L 2419 1100 
L 313 1100 
L 313 1709 
L 2253 4666 
z
" id="DejaVuSans-34" transform="scale(0.015625)"/>
       </defs>
       <use xlink:href="#DejaVuSans-30"/>
       <use x="63.623047" xlink:href="#DejaVuSans-2e"/>
       <use x="95.410156" xlink:href="#DejaVuSans-34"/>
      </g>
     </g>
    </g>
    <g id="xtick_4">
     <g id="line2d_4">
      <path clip-path="url(#pe670bd4be8)" d="M 265.220313 235.1555 
L 265.220313 35.7555 
" style="fill:none;stroke:#ffffff;stroke-linecap:round;stroke-width:0.8;"/>
     </g>
     <g id="text_4">
      <!-- 0.6 -->
      <g style="fill:#262626;" transform="translate(257.26875 249.753938)scale(0.1 -0.1)">
       <defs>
        <path d="M 2113 2584 
Q 1688 2584 1439 2293 
Q 1191 2003 1191 1497 
Q 1191 994 1439 701 
Q 1688 409 2113 409 
Q 2538 409 2786 701 
Q 3034 994 3034 1497 
Q 3034 2003 2786 2293 
Q 2538 2584 2113 2584 
z
M 3366 4563 
L 3366 3988 
Q 3128 4100 2886 4159 
Q 2644 4219 2406 4219 
Q 1781 4219 1451 3797 
Q 1122 3375 1075 2522 
Q 1259 2794 1537 2939 
Q 1816 3084 2150 3084 
Q 2853 3084 3261 2657 
Q 3669 2231 3669 1497 
Q 3669 778 3244 343 
Q 2819 -91 2113 -91 
Q 1303 -91 875 529 
Q 447 1150 447 2328 
Q 447 3434 972 4092 
Q 1497 4750 2381 4750 
Q 2619 4750 2861 4703 
Q 3103 4656 3366 4563 
z
" id="DejaVuSans-36" transform="scale(0.015625)"/>
       </defs>
       <use xlink:href="#DejaVuSans-30"/>
       <use x="63.623047" xlink:href="#DejaVuSans-2e"/>
       <use x="95.410156" xlink:href="#DejaVuSans-36"/>
      </g>
     </g>
    </g>
    <g id="xtick_5">
     <g id="line2d_5">
      <path clip-path="url(#pe670bd4be8)" d="M 335.262812 235.1555 
L 335.262812 35.7555 
" style="fill:none;stroke:#ffffff;stroke-linecap:round;stroke-width:0.8;"/>
     </g>
     <g id="text_5">
      <!-- 0.8 -->
      <g style="fill:#262626;" transform="translate(327.31125 249.753938)scale(0.1 -0.1)">
       <defs>
        <path d="M 2034 2216 
Q 1584 2216 1326 1975 
Q 1069 1734 1069 1313 
Q 1069 891 1326 650 
Q 1584 409 2034 409 
Q 2484 409 2743 651 
Q 3003 894 3003 1313 
Q 3003 1734 2745 1975 
Q 2488 2216 2034 2216 
z
M 1403 2484 
Q 997 2584 770 2862 
Q 544 3141 544 3541 
Q 544 4100 942 4425 
Q 1341 4750 2034 4750 
Q 2731 4750 3128 4425 
Q 3525 4100 3525 3541 
Q 3525 3141 3298 2862 
Q 3072 2584 2669 2484 
Q 3125 2378 3379 2068 
Q 3634 1759 3634 1313 
Q 3634 634 3220 271 
Q 2806 -91 2034 -91 
Q 1263 -91 848 271 
Q 434 634 434 1313 
Q 434 1759 690 2068 
Q 947 2378 1403 2484 
z
M 1172 3481 
Q 1172 3119 1398 2916 
Q 1625 2713 2034 2713 
Q 2441 2713 2670 2916 
Q 2900 3119 2900 3481 
Q 2900 3844 2670 4047 
Q 2441 4250 2034 4250 
Q 1625 4250 1398 4047 
Q 1172 3844 1172 3481 
z
" id="DejaVuSans-38" transform="scale(0.015625)"/>
       </defs>
       <use xlink:href="#DejaVuSans-30"/>
       <use x="63.623047" xlink:href="#DejaVuSans-2e"/>
       <use x="95.410156" xlink:href="#DejaVuSans-38"/>
      </g>
     </g>
    </g>
    <g id="xtick_6">
     <g id="line2d_6">
      <path clip-path="url(#pe670bd4be8)" d="M 405.305313 235.1555 
L 405.305313 35.7555 
" style="fill:none;stroke:#ffffff;stroke-linecap:round;stroke-width:0.8;"/>
     </g>
     <g id="text_6">
      <!-- 1.0 -->
      <g style="fill:#262626;" transform="translate(397.35375 249.753938)scale(0.1 -0.1)">
       <defs>
        <path d="M 794 531 
L 1825 531 
L 1825 4091 
L 703 3866 
L 703 4441 
L 1819 4666 
L 2450 4666 
L 2450 531 
L 3481 531 
L 3481 0 
L 794 0 
L 794 531 
z
" id="DejaVuSans-31" transform="scale(0.015625)"/>
       </defs>
       <use xlink:href="#DejaVuSans-31"/>
       <use x="63.623047" xlink:href="#DejaVuSans-2e"/>
       <use x="95.410156" xlink:href="#DejaVuSans-30"/>
      </g>
     </g>
    </g>
    <g id="text_7">
     <!-- $t$ (time) -->
     <g style="fill:#262626;" transform="translate(205.824062 265.711594)scale(0.13 -0.13)">
      <defs>
       <path d="M 2706 3500 
L 2619 3053 
L 1472 3053 
L 1100 1153 
Q 1081 1047 1072 975 
Q 1063 903 1063 863 
Q 1063 663 1183 572 
Q 1303 481 1569 481 
L 2150 481 
L 2053 0 
L 1503 0 
Q 991 0 739 200 
Q 488 400 488 806 
Q 488 878 497 964 
Q 506 1050 525 1153 
L 897 3053 
L 409 3053 
L 500 3500 
L 978 3500 
L 1172 4494 
L 1747 4494 
L 1556 3500 
L 2706 3500 
z
" id="DejaVuSans-Oblique-74" transform="scale(0.015625)"/>
       <path id="DejaVuSans-20" transform="scale(0.015625)"/>
       <path d="M 1984 4856 
Q 1566 4138 1362 3434 
Q 1159 2731 1159 2009 
Q 1159 1288 1364 580 
Q 1569 -128 1984 -844 
L 1484 -844 
Q 1016 -109 783 600 
Q 550 1309 550 2009 
Q 550 2706 781 3412 
Q 1013 4119 1484 4856 
L 1984 4856 
z
" id="DejaVuSans-28" transform="scale(0.015625)"/>
       <path d="M 1172 4494 
L 1172 3500 
L 2356 3500 
L 2356 3053 
L 1172 3053 
L 1172 1153 
Q 1172 725 1289 603 
Q 1406 481 1766 481 
L 2356 481 
L 2356 0 
L 1766 0 
Q 1100 0 847 248 
Q 594 497 594 1153 
L 594 3053 
L 172 3053 
L 172 3500 
L 594 3500 
L 594 4494 
L 1172 4494 
z
" id="DejaVuSans-74" transform="scale(0.015625)"/>
       <path d="M 603 3500 
L 1178 3500 
L 1178 0 
L 603 0 
L 603 3500 
z
M 603 4863 
L 1178 4863 
L 1178 4134 
L 603 4134 
L 603 4863 
z
" id="DejaVuSans-69" transform="scale(0.015625)"/>
       <path d="M 3328 2828 
Q 3544 3216 3844 3400 
Q 4144 3584 4550 3584 
Q 5097 3584 5394 3201 
Q 5691 2819 5691 2113 
L 5691 0 
L 5113 0 
L 5113 2094 
Q 5113 2597 4934 2840 
Q 4756 3084 4391 3084 
Q 3944 3084 3684 2787 
Q 3425 2491 3425 1978 
L 3425 0 
L 2847 0 
L 2847 2094 
Q 2847 2600 2669 2842 
Q 2491 3084 2119 3084 
Q 1678 3084 1418 2786 
Q 1159 2488 1159 1978 
L 1159 0 
L 581 0 
L 581 3500 
L 1159 3500 
L 1159 2956 
Q 1356 3278 1631 3431 
Q 1906 3584 2284 3584 
Q 2666 3584 2933 3390 
Q 3200 3197 3328 2828 
z
" id="DejaVuSans-6d" transform="scale(0.015625)"/>
       <path d="M 3597 1894 
L 3597 1613 
L 953 1613 
Q 991 1019 1311 708 
Q 1631 397 2203 397 
Q 2534 397 2845 478 
Q 3156 559 3463 722 
L 3463 178 
Q 3153 47 2828 -22 
Q 2503 -91 2169 -91 
Q 1331 -91 842 396 
Q 353 884 353 1716 
Q 353 2575 817 3079 
Q 1281 3584 2069 3584 
Q 2775 3584 3186 3129 
Q 3597 2675 3597 1894 
z
M 3022 2063 
Q 3016 2534 2758 2815 
Q 2500 3097 2075 3097 
Q 1594 3097 1305 2825 
Q 1016 2553 972 2059 
L 3022 2063 
z
" id="DejaVuSans-65" transform="scale(0.015625)"/>
       <path d="M 513 4856 
L 1013 4856 
Q 1481 4119 1714 3412 
Q 1947 2706 1947 2009 
Q 1947 1309 1714 600 
Q 1481 -109 1013 -844 
L 513 -844 
Q 928 -128 1133 580 
Q 1338 1288 1338 2009 
Q 1338 2731 1133 3434 
Q 928 4138 513 4856 
z
" id="DejaVuSans-29" transform="scale(0.015625)"/>
      </defs>
      <use transform="translate(0 0.015625)" xlink:href="#DejaVuSans-Oblique-74"/>
      <use transform="translate(39.208984 0.015625)" xlink:href="#DejaVuSans-20"/>
      <use transform="translate(70.996094 0.015625)" xlink:href="#DejaVuSans-28"/>
      <use transform="translate(110.009766 0.015625)" xlink:href="#DejaVuSans-74"/>
      <use transform="translate(149.21875 0.015625)" xlink:href="#DejaVuSans-69"/>
      <use transform="translate(177.001953 0.015625)" xlink:href="#DejaVuSans-6d"/>
      <use transform="translate(274.414062 0.015625)" xlink:href="#DejaVuSans-65"/>
      <use transform="translate(335.9375 0.015625)" xlink:href="#DejaVuSans-29"/>
     </g>
    </g>
   </g>
   <g id="matplotlib.axis_2">
    <g id="ytick_1">
     <g id="line2d_7">
      <path clip-path="url(#pe670bd4be8)" d="M 55.092813 224.306905 
L 405.305313 224.306905 
" style="fill:none;stroke:#ffffff;stroke-linecap:round;stroke-width:0.8;"/>
     </g>
     <g id="text_8">
      <!-- −1.0 -->
      <g style="fill:#262626;" transform="translate(23.81 228.106124)scale(0.1 -0.1)">
       <defs>
        <path d="M 678 2272 
L 4684 2272 
L 4684 1741 
L 678 1741 
L 678 2272 
z
" id="DejaVuSans-2212" transform="scale(0.015625)"/>
       </defs>
       <use xlink:href="#DejaVuSans-2212"/>
       <use x="83.789062" xlink:href="#DejaVuSans-31"/>
       <use x="147.412109" xlink:href="#DejaVuSans-2e"/>
       <use x="179.199219" xlink:href="#DejaVuSans-30"/>
      </g>
     </g>
    </g>
    <g id="ytick_2">
     <g id="line2d_8">
      <path clip-path="url(#pe670bd4be8)" d="M 55.092813 180.510006 
L 405.305313 180.510006 
" style="fill:none;stroke:#ffffff;stroke-linecap:round;stroke-width:0.8;"/>
     </g>
     <g id="text_9">
      <!-- −0.5 -->
      <g style="fill:#262626;" transform="translate(23.81 184.309225)scale(0.1 -0.1)">
       <defs>
        <path d="M 691 4666 
L 3169 4666 
L 3169 4134 
L 1269 4134 
L 1269 2991 
Q 1406 3038 1543 3061 
Q 1681 3084 1819 3084 
Q 2600 3084 3056 2656 
Q 3513 2228 3513 1497 
Q 3513 744 3044 326 
Q 2575 -91 1722 -91 
Q 1428 -91 1123 -41 
Q 819 9 494 109 
L 494 744 
Q 775 591 1075 516 
Q 1375 441 1709 441 
Q 2250 441 2565 725 
Q 2881 1009 2881 1497 
Q 2881 1984 2565 2268 
Q 2250 2553 1709 2553 
Q 1456 2553 1204 2497 
Q 953 2441 691 2322 
L 691 4666 
z
" id="DejaVuSans-35" transform="scale(0.015625)"/>
       </defs>
       <use xlink:href="#DejaVuSans-2212"/>
       <use x="83.789062" xlink:href="#DejaVuSans-30"/>
       <use x="147.412109" xlink:href="#DejaVuSans-2e"/>
       <use x="179.199219" xlink:href="#DejaVuSans-35"/>
      </g>
     </g>
    </g>
    <g id="ytick_3">
     <g id="line2d_9">
      <path clip-path="url(#pe670bd4be8)" d="M 55.092813 136.713108 
L 405.305313 136.713108 
" style="fill:none;stroke:#ffffff;stroke-linecap:round;stroke-width:0.8;"/>
     </g>
     <g id="text_10">
      <!-- 0.0 -->
      <g style="fill:#262626;" transform="translate(32.189688 140.512327)scale(0.1 -0.1)">
       <use xlink:href="#DejaVuSans-30"/>
       <use x="63.623047" xlink:href="#DejaVuSans-2e"/>
       <use x="95.410156" xlink:href="#DejaVuSans-30"/>
      </g>
     </g>
    </g>
    <g id="ytick_4">
     <g id="line2d_10">
      <path clip-path="url(#pe670bd4be8)" d="M 55.092813 92.916209 
L 405.305313 92.916209 
" style="fill:none;stroke:#ffffff;stroke-linecap:round;stroke-width:0.8;"/>
     </g>
     <g id="text_11">
      <!-- 0.5 -->
      <g style="fill:#262626;" transform="translate(32.189688 96.715428)scale(0.1 -0.1)">
       <use xlink:href="#DejaVuSans-30"/>
       <use x="63.623047" xlink:href="#DejaVuSans-2e"/>
       <use x="95.410156" xlink:href="#DejaVuSans-35"/>
      </g>
     </g>
    </g>
    <g id="ytick_5">
     <g id="line2d_11">
      <path clip-path="url(#pe670bd4be8)" d="M 55.092813 49.119311 
L 405.305313 49.119311 
" style="fill:none;stroke:#ffffff;stroke-linecap:round;stroke-width:0.8;"/>
     </g>
     <g id="text_12">
      <!-- 1.0 -->
      <g style="fill:#262626;" transform="translate(32.189688 52.91853)scale(0.1 -0.1)">
       <use xlink:href="#DejaVuSans-31"/>
       <use x="63.623047" xlink:href="#DejaVuSans-2e"/>
       <use x="95.410156" xlink:href="#DejaVuSans-30"/>
      </g>
     </g>
    </g>
    <g id="text_13">
     <!-- $d$ (position) -->
     <g style="fill:#262626;" transform="translate(17.08 172.5055)rotate(-90)scale(0.13 -0.13)">
      <defs>
       <path d="M 2675 525 
Q 2444 222 2128 65 
Q 1813 -91 1428 -91 
Q 903 -91 598 267 
Q 294 625 294 1247 
Q 294 1766 478 2236 
Q 663 2706 1013 3078 
Q 1244 3325 1534 3454 
Q 1825 3584 2144 3584 
Q 2481 3584 2739 3421 
Q 2997 3259 3138 2956 
L 3513 4863 
L 4091 4863 
L 3144 0 
L 2566 0 
L 2675 525 
z
M 891 1350 
Q 891 897 1095 644 
Q 1300 391 1663 391 
Q 1931 391 2161 520 
Q 2391 650 2566 903 
Q 2750 1166 2856 1509 
Q 2963 1853 2963 2188 
Q 2963 2622 2758 2865 
Q 2553 3109 2194 3109 
Q 1922 3109 1687 2981 
Q 1453 2853 1288 2613 
Q 1106 2353 998 2009 
Q 891 1666 891 1350 
z
" id="DejaVuSans-Oblique-64" transform="scale(0.015625)"/>
       <path d="M 1159 525 
L 1159 -1331 
L 581 -1331 
L 581 3500 
L 1159 3500 
L 1159 2969 
Q 1341 3281 1617 3432 
Q 1894 3584 2278 3584 
Q 2916 3584 3314 3078 
Q 3713 2572 3713 1747 
Q 3713 922 3314 415 
Q 2916 -91 2278 -91 
Q 1894 -91 1617 61 
Q 1341 213 1159 525 
z
M 3116 1747 
Q 3116 2381 2855 2742 
Q 2594 3103 2138 3103 
Q 1681 3103 1420 2742 
Q 1159 2381 1159 1747 
Q 1159 1113 1420 752 
Q 1681 391 2138 391 
Q 2594 391 2855 752 
Q 3116 1113 3116 1747 
z
" id="DejaVuSans-70" transform="scale(0.015625)"/>
       <path d="M 1959 3097 
Q 1497 3097 1228 2736 
Q 959 2375 959 1747 
Q 959 1119 1226 758 
Q 1494 397 1959 397 
Q 2419 397 2687 759 
Q 2956 1122 2956 1747 
Q 2956 2369 2687 2733 
Q 2419 3097 1959 3097 
z
M 1959 3584 
Q 2709 3584 3137 3096 
Q 3566 2609 3566 1747 
Q 3566 888 3137 398 
Q 2709 -91 1959 -91 
Q 1206 -91 779 398 
Q 353 888 353 1747 
Q 353 2609 779 3096 
Q 1206 3584 1959 3584 
z
" id="DejaVuSans-6f" transform="scale(0.015625)"/>
       <path d="M 2834 3397 
L 2834 2853 
Q 2591 2978 2328 3040 
Q 2066 3103 1784 3103 
Q 1356 3103 1142 2972 
Q 928 2841 928 2578 
Q 928 2378 1081 2264 
Q 1234 2150 1697 2047 
L 1894 2003 
Q 2506 1872 2764 1633 
Q 3022 1394 3022 966 
Q 3022 478 2636 193 
Q 2250 -91 1575 -91 
Q 1294 -91 989 -36 
Q 684 19 347 128 
L 347 722 
Q 666 556 975 473 
Q 1284 391 1588 391 
Q 1994 391 2212 530 
Q 2431 669 2431 922 
Q 2431 1156 2273 1281 
Q 2116 1406 1581 1522 
L 1381 1569 
Q 847 1681 609 1914 
Q 372 2147 372 2553 
Q 372 3047 722 3315 
Q 1072 3584 1716 3584 
Q 2034 3584 2315 3537 
Q 2597 3491 2834 3397 
z
" id="DejaVuSans-73" transform="scale(0.015625)"/>
       <path d="M 3513 2113 
L 3513 0 
L 2938 0 
L 2938 2094 
Q 2938 2591 2744 2837 
Q 2550 3084 2163 3084 
Q 1697 3084 1428 2787 
Q 1159 2491 1159 1978 
L 1159 0 
L 581 0 
L 581 3500 
L 1159 3500 
L 1159 2956 
Q 1366 3272 1645 3428 
Q 1925 3584 2291 3584 
Q 2894 3584 3203 3211 
Q 3513 2838 3513 2113 
z
" id="DejaVuSans-6e" transform="scale(0.015625)"/>
      </defs>
      <use transform="translate(0 0.015625)" xlink:href="#DejaVuSans-Oblique-64"/>
      <use transform="translate(63.476562 0.015625)" xlink:href="#DejaVuSans-20"/>
      <use transform="translate(95.263672 0.015625)" xlink:href="#DejaVuSans-28"/>
      <use transform="translate(134.277344 0.015625)" xlink:href="#DejaVuSans-70"/>
      <use transform="translate(197.753906 0.015625)" xlink:href="#DejaVuSans-6f"/>
      <use transform="translate(258.935547 0.015625)" xlink:href="#DejaVuSans-73"/>
      <use transform="translate(311.035156 0.015625)" xlink:href="#DejaVuSans-69"/>
      <use transform="translate(338.818359 0.015625)" xlink:href="#DejaVuSans-74"/>
      <use transform="translate(378.027344 0.015625)" xlink:href="#DejaVuSans-69"/>
      <use transform="translate(405.810547 0.015625)" xlink:href="#DejaVuSans-6f"/>
      <use transform="translate(466.992188 0.015625)" xlink:href="#DejaVuSans-6e"/>
      <use transform="translate(530.371094 0.015625)" xlink:href="#DejaVuSans-29"/>
     </g>
    </g>
   </g>
   <g id="line2d_12">
    <path clip-path="url(#pe670bd4be8)" d="M 55.092813 131.25215 
L 59.762313 117.009078 
L 64.431813 109.631474 
L 69.101313 116.160566 
L 73.770813 127.684735 
L 78.440313 139.880308 
L 83.109813 135.730885 
L 87.779313 125.060777 
L 92.448813 122.655907 
L 97.118313 123.480106 
L 101.787813 122.831909 
L 106.457313 126.705197 
L 111.126812 118.532451 
L 115.796312 134.228306 
L 120.465813 141.559336 
L 125.135313 143.046245 
L 129.804813 140.804141 
L 134.474312 142.796151 
L 139.143813 145.942919 
L 143.813312 132.469946 
L 148.482812 127.402025 
L 153.152312 134.428078 
L 157.821813 124.466117 
L 162.491312 128.073269 
L 167.160813 120.603407 
L 171.830313 100.002967 
L 176.499813 101.270978 
L 181.169313 94.862707 
L 185.838813 91.327 
L 190.508313 109.550048 
L 195.177813 122.397338 
L 199.847313 113.753398 
L 204.516813 125.846919 
L 209.186312 133.744367 
L 213.855813 117.382184 
L 218.525313 129.989406 
L 223.194813 129.455866 
L 227.864313 128.292367 
L 232.533813 130.69621 
L 237.203313 131.622945 
L 241.872812 129.820771 
L 246.542313 136.425302 
L 251.211813 129.536893 
L 255.881313 140.305664 
L 260.550813 147.849829 
L 265.220313 143.475289 
L 269.889813 144.251086 
L 274.559313 135.039013 
L 279.228813 144.537658 
L 283.898312 151.995904 
L 288.567813 171.805122 
L 293.237313 176.66471 
L 297.906813 179.901282 
L 302.576312 176.808913 
L 307.245813 163.550421 
L 311.915313 151.510425 
L 316.584812 151.486266 
L 321.254312 137.396656 
L 325.923813 133.47829 
L 330.593313 136.164973 
L 335.262812 135.362633 
L 339.932312 112.53858 
L 344.601813 108.510516 
L 349.271313 90.061976 
L 353.940812 93.857335 
L 358.610312 73.93294 
L 363.279812 63.013857 
L 367.949313 60.908076 
L 372.618812 66.383933 
L 377.288312 73.648188 
L 381.957813 81.386159 
L 386.627313 81.746098 
L 391.296812 93.089337 
L 395.966312 94.094115 
L 400.635813 100.386783 
" style="fill:none;stroke:#1f77b4;stroke-linecap:round;stroke-width:1.5;"/>
   </g>
   <g id="line2d_13">
    <path clip-path="url(#pe670bd4be8)" d="M 55.092813 124.27801 
L 59.762313 120.830928 
L 64.431813 124.314342 
L 69.101313 136.785705 
L 73.770813 135.129033 
L 78.440313 120.903451 
L 83.109813 104.692978 
L 87.779313 116.353675 
L 92.448813 97.794068 
L 97.118313 98.001598 
L 101.787813 100.845163 
L 106.457313 116.316774 
L 111.126812 123.639215 
L 115.796312 108.807642 
L 120.465813 115.974244 
L 125.135313 100.247584 
L 129.804813 96.242815 
L 134.474312 94.678027 
L 139.143813 93.267671 
L 143.813312 73.449607 
L 148.482812 66.982555 
L 153.152312 76.15992 
L 157.821813 86.711134 
L 162.491312 83.739715 
L 167.160813 88.420966 
L 171.830313 85.674906 
L 176.499813 89.654535 
L 181.169313 100.357597 
L 185.838813 92.168438 
L 190.508313 89.745014 
L 195.177813 97.555838 
L 199.847313 94.168257 
L 204.516813 101.785774 
L 209.186312 115.663287 
L 213.855813 101.80062 
L 218.525313 82.795627 
L 223.194813 62.606987 
L 227.864313 64.186195 
L 232.533813 70.488207 
L 237.203313 76.482433 
L 241.872812 100.187002 
L 246.542313 96.718401 
L 251.211813 103.079628 
L 255.881313 100.867021 
L 260.550813 84.701183 
L 265.220313 93.233791 
L 269.889813 92.795802 
L 274.559313 129.585118 
L 279.228813 117.661977 
L 283.898312 111.992913 
L 288.567813 105.080881 
L 293.237313 115.094552 
L 297.906813 130.822958 
L 302.576312 128.168382 
L 307.245813 113.240433 
L 311.915313 117.072326 
L 316.584812 106.326366 
L 321.254312 111.688091 
L 325.923813 106.551432 
L 330.593313 107.740553 
L 335.262812 91.246038 
L 339.932312 94.136704 
L 344.601813 80.67515 
L 349.271313 90.6519 
L 353.940812 75.600045 
L 358.610312 78.783993 
L 363.279812 62.238581 
L 367.949313 67.644166 
L 372.618812 64.329991 
L 377.288312 77.831643 
L 381.957813 77.016698 
L 386.627313 72.353204 
L 391.296812 55.78647 
L 395.966312 59.879695 
L 400.635813 44.819136 
" style="fill:none;stroke:#ff7f0e;stroke-linecap:round;stroke-width:1.5;"/>
   </g>
   <g id="line2d_14">
    <path clip-path="url(#pe670bd4be8)" d="M 55.092813 129.773335 
L 59.762313 127.154513 
L 64.431813 109.488367 
L 69.101313 111.506571 
L 73.770813 140.547851 
L 78.440313 159.505943 
L 83.109813 180.027069 
L 87.779313 147.677203 
L 92.448813 175.01854 
L 97.118313 178.06802 
L 101.787813 164.97638 
L 106.457313 156.747766 
L 111.126812 180.286099 
L 115.796312 175.171199 
L 120.465813 191.829856 
L 125.135313 194.074245 
L 129.804813 194.97581 
L 134.474312 203.667586 
L 139.143813 209.652772 
L 143.813312 189.484925 
L 148.482812 206.062595 
L 153.152312 193.489725 
L 157.821813 198.777679 
L 162.491312 199.656041 
L 167.160813 205.648706 
L 171.830313 200.559703 
L 176.499813 205.717744 
L 181.169313 198.581201 
L 185.838813 193.214899 
L 190.508313 212.969514 
L 195.177813 187.991911 
L 199.847313 168.701135 
L 204.516813 145.881518 
L 209.186312 152.257805 
L 213.855813 155.964079 
L 218.525313 145.005395 
L 223.194813 144.925087 
L 227.864313 144.028359 
L 232.533813 134.693513 
L 237.203313 137.384124 
L 241.872812 148.984165 
L 246.542313 161.880008 
L 251.211813 170.073535 
L 255.881313 170.783466 
L 260.550813 167.43638 
L 265.220313 158.517889 
L 269.889813 161.329477 
L 274.559313 147.996935 
L 279.228813 166.545184 
L 283.898312 173.044069 
L 288.567813 173.000907 
L 293.237313 174.107951 
L 297.906813 190.089372 
L 302.576312 198.901396 
L 307.245813 211.680402 
L 311.915313 224.592178 
L 316.584812 220.560544 
L 321.254312 220.965621 
L 325.923813 223.019718 
L 330.593313 226.091864 
L 335.262812 220.520223 
L 339.932312 207.680662 
L 344.601813 211.751837 
L 349.271313 203.198682 
L 353.940812 207.436354 
L 358.610312 186.836536 
L 363.279812 177.412983 
L 367.949313 177.813075 
L 372.618812 184.816303 
L 377.288312 182.697934 
L 381.957813 214.542269 
L 386.627313 220.633808 
L 391.296812 211.6065 
L 395.966312 206.7579 
L 400.635813 214.814387 
" style="fill:none;stroke:#2ca02c;stroke-linecap:round;stroke-width:1.5;"/>
   </g>
   <g id="line2d_15">
    <path clip-path="url(#pe670bd4be8)" d="M 55.092813 126.112049 
L 59.762313 128.56647 
L 64.431813 117.691393 
L 69.101313 108.755932 
L 73.770813 108.859835 
L 78.440313 109.41706 
L 83.109813 111.804393 
L 87.779313 115.461533 
L 92.448813 113.100733 
L 97.118313 123.961781 
L 101.787813 124.86997 
L 106.457313 127.529159 
L 111.126812 130.981482 
L 115.796312 137.924568 
L 120.465813 140.432052 
L 125.135313 151.378787 
L 129.804813 129.276124 
L 134.474312 111.19991 
L 139.143813 108.422873 
L 143.813312 105.93135 
L 148.482812 105.257052 
L 153.152312 117.867412 
L 157.821813 121.684915 
L 162.491312 116.174438 
L 167.160813 125.573164 
L 171.830313 92.62025 
L 176.499813 101.709187 
L 181.169313 102.329617 
L 185.838813 94.24879 
L 190.508313 69.039253 
L 195.177813 87.290721 
L 199.847313 95.65882 
L 204.516813 101.567353 
L 209.186312 100.968175 
L 213.855813 100.210611 
L 218.525313 99.714003 
L 223.194813 107.532248 
L 227.864313 98.635504 
L 232.533813 92.119906 
L 237.203313 87.379837 
L 241.872812 111.456334 
L 246.542313 128.853596 
L 251.211813 123.050198 
L 255.881313 104.717549 
L 260.550813 102.499387 
L 265.220313 101.28197 
L 269.889813 89.441064 
L 274.559313 92.629774 
L 279.228813 78.364474 
L 283.898312 71.767277 
L 288.567813 75.003165 
L 293.237313 73.160196 
L 297.906813 89.729772 
L 302.576312 86.647837 
L 307.245813 82.475593 
L 311.915313 91.769434 
L 316.584812 106.842786 
L 321.254312 101.387611 
L 325.923813 101.797678 
L 330.593313 105.482618 
L 335.262812 96.536036 
L 339.932312 101.085338 
L 344.601813 110.611373 
L 349.271313 103.465054 
L 353.940812 102.7153 
L 358.610312 97.267242 
L 363.279812 97.992016 
L 367.949313 95.402291 
L 372.618812 96.495884 
L 377.288312 97.72051 
L 381.957813 100.388466 
L 386.627313 109.286522 
L 391.296812 104.314078 
L 395.966312 96.778505 
L 400.635813 87.196703 
" style="fill:none;stroke:#d62728;stroke-linecap:round;stroke-width:1.5;"/>
   </g>
   <g id="line2d_16">
    <path clip-path="url(#pe670bd4be8)" d="M 55.092813 139.715916 
L 59.762313 159.091656 
L 64.431813 155.900364 
L 69.101313 165.017763 
L 73.770813 163.303571 
L 78.440313 169.72557 
L 83.109813 162.527128 
L 87.779313 159.667034 
L 92.448813 155.935793 
L 97.118313 135.144078 
L 101.787813 137.973895 
L 106.457313 127.288808 
L 111.126812 128.758509 
L 115.796312 120.612051 
L 120.465813 111.723287 
L 125.135313 114.069152 
L 129.804813 107.354032 
L 134.474312 110.349237 
L 139.143813 125.686015 
L 143.813312 135.670918 
L 148.482812 127.969686 
L 153.152312 119.104547 
L 157.821813 115.601742 
L 162.491312 103.410544 
L 167.160813 109.215099 
L 171.830313 108.141465 
L 176.499813 106.33397 
L 181.169313 124.108982 
L 185.838813 128.785027 
L 190.508313 120.269404 
L 195.177813 115.17975 
L 199.847313 96.761733 
L 204.516813 89.438152 
L 209.186312 112.604314 
L 213.855813 108.456123 
L 218.525313 121.47899 
L 223.194813 115.364606 
L 227.864313 112.614555 
L 232.533813 119.941716 
L 237.203313 104.226977 
L 241.872812 122.939766 
L 246.542313 112.895966 
L 251.211813 114.245311 
L 255.881313 115.087119 
L 260.550813 140.840741 
L 265.220313 130.894302 
L 269.889813 131.059699 
L 274.559313 125.365369 
L 279.228813 116.554254 
L 283.898312 135.422062 
L 288.567813 133.126069 
L 293.237313 157.239489 
L 297.906813 174.064861 
L 302.576312 196.567726 
L 307.245813 192.289947 
L 311.915313 180.671072 
L 316.584812 171.92987 
L 321.254312 168.460174 
L 325.923813 177.847797 
L 330.593313 192.488408 
L 335.262812 188.577139 
L 339.932312 187.806385 
L 344.601813 182.77118 
L 349.271313 181.941933 
L 353.940812 174.261185 
L 358.610312 164.944748 
L 363.279812 163.078734 
L 367.949313 159.761882 
L 372.618812 161.338163 
L 377.288312 165.59747 
L 381.957813 160.888085 
L 386.627313 168.010208 
L 391.296812 151.165937 
L 395.966312 157.693566 
L 400.635813 168.621831 
" style="fill:none;stroke:#9467bd;stroke-linecap:round;stroke-width:1.5;"/>
   </g>
   <g id="patch_3">
    <path d="M 55.092813 235.1555 
L 55.092813 35.7555 
" style="fill:none;stroke:#ffffff;stroke-linecap:square;stroke-linejoin:miter;stroke-width:0.8;"/>
   </g>
   <g id="patch_4">
    <path d="M 405.305313 235.1555 
L 405.305313 35.7555 
" style="fill:none;stroke:#ffffff;stroke-linecap:square;stroke-linejoin:miter;stroke-width:0.8;"/>
   </g>
   <g id="patch_5">
    <path d="M 55.092813 235.1555 
L 405.305313 235.1555 
" style="fill:none;stroke:#ffffff;stroke-linecap:square;stroke-linejoin:miter;stroke-width:0.8;"/>
   </g>
   <g id="patch_6">
    <path d="M 55.092813 35.7555 
L 405.305313 35.7555 
" style="fill:none;stroke:#ffffff;stroke-linecap:square;stroke-linejoin:miter;stroke-width:0.8;"/>
   </g>
   <g id="text_14">
    <!-- Brownian motion process -->
    <g style="fill:#262626;" transform="translate(154.347813 16.318125)scale(0.12 -0.12)">
     <defs>
      <path d="M 1259 2228 
L 1259 519 
L 2272 519 
Q 2781 519 3026 730 
Q 3272 941 3272 1375 
Q 3272 1813 3026 2020 
Q 2781 2228 2272 2228 
L 1259 2228 
z
M 1259 4147 
L 1259 2741 
L 2194 2741 
Q 2656 2741 2882 2914 
Q 3109 3088 3109 3444 
Q 3109 3797 2882 3972 
Q 2656 4147 2194 4147 
L 1259 4147 
z
M 628 4666 
L 2241 4666 
Q 2963 4666 3353 4366 
Q 3744 4066 3744 3513 
Q 3744 3084 3544 2831 
Q 3344 2578 2956 2516 
Q 3422 2416 3680 2098 
Q 3938 1781 3938 1306 
Q 3938 681 3513 340 
Q 3088 0 2303 0 
L 628 0 
L 628 4666 
z
" id="DejaVuSans-42" transform="scale(0.015625)"/>
      <path d="M 2631 2963 
Q 2534 3019 2420 3045 
Q 2306 3072 2169 3072 
Q 1681 3072 1420 2755 
Q 1159 2438 1159 1844 
L 1159 0 
L 581 0 
L 581 3500 
L 1159 3500 
L 1159 2956 
Q 1341 3275 1631 3429 
Q 1922 3584 2338 3584 
Q 2397 3584 2469 3576 
Q 2541 3569 2628 3553 
L 2631 2963 
z
" id="DejaVuSans-72" transform="scale(0.015625)"/>
      <path d="M 269 3500 
L 844 3500 
L 1563 769 
L 2278 3500 
L 2956 3500 
L 3675 769 
L 4391 3500 
L 4966 3500 
L 4050 0 
L 3372 0 
L 2619 2869 
L 1863 0 
L 1184 0 
L 269 3500 
z
" id="DejaVuSans-77" transform="scale(0.015625)"/>
      <path d="M 2194 1759 
Q 1497 1759 1228 1600 
Q 959 1441 959 1056 
Q 959 750 1161 570 
Q 1363 391 1709 391 
Q 2188 391 2477 730 
Q 2766 1069 2766 1631 
L 2766 1759 
L 2194 1759 
z
M 3341 1997 
L 3341 0 
L 2766 0 
L 2766 531 
Q 2569 213 2275 61 
Q 1981 -91 1556 -91 
Q 1019 -91 701 211 
Q 384 513 384 1019 
Q 384 1609 779 1909 
Q 1175 2209 1959 2209 
L 2766 2209 
L 2766 2266 
Q 2766 2663 2505 2880 
Q 2244 3097 1772 3097 
Q 1472 3097 1187 3025 
Q 903 2953 641 2809 
L 641 3341 
Q 956 3463 1253 3523 
Q 1550 3584 1831 3584 
Q 2591 3584 2966 3190 
Q 3341 2797 3341 1997 
z
" id="DejaVuSans-61" transform="scale(0.015625)"/>
      <path d="M 3122 3366 
L 3122 2828 
Q 2878 2963 2633 3030 
Q 2388 3097 2138 3097 
Q 1578 3097 1268 2742 
Q 959 2388 959 1747 
Q 959 1106 1268 751 
Q 1578 397 2138 397 
Q 2388 397 2633 464 
Q 2878 531 3122 666 
L 3122 134 
Q 2881 22 2623 -34 
Q 2366 -91 2075 -91 
Q 1284 -91 818 406 
Q 353 903 353 1747 
Q 353 2603 823 3093 
Q 1294 3584 2113 3584 
Q 2378 3584 2631 3529 
Q 2884 3475 3122 3366 
z
" id="DejaVuSans-63" transform="scale(0.015625)"/>
     </defs>
     <use xlink:href="#DejaVuSans-42"/>
     <use x="68.603516" xlink:href="#DejaVuSans-72"/>
     <use x="107.466797" xlink:href="#DejaVuSans-6f"/>
     <use x="168.648438" xlink:href="#DejaVuSans-77"/>
     <use x="250.435547" xlink:href="#DejaVuSans-6e"/>
     <use x="313.814453" xlink:href="#DejaVuSans-69"/>
     <use x="341.597656" xlink:href="#DejaVuSans-61"/>
     <use x="402.876953" xlink:href="#DejaVuSans-6e"/>
     <use x="466.255859" xlink:href="#DejaVuSans-20"/>
     <use x="498.042969" xlink:href="#DejaVuSans-6d"/>
     <use x="595.455078" xlink:href="#DejaVuSans-6f"/>
     <use x="656.636719" xlink:href="#DejaVuSans-74"/>
     <use x="695.845703" xlink:href="#DejaVuSans-69"/>
     <use x="723.628906" xlink:href="#DejaVuSans-6f"/>
     <use x="784.810547" xlink:href="#DejaVuSans-6e"/>
     <use x="848.189453" xlink:href="#DejaVuSans-20"/>
     <use x="879.976562" xlink:href="#DejaVuSans-70"/>
     <use x="943.453125" xlink:href="#DejaVuSans-72"/>
     <use x="982.316406" xlink:href="#DejaVuSans-6f"/>
     <use x="1043.498047" xlink:href="#DejaVuSans-63"/>
     <use x="1098.478516" xlink:href="#DejaVuSans-65"/>
     <use x="1160.001953" xlink:href="#DejaVuSans-73"/>
     <use x="1212.101562" xlink:href="#DejaVuSans-73"/>
    </g>
    <!--  Position over time for 5 independent realizations -->
    <g style="fill:#262626;" transform="translate(82.0825 29.7555)scale(0.12 -0.12)">
     <defs>
      <path d="M 1259 4147 
L 1259 2394 
L 2053 2394 
Q 2494 2394 2734 2622 
Q 2975 2850 2975 3272 
Q 2975 3691 2734 3919 
Q 2494 4147 2053 4147 
L 1259 4147 
z
M 628 4666 
L 2053 4666 
Q 2838 4666 3239 4311 
Q 3641 3956 3641 3272 
Q 3641 2581 3239 2228 
Q 2838 1875 2053 1875 
L 1259 1875 
L 1259 0 
L 628 0 
L 628 4666 
z
" id="DejaVuSans-50" transform="scale(0.015625)"/>
      <path d="M 191 3500 
L 800 3500 
L 1894 563 
L 2988 3500 
L 3597 3500 
L 2284 0 
L 1503 0 
L 191 3500 
z
" id="DejaVuSans-76" transform="scale(0.015625)"/>
      <path d="M 2375 4863 
L 2375 4384 
L 1825 4384 
Q 1516 4384 1395 4259 
Q 1275 4134 1275 3809 
L 1275 3500 
L 2222 3500 
L 2222 3053 
L 1275 3053 
L 1275 0 
L 697 0 
L 697 3053 
L 147 3053 
L 147 3500 
L 697 3500 
L 697 3744 
Q 697 4328 969 4595 
Q 1241 4863 1831 4863 
L 2375 4863 
z
" id="DejaVuSans-66" transform="scale(0.015625)"/>
      <path d="M 2906 2969 
L 2906 4863 
L 3481 4863 
L 3481 0 
L 2906 0 
L 2906 525 
Q 2725 213 2448 61 
Q 2172 -91 1784 -91 
Q 1150 -91 751 415 
Q 353 922 353 1747 
Q 353 2572 751 3078 
Q 1150 3584 1784 3584 
Q 2172 3584 2448 3432 
Q 2725 3281 2906 2969 
z
M 947 1747 
Q 947 1113 1208 752 
Q 1469 391 1925 391 
Q 2381 391 2643 752 
Q 2906 1113 2906 1747 
Q 2906 2381 2643 2742 
Q 2381 3103 1925 3103 
Q 1469 3103 1208 2742 
Q 947 2381 947 1747 
z
" id="DejaVuSans-64" transform="scale(0.015625)"/>
      <path d="M 603 4863 
L 1178 4863 
L 1178 0 
L 603 0 
L 603 4863 
z
" id="DejaVuSans-6c" transform="scale(0.015625)"/>
      <path d="M 353 3500 
L 3084 3500 
L 3084 2975 
L 922 459 
L 3084 459 
L 3084 0 
L 275 0 
L 275 525 
L 2438 3041 
L 353 3041 
L 353 3500 
z
" id="DejaVuSans-7a" transform="scale(0.015625)"/>
     </defs>
     <use xlink:href="#DejaVuSans-20"/>
     <use x="31.787109" xlink:href="#DejaVuSans-50"/>
     <use x="88.464844" xlink:href="#DejaVuSans-6f"/>
     <use x="149.646484" xlink:href="#DejaVuSans-73"/>
     <use x="201.746094" xlink:href="#DejaVuSans-69"/>
     <use x="229.529297" xlink:href="#DejaVuSans-74"/>
     <use x="268.738281" xlink:href="#DejaVuSans-69"/>
     <use x="296.521484" xlink:href="#DejaVuSans-6f"/>
     <use x="357.703125" xlink:href="#DejaVuSans-6e"/>
     <use x="421.082031" xlink:href="#DejaVuSans-20"/>
     <use x="452.869141" xlink:href="#DejaVuSans-6f"/>
     <use x="514.050781" xlink:href="#DejaVuSans-76"/>
     <use x="573.230469" xlink:href="#DejaVuSans-65"/>
     <use x="634.753906" xlink:href="#DejaVuSans-72"/>
     <use x="675.867188" xlink:href="#DejaVuSans-20"/>
     <use x="707.654297" xlink:href="#DejaVuSans-74"/>
     <use x="746.863281" xlink:href="#DejaVuSans-69"/>
     <use x="774.646484" xlink:href="#DejaVuSans-6d"/>
     <use x="872.058594" xlink:href="#DejaVuSans-65"/>
     <use x="933.582031" xlink:href="#DejaVuSans-20"/>
     <use x="965.369141" xlink:href="#DejaVuSans-66"/>
     <use x="1000.574219" xlink:href="#DejaVuSans-6f"/>
     <use x="1061.755859" xlink:href="#DejaVuSans-72"/>
     <use x="1102.869141" xlink:href="#DejaVuSans-20"/>
     <use x="1134.65625" xlink:href="#DejaVuSans-35"/>
     <use x="1198.279297" xlink:href="#DejaVuSans-20"/>
     <use x="1230.066406" xlink:href="#DejaVuSans-69"/>
     <use x="1257.849609" xlink:href="#DejaVuSans-6e"/>
     <use x="1321.228516" xlink:href="#DejaVuSans-64"/>
     <use x="1384.705078" xlink:href="#DejaVuSans-65"/>
     <use x="1446.228516" xlink:href="#DejaVuSans-70"/>
     <use x="1509.705078" xlink:href="#DejaVuSans-65"/>
     <use x="1571.228516" xlink:href="#DejaVuSans-6e"/>
     <use x="1634.607422" xlink:href="#DejaVuSans-64"/>
     <use x="1698.083984" xlink:href="#DejaVuSans-65"/>
     <use x="1759.607422" xlink:href="#DejaVuSans-6e"/>
     <use x="1822.986328" xlink:href="#DejaVuSans-74"/>
     <use x="1862.195312" xlink:href="#DejaVuSans-20"/>
     <use x="1893.982422" xlink:href="#DejaVuSans-72"/>
     <use x="1932.845703" xlink:href="#DejaVuSans-65"/>
     <use x="1994.369141" xlink:href="#DejaVuSans-61"/>
     <use x="2055.648438" xlink:href="#DejaVuSans-6c"/>
     <use x="2083.431641" xlink:href="#DejaVuSans-69"/>
     <use x="2111.214844" xlink:href="#DejaVuSans-7a"/>
     <use x="2163.705078" xlink:href="#DejaVuSans-61"/>
     <use x="2224.984375" xlink:href="#DejaVuSans-74"/>
     <use x="2264.193359" xlink:href="#DejaVuSans-69"/>
     <use x="2291.976562" xlink:href="#DejaVuSans-6f"/>
     <use x="2353.158203" xlink:href="#DejaVuSans-6e"/>
     <use x="2416.537109" xlink:href="#DejaVuSans-73"/>
    </g>
   </g>
  </g>
 </g>
 <defs>
  <clipPath id="pe670bd4be8">
   <rect height="199.4" width="350.2125" x="55.092813" y="35.7555"/>
  </clipPath>
 </defs>
</svg>
