<?xml version="1.0" encoding="utf-8" standalone="no"?>
<!DOCTYPE svg PUBLIC "-//W3C//DTD SVG 1.1//EN"
  "http://www.w3.org/Graphics/SVG/1.1/DTD/svg11.dtd">
<svg height="423.177812pt" version="1.1" viewBox="0 0 423.3675 423.177812" width="423.3675pt" xmlns="http://www.w3.org/2000/svg" xmlns:xlink="http://www.w3.org/1999/xlink">
 <metadata>
  <rdf:RDF xmlns:cc="http://creativecommons.org/ns#" xmlns:dc="http://purl.org/dc/elements/1.1/" xmlns:rdf="http://www.w3.org/1999/02/22-rdf-syntax-ns#">
   <cc:Work>
    <dc:type rdf:resource="http://purl.org/dc/dcmitype/StillImage"/>
    <dc:date>2021-09-08T08:59:01.071868</dc:date>
    <dc:format>image/svg+xml</dc:format>
    <dc:creator>
     <cc:Agent>
      <dc:title>Matplotlib v3.4.3, https://matplotlib.org/</dc:title>
     </cc:Agent>
    </dc:creator>
   </cc:Work>
  </rdf:RDF>
 </metadata>
 <defs>
  <style type="text/css">*{stroke-linecap:butt;stroke-linejoin:round;}</style>
 </defs>
 <g id="figure_1">
  <g id="patch_1">
   <path d="M 0 423.177812 
L 423.3675 423.177812 
L 423.3675 0 
L 0 0 
z
" style="fill:#ffffff;"/>
  </g>
  <g id="axes_1">
   <g id="patch_2">
    <path d="M 45.52375 172.118125 
L 412.98625 172.118125 
L 412.98625 22.318125 
L 45.52375 22.318125 
z
" style="fill:#eaeaf2;"/>
   </g>
   <g id="matplotlib.axis_1">
    <g id="xtick_1">
     <g id="line2d_1">
      <path clip-path="url(#p2bf0d636ea)" d="M 45.52375 172.118125 
L 45.52375 22.318125 
" style="fill:none;stroke:#ffffff;stroke-linecap:round;stroke-width:0.8;"/>
     </g>
     <g id="text_1">
      <!-- −6 -->
      <g style="fill:#262626;" transform="translate(38.152656 186.716562)scale(0.1 -0.1)">
       <defs>
        <path d="M 678 2272 
L 4684 2272 
L 4684 1741 
L 678 1741 
L 678 2272 
z
" id="DejaVuSans-2212" transform="scale(0.015625)"/>
        <path d="M 2113 2584 
Q 1688 2584 1439 2293 
Q 1191 2003 1191 1497 
Q 1191 994 1439 701 
Q 1688 409 2113 409 
Q 2538 409 2786 701 
Q 3034 994 3034 1497 
Q 3034 2003 2786 2293 
Q 2538 2584 2113 2584 
z
M 3366 4563 
L 3366 3988 
Q 3128 4100 2886 4159 
Q 2644 4219 2406 4219 
Q 1781 4219 1451 3797 
Q 1122 3375 1075 2522 
Q 1259 2794 1537 2939 
Q 1816 3084 2150 3084 
Q 2853 3084 3261 2657 
Q 3669 2231 3669 1497 
Q 3669 778 3244 343 
Q 2819 -91 2113 -91 
Q 1303 -91 875 529 
Q 447 1150 447 2328 
Q 447 3434 972 4092 
Q 1497 4750 2381 4750 
Q 2619 4750 2861 4703 
Q 3103 4656 3366 4563 
z
" id="DejaVuSans-36" transform="scale(0.015625)"/>
       </defs>
       <use xlink:href="#DejaVuSans-2212"/>
       <use x="83.789062" xlink:href="#DejaVuSans-36"/>
      </g>
     </g>
    </g>
    <g id="xtick_2">
     <g id="line2d_2">
      <path clip-path="url(#p2bf0d636ea)" d="M 106.7675 172.118125 
L 106.7675 22.318125 
" style="fill:none;stroke:#ffffff;stroke-linecap:round;stroke-width:0.8;"/>
     </g>
     <g id="text_2">
      <!-- −4 -->
      <g style="fill:#262626;" transform="translate(99.396406 186.716562)scale(0.1 -0.1)">
       <defs>
        <path d="M 2419 4116 
L 825 1625 
L 2419 1625 
L 2419 4116 
z
M 2253 4666 
L 3047 4666 
L 3047 1625 
L 3713 1625 
L 3713 1100 
L 3047 1100 
L 3047 0 
L 2419 0 
L 2419 1100 
L 313 1100 
L 313 1709 
L 2253 4666 
z
" id="DejaVuSans-34" transform="scale(0.015625)"/>
       </defs>
       <use xlink:href="#DejaVuSans-2212"/>
       <use x="83.789062" xlink:href="#DejaVuSans-34"/>
      </g>
     </g>
    </g>
    <g id="xtick_3">
     <g id="line2d_3">
      <path clip-path="url(#p2bf0d636ea)" d="M 168.01125 172.118125 
L 168.01125 22.318125 
" style="fill:none;stroke:#ffffff;stroke-linecap:round;stroke-width:0.8;"/>
     </g>
     <g id="text_3">
      <!-- −2 -->
      <g style="fill:#262626;" transform="translate(160.640156 186.716562)scale(0.1 -0.1)">
       <defs>
        <path d="M 1228 531 
L 3431 531 
L 3431 0 
L 469 0 
L 469 531 
Q 828 903 1448 1529 
Q 2069 2156 2228 2338 
Q 2531 2678 2651 2914 
Q 2772 3150 2772 3378 
Q 2772 3750 2511 3984 
Q 2250 4219 1831 4219 
Q 1534 4219 1204 4116 
Q 875 4013 500 3803 
L 500 4441 
Q 881 4594 1212 4672 
Q 1544 4750 1819 4750 
Q 2544 4750 2975 4387 
Q 3406 4025 3406 3419 
Q 3406 3131 3298 2873 
Q 3191 2616 2906 2266 
Q 2828 2175 2409 1742 
Q 1991 1309 1228 531 
z
" id="DejaVuSans-32" transform="scale(0.015625)"/>
       </defs>
       <use xlink:href="#DejaVuSans-2212"/>
       <use x="83.789062" xlink:href="#DejaVuSans-32"/>
      </g>
     </g>
    </g>
    <g id="xtick_4">
     <g id="line2d_4">
      <path clip-path="url(#p2bf0d636ea)" d="M 229.255 172.118125 
L 229.255 22.318125 
" style="fill:none;stroke:#ffffff;stroke-linecap:round;stroke-width:0.8;"/>
     </g>
     <g id="text_4">
      <!-- 0 -->
      <g style="fill:#262626;" transform="translate(226.07375 186.716562)scale(0.1 -0.1)">
       <defs>
        <path d="M 2034 4250 
Q 1547 4250 1301 3770 
Q 1056 3291 1056 2328 
Q 1056 1369 1301 889 
Q 1547 409 2034 409 
Q 2525 409 2770 889 
Q 3016 1369 3016 2328 
Q 3016 3291 2770 3770 
Q 2525 4250 2034 4250 
z
M 2034 4750 
Q 2819 4750 3233 4129 
Q 3647 3509 3647 2328 
Q 3647 1150 3233 529 
Q 2819 -91 2034 -91 
Q 1250 -91 836 529 
Q 422 1150 422 2328 
Q 422 3509 836 4129 
Q 1250 4750 2034 4750 
z
" id="DejaVuSans-30" transform="scale(0.015625)"/>
       </defs>
       <use xlink:href="#DejaVuSans-30"/>
      </g>
     </g>
    </g>
    <g id="xtick_5">
     <g id="line2d_5">
      <path clip-path="url(#p2bf0d636ea)" d="M 290.49875 172.118125 
L 290.49875 22.318125 
" style="fill:none;stroke:#ffffff;stroke-linecap:round;stroke-width:0.8;"/>
     </g>
     <g id="text_5">
      <!-- 2 -->
      <g style="fill:#262626;" transform="translate(287.3175 186.716562)scale(0.1 -0.1)">
       <use xlink:href="#DejaVuSans-32"/>
      </g>
     </g>
    </g>
    <g id="xtick_6">
     <g id="line2d_6">
      <path clip-path="url(#p2bf0d636ea)" d="M 351.7425 172.118125 
L 351.7425 22.318125 
" style="fill:none;stroke:#ffffff;stroke-linecap:round;stroke-width:0.8;"/>
     </g>
     <g id="text_6">
      <!-- 4 -->
      <g style="fill:#262626;" transform="translate(348.56125 186.716562)scale(0.1 -0.1)">
       <use xlink:href="#DejaVuSans-34"/>
      </g>
     </g>
    </g>
    <g id="xtick_7">
     <g id="line2d_7">
      <path clip-path="url(#p2bf0d636ea)" d="M 412.98625 172.118125 
L 412.98625 22.318125 
" style="fill:none;stroke:#ffffff;stroke-linecap:round;stroke-width:0.8;"/>
     </g>
     <g id="text_7">
      <!-- 6 -->
      <g style="fill:#262626;" transform="translate(409.805 186.716562)scale(0.1 -0.1)">
       <use xlink:href="#DejaVuSans-36"/>
      </g>
     </g>
    </g>
    <g id="text_8">
     <!-- $x$ -->
     <g style="fill:#262626;" transform="translate(225.355 202.674219)scale(0.13 -0.13)">
      <defs>
       <path d="M 3841 3500 
L 2234 1784 
L 3219 0 
L 2559 0 
L 1819 1388 
L 531 0 
L -166 0 
L 1556 1844 
L 641 3500 
L 1300 3500 
L 1972 2234 
L 3144 3500 
L 3841 3500 
z
" id="DejaVuSans-Oblique-78" transform="scale(0.015625)"/>
      </defs>
      <use transform="translate(0 0.3125)" xlink:href="#DejaVuSans-Oblique-78"/>
     </g>
    </g>
   </g>
   <g id="matplotlib.axis_2">
    <g id="ytick_1">
     <g id="line2d_8">
      <path clip-path="url(#p2bf0d636ea)" d="M 45.52375 172.118125 
L 412.98625 172.118125 
" style="fill:none;stroke:#ffffff;stroke-linecap:round;stroke-width:0.8;"/>
     </g>
     <g id="text_9">
      <!-- −3 -->
      <g style="fill:#262626;" transform="translate(23.781562 175.917344)scale(0.1 -0.1)">
       <defs>
        <path d="M 2597 2516 
Q 3050 2419 3304 2112 
Q 3559 1806 3559 1356 
Q 3559 666 3084 287 
Q 2609 -91 1734 -91 
Q 1441 -91 1130 -33 
Q 819 25 488 141 
L 488 750 
Q 750 597 1062 519 
Q 1375 441 1716 441 
Q 2309 441 2620 675 
Q 2931 909 2931 1356 
Q 2931 1769 2642 2001 
Q 2353 2234 1838 2234 
L 1294 2234 
L 1294 2753 
L 1863 2753 
Q 2328 2753 2575 2939 
Q 2822 3125 2822 3475 
Q 2822 3834 2567 4026 
Q 2313 4219 1838 4219 
Q 1578 4219 1281 4162 
Q 984 4106 628 3988 
L 628 4550 
Q 988 4650 1302 4700 
Q 1616 4750 1894 4750 
Q 2613 4750 3031 4423 
Q 3450 4097 3450 3541 
Q 3450 3153 3228 2886 
Q 3006 2619 2597 2516 
z
" id="DejaVuSans-33" transform="scale(0.015625)"/>
       </defs>
       <use xlink:href="#DejaVuSans-2212"/>
       <use x="83.789062" xlink:href="#DejaVuSans-33"/>
      </g>
     </g>
    </g>
    <g id="ytick_2">
     <g id="line2d_9">
      <path clip-path="url(#p2bf0d636ea)" d="M 45.52375 147.151458 
L 412.98625 147.151458 
" style="fill:none;stroke:#ffffff;stroke-linecap:round;stroke-width:0.8;"/>
     </g>
     <g id="text_10">
      <!-- −2 -->
      <g style="fill:#262626;" transform="translate(23.781562 150.950677)scale(0.1 -0.1)">
       <use xlink:href="#DejaVuSans-2212"/>
       <use x="83.789062" xlink:href="#DejaVuSans-32"/>
      </g>
     </g>
    </g>
    <g id="ytick_3">
     <g id="line2d_10">
      <path clip-path="url(#p2bf0d636ea)" d="M 45.52375 122.184792 
L 412.98625 122.184792 
" style="fill:none;stroke:#ffffff;stroke-linecap:round;stroke-width:0.8;"/>
     </g>
     <g id="text_11">
      <!-- −1 -->
      <g style="fill:#262626;" transform="translate(23.781562 125.98401)scale(0.1 -0.1)">
       <defs>
        <path d="M 794 531 
L 1825 531 
L 1825 4091 
L 703 3866 
L 703 4441 
L 1819 4666 
L 2450 4666 
L 2450 531 
L 3481 531 
L 3481 0 
L 794 0 
L 794 531 
z
" id="DejaVuSans-31" transform="scale(0.015625)"/>
       </defs>
       <use xlink:href="#DejaVuSans-2212"/>
       <use x="83.789062" xlink:href="#DejaVuSans-31"/>
      </g>
     </g>
    </g>
    <g id="ytick_4">
     <g id="line2d_11">
      <path clip-path="url(#p2bf0d636ea)" d="M 45.52375 97.218125 
L 412.98625 97.218125 
" style="fill:none;stroke:#ffffff;stroke-linecap:round;stroke-width:0.8;"/>
     </g>
     <g id="text_12">
      <!-- 0 -->
      <g style="fill:#262626;" transform="translate(32.16125 101.017344)scale(0.1 -0.1)">
       <use xlink:href="#DejaVuSans-30"/>
      </g>
     </g>
    </g>
    <g id="ytick_5">
     <g id="line2d_12">
      <path clip-path="url(#p2bf0d636ea)" d="M 45.52375 72.251458 
L 412.98625 72.251458 
" style="fill:none;stroke:#ffffff;stroke-linecap:round;stroke-width:0.8;"/>
     </g>
     <g id="text_13">
      <!-- 1 -->
      <g style="fill:#262626;" transform="translate(32.16125 76.050677)scale(0.1 -0.1)">
       <use xlink:href="#DejaVuSans-31"/>
      </g>
     </g>
    </g>
    <g id="ytick_6">
     <g id="line2d_13">
      <path clip-path="url(#p2bf0d636ea)" d="M 45.52375 47.284792 
L 412.98625 47.284792 
" style="fill:none;stroke:#ffffff;stroke-linecap:round;stroke-width:0.8;"/>
     </g>
     <g id="text_14">
      <!-- 2 -->
      <g style="fill:#262626;" transform="translate(32.16125 51.08401)scale(0.1 -0.1)">
       <use xlink:href="#DejaVuSans-32"/>
      </g>
     </g>
    </g>
    <g id="ytick_7">
     <g id="line2d_14">
      <path clip-path="url(#p2bf0d636ea)" d="M 45.52375 22.318125 
L 412.98625 22.318125 
" style="fill:none;stroke:#ffffff;stroke-linecap:round;stroke-width:0.8;"/>
     </g>
     <g id="text_15">
      <!-- 3 -->
      <g style="fill:#262626;" transform="translate(32.16125 26.117344)scale(0.1 -0.1)">
       <use xlink:href="#DejaVuSans-33"/>
      </g>
     </g>
    </g>
    <g id="text_16">
     <!-- $y$ -->
     <g style="fill:#262626;" transform="translate(17.051562 101.118125)rotate(-90)scale(0.13 -0.13)">
      <defs>
       <path d="M 1588 -325 
Q 1188 -997 936 -1164 
Q 684 -1331 294 -1331 
L -159 -1331 
L -63 -850 
L 269 -850 
Q 509 -850 678 -719 
Q 847 -588 1056 -206 
L 1234 128 
L 459 3500 
L 1069 3500 
L 1650 819 
L 3256 3500 
L 3859 3500 
L 1588 -325 
z
" id="DejaVuSans-Oblique-79" transform="scale(0.015625)"/>
      </defs>
      <use transform="translate(0 0.3125)" xlink:href="#DejaVuSans-Oblique-79"/>
     </g>
    </g>
   </g>
   <g id="PolyCollection_1">
    <defs>
     <path d="M 45.52375 -376.468323 
L 45.52375 -276.668248 
L 50.489459 -277.023979 
L 55.455169 -277.547891 
L 60.420878 -278.306383 
L 65.386588 -279.385209 
L 70.352297 -280.88936 
L 75.318007 -282.937486 
L 80.283716 -285.648321 
L 85.249426 -289.118013 
L 90.215135 -293.390069 
L 95.180845 -298.422796 
L 100.146554 -304.061797 
L 105.112264 -310.026138 
L 110.077973 -315.915739 
L 115.043682 -321.244285 
L 120.009392 -325.496894 
L 124.975101 -328.20582 
L 129.940811 -328.138585 
L 134.90652 -322.110967 
L 139.87223 -317.35278 
L 144.837939 -313.968133 
L 149.803649 -311.850563 
L 154.769358 -308.466618 
L 159.735068 -302.976299 
L 164.700777 -298.568955 
L 169.666486 -295.689153 
L 174.632196 -294.526307 
L 179.597905 -295.003332 
L 184.563615 -296.819721 
L 189.529324 -299.539234 
L 194.495034 -302.701563 
L 199.460743 -304.673249 
L 204.426453 -306.597541 
L 209.392162 -309.673925 
L 214.357872 -313.593318 
L 219.323581 -317.873568 
L 224.289291 -321.897002 
L 229.255 -325.38512 
L 234.220709 -327.813615 
L 239.186419 -329.181159 
L 244.152128 -329.672485 
L 249.117838 -329.677972 
L 254.083547 -329.693597 
L 259.049257 -330.194937 
L 264.014966 -331.514783 
L 268.980676 -333.752744 
L 273.946385 -336.737695 
L 278.912095 -340.052095 
L 283.877804 -343.113604 
L 288.843514 -345.296906 
L 293.809223 -346.069769 
L 298.774932 -345.032358 
L 303.740642 -342.103577 
L 308.706351 -338.234544 
L 313.672061 -333.164848 
L 318.63777 -327.937017 
L 323.60348 -323.340275 
L 328.569189 -320.078369 
L 333.534899 -318.657317 
L 338.500608 -313.777942 
L 343.466318 -307.233971 
L 348.432027 -300.58726 
L 353.397736 -294.222658 
L 358.363446 -288.489572 
L 363.329155 -283.649618 
L 368.294865 -279.846021 
L 373.260574 -277.097932 
L 378.226284 -275.317038 
L 383.191993 -274.339582 
L 388.157703 -273.96485 
L 393.123412 -273.991381 
L 398.089122 -274.244297 
L 403.054831 -274.590482 
L 408.020541 -274.941872 
L 412.98625 -275.249913 
L 412.98625 -374.925239 
L 412.98625 -374.925239 
L 408.020541 -374.394291 
L 403.054831 -373.609167 
L 398.089122 -372.46927 
L 393.123412 -370.850436 
L 388.157703 -368.612617 
L 383.191993 -365.617572 
L 378.226284 -361.757237 
L 373.260574 -356.990001 
L 368.294865 -351.378276 
L 363.329155 -345.117881 
L 358.363446 -338.54895 
L 353.397736 -332.139924 
L 348.432027 -326.440824 
L 343.466318 -322.008718 
L 338.500608 -319.315854 
L 333.534899 -319.86389 
L 328.569189 -325.230119 
L 323.60348 -329.75645 
L 318.63777 -333.483262 
L 313.672061 -336.594946 
L 308.706351 -339.369368 
L 303.740642 -342.405449 
L 298.774932 -345.114056 
L 293.809223 -348.258712 
L 288.843514 -351.713052 
L 283.877804 -355.15159 
L 278.912095 -358.19543 
L 273.946385 -360.402742 
L 268.980676 -361.358898 
L 264.014966 -360.765375 
L 259.049257 -358.508151 
L 254.083547 -354.690291 
L 249.117838 -349.620662 
L 244.152128 -343.759889 
L 239.186419 -337.634186 
L 234.220709 -331.735405 
L 229.255 -326.429792 
L 224.289291 -321.966766 
L 219.323581 -318.114614 
L 214.357872 -314.892776 
L 209.392162 -311.95108 
L 204.426453 -309.018598 
L 199.460743 -305.931374 
L 194.495034 -303.975135 
L 189.529324 -304.340585 
L 184.563615 -305.427773 
L 179.597905 -306.816051 
L 174.632196 -308.122323 
L 169.666486 -309.103367 
L 164.700777 -309.718849 
L 159.735068 -310.140873 
L 154.769358 -310.709963 
L 149.803649 -314.403165 
L 144.837939 -320.057453 
L 139.87223 -324.725533 
L 134.90652 -327.836391 
L 129.940811 -329.031969 
L 124.975101 -335.138119 
L 120.009392 -342.672589 
L 115.043682 -350.241747 
L 110.077973 -357.362953 
L 105.112264 -363.64045 
L 100.146554 -368.811403 
L 95.180845 -372.763502 
L 90.215135 -375.525379 
L 85.249426 -377.236217 
L 80.283716 -378.10381 
L 75.318007 -378.360914 
L 70.352297 -378.228145 
L 65.386588 -377.888763 
L 60.420878 -377.476982 
L 55.455169 -377.078131 
L 50.489459 -376.736778 
L 45.52375 -376.468323 
z
" id="mfd26ed25f4" style="stroke:#ff0000;stroke-opacity:0.15;"/>
    </defs>
    <g clip-path="url(#p2bf0d636ea)">
     <use style="fill:#ff0000;fill-opacity:0.15;stroke:#ff0000;stroke-opacity:0.15;" x="0" xlink:href="#mfd26ed25f4" y="423.177812"/>
    </g>
   </g>
   <g id="line2d_15">
    <path clip-path="url(#p2bf0d636ea)" d="M 45.52375 90.242051 
L 50.489459 86.463197 
L 55.455169 82.966541 
L 60.420878 79.843832 
L 65.386588 77.177007 
L 70.352297 75.036041 
L 75.318007 73.477111 
L 80.283716 72.54112 
L 85.249426 72.25263 
L 90.215135 72.619208 
L 95.180845 73.631238 
L 100.146554 75.262164 
L 105.112264 77.469192 
L 110.077973 80.194412 
L 115.043682 83.366317 
L 120.009392 86.901679 
L 124.975101 90.707735 
L 129.940811 94.684617 
L 134.90652 98.727975 
L 139.87223 102.731717 
L 144.837939 106.590787 
L 149.803649 110.203929 
L 154.769358 113.476336 
L 159.735068 116.322143 
L 164.700777 118.666681 
L 169.666486 120.44843 
L 174.632196 121.62064 
L 179.597905 122.152552 
L 184.563615 122.030209 
L 189.529324 121.256823 
L 194.495034 119.852686 
L 199.460743 117.85464 
L 204.426453 115.315113 
L 209.392162 112.30074 
L 214.357872 108.890613 
L 219.323581 105.174213 
L 224.289291 101.249053 
L 229.255 97.218125 
L 234.220709 93.187197 
L 239.186419 89.262037 
L 244.152128 85.545637 
L 249.117838 82.13551 
L 254.083547 79.121137 
L 259.049257 76.58161 
L 264.014966 74.583564 
L 268.980676 73.179427 
L 273.946385 72.406041 
L 278.912095 72.283698 
L 283.877804 72.81561 
L 288.843514 73.98782 
L 293.809223 75.769569 
L 298.774932 78.114107 
L 303.740642 80.959914 
L 308.706351 84.232321 
L 313.672061 87.845463 
L 318.63777 91.704533 
L 323.60348 95.708275 
L 328.569189 99.751633 
L 333.534899 103.728515 
L 338.500608 107.534571 
L 343.466318 111.069933 
L 348.432027 114.241838 
L 353.397736 116.967058 
L 358.363446 119.174086 
L 363.329155 120.805012 
L 368.294865 121.817042 
L 373.260574 122.18362 
L 378.226284 121.89513 
L 383.191993 120.959139 
L 388.157703 119.400209 
L 393.123412 117.259243 
L 398.089122 114.592418 
L 403.054831 111.469709 
L 408.020541 107.973053 
L 412.98625 104.194199 
" style="fill:none;stroke:#0000ff;stroke-dasharray:5.55,2.4;stroke-dashoffset:0;stroke-width:1.5;"/>
   </g>
   <g id="line2d_16">
    <path clip-path="url(#p2bf0d636ea)" d="M 45.52375 96.609527 
L 50.489459 96.297434 
L 55.455169 95.864801 
L 60.420878 95.28613 
L 65.386588 94.540826 
L 70.352297 93.61906 
L 75.318007 92.528612 
L 80.283716 91.301747 
L 85.249426 90.000698 
L 90.215135 88.720088 
L 95.180845 87.584664 
L 100.146554 86.741213 
L 105.112264 86.344519 
L 110.077973 86.538466 
L 115.043682 87.434796 
L 120.009392 89.093071 
L 124.975101 91.505843 
L 129.940811 94.592535 
L 134.90652 98.204134 
L 139.87223 102.138656 
L 144.837939 106.165019 
L 149.803649 110.050948 
L 154.769358 113.589522 
L 159.735068 116.619227 
L 164.700777 119.03391 
L 169.666486 120.781552 
L 174.632196 121.853497 
L 179.597905 122.268121 
L 184.563615 122.054065 
L 189.529324 121.237903 
L 194.495034 119.839463 
L 199.460743 117.875501 
L 204.426453 115.369743 
L 209.392162 112.36531 
L 214.357872 108.934765 
L 219.323581 105.183722 
L 224.289291 101.245928 
L 229.255 97.270357 
L 234.220709 93.403303 
L 239.186419 89.77014 
L 244.152128 86.461625 
L 249.117838 83.528496 
L 254.083547 80.985868 
L 259.049257 78.826269 
L 264.014966 77.037733 
L 268.980676 75.621992 
L 273.946385 74.607594 
L 278.912095 74.05405 
L 283.877804 74.045216 
L 288.843514 74.672833 
L 293.809223 76.013572 
L 298.774932 78.104605 
L 303.740642 80.9233 
L 308.706351 84.375856 
L 313.672061 88.297915 
L 318.63777 92.467673 
L 323.60348 96.62945 
L 328.569189 100.523568 
L 333.534899 103.917209 
L 338.500608 106.630914 
L 343.466318 108.556468 
L 348.432027 109.66377 
L 353.397736 109.996522 
L 358.363446 109.658552 
L 363.329155 108.794063 
L 368.294865 107.565664 
L 373.260574 106.133846 
L 378.226284 104.640675 
L 383.191993 103.199235 
L 388.157703 101.889079 
L 393.123412 100.756904 
L 398.089122 99.821029 
L 403.054831 99.077988 
L 408.020541 98.509731 
L 412.98625 98.090237 
" style="fill:none;stroke:#ff0000;stroke-linecap:round;stroke-width:2;"/>
   </g>
   <g id="line2d_17">
    <defs>
     <path d="M 0 3 
C 0.795609 3 1.55874 2.683901 2.12132 2.12132 
C 2.683901 1.55874 3 0.795609 3 0 
C 3 -0.795609 2.683901 -1.55874 2.12132 -2.12132 
C 1.55874 -2.683901 0.795609 -3 0 -3 
C -0.795609 -3 -1.55874 -2.683901 -2.12132 -2.12132 
C -2.683901 -1.55874 -3 -0.795609 -3 0 
C -3 0.795609 -2.683901 1.55874 -2.12132 2.12132 
C -1.55874 2.683901 -0.795609 3 0 3 
z
" id="mbfc2068255" style="stroke:#000000;"/>
    </defs>
    <g clip-path="url(#p2bf0d636ea)">
     <use style="stroke:#000000;" x="298.459438" xlink:href="#mbfc2068255" y="77.949516"/>
     <use style="stroke:#000000;" x="152.533728" xlink:href="#mbfc2068255" y="112.050948"/>
     <use style="stroke:#000000;" x="196.690159" xlink:href="#mbfc2068255" y="119.039916"/>
     <use style="stroke:#000000;" x="221.133723" xlink:href="#mbfc2068255" y="103.762225"/>
     <use style="stroke:#000000;" x="129.268601" xlink:href="#mbfc2068255" y="94.140033"/>
     <use style="stroke:#000000;" x="225.091515" xlink:href="#mbfc2068255" y="100.602254"/>
     <use style="stroke:#000000;" x="305.293073" xlink:href="#mbfc2068255" y="81.940966"/>
     <use style="stroke:#000000;" x="334.592872" xlink:href="#mbfc2068255" y="104.557209"/>
    </g>
   </g>
   <g id="patch_3">
    <path d="M 45.52375 172.118125 
L 45.52375 22.318125 
" style="fill:none;stroke:#ffffff;stroke-linecap:square;stroke-linejoin:miter;stroke-width:0.8;"/>
   </g>
   <g id="patch_4">
    <path d="M 412.98625 172.118125 
L 412.98625 22.318125 
" style="fill:none;stroke:#ffffff;stroke-linecap:square;stroke-linejoin:miter;stroke-width:0.8;"/>
   </g>
   <g id="patch_5">
    <path d="M 45.52375 172.118125 
L 412.98625 172.118125 
" style="fill:none;stroke:#ffffff;stroke-linecap:square;stroke-linejoin:miter;stroke-width:0.8;"/>
   </g>
   <g id="patch_6">
    <path d="M 45.52375 22.318125 
L 412.98625 22.318125 
" style="fill:none;stroke:#ffffff;stroke-linecap:square;stroke-linejoin:miter;stroke-width:0.8;"/>
   </g>
   <g id="text_17">
    <!-- Distribution of posterior and prior data. -->
    <g style="fill:#262626;" transform="translate(111.222813 16.318125)scale(0.12 -0.12)">
     <defs>
      <path d="M 1259 4147 
L 1259 519 
L 2022 519 
Q 2988 519 3436 956 
Q 3884 1394 3884 2338 
Q 3884 3275 3436 3711 
Q 2988 4147 2022 4147 
L 1259 4147 
z
M 628 4666 
L 1925 4666 
Q 3281 4666 3915 4102 
Q 4550 3538 4550 2338 
Q 4550 1131 3912 565 
Q 3275 0 1925 0 
L 628 0 
L 628 4666 
z
" id="DejaVuSans-44" transform="scale(0.015625)"/>
      <path d="M 603 3500 
L 1178 3500 
L 1178 0 
L 603 0 
L 603 3500 
z
M 603 4863 
L 1178 4863 
L 1178 4134 
L 603 4134 
L 603 4863 
z
" id="DejaVuSans-69" transform="scale(0.015625)"/>
      <path d="M 2834 3397 
L 2834 2853 
Q 2591 2978 2328 3040 
Q 2066 3103 1784 3103 
Q 1356 3103 1142 2972 
Q 928 2841 928 2578 
Q 928 2378 1081 2264 
Q 1234 2150 1697 2047 
L 1894 2003 
Q 2506 1872 2764 1633 
Q 3022 1394 3022 966 
Q 3022 478 2636 193 
Q 2250 -91 1575 -91 
Q 1294 -91 989 -36 
Q 684 19 347 128 
L 347 722 
Q 666 556 975 473 
Q 1284 391 1588 391 
Q 1994 391 2212 530 
Q 2431 669 2431 922 
Q 2431 1156 2273 1281 
Q 2116 1406 1581 1522 
L 1381 1569 
Q 847 1681 609 1914 
Q 372 2147 372 2553 
Q 372 3047 722 3315 
Q 1072 3584 1716 3584 
Q 2034 3584 2315 3537 
Q 2597 3491 2834 3397 
z
" id="DejaVuSans-73" transform="scale(0.015625)"/>
      <path d="M 1172 4494 
L 1172 3500 
L 2356 3500 
L 2356 3053 
L 1172 3053 
L 1172 1153 
Q 1172 725 1289 603 
Q 1406 481 1766 481 
L 2356 481 
L 2356 0 
L 1766 0 
Q 1100 0 847 248 
Q 594 497 594 1153 
L 594 3053 
L 172 3053 
L 172 3500 
L 594 3500 
L 594 4494 
L 1172 4494 
z
" id="DejaVuSans-74" transform="scale(0.015625)"/>
      <path d="M 2631 2963 
Q 2534 3019 2420 3045 
Q 2306 3072 2169 3072 
Q 1681 3072 1420 2755 
Q 1159 2438 1159 1844 
L 1159 0 
L 581 0 
L 581 3500 
L 1159 3500 
L 1159 2956 
Q 1341 3275 1631 3429 
Q 1922 3584 2338 3584 
Q 2397 3584 2469 3576 
Q 2541 3569 2628 3553 
L 2631 2963 
z
" id="DejaVuSans-72" transform="scale(0.015625)"/>
      <path d="M 3116 1747 
Q 3116 2381 2855 2742 
Q 2594 3103 2138 3103 
Q 1681 3103 1420 2742 
Q 1159 2381 1159 1747 
Q 1159 1113 1420 752 
Q 1681 391 2138 391 
Q 2594 391 2855 752 
Q 3116 1113 3116 1747 
z
M 1159 2969 
Q 1341 3281 1617 3432 
Q 1894 3584 2278 3584 
Q 2916 3584 3314 3078 
Q 3713 2572 3713 1747 
Q 3713 922 3314 415 
Q 2916 -91 2278 -91 
Q 1894 -91 1617 61 
Q 1341 213 1159 525 
L 1159 0 
L 581 0 
L 581 4863 
L 1159 4863 
L 1159 2969 
z
" id="DejaVuSans-62" transform="scale(0.015625)"/>
      <path d="M 544 1381 
L 544 3500 
L 1119 3500 
L 1119 1403 
Q 1119 906 1312 657 
Q 1506 409 1894 409 
Q 2359 409 2629 706 
Q 2900 1003 2900 1516 
L 2900 3500 
L 3475 3500 
L 3475 0 
L 2900 0 
L 2900 538 
Q 2691 219 2414 64 
Q 2138 -91 1772 -91 
Q 1169 -91 856 284 
Q 544 659 544 1381 
z
M 1991 3584 
L 1991 3584 
z
" id="DejaVuSans-75" transform="scale(0.015625)"/>
      <path d="M 1959 3097 
Q 1497 3097 1228 2736 
Q 959 2375 959 1747 
Q 959 1119 1226 758 
Q 1494 397 1959 397 
Q 2419 397 2687 759 
Q 2956 1122 2956 1747 
Q 2956 2369 2687 2733 
Q 2419 3097 1959 3097 
z
M 1959 3584 
Q 2709 3584 3137 3096 
Q 3566 2609 3566 1747 
Q 3566 888 3137 398 
Q 2709 -91 1959 -91 
Q 1206 -91 779 398 
Q 353 888 353 1747 
Q 353 2609 779 3096 
Q 1206 3584 1959 3584 
z
" id="DejaVuSans-6f" transform="scale(0.015625)"/>
      <path d="M 3513 2113 
L 3513 0 
L 2938 0 
L 2938 2094 
Q 2938 2591 2744 2837 
Q 2550 3084 2163 3084 
Q 1697 3084 1428 2787 
Q 1159 2491 1159 1978 
L 1159 0 
L 581 0 
L 581 3500 
L 1159 3500 
L 1159 2956 
Q 1366 3272 1645 3428 
Q 1925 3584 2291 3584 
Q 2894 3584 3203 3211 
Q 3513 2838 3513 2113 
z
" id="DejaVuSans-6e" transform="scale(0.015625)"/>
      <path id="DejaVuSans-20" transform="scale(0.015625)"/>
      <path d="M 2375 4863 
L 2375 4384 
L 1825 4384 
Q 1516 4384 1395 4259 
Q 1275 4134 1275 3809 
L 1275 3500 
L 2222 3500 
L 2222 3053 
L 1275 3053 
L 1275 0 
L 697 0 
L 697 3053 
L 147 3053 
L 147 3500 
L 697 3500 
L 697 3744 
Q 697 4328 969 4595 
Q 1241 4863 1831 4863 
L 2375 4863 
z
" id="DejaVuSans-66" transform="scale(0.015625)"/>
      <path d="M 1159 525 
L 1159 -1331 
L 581 -1331 
L 581 3500 
L 1159 3500 
L 1159 2969 
Q 1341 3281 1617 3432 
Q 1894 3584 2278 3584 
Q 2916 3584 3314 3078 
Q 3713 2572 3713 1747 
Q 3713 922 3314 415 
Q 2916 -91 2278 -91 
Q 1894 -91 1617 61 
Q 1341 213 1159 525 
z
M 3116 1747 
Q 3116 2381 2855 2742 
Q 2594 3103 2138 3103 
Q 1681 3103 1420 2742 
Q 1159 2381 1159 1747 
Q 1159 1113 1420 752 
Q 1681 391 2138 391 
Q 2594 391 2855 752 
Q 3116 1113 3116 1747 
z
" id="DejaVuSans-70" transform="scale(0.015625)"/>
      <path d="M 3597 1894 
L 3597 1613 
L 953 1613 
Q 991 1019 1311 708 
Q 1631 397 2203 397 
Q 2534 397 2845 478 
Q 3156 559 3463 722 
L 3463 178 
Q 3153 47 2828 -22 
Q 2503 -91 2169 -91 
Q 1331 -91 842 396 
Q 353 884 353 1716 
Q 353 2575 817 3079 
Q 1281 3584 2069 3584 
Q 2775 3584 3186 3129 
Q 3597 2675 3597 1894 
z
M 3022 2063 
Q 3016 2534 2758 2815 
Q 2500 3097 2075 3097 
Q 1594 3097 1305 2825 
Q 1016 2553 972 2059 
L 3022 2063 
z
" id="DejaVuSans-65" transform="scale(0.015625)"/>
      <path d="M 2194 1759 
Q 1497 1759 1228 1600 
Q 959 1441 959 1056 
Q 959 750 1161 570 
Q 1363 391 1709 391 
Q 2188 391 2477 730 
Q 2766 1069 2766 1631 
L 2766 1759 
L 2194 1759 
z
M 3341 1997 
L 3341 0 
L 2766 0 
L 2766 531 
Q 2569 213 2275 61 
Q 1981 -91 1556 -91 
Q 1019 -91 701 211 
Q 384 513 384 1019 
Q 384 1609 779 1909 
Q 1175 2209 1959 2209 
L 2766 2209 
L 2766 2266 
Q 2766 2663 2505 2880 
Q 2244 3097 1772 3097 
Q 1472 3097 1187 3025 
Q 903 2953 641 2809 
L 641 3341 
Q 956 3463 1253 3523 
Q 1550 3584 1831 3584 
Q 2591 3584 2966 3190 
Q 3341 2797 3341 1997 
z
" id="DejaVuSans-61" transform="scale(0.015625)"/>
      <path d="M 2906 2969 
L 2906 4863 
L 3481 4863 
L 3481 0 
L 2906 0 
L 2906 525 
Q 2725 213 2448 61 
Q 2172 -91 1784 -91 
Q 1150 -91 751 415 
Q 353 922 353 1747 
Q 353 2572 751 3078 
Q 1150 3584 1784 3584 
Q 2172 3584 2448 3432 
Q 2725 3281 2906 2969 
z
M 947 1747 
Q 947 1113 1208 752 
Q 1469 391 1925 391 
Q 2381 391 2643 752 
Q 2906 1113 2906 1747 
Q 2906 2381 2643 2742 
Q 2381 3103 1925 3103 
Q 1469 3103 1208 2742 
Q 947 2381 947 1747 
z
" id="DejaVuSans-64" transform="scale(0.015625)"/>
      <path d="M 684 794 
L 1344 794 
L 1344 0 
L 684 0 
L 684 794 
z
" id="DejaVuSans-2e" transform="scale(0.015625)"/>
     </defs>
     <use xlink:href="#DejaVuSans-44"/>
     <use x="77.001953" xlink:href="#DejaVuSans-69"/>
     <use x="104.785156" xlink:href="#DejaVuSans-73"/>
     <use x="156.884766" xlink:href="#DejaVuSans-74"/>
     <use x="196.09375" xlink:href="#DejaVuSans-72"/>
     <use x="237.207031" xlink:href="#DejaVuSans-69"/>
     <use x="264.990234" xlink:href="#DejaVuSans-62"/>
     <use x="328.466797" xlink:href="#DejaVuSans-75"/>
     <use x="391.845703" xlink:href="#DejaVuSans-74"/>
     <use x="431.054688" xlink:href="#DejaVuSans-69"/>
     <use x="458.837891" xlink:href="#DejaVuSans-6f"/>
     <use x="520.019531" xlink:href="#DejaVuSans-6e"/>
     <use x="583.398438" xlink:href="#DejaVuSans-20"/>
     <use x="615.185547" xlink:href="#DejaVuSans-6f"/>
     <use x="676.367188" xlink:href="#DejaVuSans-66"/>
     <use x="711.572266" xlink:href="#DejaVuSans-20"/>
     <use x="743.359375" xlink:href="#DejaVuSans-70"/>
     <use x="806.835938" xlink:href="#DejaVuSans-6f"/>
     <use x="868.017578" xlink:href="#DejaVuSans-73"/>
     <use x="920.117188" xlink:href="#DejaVuSans-74"/>
     <use x="959.326172" xlink:href="#DejaVuSans-65"/>
     <use x="1020.849609" xlink:href="#DejaVuSans-72"/>
     <use x="1061.962891" xlink:href="#DejaVuSans-69"/>
     <use x="1089.746094" xlink:href="#DejaVuSans-6f"/>
     <use x="1150.927734" xlink:href="#DejaVuSans-72"/>
     <use x="1192.041016" xlink:href="#DejaVuSans-20"/>
     <use x="1223.828125" xlink:href="#DejaVuSans-61"/>
     <use x="1285.107422" xlink:href="#DejaVuSans-6e"/>
     <use x="1348.486328" xlink:href="#DejaVuSans-64"/>
     <use x="1411.962891" xlink:href="#DejaVuSans-20"/>
     <use x="1443.75" xlink:href="#DejaVuSans-70"/>
     <use x="1507.226562" xlink:href="#DejaVuSans-72"/>
     <use x="1548.339844" xlink:href="#DejaVuSans-69"/>
     <use x="1576.123047" xlink:href="#DejaVuSans-6f"/>
     <use x="1637.304688" xlink:href="#DejaVuSans-72"/>
     <use x="1678.417969" xlink:href="#DejaVuSans-20"/>
     <use x="1710.205078" xlink:href="#DejaVuSans-64"/>
     <use x="1773.681641" xlink:href="#DejaVuSans-61"/>
     <use x="1834.960938" xlink:href="#DejaVuSans-74"/>
     <use x="1874.169922" xlink:href="#DejaVuSans-61"/>
     <use x="1935.449219" xlink:href="#DejaVuSans-2e"/>
    </g>
   </g>
   <g id="legend_1">
    <g id="patch_7">
     <path d="M 339.68625 91.493125 
L 405.98625 91.493125 
Q 407.98625 91.493125 407.98625 89.493125 
L 407.98625 29.318125 
Q 407.98625 27.318125 405.98625 27.318125 
L 339.68625 27.318125 
Q 337.68625 27.318125 337.68625 29.318125 
L 337.68625 89.493125 
Q 337.68625 91.493125 339.68625 91.493125 
z
" style="fill:#eaeaf2;opacity:0.8;stroke:#cccccc;stroke-linejoin:miter;"/>
    </g>
    <g id="line2d_18">
     <path d="M 341.68625 35.416562 
L 361.68625 35.416562 
" style="fill:none;stroke:#0000ff;stroke-dasharray:5.55,2.4;stroke-dashoffset:0;stroke-width:1.5;"/>
    </g>
    <g id="line2d_19"/>
    <g id="text_18">
     <!-- $sin(x)$ -->
     <g style="fill:#262626;" transform="translate(369.68625 38.916562)scale(0.1 -0.1)">
      <defs>
       <path d="M 3200 3397 
L 3091 2853 
Q 2863 2978 2609 3040 
Q 2356 3103 2088 3103 
Q 1634 3103 1373 2948 
Q 1113 2794 1113 2528 
Q 1113 2219 1719 2053 
Q 1766 2041 1788 2034 
L 1972 1978 
Q 2547 1819 2739 1644 
Q 2931 1469 2931 1166 
Q 2931 609 2489 259 
Q 2047 -91 1331 -91 
Q 1053 -91 747 -37 
Q 441 16 72 128 
L 184 722 
Q 500 559 806 475 
Q 1113 391 1394 391 
Q 1816 391 2080 572 
Q 2344 753 2344 1031 
Q 2344 1331 1650 1516 
L 1591 1531 
L 1394 1581 
Q 956 1697 753 1886 
Q 550 2075 550 2369 
Q 550 2928 970 3256 
Q 1391 3584 2113 3584 
Q 2397 3584 2667 3537 
Q 2938 3491 3200 3397 
z
" id="DejaVuSans-Oblique-73" transform="scale(0.015625)"/>
       <path d="M 1172 4863 
L 1747 4863 
L 1606 4134 
L 1031 4134 
L 1172 4863 
z
M 909 3500 
L 1484 3500 
L 800 0 
L 225 0 
L 909 3500 
z
" id="DejaVuSans-Oblique-69" transform="scale(0.015625)"/>
       <path d="M 3566 2113 
L 3156 0 
L 2578 0 
L 2988 2091 
Q 3016 2238 3031 2350 
Q 3047 2463 3047 2528 
Q 3047 2791 2881 2937 
Q 2716 3084 2419 3084 
Q 1956 3084 1622 2776 
Q 1288 2469 1184 1941 
L 800 0 
L 225 0 
L 903 3500 
L 1478 3500 
L 1363 2950 
Q 1603 3253 1940 3418 
Q 2278 3584 2650 3584 
Q 3113 3584 3367 3334 
Q 3622 3084 3622 2631 
Q 3622 2519 3608 2391 
Q 3594 2263 3566 2113 
z
" id="DejaVuSans-Oblique-6e" transform="scale(0.015625)"/>
       <path d="M 1984 4856 
Q 1566 4138 1362 3434 
Q 1159 2731 1159 2009 
Q 1159 1288 1364 580 
Q 1569 -128 1984 -844 
L 1484 -844 
Q 1016 -109 783 600 
Q 550 1309 550 2009 
Q 550 2706 781 3412 
Q 1013 4119 1484 4856 
L 1984 4856 
z
" id="DejaVuSans-28" transform="scale(0.015625)"/>
       <path d="M 513 4856 
L 1013 4856 
Q 1481 4119 1714 3412 
Q 1947 2706 1947 2009 
Q 1947 1309 1714 600 
Q 1481 -109 1013 -844 
L 513 -844 
Q 928 -128 1133 580 
Q 1338 1288 1338 2009 
Q 1338 2731 1133 3434 
Q 928 4138 513 4856 
z
" id="DejaVuSans-29" transform="scale(0.015625)"/>
      </defs>
      <use transform="translate(0 0.015625)" xlink:href="#DejaVuSans-Oblique-73"/>
      <use transform="translate(52.099609 0.015625)" xlink:href="#DejaVuSans-Oblique-69"/>
      <use transform="translate(79.882812 0.015625)" xlink:href="#DejaVuSans-Oblique-6e"/>
      <use transform="translate(143.261719 0.015625)" xlink:href="#DejaVuSans-28"/>
      <use transform="translate(182.275391 0.015625)" xlink:href="#DejaVuSans-Oblique-78"/>
      <use transform="translate(241.455078 0.015625)" xlink:href="#DejaVuSans-29"/>
     </g>
    </g>
    <g id="line2d_20">
     <path d="M 341.68625 50.094688 
L 361.68625 50.094688 
" style="fill:none;stroke:#ff0000;stroke-linecap:round;stroke-width:2;"/>
    </g>
    <g id="line2d_21"/>
    <g id="text_19">
     <!-- $\mu_{2|1}$ -->
     <g style="fill:#262626;" transform="translate(369.68625 53.594688)scale(0.1 -0.1)">
      <defs>
       <path d="M -84 -1331 
L 856 3500 
L 1434 3500 
L 1009 1322 
Q 997 1256 987 1175 
Q 978 1094 978 1013 
Q 978 722 1161 565 
Q 1344 409 1684 409 
Q 2147 409 2431 671 
Q 2716 934 2816 1459 
L 3213 3500 
L 3788 3500 
L 3266 809 
Q 3253 750 3248 706 
Q 3244 663 3244 628 
Q 3244 531 3283 486 
Q 3322 441 3406 441 
Q 3438 441 3492 456 
Q 3547 472 3647 513 
L 3559 50 
Q 3422 -19 3297 -55 
Q 3172 -91 3053 -91 
Q 2847 -91 2730 40 
Q 2613 172 2613 403 
Q 2438 153 2195 31 
Q 1953 -91 1625 -91 
Q 1334 -91 1117 43 
Q 900 178 831 397 
L 494 -1331 
L -84 -1331 
z
" id="DejaVuSans-Oblique-3bc" transform="scale(0.015625)"/>
       <path d="M 1344 4891 
L 1344 -1509 
L 813 -1509 
L 813 4891 
L 1344 4891 
z
" id="DejaVuSans-7c" transform="scale(0.015625)"/>
      </defs>
      <use transform="translate(0 0.3125)" xlink:href="#DejaVuSans-Oblique-3bc"/>
      <use transform="translate(63.623047 -16.09375)scale(0.7)" xlink:href="#DejaVuSans-32"/>
      <use transform="translate(108.15918 -16.09375)scale(0.7)" xlink:href="#DejaVuSans-7c"/>
      <use transform="translate(131.743164 -16.09375)scale(0.7)" xlink:href="#DejaVuSans-31"/>
     </g>
    </g>
    <g id="line2d_22"/>
    <g id="line2d_23">
     <g>
      <use style="stroke:#000000;" x="351.68625" xlink:href="#mbfc2068255" y="65.994687"/>
     </g>
    </g>
    <g id="text_20">
     <!-- $(x_1, y_1)$ -->
     <g style="fill:#262626;" transform="translate(369.68625 69.494687)scale(0.1 -0.1)">
      <defs>
       <path d="M 750 794 
L 1409 794 
L 1409 256 
L 897 -744 
L 494 -744 
L 750 256 
L 750 794 
z
" id="DejaVuSans-2c" transform="scale(0.015625)"/>
      </defs>
      <use transform="translate(0 0.125)" xlink:href="#DejaVuSans-28"/>
      <use transform="translate(39.013672 0.125)" xlink:href="#DejaVuSans-Oblique-78"/>
      <use transform="translate(98.193359 -16.28125)scale(0.7)" xlink:href="#DejaVuSans-31"/>
      <use transform="translate(145.463867 0.125)" xlink:href="#DejaVuSans-2c"/>
      <use transform="translate(196.733398 0.125)" xlink:href="#DejaVuSans-Oblique-79"/>
      <use transform="translate(255.913086 -16.28125)scale(0.7)" xlink:href="#DejaVuSans-31"/>
      <use transform="translate(303.183594 0.125)" xlink:href="#DejaVuSans-29"/>
     </g>
    </g>
    <g id="patch_8">
     <path d="M 341.68625 84.193125 
L 361.68625 84.193125 
L 361.68625 77.193125 
L 341.68625 77.193125 
z
" style="fill:#ff0000;fill-opacity:0.15;stroke:#ff0000;stroke-linejoin:miter;stroke-opacity:0.15;"/>
    </g>
    <g id="text_21">
     <!-- $2 \sigma_{2|1}$ -->
     <g style="fill:#262626;" transform="translate(369.68625 84.193125)scale(0.1 -0.1)">
      <defs>
       <path d="M 2219 3044 
Q 1744 3044 1422 2700 
Q 1081 2341 969 1747 
Q 844 1119 1044 756 
Q 1241 397 1706 397 
Q 2166 397 2503 759 
Q 2844 1122 2966 1747 
Q 3075 2319 2881 2700 
Q 2700 3044 2219 3044 
z
M 2309 3503 
L 4219 3500 
L 4106 2925 
L 3463 2925 
Q 3706 2438 3575 1747 
Q 3406 888 2884 400 
Q 2359 -91 1609 -91 
Q 856 -91 525 400 
Q 194 888 363 1747 
Q 528 2609 1050 3097 
Q 1484 3503 2309 3503 
z
" id="DejaVuSans-Oblique-3c3" transform="scale(0.015625)"/>
      </defs>
      <use transform="translate(0 0.78125)" xlink:href="#DejaVuSans-32"/>
      <use transform="translate(63.623047 0.78125)" xlink:href="#DejaVuSans-Oblique-3c3"/>
      <use transform="translate(127.001953 -15.625)scale(0.7)" xlink:href="#DejaVuSans-32"/>
      <use transform="translate(171.538086 -15.625)scale(0.7)" xlink:href="#DejaVuSans-7c"/>
      <use transform="translate(195.12207 -15.625)scale(0.7)" xlink:href="#DejaVuSans-31"/>
     </g>
    </g>
   </g>
  </g>
  <g id="axes_2">
   <g id="patch_9">
    <path d="M 45.52375 382.718125 
L 412.98625 382.718125 
L 412.98625 232.918125 
L 45.52375 232.918125 
z
" style="fill:#eaeaf2;"/>
   </g>
   <g id="matplotlib.axis_3">
    <g id="xtick_8">
     <g id="line2d_24">
      <path clip-path="url(#pb1e4ea183e)" d="M 45.52375 382.718125 
L 45.52375 232.918125 
" style="fill:none;stroke:#ffffff;stroke-linecap:round;stroke-width:0.8;"/>
     </g>
     <g id="text_22">
      <!-- −6 -->
      <g style="fill:#262626;" transform="translate(38.152656 397.316562)scale(0.1 -0.1)">
       <use xlink:href="#DejaVuSans-2212"/>
       <use x="83.789062" xlink:href="#DejaVuSans-36"/>
      </g>
     </g>
    </g>
    <g id="xtick_9">
     <g id="line2d_25">
      <path clip-path="url(#pb1e4ea183e)" d="M 106.7675 382.718125 
L 106.7675 232.918125 
" style="fill:none;stroke:#ffffff;stroke-linecap:round;stroke-width:0.8;"/>
     </g>
     <g id="text_23">
      <!-- −4 -->
      <g style="fill:#262626;" transform="translate(99.396406 397.316562)scale(0.1 -0.1)">
       <use xlink:href="#DejaVuSans-2212"/>
       <use x="83.789062" xlink:href="#DejaVuSans-34"/>
      </g>
     </g>
    </g>
    <g id="xtick_10">
     <g id="line2d_26">
      <path clip-path="url(#pb1e4ea183e)" d="M 168.01125 382.718125 
L 168.01125 232.918125 
" style="fill:none;stroke:#ffffff;stroke-linecap:round;stroke-width:0.8;"/>
     </g>
     <g id="text_24">
      <!-- −2 -->
      <g style="fill:#262626;" transform="translate(160.640156 397.316562)scale(0.1 -0.1)">
       <use xlink:href="#DejaVuSans-2212"/>
       <use x="83.789062" xlink:href="#DejaVuSans-32"/>
      </g>
     </g>
    </g>
    <g id="xtick_11">
     <g id="line2d_27">
      <path clip-path="url(#pb1e4ea183e)" d="M 229.255 382.718125 
L 229.255 232.918125 
" style="fill:none;stroke:#ffffff;stroke-linecap:round;stroke-width:0.8;"/>
     </g>
     <g id="text_25">
      <!-- 0 -->
      <g style="fill:#262626;" transform="translate(226.07375 397.316562)scale(0.1 -0.1)">
       <use xlink:href="#DejaVuSans-30"/>
      </g>
     </g>
    </g>
    <g id="xtick_12">
     <g id="line2d_28">
      <path clip-path="url(#pb1e4ea183e)" d="M 290.49875 382.718125 
L 290.49875 232.918125 
" style="fill:none;stroke:#ffffff;stroke-linecap:round;stroke-width:0.8;"/>
     </g>
     <g id="text_26">
      <!-- 2 -->
      <g style="fill:#262626;" transform="translate(287.3175 397.316562)scale(0.1 -0.1)">
       <use xlink:href="#DejaVuSans-32"/>
      </g>
     </g>
    </g>
    <g id="xtick_13">
     <g id="line2d_29">
      <path clip-path="url(#pb1e4ea183e)" d="M 351.7425 382.718125 
L 351.7425 232.918125 
" style="fill:none;stroke:#ffffff;stroke-linecap:round;stroke-width:0.8;"/>
     </g>
     <g id="text_27">
      <!-- 4 -->
      <g style="fill:#262626;" transform="translate(348.56125 397.316562)scale(0.1 -0.1)">
       <use xlink:href="#DejaVuSans-34"/>
      </g>
     </g>
    </g>
    <g id="xtick_14">
     <g id="line2d_30">
      <path clip-path="url(#pb1e4ea183e)" d="M 412.98625 382.718125 
L 412.98625 232.918125 
" style="fill:none;stroke:#ffffff;stroke-linecap:round;stroke-width:0.8;"/>
     </g>
     <g id="text_28">
      <!-- 6 -->
      <g style="fill:#262626;" transform="translate(409.805 397.316562)scale(0.1 -0.1)">
       <use xlink:href="#DejaVuSans-36"/>
      </g>
     </g>
    </g>
    <g id="text_29">
     <!-- $x$ -->
     <g style="fill:#262626;" transform="translate(225.355 413.274219)scale(0.13 -0.13)">
      <use transform="translate(0 0.3125)" xlink:href="#DejaVuSans-Oblique-78"/>
     </g>
    </g>
   </g>
   <g id="matplotlib.axis_4">
    <g id="ytick_8">
     <g id="line2d_31">
      <path clip-path="url(#pb1e4ea183e)" d="M 45.52375 363.869351 
L 412.98625 363.869351 
" style="fill:none;stroke:#ffffff;stroke-linecap:round;stroke-width:0.8;"/>
     </g>
     <g id="text_30">
      <!-- −1 -->
      <g style="fill:#262626;" transform="translate(23.781562 367.668569)scale(0.1 -0.1)">
       <use xlink:href="#DejaVuSans-2212"/>
       <use x="83.789062" xlink:href="#DejaVuSans-31"/>
      </g>
     </g>
    </g>
    <g id="ytick_9">
     <g id="line2d_32">
      <path clip-path="url(#pb1e4ea183e)" d="M 45.52375 327.432232 
L 412.98625 327.432232 
" style="fill:none;stroke:#ffffff;stroke-linecap:round;stroke-width:0.8;"/>
     </g>
     <g id="text_31">
      <!-- 0 -->
      <g style="fill:#262626;" transform="translate(32.16125 331.231451)scale(0.1 -0.1)">
       <use xlink:href="#DejaVuSans-30"/>
      </g>
     </g>
    </g>
    <g id="ytick_10">
     <g id="line2d_33">
      <path clip-path="url(#pb1e4ea183e)" d="M 45.52375 290.995113 
L 412.98625 290.995113 
" style="fill:none;stroke:#ffffff;stroke-linecap:round;stroke-width:0.8;"/>
     </g>
     <g id="text_32">
      <!-- 1 -->
      <g style="fill:#262626;" transform="translate(32.16125 294.794332)scale(0.1 -0.1)">
       <use xlink:href="#DejaVuSans-31"/>
      </g>
     </g>
    </g>
    <g id="ytick_11">
     <g id="line2d_34">
      <path clip-path="url(#pb1e4ea183e)" d="M 45.52375 254.557995 
L 412.98625 254.557995 
" style="fill:none;stroke:#ffffff;stroke-linecap:round;stroke-width:0.8;"/>
     </g>
     <g id="text_33">
      <!-- 2 -->
      <g style="fill:#262626;" transform="translate(32.16125 258.357214)scale(0.1 -0.1)">
       <use xlink:href="#DejaVuSans-32"/>
      </g>
     </g>
    </g>
    <g id="text_34">
     <!-- $y$ -->
     <g style="fill:#262626;" transform="translate(17.051562 311.718125)rotate(-90)scale(0.13 -0.13)">
      <use transform="translate(0 0.3125)" xlink:href="#DejaVuSans-Oblique-79"/>
     </g>
    </g>
   </g>
   <g id="line2d_35">
    <path clip-path="url(#pb1e4ea183e)" d="M 45.52375 331.78448 
L 50.489459 336.487024 
L 55.455169 341.629787 
L 60.420878 346.585414 
L 65.386588 350.654063 
L 70.352297 353.180696 
L 75.318007 353.687548 
L 80.283716 351.985868 
L 85.249426 348.233703 
L 90.215135 342.920033 
L 95.180845 336.776178 
L 100.146554 330.636451 
L 105.112264 325.285264 
L 110.077973 321.331464 
L 115.043682 319.140482 
L 120.009392 318.833141 
L 124.975101 320.335301 
L 129.940811 323.445708 
L 134.90652 327.889569 
L 139.87223 333.341393 
L 144.837939 339.424073 
L 149.803649 345.707319 
L 154.769358 351.728421 
L 159.735068 357.042115 
L 164.700777 361.285458 
L 169.666486 364.231251 
L 174.632196 365.807526 
L 179.597905 366.077186 
L 184.563615 365.190247 
L 189.529324 363.330054 
L 194.495034 360.671211 
L 199.460743 357.355807 
L 204.426453 353.484834 
L 209.392162 349.119301 
L 214.357872 344.289109 
L 219.323581 339.012006 
L 224.289291 333.323701 
L 229.255 327.313369 
L 234.220709 321.151069 
L 239.186419 315.090773 
L 244.152128 309.439399 
L 249.117838 304.496 
L 254.083547 300.480363 
L 259.049257 297.478995 
L 264.014966 295.433446 
L 268.980676 294.180977 
L 273.946385 293.535829 
L 278.912095 293.380195 
L 283.877804 293.726425 
L 288.843514 294.721713 
L 293.809223 296.589832 
L 298.774932 299.532343 
L 303.740642 303.629344 
L 308.706351 308.779343 
L 313.672061 314.698454 
L 318.63777 320.97193 
L 323.60348 327.129793 
L 328.569189 332.714464 
L 333.534899 337.321338 
L 338.500608 340.614547 
L 343.466318 342.335482 
L 348.432027 342.322584 
L 353.397736 340.547372 
L 358.363446 337.153643 
L 363.329155 332.475388 
L 368.294865 327.011954 
L 373.260574 321.35401 
L 378.226284 316.07361 
L 383.191993 311.605815 
L 388.157703 308.153738 
L 393.123412 305.643377 
L 398.089122 303.743748 
L 403.054831 301.954908 
L 408.020541 299.752371 
L 412.98625 296.761539 
" style="fill:none;stroke:#1f77b4;stroke-linecap:round;stroke-width:1.5;"/>
   </g>
   <g id="line2d_36">
    <path clip-path="url(#pb1e4ea183e)" d="M 45.52375 300.730261 
L 50.489459 306.503972 
L 55.455169 311.065535 
L 60.420878 314.118827 
L 65.386588 315.684849 
L 70.352297 316.044068 
L 75.318007 315.613174 
L 80.283716 314.808425 
L 85.249426 313.947892 
L 90.215135 313.221527 
L 95.180845 312.723817 
L 100.146554 312.516819 
L 105.112264 312.683963 
L 110.077973 313.348833 
L 115.043682 314.657295 
L 120.009392 316.740891 
L 124.975101 319.684133 
L 129.940811 323.508239 
L 134.90652 328.168576 
L 139.87223 333.554206 
L 144.837939 339.480879 
L 149.803649 345.680249 
L 154.769358 351.798605 
L 159.735068 357.419685 
L 164.700777 362.116591 
L 169.666486 365.52322 
L 174.632196 367.404021 
L 179.597905 367.69899 
L 184.563615 366.528212 
L 189.529324 364.153474 
L 194.495034 360.907231 
L 199.460743 357.108079 
L 204.426453 352.985134 
L 209.392162 348.631798 
L 214.357872 344.002826 
L 219.323581 338.957662 
L 224.289291 333.339746 
L 229.255 327.068697 
L 234.220709 320.215409 
L 239.186419 313.032959 
L 244.152128 305.929969 
L 249.117838 299.392932 
L 254.083547 293.882743 
L 259.049257 289.739493 
L 264.014966 287.125001 
L 268.980676 286.016842 
L 273.946385 286.248282 
L 278.912095 287.574455 
L 283.877804 289.741268 
L 288.843514 292.538837 
L 293.809223 295.831062 
L 298.774932 299.560909 
L 303.740642 303.734621 
L 308.706351 308.388999 
L 313.672061 313.546976 
L 318.63777 319.17065 
L 323.60348 325.1251 
L 328.569189 331.167673 
L 333.534899 336.971597 
L 338.500608 342.181431 
L 343.466318 346.485226 
L 348.432027 349.681147 
L 353.397736 351.717992 
L 358.363446 352.698123 
L 363.329155 352.842946 
L 368.294865 352.430381 
L 373.260574 351.718891 
L 378.226284 350.875266 
L 383.191993 349.924176 
L 388.157703 348.736147 
L 393.123412 347.063997 
L 398.089122 344.62449 
L 403.054831 341.205291 
L 408.020541 336.763969 
L 412.98625 331.484431 
" style="fill:none;stroke:#ff7f0e;stroke-linecap:round;stroke-width:1.5;"/>
   </g>
   <g id="line2d_37">
    <path clip-path="url(#pb1e4ea183e)" d="M 45.52375 250.591199 
L 50.489459 247.399752 
L 55.455169 244.065382 
L 60.420878 241.214813 
L 65.386588 239.727216 
L 70.352297 240.544866 
L 75.318007 244.415115 
L 80.283716 251.630754 
L 85.249426 261.857998 
L 90.215135 274.128589 
L 95.180845 287.022529 
L 100.146554 298.999528 
L 105.112264 308.780294 
L 110.077973 315.658558 
L 115.043682 319.649937 
L 120.009392 321.441871 
L 124.975101 322.173997 
L 129.940811 323.125109 
L 134.90652 325.397177 
L 139.87223 329.671225 
L 144.837939 336.07788 
L 149.803649 344.192902 
L 154.769358 353.144526 
L 159.735068 361.805124 
L 164.700777 369.030299 
L 169.666486 373.899776 
L 174.632196 375.909034 
L 179.597905 375.064156 
L 184.563615 371.851236 
L 189.529324 367.084095 
L 194.495034 361.671153 
L 199.460743 356.369173 
L 204.426453 351.596386 
L 209.392162 347.357119 
L 214.357872 343.292078 
L 219.323581 338.828356 
L 224.289291 333.37668 
L 229.255 326.518189 
L 234.220709 318.137181 
L 239.186419 308.479336 
L 244.152128 298.135198 
L 249.117838 287.95973 
L 254.083547 278.941515 
L 259.049257 272.036751 
L 264.014966 267.989264 
L 268.980676 267.168817 
L 273.946385 269.469396 
L 278.912095 274.307124 
L 283.877804 280.737366 
L 288.843514 287.675374 
L 293.809223 294.165954 
L 298.774932 299.622652 
L 303.740642 303.959043 
L 308.706351 307.567138 
L 313.672061 311.149545 
L 318.63777 315.462731 
L 323.60348 321.057305 
L 328.569189 328.096767 
L 333.534899 336.301493 
L 338.500608 345.016777 
L 343.466318 353.363345 
L 348.432027 360.411535 
L 353.397736 365.32932 
L 358.363446 367.480243 
L 363.329155 366.474225 
L 368.294865 362.188816 
L 373.260574 354.776767 
L 378.226284 344.662854 
L 383.191993 332.520373 
L 388.157703 319.21427 
L 393.123412 305.706734 
L 398.089122 292.937047 
L 403.054831 281.701414 
L 408.020541 272.562761 
L 412.98625 265.812026 
" style="fill:none;stroke:#2ca02c;stroke-linecap:round;stroke-width:1.5;"/>
   </g>
   <g id="line2d_38">
    <path clip-path="url(#pb1e4ea183e)" d="M 45.52375 308.564517 
L 50.489459 307.797506 
L 55.455169 307.605289 
L 60.420878 308.234173 
L 65.386588 309.793756 
L 70.352297 312.173714 
L 75.318007 315.032102 
L 80.283716 317.862848 
L 85.249426 320.123106 
L 90.215135 321.382914 
L 95.180845 321.454382 
L 100.146554 320.46455 
L 105.112264 318.85082 
L 110.077973 317.2759 
L 115.043682 316.477839 
L 120.009392 317.088276 
L 124.975101 319.465175 
L 129.940811 323.589567 
L 134.90652 329.062988 
L 139.87223 335.213172 
L 144.837939 341.278429 
L 149.803649 346.610953 
L 154.769358 350.831007 
L 159.735068 353.882204 
L 164.700777 355.975845 
L 169.666486 357.452911 
L 174.632196 358.619524 
L 179.597905 359.615841 
L 184.563615 360.360873 
L 189.529324 360.585252 
L 194.495034 359.932974 
L 199.460743 358.092506 
L 204.426453 354.912556 
L 209.392162 350.467902 
L 214.357872 345.059678 
L 219.323581 339.154627 
L 224.289291 333.282698 
L 229.255 327.919865 
L 234.220709 323.384214 
L 239.186419 319.770289 
L 244.152128 316.939743 
L 249.117838 314.574868 
L 254.083547 312.285302 
L 259.049257 309.740749 
L 264.014966 306.790343 
L 268.980676 303.529402 
L 273.946385 300.289496 
L 278.912095 297.553545 
L 283.877804 295.824438 
L 288.843514 295.491875 
L 293.809223 296.74121 
L 298.774932 299.530426 
L 303.740642 303.634032 
L 308.706351 308.726756 
L 313.672061 314.465492 
L 318.63777 320.531066 
L 323.60348 326.612436 
L 328.569189 332.346937 
L 333.534899 337.258505 
L 338.500608 340.746792 
L 343.466318 342.164791 
L 348.432027 340.983973 
L 353.397736 336.999691 
L 358.363446 330.497608 
L 363.329155 322.302814 
L 368.294865 313.669956 
L 373.260574 306.031424 
L 378.226284 300.675622 
L 383.191993 298.454819 
L 388.157703 299.610762 
L 393.123412 303.763373 
L 398.089122 310.052682 
L 403.054831 317.379405 
L 408.020541 324.669219 
L 412.98625 331.091884 
" style="fill:none;stroke:#d62728;stroke-linecap:round;stroke-width:1.5;"/>
   </g>
   <g id="line2d_39">
    <path clip-path="url(#pb1e4ea183e)" d="M 45.52375 307.218951 
L 50.489459 314.184824 
L 55.455169 322.065005 
L 60.420878 330.224464 
L 65.386588 338.178613 
L 70.352297 345.523962 
L 75.318007 351.835565 
L 80.283716 356.606833 
L 85.249426 359.285146 
L 90.215135 359.407508 
L 95.180845 356.787307 
L 100.146554 351.670819 
L 105.112264 344.786498 
L 110.077973 337.249631 
L 115.043682 330.341837 
L 120.009392 325.233562 
L 124.975101 322.73772 
L 129.940811 323.166928 
L 134.90652 326.325226 
L 139.87223 331.617375 
L 144.837939 338.224665 
L 149.803649 345.286428 
L 154.769358 352.040148 
L 159.735068 357.899596 
L 164.700777 362.476477 
L 169.666486 365.566208 
L 174.632196 367.119924 
L 179.597905 367.215704 
L 184.563615 366.030122 
L 189.529324 363.803912 
L 194.495034 360.796746 
L 199.460743 357.234652 
L 204.426453 353.263837 
L 209.392162 348.929785 
L 214.357872 344.195415 
L 219.323581 338.998005 
L 224.289291 333.3266 
L 229.255 327.289411 
L 234.220709 321.140274 
L 239.186419 315.246782 
L 244.152128 310.00521 
L 249.117838 305.729827 
L 254.083547 302.557608 
L 259.049257 300.407659 
L 264.014966 299.01696 
L 268.980676 298.046161 
L 273.946385 297.220608 
L 278.912095 296.454305 
L 283.877804 295.906762 
L 288.843514 295.945637 
L 293.809223 297.024088 
L 298.774932 299.51567 
L 303.740642 303.566579 
L 308.706351 309.017565 
L 313.672061 315.418998 
L 318.63777 322.126855 
L 323.60348 328.440162 
L 328.569189 333.733213 
L 333.534899 337.548677 
L 338.500608 339.64102 
L 343.466318 339.980496 
L 348.432027 338.736148 
L 353.397736 336.250686 
L 358.363446 333.007187 
L 363.329155 329.577518 
L 368.294865 326.542981 
L 373.260574 324.389826 
L 378.226284 323.399608 
L 383.191993 323.566681 
L 388.157703 324.574151 
L 393.123412 325.84382 
L 398.089122 326.650926 
L 403.054831 326.273004 
L 408.020541 324.133316 
L 412.98625 319.906973 
" style="fill:none;stroke:#9467bd;stroke-linecap:round;stroke-width:1.5;"/>
   </g>
   <g id="patch_10">
    <path d="M 45.52375 382.718125 
L 45.52375 232.918125 
" style="fill:none;stroke:#ffffff;stroke-linecap:square;stroke-linejoin:miter;stroke-width:0.8;"/>
   </g>
   <g id="patch_11">
    <path d="M 412.98625 382.718125 
L 412.98625 232.918125 
" style="fill:none;stroke:#ffffff;stroke-linecap:square;stroke-linejoin:miter;stroke-width:0.8;"/>
   </g>
   <g id="patch_12">
    <path d="M 45.52375 382.718125 
L 412.98625 382.718125 
" style="fill:none;stroke:#ffffff;stroke-linecap:square;stroke-linejoin:miter;stroke-width:0.8;"/>
   </g>
   <g id="patch_13">
    <path d="M 45.52375 232.918125 
L 412.98625 232.918125 
" style="fill:none;stroke:#ffffff;stroke-linecap:square;stroke-linejoin:miter;stroke-width:0.8;"/>
   </g>
   <g id="text_35">
    <!-- 5 different function realizations from posterior -->
    <g style="fill:#262626;" transform="translate(90.464688 226.918125)scale(0.12 -0.12)">
     <defs>
      <path d="M 691 4666 
L 3169 4666 
L 3169 4134 
L 1269 4134 
L 1269 2991 
Q 1406 3038 1543 3061 
Q 1681 3084 1819 3084 
Q 2600 3084 3056 2656 
Q 3513 2228 3513 1497 
Q 3513 744 3044 326 
Q 2575 -91 1722 -91 
Q 1428 -91 1123 -41 
Q 819 9 494 109 
L 494 744 
Q 775 591 1075 516 
Q 1375 441 1709 441 
Q 2250 441 2565 725 
Q 2881 1009 2881 1497 
Q 2881 1984 2565 2268 
Q 2250 2553 1709 2553 
Q 1456 2553 1204 2497 
Q 953 2441 691 2322 
L 691 4666 
z
" id="DejaVuSans-35" transform="scale(0.015625)"/>
      <path d="M 3122 3366 
L 3122 2828 
Q 2878 2963 2633 3030 
Q 2388 3097 2138 3097 
Q 1578 3097 1268 2742 
Q 959 2388 959 1747 
Q 959 1106 1268 751 
Q 1578 397 2138 397 
Q 2388 397 2633 464 
Q 2878 531 3122 666 
L 3122 134 
Q 2881 22 2623 -34 
Q 2366 -91 2075 -91 
Q 1284 -91 818 406 
Q 353 903 353 1747 
Q 353 2603 823 3093 
Q 1294 3584 2113 3584 
Q 2378 3584 2631 3529 
Q 2884 3475 3122 3366 
z
" id="DejaVuSans-63" transform="scale(0.015625)"/>
      <path d="M 603 4863 
L 1178 4863 
L 1178 0 
L 603 0 
L 603 4863 
z
" id="DejaVuSans-6c" transform="scale(0.015625)"/>
      <path d="M 353 3500 
L 3084 3500 
L 3084 2975 
L 922 459 
L 3084 459 
L 3084 0 
L 275 0 
L 275 525 
L 2438 3041 
L 353 3041 
L 353 3500 
z
" id="DejaVuSans-7a" transform="scale(0.015625)"/>
      <path d="M 3328 2828 
Q 3544 3216 3844 3400 
Q 4144 3584 4550 3584 
Q 5097 3584 5394 3201 
Q 5691 2819 5691 2113 
L 5691 0 
L 5113 0 
L 5113 2094 
Q 5113 2597 4934 2840 
Q 4756 3084 4391 3084 
Q 3944 3084 3684 2787 
Q 3425 2491 3425 1978 
L 3425 0 
L 2847 0 
L 2847 2094 
Q 2847 2600 2669 2842 
Q 2491 3084 2119 3084 
Q 1678 3084 1418 2786 
Q 1159 2488 1159 1978 
L 1159 0 
L 581 0 
L 581 3500 
L 1159 3500 
L 1159 2956 
Q 1356 3278 1631 3431 
Q 1906 3584 2284 3584 
Q 2666 3584 2933 3390 
Q 3200 3197 3328 2828 
z
" id="DejaVuSans-6d" transform="scale(0.015625)"/>
     </defs>
     <use xlink:href="#DejaVuSans-35"/>
     <use x="63.623047" xlink:href="#DejaVuSans-20"/>
     <use x="95.410156" xlink:href="#DejaVuSans-64"/>
     <use x="158.886719" xlink:href="#DejaVuSans-69"/>
     <use x="186.669922" xlink:href="#DejaVuSans-66"/>
     <use x="221.875" xlink:href="#DejaVuSans-66"/>
     <use x="257.080078" xlink:href="#DejaVuSans-65"/>
     <use x="318.603516" xlink:href="#DejaVuSans-72"/>
     <use x="357.466797" xlink:href="#DejaVuSans-65"/>
     <use x="418.990234" xlink:href="#DejaVuSans-6e"/>
     <use x="482.369141" xlink:href="#DejaVuSans-74"/>
     <use x="521.578125" xlink:href="#DejaVuSans-20"/>
     <use x="553.365234" xlink:href="#DejaVuSans-66"/>
     <use x="588.570312" xlink:href="#DejaVuSans-75"/>
     <use x="651.949219" xlink:href="#DejaVuSans-6e"/>
     <use x="715.328125" xlink:href="#DejaVuSans-63"/>
     <use x="770.308594" xlink:href="#DejaVuSans-74"/>
     <use x="809.517578" xlink:href="#DejaVuSans-69"/>
     <use x="837.300781" xlink:href="#DejaVuSans-6f"/>
     <use x="898.482422" xlink:href="#DejaVuSans-6e"/>
     <use x="961.861328" xlink:href="#DejaVuSans-20"/>
     <use x="993.648438" xlink:href="#DejaVuSans-72"/>
     <use x="1032.511719" xlink:href="#DejaVuSans-65"/>
     <use x="1094.035156" xlink:href="#DejaVuSans-61"/>
     <use x="1155.314453" xlink:href="#DejaVuSans-6c"/>
     <use x="1183.097656" xlink:href="#DejaVuSans-69"/>
     <use x="1210.880859" xlink:href="#DejaVuSans-7a"/>
     <use x="1263.371094" xlink:href="#DejaVuSans-61"/>
     <use x="1324.650391" xlink:href="#DejaVuSans-74"/>
     <use x="1363.859375" xlink:href="#DejaVuSans-69"/>
     <use x="1391.642578" xlink:href="#DejaVuSans-6f"/>
     <use x="1452.824219" xlink:href="#DejaVuSans-6e"/>
     <use x="1516.203125" xlink:href="#DejaVuSans-73"/>
     <use x="1568.302734" xlink:href="#DejaVuSans-20"/>
     <use x="1600.089844" xlink:href="#DejaVuSans-66"/>
     <use x="1635.294922" xlink:href="#DejaVuSans-72"/>
     <use x="1674.158203" xlink:href="#DejaVuSans-6f"/>
     <use x="1735.339844" xlink:href="#DejaVuSans-6d"/>
     <use x="1832.751953" xlink:href="#DejaVuSans-20"/>
     <use x="1864.539062" xlink:href="#DejaVuSans-70"/>
     <use x="1928.015625" xlink:href="#DejaVuSans-6f"/>
     <use x="1989.197266" xlink:href="#DejaVuSans-73"/>
     <use x="2041.296875" xlink:href="#DejaVuSans-74"/>
     <use x="2080.505859" xlink:href="#DejaVuSans-65"/>
     <use x="2142.029297" xlink:href="#DejaVuSans-72"/>
     <use x="2183.142578" xlink:href="#DejaVuSans-69"/>
     <use x="2210.925781" xlink:href="#DejaVuSans-6f"/>
     <use x="2272.107422" xlink:href="#DejaVuSans-72"/>
    </g>
   </g>
  </g>
 </g>
 <defs>
  <clipPath id="p2bf0d636ea">
   <rect height="149.8" width="367.4625" x="45.52375" y="22.318125"/>
  </clipPath>
  <clipPath id="pb1e4ea183e">
   <rect height="149.8" width="367.4625" x="45.52375" y="232.918125"/>
  </clipPath>
 </defs>
</svg>
