<?xml version="1.0" encoding="utf-8" standalone="no"?>
<!DOCTYPE svg PUBLIC "-//W3C//DTD SVG 1.1//EN"
  "http://www.w3.org/Graphics/SVG/1.1/DTD/svg11.dtd">
<!-- Created with matplotlib (https://matplotlib.org/) -->
<svg height="244.568488pt" version="1.1" viewBox="0 0 273.732 244.568488" width="273.732pt" xmlns="http://www.w3.org/2000/svg" xmlns:xlink="http://www.w3.org/1999/xlink">
 <metadata>
  <rdf:RDF xmlns:cc="http://creativecommons.org/ns#" xmlns:dc="http://purl.org/dc/elements/1.1/" xmlns:rdf="http://www.w3.org/1999/02/22-rdf-syntax-ns#">
   <cc:Work>
    <dc:type rdf:resource="http://purl.org/dc/dcmitype/StillImage"/>
    <dc:date>2021-09-03T19:27:32.399903</dc:date>
    <dc:format>image/svg+xml</dc:format>
    <dc:creator>
     <cc:Agent>
      <dc:title>Matplotlib v3.3.2, https://matplotlib.org/</dc:title>
     </cc:Agent>
    </dc:creator>
   </cc:Work>
  </rdf:RDF>
 </metadata>
 <defs>
  <style type="text/css">*{stroke-linecap:butt;stroke-linejoin:round;}</style>
 </defs>
 <g id="figure_1">
  <g id="patch_1">
   <path d="M 0 244.568488 
L 273.732 244.568488 
L 273.732 0 
L 0 0 
z
" style="fill:none;"/>
  </g>
  <g id="patch_2">
   <path d="M 46.978877 224.64 
L 264.418877 224.64 
L 264.418877 7.2 
L 46.978877 7.2 
z
" style="fill:#ffffff;"/>
  </g>
  <g id="pane3d_1">
   <g id="patch_3">
    <path d="M 250.425557 144.32791 
L 135.202886 110.837228 
L 134.204716 24.033878 
L 254.537448 54.534718 
" style="fill:#f2f2f2;opacity:0.5;stroke:#f2f2f2;stroke-linejoin:miter;"/>
   </g>
  </g>
  <g id="pane3d_2">
   <g id="patch_4">
    <path d="M 63.397096 171.026264 
L 135.202886 110.837228 
L 134.204716 24.033878 
L 58.96265 78.942111 
" style="fill:#e6e6e6;opacity:0.5;stroke:#e6e6e6;stroke-linejoin:miter;"/>
   </g>
  </g>
  <g id="pane3d_3">
   <g id="patch_5">
    <path d="M 185.538756 210.91773 
L 250.425557 144.32791 
L 135.202886 110.837228 
L 63.397096 171.026264 
" style="fill:#ececec;opacity:0.5;stroke:#ececec;stroke-linejoin:miter;"/>
   </g>
  </g>
  <g id="axis3d_1">
   <g id="line2d_1">
    <path d="M 250.425557 144.32791 
L 185.538756 210.91773 
" style="fill:none;stroke:#000000;stroke-linecap:square;stroke-width:0.8;"/>
   </g>
   <g id="text_1">
    <!-- slope -->
    <g transform="translate(239.103964 215.605487)rotate(-45.742112)scale(0.1 -0.1)">
     <defs>
      <path d="M 44.28125 53.078125 
L 44.28125 44.578125 
Q 40.484375 46.53125 36.375 47.5 
Q 32.28125 48.484375 27.875 48.484375 
Q 21.1875 48.484375 17.84375 46.4375 
Q 14.5 44.390625 14.5 40.28125 
Q 14.5 37.15625 16.890625 35.375 
Q 19.28125 33.59375 26.515625 31.984375 
L 29.59375 31.296875 
Q 39.15625 29.25 43.1875 25.515625 
Q 47.21875 21.78125 47.21875 15.09375 
Q 47.21875 7.46875 41.1875 3.015625 
Q 35.15625 -1.421875 24.609375 -1.421875 
Q 20.21875 -1.421875 15.453125 -0.5625 
Q 10.6875 0.296875 5.421875 2 
L 5.421875 11.28125 
Q 10.40625 8.6875 15.234375 7.390625 
Q 20.0625 6.109375 24.8125 6.109375 
Q 31.15625 6.109375 34.5625 8.28125 
Q 37.984375 10.453125 37.984375 14.40625 
Q 37.984375 18.0625 35.515625 20.015625 
Q 33.0625 21.96875 24.703125 23.78125 
L 21.578125 24.515625 
Q 13.234375 26.265625 9.515625 29.90625 
Q 5.8125 33.546875 5.8125 39.890625 
Q 5.8125 47.609375 11.28125 51.796875 
Q 16.75 56 26.8125 56 
Q 31.78125 56 36.171875 55.265625 
Q 40.578125 54.546875 44.28125 53.078125 
z
" id="DejaVuSans-115"/>
      <path d="M 9.421875 75.984375 
L 18.40625 75.984375 
L 18.40625 0 
L 9.421875 0 
z
" id="DejaVuSans-108"/>
      <path d="M 30.609375 48.390625 
Q 23.390625 48.390625 19.1875 42.75 
Q 14.984375 37.109375 14.984375 27.296875 
Q 14.984375 17.484375 19.15625 11.84375 
Q 23.34375 6.203125 30.609375 6.203125 
Q 37.796875 6.203125 41.984375 11.859375 
Q 46.1875 17.53125 46.1875 27.296875 
Q 46.1875 37.015625 41.984375 42.703125 
Q 37.796875 48.390625 30.609375 48.390625 
z
M 30.609375 56 
Q 42.328125 56 49.015625 48.375 
Q 55.71875 40.765625 55.71875 27.296875 
Q 55.71875 13.875 49.015625 6.21875 
Q 42.328125 -1.421875 30.609375 -1.421875 
Q 18.84375 -1.421875 12.171875 6.21875 
Q 5.515625 13.875 5.515625 27.296875 
Q 5.515625 40.765625 12.171875 48.375 
Q 18.84375 56 30.609375 56 
z
" id="DejaVuSans-111"/>
      <path d="M 18.109375 8.203125 
L 18.109375 -20.796875 
L 9.078125 -20.796875 
L 9.078125 54.6875 
L 18.109375 54.6875 
L 18.109375 46.390625 
Q 20.953125 51.265625 25.265625 53.625 
Q 29.59375 56 35.59375 56 
Q 45.5625 56 51.78125 48.09375 
Q 58.015625 40.1875 58.015625 27.296875 
Q 58.015625 14.40625 51.78125 6.484375 
Q 45.5625 -1.421875 35.59375 -1.421875 
Q 29.59375 -1.421875 25.265625 0.953125 
Q 20.953125 3.328125 18.109375 8.203125 
z
M 48.6875 27.296875 
Q 48.6875 37.203125 44.609375 42.84375 
Q 40.53125 48.484375 33.40625 48.484375 
Q 26.265625 48.484375 22.1875 42.84375 
Q 18.109375 37.203125 18.109375 27.296875 
Q 18.109375 17.390625 22.1875 11.75 
Q 26.265625 6.109375 33.40625 6.109375 
Q 40.53125 6.109375 44.609375 11.75 
Q 48.6875 17.390625 48.6875 27.296875 
z
" id="DejaVuSans-112"/>
      <path d="M 56.203125 29.59375 
L 56.203125 25.203125 
L 14.890625 25.203125 
Q 15.484375 15.921875 20.484375 11.0625 
Q 25.484375 6.203125 34.421875 6.203125 
Q 39.59375 6.203125 44.453125 7.46875 
Q 49.3125 8.734375 54.109375 11.28125 
L 54.109375 2.78125 
Q 49.265625 0.734375 44.1875 -0.34375 
Q 39.109375 -1.421875 33.890625 -1.421875 
Q 20.796875 -1.421875 13.15625 6.1875 
Q 5.515625 13.8125 5.515625 26.8125 
Q 5.515625 40.234375 12.765625 48.109375 
Q 20.015625 56 32.328125 56 
Q 43.359375 56 49.78125 48.890625 
Q 56.203125 41.796875 56.203125 29.59375 
z
M 47.21875 32.234375 
Q 47.125 39.59375 43.09375 43.984375 
Q 39.0625 48.390625 32.421875 48.390625 
Q 24.90625 48.390625 20.390625 44.140625 
Q 15.875 39.890625 15.1875 32.171875 
z
" id="DejaVuSans-101"/>
     </defs>
     <use xlink:href="#DejaVuSans-115"/>
     <use x="52.099609" xlink:href="#DejaVuSans-108"/>
     <use x="79.882812" xlink:href="#DejaVuSans-111"/>
     <use x="141.064453" xlink:href="#DejaVuSans-112"/>
     <use x="204.541016" xlink:href="#DejaVuSans-101"/>
    </g>
   </g>
   <g id="Line3DCollection_1">
    <path d="M 199.262652 196.833637 
L 78.531591 158.340231 
L 74.868986 67.334391 
" style="fill:none;stroke:#b0b0b0;stroke-width:0.8;"/>
    <path d="M 215.752582 179.910912 
L 96.753803 143.066011 
L 93.986724 53.383137 
" style="fill:none;stroke:#b0b0b0;stroke-width:0.8;"/>
    <path d="M 231.526403 163.72309 
L 114.22298 128.423001 
L 112.279854 40.033643 
" style="fill:none;stroke:#b0b0b0;stroke-width:0.8;"/>
    <path d="M 246.629773 148.223317 
L 130.984856 114.372864 
L 129.800603 27.247799 
" style="fill:none;stroke:#b0b0b0;stroke-width:0.8;"/>
   </g>
   <g id="xtick_1">
    <g id="line2d_2">
     <path d="M 198.24588 196.509453 
L 201.298792 197.482832 
" style="fill:none;stroke:#000000;stroke-linecap:square;stroke-width:0.8;"/>
    </g>
    <g id="text_2">
     <!-- 0.4 -->
     <g transform="translate(204.041867 217.685371)scale(0.1 -0.1)">
      <defs>
       <path d="M 31.78125 66.40625 
Q 24.171875 66.40625 20.328125 58.90625 
Q 16.5 51.421875 16.5 36.375 
Q 16.5 21.390625 20.328125 13.890625 
Q 24.171875 6.390625 31.78125 6.390625 
Q 39.453125 6.390625 43.28125 13.890625 
Q 47.125 21.390625 47.125 36.375 
Q 47.125 51.421875 43.28125 58.90625 
Q 39.453125 66.40625 31.78125 66.40625 
z
M 31.78125 74.21875 
Q 44.046875 74.21875 50.515625 64.515625 
Q 56.984375 54.828125 56.984375 36.375 
Q 56.984375 17.96875 50.515625 8.265625 
Q 44.046875 -1.421875 31.78125 -1.421875 
Q 19.53125 -1.421875 13.0625 8.265625 
Q 6.59375 17.96875 6.59375 36.375 
Q 6.59375 54.828125 13.0625 64.515625 
Q 19.53125 74.21875 31.78125 74.21875 
z
" id="DejaVuSans-48"/>
       <path d="M 10.6875 12.40625 
L 21 12.40625 
L 21 0 
L 10.6875 0 
z
" id="DejaVuSans-46"/>
       <path d="M 37.796875 64.3125 
L 12.890625 25.390625 
L 37.796875 25.390625 
z
M 35.203125 72.90625 
L 47.609375 72.90625 
L 47.609375 25.390625 
L 58.015625 25.390625 
L 58.015625 17.1875 
L 47.609375 17.1875 
L 47.609375 0 
L 37.796875 0 
L 37.796875 17.1875 
L 4.890625 17.1875 
L 4.890625 26.703125 
z
" id="DejaVuSans-52"/>
      </defs>
      <use xlink:href="#DejaVuSans-48"/>
      <use x="63.623047" xlink:href="#DejaVuSans-46"/>
      <use x="95.410156" xlink:href="#DejaVuSans-52"/>
     </g>
    </g>
   </g>
   <g id="xtick_2">
    <g id="line2d_3">
     <path d="M 214.751512 179.600957 
L 217.75722 180.531597 
" style="fill:none;stroke:#000000;stroke-linecap:square;stroke-width:0.8;"/>
    </g>
    <g id="text_3">
     <!-- 0.6 -->
     <g transform="translate(220.260704 200.456297)scale(0.1 -0.1)">
      <defs>
       <path d="M 33.015625 40.375 
Q 26.375 40.375 22.484375 35.828125 
Q 18.609375 31.296875 18.609375 23.390625 
Q 18.609375 15.53125 22.484375 10.953125 
Q 26.375 6.390625 33.015625 6.390625 
Q 39.65625 6.390625 43.53125 10.953125 
Q 47.40625 15.53125 47.40625 23.390625 
Q 47.40625 31.296875 43.53125 35.828125 
Q 39.65625 40.375 33.015625 40.375 
z
M 52.59375 71.296875 
L 52.59375 62.3125 
Q 48.875 64.0625 45.09375 64.984375 
Q 41.3125 65.921875 37.59375 65.921875 
Q 27.828125 65.921875 22.671875 59.328125 
Q 17.53125 52.734375 16.796875 39.40625 
Q 19.671875 43.65625 24.015625 45.921875 
Q 28.375 48.1875 33.59375 48.1875 
Q 44.578125 48.1875 50.953125 41.515625 
Q 57.328125 34.859375 57.328125 23.390625 
Q 57.328125 12.15625 50.6875 5.359375 
Q 44.046875 -1.421875 33.015625 -1.421875 
Q 20.359375 -1.421875 13.671875 8.265625 
Q 6.984375 17.96875 6.984375 36.375 
Q 6.984375 53.65625 15.1875 63.9375 
Q 23.390625 74.21875 37.203125 74.21875 
Q 40.921875 74.21875 44.703125 73.484375 
Q 48.484375 72.75 52.59375 71.296875 
z
" id="DejaVuSans-54"/>
      </defs>
      <use xlink:href="#DejaVuSans-48"/>
      <use x="63.623047" xlink:href="#DejaVuSans-46"/>
      <use x="95.410156" xlink:href="#DejaVuSans-54"/>
     </g>
    </g>
   </g>
   <g id="xtick_3">
    <g id="line2d_4">
     <path d="M 230.540646 163.426447 
L 233.500326 164.317102 
" style="fill:none;stroke:#000000;stroke-linecap:square;stroke-width:0.8;"/>
    </g>
    <g id="text_4">
     <!-- 0.8 -->
     <g transform="translate(235.774717 183.975948)scale(0.1 -0.1)">
      <defs>
       <path d="M 31.78125 34.625 
Q 24.75 34.625 20.71875 30.859375 
Q 16.703125 27.09375 16.703125 20.515625 
Q 16.703125 13.921875 20.71875 10.15625 
Q 24.75 6.390625 31.78125 6.390625 
Q 38.8125 6.390625 42.859375 10.171875 
Q 46.921875 13.96875 46.921875 20.515625 
Q 46.921875 27.09375 42.890625 30.859375 
Q 38.875 34.625 31.78125 34.625 
z
M 21.921875 38.8125 
Q 15.578125 40.375 12.03125 44.71875 
Q 8.5 49.078125 8.5 55.328125 
Q 8.5 64.0625 14.71875 69.140625 
Q 20.953125 74.21875 31.78125 74.21875 
Q 42.671875 74.21875 48.875 69.140625 
Q 55.078125 64.0625 55.078125 55.328125 
Q 55.078125 49.078125 51.53125 44.71875 
Q 48 40.375 41.703125 38.8125 
Q 48.828125 37.15625 52.796875 32.3125 
Q 56.78125 27.484375 56.78125 20.515625 
Q 56.78125 9.90625 50.3125 4.234375 
Q 43.84375 -1.421875 31.78125 -1.421875 
Q 19.734375 -1.421875 13.25 4.234375 
Q 6.78125 9.90625 6.78125 20.515625 
Q 6.78125 27.484375 10.78125 32.3125 
Q 14.796875 37.15625 21.921875 38.8125 
z
M 18.3125 54.390625 
Q 18.3125 48.734375 21.84375 45.5625 
Q 25.390625 42.390625 31.78125 42.390625 
Q 38.140625 42.390625 41.71875 45.5625 
Q 45.3125 48.734375 45.3125 54.390625 
Q 45.3125 60.0625 41.71875 63.234375 
Q 38.140625 66.40625 31.78125 66.40625 
Q 25.390625 66.40625 21.84375 63.234375 
Q 18.3125 60.0625 18.3125 54.390625 
z
" id="DejaVuSans-56"/>
      </defs>
      <use xlink:href="#DejaVuSans-48"/>
      <use x="63.623047" xlink:href="#DejaVuSans-46"/>
      <use x="95.410156" xlink:href="#DejaVuSans-56"/>
     </g>
    </g>
   </g>
   <g id="xtick_4">
    <g id="line2d_5">
     <path d="M 245.658945 147.939146 
L 248.573752 148.79234 
" style="fill:none;stroke:#000000;stroke-linecap:square;stroke-width:0.8;"/>
    </g>
    <g id="text_5">
     <!-- 1.0 -->
     <g transform="translate(250.628875 168.196556)scale(0.1 -0.1)">
      <defs>
       <path d="M 12.40625 8.296875 
L 28.515625 8.296875 
L 28.515625 63.921875 
L 10.984375 60.40625 
L 10.984375 69.390625 
L 28.421875 72.90625 
L 38.28125 72.90625 
L 38.28125 8.296875 
L 54.390625 8.296875 
L 54.390625 0 
L 12.40625 0 
z
" id="DejaVuSans-49"/>
      </defs>
      <use xlink:href="#DejaVuSans-49"/>
      <use x="63.623047" xlink:href="#DejaVuSans-46"/>
      <use x="95.410156" xlink:href="#DejaVuSans-48"/>
     </g>
    </g>
   </g>
  </g>
  <g id="axis3d_2">
   <g id="line2d_6">
    <path d="M 63.397096 171.026264 
L 185.538756 210.91773 
" style="fill:none;stroke:#000000;stroke-linecap:square;stroke-width:0.8;"/>
   </g>
   <g id="text_6">
    <!-- intercept -->
    <g transform="translate(84.293483 221.422259)rotate(-341.912962)scale(0.1 -0.1)">
     <defs>
      <path d="M 9.421875 54.6875 
L 18.40625 54.6875 
L 18.40625 0 
L 9.421875 0 
z
M 9.421875 75.984375 
L 18.40625 75.984375 
L 18.40625 64.59375 
L 9.421875 64.59375 
z
" id="DejaVuSans-105"/>
      <path d="M 54.890625 33.015625 
L 54.890625 0 
L 45.90625 0 
L 45.90625 32.71875 
Q 45.90625 40.484375 42.875 44.328125 
Q 39.84375 48.1875 33.796875 48.1875 
Q 26.515625 48.1875 22.3125 43.546875 
Q 18.109375 38.921875 18.109375 30.90625 
L 18.109375 0 
L 9.078125 0 
L 9.078125 54.6875 
L 18.109375 54.6875 
L 18.109375 46.1875 
Q 21.34375 51.125 25.703125 53.5625 
Q 30.078125 56 35.796875 56 
Q 45.21875 56 50.046875 50.171875 
Q 54.890625 44.34375 54.890625 33.015625 
z
" id="DejaVuSans-110"/>
      <path d="M 18.3125 70.21875 
L 18.3125 54.6875 
L 36.8125 54.6875 
L 36.8125 47.703125 
L 18.3125 47.703125 
L 18.3125 18.015625 
Q 18.3125 11.328125 20.140625 9.421875 
Q 21.96875 7.515625 27.59375 7.515625 
L 36.8125 7.515625 
L 36.8125 0 
L 27.59375 0 
Q 17.1875 0 13.234375 3.875 
Q 9.28125 7.765625 9.28125 18.015625 
L 9.28125 47.703125 
L 2.6875 47.703125 
L 2.6875 54.6875 
L 9.28125 54.6875 
L 9.28125 70.21875 
z
" id="DejaVuSans-116"/>
      <path d="M 41.109375 46.296875 
Q 39.59375 47.171875 37.8125 47.578125 
Q 36.03125 48 33.890625 48 
Q 26.265625 48 22.1875 43.046875 
Q 18.109375 38.09375 18.109375 28.8125 
L 18.109375 0 
L 9.078125 0 
L 9.078125 54.6875 
L 18.109375 54.6875 
L 18.109375 46.1875 
Q 20.953125 51.171875 25.484375 53.578125 
Q 30.03125 56 36.53125 56 
Q 37.453125 56 38.578125 55.875 
Q 39.703125 55.765625 41.0625 55.515625 
z
" id="DejaVuSans-114"/>
      <path d="M 48.78125 52.59375 
L 48.78125 44.1875 
Q 44.96875 46.296875 41.140625 47.34375 
Q 37.3125 48.390625 33.40625 48.390625 
Q 24.65625 48.390625 19.8125 42.84375 
Q 14.984375 37.3125 14.984375 27.296875 
Q 14.984375 17.28125 19.8125 11.734375 
Q 24.65625 6.203125 33.40625 6.203125 
Q 37.3125 6.203125 41.140625 7.25 
Q 44.96875 8.296875 48.78125 10.40625 
L 48.78125 2.09375 
Q 45.015625 0.34375 40.984375 -0.53125 
Q 36.96875 -1.421875 32.421875 -1.421875 
Q 20.0625 -1.421875 12.78125 6.34375 
Q 5.515625 14.109375 5.515625 27.296875 
Q 5.515625 40.671875 12.859375 48.328125 
Q 20.21875 56 33.015625 56 
Q 37.15625 56 41.109375 55.140625 
Q 45.0625 54.296875 48.78125 52.59375 
z
" id="DejaVuSans-99"/>
     </defs>
     <use xlink:href="#DejaVuSans-105"/>
     <use x="27.783203" xlink:href="#DejaVuSans-110"/>
     <use x="91.162109" xlink:href="#DejaVuSans-116"/>
     <use x="130.371094" xlink:href="#DejaVuSans-101"/>
     <use x="191.894531" xlink:href="#DejaVuSans-114"/>
     <use x="230.757812" xlink:href="#DejaVuSans-99"/>
     <use x="285.738281" xlink:href="#DejaVuSans-101"/>
     <use x="347.261719" xlink:href="#DejaVuSans-112"/>
     <use x="410.738281" xlink:href="#DejaVuSans-116"/>
    </g>
   </g>
   <g id="Line3DCollection_2">
    <path d="M 232.212301 48.875943 
L 229.085203 138.125111 
L 162.835446 203.502829 
" style="fill:none;stroke:#b0b0b0;stroke-width:0.8;"/>
    <path d="M 202.458818 41.334303 
L 200.618206 129.850879 
L 132.60815 193.630594 
" style="fill:none;stroke:#b0b0b0;stroke-width:0.8;"/>
    <path d="M 173.426818 33.975537 
L 172.812839 121.768957 
L 103.147009 184.008586 
" style="fill:none;stroke:#b0b0b0;stroke-width:0.8;"/>
    <path d="M 145.090371 26.793074 
L 145.6463 113.872716 
L 74.42326 174.627409 
" style="fill:none;stroke:#b0b0b0;stroke-width:0.8;"/>
   </g>
   <g id="xtick_5">
    <g id="line2d_7">
     <path d="M 163.414252 202.931643 
L 161.675251 204.647753 
" style="fill:none;stroke:#000000;stroke-linecap:square;stroke-width:0.8;"/>
    </g>
    <g id="text_7">
     <!-- 1 -->
     <g transform="translate(152.247128 227.610114)scale(0.1 -0.1)">
      <use xlink:href="#DejaVuSans-49"/>
     </g>
    </g>
   </g>
   <g id="xtick_6">
    <g id="line2d_8">
     <path d="M 133.201692 193.073972 
L 131.41845 194.746294 
" style="fill:none;stroke:#000000;stroke-linecap:square;stroke-width:0.8;"/>
    </g>
    <g id="text_8">
     <!-- 2 -->
     <g transform="translate(121.973948 217.478798)scale(0.1 -0.1)">
      <defs>
       <path d="M 19.1875 8.296875 
L 53.609375 8.296875 
L 53.609375 0 
L 7.328125 0 
L 7.328125 8.296875 
Q 12.9375 14.109375 22.625 23.890625 
Q 32.328125 33.6875 34.8125 36.53125 
Q 39.546875 41.84375 41.421875 45.53125 
Q 43.3125 49.21875 43.3125 52.78125 
Q 43.3125 58.59375 39.234375 62.25 
Q 35.15625 65.921875 28.609375 65.921875 
Q 23.96875 65.921875 18.8125 64.3125 
Q 13.671875 62.703125 7.8125 59.421875 
L 7.8125 69.390625 
Q 13.765625 71.78125 18.9375 73 
Q 24.125 74.21875 28.421875 74.21875 
Q 39.75 74.21875 46.484375 68.546875 
Q 53.21875 62.890625 53.21875 53.421875 
Q 53.21875 48.921875 51.53125 44.890625 
Q 49.859375 40.875 45.40625 35.40625 
Q 44.1875 33.984375 37.640625 27.21875 
Q 31.109375 20.453125 19.1875 8.296875 
z
" id="DejaVuSans-50"/>
      </defs>
      <use xlink:href="#DejaVuSans-50"/>
     </g>
    </g>
   </g>
   <g id="xtick_7">
    <g id="line2d_9">
     <path d="M 103.75436 183.465977 
L 101.929664 185.096165 
" style="fill:none;stroke:#000000;stroke-linecap:square;stroke-width:0.8;"/>
    </g>
    <g id="text_9">
     <!-- 3 -->
     <g transform="translate(92.471629 207.605462)scale(0.1 -0.1)">
      <defs>
       <path d="M 40.578125 39.3125 
Q 47.65625 37.796875 51.625 33 
Q 55.609375 28.21875 55.609375 21.1875 
Q 55.609375 10.40625 48.1875 4.484375 
Q 40.765625 -1.421875 27.09375 -1.421875 
Q 22.515625 -1.421875 17.65625 -0.515625 
Q 12.796875 0.390625 7.625 2.203125 
L 7.625 11.71875 
Q 11.71875 9.328125 16.59375 8.109375 
Q 21.484375 6.890625 26.8125 6.890625 
Q 36.078125 6.890625 40.9375 10.546875 
Q 45.796875 14.203125 45.796875 21.1875 
Q 45.796875 27.640625 41.28125 31.265625 
Q 36.765625 34.90625 28.71875 34.90625 
L 20.21875 34.90625 
L 20.21875 43.015625 
L 29.109375 43.015625 
Q 36.375 43.015625 40.234375 45.921875 
Q 44.09375 48.828125 44.09375 54.296875 
Q 44.09375 59.90625 40.109375 62.90625 
Q 36.140625 65.921875 28.71875 65.921875 
Q 24.65625 65.921875 20.015625 65.03125 
Q 15.375 64.15625 9.8125 62.3125 
L 9.8125 71.09375 
Q 15.4375 72.65625 20.34375 73.4375 
Q 25.25 74.21875 29.59375 74.21875 
Q 40.828125 74.21875 47.359375 69.109375 
Q 53.90625 64.015625 53.90625 55.328125 
Q 53.90625 49.265625 50.4375 45.09375 
Q 46.96875 40.921875 40.578125 39.3125 
z
" id="DejaVuSans-51"/>
      </defs>
      <use xlink:href="#DejaVuSans-51"/>
     </g>
    </g>
   </g>
   <g id="xtick_8">
    <g id="line2d_10">
     <path d="M 75.043547 174.098292 
L 73.18002 175.687918 
" style="fill:none;stroke:#000000;stroke-linecap:square;stroke-width:0.8;"/>
    </g>
    <g id="text_10">
     <!-- 4 -->
     <g transform="translate(63.7111 197.980375)scale(0.1 -0.1)">
      <use xlink:href="#DejaVuSans-52"/>
     </g>
    </g>
   </g>
  </g>
  <g id="axis3d_3">
   <g id="line2d_11">
    <path d="M 63.397096 171.026264 
L 58.96265 78.942111 
" style="fill:none;stroke:#000000;stroke-linecap:square;stroke-width:0.8;"/>
   </g>
   <g id="text_11">
    <!-- RSS -->
    <g transform="translate(7.2 134.713755)scale(0.1 -0.1)">
     <defs>
      <path d="M 44.390625 34.1875 
Q 47.5625 33.109375 50.5625 29.59375 
Q 53.5625 26.078125 56.59375 19.921875 
L 66.609375 0 
L 56 0 
L 46.6875 18.703125 
Q 43.0625 26.03125 39.671875 28.421875 
Q 36.28125 30.8125 30.421875 30.8125 
L 19.671875 30.8125 
L 19.671875 0 
L 9.8125 0 
L 9.8125 72.90625 
L 32.078125 72.90625 
Q 44.578125 72.90625 50.734375 67.671875 
Q 56.890625 62.453125 56.890625 51.90625 
Q 56.890625 45.015625 53.6875 40.46875 
Q 50.484375 35.9375 44.390625 34.1875 
z
M 19.671875 64.796875 
L 19.671875 38.921875 
L 32.078125 38.921875 
Q 39.203125 38.921875 42.84375 42.21875 
Q 46.484375 45.515625 46.484375 51.90625 
Q 46.484375 58.296875 42.84375 61.546875 
Q 39.203125 64.796875 32.078125 64.796875 
z
" id="DejaVuSans-82"/>
      <path d="M 53.515625 70.515625 
L 53.515625 60.890625 
Q 47.90625 63.578125 42.921875 64.890625 
Q 37.9375 66.21875 33.296875 66.21875 
Q 25.25 66.21875 20.875 63.09375 
Q 16.5 59.96875 16.5 54.203125 
Q 16.5 49.359375 19.40625 46.890625 
Q 22.3125 44.4375 30.421875 42.921875 
L 36.375 41.703125 
Q 47.40625 39.59375 52.65625 34.296875 
Q 57.90625 29 57.90625 20.125 
Q 57.90625 9.515625 50.796875 4.046875 
Q 43.703125 -1.421875 29.984375 -1.421875 
Q 24.8125 -1.421875 18.96875 -0.25 
Q 13.140625 0.921875 6.890625 3.21875 
L 6.890625 13.375 
Q 12.890625 10.015625 18.65625 8.296875 
Q 24.421875 6.59375 29.984375 6.59375 
Q 38.421875 6.59375 43.015625 9.90625 
Q 47.609375 13.234375 47.609375 19.390625 
Q 47.609375 24.75 44.3125 27.78125 
Q 41.015625 30.8125 33.5 32.328125 
L 27.484375 33.5 
Q 16.453125 35.6875 11.515625 40.375 
Q 6.59375 45.0625 6.59375 53.421875 
Q 6.59375 63.09375 13.40625 68.65625 
Q 20.21875 74.21875 32.171875 74.21875 
Q 37.3125 74.21875 42.625 73.28125 
Q 47.953125 72.359375 53.515625 70.515625 
z
" id="DejaVuSans-83"/>
     </defs>
     <use xlink:href="#DejaVuSans-82"/>
     <use x="69.482422" xlink:href="#DejaVuSans-83"/>
     <use x="132.958984" xlink:href="#DejaVuSans-83"/>
    </g>
   </g>
   <g id="Line3DCollection_3">
    <path d="M 63.293531 168.875673 
L 135.179487 108.802436 
L 250.521747 142.227367 
" style="fill:none;stroke:#b0b0b0;stroke-width:0.8;"/>
    <path d="M 62.556017 153.560717 
L 135.01298 94.322569 
L 251.206523 127.273606 
" style="fill:none;stroke:#b0b0b0;stroke-width:0.8;"/>
    <path d="M 61.807005 138.006983 
L 134.844093 79.635672 
L 251.901582 112.095284 
" style="fill:none;stroke:#b0b0b0;stroke-width:0.8;"/>
    <path d="M 61.046222 122.208841 
L 134.672773 64.737272 
L 252.607159 96.687304 
" style="fill:none;stroke:#b0b0b0;stroke-width:0.8;"/>
    <path d="M 60.27339 106.160485 
L 134.498968 49.622769 
L 253.323492 81.044413 
" style="fill:none;stroke:#b0b0b0;stroke-width:0.8;"/>
    <path d="M 59.48822 89.855923 
L 134.322624 34.287424 
L 254.05083 65.161198 
" style="fill:none;stroke:#b0b0b0;stroke-width:0.8;"/>
   </g>
   <g id="xtick_9">
    <g id="line2d_12">
     <path d="M 63.919399 168.352651 
L 62.039116 169.923955 
" style="fill:none;stroke:#000000;stroke-linecap:square;stroke-width:0.8;"/>
    </g>
    <g id="text_12">
     <!-- 0 -->
     <g transform="translate(40.308675 179.29277)scale(0.1 -0.1)">
      <use xlink:href="#DejaVuSans-48"/>
     </g>
    </g>
   </g>
   <g id="xtick_10">
    <g id="line2d_13">
     <path d="M 63.187252 153.044643 
L 61.290824 154.595093 
" style="fill:none;stroke:#000000;stroke-linecap:square;stroke-width:0.8;"/>
    </g>
    <g id="text_13">
     <!-- 500 -->
     <g transform="translate(33.052029 163.940473)scale(0.1 -0.1)">
      <defs>
       <path d="M 10.796875 72.90625 
L 49.515625 72.90625 
L 49.515625 64.59375 
L 19.828125 64.59375 
L 19.828125 46.734375 
Q 21.96875 47.46875 24.109375 47.828125 
Q 26.265625 48.1875 28.421875 48.1875 
Q 40.625 48.1875 47.75 41.5 
Q 54.890625 34.8125 54.890625 23.390625 
Q 54.890625 11.625 47.5625 5.09375 
Q 40.234375 -1.421875 26.90625 -1.421875 
Q 22.3125 -1.421875 17.546875 -0.640625 
Q 12.796875 0.140625 7.71875 1.703125 
L 7.71875 11.625 
Q 12.109375 9.234375 16.796875 8.0625 
Q 21.484375 6.890625 26.703125 6.890625 
Q 35.15625 6.890625 40.078125 11.328125 
Q 45.015625 15.765625 45.015625 23.390625 
Q 45.015625 31 40.078125 35.4375 
Q 35.15625 39.890625 26.703125 39.890625 
Q 22.75 39.890625 18.8125 39.015625 
Q 14.890625 38.140625 10.796875 36.28125 
z
" id="DejaVuSans-53"/>
      </defs>
      <use xlink:href="#DejaVuSans-53"/>
      <use x="63.623047" xlink:href="#DejaVuSans-48"/>
      <use x="127.246094" xlink:href="#DejaVuSans-48"/>
     </g>
    </g>
   </g>
   <g id="xtick_11">
    <g id="line2d_14">
     <path d="M 62.443698 137.498136 
L 60.530849 139.026888 
" style="fill:none;stroke:#000000;stroke-linecap:square;stroke-width:0.8;"/>
    </g>
    <g id="text_14">
     <!-- 1000 -->
     <g transform="translate(28.962638 148.347881)scale(0.1 -0.1)">
      <use xlink:href="#DejaVuSans-49"/>
      <use x="63.623047" xlink:href="#DejaVuSans-48"/>
      <use x="127.246094" xlink:href="#DejaVuSans-48"/>
      <use x="190.869141" xlink:href="#DejaVuSans-48"/>
     </g>
    </g>
   </g>
   <g id="xtick_12">
    <g id="line2d_15">
     <path d="M 61.688469 121.707514 
L 59.758913 123.213691 
" style="fill:none;stroke:#000000;stroke-linecap:square;stroke-width:0.8;"/>
    </g>
    <g id="text_15">
     <!-- 1500 -->
     <g transform="translate(28.040171 132.509309)scale(0.1 -0.1)">
      <use xlink:href="#DejaVuSans-49"/>
      <use x="63.623047" xlink:href="#DejaVuSans-53"/>
      <use x="127.246094" xlink:href="#DejaVuSans-48"/>
      <use x="190.869141" xlink:href="#DejaVuSans-48"/>
     </g>
    </g>
   </g>
   <g id="xtick_13">
    <g id="line2d_16">
     <path d="M 60.921287 105.666981 
L 58.974734 107.149673 
" style="fill:none;stroke:#000000;stroke-linecap:square;stroke-width:0.8;"/>
    </g>
    <g id="text_16">
     <!-- 2000 -->
     <g transform="translate(27.103035 116.41889)scale(0.1 -0.1)">
      <use xlink:href="#DejaVuSans-50"/>
      <use x="63.623047" xlink:href="#DejaVuSans-48"/>
      <use x="127.246094" xlink:href="#DejaVuSans-48"/>
      <use x="190.869141" xlink:href="#DejaVuSans-48"/>
     </g>
    </g>
   </g>
   <g id="xtick_14">
    <g id="line2d_17">
     <path d="M 60.141867 89.370556 
L 58.178017 90.828819 
" style="fill:none;stroke:#000000;stroke-linecap:square;stroke-width:0.8;"/>
    </g>
    <g id="text_17">
     <!-- 2500 -->
     <g transform="translate(26.150879 100.070568)scale(0.1 -0.1)">
      <use xlink:href="#DejaVuSans-50"/>
      <use x="63.623047" xlink:href="#DejaVuSans-53"/>
      <use x="127.246094" xlink:href="#DejaVuSans-48"/>
      <use x="190.869141" xlink:href="#DejaVuSans-48"/>
     </g>
    </g>
   </g>
  </g>
  <g id="axes_1">
   <g id="line2d_18">
    <path clip-path="url(#pb06e9f4cf7)" d="M 227.884726 61.220945 
L 186.908964 167.994125 
L 179.552847 172.578893 
L 181.500744 170.066274 
L 136.611064 161.145242 
L 145.385791 164.015623 
L 145.385829 164.015588 
" style="fill:none;stroke:#ff7f0e;stroke-linecap:square;stroke-width:1.5;"/>
   </g>
   <g id="Path3DCollection_1">
    <defs>
     <path d="M 0 2.236068 
C 0.593012 2.236068 1.161816 2.000462 1.581139 1.581139 
C 2.000462 1.161816 2.236068 0.593012 2.236068 -0 
C 2.236068 -0.593012 2.000462 -1.161816 1.581139 -1.581139 
C 1.161816 -2.000462 0.593012 -2.236068 0 -2.236068 
C -0.593012 -2.236068 -1.161816 -2.000462 -1.581139 -1.581139 
C -2.000462 -1.161816 -2.236068 -0.593012 -2.236068 0 
C -2.236068 0.593012 -2.000462 1.161816 -1.581139 1.581139 
C -1.161816 2.000462 -0.593012 2.236068 0 2.236068 
z
" id="C0_0_eeb8c68027"/>
    </defs>
    <g clip-path="url(#pb06e9f4cf7)">
     <use style="fill:#ff0000;fill-opacity:0.3;stroke:#ff0000;stroke-opacity:0.3;" x="136.611064" xlink:href="#C0_0_eeb8c68027" y="161.145242"/>
    </g>
    <g clip-path="url(#pb06e9f4cf7)">
     <use style="fill:#ff0000;fill-opacity:0.348782;stroke:#ff0000;stroke-opacity:0.348782;" x="227.884726" xlink:href="#C0_0_eeb8c68027" y="61.220945"/>
    </g>
    <g clip-path="url(#pb06e9f4cf7)">
     <use style="fill:#ff0000;fill-opacity:0.39973;stroke:#ff0000;stroke-opacity:0.39973;" x="145.385829" xlink:href="#C0_0_eeb8c68027" y="164.015588"/>
    </g>
    <g clip-path="url(#pb06e9f4cf7)">
     <use style="fill:#ff0000;fill-opacity:0.399731;stroke:#ff0000;stroke-opacity:0.399731;" x="145.385791" xlink:href="#C0_0_eeb8c68027" y="164.015623"/>
    </g>
    <g clip-path="url(#pb06e9f4cf7)">
     <use style="fill:#ff0000;fill-opacity:0.867139;stroke:#ff0000;stroke-opacity:0.867139;" x="186.908964" xlink:href="#C0_0_eeb8c68027" y="167.994125"/>
    </g>
    <g clip-path="url(#pb06e9f4cf7)">
     <use style="fill:#ff0000;fill-opacity:0.88595;stroke:#ff0000;stroke-opacity:0.88595;" x="181.500744" xlink:href="#C0_0_eeb8c68027" y="170.066274"/>
    </g>
    <g clip-path="url(#pb06e9f4cf7)">
     <use style="fill:#ff0000;stroke:#ff0000;" x="179.552847" xlink:href="#C0_0_eeb8c68027" y="172.578893"/>
    </g>
   </g>
   <g id="Poly3DCollection_1">
    <path clip-path="url(#pb06e9f4cf7)" d="M 132.711177 75.22894 
L 135.762393 64.934436 
L 130.460903 61.675549 
L 127.413056 71.941772 
z
" style="fill:#1c6aa1;fill-opacity:0.3;"/>
    <path clip-path="url(#pb06e9f4cf7)" d="M 135.762393 64.934436 
L 138.805995 53.920225 
L 133.499281 50.689639 
L 130.460903 61.675549 
z
" style="fill:#1c6aa1;fill-opacity:0.3;"/>
    <path clip-path="url(#pb06e9f4cf7)" d="M 129.649184 84.814119 
L 132.711177 75.22894 
L 127.413056 71.941772 
L 124.352584 81.498632 
z
" style="fill:#1c6aa1;fill-opacity:0.3;"/>
    <path clip-path="url(#pb06e9f4cf7)" d="M 138.805995 53.920225 
L 141.84513 42.174433 
L 136.531324 38.972228 
L 133.499281 50.689639 
z
" style="fill:#1c6aa1;fill-opacity:0.3;"/>
    <path clip-path="url(#pb06e9f4cf7)" d="M 126.573228 93.698898 
L 129.649184 84.814119 
L 124.352584 81.498632 
L 121.276303 90.354999 
z
" style="fill:#1c6ba1;fill-opacity:0.3;"/>
    <path clip-path="url(#pb06e9f4cf7)" d="M 138.021827 78.305407 
L 141.076814 67.981515 
L 135.762393 64.934436 
L 132.711177 75.22894 
z
" style="fill:#1c6aa1;fill-opacity:0.3;"/>
    <path clip-path="url(#pb06e9f4cf7)" d="M 141.076814 67.981515 
L 144.126051 56.937745 
L 138.805995 53.920225 
L 135.762393 64.934436 
z
" style="fill:#1c6aa0;fill-opacity:0.3;"/>
    <path clip-path="url(#pb06e9f4cf7)" d="M 134.957921 87.919862 
L 138.021827 78.305407 
L 132.711177 75.22894 
L 129.649184 84.814119 
z
" style="fill:#1c6aa1;fill-opacity:0.3;"/>
    <path clip-path="url(#pb06e9f4cf7)" d="M 144.126051 56.937745 
L 147.172697 45.162161 
L 141.84513 42.174433 
L 138.805995 53.920225 
z
" style="fill:#1c6aa0;fill-opacity:0.3;"/>
    <path clip-path="url(#pb06e9f4cf7)" d="M 123.480084 101.89077 
L 126.573228 93.698898 
L 121.276303 90.354999 
L 118.180987 98.518313 
z
" style="fill:#1c6ba2;fill-opacity:0.3;"/>
    <path clip-path="url(#pb06e9f4cf7)" d="M 131.881904 96.833864 
L 134.957921 87.919862 
L 129.649184 84.814119 
L 126.573228 93.698898 
z
" style="fill:#1c6aa1;fill-opacity:0.3;"/>
    <path clip-path="url(#pb06e9f4cf7)" d="M 143.346756 81.171206 
L 146.405918 70.816801 
L 141.076814 67.981515 
L 138.021827 78.305407 
z
" style="fill:#1c6aa0;fill-opacity:0.3;"/>
    <path clip-path="url(#pb06e9f4cf7)" d="M 146.405918 70.816801 
L 149.461205 59.742197 
L 144.126051 56.937745 
L 141.076814 67.981515 
z
" style="fill:#1c6aa0;fill-opacity:0.3;"/>
    <path clip-path="url(#pb06e9f4cf7)" d="M 120.366478 109.395821 
L 123.480084 101.89077 
L 118.180987 98.518313 
L 115.063359 105.994608 
z
" style="fill:#1c6ba2;fill-opacity:0.3;"/>
    <path clip-path="url(#pb06e9f4cf7)" d="M 140.280542 90.815914 
L 143.346756 81.171206 
L 138.021827 78.305407 
L 134.957921 87.919862 
z
" style="fill:#1c6aa1;fill-opacity:0.3;"/>
    <path clip-path="url(#pb06e9f4cf7)" d="M 128.790553 105.054962 
L 131.881904 96.833864 
L 126.573228 93.698898 
L 123.480084 101.89077 
z
" style="fill:#1c6ba1;fill-opacity:0.3;"/>
    <path clip-path="url(#pb06e9f4cf7)" d="M 149.461205 59.742197 
L 152.515789 47.93539 
L 147.172697 45.162161 
L 144.126051 56.937745 
z
" style="fill:#1c6aa0;fill-opacity:0.3;"/>
    <path clip-path="url(#pb06e9f4cf7)" d="M 137.204079 99.759969 
L 140.280542 90.815914 
L 134.957921 87.919862 
L 131.881904 96.833864 
z
" style="fill:#1c6aa1;fill-opacity:0.3;"/>
    <path clip-path="url(#pb06e9f4cf7)" d="M 148.687736 83.826238 
L 151.751481 73.440176 
L 146.405918 70.816801 
L 143.346756 81.171206 
z
" style="fill:#1c6aa0;fill-opacity:0.3;"/>
    <path clip-path="url(#pb06e9f4cf7)" d="M 125.680596 112.589293 
L 128.790553 105.054962 
L 123.480084 101.89077 
L 120.366478 109.395821 
z
" style="fill:#1c6ba2;fill-opacity:0.3;"/>
    <path clip-path="url(#pb06e9f4cf7)" d="M 151.751481 73.440176 
L 154.813238 62.333441 
L 149.461205 59.742197 
L 146.405918 70.816801 
z
" style="fill:#1c6aa0;fill-opacity:0.3;"/>
    <path clip-path="url(#pb06e9f4cf7)" d="M 134.114141 108.010975 
L 137.204079 99.759969 
L 131.881904 96.833864 
L 128.790553 105.054962 
z
" style="fill:#1c6aa1;fill-opacity:0.3;"/>
    <path clip-path="url(#pb06e9f4cf7)" d="M 145.618816 93.502194 
L 148.687736 83.826238 
L 143.346756 81.171206 
L 140.280542 90.815914 
z
" style="fill:#1c6aa0;fill-opacity:0.3;"/>
    <path clip-path="url(#pb06e9f4cf7)" d="M 117.229077 116.21874 
L 120.366478 109.395821 
L 115.063359 105.994608 
L 111.920076 112.788521 
z
" style="fill:#1c6ba2;fill-opacity:0.3;"/>
    <path clip-path="url(#pb06e9f4cf7)" d="M 154.813238 62.333441 
L 157.876191 50.493959 
L 152.515789 47.93539 
L 149.461205 59.742197 
z
" style="fill:#1c6aa0;fill-opacity:0.3;"/>
    <path clip-path="url(#pb06e9f4cf7)" d="M 142.541519 102.477148 
L 145.618816 93.502194 
L 140.280542 90.815914 
L 137.204079 99.759969 
z
" style="fill:#1c6aa0;fill-opacity:0.3;"/>
    <path clip-path="url(#pb06e9f4cf7)" d="M 131.007463 115.575126 
L 134.114141 108.010975 
L 128.790553 105.054962 
L 125.680596 112.589293 
z
" style="fill:#1c6ba1;fill-opacity:0.3;"/>
    <path clip-path="url(#pb06e9f4cf7)" d="M 122.548709 119.441598 
L 125.680596 112.589293 
L 120.366478 109.395821 
L 117.229077 116.21874 
z
" style="fill:#1c6ba2;fill-opacity:0.3;"/>
    <path clip-path="url(#pb06e9f4cf7)" d="M 154.046559 86.270268 
L 157.115298 75.851385 
L 151.751481 73.440176 
L 148.687736 83.826238 
z
" style="fill:#1c6aa0;fill-opacity:0.3;"/>
    <path clip-path="url(#pb06e9f4cf7)" d="M 157.115298 75.851385 
L 160.18395 64.7112 
L 154.813238 62.333441 
L 151.751481 73.440176 
z
" style="fill:#1c6aa0;fill-opacity:0.3;"/>
    <path clip-path="url(#pb06e9f4cf7)" d="M 139.452618 110.758764 
L 142.541519 102.477148 
L 137.204079 99.759969 
L 134.114141 108.010975 
z
" style="fill:#1c6aa1;fill-opacity:0.3;"/>
    <path clip-path="url(#pb06e9f4cf7)" d="M 150.974534 95.978485 
L 154.046559 86.270268 
L 148.687736 83.826238 
L 145.618816 93.502194 
z
" style="fill:#1c6aa0;fill-opacity:0.3;"/>
    <path clip-path="url(#pb06e9f4cf7)" d="M 160.18395 64.7112 
L 163.255712 52.83757 
L 157.876191 50.493959 
L 154.813238 62.333441 
z
" style="fill:#1c6aa0;fill-opacity:0.3;"/>
    <path clip-path="url(#pb06e9f4cf7)" d="M 114.064475 122.362822 
L 117.229077 116.21874 
L 111.920076 112.788521 
L 108.747721 118.903298 
z
" style="fill:#1c6ca3;fill-opacity:0.3;"/>
    <path clip-path="url(#pb06e9f4cf7)" d="M 147.896015 104.985204 
L 150.974534 95.978485 
L 145.618816 93.502194 
L 142.541519 102.477148 
z
" style="fill:#1c6aa0;fill-opacity:0.3;"/>
    <path clip-path="url(#pb06e9f4cf7)" d="M 136.348849 118.35329 
L 139.452618 110.758764 
L 134.114141 108.010975 
L 131.007463 115.575126 
z
" style="fill:#1c6aa1;fill-opacity:0.3;"/>
    <path clip-path="url(#pb06e9f4cf7)" d="M 127.880725 122.457212 
L 131.007463 115.575126 
L 125.680596 112.589293 
L 122.548709 119.441598 
z
" style="fill:#1c6ba2;fill-opacity:0.3;"/>
    <path clip-path="url(#pb06e9f4cf7)" d="M 144.807773 113.298148 
L 147.896015 104.985204 
L 142.541519 102.477148 
L 139.452618 110.758764 
z
" style="fill:#1c6aa0;fill-opacity:0.3;"/>
    <path clip-path="url(#pb06e9f4cf7)" d="M 159.425042 88.502923 
L 162.499192 78.050033 
L 157.115298 75.851385 
L 154.046559 86.270268 
z
" style="fill:#1c6aa0;fill-opacity:0.3;"/>
    <path clip-path="url(#pb06e9f4cf7)" d="M 162.499192 78.050033 
L 165.575168 66.875059 
L 160.18395 64.7112 
L 157.115298 75.851385 
z
" style="fill:#1b6aa0;fill-opacity:0.3;"/>
    <path clip-path="url(#pb06e9f4cf7)" d="M 119.391497 125.615221 
L 122.548709 119.441598 
L 117.229077 116.21874 
L 114.064475 122.362822 
z
" style="fill:#1c6ca3;fill-opacity:0.3;"/>
    <path clip-path="url(#pb06e9f4cf7)" d="M 156.34951 98.244436 
L 159.425042 88.502923 
L 154.046559 86.270268 
L 150.974534 95.978485 
z
" style="fill:#1c6aa0;fill-opacity:0.3;"/>
    <path clip-path="url(#pb06e9f4cf7)" d="M 165.575168 66.875059 
L 168.656184 54.965783 
L 163.255712 52.83757 
L 160.18395 64.7112 
z
" style="fill:#1b6aa0;fill-opacity:0.3;"/>
    <path clip-path="url(#pb06e9f4cf7)" d="M 153.26938 107.283803 
L 156.34951 98.244436 
L 150.974534 95.978485 
L 147.896015 104.985204 
z
" style="fill:#1c6aa0;fill-opacity:0.3;"/>
    <path clip-path="url(#pb06e9f4cf7)" d="M 110.869182 127.829972 
L 114.064475 122.362822 
L 108.747721 118.903298 
L 105.542786 124.340796 
z
" style="fill:#1c6da4;fill-opacity:0.3;"/>
    <path clip-path="url(#pb06e9f4cf7)" d="M 133.226898 125.265568 
L 136.348849 118.35329 
L 131.007463 115.575126 
L 127.880725 122.457212 
z
" style="fill:#1c6ba1;fill-opacity:0.3;"/>
    <path clip-path="url(#pb06e9f4cf7)" d="M 141.706545 120.92362 
L 144.807773 113.298148 
L 139.452618 110.758764 
L 136.348849 118.35329 
z
" style="fill:#1c6aa1;fill-opacity:0.3;"/>
    <path clip-path="url(#pb06e9f4cf7)" d="M 124.730544 128.660629 
L 127.880725 122.457212 
L 122.548709 119.441598 
L 119.391497 125.615221 
z
" style="fill:#1c6ba2;fill-opacity:0.3;"/>
    <path clip-path="url(#pb06e9f4cf7)" d="M 150.181419 115.62881 
L 153.26938 107.283803 
L 147.896015 104.985204 
L 144.807773 113.298148 
z
" style="fill:#1c6aa0;fill-opacity:0.3;"/>
    <path clip-path="url(#pb06e9f4cf7)" d="M 164.825029 90.523693 
L 167.905009 80.035589 
L 162.499192 78.050033 
L 159.425042 88.502923 
z
" style="fill:#1b69a0;fill-opacity:0.3;"/>
    <path clip-path="url(#pb06e9f4cf7)" d="M 167.905009 80.035589 
L 170.988745 68.824462 
L 165.575168 66.875059 
L 162.499192 78.050033 
z
" style="fill:#1b699f;fill-opacity:0.3;"/>
    <path clip-path="url(#pb06e9f4cf7)" d="M 161.745584 100.299555 
L 164.825029 90.523693 
L 159.425042 88.502923 
L 156.34951 98.244436 
z
" style="fill:#1b6aa0;fill-opacity:0.3;"/>
    <path clip-path="url(#pb06e9f4cf7)" d="M 170.988745 68.824462 
L 174.079469 56.878017 
L 168.656184 54.965783 
L 165.575168 66.875059 
z
" style="fill:#1b699f;fill-opacity:0.3;"/>
    <path clip-path="url(#pb06e9f4cf7)" d="M 116.205485 131.112116 
L 119.391497 125.615221 
L 114.064475 122.362822 
L 110.869182 127.829972 
z
" style="fill:#1c6ca4;fill-opacity:0.3;"/>
    <path clip-path="url(#pb06e9f4cf7)" d="M 158.663452 109.372474 
L 161.745584 100.299555 
L 156.34951 98.244436 
L 153.26938 107.283803 
z
" style="fill:#1b6aa0;fill-opacity:0.3;"/>
    <path clip-path="url(#pb06e9f4cf7)" d="M 138.589023 127.866517 
L 141.706545 120.92362 
L 136.348849 118.35329 
L 133.226898 125.265568 
z
" style="fill:#1c6aa1;fill-opacity:0.3;"/>
    <path clip-path="url(#pb06e9f4cf7)" d="M 147.082365 123.285818 
L 150.181419 115.62881 
L 144.807773 113.298148 
L 141.706545 120.92362 
z
" style="fill:#1c6aa0;fill-opacity:0.3;"/>
    <path clip-path="url(#pb06e9f4cf7)" d="M 130.083394 131.499045 
L 133.226898 125.265568 
L 127.880725 122.457212 
L 124.730544 128.660629 
z
" style="fill:#1c6ba2;fill-opacity:0.3;"/>
    <path clip-path="url(#pb06e9f4cf7)" d="M 155.575393 117.750299 
L 158.663452 109.372474 
L 153.26938 107.283803 
L 150.181419 115.62881 
z
" style="fill:#1c6aa0;fill-opacity:0.3;"/>
    <path clip-path="url(#pb06e9f4cf7)" d="M 107.639608 132.620691 
L 110.869182 127.829972 
L 105.542786 124.340796 
L 102.301663 129.101468 
z
" style="fill:#1d6ea6;fill-opacity:0.3;"/>
    <path clip-path="url(#pb06e9f4cf7)" d="M 121.55346 134.187377 
L 124.730544 128.660629 
L 119.391497 125.615221 
L 116.205485 131.112116 
z
" style="fill:#1c6ca3;fill-opacity:0.3;"/>
    <path clip-path="url(#pb06e9f4cf7)" d="M 170.248391 92.331927 
L 173.334626 81.807377 
L 167.905009 80.035589 
L 164.825029 90.523693 
z
" style="fill:#1b699f;fill-opacity:0.3;"/>
    <path clip-path="url(#pb06e9f4cf7)" d="M 173.334626 81.807377 
L 176.426565 70.55871 
L 170.988745 68.824462 
L 167.905009 80.035589 
z
" style="fill:#1b699f;fill-opacity:0.3;"/>
    <path clip-path="url(#pb06e9f4cf7)" d="M 167.164626 102.143214 
L 170.248391 92.331927 
L 164.825029 90.523693 
L 161.745584 100.299555 
z
" style="fill:#1b699f;fill-opacity:0.3;"/>
    <path clip-path="url(#pb06e9f4cf7)" d="M 176.426565 70.55871 
L 179.527455 58.573547 
L 174.079469 56.878017 
L 170.988745 68.824462 
z
" style="fill:#1b699f;fill-opacity:0.3;"/>
    <path clip-path="url(#pb06e9f4cf7)" d="M 143.968915 130.259777 
L 147.082365 123.285818 
L 141.706545 120.92362 
L 138.589023 127.866517 
z
" style="fill:#1c6aa0;fill-opacity:0.3;"/>
    <path clip-path="url(#pb06e9f4cf7)" d="M 164.080097 111.250608 
L 167.164626 102.143214 
L 161.745584 100.299555 
L 158.663452 109.372474 
z
" style="fill:#1b699f;fill-opacity:0.3;"/>
    <path clip-path="url(#pb06e9f4cf7)" d="M 135.451844 134.130335 
L 138.589023 127.866517 
L 133.226898 125.265568 
L 130.083394 131.499045 
z
" style="fill:#1c6ba1;fill-opacity:0.3;"/>
    <path clip-path="url(#pb06e9f4cf7)" d="M 152.478148 125.439448 
L 155.575393 117.750299 
L 150.181419 115.62881 
L 147.082365 123.285818 
z
" style="fill:#1c6aa0;fill-opacity:0.3;"/>
    <path clip-path="url(#pb06e9f4cf7)" d="M 112.987105 135.932832 
L 116.205485 131.112116 
L 110.869182 127.829972 
L 107.639608 132.620691 
z
" style="fill:#1c6da5;fill-opacity:0.3;"/>
    <path clip-path="url(#pb06e9f4cf7)" d="M 126.914889 137.055768 
L 130.083394 131.499045 
L 124.730544 128.660629 
L 121.55346 134.187377 
z
" style="fill:#1c6ba2;fill-opacity:0.3;"/>
    <path clip-path="url(#pb06e9f4cf7)" d="M 160.991563 119.662022 
L 164.080097 111.250608 
L 158.663452 109.372474 
L 155.575393 117.750299 
z
" style="fill:#1b699f;fill-opacity:0.3;"/>
    <path clip-path="url(#pb06e9f4cf7)" d="M 175.697032 93.926829 
L 178.789952 83.36458 
L 173.334626 81.807377 
L 170.248391 92.331927 
z
" style="fill:#1b699f;fill-opacity:0.3;"/>
    <path clip-path="url(#pb06e9f4cf7)" d="M 178.789952 83.36458 
L 181.890542 72.076958 
L 176.426565 70.55871 
L 173.334626 81.807377 
z
" style="fill:#1b699f;fill-opacity:0.3;"/>
    <path clip-path="url(#pb06e9f4cf7)" d="M 172.608533 103.77464 
L 175.697032 93.926829 
L 170.248391 92.331927 
L 167.164626 102.143214 
z
" style="fill:#1b699f;fill-opacity:0.3;"/>
    <path clip-path="url(#pb06e9f4cf7)" d="M 118.345923 139.038051 
L 121.55346 134.187377 
L 116.205485 131.112116 
L 112.987105 135.932832 
z
" style="fill:#1c6da4;fill-opacity:0.3;"/>
    <path clip-path="url(#pb06e9f4cf7)" d="M 149.368417 132.444926 
L 152.478148 125.439448 
L 147.082365 123.285818 
L 143.968915 130.259777 
z
" style="fill:#1c6aa0;fill-opacity:0.3;"/>
    <path clip-path="url(#pb06e9f4cf7)" d="M 181.890542 72.076958 
L 185.002066 60.051501 
L 179.527455 58.573547 
L 176.426565 70.55871 
z
" style="fill:#1b699f;fill-opacity:0.3;"/>
    <path clip-path="url(#pb06e9f4cf7)" d="M 140.837716 136.554232 
L 143.968915 130.259777 
L 138.589023 127.866517 
L 135.451844 134.130335 
z
" style="fill:#1c6aa1;fill-opacity:0.3;"/>
    <path clip-path="url(#pb06e9f4cf7)" d="M 104.372055 136.734065 
L 107.639608 132.620691 
L 102.301663 129.101468 
L 99.020626 133.184352 
z
" style="fill:#1d70a9;fill-opacity:0.3;"/>
    <path clip-path="url(#pb06e9f4cf7)" d="M 169.521213 112.917453 
L 172.608533 103.77464 
L 167.164626 102.143214 
L 164.080097 111.250608 
z
" style="fill:#1b699f;fill-opacity:0.3;"/>
    <path clip-path="url(#pb06e9f4cf7)" d="M 157.895761 127.383936 
L 160.991563 119.662022 
L 155.575393 117.750299 
L 152.478148 125.439448 
z
" style="fill:#1b69a0;fill-opacity:0.3;"/>
    <path clip-path="url(#pb06e9f4cf7)" d="M 132.291576 139.717169 
L 135.451844 134.130335 
L 130.083394 131.499045 
L 126.914889 137.055768 
z
" style="fill:#1c6ba2;fill-opacity:0.3;"/>
    <path clip-path="url(#pb06e9f4cf7)" d="M 166.431824 121.363248 
L 169.521213 112.917453 
L 164.080097 111.250608 
L 160.991563 119.662022 
z
" style="fill:#1b699f;fill-opacity:0.3;"/>
    <path clip-path="url(#pb06e9f4cf7)" d="M 109.73268 140.076498 
L 112.987105 135.932832 
L 107.639608 132.620691 
L 104.372055 136.734065 
z
" style="fill:#1d6fa8;fill-opacity:0.3;"/>
    <path clip-path="url(#pb06e9f4cf7)" d="M 123.717853 141.936378 
L 126.914889 137.055768 
L 121.55346 134.187377 
L 118.345923 139.038051 
z
" style="fill:#1c6ca4;fill-opacity:0.3;"/>
    <path clip-path="url(#pb06e9f4cf7)" d="M 181.172887 95.307461 
L 184.272928 84.706232 
L 178.789952 83.36458 
L 175.697032 93.926829 
z
" style="fill:#1b699f;fill-opacity:0.3;"/>
    <path clip-path="url(#pb06e9f4cf7)" d="M 184.272928 84.706232 
L 187.382623 73.378216 
L 181.890542 72.076958 
L 178.789952 83.36458 
z
" style="fill:#1b699f;fill-opacity:0.3;"/>
    <path clip-path="url(#pb06e9f4cf7)" d="M 146.242853 138.770331 
L 149.368417 132.444926 
L 143.968915 130.259777 
L 140.837716 136.554232 
z
" style="fill:#1c6aa0;fill-opacity:0.3;"/>
    <path clip-path="url(#pb06e9f4cf7)" d="M 178.079239 105.192916 
L 181.172887 95.307461 
L 175.697032 93.926829 
L 172.608533 103.77464 
z
" style="fill:#1b699f;fill-opacity:0.3;"/>
    <path clip-path="url(#pb06e9f4cf7)" d="M 154.789397 134.421408 
L 157.895761 127.383936 
L 152.478148 125.439448 
L 149.368417 132.444926 
z
" style="fill:#1b6aa0;fill-opacity:0.3;"/>
    <path clip-path="url(#pb06e9f4cf7)" d="M 187.382623 73.378216 
L 190.505259 61.31086 
L 185.002066 60.051501 
L 181.890542 72.076958 
z
" style="fill:#1b699f;fill-opacity:0.3;"/>
    <path clip-path="url(#pb06e9f4cf7)" d="M 137.685346 142.171327 
L 140.837716 136.554232 
L 135.451844 134.130335 
L 132.291576 139.717169 
z
" style="fill:#1c6ba1;fill-opacity:0.3;"/>
    <path clip-path="url(#pb06e9f4cf7)" d="M 163.337101 129.118567 
L 166.431824 121.363248 
L 160.991563 119.662022 
L 157.895761 127.383936 
z
" style="fill:#1b699f;fill-opacity:0.3;"/>
    <path clip-path="url(#pb06e9f4cf7)" d="M 174.988729 114.372114 
L 178.079239 105.192916 
L 172.608533 103.77464 
L 169.521213 112.917453 
z
" style="fill:#1b699f;fill-opacity:0.3;"/>
    <path clip-path="url(#pb06e9f4cf7)" d="M 115.104281 143.211827 
L 118.345923 139.038051 
L 112.987105 135.932832 
L 109.73268 140.076498 
z
" style="fill:#1d6ea7;fill-opacity:0.3;"/>
    <path clip-path="url(#pb06e9f4cf7)" d="M 129.104705 144.627705 
L 132.291576 139.717169 
L 126.914889 137.055768 
L 123.717853 141.936378 
z
" style="fill:#1c6ca3;fill-opacity:0.3;"/>
    <path clip-path="url(#pb06e9f4cf7)" d="M 101.062695 140.167735 
L 104.372055 136.734065 
L 99.020626 133.184352 
L 95.695821 136.587043 
z
" style="fill:#1e73ae;fill-opacity:0.3;"/>
    <path clip-path="url(#pb06e9f4cf7)" d="M 171.898103 122.853102 
L 174.988729 114.372114 
L 169.521213 112.917453 
L 166.431824 121.363248 
z
" style="fill:#1b699f;fill-opacity:0.3;"/>
    <path clip-path="url(#pb06e9f4cf7)" d="M 151.669129 140.778088 
L 154.789397 134.421408 
L 149.368417 132.444926 
L 146.242853 138.770331 
z
" style="fill:#1c6aa0;fill-opacity:0.3;"/>
    <path clip-path="url(#pb06e9f4cf7)" d="M 186.677929 96.472735 
L 189.785531 85.831222 
L 184.272928 84.706232 
L 181.172887 95.307461 
z
" style="fill:#1b699f;fill-opacity:0.3;"/>
    <path clip-path="url(#pb06e9f4cf7)" d="M 160.233752 136.188525 
L 163.337101 129.118567 
L 157.895761 127.383936 
L 154.789397 134.421408 
z
" style="fill:#1b699f;fill-opacity:0.3;"/>
    <path clip-path="url(#pb06e9f4cf7)" d="M 189.785531 85.831222 
L 192.904795 74.461342 
L 187.382623 73.378216 
L 184.272928 84.706232 
z
" style="fill:#1b699f;fill-opacity:0.3;"/>
    <path clip-path="url(#pb06e9f4cf7)" d="M 143.098049 144.417851 
L 146.242853 138.770331 
L 140.837716 136.554232 
L 137.685346 142.171327 
z
" style="fill:#1c6aa1;fill-opacity:0.3;"/>
    <path clip-path="url(#pb06e9f4cf7)" d="M 183.57871 106.39698 
L 186.677929 96.472735 
L 181.172887 95.307461 
L 178.079239 105.192916 
z
" style="fill:#1b699f;fill-opacity:0.3;"/>
    <path clip-path="url(#pb06e9f4cf7)" d="M 120.488656 146.140093 
L 123.717853 141.936378 
L 118.345923 139.038051 
L 115.104281 143.211827 
z
" style="fill:#1d6ea6;fill-opacity:0.3;"/>
    <path clip-path="url(#pb06e9f4cf7)" d="M 192.904795 74.461342 
L 196.039027 62.350452 
L 190.505259 61.31086 
L 187.382623 73.378216 
z
" style="fill:#1b699f;fill-opacity:0.3;"/>
    <path clip-path="url(#pb06e9f4cf7)" d="M 168.804095 130.642485 
L 171.898103 122.853102 
L 166.431824 121.363248 
L 163.337101 129.118567 
z
" style="fill:#1b699f;fill-opacity:0.3;"/>
    <path clip-path="url(#pb06e9f4cf7)" d="M 106.438412 143.540803 
L 109.73268 140.076498 
L 104.372055 136.734065 
L 101.062695 140.167735 
z
" style="fill:#1e73ae;fill-opacity:0.3;"/>
    <path clip-path="url(#pb06e9f4cf7)" d="M 180.484609 115.61355 
L 183.57871 106.39698 
L 178.079239 105.192916 
L 174.988729 114.372114 
z
" style="fill:#1b699f;fill-opacity:0.3;"/>
    <path clip-path="url(#pb06e9f4cf7)" d="M 134.50831 147.111791 
L 137.685346 142.171327 
L 132.291576 139.717169 
L 129.104705 144.627705 
z
" style="fill:#1c6ba2;fill-opacity:0.3;"/>
    <path clip-path="url(#pb06e9f4cf7)" d="M 177.392365 124.130563 
L 180.484609 115.61355 
L 174.988729 114.372114 
L 171.898103 122.853102 
z
" style="fill:#1b699f;fill-opacity:0.3;"/>
    <path clip-path="url(#pb06e9f4cf7)" d="M 157.118445 142.576821 
L 160.233752 136.188525 
L 154.789397 134.421408 
L 151.669129 140.778088 
z
" style="fill:#1b699f;fill-opacity:0.3;"/>
    <path clip-path="url(#pb06e9f4cf7)" d="M 125.887622 148.861202 
L 129.104705 144.627705 
L 123.717853 141.936378 
L 120.488656 146.140093 
z
" style="fill:#1c6da5;fill-opacity:0.3;"/>
    <path clip-path="url(#pb06e9f4cf7)" d="M 148.531563 146.45621 
L 151.669129 140.778088 
L 146.242853 138.770331 
L 143.098049 144.417851 
z
" style="fill:#1c6aa0;fill-opacity:0.3;"/>
    <path clip-path="url(#pb06e9f4cf7)" d="M 111.824762 146.706436 
L 115.104281 143.211827 
L 109.73268 140.076498 
L 106.438412 143.540803 
z
" style="fill:#1e72ac;fill-opacity:0.3;"/>
    <path clip-path="url(#pb06e9f4cf7)" d="M 165.703415 137.745435 
L 168.804095 130.642485 
L 163.337101 129.118567 
L 160.233752 136.188525 
z
" style="fill:#1b699f;fill-opacity:0.3;"/>
    <path clip-path="url(#pb06e9f4cf7)" d="M 192.214167 97.421413 
L 195.329778 86.738283 
L 189.785531 85.831222 
L 186.677929 96.472735 
z
" style="fill:#1b699e;fill-opacity:0.3;"/>
    <path clip-path="url(#pb06e9f4cf7)" d="M 195.329778 86.738283 
L 198.459082 75.325041 
L 192.904795 74.461342 
L 189.785531 85.831222 
z
" style="fill:#1b699e;fill-opacity:0.3;"/>
    <path clip-path="url(#pb06e9f4cf7)" d="M 189.108952 107.385618 
L 192.214167 97.421413 
L 186.677929 96.472735 
L 183.57871 106.39698 
z
" style="fill:#1b699e;fill-opacity:0.3;"/>
    <path clip-path="url(#pb06e9f4cf7)" d="M 139.930524 149.388259 
L 143.098049 144.417851 
L 137.685346 142.171327 
L 134.50831 147.111791 
z
" style="fill:#1c6ba1;fill-opacity:0.3;"/>
    <path clip-path="url(#pb06e9f4cf7)" d="M 174.298708 131.954688 
L 177.392365 124.130563 
L 171.898103 122.853102 
L 168.804095 130.642485 
z
" style="fill:#1b699e;fill-opacity:0.3;"/>
    <path clip-path="url(#pb06e9f4cf7)" d="M 198.459082 75.325041 
L 201.605405 63.16895 
L 196.039027 62.350452 
L 192.904795 74.461342 
z
" style="fill:#1b699e;fill-opacity:0.3;"/>
    <path clip-path="url(#pb06e9f4cf7)" d="M 97.70756 142.917869 
L 101.062695 140.167735 
L 95.695821 136.587043 
L 92.323245 139.305662 
z
" style="fill:#1a6498;fill-opacity:0.3;"/>
    <path clip-path="url(#pb06e9f4cf7)" d="M 186.010856 116.640571 
L 189.108952 107.385618 
L 183.57871 106.39698 
L 180.484609 115.61355 
z
" style="fill:#1b699e;fill-opacity:0.3;"/>
    <path clip-path="url(#pb06e9f4cf7)" d="M 117.223552 149.664686 
L 120.488656 146.140093 
L 115.104281 143.211827 
L 111.824762 146.706436 
z
" style="fill:#1d71ab;fill-opacity:0.3;"/>
    <path clip-path="url(#pb06e9f4cf7)" d="M 131.303019 151.374925 
L 134.50831 147.111791 
L 129.104705 144.627705 
L 125.887622 148.861202 
z
" style="fill:#1c6ca4;fill-opacity:0.3;"/>
    <path clip-path="url(#pb06e9f4cf7)" d="M 182.91661 125.194462 
L 186.010856 116.640571 
L 180.484609 115.61355 
L 177.392365 124.130563 
z
" style="fill:#1b699e;fill-opacity:0.3;"/>
    <path clip-path="url(#pb06e9f4cf7)" d="M 162.592733 144.165703 
L 165.703415 137.745435 
L 160.233752 136.188525 
L 157.118445 142.576821 
z
" style="fill:#1b699f;fill-opacity:0.3;"/>
    <path clip-path="url(#pb06e9f4cf7)" d="M 153.987792 148.285736 
L 157.118445 142.576821 
L 151.669129 140.778088 
L 148.531563 146.45621 
z
" style="fill:#1b699f;fill-opacity:0.3;"/>
    <path clip-path="url(#pb06e9f4cf7)" d="M 103.100366 146.321958 
L 106.438412 143.540803 
L 101.062695 140.167735 
L 97.70756 142.917869 
z
" style="fill:#1a6598;fill-opacity:0.3;"/>
    <path clip-path="url(#pb06e9f4cf7)" d="M 171.200348 139.091154 
L 174.298708 131.954688 
L 168.804095 130.642485 
L 165.703415 137.745435 
z
" style="fill:#1b699e;fill-opacity:0.3;"/>
    <path clip-path="url(#pb06e9f4cf7)" d="M 145.373232 151.456591 
L 148.531563 146.45621 
L 143.098049 144.417851 
L 139.930524 149.388259 
z
" style="fill:#1c6aa0;fill-opacity:0.3;"/>
    <path clip-path="url(#pb06e9f4cf7)" d="M 197.783652 98.152103 
L 200.907727 87.425995 
L 195.329778 86.738283 
L 192.214167 97.421413 
z
" style="fill:#1b699e;fill-opacity:0.3;"/>
    <path clip-path="url(#pb06e9f4cf7)" d="M 200.907727 87.425995 
L 204.047549 75.967863 
L 198.459082 75.325041 
L 195.329778 86.738283 
z
" style="fill:#1b699e;fill-opacity:0.3;"/>
    <path clip-path="url(#pb06e9f4cf7)" d="M 194.672011 108.157465 
L 197.783652 98.152103 
L 192.214167 97.421413 
L 189.108952 107.385618 
z
" style="fill:#1b699e;fill-opacity:0.3;"/>
    <path clip-path="url(#pb06e9f4cf7)" d="M 122.636608 152.415474 
L 125.887622 148.861202 
L 120.488656 146.140093 
L 117.223552 149.664686 
z
" style="fill:#1d70a9;fill-opacity:0.3;"/>
    <path clip-path="url(#pb06e9f4cf7)" d="M 179.822939 133.054025 
L 182.91661 125.194462 
L 177.392365 124.130563 
L 174.298708 131.954688 
z
" style="fill:#1b699e;fill-opacity:0.3;"/>
    <path clip-path="url(#pb06e9f4cf7)" d="M 204.047549 75.967863 
L 207.206467 63.76487 
L 201.605405 63.16895 
L 198.459082 75.325041 
z
" style="fill:#1b699e;fill-opacity:0.3;"/>
    <path clip-path="url(#pb06e9f4cf7)" d="M 136.736711 153.680896 
L 139.930524 149.388259 
L 134.50831 147.111791 
L 131.303019 151.374925 
z
" style="fill:#1c6ba2;fill-opacity:0.3;"/>
    <path clip-path="url(#pb06e9f4cf7)" d="M 191.569512 117.451834 
L 194.672011 108.157465 
L 189.108952 107.385618 
L 186.010856 116.640571 
z
" style="fill:#1b689e;fill-opacity:0.3;"/>
    <path clip-path="url(#pb06e9f4cf7)" d="M 108.503463 149.51813 
L 111.824762 146.706436 
L 106.438412 143.540803 
L 103.100366 146.321958 
z
" style="fill:#1a669a;fill-opacity:0.3;"/>
    <path clip-path="url(#pb06e9f4cf7)" d="M 159.468676 149.905617 
L 162.592733 144.165703 
L 157.118445 142.576821 
L 153.987792 148.285736 
z
" style="fill:#1b699f;fill-opacity:0.3;"/>
    <path clip-path="url(#pb06e9f4cf7)" d="M 168.093963 145.543765 
L 171.200348 139.091154 
L 165.703415 137.745435 
L 162.592733 144.165703 
z
" style="fill:#1b699e;fill-opacity:0.3;"/>
    <path clip-path="url(#pb06e9f4cf7)" d="M 188.472877 126.043478 
L 191.569512 117.451834 
L 186.010856 116.640571 
L 182.91661 125.194462 
z
" style="fill:#1b689e;fill-opacity:0.3;"/>
    <path clip-path="url(#pb06e9f4cf7)" d="M 150.838345 153.31613 
L 153.987792 148.285736 
L 148.531563 146.45621 
L 145.373232 151.456591 
z
" style="fill:#1b6aa0;fill-opacity:0.3;"/>
    <path clip-path="url(#pb06e9f4cf7)" d="M 176.726554 140.224548 
L 179.822939 133.054025 
L 174.298708 131.954688 
L 171.200348 139.091154 
z
" style="fill:#1b689e;fill-opacity:0.3;"/>
    <path clip-path="url(#pb06e9f4cf7)" d="M 94.302522 144.97912 
L 97.70756 142.917869 
L 92.323245 139.305662 
L 88.898732 141.334815 
z
" style="fill:#114162;fill-opacity:0.3;"/>
    <path clip-path="url(#pb06e9f4cf7)" d="M 128.06578 154.95858 
L 131.303019 151.374925 
L 125.887622 148.861202 
L 122.636608 152.415474 
z
" style="fill:#1d6fa7;fill-opacity:0.3;"/>
    <path clip-path="url(#pb06e9f4cf7)" d="M 113.918669 152.506451 
L 117.223552 149.664686 
L 111.824762 146.706436 
L 108.503463 149.51813 
z
" style="fill:#1b679b;fill-opacity:0.3;"/>
    <path clip-path="url(#pb06e9f4cf7)" d="M 203.388479 98.663256 
L 206.521479 87.892779 
L 200.907727 87.425995 
L 197.783652 98.152103 
z
" style="fill:#1b689e;fill-opacity:0.3;"/>
    <path clip-path="url(#pb06e9f4cf7)" d="M 142.19059 155.778609 
L 145.373232 151.456591 
L 139.930524 149.388259 
L 136.736711 153.680896 
z
" style="fill:#1c6ba1;fill-opacity:0.3;"/>
    <path clip-path="url(#pb06e9f4cf7)" d="M 206.521479 87.892779 
L 209.672307 76.388195 
L 204.047549 75.967863 
L 200.907727 87.425995 
z
" style="fill:#1b689e;fill-opacity:0.3;"/>
    <path clip-path="url(#pb06e9f4cf7)" d="M 200.269976 108.710998 
L 203.388479 98.663256 
L 197.783652 98.152103 
L 194.672011 108.157465 
z
" style="fill:#1b689e;fill-opacity:0.3;"/>
    <path clip-path="url(#pb06e9f4cf7)" d="M 185.378828 133.939194 
L 188.472877 126.043478 
L 182.91661 125.194462 
L 179.822939 133.054025 
z
" style="fill:#1b689e;fill-opacity:0.3;"/>
    <path clip-path="url(#pb06e9f4cf7)" d="M 209.672307 76.388195 
L 212.844336 64.136565 
L 207.206467 63.76487 
L 204.047549 75.967863 
z
" style="fill:#1b699e;fill-opacity:0.3;"/>
    <path clip-path="url(#pb06e9f4cf7)" d="M 99.71445 148.41466 
L 103.100366 146.321958 
L 97.70756 142.917869 
L 94.302522 144.97912 
z
" style="fill:#113f60;fill-opacity:0.3;"/>
    <path clip-path="url(#pb06e9f4cf7)" d="M 197.162663 118.045843 
L 200.269976 108.710998 
L 194.672011 108.157465 
L 191.569512 117.451834 
z
" style="fill:#1b689e;fill-opacity:0.3;"/>
    <path clip-path="url(#pb06e9f4cf7)" d="M 164.976187 151.314894 
L 168.093963 145.543765 
L 162.592733 144.165703 
L 159.468676 149.905617 
z
" style="fill:#1b699e;fill-opacity:0.3;"/>
    <path clip-path="url(#pb06e9f4cf7)" d="M 173.624137 146.709888 
L 176.726554 140.224548 
L 171.200348 139.091154 
L 168.093963 145.543765 
z
" style="fill:#1b689e;fill-opacity:0.3;"/>
    <path clip-path="url(#pb06e9f4cf7)" d="M 133.512942 157.293649 
L 136.736711 153.680896 
L 131.303019 151.374925 
L 128.06578 154.95858 
z
" style="fill:#1c6da5;fill-opacity:0.3;"/>
    <path clip-path="url(#pb06e9f4cf7)" d="M 156.327808 154.966075 
L 159.468676 149.905617 
L 153.987792 148.285736 
L 150.838345 153.31613 
z
" style="fill:#1b699f;fill-opacity:0.3;"/>
    <path clip-path="url(#pb06e9f4cf7)" d="M 119.347822 155.286851 
L 122.636608 152.415474 
L 117.223552 149.664686 
L 113.918669 152.506451 
z
" style="fill:#1b689d;fill-opacity:0.3;"/>
    <path clip-path="url(#pb06e9f4cf7)" d="M 194.063251 126.676135 
L 197.162663 118.045843 
L 191.569512 117.451834 
L 188.472877 126.043478 
z
" style="fill:#1b689e;fill-opacity:0.3;"/>
    <path clip-path="url(#pb06e9f4cf7)" d="M 182.284073 141.144333 
L 185.378828 133.939194 
L 179.822939 133.054025 
L 176.726554 140.224548 
z
" style="fill:#1b689e;fill-opacity:0.3;"/>
    <path clip-path="url(#pb06e9f4cf7)" d="M 147.666576 157.667418 
L 150.838345 153.31613 
L 145.373232 151.456591 
L 142.19059 155.778609 
z
" style="fill:#1c6aa0;fill-opacity:0.3;"/>
    <path clip-path="url(#pb06e9f4cf7)" d="M 105.136329 151.641649 
L 108.503463 149.51813 
L 103.100366 146.321958 
L 99.71445 148.41466 
z
" style="fill:#103e5e;fill-opacity:0.3;"/>
    <path clip-path="url(#pb06e9f4cf7)" d="M 209.030791 98.953161 
L 212.173183 88.136893 
L 206.521479 87.892779 
L 203.388479 98.663256 
z
" style="fill:#1b689e;fill-opacity:0.3;"/>
    <path clip-path="url(#pb06e9f4cf7)" d="M 190.968457 134.608741 
L 194.063251 126.676135 
L 188.472877 126.043478 
L 185.378828 133.939194 
z
" style="fill:#1b689d;fill-opacity:0.3;"/>
    <path clip-path="url(#pb06e9f4cf7)" d="M 212.173183 88.136893 
L 215.335514 76.584263 
L 209.672307 76.388195 
L 206.521479 87.892779 
z
" style="fill:#1b689e;fill-opacity:0.3;"/>
    <path clip-path="url(#pb06e9f4cf7)" d="M 205.904983 109.044533 
L 209.030791 98.953161 
L 203.388479 98.663256 
L 200.269976 108.710998 
z
" style="fill:#1b689e;fill-opacity:0.3;"/>
    <path clip-path="url(#pb06e9f4cf7)" d="M 124.792782 157.859122 
L 128.06578 154.95858 
L 122.636608 152.415474 
L 119.347822 155.286851 
z
" style="fill:#1c6aa0;fill-opacity:0.3;"/>
    <path clip-path="url(#pb06e9f4cf7)" d="M 138.979993 159.420187 
L 142.19059 155.778609 
L 136.736711 153.680896 
L 133.512942 157.293649 
z
" style="fill:#1c6ca3;fill-opacity:0.3;"/>
    <path clip-path="url(#pb06e9f4cf7)" d="M 215.335514 76.584263 
L 218.52118 64.282223 
L 212.844336 64.136565 
L 209.672307 76.388195 
z
" style="fill:#1b689e;fill-opacity:0.3;"/>
    <path clip-path="url(#pb06e9f4cf7)" d="M 170.512332 152.512465 
L 173.624137 146.709888 
L 168.093963 145.543765 
L 164.976187 151.314894 
z
" style="fill:#1b689e;fill-opacity:0.3;"/>
    <path clip-path="url(#pb06e9f4cf7)" d="M 202.792439 118.420939 
L 205.904983 109.044533 
L 200.269976 108.710998 
L 197.162663 118.045843 
z
" style="fill:#1b689d;fill-opacity:0.3;"/>
    <path clip-path="url(#pb06e9f4cf7)" d="M 161.843598 156.405482 
L 164.976187 151.314894 
L 159.468676 149.905617 
L 156.327808 154.966075 
z
" style="fill:#1b689e;fill-opacity:0.3;"/>
    <path clip-path="url(#pb06e9f4cf7)" d="M 110.569989 154.660164 
L 113.918669 152.506451 
L 108.503463 149.51813 
L 105.136329 151.641649 
z
" style="fill:#103c5b;fill-opacity:0.3;"/>
    <path clip-path="url(#pb06e9f4cf7)" d="M 179.1853 147.662804 
L 182.284073 141.144333 
L 176.726554 140.224548 
L 173.624137 146.709888 
z
" style="fill:#1b689d;fill-opacity:0.3;"/>
    <path clip-path="url(#pb06e9f4cf7)" d="M 90.843278 146.344576 
L 94.302522 144.97912 
L 88.898732 141.334815 
L 85.417936 142.667544 
z
" style="fill:#0f3957;fill-opacity:0.3;"/>
    <path clip-path="url(#pb06e9f4cf7)" d="M 153.166619 159.346533 
L 156.327808 154.966075 
L 150.838345 153.31613 
L 147.666576 157.667418 
z
" style="fill:#1b699f;fill-opacity:0.3;"/>
    <path clip-path="url(#pb06e9f4cf7)" d="M 199.689861 127.090798 
L 202.792439 118.420939 
L 197.162663 118.045843 
L 194.063251 126.676135 
z
" style="fill:#1b689d;fill-opacity:0.3;"/>
    <path clip-path="url(#pb06e9f4cf7)" d="M 187.87499 141.849072 
L 190.968457 134.608741 
L 185.378828 133.939194 
L 182.284073 141.144333 
z
" style="fill:#1b689d;fill-opacity:0.3;"/>
    <path clip-path="url(#pb06e9f4cf7)" d="M 130.255434 160.222919 
L 133.512942 157.293649 
L 128.06578 154.95858 
L 124.792782 157.859122 
z
" style="fill:#1c6da4;fill-opacity:0.3;"/>
    <path clip-path="url(#pb06e9f4cf7)" d="M 96.276404 149.812041 
L 99.71445 148.41466 
L 94.302522 144.97912 
L 90.843278 146.344576 
z
" style="fill:#0f3956;fill-opacity:0.3;"/>
    <path clip-path="url(#pb06e9f4cf7)" d="M 116.017281 157.470145 
L 119.347822 155.286851 
L 113.918669 152.506451 
L 110.569989 154.660164 
z
" style="fill:#0f3b59;fill-opacity:0.3;"/>
    <path clip-path="url(#pb06e9f4cf7)" d="M 144.468863 161.337556 
L 147.666576 157.667418 
L 142.19059 155.778609 
L 138.979993 159.420187 
z
" style="fill:#1c6ba1;fill-opacity:0.3;"/>
    <path clip-path="url(#pb06e9f4cf7)" d="M 196.593956 135.06105 
L 199.689861 127.090798 
L 194.063251 126.676135 
L 190.968457 134.608741 
z
" style="fill:#1b689d;fill-opacity:0.3;"/>
    <path clip-path="url(#pb06e9f4cf7)" d="M 214.712777 99.01994 
L 217.86504 88.156428 
L 212.173183 88.136893 
L 209.030791 98.953161 
z
" style="fill:#1b689d;fill-opacity:0.3;"/>
    <path clip-path="url(#pb06e9f4cf7)" d="M 217.86504 88.156428 
L 221.039379 76.554122 
L 215.335514 76.584263 
L 212.173183 88.136893 
z
" style="fill:#1b689e;fill-opacity:0.3;"/>
    <path clip-path="url(#pb06e9f4cf7)" d="M 211.579217 109.156224 
L 214.712777 99.01994 
L 209.030791 98.953161 
L 205.904983 109.044533 
z
" style="fill:#1b689d;fill-opacity:0.3;"/>
    <path clip-path="url(#pb06e9f4cf7)" d="M 176.07916 153.497072 
L 179.1853 147.662804 
L 173.624137 146.709888 
L 170.512332 152.512465 
z
" style="fill:#1b689d;fill-opacity:0.3;"/>
    <path clip-path="url(#pb06e9f4cf7)" d="M 167.387729 157.633258 
L 170.512332 152.512465 
L 164.976187 151.314894 
L 161.843598 156.405482 
z
" style="fill:#1b689d;fill-opacity:0.3;"/>
    <path clip-path="url(#pb06e9f4cf7)" d="M 221.039379 76.554122 
L 224.239219 64.199862 
L 218.52118 64.282223 
L 215.335514 76.584263 
z
" style="fill:#1b689e;fill-opacity:0.3;"/>
    <path clip-path="url(#pb06e9f4cf7)" d="M 184.779538 148.401089 
L 187.87499 141.849072 
L 182.284073 141.144333 
L 179.1853 147.662804 
z
" style="fill:#1b689d;fill-opacity:0.3;"/>
    <path clip-path="url(#pb06e9f4cf7)" d="M 208.461022 118.575301 
L 211.579217 109.156224 
L 205.904983 109.044533 
L 202.792439 118.420939 
z
" style="fill:#1b689d;fill-opacity:0.3;"/>
    <path clip-path="url(#pb06e9f4cf7)" d="M 101.719141 153.070163 
L 105.136329 151.641649 
L 99.71445 148.41466 
L 96.276404 149.812041 
z
" style="fill:#0f3854;fill-opacity:0.3;"/>
    <path clip-path="url(#pb06e9f4cf7)" d="M 158.692705 160.815018 
L 161.843598 156.405482 
L 156.327808 154.966075 
L 153.166619 159.346533 
z
" style="fill:#1b689e;fill-opacity:0.3;"/>
    <path clip-path="url(#pb06e9f4cf7)" d="M 135.737686 162.377756 
L 138.979993 159.420187 
L 133.512942 157.293649 
L 130.255434 160.222919 
z
" style="fill:#1d71ab;fill-opacity:0.3;"/>
    <path clip-path="url(#pb06e9f4cf7)" d="M 121.480077 160.071396 
L 124.792782 157.859122 
L 119.347822 155.286851 
L 116.017281 157.470145 
z
" style="fill:#0f3956;fill-opacity:0.3;"/>
    <path clip-path="url(#pb06e9f4cf7)" d="M 193.501432 142.337167 
L 196.593956 135.06105 
L 190.968457 134.608741 
L 187.87499 141.849072 
z
" style="fill:#1b689d;fill-opacity:0.3;"/>
    <path clip-path="url(#pb06e9f4cf7)" d="M 205.354883 127.285671 
L 208.461022 118.575301 
L 202.792439 118.420939 
L 199.689861 127.090798 
z
" style="fill:#1b689d;fill-opacity:0.3;"/>
    <path clip-path="url(#pb06e9f4cf7)" d="M 149.981511 163.044975 
L 153.166619 159.346533 
L 147.666576 157.667418 
L 144.468863 161.337556 
z
" style="fill:#1b699f;fill-opacity:0.3;"/>
    <path clip-path="url(#pb06e9f4cf7)" d="M 107.173333 156.119032 
L 110.569989 154.660164 
L 105.136329 151.641649 
L 101.719141 153.070163 
z
" style="fill:#0e3753;fill-opacity:0.3;"/>
    <path clip-path="url(#pb06e9f4cf7)" d="M 87.325326 147.005701 
L 90.843278 146.344576 
L 85.417936 142.667544 
L 81.876308 143.295265 
z
" style="fill:#0e3753;fill-opacity:0.3;"/>
    <path clip-path="url(#pb06e9f4cf7)" d="M 202.257499 135.294346 
L 205.354883 127.285671 
L 199.689861 127.090798 
L 196.593956 135.06105 
z
" style="fill:#1b689d;fill-opacity:0.3;"/>
    <path clip-path="url(#pb06e9f4cf7)" d="M 172.962256 158.648157 
L 176.07916 153.497072 
L 170.512332 152.512465 
L 167.387729 157.633258 
z
" style="fill:#1b679c;fill-opacity:0.3;"/>
    <path clip-path="url(#pb06e9f4cf7)" d="M 181.678761 154.267306 
L 184.779538 148.401089 
L 179.1853 147.662804 
L 176.07916 153.497072 
z
" style="fill:#1b679c;fill-opacity:0.3;"/>
    <path clip-path="url(#pb06e9f4cf7)" d="M 220.436682 98.861547 
L 223.5993 87.949304 
L 217.86504 88.156428 
L 214.712777 99.01994 
z
" style="fill:#1b689d;fill-opacity:0.3;"/>
    <path clip-path="url(#pb06e9f4cf7)" d="M 223.5993 87.949304 
L 226.786165 76.295655 
L 221.039379 76.554122 
L 217.86504 88.156428 
z
" style="fill:#1b689d;fill-opacity:0.3;"/>
    <path clip-path="url(#pb06e9f4cf7)" d="M 217.294915 109.044055 
L 220.436682 98.861547 
L 214.712777 99.01994 
L 211.579217 109.156224 
z
" style="fill:#1b689d;fill-opacity:0.3;"/>
    <path clip-path="url(#pb06e9f4cf7)" d="M 126.960271 162.463579 
L 130.255434 160.222919 
L 124.792782 157.859122 
L 121.480077 160.071396 
z
" style="fill:#0e3753;fill-opacity:0.3;"/>
    <path clip-path="url(#pb06e9f4cf7)" d="M 164.246855 162.071791 
L 167.387729 157.633258 
L 161.843598 156.405482 
L 158.692705 160.815018 
z
" style="fill:#1b679c;fill-opacity:0.3;"/>
    <path clip-path="url(#pb06e9f4cf7)" d="M 141.24148 164.323003 
L 144.468863 161.337556 
L 138.979993 159.420187 
L 135.737686 162.377756 
z
" style="fill:#1e75b1;fill-opacity:0.3;"/>
    <path clip-path="url(#pb06e9f4cf7)" d="M 190.408981 148.923164 
L 193.501432 142.337167 
L 187.87499 141.849072 
L 184.779538 148.401089 
z
" style="fill:#1b679c;fill-opacity:0.3;"/>
    <path clip-path="url(#pb06e9f4cf7)" d="M 226.786165 76.295655 
L 230.000728 63.887325 
L 224.239219 64.199862 
L 221.039379 76.554122 
z
" style="fill:#1b689d;fill-opacity:0.3;"/>
    <path clip-path="url(#pb06e9f4cf7)" d="M 214.170644 118.506941 
L 217.294915 109.044055 
L 211.579217 109.156224 
L 208.461022 118.575301 
z
" style="fill:#1b689d;fill-opacity:0.3;"/>
    <path clip-path="url(#pb06e9f4cf7)" d="M 112.640845 158.958598 
L 116.017281 157.470145 
L 110.569989 154.660164 
L 107.173333 156.119032 
z
" style="fill:#0e3652;fill-opacity:0.3;"/>
    <path clip-path="url(#pb06e9f4cf7)" d="M 92.781773 150.505606 
L 96.276404 149.812041 
L 90.843278 146.344576 
L 87.325326 147.005701 
z
" style="fill:#0e3652;fill-opacity:0.3;"/>
    <path clip-path="url(#pb06e9f4cf7)" d="M 155.519932 164.541518 
L 158.692705 160.815018 
L 153.166619 159.346533 
L 149.981511 163.044975 
z
" style="fill:#1b679c;fill-opacity:0.3;"/>
    <path clip-path="url(#pb06e9f4cf7)" d="M 199.165577 142.60686 
L 202.257499 135.294346 
L 196.593956 135.06105 
L 193.501432 142.337167 
z
" style="fill:#1b679c;fill-opacity:0.3;"/>
    <path clip-path="url(#pb06e9f4cf7)" d="M 211.060547 127.258789 
L 214.170644 118.506941 
L 208.461022 118.575301 
L 205.354883 127.285671 
z
" style="fill:#1b689d;fill-opacity:0.3;"/>
    <path clip-path="url(#pb06e9f4cf7)" d="M 132.459789 164.646216 
L 135.737686 162.377756 
L 130.255434 160.222919 
L 126.960271 162.463579 
z
" style="fill:#0e3551;fill-opacity:0.3;"/>
    <path clip-path="url(#pb06e9f4cf7)" d="M 178.569274 159.448782 
L 181.678761 154.267306 
L 176.07916 153.497072 
L 172.962256 158.648157 
z
" style="fill:#1b679c;fill-opacity:0.3;"/>
    <path clip-path="url(#pb06e9f4cf7)" d="M 98.247491 153.795218 
L 101.719141 153.070163 
L 96.276404 149.812041 
L 92.781773 150.505606 
z
" style="fill:#0e3651;fill-opacity:0.3;"/>
    <path clip-path="url(#pb06e9f4cf7)" d="M 146.768786 166.057889 
L 149.981511 163.044975 
L 144.468863 161.337556 
L 141.24148 164.323003 
z
" style="fill:#1b699e;fill-opacity:0.3;"/>
    <path clip-path="url(#pb06e9f4cf7)" d="M 187.313269 154.821601 
L 190.408981 148.923164 
L 184.779538 148.401089 
L 181.678761 154.267306 
z
" style="fill:#1b679c;fill-opacity:0.3;"/>
    <path clip-path="url(#pb06e9f4cf7)" d="M 207.961316 135.306685 
L 211.060547 127.258789 
L 205.354883 127.285671 
L 202.257499 135.294346 
z
" style="fill:#1b679c;fill-opacity:0.3;"/>
    <path clip-path="url(#pb06e9f4cf7)" d="M 118.123562 161.588672 
L 121.480077 160.071396 
L 116.017281 157.470145 
L 112.640845 158.958598 
z
" style="fill:#0e3550;fill-opacity:0.3;"/>
    <path clip-path="url(#pb06e9f4cf7)" d="M 169.831132 163.115616 
L 172.962256 158.648157 
L 167.387729 157.633258 
L 164.246855 162.071791 
z
" style="fill:#1b679b;fill-opacity:0.3;"/>
    <path clip-path="url(#pb06e9f4cf7)" d="M 226.204805 98.475761 
L 229.378273 87.513264 
L 223.5993 87.949304 
L 220.436682 98.861547 
z
" style="fill:#1b689d;fill-opacity:0.3;"/>
    <path clip-path="url(#pb06e9f4cf7)" d="M 229.378273 87.513264 
L 232.578192 75.806566 
L 226.786165 76.295655 
L 223.5993 87.949304 
z
" style="fill:#1b689d;fill-opacity:0.3;"/>
    <path clip-path="url(#pb06e9f4cf7)" d="M 223.05437 108.705835 
L 226.204805 98.475761 
L 220.436682 98.861547 
L 217.294915 109.044055 
z
" style="fill:#1b689d;fill-opacity:0.3;"/>
    <path clip-path="url(#pb06e9f4cf7)" d="M 196.075809 149.227285 
L 199.165577 142.60686 
L 193.501432 142.337167 
L 190.408981 148.923164 
z
" style="fill:#1b679c;fill-opacity:0.3;"/>
    <path clip-path="url(#pb06e9f4cf7)" d="M 161.086157 165.826109 
L 164.246855 162.071791 
L 158.692705 160.815018 
L 155.519932 164.541518 
z
" style="fill:#1b669a;fill-opacity:0.3;"/>
    <path clip-path="url(#pb06e9f4cf7)" d="M 232.578192 75.806566 
L 235.80804 63.342273 
L 230.000728 63.887325 
L 226.786165 76.295655 
z
" style="fill:#1b689d;fill-opacity:0.3;"/>
    <path clip-path="url(#pb06e9f4cf7)" d="M 219.923593 118.213696 
L 223.05437 108.705835 
L 217.294915 109.044055 
L 214.170644 118.506941 
z
" style="fill:#1b689d;fill-opacity:0.3;"/>
    <path clip-path="url(#pb06e9f4cf7)" d="M 103.72434 156.874636 
L 107.173333 156.119032 
L 101.719141 153.070163 
L 98.247491 153.795218 
z
" style="fill:#0e3550;fill-opacity:0.3;"/>
    <path clip-path="url(#pb06e9f4cf7)" d="M 204.869652 142.656228 
L 207.961316 135.306685 
L 202.257499 135.294346 
L 199.165577 142.60686 
z
" style="fill:#1b679c;fill-opacity:0.3;"/>
    <path clip-path="url(#pb06e9f4cf7)" d="M 137.98058 166.618686 
L 141.24148 164.323003 
L 135.737686 162.377756 
L 132.459789 164.646216 
z
" style="fill:#0d334e;fill-opacity:0.3;"/>
    <path clip-path="url(#pb06e9f4cf7)" d="M 216.809137 127.008015 
L 219.923593 118.213696 
L 214.170644 118.506941 
L 211.060547 127.258789 
z
" style="fill:#1b679c;fill-opacity:0.3;"/>
    <path clip-path="url(#pb06e9f4cf7)" d="M 123.623394 164.008927 
L 126.960271 162.463579 
L 121.480077 160.071396 
L 118.123562 161.588672 
z
" style="fill:#0e344f;fill-opacity:0.3;"/>
    <path clip-path="url(#pb06e9f4cf7)" d="M 83.743951 146.952264 
L 87.325326 147.005701 
L 81.876308 143.295265 
L 78.269078 143.207701 
z
" style="fill:#0e3651;fill-opacity:0.3;"/>
    <path clip-path="url(#pb06e9f4cf7)" d="M 152.321609 167.581492 
L 155.519932 164.541518 
L 149.981511 163.044975 
L 146.768786 166.057889 
z
" style="fill:#175783;fill-opacity:0.3;"/>
    <path clip-path="url(#pb06e9f4cf7)" d="M 184.210923 160.033575 
L 187.313269 154.821601 
L 181.678761 154.267306 
L 178.569274 159.448782 
z
" style="fill:#1b669b;fill-opacity:0.3;"/>
    <path clip-path="url(#pb06e9f4cf7)" d="M 175.447637 163.945104 
L 178.569274 159.448782 
L 172.962256 158.648157 
L 169.831132 163.115616 
z
" style="fill:#1b669a;fill-opacity:0.3;"/>
    <path clip-path="url(#pb06e9f4cf7)" d="M 192.984868 155.158226 
L 196.075809 149.227285 
L 190.408981 148.923164 
L 187.313269 154.821601 
z
" style="fill:#1b679b;fill-opacity:0.3;"/>
    <path clip-path="url(#pb06e9f4cf7)" d="M 109.214198 159.74382 
L 112.640845 158.958598 
L 107.173333 156.119032 
L 103.72434 156.874636 
z
" style="fill:#0e354f;fill-opacity:0.3;"/>
    <path clip-path="url(#pb06e9f4cf7)" d="M 213.707687 135.095953 
L 216.809137 127.008015 
L 211.060547 127.258789 
L 207.961316 135.306685 
z
" style="fill:#1b679c;fill-opacity:0.3;"/>
    <path clip-path="url(#pb06e9f4cf7)" d="M 166.682256 166.897519 
L 169.831132 163.115616 
L 164.246855 162.071791 
L 161.086157 165.826109 
z
" style="fill:#1a6498;fill-opacity:0.3;"/>
    <path clip-path="url(#pb06e9f4cf7)" d="M 89.225894 150.485168 
L 92.781773 150.505606 
L 87.325326 147.005701 
L 83.743951 146.952264 
z
" style="fill:#0e3550;fill-opacity:0.3;"/>
    <path clip-path="url(#pb06e9f4cf7)" d="M 201.782252 149.311544 
L 204.869652 142.656228 
L 199.165577 142.60686 
L 196.075809 149.227285 
z
" style="fill:#1b679b;fill-opacity:0.3;"/>
    <path clip-path="url(#pb06e9f4cf7)" d="M 232.019508 97.860179 
L 235.204328 86.84587 
L 229.378273 87.513264 
L 226.204805 98.475761 
z
" style="fill:#1b689d;fill-opacity:0.3;"/>
    <path clip-path="url(#pb06e9f4cf7)" d="M 235.204328 86.84587 
L 238.417839 75.084377 
L 232.578192 75.806566 
L 229.378273 87.513264 
z
" style="fill:#1b689d;fill-opacity:0.3;"/>
    <path clip-path="url(#pb06e9f4cf7)" d="M 228.859933 108.139195 
L 232.019508 97.860179 
L 226.204805 98.475761 
L 223.05437 108.705835 
z
" style="fill:#1b689d;fill-opacity:0.3;"/>
    <path clip-path="url(#pb06e9f4cf7)" d="M 143.524628 168.380221 
L 146.768786 166.057889 
L 141.24148 164.323003 
L 137.98058 166.618686 
z
" style="fill:#0d324b;fill-opacity:0.3;"/>
    <path clip-path="url(#pb06e9f4cf7)" d="M 129.142277 166.218889 
L 132.459789 164.646216 
L 126.960271 162.463579 
L 123.623394 164.008927 
z
" style="fill:#0d334e;fill-opacity:0.3;"/>
    <path clip-path="url(#pb06e9f4cf7)" d="M 238.417839 75.084377 
L 241.663549 62.562184 
L 235.80804 63.342273 
L 232.578192 75.806566 
z
" style="fill:#1b689d;fill-opacity:0.3;"/>
    <path clip-path="url(#pb06e9f4cf7)" d="M 225.722214 117.693228 
L 228.859933 108.139195 
L 223.05437 108.705835 
L 219.923593 118.213696 
z
" style="fill:#1b679c;fill-opacity:0.3;"/>
    <path clip-path="url(#pb06e9f4cf7)" d="M 157.901989 168.892743 
L 161.086157 165.826109 
L 155.519932 164.541518 
L 152.321609 167.581492 
z
" style="fill:#144d74;fill-opacity:0.3;"/>
    <path clip-path="url(#pb06e9f4cf7)" d="M 210.615941 142.483175 
L 213.707687 135.095953 
L 207.961316 135.306685 
L 204.869652 142.656228 
z
" style="fill:#1b679b;fill-opacity:0.3;"/>
    <path clip-path="url(#pb06e9f4cf7)" d="M 114.718968 162.40259 
L 118.123562 161.588672 
L 112.640845 158.958598 
L 109.214198 159.74382 
z
" style="fill:#0e344f;fill-opacity:0.3;"/>
    <path clip-path="url(#pb06e9f4cf7)" d="M 94.716767 153.806663 
L 98.247491 153.795218 
L 92.781773 150.505606 
L 89.225894 150.485168 
z
" style="fill:#0e3550;fill-opacity:0.3;"/>
    <path clip-path="url(#pb06e9f4cf7)" d="M 222.602996 126.531037 
L 225.722214 117.693228 
L 219.923593 118.213696 
L 216.809137 127.008015 
z
" style="fill:#1b679c;fill-opacity:0.3;"/>
    <path clip-path="url(#pb06e9f4cf7)" d="M 189.889393 160.400817 
L 192.984868 155.158226 
L 187.313269 154.821601 
L 184.210923 160.033575 
z
" style="fill:#1b669a;fill-opacity:0.3;"/>
    <path clip-path="url(#pb06e9f4cf7)" d="M 181.098519 164.558705 
L 184.210923 160.033575 
L 178.569274 159.448782 
L 175.447637 163.945104 
z
" style="fill:#1a6599;fill-opacity:0.3;"/>
    <path clip-path="url(#pb06e9f4cf7)" d="M 198.695792 155.275286 
L 201.782252 149.311544 
L 196.075809 149.227285 
L 192.984868 155.158226 
z
" style="fill:#1b669a;fill-opacity:0.3;"/>
    <path clip-path="url(#pb06e9f4cf7)" d="M 134.682176 168.217944 
L 137.98058 166.618686 
L 132.459789 164.646216 
L 129.142277 166.218889 
z
" style="fill:#0d334c;fill-opacity:0.3;"/>
    <path clip-path="url(#pb06e9f4cf7)" d="M 172.31034 167.754367 
L 175.447637 163.945104 
L 169.831132 163.115616 
L 166.682256 166.897519 
z
" style="fill:#1a6395;fill-opacity:0.3;"/>
    <path clip-path="url(#pb06e9f4cf7)" d="M 149.093951 169.929906 
L 152.321609 167.581492 
L 146.768786 166.057889 
L 143.524628 168.380221 
z
" style="fill:#0c3048;fill-opacity:0.3;"/>
    <path clip-path="url(#pb06e9f4cf7)" d="M 219.498956 134.65986 
L 222.602996 126.531037 
L 216.809137 127.008015 
L 213.707687 135.095953 
z
" style="fill:#1b679c;fill-opacity:0.3;"/>
    <path clip-path="url(#pb06e9f4cf7)" d="M 100.218447 156.916859 
L 103.72434 156.874636 
L 98.247491 153.795218 
L 94.716767 153.806663 
z
" style="fill:#0e344f;fill-opacity:0.3;"/>
    <path clip-path="url(#pb06e9f4cf7)" d="M 207.530594 149.173863 
L 210.615941 142.483175 
L 204.869652 142.656228 
L 201.782252 149.311544 
z
" style="fill:#1b669b;fill-opacity:0.3;"/>
    <path clip-path="url(#pb06e9f4cf7)" d="M 120.240573 164.850625 
L 123.623394 164.008927 
L 118.123562 161.588672 
L 114.718968 162.40259 
z
" style="fill:#0d334e;fill-opacity:0.3;"/>
    <path clip-path="url(#pb06e9f4cf7)" d="M 163.512009 169.99042 
L 166.682256 166.897519 
L 161.086157 165.826109 
L 157.901989 168.892743 
z
" style="fill:#13486d;fill-opacity:0.3;"/>
    <path clip-path="url(#pb06e9f4cf7)" d="M 80.094195 146.172258 
L 83.743951 146.952264 
L 78.269078 143.207701 
L 74.591231 142.392798 
z
" style="fill:#0e3550;fill-opacity:0.3;"/>
    <path clip-path="url(#pb06e9f4cf7)" d="M 216.406784 142.08543 
L 219.498956 134.65986 
L 213.707687 135.095953 
L 210.615941 142.483175 
z
" style="fill:#1b679b;fill-opacity:0.3;"/>
    <path clip-path="url(#pb06e9f4cf7)" d="M 105.732829 159.815725 
L 109.214198 159.74382 
L 103.72434 156.874636 
L 100.218447 156.916859 
z
" style="fill:#0d344e;fill-opacity:0.3;"/>
    <path clip-path="url(#pb06e9f4cf7)" d="M 140.245089 170.005329 
L 143.524628 168.380221 
L 137.98058 166.618686 
L 134.682176 168.217944 
z
" style="fill:#0d324b;fill-opacity:0.3;"/>
    <path clip-path="url(#pb06e9f4cf7)" d="M 186.785973 164.954708 
L 189.889393 160.400817 
L 184.210923 160.033575 
L 181.098519 164.558705 
z
" style="fill:#1a6497;fill-opacity:0.3;"/>
    <path clip-path="url(#pb06e9f4cf7)" d="M 195.606922 160.548624 
L 198.695792 155.275286 
L 192.984868 155.158226 
L 189.889393 160.400817 
z
" style="fill:#1a6599;fill-opacity:0.3;"/>
    <path clip-path="url(#pb06e9f4cf7)" d="M 154.6906 171.266676 
L 157.901989 168.892743 
L 152.321609 167.581492 
L 149.093951 169.929906 
z
" style="fill:#0c2e46;fill-opacity:0.3;"/>
    <path clip-path="url(#pb06e9f4cf7)" d="M 125.780966 167.087457 
L 129.142277 166.218889 
L 123.623394 164.008927 
L 120.240573 164.850625 
z
" style="fill:#0d334d;fill-opacity:0.3;"/>
    <path clip-path="url(#pb06e9f4cf7)" d="M 177.972566 168.395109 
L 181.098519 164.558705 
L 175.447637 163.945104 
L 172.31034 167.754367 
z
" style="fill:#196193;fill-opacity:0.3;"/>
    <path clip-path="url(#pb06e9f4cf7)" d="M 204.448329 155.170715 
L 207.530594 149.173863 
L 201.782252 149.311544 
L 198.695792 155.275286 
z
" style="fill:#1a669a;fill-opacity:0.3;"/>
    <path clip-path="url(#pb06e9f4cf7)" d="M 85.603868 149.738764 
L 89.225894 150.485168 
L 83.743951 146.952264 
L 80.094195 146.172258 
z
" style="fill:#0e344f;fill-opacity:0.3;"/>
    <path clip-path="url(#pb06e9f4cf7)" d="M 169.153789 170.873142 
L 172.31034 167.754367 
L 166.682256 166.897519 
L 163.512009 169.99042 
z
" style="fill:#124569;fill-opacity:0.3;"/>
    <path clip-path="url(#pb06e9f4cf7)" d="M 213.323178 148.811985 
L 216.406784 142.08543 
L 210.615941 142.483175 
L 207.530594 149.173863 
z
" style="fill:#1b669a;fill-opacity:0.3;"/>
    <path clip-path="url(#pb06e9f4cf7)" d="M 111.261831 162.503087 
L 114.718968 162.40259 
L 109.214198 159.74382 
L 105.732829 159.815725 
z
" style="fill:#0d334e;fill-opacity:0.3;"/>
    <path clip-path="url(#pb06e9f4cf7)" d="M 91.122128 153.092574 
L 94.716767 153.806663 
L 89.225894 150.485168 
L 85.603868 149.738764 
z
" style="fill:#0e344f;fill-opacity:0.3;"/>
    <path clip-path="url(#pb06e9f4cf7)" d="M 145.833045 171.580131 
L 149.093951 169.929906 
L 143.524628 168.380221 
L 140.245089 170.005329 
z
" style="fill:#0d314a;fill-opacity:0.3;"/>
    <path clip-path="url(#pb06e9f4cf7)" d="M 131.342126 169.112475 
L 134.682176 168.217944 
L 129.142277 166.218889 
L 125.780966 167.087457 
z
" style="fill:#0d324c;fill-opacity:0.3;"/>
    <path clip-path="url(#pb06e9f4cf7)" d="M 160.316669 172.389312 
L 163.512009 169.99042 
L 157.901989 168.892743 
L 154.6906 171.266676 
z
" style="fill:#0c2d43;fill-opacity:0.3;"/>
    <path clip-path="url(#pb06e9f4cf7)" d="M 192.512247 165.131238 
L 195.606922 160.548624 
L 189.889393 160.400817 
L 186.785973 164.954708 
z
" style="fill:#1a6396;fill-opacity:0.3;"/>
    <path clip-path="url(#pb06e9f4cf7)" d="M 201.365804 160.47494 
L 204.448329 155.170715 
L 198.695792 155.275286 
L 195.606922 160.548624 
z
" style="fill:#1a6598;fill-opacity:0.3;"/>
    <path clip-path="url(#pb06e9f4cf7)" d="M 183.67114 168.818039 
L 186.785973 164.954708 
L 181.098519 164.558705 
L 177.972566 168.395109 
z
" style="fill:#196091;fill-opacity:0.3;"/>
    <path clip-path="url(#pb06e9f4cf7)" d="M 116.807396 164.97863 
L 120.240573 164.850625 
L 114.718968 162.40259 
L 111.261831 162.503087 
z
" style="fill:#0d334d;fill-opacity:0.3;"/>
    <path clip-path="url(#pb06e9f4cf7)" d="M 96.65087 156.233809 
L 100.218447 156.916859 
L 94.716767 153.806663 
L 91.122128 153.092574 
z
" style="fill:#0d344e;fill-opacity:0.3;"/>
    <path clip-path="url(#pb06e9f4cf7)" d="M 210.244825 154.842271 
L 213.323178 148.811985 
L 207.530594 149.173863 
L 204.448329 155.170715 
z
" style="fill:#1a6599;fill-opacity:0.3;"/>
    <path clip-path="url(#pb06e9f4cf7)" d="M 174.829498 171.539373 
L 177.972566 168.395109 
L 172.31034 167.754367 
L 169.153789 170.873142 
z
" style="fill:#124366;fill-opacity:0.3;"/>
    <path clip-path="url(#pb06e9f4cf7)" d="M 136.926067 170.924921 
L 140.245089 170.005329 
L 134.682176 168.217944 
L 131.342126 169.112475 
z
" style="fill:#0d324b;fill-opacity:0.3;"/>
    <path clip-path="url(#pb06e9f4cf7)" d="M 151.448113 172.941289 
L 154.6906 171.266676 
L 149.093951 169.929906 
L 145.833045 171.580131 
z
" style="fill:#0c3049;fill-opacity:0.3;"/>
    <path clip-path="url(#pb06e9f4cf7)" d="M 102.192008 159.162445 
L 105.732829 159.815725 
L 100.218447 156.916859 
L 96.65087 156.233809 
z
" style="fill:#0d334e;fill-opacity:0.3;"/>
    <path clip-path="url(#pb06e9f4cf7)" d="M 122.371491 167.241891 
L 125.780966 167.087457 
L 120.240573 164.850625 
L 116.807396 164.97863 
z
" style="fill:#0d334c;fill-opacity:0.3;"/>
    <path clip-path="url(#pb06e9f4cf7)" d="M 165.974294 173.296435 
L 169.153789 170.873142 
L 163.512009 169.99042 
L 160.316669 172.389312 
z
" style="fill:#0b2b41;fill-opacity:0.3;"/>
    <path clip-path="url(#pb06e9f4cf7)" d="M 198.279641 165.086243 
L 201.365804 160.47494 
L 195.606922 160.548624 
L 192.512247 165.131238 
z
" style="fill:#1a6395;fill-opacity:0.3;"/>
    <path clip-path="url(#pb06e9f4cf7)" d="M 189.408318 169.021285 
L 192.512247 165.131238 
L 186.785973 164.954708 
L 183.67114 168.818039 
z
" style="fill:#195e8f;fill-opacity:0.3;"/>
    <path clip-path="url(#pb06e9f4cf7)" d="M 207.168392 160.177532 
L 210.244825 154.842271 
L 204.448329 155.170715 
L 201.365804 160.47494 
z
" style="fill:#1a6497;fill-opacity:0.3;"/>
    <path clip-path="url(#pb06e9f4cf7)" d="M 142.534834 172.523883 
L 145.833045 171.580131 
L 140.245089 170.005329 
L 136.926067 170.924921 
z
" style="fill:#0d314a;fill-opacity:0.3;"/>
    <path clip-path="url(#pb06e9f4cf7)" d="M 107.747479 161.878317 
L 111.261831 162.503087 
L 105.732829 159.815725 
L 102.192008 159.162445 
z
" style="fill:#0d334d;fill-opacity:0.3;"/>
    <path clip-path="url(#pb06e9f4cf7)" d="M 180.541352 171.987407 
L 183.67114 168.818039 
L 177.972566 168.395109 
L 174.829498 171.539373 
z
" style="fill:#114264;fill-opacity:0.3;"/>
    <path clip-path="url(#pb06e9f4cf7)" d="M 157.092398 174.087582 
L 160.316669 172.389312 
L 154.6906 171.266676 
L 151.448113 172.941289 
z
" style="fill:#0c2f47;fill-opacity:0.3;"/>
    <path clip-path="url(#pb06e9f4cf7)" d="M 127.956114 169.292263 
L 131.342126 169.112475 
L 125.780966 167.087457 
L 122.371491 167.241891 
z
" style="fill:#0d324c;fill-opacity:0.3;"/>
    <path clip-path="url(#pb06e9f4cf7)" d="M 171.665654 173.986509 
L 174.829498 171.539373 
L 169.153789 170.873142 
L 165.974294 173.296435 
z
" style="fill:#0b2a3f;fill-opacity:0.3;"/>
    <path clip-path="url(#pb06e9f4cf7)" d="M 113.319243 164.381113 
L 116.807396 164.97863 
L 111.261831 162.503087 
L 107.747479 161.878317 
z
" style="fill:#0d334d;fill-opacity:0.3;"/>
    <path clip-path="url(#pb06e9f4cf7)" d="M 204.090516 164.817499 
L 207.168392 160.177532 
L 201.365804 160.47494 
L 198.279641 165.086243 
z
" style="fill:#196294;fill-opacity:0.3;"/>
    <path clip-path="url(#pb06e9f4cf7)" d="M 148.170511 173.908299 
L 151.448113 172.941289 
L 145.833045 171.580131 
L 142.534834 172.523883 
z
" style="fill:#0d3149;fill-opacity:0.3;"/>
    <path clip-path="url(#pb06e9f4cf7)" d="M 195.18641 169.002802 
L 198.279641 165.086243 
L 192.512247 165.131238 
L 189.408318 169.021285 
z
" style="fill:#185d8d;fill-opacity:0.3;"/>
    <path clip-path="url(#pb06e9f4cf7)" d="M 133.563295 171.128987 
L 136.926067 170.924921 
L 131.342126 169.112475 
L 127.956114 169.292263 
z
" style="fill:#0d324b;fill-opacity:0.3;"/>
    <path clip-path="url(#pb06e9f4cf7)" d="M 162.76805 175.017635 
L 165.974294 173.296435 
L 160.316669 172.389312 
L 157.092398 174.087582 
z
" style="fill:#0c2e46;fill-opacity:0.3;"/>
    <path clip-path="url(#pb06e9f4cf7)" d="M 186.291618 172.215376 
L 189.408318 169.021285 
L 183.67114 168.818039 
L 180.541352 171.987407 
z
" style="fill:#114163;fill-opacity:0.3;"/>
    <path clip-path="url(#pb06e9f4cf7)" d="M 118.909288 166.670374 
L 122.371491 167.241891 
L 116.807396 164.97863 
L 113.319243 164.381113 
z
" style="fill:#0d324c;fill-opacity:0.3;"/>
    <path clip-path="url(#pb06e9f4cf7)" d="M 177.392978 174.457831 
L 180.541352 171.987407 
L 174.829498 171.539373 
L 171.665654 173.986509 
z
" style="fill:#0b293e;fill-opacity:0.3;"/>
    <path clip-path="url(#pb06e9f4cf7)" d="M 153.835219 175.076949 
L 157.092398 174.087582 
L 151.448113 172.941289 
L 148.170511 173.908299 
z
" style="fill:#0d3049;fill-opacity:0.3;"/>
    <path clip-path="url(#pb06e9f4cf7)" d="M 139.195097 172.751152 
L 142.534834 172.523883 
L 136.926067 170.924921 
L 133.563295 171.128987 
z
" style="fill:#0d314b;fill-opacity:0.3;"/>
    <path clip-path="url(#pb06e9f4cf7)" d="M 168.477265 175.729907 
L 171.665654 173.986509 
L 165.974294 173.296435 
L 162.76805 175.017635 
z
" style="fill:#0c2e45;fill-opacity:0.3;"/>
    <path clip-path="url(#pb06e9f4cf7)" d="M 201.007784 168.760367 
L 204.090516 164.817499 
L 198.279641 165.086243 
L 195.18641 169.002802 
z
" style="fill:#185c8b;fill-opacity:0.3;"/>
    <path clip-path="url(#pb06e9f4cf7)" d="M 124.519629 168.745494 
L 127.956114 169.292263 
L 122.371491 167.241891 
L 118.909288 166.670374 
z
" style="fill:#0d324c;fill-opacity:0.3;"/>
    <path clip-path="url(#pb06e9f4cf7)" d="M 192.082617 172.221234 
L 195.18641 169.002802 
L 189.408318 169.021285 
L 186.291618 172.215376 
z
" style="fill:#114062;fill-opacity:0.3;"/>
    <path clip-path="url(#pb06e9f4cf7)" d="M 183.158545 174.708529 
L 186.291618 172.215376 
L 180.541352 171.987407 
L 177.392978 174.457831 
z
" style="fill:#0a283c;fill-opacity:0.3;"/>
    <path clip-path="url(#pb06e9f4cf7)" d="M 144.853619 174.157695 
L 148.170511 173.908299 
L 142.534834 172.523883 
L 139.195097 172.751152 
z
" style="fill:#0d314a;fill-opacity:0.3;"/>
    <path clip-path="url(#pb06e9f4cf7)" d="M 159.531123 176.028454 
L 162.76805 175.017635 
L 157.092398 174.087582 
L 153.835219 175.076949 
z
" style="fill:#0c2f48;fill-opacity:0.3;"/>
    <path clip-path="url(#pb06e9f4cf7)" d="M 130.152314 170.605714 
L 133.563295 171.128987 
L 127.956114 169.292263 
L 124.519629 168.745494 
z
" style="fill:#0d324b;fill-opacity:0.3;"/>
    <path clip-path="url(#pb06e9f4cf7)" d="M 174.222283 176.222694 
L 177.392978 174.457831 
L 171.665654 173.986509 
L 168.477265 175.729907 
z
" style="fill:#0c2d44;fill-opacity:0.3;"/>
    <path clip-path="url(#pb06e9f4cf7)" d="M 197.91673 172.002759 
L 201.007784 168.760367 
L 195.18641 169.002802 
L 192.082617 172.221234 
z
" style="fill:#114061;fill-opacity:0.3;"/>
    <path clip-path="url(#pb06e9f4cf7)" d="M 150.541003 175.347393 
L 153.835219 175.076949 
L 148.170511 173.908299 
L 144.853619 174.157695 
z
" style="fill:#0d3049;fill-opacity:0.3;"/>
    <path clip-path="url(#pb06e9f4cf7)" d="M 188.964692 174.736556 
L 192.082617 172.221234 
L 186.291618 172.215376 
L 183.158545 174.708529 
z
" style="fill:#0a273b;fill-opacity:0.3;"/>
    <path clip-path="url(#pb06e9f4cf7)" d="M 165.260436 176.761271 
L 168.477265 175.729907 
L 162.76805 175.017635 
L 159.531123 176.028454 
z
" style="fill:#0c2f47;fill-opacity:0.3;"/>
    <path clip-path="url(#pb06e9f4cf7)" d="M 135.809426 172.250122 
L 139.195097 172.751152 
L 133.563295 171.128987 
L 130.152314 170.605714 
z
" style="fill:#0d314b;fill-opacity:0.3;"/>
    <path clip-path="url(#pb06e9f4cf7)" d="M 180.005402 176.49412 
L 183.158545 174.708529 
L 177.392978 174.457831 
L 174.222283 176.222694 
z
" style="fill:#0b2c43;fill-opacity:0.3;"/>
    <path clip-path="url(#pb06e9f4cf7)" d="M 156.259431 176.31886 
L 159.531123 176.028454 
L 153.835219 175.076949 
L 150.541003 175.347393 
z
" style="fill:#0d3049;fill-opacity:0.3;"/>
    <path clip-path="url(#pb06e9f4cf7)" d="M 141.493085 173.67765 
L 144.853619 174.157695 
L 139.195097 172.751152 
L 135.809426 172.250122 
z
" style="fill:#0d314a;fill-opacity:0.3;"/>
    <path clip-path="url(#pb06e9f4cf7)" d="M 171.025416 177.273688 
L 174.222283 176.222694 
L 168.477265 175.729907 
L 165.260436 176.761271 
z
" style="fill:#0c2e46;fill-opacity:0.3;"/>
    <path clip-path="url(#pb06e9f4cf7)" d="M 194.81381 174.539688 
L 197.91673 172.002759 
L 192.082617 172.221234 
L 188.964692 174.736556 
z
" style="fill:#0a273a;fill-opacity:0.3;"/>
    <path clip-path="url(#pb06e9f4cf7)" d="M 185.82897 176.542133 
L 188.964692 174.736556 
L 183.158545 174.708529 
L 180.005402 176.49412 
z
" style="fill:#0b2b42;fill-opacity:0.3;"/>
    <path clip-path="url(#pb06e9f4cf7)" d="M 162.011132 177.070547 
L 165.260436 176.761271 
L 159.531123 176.028454 
L 156.259431 176.31886 
z
" style="fill:#0c3048;fill-opacity:0.3;"/>
    <path clip-path="url(#pb06e9f4cf7)" d="M 147.20545 174.887068 
L 150.541003 175.347393 
L 144.853619 174.157695 
L 141.493085 173.67765 
z
" style="fill:#0d314a;fill-opacity:0.3;"/>
    <path clip-path="url(#pb06e9f4cf7)" d="M 176.828375 177.563823 
L 180.005402 176.49412 
L 174.222283 176.222694 
L 171.025416 177.273688 
z
" style="fill:#0c2e45;fill-opacity:0.3;"/>
    <path clip-path="url(#pb06e9f4cf7)" d="M 191.695397 176.364501 
L 194.81381 174.539688 
L 188.964692 174.736556 
L 185.82897 176.542133 
z
" style="fill:#0b2b41;fill-opacity:0.3;"/>
    <path clip-path="url(#pb06e9f4cf7)" d="M 152.948724 175.876986 
L 156.259431 176.31886 
L 150.541003 175.347393 
L 147.20545 174.887068 
z
" style="fill:#0d3049;fill-opacity:0.3;"/>
    <path clip-path="url(#pb06e9f4cf7)" d="M 167.798385 177.600736 
L 171.025416 177.273688 
L 165.260436 176.761271 
L 162.011132 177.070547 
z
" style="fill:#0c2f47;fill-opacity:0.3;"/>
    <path clip-path="url(#pb06e9f4cf7)" d="M 182.67168 177.629615 
L 185.82897 176.542133 
L 180.005402 176.49412 
L 176.828375 177.563823 
z
" style="fill:#0c2d45;fill-opacity:0.3;"/>
    <path clip-path="url(#pb06e9f4cf7)" d="M 158.725157 176.645844 
L 162.011132 177.070547 
L 156.259431 176.31886 
L 152.948724 175.876986 
z
" style="fill:#0d3049;fill-opacity:0.3;"/>
    <path clip-path="url(#pb06e9f4cf7)" d="M 173.62352 177.907532 
L 176.828375 177.563823 
L 171.025416 177.273688 
L 167.798385 177.600736 
z
" style="fill:#0c2f47;fill-opacity:0.3;"/>
    <path clip-path="url(#pb06e9f4cf7)" d="M 188.557758 177.468823 
L 191.695397 176.364501 
L 185.82897 176.542133 
L 182.67168 177.629615 
z
" style="fill:#0c2d44;fill-opacity:0.3;"/>
    <path clip-path="url(#pb06e9f4cf7)" d="M 164.537046 177.191912 
L 167.798385 177.600736 
L 162.011132 177.070547 
L 158.725157 176.645844 
z
" style="fill:#0c3048;fill-opacity:0.3;"/>
    <path clip-path="url(#pb06e9f4cf7)" d="M 179.488923 177.988864 
L 182.67168 177.629615 
L 176.828375 177.563823 
L 173.62352 177.907532 
z
" style="fill:#0c2e46;fill-opacity:0.3;"/>
    <path clip-path="url(#pb06e9f4cf7)" d="M 170.386744 177.513283 
L 173.62352 177.907532 
L 167.798385 177.600736 
L 164.537046 177.191912 
z
" style="fill:#0c2f48;fill-opacity:0.3;"/>
    <path clip-path="url(#pb06e9f4cf7)" d="M 185.397041 177.842477 
L 188.557758 177.468823 
L 182.67168 177.629615 
L 179.488923 177.988864 
z
" style="fill:#0c2e46;fill-opacity:0.3;"/>
    <path clip-path="url(#pb06e9f4cf7)" d="M 176.276658 177.60787 
L 179.488923 177.988864 
L 173.62352 177.907532 
L 170.386744 177.513283 
z
" style="fill:#0c2f47;fill-opacity:0.3;"/>
    <path clip-path="url(#pb06e9f4cf7)" d="M 182.209257 177.473399 
L 185.397041 177.842477 
L 179.488923 177.988864 
L 176.276658 177.60787 
z
" style="fill:#0c2f47;fill-opacity:0.3;"/>
   </g>
  </g>
 </g>
 <defs>
  <clipPath id="pb06e9f4cf7">
   <rect height="217.44" width="217.44" x="46.978877" y="7.2"/>
  </clipPath>
 </defs>
</svg>
