<?xml version="1.0" encoding="utf-8" standalone="no"?>
<!DOCTYPE svg PUBLIC "-//W3C//DTD SVG 1.1//EN"
  "http://www.w3.org/Graphics/SVG/1.1/DTD/svg11.dtd">
<svg height="293.655187pt" version="1.1" viewBox="0 0 439.036875 293.655187" width="439.036875pt" xmlns="http://www.w3.org/2000/svg" xmlns:xlink="http://www.w3.org/1999/xlink">
 <metadata>
  <rdf:RDF xmlns:cc="http://creativecommons.org/ns#" xmlns:dc="http://purl.org/dc/elements/1.1/" xmlns:rdf="http://www.w3.org/1999/02/22-rdf-syntax-ns#">
   <cc:Work>
    <dc:type rdf:resource="http://purl.org/dc/dcmitype/StillImage"/>
    <dc:date>2021-09-02T22:19:11.976453</dc:date>
    <dc:format>image/svg+xml</dc:format>
    <dc:creator>
     <cc:Agent>
      <dc:title>Matplotlib v3.4.3, https://matplotlib.org/</dc:title>
     </cc:Agent>
    </dc:creator>
   </cc:Work>
  </rdf:RDF>
 </metadata>
 <defs>
  <style type="text/css">*{stroke-linecap:butt;stroke-linejoin:round;}</style>
 </defs>
 <g id="figure_1">
  <g id="patch_1">
   <path d="M -0 293.655187 
L 439.036875 293.655187 
L 439.036875 0 
L -0 0 
z
" style="fill:#ffffff;"/>
  </g>
  <g id="axes_1">
   <g id="patch_2">
    <path d="M 52.118437 253.1955 
L 386.918437 253.1955 
L 386.918437 35.7555 
L 52.118437 35.7555 
z
" style="fill:#eaeaf2;"/>
   </g>
   <g id="matplotlib.axis_1">
    <g id="xtick_1">
     <g id="line2d_1">
      <path clip-path="url(#p650ed26275)" d="M 52.118437 253.1955 
L 52.118437 35.7555 
" style="fill:none;stroke:#ffffff;stroke-linecap:round;stroke-width:0.8;"/>
     </g>
     <g id="text_1">
      <!-- −4 -->
      <g style="fill:#262626;" transform="translate(44.747344 267.793937)scale(0.1 -0.1)">
       <defs>
        <path d="M 678 2272 
L 4684 2272 
L 4684 1741 
L 678 1741 
L 678 2272 
z
" id="DejaVuSans-2212" transform="scale(0.015625)"/>
        <path d="M 2419 4116 
L 825 1625 
L 2419 1625 
L 2419 4116 
z
M 2253 4666 
L 3047 4666 
L 3047 1625 
L 3713 1625 
L 3713 1100 
L 3047 1100 
L 3047 0 
L 2419 0 
L 2419 1100 
L 313 1100 
L 313 1709 
L 2253 4666 
z
" id="DejaVuSans-34" transform="scale(0.015625)"/>
       </defs>
       <use xlink:href="#DejaVuSans-2212"/>
       <use x="83.789062" xlink:href="#DejaVuSans-34"/>
      </g>
     </g>
    </g>
    <g id="xtick_2">
     <g id="line2d_2">
      <path clip-path="url(#p650ed26275)" d="M 93.968437 253.1955 
L 93.968437 35.7555 
" style="fill:none;stroke:#ffffff;stroke-linecap:round;stroke-width:0.8;"/>
     </g>
     <g id="text_2">
      <!-- −3 -->
      <g style="fill:#262626;" transform="translate(86.597344 267.793937)scale(0.1 -0.1)">
       <defs>
        <path d="M 2597 2516 
Q 3050 2419 3304 2112 
Q 3559 1806 3559 1356 
Q 3559 666 3084 287 
Q 2609 -91 1734 -91 
Q 1441 -91 1130 -33 
Q 819 25 488 141 
L 488 750 
Q 750 597 1062 519 
Q 1375 441 1716 441 
Q 2309 441 2620 675 
Q 2931 909 2931 1356 
Q 2931 1769 2642 2001 
Q 2353 2234 1838 2234 
L 1294 2234 
L 1294 2753 
L 1863 2753 
Q 2328 2753 2575 2939 
Q 2822 3125 2822 3475 
Q 2822 3834 2567 4026 
Q 2313 4219 1838 4219 
Q 1578 4219 1281 4162 
Q 984 4106 628 3988 
L 628 4550 
Q 988 4650 1302 4700 
Q 1616 4750 1894 4750 
Q 2613 4750 3031 4423 
Q 3450 4097 3450 3541 
Q 3450 3153 3228 2886 
Q 3006 2619 2597 2516 
z
" id="DejaVuSans-33" transform="scale(0.015625)"/>
       </defs>
       <use xlink:href="#DejaVuSans-2212"/>
       <use x="83.789062" xlink:href="#DejaVuSans-33"/>
      </g>
     </g>
    </g>
    <g id="xtick_3">
     <g id="line2d_3">
      <path clip-path="url(#p650ed26275)" d="M 135.818438 253.1955 
L 135.818438 35.7555 
" style="fill:none;stroke:#ffffff;stroke-linecap:round;stroke-width:0.8;"/>
     </g>
     <g id="text_3">
      <!-- −2 -->
      <g style="fill:#262626;" transform="translate(128.447344 267.793937)scale(0.1 -0.1)">
       <defs>
        <path d="M 1228 531 
L 3431 531 
L 3431 0 
L 469 0 
L 469 531 
Q 828 903 1448 1529 
Q 2069 2156 2228 2338 
Q 2531 2678 2651 2914 
Q 2772 3150 2772 3378 
Q 2772 3750 2511 3984 
Q 2250 4219 1831 4219 
Q 1534 4219 1204 4116 
Q 875 4013 500 3803 
L 500 4441 
Q 881 4594 1212 4672 
Q 1544 4750 1819 4750 
Q 2544 4750 2975 4387 
Q 3406 4025 3406 3419 
Q 3406 3131 3298 2873 
Q 3191 2616 2906 2266 
Q 2828 2175 2409 1742 
Q 1991 1309 1228 531 
z
" id="DejaVuSans-32" transform="scale(0.015625)"/>
       </defs>
       <use xlink:href="#DejaVuSans-2212"/>
       <use x="83.789062" xlink:href="#DejaVuSans-32"/>
      </g>
     </g>
    </g>
    <g id="xtick_4">
     <g id="line2d_4">
      <path clip-path="url(#p650ed26275)" d="M 177.668438 253.1955 
L 177.668438 35.7555 
" style="fill:none;stroke:#ffffff;stroke-linecap:round;stroke-width:0.8;"/>
     </g>
     <g id="text_4">
      <!-- −1 -->
      <g style="fill:#262626;" transform="translate(170.297344 267.793937)scale(0.1 -0.1)">
       <defs>
        <path d="M 794 531 
L 1825 531 
L 1825 4091 
L 703 3866 
L 703 4441 
L 1819 4666 
L 2450 4666 
L 2450 531 
L 3481 531 
L 3481 0 
L 794 0 
L 794 531 
z
" id="DejaVuSans-31" transform="scale(0.015625)"/>
       </defs>
       <use xlink:href="#DejaVuSans-2212"/>
       <use x="83.789062" xlink:href="#DejaVuSans-31"/>
      </g>
     </g>
    </g>
    <g id="xtick_5">
     <g id="line2d_5">
      <path clip-path="url(#p650ed26275)" d="M 219.518438 253.1955 
L 219.518438 35.7555 
" style="fill:none;stroke:#ffffff;stroke-linecap:round;stroke-width:0.8;"/>
     </g>
     <g id="text_5">
      <!-- 0 -->
      <g style="fill:#262626;" transform="translate(216.337187 267.793937)scale(0.1 -0.1)">
       <defs>
        <path d="M 2034 4250 
Q 1547 4250 1301 3770 
Q 1056 3291 1056 2328 
Q 1056 1369 1301 889 
Q 1547 409 2034 409 
Q 2525 409 2770 889 
Q 3016 1369 3016 2328 
Q 3016 3291 2770 3770 
Q 2525 4250 2034 4250 
z
M 2034 4750 
Q 2819 4750 3233 4129 
Q 3647 3509 3647 2328 
Q 3647 1150 3233 529 
Q 2819 -91 2034 -91 
Q 1250 -91 836 529 
Q 422 1150 422 2328 
Q 422 3509 836 4129 
Q 1250 4750 2034 4750 
z
" id="DejaVuSans-30" transform="scale(0.015625)"/>
       </defs>
       <use xlink:href="#DejaVuSans-30"/>
      </g>
     </g>
    </g>
    <g id="xtick_6">
     <g id="line2d_6">
      <path clip-path="url(#p650ed26275)" d="M 261.368438 253.1955 
L 261.368438 35.7555 
" style="fill:none;stroke:#ffffff;stroke-linecap:round;stroke-width:0.8;"/>
     </g>
     <g id="text_6">
      <!-- 1 -->
      <g style="fill:#262626;" transform="translate(258.187188 267.793937)scale(0.1 -0.1)">
       <use xlink:href="#DejaVuSans-31"/>
      </g>
     </g>
    </g>
    <g id="xtick_7">
     <g id="line2d_7">
      <path clip-path="url(#p650ed26275)" d="M 303.218437 253.1955 
L 303.218437 35.7555 
" style="fill:none;stroke:#ffffff;stroke-linecap:round;stroke-width:0.8;"/>
     </g>
     <g id="text_7">
      <!-- 2 -->
      <g style="fill:#262626;" transform="translate(300.037188 267.793937)scale(0.1 -0.1)">
       <use xlink:href="#DejaVuSans-32"/>
      </g>
     </g>
    </g>
    <g id="xtick_8">
     <g id="line2d_8">
      <path clip-path="url(#p650ed26275)" d="M 345.068438 253.1955 
L 345.068438 35.7555 
" style="fill:none;stroke:#ffffff;stroke-linecap:round;stroke-width:0.8;"/>
     </g>
     <g id="text_8">
      <!-- 3 -->
      <g style="fill:#262626;" transform="translate(341.887188 267.793937)scale(0.1 -0.1)">
       <use xlink:href="#DejaVuSans-33"/>
      </g>
     </g>
    </g>
    <g id="xtick_9">
     <g id="line2d_9">
      <path clip-path="url(#p650ed26275)" d="M 386.918437 253.1955 
L 386.918437 35.7555 
" style="fill:none;stroke:#ffffff;stroke-linecap:round;stroke-width:0.8;"/>
     </g>
     <g id="text_9">
      <!-- 4 -->
      <g style="fill:#262626;" transform="translate(383.737188 267.793937)scale(0.1 -0.1)">
       <use xlink:href="#DejaVuSans-34"/>
      </g>
     </g>
    </g>
    <g id="text_10">
     <!-- $x$ -->
     <g style="fill:#262626;" transform="translate(215.618437 283.751594)scale(0.13 -0.13)">
      <defs>
       <path d="M 3841 3500 
L 2234 1784 
L 3219 0 
L 2559 0 
L 1819 1388 
L 531 0 
L -166 0 
L 1556 1844 
L 641 3500 
L 1300 3500 
L 1972 2234 
L 3144 3500 
L 3841 3500 
z
" id="DejaVuSans-Oblique-78" transform="scale(0.015625)"/>
      </defs>
      <use transform="translate(0 0.3125)" xlink:href="#DejaVuSans-Oblique-78"/>
     </g>
    </g>
   </g>
   <g id="matplotlib.axis_2">
    <g id="ytick_1">
     <g id="line2d_10">
      <path clip-path="url(#p650ed26275)" d="M 52.118437 227.47656 
L 386.918437 227.47656 
" style="fill:none;stroke:#ffffff;stroke-linecap:round;stroke-width:0.8;"/>
     </g>
     <g id="text_11">
      <!-- −2 -->
      <g style="fill:#262626;" transform="translate(30.37625 231.275779)scale(0.1 -0.1)">
       <use xlink:href="#DejaVuSans-2212"/>
       <use x="83.789062" xlink:href="#DejaVuSans-32"/>
      </g>
     </g>
    </g>
    <g id="ytick_2">
     <g id="line2d_11">
      <path clip-path="url(#p650ed26275)" d="M 52.118437 182.075293 
L 386.918437 182.075293 
" style="fill:none;stroke:#ffffff;stroke-linecap:round;stroke-width:0.8;"/>
     </g>
     <g id="text_12">
      <!-- −1 -->
      <g style="fill:#262626;" transform="translate(30.37625 185.874511)scale(0.1 -0.1)">
       <use xlink:href="#DejaVuSans-2212"/>
       <use x="83.789062" xlink:href="#DejaVuSans-31"/>
      </g>
     </g>
    </g>
    <g id="ytick_3">
     <g id="line2d_12">
      <path clip-path="url(#p650ed26275)" d="M 52.118437 136.674025 
L 386.918437 136.674025 
" style="fill:none;stroke:#ffffff;stroke-linecap:round;stroke-width:0.8;"/>
     </g>
     <g id="text_13">
      <!-- 0 -->
      <g style="fill:#262626;" transform="translate(38.755937 140.473244)scale(0.1 -0.1)">
       <use xlink:href="#DejaVuSans-30"/>
      </g>
     </g>
    </g>
    <g id="ytick_4">
     <g id="line2d_13">
      <path clip-path="url(#p650ed26275)" d="M 52.118437 91.272757 
L 386.918437 91.272757 
" style="fill:none;stroke:#ffffff;stroke-linecap:round;stroke-width:0.8;"/>
     </g>
     <g id="text_14">
      <!-- 1 -->
      <g style="fill:#262626;" transform="translate(38.755937 95.071976)scale(0.1 -0.1)">
       <use xlink:href="#DejaVuSans-31"/>
      </g>
     </g>
    </g>
    <g id="ytick_5">
     <g id="line2d_14">
      <path clip-path="url(#p650ed26275)" d="M 52.118437 45.87149 
L 386.918437 45.87149 
" style="fill:none;stroke:#ffffff;stroke-linecap:round;stroke-width:0.8;"/>
     </g>
     <g id="text_15">
      <!-- 2 -->
      <g style="fill:#262626;" transform="translate(38.755937 49.670709)scale(0.1 -0.1)">
       <use xlink:href="#DejaVuSans-32"/>
      </g>
     </g>
    </g>
    <g id="text_16">
     <!-- $y = f(x)$ -->
     <g style="fill:#262626;" transform="translate(23.64625 167.5505)rotate(-90)scale(0.13 -0.13)">
      <defs>
       <path d="M 1588 -325 
Q 1188 -997 936 -1164 
Q 684 -1331 294 -1331 
L -159 -1331 
L -63 -850 
L 269 -850 
Q 509 -850 678 -719 
Q 847 -588 1056 -206 
L 1234 128 
L 459 3500 
L 1069 3500 
L 1650 819 
L 3256 3500 
L 3859 3500 
L 1588 -325 
z
" id="DejaVuSans-Oblique-79" transform="scale(0.015625)"/>
       <path d="M 678 2906 
L 4684 2906 
L 4684 2381 
L 678 2381 
L 678 2906 
z
M 678 1631 
L 4684 1631 
L 4684 1100 
L 678 1100 
L 678 1631 
z
" id="DejaVuSans-3d" transform="scale(0.015625)"/>
       <path d="M 3059 4863 
L 2969 4384 
L 2419 4384 
Q 2106 4384 1964 4261 
Q 1822 4138 1753 3809 
L 1691 3500 
L 2638 3500 
L 2553 3053 
L 1606 3053 
L 1013 0 
L 434 0 
L 1031 3053 
L 481 3053 
L 563 3500 
L 1113 3500 
L 1159 3744 
Q 1278 4363 1576 4613 
Q 1875 4863 2516 4863 
L 3059 4863 
z
" id="DejaVuSans-Oblique-66" transform="scale(0.015625)"/>
       <path d="M 1984 4856 
Q 1566 4138 1362 3434 
Q 1159 2731 1159 2009 
Q 1159 1288 1364 580 
Q 1569 -128 1984 -844 
L 1484 -844 
Q 1016 -109 783 600 
Q 550 1309 550 2009 
Q 550 2706 781 3412 
Q 1013 4119 1484 4856 
L 1984 4856 
z
" id="DejaVuSans-28" transform="scale(0.015625)"/>
       <path d="M 513 4856 
L 1013 4856 
Q 1481 4119 1714 3412 
Q 1947 2706 1947 2009 
Q 1947 1309 1714 600 
Q 1481 -109 1013 -844 
L 513 -844 
Q 928 -128 1133 580 
Q 1338 1288 1338 2009 
Q 1338 2731 1133 3434 
Q 928 4138 513 4856 
z
" id="DejaVuSans-29" transform="scale(0.015625)"/>
      </defs>
      <use transform="translate(0 0.015625)" xlink:href="#DejaVuSans-Oblique-79"/>
      <use transform="translate(78.662109 0.015625)" xlink:href="#DejaVuSans-3d"/>
      <use transform="translate(181.933594 0.015625)" xlink:href="#DejaVuSans-Oblique-66"/>
      <use transform="translate(217.138672 0.015625)" xlink:href="#DejaVuSans-28"/>
      <use transform="translate(256.152344 0.015625)" xlink:href="#DejaVuSans-Oblique-78"/>
      <use transform="translate(315.332031 0.015625)" xlink:href="#DejaVuSans-29"/>
     </g>
    </g>
   </g>
   <g id="line2d_15">
    <path clip-path="url(#p650ed26275)" d="M 52.118437 74.331992 
L 60.488438 80.454497 
L 68.858438 88.193005 
L 77.228438 97.784932 
L 85.598437 109.650584 
L 93.968437 123.996611 
L 102.338438 140.463074 
L 110.708438 158.009203 
L 119.078438 175.099964 
L 127.448437 190.102438 
L 135.818438 201.713737 
L 144.188438 209.249958 
L 152.558438 212.704554 
L 160.928438 212.589038 
L 169.298438 209.654719 
L 177.668438 204.631256 
L 186.038438 198.096903 
L 194.408438 190.529623 
L 202.778437 182.504036 
L 211.148438 174.923707 
L 219.518438 169.137378 
L 227.888438 166.80511 
L 236.258438 169.469592 
L 244.628438 177.931358 
L 252.998438 191.664621 
L 261.368438 208.565229 
L 269.738438 225.242253 
L 278.108438 237.862528 
L 286.478438 243.311864 
L 294.848438 240.258436 
L 303.218437 229.687091 
L 311.588437 214.647254 
L 319.958438 199.264612 
L 328.328438 187.376621 
L 336.698438 181.316848 
L 345.068438 181.307658 
L 353.438438 185.652375 
L 361.808438 191.578399 
L 370.178438 196.334827 
L 378.548438 198.097462 
L 386.918437 196.377524 
" style="fill:none;stroke:#1f77b4;stroke-linecap:round;stroke-width:1.5;"/>
    <defs>
     <path d="M 0 1.5 
C 0.397805 1.5 0.77937 1.341951 1.06066 1.06066 
C 1.341951 0.77937 1.5 0.397805 1.5 0 
C 1.5 -0.397805 1.341951 -0.77937 1.06066 -1.06066 
C 0.77937 -1.341951 0.397805 -1.5 0 -1.5 
C -0.397805 -1.5 -0.77937 -1.341951 -1.06066 -1.06066 
C -1.341951 -0.77937 -1.5 -0.397805 -1.5 0 
C -1.5 0.397805 -1.341951 0.77937 -1.06066 1.06066 
C -0.77937 1.341951 -0.397805 1.5 0 1.5 
z
" id="m6afcffe27e" style="stroke:#1f77b4;"/>
    </defs>
    <g clip-path="url(#p650ed26275)">
     <use style="fill:#1f77b4;stroke:#1f77b4;" x="52.118437" xlink:href="#m6afcffe27e" y="74.331992"/>
     <use style="fill:#1f77b4;stroke:#1f77b4;" x="60.488438" xlink:href="#m6afcffe27e" y="80.454497"/>
     <use style="fill:#1f77b4;stroke:#1f77b4;" x="68.858438" xlink:href="#m6afcffe27e" y="88.193005"/>
     <use style="fill:#1f77b4;stroke:#1f77b4;" x="77.228438" xlink:href="#m6afcffe27e" y="97.784932"/>
     <use style="fill:#1f77b4;stroke:#1f77b4;" x="85.598437" xlink:href="#m6afcffe27e" y="109.650584"/>
     <use style="fill:#1f77b4;stroke:#1f77b4;" x="93.968437" xlink:href="#m6afcffe27e" y="123.996611"/>
     <use style="fill:#1f77b4;stroke:#1f77b4;" x="102.338438" xlink:href="#m6afcffe27e" y="140.463074"/>
     <use style="fill:#1f77b4;stroke:#1f77b4;" x="110.708438" xlink:href="#m6afcffe27e" y="158.009203"/>
     <use style="fill:#1f77b4;stroke:#1f77b4;" x="119.078438" xlink:href="#m6afcffe27e" y="175.099964"/>
     <use style="fill:#1f77b4;stroke:#1f77b4;" x="127.448437" xlink:href="#m6afcffe27e" y="190.102438"/>
     <use style="fill:#1f77b4;stroke:#1f77b4;" x="135.818438" xlink:href="#m6afcffe27e" y="201.713737"/>
     <use style="fill:#1f77b4;stroke:#1f77b4;" x="144.188438" xlink:href="#m6afcffe27e" y="209.249958"/>
     <use style="fill:#1f77b4;stroke:#1f77b4;" x="152.558438" xlink:href="#m6afcffe27e" y="212.704554"/>
     <use style="fill:#1f77b4;stroke:#1f77b4;" x="160.928438" xlink:href="#m6afcffe27e" y="212.589038"/>
     <use style="fill:#1f77b4;stroke:#1f77b4;" x="169.298438" xlink:href="#m6afcffe27e" y="209.654719"/>
     <use style="fill:#1f77b4;stroke:#1f77b4;" x="177.668438" xlink:href="#m6afcffe27e" y="204.631256"/>
     <use style="fill:#1f77b4;stroke:#1f77b4;" x="186.038438" xlink:href="#m6afcffe27e" y="198.096903"/>
     <use style="fill:#1f77b4;stroke:#1f77b4;" x="194.408438" xlink:href="#m6afcffe27e" y="190.529623"/>
     <use style="fill:#1f77b4;stroke:#1f77b4;" x="202.778437" xlink:href="#m6afcffe27e" y="182.504036"/>
     <use style="fill:#1f77b4;stroke:#1f77b4;" x="211.148438" xlink:href="#m6afcffe27e" y="174.923707"/>
     <use style="fill:#1f77b4;stroke:#1f77b4;" x="219.518438" xlink:href="#m6afcffe27e" y="169.137378"/>
     <use style="fill:#1f77b4;stroke:#1f77b4;" x="227.888438" xlink:href="#m6afcffe27e" y="166.80511"/>
     <use style="fill:#1f77b4;stroke:#1f77b4;" x="236.258438" xlink:href="#m6afcffe27e" y="169.469592"/>
     <use style="fill:#1f77b4;stroke:#1f77b4;" x="244.628438" xlink:href="#m6afcffe27e" y="177.931358"/>
     <use style="fill:#1f77b4;stroke:#1f77b4;" x="252.998438" xlink:href="#m6afcffe27e" y="191.664621"/>
     <use style="fill:#1f77b4;stroke:#1f77b4;" x="261.368438" xlink:href="#m6afcffe27e" y="208.565229"/>
     <use style="fill:#1f77b4;stroke:#1f77b4;" x="269.738438" xlink:href="#m6afcffe27e" y="225.242253"/>
     <use style="fill:#1f77b4;stroke:#1f77b4;" x="278.108438" xlink:href="#m6afcffe27e" y="237.862528"/>
     <use style="fill:#1f77b4;stroke:#1f77b4;" x="286.478438" xlink:href="#m6afcffe27e" y="243.311864"/>
     <use style="fill:#1f77b4;stroke:#1f77b4;" x="294.848438" xlink:href="#m6afcffe27e" y="240.258436"/>
     <use style="fill:#1f77b4;stroke:#1f77b4;" x="303.218437" xlink:href="#m6afcffe27e" y="229.687091"/>
     <use style="fill:#1f77b4;stroke:#1f77b4;" x="311.588437" xlink:href="#m6afcffe27e" y="214.647254"/>
     <use style="fill:#1f77b4;stroke:#1f77b4;" x="319.958438" xlink:href="#m6afcffe27e" y="199.264612"/>
     <use style="fill:#1f77b4;stroke:#1f77b4;" x="328.328438" xlink:href="#m6afcffe27e" y="187.376621"/>
     <use style="fill:#1f77b4;stroke:#1f77b4;" x="336.698438" xlink:href="#m6afcffe27e" y="181.316848"/>
     <use style="fill:#1f77b4;stroke:#1f77b4;" x="345.068438" xlink:href="#m6afcffe27e" y="181.307658"/>
     <use style="fill:#1f77b4;stroke:#1f77b4;" x="353.438438" xlink:href="#m6afcffe27e" y="185.652375"/>
     <use style="fill:#1f77b4;stroke:#1f77b4;" x="361.808438" xlink:href="#m6afcffe27e" y="191.578399"/>
     <use style="fill:#1f77b4;stroke:#1f77b4;" x="370.178438" xlink:href="#m6afcffe27e" y="196.334827"/>
     <use style="fill:#1f77b4;stroke:#1f77b4;" x="378.548438" xlink:href="#m6afcffe27e" y="198.097462"/>
     <use style="fill:#1f77b4;stroke:#1f77b4;" x="386.918437" xlink:href="#m6afcffe27e" y="196.377524"/>
    </g>
   </g>
   <g id="line2d_16">
    <path clip-path="url(#p650ed26275)" d="M 52.118437 193.791674 
L 60.488438 192.691586 
L 68.858438 191.019134 
L 77.228438 189.813542 
L 85.598437 189.844858 
L 93.968437 191.546226 
L 102.338438 195.054371 
L 110.708438 200.229414 
L 119.078438 206.589995 
L 127.448437 213.231127 
L 135.818438 218.870318 
L 144.188438 222.114249 
L 152.558438 221.884445 
L 160.928438 217.803069 
L 169.298438 210.328532 
L 177.668438 200.561218 
L 186.038438 189.82334 
L 194.408438 179.229177 
L 202.778437 169.435948 
L 211.148438 160.633538 
L 219.518438 152.694041 
L 227.888438 145.350077 
L 236.258438 138.319385 
L 244.628438 131.379162 
L 252.998438 124.434339 
L 261.368438 117.591118 
L 269.738438 111.188093 
L 278.108438 105.726355 
L 286.478438 101.699665 
L 294.848438 99.403044 
L 303.218437 98.817394 
L 311.588437 99.609929 
L 319.958438 101.215321 
L 328.328438 102.943727 
L 336.698438 104.10748 
L 345.068438 104.200029 
L 353.438438 103.131194 
L 361.808438 101.432605 
L 370.178438 100.286389 
L 378.548438 101.277208 
L 386.918437 105.912815 
" style="fill:none;stroke:#ff7f0e;stroke-linecap:round;stroke-width:1.5;"/>
    <defs>
     <path d="M 0 1.5 
C 0.397805 1.5 0.77937 1.341951 1.06066 1.06066 
C 1.341951 0.77937 1.5 0.397805 1.5 0 
C 1.5 -0.397805 1.341951 -0.77937 1.06066 -1.06066 
C 0.77937 -1.341951 0.397805 -1.5 0 -1.5 
C -0.397805 -1.5 -0.77937 -1.341951 -1.06066 -1.06066 
C -1.341951 -0.77937 -1.5 -0.397805 -1.5 0 
C -1.5 0.397805 -1.341951 0.77937 -1.06066 1.06066 
C -0.77937 1.341951 -0.397805 1.5 0 1.5 
z
" id="mb545328b53" style="stroke:#ff7f0e;"/>
    </defs>
    <g clip-path="url(#p650ed26275)">
     <use style="fill:#ff7f0e;stroke:#ff7f0e;" x="52.118437" xlink:href="#mb545328b53" y="193.791674"/>
     <use style="fill:#ff7f0e;stroke:#ff7f0e;" x="60.488438" xlink:href="#mb545328b53" y="192.691586"/>
     <use style="fill:#ff7f0e;stroke:#ff7f0e;" x="68.858438" xlink:href="#mb545328b53" y="191.019134"/>
     <use style="fill:#ff7f0e;stroke:#ff7f0e;" x="77.228438" xlink:href="#mb545328b53" y="189.813542"/>
     <use style="fill:#ff7f0e;stroke:#ff7f0e;" x="85.598437" xlink:href="#mb545328b53" y="189.844858"/>
     <use style="fill:#ff7f0e;stroke:#ff7f0e;" x="93.968437" xlink:href="#mb545328b53" y="191.546226"/>
     <use style="fill:#ff7f0e;stroke:#ff7f0e;" x="102.338438" xlink:href="#mb545328b53" y="195.054371"/>
     <use style="fill:#ff7f0e;stroke:#ff7f0e;" x="110.708438" xlink:href="#mb545328b53" y="200.229414"/>
     <use style="fill:#ff7f0e;stroke:#ff7f0e;" x="119.078438" xlink:href="#mb545328b53" y="206.589995"/>
     <use style="fill:#ff7f0e;stroke:#ff7f0e;" x="127.448437" xlink:href="#mb545328b53" y="213.231127"/>
     <use style="fill:#ff7f0e;stroke:#ff7f0e;" x="135.818438" xlink:href="#mb545328b53" y="218.870318"/>
     <use style="fill:#ff7f0e;stroke:#ff7f0e;" x="144.188438" xlink:href="#mb545328b53" y="222.114249"/>
     <use style="fill:#ff7f0e;stroke:#ff7f0e;" x="152.558438" xlink:href="#mb545328b53" y="221.884445"/>
     <use style="fill:#ff7f0e;stroke:#ff7f0e;" x="160.928438" xlink:href="#mb545328b53" y="217.803069"/>
     <use style="fill:#ff7f0e;stroke:#ff7f0e;" x="169.298438" xlink:href="#mb545328b53" y="210.328532"/>
     <use style="fill:#ff7f0e;stroke:#ff7f0e;" x="177.668438" xlink:href="#mb545328b53" y="200.561218"/>
     <use style="fill:#ff7f0e;stroke:#ff7f0e;" x="186.038438" xlink:href="#mb545328b53" y="189.82334"/>
     <use style="fill:#ff7f0e;stroke:#ff7f0e;" x="194.408438" xlink:href="#mb545328b53" y="179.229177"/>
     <use style="fill:#ff7f0e;stroke:#ff7f0e;" x="202.778437" xlink:href="#mb545328b53" y="169.435948"/>
     <use style="fill:#ff7f0e;stroke:#ff7f0e;" x="211.148438" xlink:href="#mb545328b53" y="160.633538"/>
     <use style="fill:#ff7f0e;stroke:#ff7f0e;" x="219.518438" xlink:href="#mb545328b53" y="152.694041"/>
     <use style="fill:#ff7f0e;stroke:#ff7f0e;" x="227.888438" xlink:href="#mb545328b53" y="145.350077"/>
     <use style="fill:#ff7f0e;stroke:#ff7f0e;" x="236.258438" xlink:href="#mb545328b53" y="138.319385"/>
     <use style="fill:#ff7f0e;stroke:#ff7f0e;" x="244.628438" xlink:href="#mb545328b53" y="131.379162"/>
     <use style="fill:#ff7f0e;stroke:#ff7f0e;" x="252.998438" xlink:href="#mb545328b53" y="124.434339"/>
     <use style="fill:#ff7f0e;stroke:#ff7f0e;" x="261.368438" xlink:href="#mb545328b53" y="117.591118"/>
     <use style="fill:#ff7f0e;stroke:#ff7f0e;" x="269.738438" xlink:href="#mb545328b53" y="111.188093"/>
     <use style="fill:#ff7f0e;stroke:#ff7f0e;" x="278.108438" xlink:href="#mb545328b53" y="105.726355"/>
     <use style="fill:#ff7f0e;stroke:#ff7f0e;" x="286.478438" xlink:href="#mb545328b53" y="101.699665"/>
     <use style="fill:#ff7f0e;stroke:#ff7f0e;" x="294.848438" xlink:href="#mb545328b53" y="99.403044"/>
     <use style="fill:#ff7f0e;stroke:#ff7f0e;" x="303.218437" xlink:href="#mb545328b53" y="98.817394"/>
     <use style="fill:#ff7f0e;stroke:#ff7f0e;" x="311.588437" xlink:href="#mb545328b53" y="99.609929"/>
     <use style="fill:#ff7f0e;stroke:#ff7f0e;" x="319.958438" xlink:href="#mb545328b53" y="101.215321"/>
     <use style="fill:#ff7f0e;stroke:#ff7f0e;" x="328.328438" xlink:href="#mb545328b53" y="102.943727"/>
     <use style="fill:#ff7f0e;stroke:#ff7f0e;" x="336.698438" xlink:href="#mb545328b53" y="104.10748"/>
     <use style="fill:#ff7f0e;stroke:#ff7f0e;" x="345.068438" xlink:href="#mb545328b53" y="104.200029"/>
     <use style="fill:#ff7f0e;stroke:#ff7f0e;" x="353.438438" xlink:href="#mb545328b53" y="103.131194"/>
     <use style="fill:#ff7f0e;stroke:#ff7f0e;" x="361.808438" xlink:href="#mb545328b53" y="101.432605"/>
     <use style="fill:#ff7f0e;stroke:#ff7f0e;" x="370.178438" xlink:href="#mb545328b53" y="100.286389"/>
     <use style="fill:#ff7f0e;stroke:#ff7f0e;" x="378.548438" xlink:href="#mb545328b53" y="101.277208"/>
     <use style="fill:#ff7f0e;stroke:#ff7f0e;" x="386.918437" xlink:href="#mb545328b53" y="105.912815"/>
    </g>
   </g>
   <g id="line2d_17">
    <path clip-path="url(#p650ed26275)" d="M 52.118437 85.703549 
L 60.488438 86.383365 
L 68.858438 89.400957 
L 77.228438 94.927026 
L 85.598437 102.968527 
L 93.968437 113.014006 
L 102.338438 123.898715 
L 110.708438 133.988754 
L 119.078438 141.613779 
L 127.448437 145.557827 
L 135.818438 145.395252 
L 144.188438 141.534745 
L 152.558438 134.973201 
L 160.928438 126.899373 
L 169.298438 118.353016 
L 177.668438 110.096181 
L 186.038438 102.714601 
L 194.408438 96.828798 
L 202.778437 93.24613 
L 211.148438 92.945465 
L 219.518438 96.892282 
L 227.888438 105.754704 
L 236.258438 119.609621 
L 244.628438 137.727135 
L 252.998438 158.527901 
L 261.368438 179.792305 
L 269.738438 199.117671 
L 278.108438 214.485231 
L 286.478438 224.704512 
L 294.848438 229.539136 
L 303.218437 229.479309 
L 311.588437 225.307015 
L 319.958438 217.685785 
L 328.328438 206.961663 
L 336.698438 193.23765 
L 345.068438 176.658278 
L 353.438438 157.761557 
L 361.808438 137.733132 
L 370.178438 118.428559 
L 378.548438 102.107733 
L 386.918437 90.934645 
" style="fill:none;stroke:#2ca02c;stroke-linecap:round;stroke-width:1.5;"/>
    <defs>
     <path d="M 0 1.5 
C 0.397805 1.5 0.77937 1.341951 1.06066 1.06066 
C 1.341951 0.77937 1.5 0.397805 1.5 0 
C 1.5 -0.397805 1.341951 -0.77937 1.06066 -1.06066 
C 0.77937 -1.341951 0.397805 -1.5 0 -1.5 
C -0.397805 -1.5 -0.77937 -1.341951 -1.06066 -1.06066 
C -1.341951 -0.77937 -1.5 -0.397805 -1.5 0 
C -1.5 0.397805 -1.341951 0.77937 -1.06066 1.06066 
C -0.77937 1.341951 -0.397805 1.5 0 1.5 
z
" id="m5a22a9f26f" style="stroke:#2ca02c;"/>
    </defs>
    <g clip-path="url(#p650ed26275)">
     <use style="fill:#2ca02c;stroke:#2ca02c;" x="52.118437" xlink:href="#m5a22a9f26f" y="85.703549"/>
     <use style="fill:#2ca02c;stroke:#2ca02c;" x="60.488438" xlink:href="#m5a22a9f26f" y="86.383365"/>
     <use style="fill:#2ca02c;stroke:#2ca02c;" x="68.858438" xlink:href="#m5a22a9f26f" y="89.400957"/>
     <use style="fill:#2ca02c;stroke:#2ca02c;" x="77.228438" xlink:href="#m5a22a9f26f" y="94.927026"/>
     <use style="fill:#2ca02c;stroke:#2ca02c;" x="85.598437" xlink:href="#m5a22a9f26f" y="102.968527"/>
     <use style="fill:#2ca02c;stroke:#2ca02c;" x="93.968437" xlink:href="#m5a22a9f26f" y="113.014006"/>
     <use style="fill:#2ca02c;stroke:#2ca02c;" x="102.338438" xlink:href="#m5a22a9f26f" y="123.898715"/>
     <use style="fill:#2ca02c;stroke:#2ca02c;" x="110.708438" xlink:href="#m5a22a9f26f" y="133.988754"/>
     <use style="fill:#2ca02c;stroke:#2ca02c;" x="119.078438" xlink:href="#m5a22a9f26f" y="141.613779"/>
     <use style="fill:#2ca02c;stroke:#2ca02c;" x="127.448437" xlink:href="#m5a22a9f26f" y="145.557827"/>
     <use style="fill:#2ca02c;stroke:#2ca02c;" x="135.818438" xlink:href="#m5a22a9f26f" y="145.395252"/>
     <use style="fill:#2ca02c;stroke:#2ca02c;" x="144.188438" xlink:href="#m5a22a9f26f" y="141.534745"/>
     <use style="fill:#2ca02c;stroke:#2ca02c;" x="152.558438" xlink:href="#m5a22a9f26f" y="134.973201"/>
     <use style="fill:#2ca02c;stroke:#2ca02c;" x="160.928438" xlink:href="#m5a22a9f26f" y="126.899373"/>
     <use style="fill:#2ca02c;stroke:#2ca02c;" x="169.298438" xlink:href="#m5a22a9f26f" y="118.353016"/>
     <use style="fill:#2ca02c;stroke:#2ca02c;" x="177.668438" xlink:href="#m5a22a9f26f" y="110.096181"/>
     <use style="fill:#2ca02c;stroke:#2ca02c;" x="186.038438" xlink:href="#m5a22a9f26f" y="102.714601"/>
     <use style="fill:#2ca02c;stroke:#2ca02c;" x="194.408438" xlink:href="#m5a22a9f26f" y="96.828798"/>
     <use style="fill:#2ca02c;stroke:#2ca02c;" x="202.778437" xlink:href="#m5a22a9f26f" y="93.24613"/>
     <use style="fill:#2ca02c;stroke:#2ca02c;" x="211.148438" xlink:href="#m5a22a9f26f" y="92.945465"/>
     <use style="fill:#2ca02c;stroke:#2ca02c;" x="219.518438" xlink:href="#m5a22a9f26f" y="96.892282"/>
     <use style="fill:#2ca02c;stroke:#2ca02c;" x="227.888438" xlink:href="#m5a22a9f26f" y="105.754704"/>
     <use style="fill:#2ca02c;stroke:#2ca02c;" x="236.258438" xlink:href="#m5a22a9f26f" y="119.609621"/>
     <use style="fill:#2ca02c;stroke:#2ca02c;" x="244.628438" xlink:href="#m5a22a9f26f" y="137.727135"/>
     <use style="fill:#2ca02c;stroke:#2ca02c;" x="252.998438" xlink:href="#m5a22a9f26f" y="158.527901"/>
     <use style="fill:#2ca02c;stroke:#2ca02c;" x="261.368438" xlink:href="#m5a22a9f26f" y="179.792305"/>
     <use style="fill:#2ca02c;stroke:#2ca02c;" x="269.738438" xlink:href="#m5a22a9f26f" y="199.117671"/>
     <use style="fill:#2ca02c;stroke:#2ca02c;" x="278.108438" xlink:href="#m5a22a9f26f" y="214.485231"/>
     <use style="fill:#2ca02c;stroke:#2ca02c;" x="286.478438" xlink:href="#m5a22a9f26f" y="224.704512"/>
     <use style="fill:#2ca02c;stroke:#2ca02c;" x="294.848438" xlink:href="#m5a22a9f26f" y="229.539136"/>
     <use style="fill:#2ca02c;stroke:#2ca02c;" x="303.218437" xlink:href="#m5a22a9f26f" y="229.479309"/>
     <use style="fill:#2ca02c;stroke:#2ca02c;" x="311.588437" xlink:href="#m5a22a9f26f" y="225.307015"/>
     <use style="fill:#2ca02c;stroke:#2ca02c;" x="319.958438" xlink:href="#m5a22a9f26f" y="217.685785"/>
     <use style="fill:#2ca02c;stroke:#2ca02c;" x="328.328438" xlink:href="#m5a22a9f26f" y="206.961663"/>
     <use style="fill:#2ca02c;stroke:#2ca02c;" x="336.698438" xlink:href="#m5a22a9f26f" y="193.23765"/>
     <use style="fill:#2ca02c;stroke:#2ca02c;" x="345.068438" xlink:href="#m5a22a9f26f" y="176.658278"/>
     <use style="fill:#2ca02c;stroke:#2ca02c;" x="353.438438" xlink:href="#m5a22a9f26f" y="157.761557"/>
     <use style="fill:#2ca02c;stroke:#2ca02c;" x="361.808438" xlink:href="#m5a22a9f26f" y="137.733132"/>
     <use style="fill:#2ca02c;stroke:#2ca02c;" x="370.178438" xlink:href="#m5a22a9f26f" y="118.428559"/>
     <use style="fill:#2ca02c;stroke:#2ca02c;" x="378.548438" xlink:href="#m5a22a9f26f" y="102.107733"/>
     <use style="fill:#2ca02c;stroke:#2ca02c;" x="386.918437" xlink:href="#m5a22a9f26f" y="90.934645"/>
    </g>
   </g>
   <g id="line2d_18">
    <path clip-path="url(#p650ed26275)" d="M 52.118437 103.175468 
L 60.488438 102.506216 
L 68.858438 102.667688 
L 77.228438 102.868422 
L 85.598437 102.375553 
L 93.968437 100.746842 
L 102.338438 98.100205 
L 110.708438 95.292178 
L 119.078438 93.827042 
L 127.448437 95.405419 
L 135.818438 101.224182 
L 144.188438 111.335688 
L 152.558438 124.418812 
L 160.928438 138.147347 
L 169.298438 150.037389 
L 177.668438 158.387063 
L 186.038438 162.857465 
L 194.408438 164.434473 
L 202.778437 164.845286 
L 211.148438 165.771304 
L 219.518438 168.241502 
L 227.888438 172.414685 
L 236.258438 177.71868 
L 244.628438 183.174281 
L 252.998438 187.736949 
L 261.368438 190.565787 
L 269.738438 191.186482 
L 278.108438 189.534982 
L 286.478438 185.891909 
L 294.848438 180.763302 
L 303.218437 174.790896 
L 311.588437 168.735171 
L 319.958438 163.482268 
L 328.328438 159.967017 
L 336.698438 158.954132 
L 345.068438 160.754594 
L 353.438438 165.056563 
L 361.808438 171.011234 
L 370.178438 177.544776 
L 378.548438 183.701155 
L 386.918437 188.799792 
" style="fill:none;stroke:#d62728;stroke-linecap:round;stroke-width:1.5;"/>
    <defs>
     <path d="M 0 1.5 
C 0.397805 1.5 0.77937 1.341951 1.06066 1.06066 
C 1.341951 0.77937 1.5 0.397805 1.5 0 
C 1.5 -0.397805 1.341951 -0.77937 1.06066 -1.06066 
C 0.77937 -1.341951 0.397805 -1.5 0 -1.5 
C -0.397805 -1.5 -0.77937 -1.341951 -1.06066 -1.06066 
C -1.341951 -0.77937 -1.5 -0.397805 -1.5 0 
C -1.5 0.397805 -1.341951 0.77937 -1.06066 1.06066 
C -0.77937 1.341951 -0.397805 1.5 0 1.5 
z
" id="m63715d07c2" style="stroke:#d62728;"/>
    </defs>
    <g clip-path="url(#p650ed26275)">
     <use style="fill:#d62728;stroke:#d62728;" x="52.118437" xlink:href="#m63715d07c2" y="103.175468"/>
     <use style="fill:#d62728;stroke:#d62728;" x="60.488438" xlink:href="#m63715d07c2" y="102.506216"/>
     <use style="fill:#d62728;stroke:#d62728;" x="68.858438" xlink:href="#m63715d07c2" y="102.667688"/>
     <use style="fill:#d62728;stroke:#d62728;" x="77.228438" xlink:href="#m63715d07c2" y="102.868422"/>
     <use style="fill:#d62728;stroke:#d62728;" x="85.598437" xlink:href="#m63715d07c2" y="102.375553"/>
     <use style="fill:#d62728;stroke:#d62728;" x="93.968437" xlink:href="#m63715d07c2" y="100.746842"/>
     <use style="fill:#d62728;stroke:#d62728;" x="102.338438" xlink:href="#m63715d07c2" y="98.100205"/>
     <use style="fill:#d62728;stroke:#d62728;" x="110.708438" xlink:href="#m63715d07c2" y="95.292178"/>
     <use style="fill:#d62728;stroke:#d62728;" x="119.078438" xlink:href="#m63715d07c2" y="93.827042"/>
     <use style="fill:#d62728;stroke:#d62728;" x="127.448437" xlink:href="#m63715d07c2" y="95.405419"/>
     <use style="fill:#d62728;stroke:#d62728;" x="135.818438" xlink:href="#m63715d07c2" y="101.224182"/>
     <use style="fill:#d62728;stroke:#d62728;" x="144.188438" xlink:href="#m63715d07c2" y="111.335688"/>
     <use style="fill:#d62728;stroke:#d62728;" x="152.558438" xlink:href="#m63715d07c2" y="124.418812"/>
     <use style="fill:#d62728;stroke:#d62728;" x="160.928438" xlink:href="#m63715d07c2" y="138.147347"/>
     <use style="fill:#d62728;stroke:#d62728;" x="169.298438" xlink:href="#m63715d07c2" y="150.037389"/>
     <use style="fill:#d62728;stroke:#d62728;" x="177.668438" xlink:href="#m63715d07c2" y="158.387063"/>
     <use style="fill:#d62728;stroke:#d62728;" x="186.038438" xlink:href="#m63715d07c2" y="162.857465"/>
     <use style="fill:#d62728;stroke:#d62728;" x="194.408438" xlink:href="#m63715d07c2" y="164.434473"/>
     <use style="fill:#d62728;stroke:#d62728;" x="202.778437" xlink:href="#m63715d07c2" y="164.845286"/>
     <use style="fill:#d62728;stroke:#d62728;" x="211.148438" xlink:href="#m63715d07c2" y="165.771304"/>
     <use style="fill:#d62728;stroke:#d62728;" x="219.518438" xlink:href="#m63715d07c2" y="168.241502"/>
     <use style="fill:#d62728;stroke:#d62728;" x="227.888438" xlink:href="#m63715d07c2" y="172.414685"/>
     <use style="fill:#d62728;stroke:#d62728;" x="236.258438" xlink:href="#m63715d07c2" y="177.71868"/>
     <use style="fill:#d62728;stroke:#d62728;" x="244.628438" xlink:href="#m63715d07c2" y="183.174281"/>
     <use style="fill:#d62728;stroke:#d62728;" x="252.998438" xlink:href="#m63715d07c2" y="187.736949"/>
     <use style="fill:#d62728;stroke:#d62728;" x="261.368438" xlink:href="#m63715d07c2" y="190.565787"/>
     <use style="fill:#d62728;stroke:#d62728;" x="269.738438" xlink:href="#m63715d07c2" y="191.186482"/>
     <use style="fill:#d62728;stroke:#d62728;" x="278.108438" xlink:href="#m63715d07c2" y="189.534982"/>
     <use style="fill:#d62728;stroke:#d62728;" x="286.478438" xlink:href="#m63715d07c2" y="185.891909"/>
     <use style="fill:#d62728;stroke:#d62728;" x="294.848438" xlink:href="#m63715d07c2" y="180.763302"/>
     <use style="fill:#d62728;stroke:#d62728;" x="303.218437" xlink:href="#m63715d07c2" y="174.790896"/>
     <use style="fill:#d62728;stroke:#d62728;" x="311.588437" xlink:href="#m63715d07c2" y="168.735171"/>
     <use style="fill:#d62728;stroke:#d62728;" x="319.958438" xlink:href="#m63715d07c2" y="163.482268"/>
     <use style="fill:#d62728;stroke:#d62728;" x="328.328438" xlink:href="#m63715d07c2" y="159.967017"/>
     <use style="fill:#d62728;stroke:#d62728;" x="336.698438" xlink:href="#m63715d07c2" y="158.954132"/>
     <use style="fill:#d62728;stroke:#d62728;" x="345.068438" xlink:href="#m63715d07c2" y="160.754594"/>
     <use style="fill:#d62728;stroke:#d62728;" x="353.438438" xlink:href="#m63715d07c2" y="165.056563"/>
     <use style="fill:#d62728;stroke:#d62728;" x="361.808438" xlink:href="#m63715d07c2" y="171.011234"/>
     <use style="fill:#d62728;stroke:#d62728;" x="370.178438" xlink:href="#m63715d07c2" y="177.544776"/>
     <use style="fill:#d62728;stroke:#d62728;" x="378.548438" xlink:href="#m63715d07c2" y="183.701155"/>
     <use style="fill:#d62728;stroke:#d62728;" x="386.918437" xlink:href="#m63715d07c2" y="188.799792"/>
    </g>
   </g>
   <g id="line2d_19">
    <path clip-path="url(#p650ed26275)" d="M 52.118437 57.571457 
L 60.488438 60.007203 
L 68.858438 60.422311 
L 77.228438 58.256849 
L 85.598437 53.961723 
L 93.968437 49.044104 
L 102.338438 45.639136 
L 110.708438 45.736224 
L 119.078438 50.413178 
L 127.448437 59.465149 
L 135.818438 71.61246 
L 144.188438 85.151762 
L 152.558438 98.681375 
L 160.928438 111.526806 
L 169.298438 123.70463 
L 177.668438 135.545528 
L 186.038438 147.272478 
L 194.408438 158.80194 
L 202.778437 169.839608 
L 211.148438 180.118404 
L 219.518438 189.53067 
L 227.888438 198.006216 
L 236.258438 205.208333 
L 244.628438 210.292591 
L 252.998438 211.961349 
L 261.368438 208.857859 
L 269.738438 200.120113 
L 278.108438 185.817092 
L 286.478438 167.070523 
L 294.848438 145.843572 
L 303.218437 124.525719 
L 311.588437 105.484299 
L 319.958438 90.700201 
L 328.328438 81.522301 
L 336.698438 78.523177 
L 345.068438 81.440024 
L 353.438438 89.217587 
L 361.808438 100.187803 
L 370.178438 112.389793 
L 378.548438 123.965201 
L 386.918437 133.511289 
" style="fill:none;stroke:#9467bd;stroke-linecap:round;stroke-width:1.5;"/>
    <defs>
     <path d="M 0 1.5 
C 0.397805 1.5 0.77937 1.341951 1.06066 1.06066 
C 1.341951 0.77937 1.5 0.397805 1.5 0 
C 1.5 -0.397805 1.341951 -0.77937 1.06066 -1.06066 
C 0.77937 -1.341951 0.397805 -1.5 0 -1.5 
C -0.397805 -1.5 -0.77937 -1.341951 -1.06066 -1.06066 
C -1.341951 -0.77937 -1.5 -0.397805 -1.5 0 
C -1.5 0.397805 -1.341951 0.77937 -1.06066 1.06066 
C -0.77937 1.341951 -0.397805 1.5 0 1.5 
z
" id="me59816627f" style="stroke:#9467bd;"/>
    </defs>
    <g clip-path="url(#p650ed26275)">
     <use style="fill:#9467bd;stroke:#9467bd;" x="52.118437" xlink:href="#me59816627f" y="57.571457"/>
     <use style="fill:#9467bd;stroke:#9467bd;" x="60.488438" xlink:href="#me59816627f" y="60.007203"/>
     <use style="fill:#9467bd;stroke:#9467bd;" x="68.858438" xlink:href="#me59816627f" y="60.422311"/>
     <use style="fill:#9467bd;stroke:#9467bd;" x="77.228438" xlink:href="#me59816627f" y="58.256849"/>
     <use style="fill:#9467bd;stroke:#9467bd;" x="85.598437" xlink:href="#me59816627f" y="53.961723"/>
     <use style="fill:#9467bd;stroke:#9467bd;" x="93.968437" xlink:href="#me59816627f" y="49.044104"/>
     <use style="fill:#9467bd;stroke:#9467bd;" x="102.338438" xlink:href="#me59816627f" y="45.639136"/>
     <use style="fill:#9467bd;stroke:#9467bd;" x="110.708438" xlink:href="#me59816627f" y="45.736224"/>
     <use style="fill:#9467bd;stroke:#9467bd;" x="119.078438" xlink:href="#me59816627f" y="50.413178"/>
     <use style="fill:#9467bd;stroke:#9467bd;" x="127.448437" xlink:href="#me59816627f" y="59.465149"/>
     <use style="fill:#9467bd;stroke:#9467bd;" x="135.818438" xlink:href="#me59816627f" y="71.61246"/>
     <use style="fill:#9467bd;stroke:#9467bd;" x="144.188438" xlink:href="#me59816627f" y="85.151762"/>
     <use style="fill:#9467bd;stroke:#9467bd;" x="152.558438" xlink:href="#me59816627f" y="98.681375"/>
     <use style="fill:#9467bd;stroke:#9467bd;" x="160.928438" xlink:href="#me59816627f" y="111.526806"/>
     <use style="fill:#9467bd;stroke:#9467bd;" x="169.298438" xlink:href="#me59816627f" y="123.70463"/>
     <use style="fill:#9467bd;stroke:#9467bd;" x="177.668438" xlink:href="#me59816627f" y="135.545528"/>
     <use style="fill:#9467bd;stroke:#9467bd;" x="186.038438" xlink:href="#me59816627f" y="147.272478"/>
     <use style="fill:#9467bd;stroke:#9467bd;" x="194.408438" xlink:href="#me59816627f" y="158.80194"/>
     <use style="fill:#9467bd;stroke:#9467bd;" x="202.778437" xlink:href="#me59816627f" y="169.839608"/>
     <use style="fill:#9467bd;stroke:#9467bd;" x="211.148438" xlink:href="#me59816627f" y="180.118404"/>
     <use style="fill:#9467bd;stroke:#9467bd;" x="219.518438" xlink:href="#me59816627f" y="189.53067"/>
     <use style="fill:#9467bd;stroke:#9467bd;" x="227.888438" xlink:href="#me59816627f" y="198.006216"/>
     <use style="fill:#9467bd;stroke:#9467bd;" x="236.258438" xlink:href="#me59816627f" y="205.208333"/>
     <use style="fill:#9467bd;stroke:#9467bd;" x="244.628438" xlink:href="#me59816627f" y="210.292591"/>
     <use style="fill:#9467bd;stroke:#9467bd;" x="252.998438" xlink:href="#me59816627f" y="211.961349"/>
     <use style="fill:#9467bd;stroke:#9467bd;" x="261.368438" xlink:href="#me59816627f" y="208.857859"/>
     <use style="fill:#9467bd;stroke:#9467bd;" x="269.738438" xlink:href="#me59816627f" y="200.120113"/>
     <use style="fill:#9467bd;stroke:#9467bd;" x="278.108438" xlink:href="#me59816627f" y="185.817092"/>
     <use style="fill:#9467bd;stroke:#9467bd;" x="286.478438" xlink:href="#me59816627f" y="167.070523"/>
     <use style="fill:#9467bd;stroke:#9467bd;" x="294.848438" xlink:href="#me59816627f" y="145.843572"/>
     <use style="fill:#9467bd;stroke:#9467bd;" x="303.218437" xlink:href="#me59816627f" y="124.525719"/>
     <use style="fill:#9467bd;stroke:#9467bd;" x="311.588437" xlink:href="#me59816627f" y="105.484299"/>
     <use style="fill:#9467bd;stroke:#9467bd;" x="319.958438" xlink:href="#me59816627f" y="90.700201"/>
     <use style="fill:#9467bd;stroke:#9467bd;" x="328.328438" xlink:href="#me59816627f" y="81.522301"/>
     <use style="fill:#9467bd;stroke:#9467bd;" x="336.698438" xlink:href="#me59816627f" y="78.523177"/>
     <use style="fill:#9467bd;stroke:#9467bd;" x="345.068438" xlink:href="#me59816627f" y="81.440024"/>
     <use style="fill:#9467bd;stroke:#9467bd;" x="353.438438" xlink:href="#me59816627f" y="89.217587"/>
     <use style="fill:#9467bd;stroke:#9467bd;" x="361.808438" xlink:href="#me59816627f" y="100.187803"/>
     <use style="fill:#9467bd;stroke:#9467bd;" x="370.178438" xlink:href="#me59816627f" y="112.389793"/>
     <use style="fill:#9467bd;stroke:#9467bd;" x="378.548438" xlink:href="#me59816627f" y="123.965201"/>
     <use style="fill:#9467bd;stroke:#9467bd;" x="386.918437" xlink:href="#me59816627f" y="133.511289"/>
    </g>
   </g>
   <g id="patch_3">
    <path d="M 52.118437 253.1955 
L 52.118437 35.7555 
" style="fill:none;stroke:#ffffff;stroke-linecap:square;stroke-linejoin:miter;stroke-width:0.8;"/>
   </g>
   <g id="patch_4">
    <path d="M 386.918437 253.1955 
L 386.918437 35.7555 
" style="fill:none;stroke:#ffffff;stroke-linecap:square;stroke-linejoin:miter;stroke-width:0.8;"/>
   </g>
   <g id="patch_5">
    <path d="M 52.118437 253.1955 
L 386.918437 253.1955 
" style="fill:none;stroke:#ffffff;stroke-linecap:square;stroke-linejoin:miter;stroke-width:0.8;"/>
   </g>
   <g id="patch_6">
    <path d="M 52.118437 35.7555 
L 386.918437 35.7555 
" style="fill:none;stroke:#ffffff;stroke-linecap:square;stroke-linejoin:miter;stroke-width:0.8;"/>
   </g>
   <g id="text_17">
    <!-- 5 different function realizations at 41 points -->
    <g style="fill:#262626;" transform="translate(87.610313 16.318125)scale(0.12 -0.12)">
     <defs>
      <path d="M 691 4666 
L 3169 4666 
L 3169 4134 
L 1269 4134 
L 1269 2991 
Q 1406 3038 1543 3061 
Q 1681 3084 1819 3084 
Q 2600 3084 3056 2656 
Q 3513 2228 3513 1497 
Q 3513 744 3044 326 
Q 2575 -91 1722 -91 
Q 1428 -91 1123 -41 
Q 819 9 494 109 
L 494 744 
Q 775 591 1075 516 
Q 1375 441 1709 441 
Q 2250 441 2565 725 
Q 2881 1009 2881 1497 
Q 2881 1984 2565 2268 
Q 2250 2553 1709 2553 
Q 1456 2553 1204 2497 
Q 953 2441 691 2322 
L 691 4666 
z
" id="DejaVuSans-35" transform="scale(0.015625)"/>
      <path id="DejaVuSans-20" transform="scale(0.015625)"/>
      <path d="M 2906 2969 
L 2906 4863 
L 3481 4863 
L 3481 0 
L 2906 0 
L 2906 525 
Q 2725 213 2448 61 
Q 2172 -91 1784 -91 
Q 1150 -91 751 415 
Q 353 922 353 1747 
Q 353 2572 751 3078 
Q 1150 3584 1784 3584 
Q 2172 3584 2448 3432 
Q 2725 3281 2906 2969 
z
M 947 1747 
Q 947 1113 1208 752 
Q 1469 391 1925 391 
Q 2381 391 2643 752 
Q 2906 1113 2906 1747 
Q 2906 2381 2643 2742 
Q 2381 3103 1925 3103 
Q 1469 3103 1208 2742 
Q 947 2381 947 1747 
z
" id="DejaVuSans-64" transform="scale(0.015625)"/>
      <path d="M 603 3500 
L 1178 3500 
L 1178 0 
L 603 0 
L 603 3500 
z
M 603 4863 
L 1178 4863 
L 1178 4134 
L 603 4134 
L 603 4863 
z
" id="DejaVuSans-69" transform="scale(0.015625)"/>
      <path d="M 2375 4863 
L 2375 4384 
L 1825 4384 
Q 1516 4384 1395 4259 
Q 1275 4134 1275 3809 
L 1275 3500 
L 2222 3500 
L 2222 3053 
L 1275 3053 
L 1275 0 
L 697 0 
L 697 3053 
L 147 3053 
L 147 3500 
L 697 3500 
L 697 3744 
Q 697 4328 969 4595 
Q 1241 4863 1831 4863 
L 2375 4863 
z
" id="DejaVuSans-66" transform="scale(0.015625)"/>
      <path d="M 3597 1894 
L 3597 1613 
L 953 1613 
Q 991 1019 1311 708 
Q 1631 397 2203 397 
Q 2534 397 2845 478 
Q 3156 559 3463 722 
L 3463 178 
Q 3153 47 2828 -22 
Q 2503 -91 2169 -91 
Q 1331 -91 842 396 
Q 353 884 353 1716 
Q 353 2575 817 3079 
Q 1281 3584 2069 3584 
Q 2775 3584 3186 3129 
Q 3597 2675 3597 1894 
z
M 3022 2063 
Q 3016 2534 2758 2815 
Q 2500 3097 2075 3097 
Q 1594 3097 1305 2825 
Q 1016 2553 972 2059 
L 3022 2063 
z
" id="DejaVuSans-65" transform="scale(0.015625)"/>
      <path d="M 2631 2963 
Q 2534 3019 2420 3045 
Q 2306 3072 2169 3072 
Q 1681 3072 1420 2755 
Q 1159 2438 1159 1844 
L 1159 0 
L 581 0 
L 581 3500 
L 1159 3500 
L 1159 2956 
Q 1341 3275 1631 3429 
Q 1922 3584 2338 3584 
Q 2397 3584 2469 3576 
Q 2541 3569 2628 3553 
L 2631 2963 
z
" id="DejaVuSans-72" transform="scale(0.015625)"/>
      <path d="M 3513 2113 
L 3513 0 
L 2938 0 
L 2938 2094 
Q 2938 2591 2744 2837 
Q 2550 3084 2163 3084 
Q 1697 3084 1428 2787 
Q 1159 2491 1159 1978 
L 1159 0 
L 581 0 
L 581 3500 
L 1159 3500 
L 1159 2956 
Q 1366 3272 1645 3428 
Q 1925 3584 2291 3584 
Q 2894 3584 3203 3211 
Q 3513 2838 3513 2113 
z
" id="DejaVuSans-6e" transform="scale(0.015625)"/>
      <path d="M 1172 4494 
L 1172 3500 
L 2356 3500 
L 2356 3053 
L 1172 3053 
L 1172 1153 
Q 1172 725 1289 603 
Q 1406 481 1766 481 
L 2356 481 
L 2356 0 
L 1766 0 
Q 1100 0 847 248 
Q 594 497 594 1153 
L 594 3053 
L 172 3053 
L 172 3500 
L 594 3500 
L 594 4494 
L 1172 4494 
z
" id="DejaVuSans-74" transform="scale(0.015625)"/>
      <path d="M 544 1381 
L 544 3500 
L 1119 3500 
L 1119 1403 
Q 1119 906 1312 657 
Q 1506 409 1894 409 
Q 2359 409 2629 706 
Q 2900 1003 2900 1516 
L 2900 3500 
L 3475 3500 
L 3475 0 
L 2900 0 
L 2900 538 
Q 2691 219 2414 64 
Q 2138 -91 1772 -91 
Q 1169 -91 856 284 
Q 544 659 544 1381 
z
M 1991 3584 
L 1991 3584 
z
" id="DejaVuSans-75" transform="scale(0.015625)"/>
      <path d="M 3122 3366 
L 3122 2828 
Q 2878 2963 2633 3030 
Q 2388 3097 2138 3097 
Q 1578 3097 1268 2742 
Q 959 2388 959 1747 
Q 959 1106 1268 751 
Q 1578 397 2138 397 
Q 2388 397 2633 464 
Q 2878 531 3122 666 
L 3122 134 
Q 2881 22 2623 -34 
Q 2366 -91 2075 -91 
Q 1284 -91 818 406 
Q 353 903 353 1747 
Q 353 2603 823 3093 
Q 1294 3584 2113 3584 
Q 2378 3584 2631 3529 
Q 2884 3475 3122 3366 
z
" id="DejaVuSans-63" transform="scale(0.015625)"/>
      <path d="M 1959 3097 
Q 1497 3097 1228 2736 
Q 959 2375 959 1747 
Q 959 1119 1226 758 
Q 1494 397 1959 397 
Q 2419 397 2687 759 
Q 2956 1122 2956 1747 
Q 2956 2369 2687 2733 
Q 2419 3097 1959 3097 
z
M 1959 3584 
Q 2709 3584 3137 3096 
Q 3566 2609 3566 1747 
Q 3566 888 3137 398 
Q 2709 -91 1959 -91 
Q 1206 -91 779 398 
Q 353 888 353 1747 
Q 353 2609 779 3096 
Q 1206 3584 1959 3584 
z
" id="DejaVuSans-6f" transform="scale(0.015625)"/>
      <path d="M 2194 1759 
Q 1497 1759 1228 1600 
Q 959 1441 959 1056 
Q 959 750 1161 570 
Q 1363 391 1709 391 
Q 2188 391 2477 730 
Q 2766 1069 2766 1631 
L 2766 1759 
L 2194 1759 
z
M 3341 1997 
L 3341 0 
L 2766 0 
L 2766 531 
Q 2569 213 2275 61 
Q 1981 -91 1556 -91 
Q 1019 -91 701 211 
Q 384 513 384 1019 
Q 384 1609 779 1909 
Q 1175 2209 1959 2209 
L 2766 2209 
L 2766 2266 
Q 2766 2663 2505 2880 
Q 2244 3097 1772 3097 
Q 1472 3097 1187 3025 
Q 903 2953 641 2809 
L 641 3341 
Q 956 3463 1253 3523 
Q 1550 3584 1831 3584 
Q 2591 3584 2966 3190 
Q 3341 2797 3341 1997 
z
" id="DejaVuSans-61" transform="scale(0.015625)"/>
      <path d="M 603 4863 
L 1178 4863 
L 1178 0 
L 603 0 
L 603 4863 
z
" id="DejaVuSans-6c" transform="scale(0.015625)"/>
      <path d="M 353 3500 
L 3084 3500 
L 3084 2975 
L 922 459 
L 3084 459 
L 3084 0 
L 275 0 
L 275 525 
L 2438 3041 
L 353 3041 
L 353 3500 
z
" id="DejaVuSans-7a" transform="scale(0.015625)"/>
      <path d="M 2834 3397 
L 2834 2853 
Q 2591 2978 2328 3040 
Q 2066 3103 1784 3103 
Q 1356 3103 1142 2972 
Q 928 2841 928 2578 
Q 928 2378 1081 2264 
Q 1234 2150 1697 2047 
L 1894 2003 
Q 2506 1872 2764 1633 
Q 3022 1394 3022 966 
Q 3022 478 2636 193 
Q 2250 -91 1575 -91 
Q 1294 -91 989 -36 
Q 684 19 347 128 
L 347 722 
Q 666 556 975 473 
Q 1284 391 1588 391 
Q 1994 391 2212 530 
Q 2431 669 2431 922 
Q 2431 1156 2273 1281 
Q 2116 1406 1581 1522 
L 1381 1569 
Q 847 1681 609 1914 
Q 372 2147 372 2553 
Q 372 3047 722 3315 
Q 1072 3584 1716 3584 
Q 2034 3584 2315 3537 
Q 2597 3491 2834 3397 
z
" id="DejaVuSans-73" transform="scale(0.015625)"/>
      <path d="M 1159 525 
L 1159 -1331 
L 581 -1331 
L 581 3500 
L 1159 3500 
L 1159 2969 
Q 1341 3281 1617 3432 
Q 1894 3584 2278 3584 
Q 2916 3584 3314 3078 
Q 3713 2572 3713 1747 
Q 3713 922 3314 415 
Q 2916 -91 2278 -91 
Q 1894 -91 1617 61 
Q 1341 213 1159 525 
z
M 3116 1747 
Q 3116 2381 2855 2742 
Q 2594 3103 2138 3103 
Q 1681 3103 1420 2742 
Q 1159 2381 1159 1747 
Q 1159 1113 1420 752 
Q 1681 391 2138 391 
Q 2594 391 2855 752 
Q 3116 1113 3116 1747 
z
" id="DejaVuSans-70" transform="scale(0.015625)"/>
     </defs>
     <use xlink:href="#DejaVuSans-35"/>
     <use x="63.623047" xlink:href="#DejaVuSans-20"/>
     <use x="95.410156" xlink:href="#DejaVuSans-64"/>
     <use x="158.886719" xlink:href="#DejaVuSans-69"/>
     <use x="186.669922" xlink:href="#DejaVuSans-66"/>
     <use x="221.875" xlink:href="#DejaVuSans-66"/>
     <use x="257.080078" xlink:href="#DejaVuSans-65"/>
     <use x="318.603516" xlink:href="#DejaVuSans-72"/>
     <use x="357.466797" xlink:href="#DejaVuSans-65"/>
     <use x="418.990234" xlink:href="#DejaVuSans-6e"/>
     <use x="482.369141" xlink:href="#DejaVuSans-74"/>
     <use x="521.578125" xlink:href="#DejaVuSans-20"/>
     <use x="553.365234" xlink:href="#DejaVuSans-66"/>
     <use x="588.570312" xlink:href="#DejaVuSans-75"/>
     <use x="651.949219" xlink:href="#DejaVuSans-6e"/>
     <use x="715.328125" xlink:href="#DejaVuSans-63"/>
     <use x="770.308594" xlink:href="#DejaVuSans-74"/>
     <use x="809.517578" xlink:href="#DejaVuSans-69"/>
     <use x="837.300781" xlink:href="#DejaVuSans-6f"/>
     <use x="898.482422" xlink:href="#DejaVuSans-6e"/>
     <use x="961.861328" xlink:href="#DejaVuSans-20"/>
     <use x="993.648438" xlink:href="#DejaVuSans-72"/>
     <use x="1032.511719" xlink:href="#DejaVuSans-65"/>
     <use x="1094.035156" xlink:href="#DejaVuSans-61"/>
     <use x="1155.314453" xlink:href="#DejaVuSans-6c"/>
     <use x="1183.097656" xlink:href="#DejaVuSans-69"/>
     <use x="1210.880859" xlink:href="#DejaVuSans-7a"/>
     <use x="1263.371094" xlink:href="#DejaVuSans-61"/>
     <use x="1324.650391" xlink:href="#DejaVuSans-74"/>
     <use x="1363.859375" xlink:href="#DejaVuSans-69"/>
     <use x="1391.642578" xlink:href="#DejaVuSans-6f"/>
     <use x="1452.824219" xlink:href="#DejaVuSans-6e"/>
     <use x="1516.203125" xlink:href="#DejaVuSans-73"/>
     <use x="1568.302734" xlink:href="#DejaVuSans-20"/>
     <use x="1600.089844" xlink:href="#DejaVuSans-61"/>
     <use x="1661.369141" xlink:href="#DejaVuSans-74"/>
     <use x="1700.578125" xlink:href="#DejaVuSans-20"/>
     <use x="1732.365234" xlink:href="#DejaVuSans-34"/>
     <use x="1795.988281" xlink:href="#DejaVuSans-31"/>
     <use x="1859.611328" xlink:href="#DejaVuSans-20"/>
     <use x="1891.398438" xlink:href="#DejaVuSans-70"/>
     <use x="1954.875" xlink:href="#DejaVuSans-6f"/>
     <use x="2016.056641" xlink:href="#DejaVuSans-69"/>
     <use x="2043.839844" xlink:href="#DejaVuSans-6e"/>
     <use x="2107.21875" xlink:href="#DejaVuSans-74"/>
     <use x="2146.427734" xlink:href="#DejaVuSans-73"/>
    </g>
    <!-- sampled from a Gaussian process with exponentiated quadratic kernel -->
    <g style="fill:#262626;" transform="translate(7.2 29.7555)scale(0.12 -0.12)">
     <defs>
      <path d="M 3328 2828 
Q 3544 3216 3844 3400 
Q 4144 3584 4550 3584 
Q 5097 3584 5394 3201 
Q 5691 2819 5691 2113 
L 5691 0 
L 5113 0 
L 5113 2094 
Q 5113 2597 4934 2840 
Q 4756 3084 4391 3084 
Q 3944 3084 3684 2787 
Q 3425 2491 3425 1978 
L 3425 0 
L 2847 0 
L 2847 2094 
Q 2847 2600 2669 2842 
Q 2491 3084 2119 3084 
Q 1678 3084 1418 2786 
Q 1159 2488 1159 1978 
L 1159 0 
L 581 0 
L 581 3500 
L 1159 3500 
L 1159 2956 
Q 1356 3278 1631 3431 
Q 1906 3584 2284 3584 
Q 2666 3584 2933 3390 
Q 3200 3197 3328 2828 
z
" id="DejaVuSans-6d" transform="scale(0.015625)"/>
      <path d="M 3809 666 
L 3809 1919 
L 2778 1919 
L 2778 2438 
L 4434 2438 
L 4434 434 
Q 4069 175 3628 42 
Q 3188 -91 2688 -91 
Q 1594 -91 976 548 
Q 359 1188 359 2328 
Q 359 3472 976 4111 
Q 1594 4750 2688 4750 
Q 3144 4750 3555 4637 
Q 3966 4525 4313 4306 
L 4313 3634 
Q 3963 3931 3569 4081 
Q 3175 4231 2741 4231 
Q 1884 4231 1454 3753 
Q 1025 3275 1025 2328 
Q 1025 1384 1454 906 
Q 1884 428 2741 428 
Q 3075 428 3337 486 
Q 3600 544 3809 666 
z
" id="DejaVuSans-47" transform="scale(0.015625)"/>
      <path d="M 269 3500 
L 844 3500 
L 1563 769 
L 2278 3500 
L 2956 3500 
L 3675 769 
L 4391 3500 
L 4966 3500 
L 4050 0 
L 3372 0 
L 2619 2869 
L 1863 0 
L 1184 0 
L 269 3500 
z
" id="DejaVuSans-77" transform="scale(0.015625)"/>
      <path d="M 3513 2113 
L 3513 0 
L 2938 0 
L 2938 2094 
Q 2938 2591 2744 2837 
Q 2550 3084 2163 3084 
Q 1697 3084 1428 2787 
Q 1159 2491 1159 1978 
L 1159 0 
L 581 0 
L 581 4863 
L 1159 4863 
L 1159 2956 
Q 1366 3272 1645 3428 
Q 1925 3584 2291 3584 
Q 2894 3584 3203 3211 
Q 3513 2838 3513 2113 
z
" id="DejaVuSans-68" transform="scale(0.015625)"/>
      <path d="M 3513 3500 
L 2247 1797 
L 3578 0 
L 2900 0 
L 1881 1375 
L 863 0 
L 184 0 
L 1544 1831 
L 300 3500 
L 978 3500 
L 1906 2253 
L 2834 3500 
L 3513 3500 
z
" id="DejaVuSans-78" transform="scale(0.015625)"/>
      <path d="M 947 1747 
Q 947 1113 1208 752 
Q 1469 391 1925 391 
Q 2381 391 2643 752 
Q 2906 1113 2906 1747 
Q 2906 2381 2643 2742 
Q 2381 3103 1925 3103 
Q 1469 3103 1208 2742 
Q 947 2381 947 1747 
z
M 2906 525 
Q 2725 213 2448 61 
Q 2172 -91 1784 -91 
Q 1150 -91 751 415 
Q 353 922 353 1747 
Q 353 2572 751 3078 
Q 1150 3584 1784 3584 
Q 2172 3584 2448 3432 
Q 2725 3281 2906 2969 
L 2906 3500 
L 3481 3500 
L 3481 -1331 
L 2906 -1331 
L 2906 525 
z
" id="DejaVuSans-71" transform="scale(0.015625)"/>
      <path d="M 581 4863 
L 1159 4863 
L 1159 1991 
L 2875 3500 
L 3609 3500 
L 1753 1863 
L 3688 0 
L 2938 0 
L 1159 1709 
L 1159 0 
L 581 0 
L 581 4863 
z
" id="DejaVuSans-6b" transform="scale(0.015625)"/>
     </defs>
     <use xlink:href="#DejaVuSans-73"/>
     <use x="52.099609" xlink:href="#DejaVuSans-61"/>
     <use x="113.378906" xlink:href="#DejaVuSans-6d"/>
     <use x="210.791016" xlink:href="#DejaVuSans-70"/>
     <use x="274.267578" xlink:href="#DejaVuSans-6c"/>
     <use x="302.050781" xlink:href="#DejaVuSans-65"/>
     <use x="363.574219" xlink:href="#DejaVuSans-64"/>
     <use x="427.050781" xlink:href="#DejaVuSans-20"/>
     <use x="458.837891" xlink:href="#DejaVuSans-66"/>
     <use x="494.042969" xlink:href="#DejaVuSans-72"/>
     <use x="532.90625" xlink:href="#DejaVuSans-6f"/>
     <use x="594.087891" xlink:href="#DejaVuSans-6d"/>
     <use x="691.5" xlink:href="#DejaVuSans-20"/>
     <use x="723.287109" xlink:href="#DejaVuSans-61"/>
     <use x="784.566406" xlink:href="#DejaVuSans-20"/>
     <use x="816.353516" xlink:href="#DejaVuSans-47"/>
     <use x="893.84375" xlink:href="#DejaVuSans-61"/>
     <use x="955.123047" xlink:href="#DejaVuSans-75"/>
     <use x="1018.501953" xlink:href="#DejaVuSans-73"/>
     <use x="1070.601562" xlink:href="#DejaVuSans-73"/>
     <use x="1122.701172" xlink:href="#DejaVuSans-69"/>
     <use x="1150.484375" xlink:href="#DejaVuSans-61"/>
     <use x="1211.763672" xlink:href="#DejaVuSans-6e"/>
     <use x="1275.142578" xlink:href="#DejaVuSans-20"/>
     <use x="1306.929688" xlink:href="#DejaVuSans-70"/>
     <use x="1370.40625" xlink:href="#DejaVuSans-72"/>
     <use x="1409.269531" xlink:href="#DejaVuSans-6f"/>
     <use x="1470.451172" xlink:href="#DejaVuSans-63"/>
     <use x="1525.431641" xlink:href="#DejaVuSans-65"/>
     <use x="1586.955078" xlink:href="#DejaVuSans-73"/>
     <use x="1639.054688" xlink:href="#DejaVuSans-73"/>
     <use x="1691.154297" xlink:href="#DejaVuSans-20"/>
     <use x="1722.941406" xlink:href="#DejaVuSans-77"/>
     <use x="1804.728516" xlink:href="#DejaVuSans-69"/>
     <use x="1832.511719" xlink:href="#DejaVuSans-74"/>
     <use x="1871.720703" xlink:href="#DejaVuSans-68"/>
     <use x="1935.099609" xlink:href="#DejaVuSans-20"/>
     <use x="1966.886719" xlink:href="#DejaVuSans-65"/>
     <use x="2026.660156" xlink:href="#DejaVuSans-78"/>
     <use x="2085.839844" xlink:href="#DejaVuSans-70"/>
     <use x="2149.316406" xlink:href="#DejaVuSans-6f"/>
     <use x="2210.498047" xlink:href="#DejaVuSans-6e"/>
     <use x="2273.876953" xlink:href="#DejaVuSans-65"/>
     <use x="2335.400391" xlink:href="#DejaVuSans-6e"/>
     <use x="2398.779297" xlink:href="#DejaVuSans-74"/>
     <use x="2437.988281" xlink:href="#DejaVuSans-69"/>
     <use x="2465.771484" xlink:href="#DejaVuSans-61"/>
     <use x="2527.050781" xlink:href="#DejaVuSans-74"/>
     <use x="2566.259766" xlink:href="#DejaVuSans-65"/>
     <use x="2627.783203" xlink:href="#DejaVuSans-64"/>
     <use x="2691.259766" xlink:href="#DejaVuSans-20"/>
     <use x="2723.046875" xlink:href="#DejaVuSans-71"/>
     <use x="2786.523438" xlink:href="#DejaVuSans-75"/>
     <use x="2849.902344" xlink:href="#DejaVuSans-61"/>
     <use x="2911.181641" xlink:href="#DejaVuSans-64"/>
     <use x="2974.658203" xlink:href="#DejaVuSans-72"/>
     <use x="3015.771484" xlink:href="#DejaVuSans-61"/>
     <use x="3077.050781" xlink:href="#DejaVuSans-74"/>
     <use x="3116.259766" xlink:href="#DejaVuSans-69"/>
     <use x="3144.042969" xlink:href="#DejaVuSans-63"/>
     <use x="3199.023438" xlink:href="#DejaVuSans-20"/>
     <use x="3230.810547" xlink:href="#DejaVuSans-6b"/>
     <use x="3285.095703" xlink:href="#DejaVuSans-65"/>
     <use x="3346.619141" xlink:href="#DejaVuSans-72"/>
     <use x="3385.982422" xlink:href="#DejaVuSans-6e"/>
     <use x="3449.361328" xlink:href="#DejaVuSans-65"/>
     <use x="3510.884766" xlink:href="#DejaVuSans-6c"/>
    </g>
   </g>
  </g>
 </g>
 <defs>
  <clipPath id="p650ed26275">
   <rect height="217.44" width="334.8" x="52.118437" y="35.7555"/>
  </clipPath>
 </defs>
</svg>
