<?xml version="1.0" encoding="utf-8" standalone="no"?>
<!DOCTYPE svg PUBLIC "-//W3C//DTD SVG 1.1//EN"
  "http://www.w3.org/Graphics/SVG/1.1/DTD/svg11.dtd">
<svg height="423.177812pt" version="1.1" viewBox="0 0 423.3675 423.177812" width="423.3675pt" xmlns="http://www.w3.org/2000/svg" xmlns:xlink="http://www.w3.org/1999/xlink">
 <metadata>
  <rdf:RDF xmlns:cc="http://creativecommons.org/ns#" xmlns:dc="http://purl.org/dc/elements/1.1/" xmlns:rdf="http://www.w3.org/1999/02/22-rdf-syntax-ns#">
   <cc:Work>
    <dc:type rdf:resource="http://purl.org/dc/dcmitype/StillImage"/>
    <dc:date>2021-09-02T12:09:19.409060</dc:date>
    <dc:format>image/svg+xml</dc:format>
    <dc:creator>
     <cc:Agent>
      <dc:title>Matplotlib v3.4.3, https://matplotlib.org/</dc:title>
     </cc:Agent>
    </dc:creator>
   </cc:Work>
  </rdf:RDF>
 </metadata>
 <defs>
  <style type="text/css">*{stroke-linecap:butt;stroke-linejoin:round;}</style>
 </defs>
 <g id="figure_1">
  <g id="patch_1">
   <path d="M 0 423.177812 
L 423.3675 423.177812 
L 423.3675 0 
L 0 0 
z
" style="fill:#ffffff;"/>
  </g>
  <g id="axes_1">
   <g id="patch_2">
    <path d="M 45.52375 172.118125 
L 412.98625 172.118125 
L 412.98625 22.318125 
L 45.52375 22.318125 
z
" style="fill:#eaeaf2;"/>
   </g>
   <g id="matplotlib.axis_1">
    <g id="xtick_1">
     <g id="line2d_1">
      <path clip-path="url(#p40b04269bd)" d="M 45.52375 172.118125 
L 45.52375 22.318125 
" style="fill:none;stroke:#ffffff;stroke-linecap:round;stroke-width:0.8;"/>
     </g>
     <g id="text_1">
      <!-- −6 -->
      <g style="fill:#262626;" transform="translate(38.152656 186.716562)scale(0.1 -0.1)">
       <defs>
        <path d="M 678 2272 
L 4684 2272 
L 4684 1741 
L 678 1741 
L 678 2272 
z
" id="DejaVuSans-2212" transform="scale(0.015625)"/>
        <path d="M 2113 2584 
Q 1688 2584 1439 2293 
Q 1191 2003 1191 1497 
Q 1191 994 1439 701 
Q 1688 409 2113 409 
Q 2538 409 2786 701 
Q 3034 994 3034 1497 
Q 3034 2003 2786 2293 
Q 2538 2584 2113 2584 
z
M 3366 4563 
L 3366 3988 
Q 3128 4100 2886 4159 
Q 2644 4219 2406 4219 
Q 1781 4219 1451 3797 
Q 1122 3375 1075 2522 
Q 1259 2794 1537 2939 
Q 1816 3084 2150 3084 
Q 2853 3084 3261 2657 
Q 3669 2231 3669 1497 
Q 3669 778 3244 343 
Q 2819 -91 2113 -91 
Q 1303 -91 875 529 
Q 447 1150 447 2328 
Q 447 3434 972 4092 
Q 1497 4750 2381 4750 
Q 2619 4750 2861 4703 
Q 3103 4656 3366 4563 
z
" id="DejaVuSans-36" transform="scale(0.015625)"/>
       </defs>
       <use xlink:href="#DejaVuSans-2212"/>
       <use x="83.789062" xlink:href="#DejaVuSans-36"/>
      </g>
     </g>
    </g>
    <g id="xtick_2">
     <g id="line2d_2">
      <path clip-path="url(#p40b04269bd)" d="M 106.7675 172.118125 
L 106.7675 22.318125 
" style="fill:none;stroke:#ffffff;stroke-linecap:round;stroke-width:0.8;"/>
     </g>
     <g id="text_2">
      <!-- −4 -->
      <g style="fill:#262626;" transform="translate(99.396406 186.716562)scale(0.1 -0.1)">
       <defs>
        <path d="M 2419 4116 
L 825 1625 
L 2419 1625 
L 2419 4116 
z
M 2253 4666 
L 3047 4666 
L 3047 1625 
L 3713 1625 
L 3713 1100 
L 3047 1100 
L 3047 0 
L 2419 0 
L 2419 1100 
L 313 1100 
L 313 1709 
L 2253 4666 
z
" id="DejaVuSans-34" transform="scale(0.015625)"/>
       </defs>
       <use xlink:href="#DejaVuSans-2212"/>
       <use x="83.789062" xlink:href="#DejaVuSans-34"/>
      </g>
     </g>
    </g>
    <g id="xtick_3">
     <g id="line2d_3">
      <path clip-path="url(#p40b04269bd)" d="M 168.01125 172.118125 
L 168.01125 22.318125 
" style="fill:none;stroke:#ffffff;stroke-linecap:round;stroke-width:0.8;"/>
     </g>
     <g id="text_3">
      <!-- −2 -->
      <g style="fill:#262626;" transform="translate(160.640156 186.716562)scale(0.1 -0.1)">
       <defs>
        <path d="M 1228 531 
L 3431 531 
L 3431 0 
L 469 0 
L 469 531 
Q 828 903 1448 1529 
Q 2069 2156 2228 2338 
Q 2531 2678 2651 2914 
Q 2772 3150 2772 3378 
Q 2772 3750 2511 3984 
Q 2250 4219 1831 4219 
Q 1534 4219 1204 4116 
Q 875 4013 500 3803 
L 500 4441 
Q 881 4594 1212 4672 
Q 1544 4750 1819 4750 
Q 2544 4750 2975 4387 
Q 3406 4025 3406 3419 
Q 3406 3131 3298 2873 
Q 3191 2616 2906 2266 
Q 2828 2175 2409 1742 
Q 1991 1309 1228 531 
z
" id="DejaVuSans-32" transform="scale(0.015625)"/>
       </defs>
       <use xlink:href="#DejaVuSans-2212"/>
       <use x="83.789062" xlink:href="#DejaVuSans-32"/>
      </g>
     </g>
    </g>
    <g id="xtick_4">
     <g id="line2d_4">
      <path clip-path="url(#p40b04269bd)" d="M 229.255 172.118125 
L 229.255 22.318125 
" style="fill:none;stroke:#ffffff;stroke-linecap:round;stroke-width:0.8;"/>
     </g>
     <g id="text_4">
      <!-- 0 -->
      <g style="fill:#262626;" transform="translate(226.07375 186.716562)scale(0.1 -0.1)">
       <defs>
        <path d="M 2034 4250 
Q 1547 4250 1301 3770 
Q 1056 3291 1056 2328 
Q 1056 1369 1301 889 
Q 1547 409 2034 409 
Q 2525 409 2770 889 
Q 3016 1369 3016 2328 
Q 3016 3291 2770 3770 
Q 2525 4250 2034 4250 
z
M 2034 4750 
Q 2819 4750 3233 4129 
Q 3647 3509 3647 2328 
Q 3647 1150 3233 529 
Q 2819 -91 2034 -91 
Q 1250 -91 836 529 
Q 422 1150 422 2328 
Q 422 3509 836 4129 
Q 1250 4750 2034 4750 
z
" id="DejaVuSans-30" transform="scale(0.015625)"/>
       </defs>
       <use xlink:href="#DejaVuSans-30"/>
      </g>
     </g>
    </g>
    <g id="xtick_5">
     <g id="line2d_5">
      <path clip-path="url(#p40b04269bd)" d="M 290.49875 172.118125 
L 290.49875 22.318125 
" style="fill:none;stroke:#ffffff;stroke-linecap:round;stroke-width:0.8;"/>
     </g>
     <g id="text_5">
      <!-- 2 -->
      <g style="fill:#262626;" transform="translate(287.3175 186.716562)scale(0.1 -0.1)">
       <use xlink:href="#DejaVuSans-32"/>
      </g>
     </g>
    </g>
    <g id="xtick_6">
     <g id="line2d_6">
      <path clip-path="url(#p40b04269bd)" d="M 351.7425 172.118125 
L 351.7425 22.318125 
" style="fill:none;stroke:#ffffff;stroke-linecap:round;stroke-width:0.8;"/>
     </g>
     <g id="text_6">
      <!-- 4 -->
      <g style="fill:#262626;" transform="translate(348.56125 186.716562)scale(0.1 -0.1)">
       <use xlink:href="#DejaVuSans-34"/>
      </g>
     </g>
    </g>
    <g id="xtick_7">
     <g id="line2d_7">
      <path clip-path="url(#p40b04269bd)" d="M 412.98625 172.118125 
L 412.98625 22.318125 
" style="fill:none;stroke:#ffffff;stroke-linecap:round;stroke-width:0.8;"/>
     </g>
     <g id="text_7">
      <!-- 6 -->
      <g style="fill:#262626;" transform="translate(409.805 186.716562)scale(0.1 -0.1)">
       <use xlink:href="#DejaVuSans-36"/>
      </g>
     </g>
    </g>
    <g id="text_8">
     <!-- $x$ -->
     <g style="fill:#262626;" transform="translate(225.355 202.674219)scale(0.13 -0.13)">
      <defs>
       <path d="M 3841 3500 
L 2234 1784 
L 3219 0 
L 2559 0 
L 1819 1388 
L 531 0 
L -166 0 
L 1556 1844 
L 641 3500 
L 1300 3500 
L 1972 2234 
L 3144 3500 
L 3841 3500 
z
" id="DejaVuSans-Oblique-78" transform="scale(0.015625)"/>
      </defs>
      <use transform="translate(0 0.3125)" xlink:href="#DejaVuSans-Oblique-78"/>
     </g>
    </g>
   </g>
   <g id="matplotlib.axis_2">
    <g id="ytick_1">
     <g id="line2d_8">
      <path clip-path="url(#p40b04269bd)" d="M 45.52375 172.118125 
L 412.98625 172.118125 
" style="fill:none;stroke:#ffffff;stroke-linecap:round;stroke-width:0.8;"/>
     </g>
     <g id="text_9">
      <!-- −3 -->
      <g style="fill:#262626;" transform="translate(23.781562 175.917344)scale(0.1 -0.1)">
       <defs>
        <path d="M 2597 2516 
Q 3050 2419 3304 2112 
Q 3559 1806 3559 1356 
Q 3559 666 3084 287 
Q 2609 -91 1734 -91 
Q 1441 -91 1130 -33 
Q 819 25 488 141 
L 488 750 
Q 750 597 1062 519 
Q 1375 441 1716 441 
Q 2309 441 2620 675 
Q 2931 909 2931 1356 
Q 2931 1769 2642 2001 
Q 2353 2234 1838 2234 
L 1294 2234 
L 1294 2753 
L 1863 2753 
Q 2328 2753 2575 2939 
Q 2822 3125 2822 3475 
Q 2822 3834 2567 4026 
Q 2313 4219 1838 4219 
Q 1578 4219 1281 4162 
Q 984 4106 628 3988 
L 628 4550 
Q 988 4650 1302 4700 
Q 1616 4750 1894 4750 
Q 2613 4750 3031 4423 
Q 3450 4097 3450 3541 
Q 3450 3153 3228 2886 
Q 3006 2619 2597 2516 
z
" id="DejaVuSans-33" transform="scale(0.015625)"/>
       </defs>
       <use xlink:href="#DejaVuSans-2212"/>
       <use x="83.789062" xlink:href="#DejaVuSans-33"/>
      </g>
     </g>
    </g>
    <g id="ytick_2">
     <g id="line2d_9">
      <path clip-path="url(#p40b04269bd)" d="M 45.52375 147.151458 
L 412.98625 147.151458 
" style="fill:none;stroke:#ffffff;stroke-linecap:round;stroke-width:0.8;"/>
     </g>
     <g id="text_10">
      <!-- −2 -->
      <g style="fill:#262626;" transform="translate(23.781562 150.950677)scale(0.1 -0.1)">
       <use xlink:href="#DejaVuSans-2212"/>
       <use x="83.789062" xlink:href="#DejaVuSans-32"/>
      </g>
     </g>
    </g>
    <g id="ytick_3">
     <g id="line2d_10">
      <path clip-path="url(#p40b04269bd)" d="M 45.52375 122.184792 
L 412.98625 122.184792 
" style="fill:none;stroke:#ffffff;stroke-linecap:round;stroke-width:0.8;"/>
     </g>
     <g id="text_11">
      <!-- −1 -->
      <g style="fill:#262626;" transform="translate(23.781562 125.98401)scale(0.1 -0.1)">
       <defs>
        <path d="M 794 531 
L 1825 531 
L 1825 4091 
L 703 3866 
L 703 4441 
L 1819 4666 
L 2450 4666 
L 2450 531 
L 3481 531 
L 3481 0 
L 794 0 
L 794 531 
z
" id="DejaVuSans-31" transform="scale(0.015625)"/>
       </defs>
       <use xlink:href="#DejaVuSans-2212"/>
       <use x="83.789062" xlink:href="#DejaVuSans-31"/>
      </g>
     </g>
    </g>
    <g id="ytick_4">
     <g id="line2d_11">
      <path clip-path="url(#p40b04269bd)" d="M 45.52375 97.218125 
L 412.98625 97.218125 
" style="fill:none;stroke:#ffffff;stroke-linecap:round;stroke-width:0.8;"/>
     </g>
     <g id="text_12">
      <!-- 0 -->
      <g style="fill:#262626;" transform="translate(32.16125 101.017344)scale(0.1 -0.1)">
       <use xlink:href="#DejaVuSans-30"/>
      </g>
     </g>
    </g>
    <g id="ytick_5">
     <g id="line2d_12">
      <path clip-path="url(#p40b04269bd)" d="M 45.52375 72.251458 
L 412.98625 72.251458 
" style="fill:none;stroke:#ffffff;stroke-linecap:round;stroke-width:0.8;"/>
     </g>
     <g id="text_13">
      <!-- 1 -->
      <g style="fill:#262626;" transform="translate(32.16125 76.050677)scale(0.1 -0.1)">
       <use xlink:href="#DejaVuSans-31"/>
      </g>
     </g>
    </g>
    <g id="ytick_6">
     <g id="line2d_13">
      <path clip-path="url(#p40b04269bd)" d="M 45.52375 47.284792 
L 412.98625 47.284792 
" style="fill:none;stroke:#ffffff;stroke-linecap:round;stroke-width:0.8;"/>
     </g>
     <g id="text_14">
      <!-- 2 -->
      <g style="fill:#262626;" transform="translate(32.16125 51.08401)scale(0.1 -0.1)">
       <use xlink:href="#DejaVuSans-32"/>
      </g>
     </g>
    </g>
    <g id="ytick_7">
     <g id="line2d_14">
      <path clip-path="url(#p40b04269bd)" d="M 45.52375 22.318125 
L 412.98625 22.318125 
" style="fill:none;stroke:#ffffff;stroke-linecap:round;stroke-width:0.8;"/>
     </g>
     <g id="text_15">
      <!-- 3 -->
      <g style="fill:#262626;" transform="translate(32.16125 26.117344)scale(0.1 -0.1)">
       <use xlink:href="#DejaVuSans-33"/>
      </g>
     </g>
    </g>
    <g id="text_16">
     <!-- $y$ -->
     <g style="fill:#262626;" transform="translate(17.051562 101.118125)rotate(-90)scale(0.13 -0.13)">
      <defs>
       <path d="M 1588 -325 
Q 1188 -997 936 -1164 
Q 684 -1331 294 -1331 
L -159 -1331 
L -63 -850 
L 269 -850 
Q 509 -850 678 -719 
Q 847 -588 1056 -206 
L 1234 128 
L 459 3500 
L 1069 3500 
L 1650 819 
L 3256 3500 
L 3859 3500 
L 1588 -325 
z
" id="DejaVuSans-Oblique-79" transform="scale(0.015625)"/>
      </defs>
      <use transform="translate(0 0.3125)" xlink:href="#DejaVuSans-Oblique-79"/>
     </g>
    </g>
   </g>
   <g id="PolyCollection_1">
    <defs>
     <path d="M 45.52375 -378.682117 
L 45.52375 -281.365605 
L 50.489459 -283.785865 
L 55.455169 -287.042729 
L 60.420878 -291.266895 
L 65.386588 -296.522376 
L 70.352297 -302.764761 
L 75.318007 -309.80704 
L 80.283716 -317.304464 
L 85.249426 -324.768113 
L 90.215135 -331.611798 
L 95.180845 -337.229358 
L 100.146554 -341.090896 
L 105.112264 -342.839247 
L 110.077973 -342.364428 
L 115.043682 -339.79614 
L 120.009392 -335.68014 
L 124.975101 -330.504982 
L 129.940811 -324.984007 
L 134.90652 -319.728975 
L 139.87223 -315.181088 
L 144.837939 -311.549317 
L 149.803649 -308.811486 
L 154.769358 -306.776046 
L 159.735068 -305.184549 
L 164.700777 -303.822453 
L 169.666486 -302.603323 
L 174.632196 -301.528888 
L 179.597905 -301.01401 
L 184.563615 -301.092657 
L 189.529324 -301.854852 
L 194.495034 -302.997478 
L 199.460743 -304.666514 
L 204.426453 -307.009518 
L 209.392162 -310.215504 
L 214.357872 -314.02059 
L 219.323581 -314.939296 
L 224.289291 -314.47464 
L 229.255 -312.595258 
L 234.220709 -309.495783 
L 239.186419 -305.548096 
L 244.152128 -301.224046 
L 249.117838 -297.011592 
L 254.083547 -293.344259 
L 259.049257 -290.556758 
L 264.014966 -288.870113 
L 268.980676 -288.400532 
L 273.946385 -289.18009 
L 278.912095 -291.175816 
L 283.877804 -294.297529 
L 288.843514 -298.392187 
L 293.809223 -303.230309 
L 298.774932 -308.494843 
L 303.740642 -313.783107 
L 308.706351 -318.628626 
L 313.672061 -322.543785 
L 318.63777 -325.078021 
L 323.60348 -325.881414 
L 328.569189 -322.199043 
L 333.534899 -317.207912 
L 338.500608 -314.252748 
L 343.466318 -310.853338 
L 348.432027 -303.924966 
L 353.397736 -296.737304 
L 358.363446 -289.840214 
L 363.329155 -283.696863 
L 368.294865 -278.634298 
L 373.260574 -274.819765 
L 378.226284 -272.263936 
L 383.191993 -270.84695 
L 388.157703 -270.359511 
L 393.123412 -270.549536 
L 398.089122 -271.165351 
L 403.054831 -271.98856 
L 408.020541 -272.85301 
L 412.98625 -273.649877 
L 412.98625 -372.957348 
L 412.98625 -372.957348 
L 408.020541 -371.607314 
L 403.054831 -369.760683 
L 398.089122 -367.29561 
L 393.123412 -364.094149 
L 388.157703 -360.064566 
L 383.191993 -355.170412 
L 378.226284 -349.461733 
L 373.260574 -343.101311 
L 368.294865 -336.3779 
L 363.329155 -329.699647 
L 358.363446 -323.564083 
L 353.397736 -318.505916 
L 348.432027 -315.029051 
L 343.466318 -313.533813 
L 338.500608 -316.954307 
L 333.534899 -321.717618 
L 328.569189 -324.761008 
L 323.60348 -328.826044 
L 318.63777 -336.542247 
L 313.672061 -344.728614 
L 308.706351 -352.774911 
L 303.740642 -360.152864 
L 298.774932 -366.46851 
L 293.809223 -371.485623 
L 288.843514 -375.118237 
L 283.877804 -377.396564 
L 278.912095 -378.416169 
L 273.946385 -378.284091 
L 268.980676 -377.076588 
L 264.014966 -374.82042 
L 259.049257 -371.50279 
L 254.083547 -367.106033 
L 249.117838 -361.655064 
L 244.152128 -355.261243 
L 239.186419 -348.147119 
L 234.220709 -340.641749 
L 229.255 -333.1446 
L 224.289291 -326.065291 
L 219.323581 -319.754263 
L 214.357872 -314.44357 
L 209.392162 -311.978902 
L 204.426453 -309.254597 
L 199.460743 -306.375347 
L 194.495034 -303.84206 
L 189.529324 -302.023977 
L 184.563615 -301.183274 
L 179.597905 -301.032629 
L 174.632196 -301.600074 
L 169.666486 -302.812896 
L 164.700777 -304.968746 
L 159.735068 -307.967487 
L 154.769358 -311.646979 
L 149.803649 -315.736386 
L 144.837939 -319.918529 
L 139.87223 -323.910419 
L 134.90652 -327.536262 
L 129.940811 -330.769908 
L 124.975101 -333.733848 
L 120.009392 -336.65572 
L 115.043682 -339.835856 
L 110.077973 -343.369433 
L 105.112264 -347.479564 
L 100.146554 -352.087625 
L 95.180845 -357.017134 
L 90.215135 -361.992684 
L 85.249426 -366.699208 
L 80.283716 -370.845436 
L 75.318007 -374.21624 
L 70.352297 -376.703449 
L 65.386588 -378.311433 
L 60.420878 -379.140172 
L 55.455169 -379.353225 
L 50.489459 -379.140105 
L 45.52375 -378.682117 
z
" id="m0a4360781b" style="stroke:#ff0000;stroke-opacity:0.15;"/>
    </defs>
    <g clip-path="url(#p40b04269bd)">
     <use style="fill:#ff0000;fill-opacity:0.15;stroke:#ff0000;stroke-opacity:0.15;" x="0" xlink:href="#m0a4360781b" y="423.177812"/>
    </g>
   </g>
   <g id="line2d_15">
    <path clip-path="url(#p40b04269bd)" d="M 45.52375 90.242051 
L 50.489459 86.463197 
L 55.455169 82.966541 
L 60.420878 79.843832 
L 65.386588 77.177007 
L 70.352297 75.036041 
L 75.318007 73.477111 
L 80.283716 72.54112 
L 85.249426 72.25263 
L 90.215135 72.619208 
L 95.180845 73.631238 
L 100.146554 75.262164 
L 105.112264 77.469192 
L 110.077973 80.194412 
L 115.043682 83.366317 
L 120.009392 86.901679 
L 124.975101 90.707735 
L 129.940811 94.684617 
L 134.90652 98.727975 
L 139.87223 102.731717 
L 144.837939 106.590787 
L 149.803649 110.203929 
L 154.769358 113.476336 
L 159.735068 116.322143 
L 164.700777 118.666681 
L 169.666486 120.44843 
L 174.632196 121.62064 
L 179.597905 122.152552 
L 184.563615 122.030209 
L 189.529324 121.256823 
L 194.495034 119.852686 
L 199.460743 117.85464 
L 204.426453 115.315113 
L 209.392162 112.30074 
L 214.357872 108.890613 
L 219.323581 105.174213 
L 224.289291 101.249053 
L 229.255 97.218125 
L 234.220709 93.187197 
L 239.186419 89.262037 
L 244.152128 85.545637 
L 249.117838 82.13551 
L 254.083547 79.121137 
L 259.049257 76.58161 
L 264.014966 74.583564 
L 268.980676 73.179427 
L 273.946385 72.406041 
L 278.912095 72.283698 
L 283.877804 72.81561 
L 288.843514 73.98782 
L 293.809223 75.769569 
L 298.774932 78.114107 
L 303.740642 80.959914 
L 308.706351 84.232321 
L 313.672061 87.845463 
L 318.63777 91.704533 
L 323.60348 95.708275 
L 328.569189 99.751633 
L 333.534899 103.728515 
L 338.500608 107.534571 
L 343.466318 111.069933 
L 348.432027 114.241838 
L 353.397736 116.967058 
L 358.363446 119.174086 
L 363.329155 120.805012 
L 368.294865 121.817042 
L 373.260574 122.18362 
L 378.226284 121.89513 
L 383.191993 120.959139 
L 388.157703 119.400209 
L 393.123412 117.259243 
L 398.089122 114.592418 
L 403.054831 111.469709 
L 408.020541 107.973053 
L 412.98625 104.194199 
" style="fill:none;stroke:#0000ff;stroke-dasharray:5.55,2.4;stroke-dashoffset:0;stroke-width:1.5;"/>
   </g>
   <g id="line2d_16">
    <path clip-path="url(#p40b04269bd)" d="M 45.52375 93.153952 
L 50.489459 91.714827 
L 55.455169 89.979836 
L 60.420878 87.974279 
L 65.386588 85.760908 
L 70.352297 83.443707 
L 75.318007 81.166172 
L 80.283716 79.102862 
L 85.249426 77.444152 
L 90.215135 76.375572 
L 95.180845 76.054567 
L 100.146554 76.588552 
L 105.112264 78.018407 
L 110.077973 80.310882 
L 115.043682 83.361814 
L 120.009392 87.009883 
L 124.975101 91.058397 
L 129.940811 95.300855 
L 134.90652 99.545194 
L 139.87223 103.632059 
L 144.837939 107.44389 
L 149.803649 110.903876 
L 154.769358 113.9663 
L 159.735068 116.601794 
L 164.700777 118.782213 
L 169.666486 120.469703 
L 174.632196 121.613331 
L 179.597905 122.154493 
L 184.563615 122.039847 
L 189.529324 121.238398 
L 194.495034 119.758043 
L 199.460743 117.656882 
L 204.426453 115.045755 
L 209.392162 112.08061 
L 214.357872 108.945732 
L 219.323581 105.831033 
L 224.289291 102.907847 
L 229.255 100.307884 
L 234.220709 98.109046 
L 239.186419 96.330205 
L 244.152128 94.935168 
L 249.117838 93.844485 
L 254.083547 92.952666 
L 259.049257 92.148039 
L 264.014966 91.332546 
L 268.980676 90.439253 
L 273.946385 89.445722 
L 278.912095 88.38182 
L 283.877804 87.330766 
L 288.843514 86.4226 
L 293.809223 85.819846 
L 298.774932 85.696136 
L 303.740642 86.209827 
L 308.706351 87.476044 
L 313.672061 89.541613 
L 318.63777 92.367679 
L 323.60348 95.824084 
L 328.569189 99.697787 
L 333.534899 103.715048 
L 338.500608 107.574285 
L 343.466318 110.984237 
L 348.432027 113.700804 
L 353.397736 115.556202 
L 358.363446 116.475664 
L 363.329155 116.479558 
L 368.294865 115.671714 
L 373.260574 114.217275 
L 378.226284 112.314978 
L 383.191993 110.169132 
L 388.157703 107.965774 
L 393.123412 105.85597 
L 398.089122 103.947332 
L 403.054831 102.303191 
L 408.020541 100.94765 
L 412.98625 99.8742 
" style="fill:none;stroke:#ff0000;stroke-linecap:round;stroke-width:2;"/>
   </g>
   <g id="line2d_17">
    <defs>
     <path d="M 0 3 
C 0.795609 3 1.55874 2.683901 2.12132 2.12132 
C 2.683901 1.55874 3 0.795609 3 0 
C 3 -0.795609 2.683901 -1.55874 2.12132 -2.12132 
C 1.55874 -2.683901 0.795609 -3 0 -3 
C -0.795609 -3 -1.55874 -2.683901 -2.12132 -2.12132 
C -2.683901 -1.55874 -3 -0.795609 -3 0 
C -3 0.795609 -2.683901 1.55874 -2.12132 2.12132 
C -1.55874 2.683901 -0.795609 3 0 3 
z
" id="m83def4d7ad" style="stroke:#000000;"/>
    </defs>
    <g clip-path="url(#p40b04269bd)">
     <use style="stroke:#000000;" x="187.311308" xlink:href="#m83def4d7ad" y="121.681816"/>
     <use style="stroke:#000000;" x="115.803177" xlink:href="#m83def4d7ad" y="83.88571"/>
     <use style="stroke:#000000;" x="113.819261" xlink:href="#m83def4d7ad" y="82.547051"/>
     <use style="stroke:#000000;" x="325.885099" xlink:href="#m83def4d7ad" y="97.567594"/>
     <use style="stroke:#000000;" x="178.964147" xlink:href="#m83def4d7ad" y="122.120962"/>
     <use style="stroke:#000000;" x="172.16173" xlink:href="#m83def4d7ad" y="121.115962"/>
     <use style="stroke:#000000;" x="213.675234" xlink:href="#m83def4d7ad" y="109.379669"/>
     <use style="stroke:#000000;" x="341.370532" xlink:href="#m83def4d7ad" y="109.616984"/>
    </g>
   </g>
   <g id="patch_3">
    <path d="M 45.52375 172.118125 
L 45.52375 22.318125 
" style="fill:none;stroke:#ffffff;stroke-linecap:square;stroke-linejoin:miter;stroke-width:0.8;"/>
   </g>
   <g id="patch_4">
    <path d="M 412.98625 172.118125 
L 412.98625 22.318125 
" style="fill:none;stroke:#ffffff;stroke-linecap:square;stroke-linejoin:miter;stroke-width:0.8;"/>
   </g>
   <g id="patch_5">
    <path d="M 45.52375 172.118125 
L 412.98625 172.118125 
" style="fill:none;stroke:#ffffff;stroke-linecap:square;stroke-linejoin:miter;stroke-width:0.8;"/>
   </g>
   <g id="patch_6">
    <path d="M 45.52375 22.318125 
L 412.98625 22.318125 
" style="fill:none;stroke:#ffffff;stroke-linecap:square;stroke-linejoin:miter;stroke-width:0.8;"/>
   </g>
   <g id="text_17">
    <!-- Distribution of posterior and prior data. -->
    <g style="fill:#262626;" transform="translate(111.222813 16.318125)scale(0.12 -0.12)">
     <defs>
      <path d="M 1259 4147 
L 1259 519 
L 2022 519 
Q 2988 519 3436 956 
Q 3884 1394 3884 2338 
Q 3884 3275 3436 3711 
Q 2988 4147 2022 4147 
L 1259 4147 
z
M 628 4666 
L 1925 4666 
Q 3281 4666 3915 4102 
Q 4550 3538 4550 2338 
Q 4550 1131 3912 565 
Q 3275 0 1925 0 
L 628 0 
L 628 4666 
z
" id="DejaVuSans-44" transform="scale(0.015625)"/>
      <path d="M 603 3500 
L 1178 3500 
L 1178 0 
L 603 0 
L 603 3500 
z
M 603 4863 
L 1178 4863 
L 1178 4134 
L 603 4134 
L 603 4863 
z
" id="DejaVuSans-69" transform="scale(0.015625)"/>
      <path d="M 2834 3397 
L 2834 2853 
Q 2591 2978 2328 3040 
Q 2066 3103 1784 3103 
Q 1356 3103 1142 2972 
Q 928 2841 928 2578 
Q 928 2378 1081 2264 
Q 1234 2150 1697 2047 
L 1894 2003 
Q 2506 1872 2764 1633 
Q 3022 1394 3022 966 
Q 3022 478 2636 193 
Q 2250 -91 1575 -91 
Q 1294 -91 989 -36 
Q 684 19 347 128 
L 347 722 
Q 666 556 975 473 
Q 1284 391 1588 391 
Q 1994 391 2212 530 
Q 2431 669 2431 922 
Q 2431 1156 2273 1281 
Q 2116 1406 1581 1522 
L 1381 1569 
Q 847 1681 609 1914 
Q 372 2147 372 2553 
Q 372 3047 722 3315 
Q 1072 3584 1716 3584 
Q 2034 3584 2315 3537 
Q 2597 3491 2834 3397 
z
" id="DejaVuSans-73" transform="scale(0.015625)"/>
      <path d="M 1172 4494 
L 1172 3500 
L 2356 3500 
L 2356 3053 
L 1172 3053 
L 1172 1153 
Q 1172 725 1289 603 
Q 1406 481 1766 481 
L 2356 481 
L 2356 0 
L 1766 0 
Q 1100 0 847 248 
Q 594 497 594 1153 
L 594 3053 
L 172 3053 
L 172 3500 
L 594 3500 
L 594 4494 
L 1172 4494 
z
" id="DejaVuSans-74" transform="scale(0.015625)"/>
      <path d="M 2631 2963 
Q 2534 3019 2420 3045 
Q 2306 3072 2169 3072 
Q 1681 3072 1420 2755 
Q 1159 2438 1159 1844 
L 1159 0 
L 581 0 
L 581 3500 
L 1159 3500 
L 1159 2956 
Q 1341 3275 1631 3429 
Q 1922 3584 2338 3584 
Q 2397 3584 2469 3576 
Q 2541 3569 2628 3553 
L 2631 2963 
z
" id="DejaVuSans-72" transform="scale(0.015625)"/>
      <path d="M 3116 1747 
Q 3116 2381 2855 2742 
Q 2594 3103 2138 3103 
Q 1681 3103 1420 2742 
Q 1159 2381 1159 1747 
Q 1159 1113 1420 752 
Q 1681 391 2138 391 
Q 2594 391 2855 752 
Q 3116 1113 3116 1747 
z
M 1159 2969 
Q 1341 3281 1617 3432 
Q 1894 3584 2278 3584 
Q 2916 3584 3314 3078 
Q 3713 2572 3713 1747 
Q 3713 922 3314 415 
Q 2916 -91 2278 -91 
Q 1894 -91 1617 61 
Q 1341 213 1159 525 
L 1159 0 
L 581 0 
L 581 4863 
L 1159 4863 
L 1159 2969 
z
" id="DejaVuSans-62" transform="scale(0.015625)"/>
      <path d="M 544 1381 
L 544 3500 
L 1119 3500 
L 1119 1403 
Q 1119 906 1312 657 
Q 1506 409 1894 409 
Q 2359 409 2629 706 
Q 2900 1003 2900 1516 
L 2900 3500 
L 3475 3500 
L 3475 0 
L 2900 0 
L 2900 538 
Q 2691 219 2414 64 
Q 2138 -91 1772 -91 
Q 1169 -91 856 284 
Q 544 659 544 1381 
z
M 1991 3584 
L 1991 3584 
z
" id="DejaVuSans-75" transform="scale(0.015625)"/>
      <path d="M 1959 3097 
Q 1497 3097 1228 2736 
Q 959 2375 959 1747 
Q 959 1119 1226 758 
Q 1494 397 1959 397 
Q 2419 397 2687 759 
Q 2956 1122 2956 1747 
Q 2956 2369 2687 2733 
Q 2419 3097 1959 3097 
z
M 1959 3584 
Q 2709 3584 3137 3096 
Q 3566 2609 3566 1747 
Q 3566 888 3137 398 
Q 2709 -91 1959 -91 
Q 1206 -91 779 398 
Q 353 888 353 1747 
Q 353 2609 779 3096 
Q 1206 3584 1959 3584 
z
" id="DejaVuSans-6f" transform="scale(0.015625)"/>
      <path d="M 3513 2113 
L 3513 0 
L 2938 0 
L 2938 2094 
Q 2938 2591 2744 2837 
Q 2550 3084 2163 3084 
Q 1697 3084 1428 2787 
Q 1159 2491 1159 1978 
L 1159 0 
L 581 0 
L 581 3500 
L 1159 3500 
L 1159 2956 
Q 1366 3272 1645 3428 
Q 1925 3584 2291 3584 
Q 2894 3584 3203 3211 
Q 3513 2838 3513 2113 
z
" id="DejaVuSans-6e" transform="scale(0.015625)"/>
      <path id="DejaVuSans-20" transform="scale(0.015625)"/>
      <path d="M 2375 4863 
L 2375 4384 
L 1825 4384 
Q 1516 4384 1395 4259 
Q 1275 4134 1275 3809 
L 1275 3500 
L 2222 3500 
L 2222 3053 
L 1275 3053 
L 1275 0 
L 697 0 
L 697 3053 
L 147 3053 
L 147 3500 
L 697 3500 
L 697 3744 
Q 697 4328 969 4595 
Q 1241 4863 1831 4863 
L 2375 4863 
z
" id="DejaVuSans-66" transform="scale(0.015625)"/>
      <path d="M 1159 525 
L 1159 -1331 
L 581 -1331 
L 581 3500 
L 1159 3500 
L 1159 2969 
Q 1341 3281 1617 3432 
Q 1894 3584 2278 3584 
Q 2916 3584 3314 3078 
Q 3713 2572 3713 1747 
Q 3713 922 3314 415 
Q 2916 -91 2278 -91 
Q 1894 -91 1617 61 
Q 1341 213 1159 525 
z
M 3116 1747 
Q 3116 2381 2855 2742 
Q 2594 3103 2138 3103 
Q 1681 3103 1420 2742 
Q 1159 2381 1159 1747 
Q 1159 1113 1420 752 
Q 1681 391 2138 391 
Q 2594 391 2855 752 
Q 3116 1113 3116 1747 
z
" id="DejaVuSans-70" transform="scale(0.015625)"/>
      <path d="M 3597 1894 
L 3597 1613 
L 953 1613 
Q 991 1019 1311 708 
Q 1631 397 2203 397 
Q 2534 397 2845 478 
Q 3156 559 3463 722 
L 3463 178 
Q 3153 47 2828 -22 
Q 2503 -91 2169 -91 
Q 1331 -91 842 396 
Q 353 884 353 1716 
Q 353 2575 817 3079 
Q 1281 3584 2069 3584 
Q 2775 3584 3186 3129 
Q 3597 2675 3597 1894 
z
M 3022 2063 
Q 3016 2534 2758 2815 
Q 2500 3097 2075 3097 
Q 1594 3097 1305 2825 
Q 1016 2553 972 2059 
L 3022 2063 
z
" id="DejaVuSans-65" transform="scale(0.015625)"/>
      <path d="M 2194 1759 
Q 1497 1759 1228 1600 
Q 959 1441 959 1056 
Q 959 750 1161 570 
Q 1363 391 1709 391 
Q 2188 391 2477 730 
Q 2766 1069 2766 1631 
L 2766 1759 
L 2194 1759 
z
M 3341 1997 
L 3341 0 
L 2766 0 
L 2766 531 
Q 2569 213 2275 61 
Q 1981 -91 1556 -91 
Q 1019 -91 701 211 
Q 384 513 384 1019 
Q 384 1609 779 1909 
Q 1175 2209 1959 2209 
L 2766 2209 
L 2766 2266 
Q 2766 2663 2505 2880 
Q 2244 3097 1772 3097 
Q 1472 3097 1187 3025 
Q 903 2953 641 2809 
L 641 3341 
Q 956 3463 1253 3523 
Q 1550 3584 1831 3584 
Q 2591 3584 2966 3190 
Q 3341 2797 3341 1997 
z
" id="DejaVuSans-61" transform="scale(0.015625)"/>
      <path d="M 2906 2969 
L 2906 4863 
L 3481 4863 
L 3481 0 
L 2906 0 
L 2906 525 
Q 2725 213 2448 61 
Q 2172 -91 1784 -91 
Q 1150 -91 751 415 
Q 353 922 353 1747 
Q 353 2572 751 3078 
Q 1150 3584 1784 3584 
Q 2172 3584 2448 3432 
Q 2725 3281 2906 2969 
z
M 947 1747 
Q 947 1113 1208 752 
Q 1469 391 1925 391 
Q 2381 391 2643 752 
Q 2906 1113 2906 1747 
Q 2906 2381 2643 2742 
Q 2381 3103 1925 3103 
Q 1469 3103 1208 2742 
Q 947 2381 947 1747 
z
" id="DejaVuSans-64" transform="scale(0.015625)"/>
      <path d="M 684 794 
L 1344 794 
L 1344 0 
L 684 0 
L 684 794 
z
" id="DejaVuSans-2e" transform="scale(0.015625)"/>
     </defs>
     <use xlink:href="#DejaVuSans-44"/>
     <use x="77.001953" xlink:href="#DejaVuSans-69"/>
     <use x="104.785156" xlink:href="#DejaVuSans-73"/>
     <use x="156.884766" xlink:href="#DejaVuSans-74"/>
     <use x="196.09375" xlink:href="#DejaVuSans-72"/>
     <use x="237.207031" xlink:href="#DejaVuSans-69"/>
     <use x="264.990234" xlink:href="#DejaVuSans-62"/>
     <use x="328.466797" xlink:href="#DejaVuSans-75"/>
     <use x="391.845703" xlink:href="#DejaVuSans-74"/>
     <use x="431.054688" xlink:href="#DejaVuSans-69"/>
     <use x="458.837891" xlink:href="#DejaVuSans-6f"/>
     <use x="520.019531" xlink:href="#DejaVuSans-6e"/>
     <use x="583.398438" xlink:href="#DejaVuSans-20"/>
     <use x="615.185547" xlink:href="#DejaVuSans-6f"/>
     <use x="676.367188" xlink:href="#DejaVuSans-66"/>
     <use x="711.572266" xlink:href="#DejaVuSans-20"/>
     <use x="743.359375" xlink:href="#DejaVuSans-70"/>
     <use x="806.835938" xlink:href="#DejaVuSans-6f"/>
     <use x="868.017578" xlink:href="#DejaVuSans-73"/>
     <use x="920.117188" xlink:href="#DejaVuSans-74"/>
     <use x="959.326172" xlink:href="#DejaVuSans-65"/>
     <use x="1020.849609" xlink:href="#DejaVuSans-72"/>
     <use x="1061.962891" xlink:href="#DejaVuSans-69"/>
     <use x="1089.746094" xlink:href="#DejaVuSans-6f"/>
     <use x="1150.927734" xlink:href="#DejaVuSans-72"/>
     <use x="1192.041016" xlink:href="#DejaVuSans-20"/>
     <use x="1223.828125" xlink:href="#DejaVuSans-61"/>
     <use x="1285.107422" xlink:href="#DejaVuSans-6e"/>
     <use x="1348.486328" xlink:href="#DejaVuSans-64"/>
     <use x="1411.962891" xlink:href="#DejaVuSans-20"/>
     <use x="1443.75" xlink:href="#DejaVuSans-70"/>
     <use x="1507.226562" xlink:href="#DejaVuSans-72"/>
     <use x="1548.339844" xlink:href="#DejaVuSans-69"/>
     <use x="1576.123047" xlink:href="#DejaVuSans-6f"/>
     <use x="1637.304688" xlink:href="#DejaVuSans-72"/>
     <use x="1678.417969" xlink:href="#DejaVuSans-20"/>
     <use x="1710.205078" xlink:href="#DejaVuSans-64"/>
     <use x="1773.681641" xlink:href="#DejaVuSans-61"/>
     <use x="1834.960938" xlink:href="#DejaVuSans-74"/>
     <use x="1874.169922" xlink:href="#DejaVuSans-61"/>
     <use x="1935.449219" xlink:href="#DejaVuSans-2e"/>
    </g>
   </g>
   <g id="legend_1">
    <g id="patch_7">
     <path d="M 339.68625 91.493125 
L 405.98625 91.493125 
Q 407.98625 91.493125 407.98625 89.493125 
L 407.98625 29.318125 
Q 407.98625 27.318125 405.98625 27.318125 
L 339.68625 27.318125 
Q 337.68625 27.318125 337.68625 29.318125 
L 337.68625 89.493125 
Q 337.68625 91.493125 339.68625 91.493125 
z
" style="fill:#eaeaf2;opacity:0.8;stroke:#cccccc;stroke-linejoin:miter;"/>
    </g>
    <g id="line2d_18">
     <path d="M 341.68625 35.416562 
L 361.68625 35.416562 
" style="fill:none;stroke:#0000ff;stroke-dasharray:5.55,2.4;stroke-dashoffset:0;stroke-width:1.5;"/>
    </g>
    <g id="line2d_19"/>
    <g id="text_18">
     <!-- $sin(x)$ -->
     <g style="fill:#262626;" transform="translate(369.68625 38.916562)scale(0.1 -0.1)">
      <defs>
       <path d="M 3200 3397 
L 3091 2853 
Q 2863 2978 2609 3040 
Q 2356 3103 2088 3103 
Q 1634 3103 1373 2948 
Q 1113 2794 1113 2528 
Q 1113 2219 1719 2053 
Q 1766 2041 1788 2034 
L 1972 1978 
Q 2547 1819 2739 1644 
Q 2931 1469 2931 1166 
Q 2931 609 2489 259 
Q 2047 -91 1331 -91 
Q 1053 -91 747 -37 
Q 441 16 72 128 
L 184 722 
Q 500 559 806 475 
Q 1113 391 1394 391 
Q 1816 391 2080 572 
Q 2344 753 2344 1031 
Q 2344 1331 1650 1516 
L 1591 1531 
L 1394 1581 
Q 956 1697 753 1886 
Q 550 2075 550 2369 
Q 550 2928 970 3256 
Q 1391 3584 2113 3584 
Q 2397 3584 2667 3537 
Q 2938 3491 3200 3397 
z
" id="DejaVuSans-Oblique-73" transform="scale(0.015625)"/>
       <path d="M 1172 4863 
L 1747 4863 
L 1606 4134 
L 1031 4134 
L 1172 4863 
z
M 909 3500 
L 1484 3500 
L 800 0 
L 225 0 
L 909 3500 
z
" id="DejaVuSans-Oblique-69" transform="scale(0.015625)"/>
       <path d="M 3566 2113 
L 3156 0 
L 2578 0 
L 2988 2091 
Q 3016 2238 3031 2350 
Q 3047 2463 3047 2528 
Q 3047 2791 2881 2937 
Q 2716 3084 2419 3084 
Q 1956 3084 1622 2776 
Q 1288 2469 1184 1941 
L 800 0 
L 225 0 
L 903 3500 
L 1478 3500 
L 1363 2950 
Q 1603 3253 1940 3418 
Q 2278 3584 2650 3584 
Q 3113 3584 3367 3334 
Q 3622 3084 3622 2631 
Q 3622 2519 3608 2391 
Q 3594 2263 3566 2113 
z
" id="DejaVuSans-Oblique-6e" transform="scale(0.015625)"/>
       <path d="M 1984 4856 
Q 1566 4138 1362 3434 
Q 1159 2731 1159 2009 
Q 1159 1288 1364 580 
Q 1569 -128 1984 -844 
L 1484 -844 
Q 1016 -109 783 600 
Q 550 1309 550 2009 
Q 550 2706 781 3412 
Q 1013 4119 1484 4856 
L 1984 4856 
z
" id="DejaVuSans-28" transform="scale(0.015625)"/>
       <path d="M 513 4856 
L 1013 4856 
Q 1481 4119 1714 3412 
Q 1947 2706 1947 2009 
Q 1947 1309 1714 600 
Q 1481 -109 1013 -844 
L 513 -844 
Q 928 -128 1133 580 
Q 1338 1288 1338 2009 
Q 1338 2731 1133 3434 
Q 928 4138 513 4856 
z
" id="DejaVuSans-29" transform="scale(0.015625)"/>
      </defs>
      <use transform="translate(0 0.015625)" xlink:href="#DejaVuSans-Oblique-73"/>
      <use transform="translate(52.099609 0.015625)" xlink:href="#DejaVuSans-Oblique-69"/>
      <use transform="translate(79.882812 0.015625)" xlink:href="#DejaVuSans-Oblique-6e"/>
      <use transform="translate(143.261719 0.015625)" xlink:href="#DejaVuSans-28"/>
      <use transform="translate(182.275391 0.015625)" xlink:href="#DejaVuSans-Oblique-78"/>
      <use transform="translate(241.455078 0.015625)" xlink:href="#DejaVuSans-29"/>
     </g>
    </g>
    <g id="line2d_20">
     <path d="M 341.68625 50.094688 
L 361.68625 50.094688 
" style="fill:none;stroke:#ff0000;stroke-linecap:round;stroke-width:2;"/>
    </g>
    <g id="line2d_21"/>
    <g id="text_19">
     <!-- $\mu_{2|1}$ -->
     <g style="fill:#262626;" transform="translate(369.68625 53.594688)scale(0.1 -0.1)">
      <defs>
       <path d="M -84 -1331 
L 856 3500 
L 1434 3500 
L 1009 1322 
Q 997 1256 987 1175 
Q 978 1094 978 1013 
Q 978 722 1161 565 
Q 1344 409 1684 409 
Q 2147 409 2431 671 
Q 2716 934 2816 1459 
L 3213 3500 
L 3788 3500 
L 3266 809 
Q 3253 750 3248 706 
Q 3244 663 3244 628 
Q 3244 531 3283 486 
Q 3322 441 3406 441 
Q 3438 441 3492 456 
Q 3547 472 3647 513 
L 3559 50 
Q 3422 -19 3297 -55 
Q 3172 -91 3053 -91 
Q 2847 -91 2730 40 
Q 2613 172 2613 403 
Q 2438 153 2195 31 
Q 1953 -91 1625 -91 
Q 1334 -91 1117 43 
Q 900 178 831 397 
L 494 -1331 
L -84 -1331 
z
" id="DejaVuSans-Oblique-3bc" transform="scale(0.015625)"/>
       <path d="M 1344 4891 
L 1344 -1509 
L 813 -1509 
L 813 4891 
L 1344 4891 
z
" id="DejaVuSans-7c" transform="scale(0.015625)"/>
      </defs>
      <use transform="translate(0 0.3125)" xlink:href="#DejaVuSans-Oblique-3bc"/>
      <use transform="translate(63.623047 -16.09375)scale(0.7)" xlink:href="#DejaVuSans-32"/>
      <use transform="translate(108.15918 -16.09375)scale(0.7)" xlink:href="#DejaVuSans-7c"/>
      <use transform="translate(131.743164 -16.09375)scale(0.7)" xlink:href="#DejaVuSans-31"/>
     </g>
    </g>
    <g id="line2d_22"/>
    <g id="line2d_23">
     <g>
      <use style="stroke:#000000;" x="351.68625" xlink:href="#m83def4d7ad" y="65.994687"/>
     </g>
    </g>
    <g id="text_20">
     <!-- $(x_1, y_1)$ -->
     <g style="fill:#262626;" transform="translate(369.68625 69.494687)scale(0.1 -0.1)">
      <defs>
       <path d="M 750 794 
L 1409 794 
L 1409 256 
L 897 -744 
L 494 -744 
L 750 256 
L 750 794 
z
" id="DejaVuSans-2c" transform="scale(0.015625)"/>
      </defs>
      <use transform="translate(0 0.125)" xlink:href="#DejaVuSans-28"/>
      <use transform="translate(39.013672 0.125)" xlink:href="#DejaVuSans-Oblique-78"/>
      <use transform="translate(98.193359 -16.28125)scale(0.7)" xlink:href="#DejaVuSans-31"/>
      <use transform="translate(145.463867 0.125)" xlink:href="#DejaVuSans-2c"/>
      <use transform="translate(196.733398 0.125)" xlink:href="#DejaVuSans-Oblique-79"/>
      <use transform="translate(255.913086 -16.28125)scale(0.7)" xlink:href="#DejaVuSans-31"/>
      <use transform="translate(303.183594 0.125)" xlink:href="#DejaVuSans-29"/>
     </g>
    </g>
    <g id="patch_8">
     <path d="M 341.68625 84.193125 
L 361.68625 84.193125 
L 361.68625 77.193125 
L 341.68625 77.193125 
z
" style="fill:#ff0000;fill-opacity:0.15;stroke:#ff0000;stroke-linejoin:miter;stroke-opacity:0.15;"/>
    </g>
    <g id="text_21">
     <!-- $2 \sigma_{2|1}$ -->
     <g style="fill:#262626;" transform="translate(369.68625 84.193125)scale(0.1 -0.1)">
      <defs>
       <path d="M 2219 3044 
Q 1744 3044 1422 2700 
Q 1081 2341 969 1747 
Q 844 1119 1044 756 
Q 1241 397 1706 397 
Q 2166 397 2503 759 
Q 2844 1122 2966 1747 
Q 3075 2319 2881 2700 
Q 2700 3044 2219 3044 
z
M 2309 3503 
L 4219 3500 
L 4106 2925 
L 3463 2925 
Q 3706 2438 3575 1747 
Q 3406 888 2884 400 
Q 2359 -91 1609 -91 
Q 856 -91 525 400 
Q 194 888 363 1747 
Q 528 2609 1050 3097 
Q 1484 3503 2309 3503 
z
" id="DejaVuSans-Oblique-3c3" transform="scale(0.015625)"/>
      </defs>
      <use transform="translate(0 0.78125)" xlink:href="#DejaVuSans-32"/>
      <use transform="translate(63.623047 0.78125)" xlink:href="#DejaVuSans-Oblique-3c3"/>
      <use transform="translate(127.001953 -15.625)scale(0.7)" xlink:href="#DejaVuSans-32"/>
      <use transform="translate(171.538086 -15.625)scale(0.7)" xlink:href="#DejaVuSans-7c"/>
      <use transform="translate(195.12207 -15.625)scale(0.7)" xlink:href="#DejaVuSans-31"/>
     </g>
    </g>
   </g>
  </g>
  <g id="axes_2">
   <g id="patch_9">
    <path d="M 45.52375 382.718125 
L 412.98625 382.718125 
L 412.98625 232.918125 
L 45.52375 232.918125 
z
" style="fill:#eaeaf2;"/>
   </g>
   <g id="matplotlib.axis_3">
    <g id="xtick_8">
     <g id="line2d_24">
      <path clip-path="url(#p1e622c059f)" d="M 45.52375 382.718125 
L 45.52375 232.918125 
" style="fill:none;stroke:#ffffff;stroke-linecap:round;stroke-width:0.8;"/>
     </g>
     <g id="text_22">
      <!-- −6 -->
      <g style="fill:#262626;" transform="translate(38.152656 397.316562)scale(0.1 -0.1)">
       <use xlink:href="#DejaVuSans-2212"/>
       <use x="83.789062" xlink:href="#DejaVuSans-36"/>
      </g>
     </g>
    </g>
    <g id="xtick_9">
     <g id="line2d_25">
      <path clip-path="url(#p1e622c059f)" d="M 106.7675 382.718125 
L 106.7675 232.918125 
" style="fill:none;stroke:#ffffff;stroke-linecap:round;stroke-width:0.8;"/>
     </g>
     <g id="text_23">
      <!-- −4 -->
      <g style="fill:#262626;" transform="translate(99.396406 397.316562)scale(0.1 -0.1)">
       <use xlink:href="#DejaVuSans-2212"/>
       <use x="83.789062" xlink:href="#DejaVuSans-34"/>
      </g>
     </g>
    </g>
    <g id="xtick_10">
     <g id="line2d_26">
      <path clip-path="url(#p1e622c059f)" d="M 168.01125 382.718125 
L 168.01125 232.918125 
" style="fill:none;stroke:#ffffff;stroke-linecap:round;stroke-width:0.8;"/>
     </g>
     <g id="text_24">
      <!-- −2 -->
      <g style="fill:#262626;" transform="translate(160.640156 397.316562)scale(0.1 -0.1)">
       <use xlink:href="#DejaVuSans-2212"/>
       <use x="83.789062" xlink:href="#DejaVuSans-32"/>
      </g>
     </g>
    </g>
    <g id="xtick_11">
     <g id="line2d_27">
      <path clip-path="url(#p1e622c059f)" d="M 229.255 382.718125 
L 229.255 232.918125 
" style="fill:none;stroke:#ffffff;stroke-linecap:round;stroke-width:0.8;"/>
     </g>
     <g id="text_25">
      <!-- 0 -->
      <g style="fill:#262626;" transform="translate(226.07375 397.316562)scale(0.1 -0.1)">
       <use xlink:href="#DejaVuSans-30"/>
      </g>
     </g>
    </g>
    <g id="xtick_12">
     <g id="line2d_28">
      <path clip-path="url(#p1e622c059f)" d="M 290.49875 382.718125 
L 290.49875 232.918125 
" style="fill:none;stroke:#ffffff;stroke-linecap:round;stroke-width:0.8;"/>
     </g>
     <g id="text_26">
      <!-- 2 -->
      <g style="fill:#262626;" transform="translate(287.3175 397.316562)scale(0.1 -0.1)">
       <use xlink:href="#DejaVuSans-32"/>
      </g>
     </g>
    </g>
    <g id="xtick_13">
     <g id="line2d_29">
      <path clip-path="url(#p1e622c059f)" d="M 351.7425 382.718125 
L 351.7425 232.918125 
" style="fill:none;stroke:#ffffff;stroke-linecap:round;stroke-width:0.8;"/>
     </g>
     <g id="text_27">
      <!-- 4 -->
      <g style="fill:#262626;" transform="translate(348.56125 397.316562)scale(0.1 -0.1)">
       <use xlink:href="#DejaVuSans-34"/>
      </g>
     </g>
    </g>
    <g id="xtick_14">
     <g id="line2d_30">
      <path clip-path="url(#p1e622c059f)" d="M 412.98625 382.718125 
L 412.98625 232.918125 
" style="fill:none;stroke:#ffffff;stroke-linecap:round;stroke-width:0.8;"/>
     </g>
     <g id="text_28">
      <!-- 6 -->
      <g style="fill:#262626;" transform="translate(409.805 397.316562)scale(0.1 -0.1)">
       <use xlink:href="#DejaVuSans-36"/>
      </g>
     </g>
    </g>
    <g id="text_29">
     <!-- $x$ -->
     <g style="fill:#262626;" transform="translate(225.355 413.274219)scale(0.13 -0.13)">
      <use transform="translate(0 0.3125)" xlink:href="#DejaVuSans-Oblique-78"/>
     </g>
    </g>
   </g>
   <g id="matplotlib.axis_4">
    <g id="ytick_8">
     <g id="line2d_31">
      <path clip-path="url(#p1e622c059f)" d="M 45.52375 378.957676 
L 412.98625 378.957676 
" style="fill:none;stroke:#ffffff;stroke-linecap:round;stroke-width:0.8;"/>
     </g>
     <g id="text_30">
      <!-- −2 -->
      <g style="fill:#262626;" transform="translate(23.781562 382.756894)scale(0.1 -0.1)">
       <use xlink:href="#DejaVuSans-2212"/>
       <use x="83.789062" xlink:href="#DejaVuSans-32"/>
      </g>
     </g>
    </g>
    <g id="ytick_9">
     <g id="line2d_32">
      <path clip-path="url(#p1e622c059f)" d="M 45.52375 344.481464 
L 412.98625 344.481464 
" style="fill:none;stroke:#ffffff;stroke-linecap:round;stroke-width:0.8;"/>
     </g>
     <g id="text_31">
      <!-- −1 -->
      <g style="fill:#262626;" transform="translate(23.781562 348.280682)scale(0.1 -0.1)">
       <use xlink:href="#DejaVuSans-2212"/>
       <use x="83.789062" xlink:href="#DejaVuSans-31"/>
      </g>
     </g>
    </g>
    <g id="ytick_10">
     <g id="line2d_33">
      <path clip-path="url(#p1e622c059f)" d="M 45.52375 310.005252 
L 412.98625 310.005252 
" style="fill:none;stroke:#ffffff;stroke-linecap:round;stroke-width:0.8;"/>
     </g>
     <g id="text_32">
      <!-- 0 -->
      <g style="fill:#262626;" transform="translate(32.16125 313.804471)scale(0.1 -0.1)">
       <use xlink:href="#DejaVuSans-30"/>
      </g>
     </g>
    </g>
    <g id="ytick_11">
     <g id="line2d_34">
      <path clip-path="url(#p1e622c059f)" d="M 45.52375 275.52904 
L 412.98625 275.52904 
" style="fill:none;stroke:#ffffff;stroke-linecap:round;stroke-width:0.8;"/>
     </g>
     <g id="text_33">
      <!-- 1 -->
      <g style="fill:#262626;" transform="translate(32.16125 279.328259)scale(0.1 -0.1)">
       <use xlink:href="#DejaVuSans-31"/>
      </g>
     </g>
    </g>
    <g id="ytick_12">
     <g id="line2d_35">
      <path clip-path="url(#p1e622c059f)" d="M 45.52375 241.052828 
L 412.98625 241.052828 
" style="fill:none;stroke:#ffffff;stroke-linecap:round;stroke-width:0.8;"/>
     </g>
     <g id="text_34">
      <!-- 2 -->
      <g style="fill:#262626;" transform="translate(32.16125 244.852047)scale(0.1 -0.1)">
       <use xlink:href="#DejaVuSans-32"/>
      </g>
     </g>
    </g>
    <g id="text_35">
     <!-- $y$ -->
     <g style="fill:#262626;" transform="translate(17.051562 311.718125)rotate(-90)scale(0.13 -0.13)">
      <use transform="translate(0 0.3125)" xlink:href="#DejaVuSans-Oblique-79"/>
     </g>
    </g>
   </g>
   <g id="line2d_36">
    <path clip-path="url(#p1e622c059f)" d="M 45.52375 276.656159 
L 50.489459 276.878385 
L 55.455169 276.684519 
L 60.420878 276.241329 
L 65.386588 275.699701 
L 70.352297 275.186129 
L 75.318007 274.817196 
L 80.283716 274.719543 
L 85.249426 275.03632 
L 90.215135 275.91199 
L 95.180845 277.463097 
L 100.146554 279.752773 
L 105.112264 282.784078 
L 110.077973 286.514142 
L 115.043682 290.876458 
L 120.009392 295.793526 
L 124.975101 301.170386 
L 129.940811 306.875297 
L 134.90652 312.725811 
L 139.87223 318.497402 
L 144.837939 323.957726 
L 149.803649 328.91219 
L 154.769358 333.237309 
L 159.735068 336.883829 
L 164.700777 339.848186 
L 169.666486 342.12812 
L 174.632196 343.686357 
L 179.597905 344.44138 
L 184.563615 344.29059 
L 189.529324 343.156232 
L 194.495034 341.03502 
L 199.460743 338.031611 
L 204.426453 334.362253 
L 209.392162 330.325497 
L 214.357872 326.247287 
L 219.323581 322.415228 
L 224.289291 319.019101 
L 229.255 316.111679 
L 234.220709 313.597768 
L 239.186419 311.252955 
L 244.152128 308.768924 
L 249.117838 305.819385 
L 254.083547 302.138069 
L 259.049257 297.596645 
L 264.014966 292.266579 
L 268.980676 286.44721 
L 273.946385 280.646128 
L 278.912095 275.508023 
L 283.877804 271.702847 
L 288.843514 269.797836 
L 293.809223 270.145509 
L 298.774932 272.816655 
L 303.740642 277.594269 
L 308.706351 284.02569 
L 313.672061 291.513473 
L 318.63777 299.417051 
L 323.60348 307.140099 
L 328.569189 314.189668 
L 333.534899 320.206526 
L 338.500608 324.974867 
L 343.466318 328.420484 
L 348.432027 330.601155 
L 353.397736 331.686636 
L 358.363446 331.923239 
L 363.329155 331.582092 
L 368.294865 330.898654 
L 373.260574 330.019169 
L 378.226284 328.972644 
L 383.191993 327.681764 
L 388.157703 326.013987 
L 393.123412 323.859366 
L 398.089122 321.209702 
L 403.054831 318.210465 
L 408.020541 315.164007 
L 412.98625 312.478865 
" style="fill:none;stroke:#1f77b4;stroke-linecap:round;stroke-width:1.5;"/>
   </g>
   <g id="line2d_37">
    <path clip-path="url(#p1e622c059f)" d="M 45.52375 259.314259 
L 50.489459 256.94197 
L 55.455169 255.687165 
L 60.420878 255.720826 
L 65.386588 256.983499 
L 70.352297 259.226239 
L 75.318007 262.106472 
L 80.283716 265.299294 
L 85.249426 268.582884 
L 90.215135 271.872341 
L 95.180845 275.200694 
L 100.146554 278.667449 
L 105.112264 282.383784 
L 110.077973 286.436937 
L 115.043682 290.879231 
L 120.009392 295.730837 
L 124.975101 300.979285 
L 129.940811 306.566358 
L 134.90652 312.368538 
L 139.87223 318.189159 
L 144.837939 323.779276 
L 149.803649 328.888615 
L 154.769358 333.32723 
L 159.735068 337.00605 
L 164.700777 339.93103 
L 169.666486 342.149618 
L 174.632196 343.676842 
L 179.597905 344.444442 
L 184.563615 344.308154 
L 189.529324 343.118888 
L 194.495034 340.828349 
L 199.460743 337.578541 
L 204.426453 333.729219 
L 209.392162 329.804679 
L 214.357872 326.376582 
L 219.323581 323.924863 
L 224.289291 322.724098 
L 229.255 322.789088 
L 234.220709 323.890017 
L 239.186419 325.62547 
L 244.152128 327.52777 
L 249.117838 329.171243 
L 254.083547 330.257748 
L 259.049257 330.661994 
L 264.014966 330.428971 
L 268.980676 329.726089 
L 273.946385 328.763136 
L 278.912095 327.703034 
L 283.877804 326.592649 
L 288.843514 325.341722 
L 293.809223 323.765321 
L 298.774932 321.682972 
L 303.740642 319.042883 
L 308.706351 316.024425 
L 313.672061 313.075048 
L 318.63777 310.859639 
L 323.60348 310.131639 
L 328.569189 311.561882 
L 333.534899 315.572266 
L 338.500608 322.214893 
L 343.466318 331.12018 
L 348.432027 341.519179 
L 353.397736 352.332471 
L 358.363446 362.311156 
L 363.329155 370.211115 
L 368.294865 374.977131 
L 373.260574 375.909034 
L 378.226284 372.781188 
L 383.191993 365.891828 
L 388.157703 356.029643 
L 393.123412 344.358892 
L 398.089122 332.237754 
L 403.054831 320.99691 
L 408.020541 311.715829 
L 412.98625 305.041593 
" style="fill:none;stroke:#ff7f0e;stroke-linecap:round;stroke-width:1.5;"/>
   </g>
   <g id="line2d_38">
    <path clip-path="url(#p1e622c059f)" d="M 45.52375 311.037835 
L 50.489459 311.56603 
L 55.455169 310.882899 
L 60.420878 309.016179 
L 65.386588 306.057555 
L 70.352297 302.19478 
L 75.318007 297.735987 
L 80.283716 293.109113 
L 85.249426 288.824915 
L 90.215135 285.405543 
L 95.180845 283.296325 
L 100.146554 282.78786 
L 105.112264 283.973188 
L 110.077973 286.750979 
L 115.043682 290.867945 
L 120.009392 295.98118 
L 124.975101 301.71944 
L 129.940811 307.730012 
L 134.90652 313.708089 
L 139.87223 319.412291 
L 144.837939 324.670748 
L 149.803649 329.379206 
L 154.769358 333.490086 
L 159.735068 336.991687 
L 164.700777 339.880316 
L 169.666486 342.132207 
L 174.632196 343.68545 
L 179.597905 344.44151 
L 184.563615 344.29077 
L 189.529324 343.15683 
L 194.495034 341.043659 
L 199.460743 338.063636 
L 204.426453 334.428515 
L 209.392162 330.400738 
L 214.357872 326.222805 
L 219.323581 322.057482 
L 224.289291 317.970799 
L 229.255 313.971102 
L 234.220709 310.088771 
L 239.186419 306.4572 
L 244.152128 303.349464 
L 249.117838 301.141609 
L 254.083547 300.205311 
L 259.049257 300.765687 
L 264.014966 302.779108 
L 268.980676 305.88281 
L 273.946385 309.443829 
L 278.912095 312.699653 
L 283.877804 314.94994 
L 288.843514 315.740856 
L 293.809223 314.986608 
L 298.774932 312.994864 
L 303.740642 310.393754 
L 308.706351 307.985875 
L 313.672061 306.569277 
L 318.63777 306.764919 
L 323.60348 308.880395 
L 328.569189 312.829476 
L 333.534899 318.121294 
L 338.500608 323.929391 
L 343.466318 329.241798 
L 348.432027 333.073623 
L 353.397736 334.697109 
L 358.363446 333.824717 
L 363.329155 330.68383 
L 368.294865 325.95351 
L 373.260574 320.583656 
L 378.226284 315.560899 
L 383.191993 311.700786 
L 388.157703 309.523502 
L 393.123412 309.224532 
L 398.089122 310.709025 
L 403.054831 313.643173 
L 408.020541 317.493653 
L 412.98625 321.560864 
" style="fill:none;stroke:#2ca02c;stroke-linecap:round;stroke-width:1.5;"/>
   </g>
   <g id="line2d_39">
    <path clip-path="url(#p1e622c059f)" d="M 45.52375 274.977375 
L 50.489459 265.968935 
L 55.455169 259.427498 
L 60.420878 255.766867 
L 65.386588 254.911575 
L 70.352297 256.378699 
L 75.318007 259.447908 
L 80.283716 263.363465 
L 85.249426 267.508903 
L 90.215135 271.511632 
L 95.180845 275.26241 
L 100.146554 278.861862 
L 105.112264 282.524639 
L 110.077973 286.47703 
L 115.043682 290.877429 
L 120.009392 295.775272 
L 124.975101 301.109027 
L 129.940811 306.732568 
L 134.90652 312.45449 
L 139.87223 318.076424 
L 144.837939 323.421311 
L 149.803649 328.347893 
L 154.769358 332.751554 
L 159.735068 336.554523 
L 164.700777 339.691122 
L 169.666486 342.095502 
L 174.632196 343.69876 
L 179.597905 344.437797 
L 184.563615 344.271503 
L 189.529324 343.194846 
L 194.495034 341.242173 
L 199.460743 338.477951 
L 204.426453 334.981316 
L 209.392162 330.834423 
L 214.357872 326.120581 
L 219.323581 320.929858 
L 224.289291 315.363998 
L 229.255 309.534099 
L 234.220709 303.55225 
L 239.186419 297.525619 
L 244.152128 291.561368 
L 249.117838 285.782814 
L 254.083547 280.346843 
L 259.049257 275.448564 
L 264.014966 271.305114 
L 268.980676 268.123454 
L 273.946385 266.067337 
L 278.912095 265.239262 
L 283.877804 265.683408 
L 288.843514 267.401856 
L 293.809223 270.36862 
L 298.774932 274.528981 
L 303.740642 279.783114 
L 308.706351 285.964661 
L 313.672061 292.828668 
L 318.63777 300.057145 
L 323.60348 307.279771 
L 328.569189 314.100426 
L 333.534899 320.1227 
L 338.500608 324.977028 
L 343.466318 328.359774 
L 348.432027 330.091643 
L 353.397736 330.186978 
L 358.363446 328.905123 
L 363.329155 326.744686 
L 368.294865 324.352778 
L 373.260574 322.35486 
L 378.226284 321.152638 
L 383.191993 320.765642 
L 388.157703 320.788498 
L 393.123412 320.496797 
L 398.089122 319.075276 
L 403.054831 315.889043 
L 408.020541 310.697652 
L 412.98625 303.733127 
" style="fill:none;stroke:#d62728;stroke-linecap:round;stroke-width:1.5;"/>
   </g>
   <g id="line2d_40">
    <path clip-path="url(#p1e622c059f)" d="M 45.52375 270.958863 
L 50.489459 259.172378 
L 55.455169 249.4017 
L 60.420878 242.741695 
L 65.386588 239.727216 
L 70.352297 240.27585 
L 75.318007 243.790487 
L 80.283716 249.37077 
L 85.249426 256.054709 
L 90.215135 263.018126 
L 95.180845 269.690288 
L 100.146554 275.7814 
L 105.112264 281.244891 
L 110.077973 286.206719 
L 115.043682 290.887752 
L 120.009392 295.532885 
L 124.975101 300.350981 
L 129.940811 305.467248 
L 134.90652 310.892403 
L 139.87223 316.515737 
L 144.837939 322.127169 
L 149.803649 327.465425 
L 154.769358 332.278914 
L 159.735068 336.378312 
L 164.700777 339.660992 
L 169.666486 342.09842 
L 174.632196 343.6947 
L 179.597905 344.439698 
L 184.563615 344.285027 
L 189.529324 343.1616 
L 194.495034 341.03681 
L 199.460743 337.986405 
L 204.426453 334.243493 
L 209.392162 330.19124 
L 214.357872 326.287519 
L 219.323581 322.939377 
L 224.289291 320.369785 
L 229.255 318.526747 
L 234.220709 317.071902 
L 239.186419 315.457381 
L 244.152128 313.068957 
L 249.117838 309.392764 
L 254.083547 304.159413 
L 259.049257 297.430902 
L 264.014966 289.61467 
L 268.980676 281.406904 
L 273.946385 273.679557 
L 278.912095 267.333518 
L 283.877804 263.145336 
L 288.843514 261.637354 
L 293.809223 262.997623 
L 298.774932 267.064889 
L 303.740642 273.377195 
L 308.706351 281.266755 
L 313.672061 289.975279 
L 318.63777 298.765529 
L 323.60348 307.012351 
L 328.569189 314.264169 
L 333.534899 320.270332 
L 338.500608 324.972327 
L 343.466318 328.46192 
L 348.432027 330.917631 
L 353.397736 332.538852 
L 358.363446 333.497473 
L 363.329155 333.916777 
L 368.294865 333.870966 
L 373.260574 333.386311 
L 378.226284 332.426122 
L 383.191993 330.857874 
L 388.157703 328.42312 
L 393.123412 324.743914 
L 398.089122 319.392678 
L 403.054831 312.025178 
L 408.020541 302.541346 
L 412.98625 291.214826 
" style="fill:none;stroke:#9467bd;stroke-linecap:round;stroke-width:1.5;"/>
   </g>
   <g id="patch_10">
    <path d="M 45.52375 382.718125 
L 45.52375 232.918125 
" style="fill:none;stroke:#ffffff;stroke-linecap:square;stroke-linejoin:miter;stroke-width:0.8;"/>
   </g>
   <g id="patch_11">
    <path d="M 412.98625 382.718125 
L 412.98625 232.918125 
" style="fill:none;stroke:#ffffff;stroke-linecap:square;stroke-linejoin:miter;stroke-width:0.8;"/>
   </g>
   <g id="patch_12">
    <path d="M 45.52375 382.718125 
L 412.98625 382.718125 
" style="fill:none;stroke:#ffffff;stroke-linecap:square;stroke-linejoin:miter;stroke-width:0.8;"/>
   </g>
   <g id="patch_13">
    <path d="M 45.52375 232.918125 
L 412.98625 232.918125 
" style="fill:none;stroke:#ffffff;stroke-linecap:square;stroke-linejoin:miter;stroke-width:0.8;"/>
   </g>
   <g id="text_36">
    <!-- 5 different function realizations from posterior -->
    <g style="fill:#262626;" transform="translate(90.464688 226.918125)scale(0.12 -0.12)">
     <defs>
      <path d="M 691 4666 
L 3169 4666 
L 3169 4134 
L 1269 4134 
L 1269 2991 
Q 1406 3038 1543 3061 
Q 1681 3084 1819 3084 
Q 2600 3084 3056 2656 
Q 3513 2228 3513 1497 
Q 3513 744 3044 326 
Q 2575 -91 1722 -91 
Q 1428 -91 1123 -41 
Q 819 9 494 109 
L 494 744 
Q 775 591 1075 516 
Q 1375 441 1709 441 
Q 2250 441 2565 725 
Q 2881 1009 2881 1497 
Q 2881 1984 2565 2268 
Q 2250 2553 1709 2553 
Q 1456 2553 1204 2497 
Q 953 2441 691 2322 
L 691 4666 
z
" id="DejaVuSans-35" transform="scale(0.015625)"/>
      <path d="M 3122 3366 
L 3122 2828 
Q 2878 2963 2633 3030 
Q 2388 3097 2138 3097 
Q 1578 3097 1268 2742 
Q 959 2388 959 1747 
Q 959 1106 1268 751 
Q 1578 397 2138 397 
Q 2388 397 2633 464 
Q 2878 531 3122 666 
L 3122 134 
Q 2881 22 2623 -34 
Q 2366 -91 2075 -91 
Q 1284 -91 818 406 
Q 353 903 353 1747 
Q 353 2603 823 3093 
Q 1294 3584 2113 3584 
Q 2378 3584 2631 3529 
Q 2884 3475 3122 3366 
z
" id="DejaVuSans-63" transform="scale(0.015625)"/>
      <path d="M 603 4863 
L 1178 4863 
L 1178 0 
L 603 0 
L 603 4863 
z
" id="DejaVuSans-6c" transform="scale(0.015625)"/>
      <path d="M 353 3500 
L 3084 3500 
L 3084 2975 
L 922 459 
L 3084 459 
L 3084 0 
L 275 0 
L 275 525 
L 2438 3041 
L 353 3041 
L 353 3500 
z
" id="DejaVuSans-7a" transform="scale(0.015625)"/>
      <path d="M 3328 2828 
Q 3544 3216 3844 3400 
Q 4144 3584 4550 3584 
Q 5097 3584 5394 3201 
Q 5691 2819 5691 2113 
L 5691 0 
L 5113 0 
L 5113 2094 
Q 5113 2597 4934 2840 
Q 4756 3084 4391 3084 
Q 3944 3084 3684 2787 
Q 3425 2491 3425 1978 
L 3425 0 
L 2847 0 
L 2847 2094 
Q 2847 2600 2669 2842 
Q 2491 3084 2119 3084 
Q 1678 3084 1418 2786 
Q 1159 2488 1159 1978 
L 1159 0 
L 581 0 
L 581 3500 
L 1159 3500 
L 1159 2956 
Q 1356 3278 1631 3431 
Q 1906 3584 2284 3584 
Q 2666 3584 2933 3390 
Q 3200 3197 3328 2828 
z
" id="DejaVuSans-6d" transform="scale(0.015625)"/>
     </defs>
     <use xlink:href="#DejaVuSans-35"/>
     <use x="63.623047" xlink:href="#DejaVuSans-20"/>
     <use x="95.410156" xlink:href="#DejaVuSans-64"/>
     <use x="158.886719" xlink:href="#DejaVuSans-69"/>
     <use x="186.669922" xlink:href="#DejaVuSans-66"/>
     <use x="221.875" xlink:href="#DejaVuSans-66"/>
     <use x="257.080078" xlink:href="#DejaVuSans-65"/>
     <use x="318.603516" xlink:href="#DejaVuSans-72"/>
     <use x="357.466797" xlink:href="#DejaVuSans-65"/>
     <use x="418.990234" xlink:href="#DejaVuSans-6e"/>
     <use x="482.369141" xlink:href="#DejaVuSans-74"/>
     <use x="521.578125" xlink:href="#DejaVuSans-20"/>
     <use x="553.365234" xlink:href="#DejaVuSans-66"/>
     <use x="588.570312" xlink:href="#DejaVuSans-75"/>
     <use x="651.949219" xlink:href="#DejaVuSans-6e"/>
     <use x="715.328125" xlink:href="#DejaVuSans-63"/>
     <use x="770.308594" xlink:href="#DejaVuSans-74"/>
     <use x="809.517578" xlink:href="#DejaVuSans-69"/>
     <use x="837.300781" xlink:href="#DejaVuSans-6f"/>
     <use x="898.482422" xlink:href="#DejaVuSans-6e"/>
     <use x="961.861328" xlink:href="#DejaVuSans-20"/>
     <use x="993.648438" xlink:href="#DejaVuSans-72"/>
     <use x="1032.511719" xlink:href="#DejaVuSans-65"/>
     <use x="1094.035156" xlink:href="#DejaVuSans-61"/>
     <use x="1155.314453" xlink:href="#DejaVuSans-6c"/>
     <use x="1183.097656" xlink:href="#DejaVuSans-69"/>
     <use x="1210.880859" xlink:href="#DejaVuSans-7a"/>
     <use x="1263.371094" xlink:href="#DejaVuSans-61"/>
     <use x="1324.650391" xlink:href="#DejaVuSans-74"/>
     <use x="1363.859375" xlink:href="#DejaVuSans-69"/>
     <use x="1391.642578" xlink:href="#DejaVuSans-6f"/>
     <use x="1452.824219" xlink:href="#DejaVuSans-6e"/>
     <use x="1516.203125" xlink:href="#DejaVuSans-73"/>
     <use x="1568.302734" xlink:href="#DejaVuSans-20"/>
     <use x="1600.089844" xlink:href="#DejaVuSans-66"/>
     <use x="1635.294922" xlink:href="#DejaVuSans-72"/>
     <use x="1674.158203" xlink:href="#DejaVuSans-6f"/>
     <use x="1735.339844" xlink:href="#DejaVuSans-6d"/>
     <use x="1832.751953" xlink:href="#DejaVuSans-20"/>
     <use x="1864.539062" xlink:href="#DejaVuSans-70"/>
     <use x="1928.015625" xlink:href="#DejaVuSans-6f"/>
     <use x="1989.197266" xlink:href="#DejaVuSans-73"/>
     <use x="2041.296875" xlink:href="#DejaVuSans-74"/>
     <use x="2080.505859" xlink:href="#DejaVuSans-65"/>
     <use x="2142.029297" xlink:href="#DejaVuSans-72"/>
     <use x="2183.142578" xlink:href="#DejaVuSans-69"/>
     <use x="2210.925781" xlink:href="#DejaVuSans-6f"/>
     <use x="2272.107422" xlink:href="#DejaVuSans-72"/>
    </g>
   </g>
  </g>
 </g>
 <defs>
  <clipPath id="p40b04269bd">
   <rect height="149.8" width="367.4625" x="45.52375" y="22.318125"/>
  </clipPath>
  <clipPath id="p1e622c059f">
   <rect height="149.8" width="367.4625" x="45.52375" y="232.918125"/>
  </clipPath>
 </defs>
</svg>
