<?xml version="1.0" encoding="utf-8" standalone="no"?>
<!DOCTYPE svg PUBLIC "-//W3C//DTD SVG 1.1//EN"
  "http://www.w3.org/Graphics/SVG/1.1/DTD/svg11.dtd">
<svg height="293.655187pt" version="1.1" viewBox="0 0 439.036875 293.655187" width="439.036875pt" xmlns="http://www.w3.org/2000/svg" xmlns:xlink="http://www.w3.org/1999/xlink">
 <metadata>
  <rdf:RDF xmlns:cc="http://creativecommons.org/ns#" xmlns:dc="http://purl.org/dc/elements/1.1/" xmlns:rdf="http://www.w3.org/1999/02/22-rdf-syntax-ns#">
   <cc:Work>
    <dc:type rdf:resource="http://purl.org/dc/dcmitype/StillImage"/>
    <dc:date>2021-08-24T11:35:43.610968</dc:date>
    <dc:format>image/svg+xml</dc:format>
    <dc:creator>
     <cc:Agent>
      <dc:title>Matplotlib v3.4.3, https://matplotlib.org/</dc:title>
     </cc:Agent>
    </dc:creator>
   </cc:Work>
  </rdf:RDF>
 </metadata>
 <defs>
  <style type="text/css">*{stroke-linecap:butt;stroke-linejoin:round;}</style>
 </defs>
 <g id="figure_1">
  <g id="patch_1">
   <path d="M -0 293.655187 
L 439.036875 293.655187 
L 439.036875 0 
L -0 0 
z
" style="fill:#ffffff;"/>
  </g>
  <g id="axes_1">
   <g id="patch_2">
    <path d="M 52.118437 253.1955 
L 386.918437 253.1955 
L 386.918437 35.7555 
L 52.118437 35.7555 
z
" style="fill:#eaeaf2;"/>
   </g>
   <g id="matplotlib.axis_1">
    <g id="xtick_1">
     <g id="line2d_1">
      <path clip-path="url(#ped142e874c)" d="M 52.118437 253.1955 
L 52.118437 35.7555 
" style="fill:none;stroke:#ffffff;stroke-linecap:round;stroke-width:0.8;"/>
     </g>
     <g id="text_1">
      <!-- −4 -->
      <g style="fill:#262626;" transform="translate(44.747344 267.793937)scale(0.1 -0.1)">
       <defs>
        <path d="M 678 2272 
L 4684 2272 
L 4684 1741 
L 678 1741 
L 678 2272 
z
" id="DejaVuSans-2212" transform="scale(0.015625)"/>
        <path d="M 2419 4116 
L 825 1625 
L 2419 1625 
L 2419 4116 
z
M 2253 4666 
L 3047 4666 
L 3047 1625 
L 3713 1625 
L 3713 1100 
L 3047 1100 
L 3047 0 
L 2419 0 
L 2419 1100 
L 313 1100 
L 313 1709 
L 2253 4666 
z
" id="DejaVuSans-34" transform="scale(0.015625)"/>
       </defs>
       <use xlink:href="#DejaVuSans-2212"/>
       <use x="83.789062" xlink:href="#DejaVuSans-34"/>
      </g>
     </g>
    </g>
    <g id="xtick_2">
     <g id="line2d_2">
      <path clip-path="url(#ped142e874c)" d="M 93.968437 253.1955 
L 93.968437 35.7555 
" style="fill:none;stroke:#ffffff;stroke-linecap:round;stroke-width:0.8;"/>
     </g>
     <g id="text_2">
      <!-- −3 -->
      <g style="fill:#262626;" transform="translate(86.597344 267.793937)scale(0.1 -0.1)">
       <defs>
        <path d="M 2597 2516 
Q 3050 2419 3304 2112 
Q 3559 1806 3559 1356 
Q 3559 666 3084 287 
Q 2609 -91 1734 -91 
Q 1441 -91 1130 -33 
Q 819 25 488 141 
L 488 750 
Q 750 597 1062 519 
Q 1375 441 1716 441 
Q 2309 441 2620 675 
Q 2931 909 2931 1356 
Q 2931 1769 2642 2001 
Q 2353 2234 1838 2234 
L 1294 2234 
L 1294 2753 
L 1863 2753 
Q 2328 2753 2575 2939 
Q 2822 3125 2822 3475 
Q 2822 3834 2567 4026 
Q 2313 4219 1838 4219 
Q 1578 4219 1281 4162 
Q 984 4106 628 3988 
L 628 4550 
Q 988 4650 1302 4700 
Q 1616 4750 1894 4750 
Q 2613 4750 3031 4423 
Q 3450 4097 3450 3541 
Q 3450 3153 3228 2886 
Q 3006 2619 2597 2516 
z
" id="DejaVuSans-33" transform="scale(0.015625)"/>
       </defs>
       <use xlink:href="#DejaVuSans-2212"/>
       <use x="83.789062" xlink:href="#DejaVuSans-33"/>
      </g>
     </g>
    </g>
    <g id="xtick_3">
     <g id="line2d_3">
      <path clip-path="url(#ped142e874c)" d="M 135.818438 253.1955 
L 135.818438 35.7555 
" style="fill:none;stroke:#ffffff;stroke-linecap:round;stroke-width:0.8;"/>
     </g>
     <g id="text_3">
      <!-- −2 -->
      <g style="fill:#262626;" transform="translate(128.447344 267.793937)scale(0.1 -0.1)">
       <defs>
        <path d="M 1228 531 
L 3431 531 
L 3431 0 
L 469 0 
L 469 531 
Q 828 903 1448 1529 
Q 2069 2156 2228 2338 
Q 2531 2678 2651 2914 
Q 2772 3150 2772 3378 
Q 2772 3750 2511 3984 
Q 2250 4219 1831 4219 
Q 1534 4219 1204 4116 
Q 875 4013 500 3803 
L 500 4441 
Q 881 4594 1212 4672 
Q 1544 4750 1819 4750 
Q 2544 4750 2975 4387 
Q 3406 4025 3406 3419 
Q 3406 3131 3298 2873 
Q 3191 2616 2906 2266 
Q 2828 2175 2409 1742 
Q 1991 1309 1228 531 
z
" id="DejaVuSans-32" transform="scale(0.015625)"/>
       </defs>
       <use xlink:href="#DejaVuSans-2212"/>
       <use x="83.789062" xlink:href="#DejaVuSans-32"/>
      </g>
     </g>
    </g>
    <g id="xtick_4">
     <g id="line2d_4">
      <path clip-path="url(#ped142e874c)" d="M 177.668438 253.1955 
L 177.668438 35.7555 
" style="fill:none;stroke:#ffffff;stroke-linecap:round;stroke-width:0.8;"/>
     </g>
     <g id="text_4">
      <!-- −1 -->
      <g style="fill:#262626;" transform="translate(170.297344 267.793937)scale(0.1 -0.1)">
       <defs>
        <path d="M 794 531 
L 1825 531 
L 1825 4091 
L 703 3866 
L 703 4441 
L 1819 4666 
L 2450 4666 
L 2450 531 
L 3481 531 
L 3481 0 
L 794 0 
L 794 531 
z
" id="DejaVuSans-31" transform="scale(0.015625)"/>
       </defs>
       <use xlink:href="#DejaVuSans-2212"/>
       <use x="83.789062" xlink:href="#DejaVuSans-31"/>
      </g>
     </g>
    </g>
    <g id="xtick_5">
     <g id="line2d_5">
      <path clip-path="url(#ped142e874c)" d="M 219.518438 253.1955 
L 219.518438 35.7555 
" style="fill:none;stroke:#ffffff;stroke-linecap:round;stroke-width:0.8;"/>
     </g>
     <g id="text_5">
      <!-- 0 -->
      <g style="fill:#262626;" transform="translate(216.337187 267.793937)scale(0.1 -0.1)">
       <defs>
        <path d="M 2034 4250 
Q 1547 4250 1301 3770 
Q 1056 3291 1056 2328 
Q 1056 1369 1301 889 
Q 1547 409 2034 409 
Q 2525 409 2770 889 
Q 3016 1369 3016 2328 
Q 3016 3291 2770 3770 
Q 2525 4250 2034 4250 
z
M 2034 4750 
Q 2819 4750 3233 4129 
Q 3647 3509 3647 2328 
Q 3647 1150 3233 529 
Q 2819 -91 2034 -91 
Q 1250 -91 836 529 
Q 422 1150 422 2328 
Q 422 3509 836 4129 
Q 1250 4750 2034 4750 
z
" id="DejaVuSans-30" transform="scale(0.015625)"/>
       </defs>
       <use xlink:href="#DejaVuSans-30"/>
      </g>
     </g>
    </g>
    <g id="xtick_6">
     <g id="line2d_6">
      <path clip-path="url(#ped142e874c)" d="M 261.368438 253.1955 
L 261.368438 35.7555 
" style="fill:none;stroke:#ffffff;stroke-linecap:round;stroke-width:0.8;"/>
     </g>
     <g id="text_6">
      <!-- 1 -->
      <g style="fill:#262626;" transform="translate(258.187188 267.793937)scale(0.1 -0.1)">
       <use xlink:href="#DejaVuSans-31"/>
      </g>
     </g>
    </g>
    <g id="xtick_7">
     <g id="line2d_7">
      <path clip-path="url(#ped142e874c)" d="M 303.218437 253.1955 
L 303.218437 35.7555 
" style="fill:none;stroke:#ffffff;stroke-linecap:round;stroke-width:0.8;"/>
     </g>
     <g id="text_7">
      <!-- 2 -->
      <g style="fill:#262626;" transform="translate(300.037188 267.793937)scale(0.1 -0.1)">
       <use xlink:href="#DejaVuSans-32"/>
      </g>
     </g>
    </g>
    <g id="xtick_8">
     <g id="line2d_8">
      <path clip-path="url(#ped142e874c)" d="M 345.068438 253.1955 
L 345.068438 35.7555 
" style="fill:none;stroke:#ffffff;stroke-linecap:round;stroke-width:0.8;"/>
     </g>
     <g id="text_8">
      <!-- 3 -->
      <g style="fill:#262626;" transform="translate(341.887188 267.793937)scale(0.1 -0.1)">
       <use xlink:href="#DejaVuSans-33"/>
      </g>
     </g>
    </g>
    <g id="xtick_9">
     <g id="line2d_9">
      <path clip-path="url(#ped142e874c)" d="M 386.918437 253.1955 
L 386.918437 35.7555 
" style="fill:none;stroke:#ffffff;stroke-linecap:round;stroke-width:0.8;"/>
     </g>
     <g id="text_9">
      <!-- 4 -->
      <g style="fill:#262626;" transform="translate(383.737188 267.793937)scale(0.1 -0.1)">
       <use xlink:href="#DejaVuSans-34"/>
      </g>
     </g>
    </g>
    <g id="text_10">
     <!-- $x$ -->
     <g style="fill:#262626;" transform="translate(215.618437 283.751594)scale(0.13 -0.13)">
      <defs>
       <path d="M 3841 3500 
L 2234 1784 
L 3219 0 
L 2559 0 
L 1819 1388 
L 531 0 
L -166 0 
L 1556 1844 
L 641 3500 
L 1300 3500 
L 1972 2234 
L 3144 3500 
L 3841 3500 
z
" id="DejaVuSans-Oblique-78" transform="scale(0.015625)"/>
      </defs>
      <use transform="translate(0 0.3125)" xlink:href="#DejaVuSans-Oblique-78"/>
     </g>
    </g>
   </g>
   <g id="matplotlib.axis_2">
    <g id="ytick_1">
     <g id="line2d_10">
      <path clip-path="url(#ped142e874c)" d="M 52.118437 230.692386 
L 386.918437 230.692386 
" style="fill:none;stroke:#ffffff;stroke-linecap:round;stroke-width:0.8;"/>
     </g>
     <g id="text_11">
      <!-- −2 -->
      <g style="fill:#262626;" transform="translate(30.37625 234.491605)scale(0.1 -0.1)">
       <use xlink:href="#DejaVuSans-2212"/>
       <use x="83.789062" xlink:href="#DejaVuSans-32"/>
      </g>
     </g>
    </g>
    <g id="ytick_2">
     <g id="line2d_11">
      <path clip-path="url(#ped142e874c)" d="M 52.118437 183.14727 
L 386.918437 183.14727 
" style="fill:none;stroke:#ffffff;stroke-linecap:round;stroke-width:0.8;"/>
     </g>
     <g id="text_12">
      <!-- −1 -->
      <g style="fill:#262626;" transform="translate(30.37625 186.946489)scale(0.1 -0.1)">
       <use xlink:href="#DejaVuSans-2212"/>
       <use x="83.789062" xlink:href="#DejaVuSans-31"/>
      </g>
     </g>
    </g>
    <g id="ytick_3">
     <g id="line2d_12">
      <path clip-path="url(#ped142e874c)" d="M 52.118437 135.602154 
L 386.918437 135.602154 
" style="fill:none;stroke:#ffffff;stroke-linecap:round;stroke-width:0.8;"/>
     </g>
     <g id="text_13">
      <!-- 0 -->
      <g style="fill:#262626;" transform="translate(38.755937 139.401373)scale(0.1 -0.1)">
       <use xlink:href="#DejaVuSans-30"/>
      </g>
     </g>
    </g>
    <g id="ytick_4">
     <g id="line2d_13">
      <path clip-path="url(#ped142e874c)" d="M 52.118437 88.057038 
L 386.918437 88.057038 
" style="fill:none;stroke:#ffffff;stroke-linecap:round;stroke-width:0.8;"/>
     </g>
     <g id="text_14">
      <!-- 1 -->
      <g style="fill:#262626;" transform="translate(38.755937 91.856257)scale(0.1 -0.1)">
       <use xlink:href="#DejaVuSans-31"/>
      </g>
     </g>
    </g>
    <g id="ytick_5">
     <g id="line2d_14">
      <path clip-path="url(#ped142e874c)" d="M 52.118437 40.511922 
L 386.918437 40.511922 
" style="fill:none;stroke:#ffffff;stroke-linecap:round;stroke-width:0.8;"/>
     </g>
     <g id="text_15">
      <!-- 2 -->
      <g style="fill:#262626;" transform="translate(38.755937 44.311141)scale(0.1 -0.1)">
       <use xlink:href="#DejaVuSans-32"/>
      </g>
     </g>
    </g>
    <g id="text_16">
     <!-- $y = f(x)$ -->
     <g style="fill:#262626;" transform="translate(23.64625 167.5505)rotate(-90)scale(0.13 -0.13)">
      <defs>
       <path d="M 1588 -325 
Q 1188 -997 936 -1164 
Q 684 -1331 294 -1331 
L -159 -1331 
L -63 -850 
L 269 -850 
Q 509 -850 678 -719 
Q 847 -588 1056 -206 
L 1234 128 
L 459 3500 
L 1069 3500 
L 1650 819 
L 3256 3500 
L 3859 3500 
L 1588 -325 
z
" id="DejaVuSans-Oblique-79" transform="scale(0.015625)"/>
       <path d="M 678 2906 
L 4684 2906 
L 4684 2381 
L 678 2381 
L 678 2906 
z
M 678 1631 
L 4684 1631 
L 4684 1100 
L 678 1100 
L 678 1631 
z
" id="DejaVuSans-3d" transform="scale(0.015625)"/>
       <path d="M 3059 4863 
L 2969 4384 
L 2419 4384 
Q 2106 4384 1964 4261 
Q 1822 4138 1753 3809 
L 1691 3500 
L 2638 3500 
L 2553 3053 
L 1606 3053 
L 1013 0 
L 434 0 
L 1031 3053 
L 481 3053 
L 563 3500 
L 1113 3500 
L 1159 3744 
Q 1278 4363 1576 4613 
Q 1875 4863 2516 4863 
L 3059 4863 
z
" id="DejaVuSans-Oblique-66" transform="scale(0.015625)"/>
       <path d="M 1984 4856 
Q 1566 4138 1362 3434 
Q 1159 2731 1159 2009 
Q 1159 1288 1364 580 
Q 1569 -128 1984 -844 
L 1484 -844 
Q 1016 -109 783 600 
Q 550 1309 550 2009 
Q 550 2706 781 3412 
Q 1013 4119 1484 4856 
L 1984 4856 
z
" id="DejaVuSans-28" transform="scale(0.015625)"/>
       <path d="M 513 4856 
L 1013 4856 
Q 1481 4119 1714 3412 
Q 1947 2706 1947 2009 
Q 1947 1309 1714 600 
Q 1481 -109 1013 -844 
L 513 -844 
Q 928 -128 1133 580 
Q 1338 1288 1338 2009 
Q 1338 2731 1133 3434 
Q 928 4138 513 4856 
z
" id="DejaVuSans-29" transform="scale(0.015625)"/>
      </defs>
      <use transform="translate(0 0.015625)" xlink:href="#DejaVuSans-Oblique-79"/>
      <use transform="translate(78.662109 0.015625)" xlink:href="#DejaVuSans-3d"/>
      <use transform="translate(181.933594 0.015625)" xlink:href="#DejaVuSans-Oblique-66"/>
      <use transform="translate(217.138672 0.015625)" xlink:href="#DejaVuSans-28"/>
      <use transform="translate(256.152344 0.015625)" xlink:href="#DejaVuSans-Oblique-78"/>
      <use transform="translate(315.332031 0.015625)" xlink:href="#DejaVuSans-29"/>
     </g>
    </g>
   </g>
   <g id="line2d_15">
    <path clip-path="url(#ped142e874c)" d="M 52.118437 102.99031 
L 60.488438 110.468363 
L 68.858438 116.545049 
L 77.228438 122.649999 
L 85.598437 130.526257 
L 93.968437 141.189505 
L 102.338438 154.230917 
L 110.708438 167.783258 
L 119.078438 179.143209 
L 127.448437 185.758152 
L 135.818438 186.156927 
L 144.188438 180.455746 
L 152.558438 170.259932 
L 160.928438 158.031819 
L 169.298438 146.207337 
L 177.668438 136.427084 
L 186.038438 129.166927 
L 194.408438 123.855946 
L 202.778437 119.362397 
L 211.148438 114.606999 
L 219.518438 109.061613 
L 227.888438 102.981213 
L 236.258438 97.339095 
L 244.628438 93.535483 
L 252.998438 92.997336 
L 261.368438 96.78317 
L 269.738438 105.276323 
L 278.108438 118.022427 
L 286.478438 133.749635 
L 294.848438 150.586834 
L 303.218437 166.447357 
L 311.588437 179.483395 
L 319.958438 188.477394 
L 328.328438 193.055576 
L 336.698438 193.683692 
L 345.068438 191.49092 
L 353.438438 188.010535 
L 361.808438 184.903206 
L 370.178438 183.674792 
L 378.548438 185.378573 
L 386.918437 190.338673 
" style="fill:none;stroke:#1f77b4;stroke-linecap:round;stroke-width:1.5;"/>
    <defs>
     <path d="M 0 1.5 
C 0.397805 1.5 0.77937 1.341951 1.06066 1.06066 
C 1.341951 0.77937 1.5 0.397805 1.5 0 
C 1.5 -0.397805 1.341951 -0.77937 1.06066 -1.06066 
C 0.77937 -1.341951 0.397805 -1.5 0 -1.5 
C -0.397805 -1.5 -0.77937 -1.341951 -1.06066 -1.06066 
C -1.341951 -0.77937 -1.5 -0.397805 -1.5 0 
C -1.5 0.397805 -1.341951 0.77937 -1.06066 1.06066 
C -0.77937 1.341951 -0.397805 1.5 0 1.5 
z
" id="m8dc1e3eee0" style="stroke:#1f77b4;"/>
    </defs>
    <g clip-path="url(#ped142e874c)">
     <use style="fill:#1f77b4;stroke:#1f77b4;" x="52.118437" xlink:href="#m8dc1e3eee0" y="102.99031"/>
     <use style="fill:#1f77b4;stroke:#1f77b4;" x="60.488438" xlink:href="#m8dc1e3eee0" y="110.468363"/>
     <use style="fill:#1f77b4;stroke:#1f77b4;" x="68.858438" xlink:href="#m8dc1e3eee0" y="116.545049"/>
     <use style="fill:#1f77b4;stroke:#1f77b4;" x="77.228438" xlink:href="#m8dc1e3eee0" y="122.649999"/>
     <use style="fill:#1f77b4;stroke:#1f77b4;" x="85.598437" xlink:href="#m8dc1e3eee0" y="130.526257"/>
     <use style="fill:#1f77b4;stroke:#1f77b4;" x="93.968437" xlink:href="#m8dc1e3eee0" y="141.189505"/>
     <use style="fill:#1f77b4;stroke:#1f77b4;" x="102.338438" xlink:href="#m8dc1e3eee0" y="154.230917"/>
     <use style="fill:#1f77b4;stroke:#1f77b4;" x="110.708438" xlink:href="#m8dc1e3eee0" y="167.783258"/>
     <use style="fill:#1f77b4;stroke:#1f77b4;" x="119.078438" xlink:href="#m8dc1e3eee0" y="179.143209"/>
     <use style="fill:#1f77b4;stroke:#1f77b4;" x="127.448437" xlink:href="#m8dc1e3eee0" y="185.758152"/>
     <use style="fill:#1f77b4;stroke:#1f77b4;" x="135.818438" xlink:href="#m8dc1e3eee0" y="186.156927"/>
     <use style="fill:#1f77b4;stroke:#1f77b4;" x="144.188438" xlink:href="#m8dc1e3eee0" y="180.455746"/>
     <use style="fill:#1f77b4;stroke:#1f77b4;" x="152.558438" xlink:href="#m8dc1e3eee0" y="170.259932"/>
     <use style="fill:#1f77b4;stroke:#1f77b4;" x="160.928438" xlink:href="#m8dc1e3eee0" y="158.031819"/>
     <use style="fill:#1f77b4;stroke:#1f77b4;" x="169.298438" xlink:href="#m8dc1e3eee0" y="146.207337"/>
     <use style="fill:#1f77b4;stroke:#1f77b4;" x="177.668438" xlink:href="#m8dc1e3eee0" y="136.427084"/>
     <use style="fill:#1f77b4;stroke:#1f77b4;" x="186.038438" xlink:href="#m8dc1e3eee0" y="129.166927"/>
     <use style="fill:#1f77b4;stroke:#1f77b4;" x="194.408438" xlink:href="#m8dc1e3eee0" y="123.855946"/>
     <use style="fill:#1f77b4;stroke:#1f77b4;" x="202.778437" xlink:href="#m8dc1e3eee0" y="119.362397"/>
     <use style="fill:#1f77b4;stroke:#1f77b4;" x="211.148438" xlink:href="#m8dc1e3eee0" y="114.606999"/>
     <use style="fill:#1f77b4;stroke:#1f77b4;" x="219.518438" xlink:href="#m8dc1e3eee0" y="109.061613"/>
     <use style="fill:#1f77b4;stroke:#1f77b4;" x="227.888438" xlink:href="#m8dc1e3eee0" y="102.981213"/>
     <use style="fill:#1f77b4;stroke:#1f77b4;" x="236.258438" xlink:href="#m8dc1e3eee0" y="97.339095"/>
     <use style="fill:#1f77b4;stroke:#1f77b4;" x="244.628438" xlink:href="#m8dc1e3eee0" y="93.535483"/>
     <use style="fill:#1f77b4;stroke:#1f77b4;" x="252.998438" xlink:href="#m8dc1e3eee0" y="92.997336"/>
     <use style="fill:#1f77b4;stroke:#1f77b4;" x="261.368438" xlink:href="#m8dc1e3eee0" y="96.78317"/>
     <use style="fill:#1f77b4;stroke:#1f77b4;" x="269.738438" xlink:href="#m8dc1e3eee0" y="105.276323"/>
     <use style="fill:#1f77b4;stroke:#1f77b4;" x="278.108438" xlink:href="#m8dc1e3eee0" y="118.022427"/>
     <use style="fill:#1f77b4;stroke:#1f77b4;" x="286.478438" xlink:href="#m8dc1e3eee0" y="133.749635"/>
     <use style="fill:#1f77b4;stroke:#1f77b4;" x="294.848438" xlink:href="#m8dc1e3eee0" y="150.586834"/>
     <use style="fill:#1f77b4;stroke:#1f77b4;" x="303.218437" xlink:href="#m8dc1e3eee0" y="166.447357"/>
     <use style="fill:#1f77b4;stroke:#1f77b4;" x="311.588437" xlink:href="#m8dc1e3eee0" y="179.483395"/>
     <use style="fill:#1f77b4;stroke:#1f77b4;" x="319.958438" xlink:href="#m8dc1e3eee0" y="188.477394"/>
     <use style="fill:#1f77b4;stroke:#1f77b4;" x="328.328438" xlink:href="#m8dc1e3eee0" y="193.055576"/>
     <use style="fill:#1f77b4;stroke:#1f77b4;" x="336.698438" xlink:href="#m8dc1e3eee0" y="193.683692"/>
     <use style="fill:#1f77b4;stroke:#1f77b4;" x="345.068438" xlink:href="#m8dc1e3eee0" y="191.49092"/>
     <use style="fill:#1f77b4;stroke:#1f77b4;" x="353.438438" xlink:href="#m8dc1e3eee0" y="188.010535"/>
     <use style="fill:#1f77b4;stroke:#1f77b4;" x="361.808438" xlink:href="#m8dc1e3eee0" y="184.903206"/>
     <use style="fill:#1f77b4;stroke:#1f77b4;" x="370.178438" xlink:href="#m8dc1e3eee0" y="183.674792"/>
     <use style="fill:#1f77b4;stroke:#1f77b4;" x="378.548438" xlink:href="#m8dc1e3eee0" y="185.378573"/>
     <use style="fill:#1f77b4;stroke:#1f77b4;" x="386.918437" xlink:href="#m8dc1e3eee0" y="190.338673"/>
    </g>
   </g>
   <g id="line2d_16">
    <path clip-path="url(#ped142e874c)" d="M 52.118437 194.373879 
L 60.488438 199.845339 
L 68.858438 204.135466 
L 77.228438 206.284214 
L 85.598437 205.791957 
L 93.968437 202.788484 
L 102.338438 198.117943 
L 110.708438 193.203911 
L 119.078438 189.670144 
L 127.448437 188.842261 
L 135.818438 191.333837 
L 144.188438 196.876996 
L 152.558438 204.429367 
L 160.928438 212.465732 
L 169.298438 219.318505 
L 177.668438 223.473536 
L 186.038438 223.798074 
L 194.408438 219.707429 
L 202.778437 211.252982 
L 211.148438 199.087026 
L 219.518438 184.285303 
L 227.888438 168.081339 
L 236.258438 151.624741 
L 244.628438 135.861927 
L 252.998438 121.562373 
L 261.368438 109.438413 
L 269.738438 100.278743 
L 278.108438 95.023362 
L 286.478438 94.714138 
L 294.848438 100.259921 
L 303.218437 112.00688 
L 311.588437 129.232054 
L 319.958438 149.821036 
L 328.328438 170.419231 
L 336.698438 187.171258 
L 345.068438 196.84342 
L 353.438438 197.855702 
L 361.808438 190.729806 
L 370.178438 177.731398 
L 378.548438 161.892332 
L 386.918437 145.892966 
" style="fill:none;stroke:#ff7f0e;stroke-linecap:round;stroke-width:1.5;"/>
    <defs>
     <path d="M 0 1.5 
C 0.397805 1.5 0.77937 1.341951 1.06066 1.06066 
C 1.341951 0.77937 1.5 0.397805 1.5 0 
C 1.5 -0.397805 1.341951 -0.77937 1.06066 -1.06066 
C 0.77937 -1.341951 0.397805 -1.5 0 -1.5 
C -0.397805 -1.5 -0.77937 -1.341951 -1.06066 -1.06066 
C -1.341951 -0.77937 -1.5 -0.397805 -1.5 0 
C -1.5 0.397805 -1.341951 0.77937 -1.06066 1.06066 
C -0.77937 1.341951 -0.397805 1.5 0 1.5 
z
" id="md91d9b3a27" style="stroke:#ff7f0e;"/>
    </defs>
    <g clip-path="url(#ped142e874c)">
     <use style="fill:#ff7f0e;stroke:#ff7f0e;" x="52.118437" xlink:href="#md91d9b3a27" y="194.373879"/>
     <use style="fill:#ff7f0e;stroke:#ff7f0e;" x="60.488438" xlink:href="#md91d9b3a27" y="199.845339"/>
     <use style="fill:#ff7f0e;stroke:#ff7f0e;" x="68.858438" xlink:href="#md91d9b3a27" y="204.135466"/>
     <use style="fill:#ff7f0e;stroke:#ff7f0e;" x="77.228438" xlink:href="#md91d9b3a27" y="206.284214"/>
     <use style="fill:#ff7f0e;stroke:#ff7f0e;" x="85.598437" xlink:href="#md91d9b3a27" y="205.791957"/>
     <use style="fill:#ff7f0e;stroke:#ff7f0e;" x="93.968437" xlink:href="#md91d9b3a27" y="202.788484"/>
     <use style="fill:#ff7f0e;stroke:#ff7f0e;" x="102.338438" xlink:href="#md91d9b3a27" y="198.117943"/>
     <use style="fill:#ff7f0e;stroke:#ff7f0e;" x="110.708438" xlink:href="#md91d9b3a27" y="193.203911"/>
     <use style="fill:#ff7f0e;stroke:#ff7f0e;" x="119.078438" xlink:href="#md91d9b3a27" y="189.670144"/>
     <use style="fill:#ff7f0e;stroke:#ff7f0e;" x="127.448437" xlink:href="#md91d9b3a27" y="188.842261"/>
     <use style="fill:#ff7f0e;stroke:#ff7f0e;" x="135.818438" xlink:href="#md91d9b3a27" y="191.333837"/>
     <use style="fill:#ff7f0e;stroke:#ff7f0e;" x="144.188438" xlink:href="#md91d9b3a27" y="196.876996"/>
     <use style="fill:#ff7f0e;stroke:#ff7f0e;" x="152.558438" xlink:href="#md91d9b3a27" y="204.429367"/>
     <use style="fill:#ff7f0e;stroke:#ff7f0e;" x="160.928438" xlink:href="#md91d9b3a27" y="212.465732"/>
     <use style="fill:#ff7f0e;stroke:#ff7f0e;" x="169.298438" xlink:href="#md91d9b3a27" y="219.318505"/>
     <use style="fill:#ff7f0e;stroke:#ff7f0e;" x="177.668438" xlink:href="#md91d9b3a27" y="223.473536"/>
     <use style="fill:#ff7f0e;stroke:#ff7f0e;" x="186.038438" xlink:href="#md91d9b3a27" y="223.798074"/>
     <use style="fill:#ff7f0e;stroke:#ff7f0e;" x="194.408438" xlink:href="#md91d9b3a27" y="219.707429"/>
     <use style="fill:#ff7f0e;stroke:#ff7f0e;" x="202.778437" xlink:href="#md91d9b3a27" y="211.252982"/>
     <use style="fill:#ff7f0e;stroke:#ff7f0e;" x="211.148438" xlink:href="#md91d9b3a27" y="199.087026"/>
     <use style="fill:#ff7f0e;stroke:#ff7f0e;" x="219.518438" xlink:href="#md91d9b3a27" y="184.285303"/>
     <use style="fill:#ff7f0e;stroke:#ff7f0e;" x="227.888438" xlink:href="#md91d9b3a27" y="168.081339"/>
     <use style="fill:#ff7f0e;stroke:#ff7f0e;" x="236.258438" xlink:href="#md91d9b3a27" y="151.624741"/>
     <use style="fill:#ff7f0e;stroke:#ff7f0e;" x="244.628438" xlink:href="#md91d9b3a27" y="135.861927"/>
     <use style="fill:#ff7f0e;stroke:#ff7f0e;" x="252.998438" xlink:href="#md91d9b3a27" y="121.562373"/>
     <use style="fill:#ff7f0e;stroke:#ff7f0e;" x="261.368438" xlink:href="#md91d9b3a27" y="109.438413"/>
     <use style="fill:#ff7f0e;stroke:#ff7f0e;" x="269.738438" xlink:href="#md91d9b3a27" y="100.278743"/>
     <use style="fill:#ff7f0e;stroke:#ff7f0e;" x="278.108438" xlink:href="#md91d9b3a27" y="95.023362"/>
     <use style="fill:#ff7f0e;stroke:#ff7f0e;" x="286.478438" xlink:href="#md91d9b3a27" y="94.714138"/>
     <use style="fill:#ff7f0e;stroke:#ff7f0e;" x="294.848438" xlink:href="#md91d9b3a27" y="100.259921"/>
     <use style="fill:#ff7f0e;stroke:#ff7f0e;" x="303.218437" xlink:href="#md91d9b3a27" y="112.00688"/>
     <use style="fill:#ff7f0e;stroke:#ff7f0e;" x="311.588437" xlink:href="#md91d9b3a27" y="129.232054"/>
     <use style="fill:#ff7f0e;stroke:#ff7f0e;" x="319.958438" xlink:href="#md91d9b3a27" y="149.821036"/>
     <use style="fill:#ff7f0e;stroke:#ff7f0e;" x="328.328438" xlink:href="#md91d9b3a27" y="170.419231"/>
     <use style="fill:#ff7f0e;stroke:#ff7f0e;" x="336.698438" xlink:href="#md91d9b3a27" y="187.171258"/>
     <use style="fill:#ff7f0e;stroke:#ff7f0e;" x="345.068438" xlink:href="#md91d9b3a27" y="196.84342"/>
     <use style="fill:#ff7f0e;stroke:#ff7f0e;" x="353.438438" xlink:href="#md91d9b3a27" y="197.855702"/>
     <use style="fill:#ff7f0e;stroke:#ff7f0e;" x="361.808438" xlink:href="#md91d9b3a27" y="190.729806"/>
     <use style="fill:#ff7f0e;stroke:#ff7f0e;" x="370.178438" xlink:href="#md91d9b3a27" y="177.731398"/>
     <use style="fill:#ff7f0e;stroke:#ff7f0e;" x="378.548438" xlink:href="#md91d9b3a27" y="161.892332"/>
     <use style="fill:#ff7f0e;stroke:#ff7f0e;" x="386.918437" xlink:href="#md91d9b3a27" y="145.892966"/>
    </g>
   </g>
   <g id="line2d_17">
    <path clip-path="url(#ped142e874c)" d="M 52.118437 126.669476 
L 60.488438 134.748993 
L 68.858438 139.039249 
L 77.228438 138.908493 
L 85.598437 134.023894 
L 93.968437 124.379702 
L 102.338438 110.43752 
L 110.708438 93.372109 
L 119.078438 75.278511 
L 127.448437 59.117081 
L 135.818438 48.250526 
L 144.188438 45.639136 
L 152.558438 52.969399 
L 160.928438 70.053673 
L 169.298438 94.720645 
L 177.668438 123.211828 
L 186.038438 150.938869 
L 194.408438 173.400613 
L 202.778437 187.072829 
L 211.148438 190.104126 
L 219.518438 182.66401 
L 227.888438 166.834878 
L 236.258438 146.053294 
L 244.628438 124.257848 
L 252.998438 105.007516 
L 261.368438 90.827742 
L 269.738438 82.923949 
L 278.108438 81.245629 
L 286.478438 84.773127 
L 294.848438 91.877407 
L 303.218437 100.654684 
L 311.588437 109.208204 
L 319.958438 115.888909 
L 328.328438 119.501637 
L 336.698438 119.46001 
L 345.068438 115.864816 
L 353.438438 109.493758 
L 361.808438 101.703715 
L 370.178438 94.24107 
L 378.548438 88.945342 
L 386.918437 87.350406 
" style="fill:none;stroke:#2ca02c;stroke-linecap:round;stroke-width:1.5;"/>
    <defs>
     <path d="M 0 1.5 
C 0.397805 1.5 0.77937 1.341951 1.06066 1.06066 
C 1.341951 0.77937 1.5 0.397805 1.5 0 
C 1.5 -0.397805 1.341951 -0.77937 1.06066 -1.06066 
C 0.77937 -1.341951 0.397805 -1.5 0 -1.5 
C -0.397805 -1.5 -0.77937 -1.341951 -1.06066 -1.06066 
C -1.341951 -0.77937 -1.5 -0.397805 -1.5 0 
C -1.5 0.397805 -1.341951 0.77937 -1.06066 1.06066 
C -0.77937 1.341951 -0.397805 1.5 0 1.5 
z
" id="m61bc3d44fc" style="stroke:#2ca02c;"/>
    </defs>
    <g clip-path="url(#ped142e874c)">
     <use style="fill:#2ca02c;stroke:#2ca02c;" x="52.118437" xlink:href="#m61bc3d44fc" y="126.669476"/>
     <use style="fill:#2ca02c;stroke:#2ca02c;" x="60.488438" xlink:href="#m61bc3d44fc" y="134.748993"/>
     <use style="fill:#2ca02c;stroke:#2ca02c;" x="68.858438" xlink:href="#m61bc3d44fc" y="139.039249"/>
     <use style="fill:#2ca02c;stroke:#2ca02c;" x="77.228438" xlink:href="#m61bc3d44fc" y="138.908493"/>
     <use style="fill:#2ca02c;stroke:#2ca02c;" x="85.598437" xlink:href="#m61bc3d44fc" y="134.023894"/>
     <use style="fill:#2ca02c;stroke:#2ca02c;" x="93.968437" xlink:href="#m61bc3d44fc" y="124.379702"/>
     <use style="fill:#2ca02c;stroke:#2ca02c;" x="102.338438" xlink:href="#m61bc3d44fc" y="110.43752"/>
     <use style="fill:#2ca02c;stroke:#2ca02c;" x="110.708438" xlink:href="#m61bc3d44fc" y="93.372109"/>
     <use style="fill:#2ca02c;stroke:#2ca02c;" x="119.078438" xlink:href="#m61bc3d44fc" y="75.278511"/>
     <use style="fill:#2ca02c;stroke:#2ca02c;" x="127.448437" xlink:href="#m61bc3d44fc" y="59.117081"/>
     <use style="fill:#2ca02c;stroke:#2ca02c;" x="135.818438" xlink:href="#m61bc3d44fc" y="48.250526"/>
     <use style="fill:#2ca02c;stroke:#2ca02c;" x="144.188438" xlink:href="#m61bc3d44fc" y="45.639136"/>
     <use style="fill:#2ca02c;stroke:#2ca02c;" x="152.558438" xlink:href="#m61bc3d44fc" y="52.969399"/>
     <use style="fill:#2ca02c;stroke:#2ca02c;" x="160.928438" xlink:href="#m61bc3d44fc" y="70.053673"/>
     <use style="fill:#2ca02c;stroke:#2ca02c;" x="169.298438" xlink:href="#m61bc3d44fc" y="94.720645"/>
     <use style="fill:#2ca02c;stroke:#2ca02c;" x="177.668438" xlink:href="#m61bc3d44fc" y="123.211828"/>
     <use style="fill:#2ca02c;stroke:#2ca02c;" x="186.038438" xlink:href="#m61bc3d44fc" y="150.938869"/>
     <use style="fill:#2ca02c;stroke:#2ca02c;" x="194.408438" xlink:href="#m61bc3d44fc" y="173.400613"/>
     <use style="fill:#2ca02c;stroke:#2ca02c;" x="202.778437" xlink:href="#m61bc3d44fc" y="187.072829"/>
     <use style="fill:#2ca02c;stroke:#2ca02c;" x="211.148438" xlink:href="#m61bc3d44fc" y="190.104126"/>
     <use style="fill:#2ca02c;stroke:#2ca02c;" x="219.518438" xlink:href="#m61bc3d44fc" y="182.66401"/>
     <use style="fill:#2ca02c;stroke:#2ca02c;" x="227.888438" xlink:href="#m61bc3d44fc" y="166.834878"/>
     <use style="fill:#2ca02c;stroke:#2ca02c;" x="236.258438" xlink:href="#m61bc3d44fc" y="146.053294"/>
     <use style="fill:#2ca02c;stroke:#2ca02c;" x="244.628438" xlink:href="#m61bc3d44fc" y="124.257848"/>
     <use style="fill:#2ca02c;stroke:#2ca02c;" x="252.998438" xlink:href="#m61bc3d44fc" y="105.007516"/>
     <use style="fill:#2ca02c;stroke:#2ca02c;" x="261.368438" xlink:href="#m61bc3d44fc" y="90.827742"/>
     <use style="fill:#2ca02c;stroke:#2ca02c;" x="269.738438" xlink:href="#m61bc3d44fc" y="82.923949"/>
     <use style="fill:#2ca02c;stroke:#2ca02c;" x="278.108438" xlink:href="#m61bc3d44fc" y="81.245629"/>
     <use style="fill:#2ca02c;stroke:#2ca02c;" x="286.478438" xlink:href="#m61bc3d44fc" y="84.773127"/>
     <use style="fill:#2ca02c;stroke:#2ca02c;" x="294.848438" xlink:href="#m61bc3d44fc" y="91.877407"/>
     <use style="fill:#2ca02c;stroke:#2ca02c;" x="303.218437" xlink:href="#m61bc3d44fc" y="100.654684"/>
     <use style="fill:#2ca02c;stroke:#2ca02c;" x="311.588437" xlink:href="#m61bc3d44fc" y="109.208204"/>
     <use style="fill:#2ca02c;stroke:#2ca02c;" x="319.958438" xlink:href="#m61bc3d44fc" y="115.888909"/>
     <use style="fill:#2ca02c;stroke:#2ca02c;" x="328.328438" xlink:href="#m61bc3d44fc" y="119.501637"/>
     <use style="fill:#2ca02c;stroke:#2ca02c;" x="336.698438" xlink:href="#m61bc3d44fc" y="119.46001"/>
     <use style="fill:#2ca02c;stroke:#2ca02c;" x="345.068438" xlink:href="#m61bc3d44fc" y="115.864816"/>
     <use style="fill:#2ca02c;stroke:#2ca02c;" x="353.438438" xlink:href="#m61bc3d44fc" y="109.493758"/>
     <use style="fill:#2ca02c;stroke:#2ca02c;" x="361.808438" xlink:href="#m61bc3d44fc" y="101.703715"/>
     <use style="fill:#2ca02c;stroke:#2ca02c;" x="370.178438" xlink:href="#m61bc3d44fc" y="94.24107"/>
     <use style="fill:#2ca02c;stroke:#2ca02c;" x="378.548438" xlink:href="#m61bc3d44fc" y="88.945342"/>
     <use style="fill:#2ca02c;stroke:#2ca02c;" x="386.918437" xlink:href="#m61bc3d44fc" y="87.350406"/>
    </g>
   </g>
   <g id="line2d_18">
    <path clip-path="url(#ped142e874c)" d="M 52.118437 169.468229 
L 60.488438 154.293481 
L 68.858438 141.276967 
L 77.228438 131.155888 
L 85.598437 123.934712 
L 93.968437 118.984296 
L 102.338438 115.393153 
L 110.708438 112.381198 
L 119.078438 109.604225 
L 127.448437 107.267649 
L 135.818438 106.041588 
L 144.188438 106.796157 
L 152.558438 110.195889 
L 160.928438 116.255172 
L 169.298438 124.043112 
L 177.668438 131.745894 
L 186.038438 137.175803 
L 194.408438 138.591796 
L 202.778437 135.498494 
L 211.148438 129.05032 
L 219.518438 121.837245 
L 227.888438 117.093338 
L 236.258438 117.62113 
L 244.628438 124.853572 
L 252.998438 138.423877 
L 261.368438 156.396658 
L 269.738438 176.024422 
L 278.108438 194.672484 
L 286.478438 210.51925 
L 294.848438 222.800118 
L 303.218437 231.617344 
L 311.588437 237.530251 
L 319.958438 241.170898 
L 328.328438 243.017679 
L 336.698438 243.311864 
L 345.068438 242.032028 
L 353.438438 238.880745 
L 361.808438 233.323684 
L 370.178438 224.753539 
L 378.548438 212.780279 
L 386.918437 197.522135 
" style="fill:none;stroke:#d62728;stroke-linecap:round;stroke-width:1.5;"/>
    <defs>
     <path d="M 0 1.5 
C 0.397805 1.5 0.77937 1.341951 1.06066 1.06066 
C 1.341951 0.77937 1.5 0.397805 1.5 0 
C 1.5 -0.397805 1.341951 -0.77937 1.06066 -1.06066 
C 0.77937 -1.341951 0.397805 -1.5 0 -1.5 
C -0.397805 -1.5 -0.77937 -1.341951 -1.06066 -1.06066 
C -1.341951 -0.77937 -1.5 -0.397805 -1.5 0 
C -1.5 0.397805 -1.341951 0.77937 -1.06066 1.06066 
C -0.77937 1.341951 -0.397805 1.5 0 1.5 
z
" id="m635e4e3d85" style="stroke:#d62728;"/>
    </defs>
    <g clip-path="url(#ped142e874c)">
     <use style="fill:#d62728;stroke:#d62728;" x="52.118437" xlink:href="#m635e4e3d85" y="169.468229"/>
     <use style="fill:#d62728;stroke:#d62728;" x="60.488438" xlink:href="#m635e4e3d85" y="154.293481"/>
     <use style="fill:#d62728;stroke:#d62728;" x="68.858438" xlink:href="#m635e4e3d85" y="141.276967"/>
     <use style="fill:#d62728;stroke:#d62728;" x="77.228438" xlink:href="#m635e4e3d85" y="131.155888"/>
     <use style="fill:#d62728;stroke:#d62728;" x="85.598437" xlink:href="#m635e4e3d85" y="123.934712"/>
     <use style="fill:#d62728;stroke:#d62728;" x="93.968437" xlink:href="#m635e4e3d85" y="118.984296"/>
     <use style="fill:#d62728;stroke:#d62728;" x="102.338438" xlink:href="#m635e4e3d85" y="115.393153"/>
     <use style="fill:#d62728;stroke:#d62728;" x="110.708438" xlink:href="#m635e4e3d85" y="112.381198"/>
     <use style="fill:#d62728;stroke:#d62728;" x="119.078438" xlink:href="#m635e4e3d85" y="109.604225"/>
     <use style="fill:#d62728;stroke:#d62728;" x="127.448437" xlink:href="#m635e4e3d85" y="107.267649"/>
     <use style="fill:#d62728;stroke:#d62728;" x="135.818438" xlink:href="#m635e4e3d85" y="106.041588"/>
     <use style="fill:#d62728;stroke:#d62728;" x="144.188438" xlink:href="#m635e4e3d85" y="106.796157"/>
     <use style="fill:#d62728;stroke:#d62728;" x="152.558438" xlink:href="#m635e4e3d85" y="110.195889"/>
     <use style="fill:#d62728;stroke:#d62728;" x="160.928438" xlink:href="#m635e4e3d85" y="116.255172"/>
     <use style="fill:#d62728;stroke:#d62728;" x="169.298438" xlink:href="#m635e4e3d85" y="124.043112"/>
     <use style="fill:#d62728;stroke:#d62728;" x="177.668438" xlink:href="#m635e4e3d85" y="131.745894"/>
     <use style="fill:#d62728;stroke:#d62728;" x="186.038438" xlink:href="#m635e4e3d85" y="137.175803"/>
     <use style="fill:#d62728;stroke:#d62728;" x="194.408438" xlink:href="#m635e4e3d85" y="138.591796"/>
     <use style="fill:#d62728;stroke:#d62728;" x="202.778437" xlink:href="#m635e4e3d85" y="135.498494"/>
     <use style="fill:#d62728;stroke:#d62728;" x="211.148438" xlink:href="#m635e4e3d85" y="129.05032"/>
     <use style="fill:#d62728;stroke:#d62728;" x="219.518438" xlink:href="#m635e4e3d85" y="121.837245"/>
     <use style="fill:#d62728;stroke:#d62728;" x="227.888438" xlink:href="#m635e4e3d85" y="117.093338"/>
     <use style="fill:#d62728;stroke:#d62728;" x="236.258438" xlink:href="#m635e4e3d85" y="117.62113"/>
     <use style="fill:#d62728;stroke:#d62728;" x="244.628438" xlink:href="#m635e4e3d85" y="124.853572"/>
     <use style="fill:#d62728;stroke:#d62728;" x="252.998438" xlink:href="#m635e4e3d85" y="138.423877"/>
     <use style="fill:#d62728;stroke:#d62728;" x="261.368438" xlink:href="#m635e4e3d85" y="156.396658"/>
     <use style="fill:#d62728;stroke:#d62728;" x="269.738438" xlink:href="#m635e4e3d85" y="176.024422"/>
     <use style="fill:#d62728;stroke:#d62728;" x="278.108438" xlink:href="#m635e4e3d85" y="194.672484"/>
     <use style="fill:#d62728;stroke:#d62728;" x="286.478438" xlink:href="#m635e4e3d85" y="210.51925"/>
     <use style="fill:#d62728;stroke:#d62728;" x="294.848438" xlink:href="#m635e4e3d85" y="222.800118"/>
     <use style="fill:#d62728;stroke:#d62728;" x="303.218437" xlink:href="#m635e4e3d85" y="231.617344"/>
     <use style="fill:#d62728;stroke:#d62728;" x="311.588437" xlink:href="#m635e4e3d85" y="237.530251"/>
     <use style="fill:#d62728;stroke:#d62728;" x="319.958438" xlink:href="#m635e4e3d85" y="241.170898"/>
     <use style="fill:#d62728;stroke:#d62728;" x="328.328438" xlink:href="#m635e4e3d85" y="243.017679"/>
     <use style="fill:#d62728;stroke:#d62728;" x="336.698438" xlink:href="#m635e4e3d85" y="243.311864"/>
     <use style="fill:#d62728;stroke:#d62728;" x="345.068438" xlink:href="#m635e4e3d85" y="242.032028"/>
     <use style="fill:#d62728;stroke:#d62728;" x="353.438438" xlink:href="#m635e4e3d85" y="238.880745"/>
     <use style="fill:#d62728;stroke:#d62728;" x="361.808438" xlink:href="#m635e4e3d85" y="233.323684"/>
     <use style="fill:#d62728;stroke:#d62728;" x="370.178438" xlink:href="#m635e4e3d85" y="224.753539"/>
     <use style="fill:#d62728;stroke:#d62728;" x="378.548438" xlink:href="#m635e4e3d85" y="212.780279"/>
     <use style="fill:#d62728;stroke:#d62728;" x="386.918437" xlink:href="#m635e4e3d85" y="197.522135"/>
    </g>
   </g>
   <g id="line2d_19">
    <path clip-path="url(#ped142e874c)" d="M 52.118437 176.253003 
L 60.488438 170.130346 
L 68.858438 163.180369 
L 77.228438 156.436468 
L 85.598437 150.528726 
L 93.968437 145.685649 
L 102.338438 141.959966 
L 110.708438 139.471531 
L 119.078438 138.465141 
L 127.448437 139.126018 
L 135.818438 141.279444 
L 144.188438 144.202478 
L 152.558438 146.725329 
L 160.928438 147.622667 
L 169.298438 146.106823 
L 177.668438 142.165068 
L 186.038438 136.580373 
L 194.408438 130.659906 
L 202.778437 125.830513 
L 211.148438 123.265741 
L 219.518438 123.625152 
L 227.888438 126.9144 
L 236.258438 132.466834 
L 244.628438 139.068358 
L 252.998438 145.230466 
L 261.368438 149.551353 
L 269.738438 151.047234 
L 278.108438 149.342554 
L 286.478438 144.676445 
L 294.848438 137.759733 
L 303.218437 129.555269 
L 311.588437 121.053309 
L 319.958438 113.099545 
L 328.328438 106.319089 
L 336.698438 101.152989 
L 345.068438 97.974272 
L 353.438438 97.200084 
L 361.808438 99.305135 
L 370.178438 104.693409 
L 378.548438 113.474698 
L 386.918437 125.265305 
" style="fill:none;stroke:#9467bd;stroke-linecap:round;stroke-width:1.5;"/>
    <defs>
     <path d="M 0 1.5 
C 0.397805 1.5 0.77937 1.341951 1.06066 1.06066 
C 1.341951 0.77937 1.5 0.397805 1.5 0 
C 1.5 -0.397805 1.341951 -0.77937 1.06066 -1.06066 
C 0.77937 -1.341951 0.397805 -1.5 0 -1.5 
C -0.397805 -1.5 -0.77937 -1.341951 -1.06066 -1.06066 
C -1.341951 -0.77937 -1.5 -0.397805 -1.5 0 
C -1.5 0.397805 -1.341951 0.77937 -1.06066 1.06066 
C -0.77937 1.341951 -0.397805 1.5 0 1.5 
z
" id="mca477b7be2" style="stroke:#9467bd;"/>
    </defs>
    <g clip-path="url(#ped142e874c)">
     <use style="fill:#9467bd;stroke:#9467bd;" x="52.118437" xlink:href="#mca477b7be2" y="176.253003"/>
     <use style="fill:#9467bd;stroke:#9467bd;" x="60.488438" xlink:href="#mca477b7be2" y="170.130346"/>
     <use style="fill:#9467bd;stroke:#9467bd;" x="68.858438" xlink:href="#mca477b7be2" y="163.180369"/>
     <use style="fill:#9467bd;stroke:#9467bd;" x="77.228438" xlink:href="#mca477b7be2" y="156.436468"/>
     <use style="fill:#9467bd;stroke:#9467bd;" x="85.598437" xlink:href="#mca477b7be2" y="150.528726"/>
     <use style="fill:#9467bd;stroke:#9467bd;" x="93.968437" xlink:href="#mca477b7be2" y="145.685649"/>
     <use style="fill:#9467bd;stroke:#9467bd;" x="102.338438" xlink:href="#mca477b7be2" y="141.959966"/>
     <use style="fill:#9467bd;stroke:#9467bd;" x="110.708438" xlink:href="#mca477b7be2" y="139.471531"/>
     <use style="fill:#9467bd;stroke:#9467bd;" x="119.078438" xlink:href="#mca477b7be2" y="138.465141"/>
     <use style="fill:#9467bd;stroke:#9467bd;" x="127.448437" xlink:href="#mca477b7be2" y="139.126018"/>
     <use style="fill:#9467bd;stroke:#9467bd;" x="135.818438" xlink:href="#mca477b7be2" y="141.279444"/>
     <use style="fill:#9467bd;stroke:#9467bd;" x="144.188438" xlink:href="#mca477b7be2" y="144.202478"/>
     <use style="fill:#9467bd;stroke:#9467bd;" x="152.558438" xlink:href="#mca477b7be2" y="146.725329"/>
     <use style="fill:#9467bd;stroke:#9467bd;" x="160.928438" xlink:href="#mca477b7be2" y="147.622667"/>
     <use style="fill:#9467bd;stroke:#9467bd;" x="169.298438" xlink:href="#mca477b7be2" y="146.106823"/>
     <use style="fill:#9467bd;stroke:#9467bd;" x="177.668438" xlink:href="#mca477b7be2" y="142.165068"/>
     <use style="fill:#9467bd;stroke:#9467bd;" x="186.038438" xlink:href="#mca477b7be2" y="136.580373"/>
     <use style="fill:#9467bd;stroke:#9467bd;" x="194.408438" xlink:href="#mca477b7be2" y="130.659906"/>
     <use style="fill:#9467bd;stroke:#9467bd;" x="202.778437" xlink:href="#mca477b7be2" y="125.830513"/>
     <use style="fill:#9467bd;stroke:#9467bd;" x="211.148438" xlink:href="#mca477b7be2" y="123.265741"/>
     <use style="fill:#9467bd;stroke:#9467bd;" x="219.518438" xlink:href="#mca477b7be2" y="123.625152"/>
     <use style="fill:#9467bd;stroke:#9467bd;" x="227.888438" xlink:href="#mca477b7be2" y="126.9144"/>
     <use style="fill:#9467bd;stroke:#9467bd;" x="236.258438" xlink:href="#mca477b7be2" y="132.466834"/>
     <use style="fill:#9467bd;stroke:#9467bd;" x="244.628438" xlink:href="#mca477b7be2" y="139.068358"/>
     <use style="fill:#9467bd;stroke:#9467bd;" x="252.998438" xlink:href="#mca477b7be2" y="145.230466"/>
     <use style="fill:#9467bd;stroke:#9467bd;" x="261.368438" xlink:href="#mca477b7be2" y="149.551353"/>
     <use style="fill:#9467bd;stroke:#9467bd;" x="269.738438" xlink:href="#mca477b7be2" y="151.047234"/>
     <use style="fill:#9467bd;stroke:#9467bd;" x="278.108438" xlink:href="#mca477b7be2" y="149.342554"/>
     <use style="fill:#9467bd;stroke:#9467bd;" x="286.478438" xlink:href="#mca477b7be2" y="144.676445"/>
     <use style="fill:#9467bd;stroke:#9467bd;" x="294.848438" xlink:href="#mca477b7be2" y="137.759733"/>
     <use style="fill:#9467bd;stroke:#9467bd;" x="303.218437" xlink:href="#mca477b7be2" y="129.555269"/>
     <use style="fill:#9467bd;stroke:#9467bd;" x="311.588437" xlink:href="#mca477b7be2" y="121.053309"/>
     <use style="fill:#9467bd;stroke:#9467bd;" x="319.958438" xlink:href="#mca477b7be2" y="113.099545"/>
     <use style="fill:#9467bd;stroke:#9467bd;" x="328.328438" xlink:href="#mca477b7be2" y="106.319089"/>
     <use style="fill:#9467bd;stroke:#9467bd;" x="336.698438" xlink:href="#mca477b7be2" y="101.152989"/>
     <use style="fill:#9467bd;stroke:#9467bd;" x="345.068438" xlink:href="#mca477b7be2" y="97.974272"/>
     <use style="fill:#9467bd;stroke:#9467bd;" x="353.438438" xlink:href="#mca477b7be2" y="97.200084"/>
     <use style="fill:#9467bd;stroke:#9467bd;" x="361.808438" xlink:href="#mca477b7be2" y="99.305135"/>
     <use style="fill:#9467bd;stroke:#9467bd;" x="370.178438" xlink:href="#mca477b7be2" y="104.693409"/>
     <use style="fill:#9467bd;stroke:#9467bd;" x="378.548438" xlink:href="#mca477b7be2" y="113.474698"/>
     <use style="fill:#9467bd;stroke:#9467bd;" x="386.918437" xlink:href="#mca477b7be2" y="125.265305"/>
    </g>
   </g>
   <g id="patch_3">
    <path d="M 52.118437 253.1955 
L 52.118437 35.7555 
" style="fill:none;stroke:#ffffff;stroke-linecap:square;stroke-linejoin:miter;stroke-width:0.8;"/>
   </g>
   <g id="patch_4">
    <path d="M 386.918437 253.1955 
L 386.918437 35.7555 
" style="fill:none;stroke:#ffffff;stroke-linecap:square;stroke-linejoin:miter;stroke-width:0.8;"/>
   </g>
   <g id="patch_5">
    <path d="M 52.118437 253.1955 
L 386.918437 253.1955 
" style="fill:none;stroke:#ffffff;stroke-linecap:square;stroke-linejoin:miter;stroke-width:0.8;"/>
   </g>
   <g id="patch_6">
    <path d="M 52.118437 35.7555 
L 386.918437 35.7555 
" style="fill:none;stroke:#ffffff;stroke-linecap:square;stroke-linejoin:miter;stroke-width:0.8;"/>
   </g>
   <g id="text_17">
    <!-- 5 different function realizations at 41 points -->
    <g style="fill:#262626;" transform="translate(87.610313 16.318125)scale(0.12 -0.12)">
     <defs>
      <path d="M 691 4666 
L 3169 4666 
L 3169 4134 
L 1269 4134 
L 1269 2991 
Q 1406 3038 1543 3061 
Q 1681 3084 1819 3084 
Q 2600 3084 3056 2656 
Q 3513 2228 3513 1497 
Q 3513 744 3044 326 
Q 2575 -91 1722 -91 
Q 1428 -91 1123 -41 
Q 819 9 494 109 
L 494 744 
Q 775 591 1075 516 
Q 1375 441 1709 441 
Q 2250 441 2565 725 
Q 2881 1009 2881 1497 
Q 2881 1984 2565 2268 
Q 2250 2553 1709 2553 
Q 1456 2553 1204 2497 
Q 953 2441 691 2322 
L 691 4666 
z
" id="DejaVuSans-35" transform="scale(0.015625)"/>
      <path id="DejaVuSans-20" transform="scale(0.015625)"/>
      <path d="M 2906 2969 
L 2906 4863 
L 3481 4863 
L 3481 0 
L 2906 0 
L 2906 525 
Q 2725 213 2448 61 
Q 2172 -91 1784 -91 
Q 1150 -91 751 415 
Q 353 922 353 1747 
Q 353 2572 751 3078 
Q 1150 3584 1784 3584 
Q 2172 3584 2448 3432 
Q 2725 3281 2906 2969 
z
M 947 1747 
Q 947 1113 1208 752 
Q 1469 391 1925 391 
Q 2381 391 2643 752 
Q 2906 1113 2906 1747 
Q 2906 2381 2643 2742 
Q 2381 3103 1925 3103 
Q 1469 3103 1208 2742 
Q 947 2381 947 1747 
z
" id="DejaVuSans-64" transform="scale(0.015625)"/>
      <path d="M 603 3500 
L 1178 3500 
L 1178 0 
L 603 0 
L 603 3500 
z
M 603 4863 
L 1178 4863 
L 1178 4134 
L 603 4134 
L 603 4863 
z
" id="DejaVuSans-69" transform="scale(0.015625)"/>
      <path d="M 2375 4863 
L 2375 4384 
L 1825 4384 
Q 1516 4384 1395 4259 
Q 1275 4134 1275 3809 
L 1275 3500 
L 2222 3500 
L 2222 3053 
L 1275 3053 
L 1275 0 
L 697 0 
L 697 3053 
L 147 3053 
L 147 3500 
L 697 3500 
L 697 3744 
Q 697 4328 969 4595 
Q 1241 4863 1831 4863 
L 2375 4863 
z
" id="DejaVuSans-66" transform="scale(0.015625)"/>
      <path d="M 3597 1894 
L 3597 1613 
L 953 1613 
Q 991 1019 1311 708 
Q 1631 397 2203 397 
Q 2534 397 2845 478 
Q 3156 559 3463 722 
L 3463 178 
Q 3153 47 2828 -22 
Q 2503 -91 2169 -91 
Q 1331 -91 842 396 
Q 353 884 353 1716 
Q 353 2575 817 3079 
Q 1281 3584 2069 3584 
Q 2775 3584 3186 3129 
Q 3597 2675 3597 1894 
z
M 3022 2063 
Q 3016 2534 2758 2815 
Q 2500 3097 2075 3097 
Q 1594 3097 1305 2825 
Q 1016 2553 972 2059 
L 3022 2063 
z
" id="DejaVuSans-65" transform="scale(0.015625)"/>
      <path d="M 2631 2963 
Q 2534 3019 2420 3045 
Q 2306 3072 2169 3072 
Q 1681 3072 1420 2755 
Q 1159 2438 1159 1844 
L 1159 0 
L 581 0 
L 581 3500 
L 1159 3500 
L 1159 2956 
Q 1341 3275 1631 3429 
Q 1922 3584 2338 3584 
Q 2397 3584 2469 3576 
Q 2541 3569 2628 3553 
L 2631 2963 
z
" id="DejaVuSans-72" transform="scale(0.015625)"/>
      <path d="M 3513 2113 
L 3513 0 
L 2938 0 
L 2938 2094 
Q 2938 2591 2744 2837 
Q 2550 3084 2163 3084 
Q 1697 3084 1428 2787 
Q 1159 2491 1159 1978 
L 1159 0 
L 581 0 
L 581 3500 
L 1159 3500 
L 1159 2956 
Q 1366 3272 1645 3428 
Q 1925 3584 2291 3584 
Q 2894 3584 3203 3211 
Q 3513 2838 3513 2113 
z
" id="DejaVuSans-6e" transform="scale(0.015625)"/>
      <path d="M 1172 4494 
L 1172 3500 
L 2356 3500 
L 2356 3053 
L 1172 3053 
L 1172 1153 
Q 1172 725 1289 603 
Q 1406 481 1766 481 
L 2356 481 
L 2356 0 
L 1766 0 
Q 1100 0 847 248 
Q 594 497 594 1153 
L 594 3053 
L 172 3053 
L 172 3500 
L 594 3500 
L 594 4494 
L 1172 4494 
z
" id="DejaVuSans-74" transform="scale(0.015625)"/>
      <path d="M 544 1381 
L 544 3500 
L 1119 3500 
L 1119 1403 
Q 1119 906 1312 657 
Q 1506 409 1894 409 
Q 2359 409 2629 706 
Q 2900 1003 2900 1516 
L 2900 3500 
L 3475 3500 
L 3475 0 
L 2900 0 
L 2900 538 
Q 2691 219 2414 64 
Q 2138 -91 1772 -91 
Q 1169 -91 856 284 
Q 544 659 544 1381 
z
M 1991 3584 
L 1991 3584 
z
" id="DejaVuSans-75" transform="scale(0.015625)"/>
      <path d="M 3122 3366 
L 3122 2828 
Q 2878 2963 2633 3030 
Q 2388 3097 2138 3097 
Q 1578 3097 1268 2742 
Q 959 2388 959 1747 
Q 959 1106 1268 751 
Q 1578 397 2138 397 
Q 2388 397 2633 464 
Q 2878 531 3122 666 
L 3122 134 
Q 2881 22 2623 -34 
Q 2366 -91 2075 -91 
Q 1284 -91 818 406 
Q 353 903 353 1747 
Q 353 2603 823 3093 
Q 1294 3584 2113 3584 
Q 2378 3584 2631 3529 
Q 2884 3475 3122 3366 
z
" id="DejaVuSans-63" transform="scale(0.015625)"/>
      <path d="M 1959 3097 
Q 1497 3097 1228 2736 
Q 959 2375 959 1747 
Q 959 1119 1226 758 
Q 1494 397 1959 397 
Q 2419 397 2687 759 
Q 2956 1122 2956 1747 
Q 2956 2369 2687 2733 
Q 2419 3097 1959 3097 
z
M 1959 3584 
Q 2709 3584 3137 3096 
Q 3566 2609 3566 1747 
Q 3566 888 3137 398 
Q 2709 -91 1959 -91 
Q 1206 -91 779 398 
Q 353 888 353 1747 
Q 353 2609 779 3096 
Q 1206 3584 1959 3584 
z
" id="DejaVuSans-6f" transform="scale(0.015625)"/>
      <path d="M 2194 1759 
Q 1497 1759 1228 1600 
Q 959 1441 959 1056 
Q 959 750 1161 570 
Q 1363 391 1709 391 
Q 2188 391 2477 730 
Q 2766 1069 2766 1631 
L 2766 1759 
L 2194 1759 
z
M 3341 1997 
L 3341 0 
L 2766 0 
L 2766 531 
Q 2569 213 2275 61 
Q 1981 -91 1556 -91 
Q 1019 -91 701 211 
Q 384 513 384 1019 
Q 384 1609 779 1909 
Q 1175 2209 1959 2209 
L 2766 2209 
L 2766 2266 
Q 2766 2663 2505 2880 
Q 2244 3097 1772 3097 
Q 1472 3097 1187 3025 
Q 903 2953 641 2809 
L 641 3341 
Q 956 3463 1253 3523 
Q 1550 3584 1831 3584 
Q 2591 3584 2966 3190 
Q 3341 2797 3341 1997 
z
" id="DejaVuSans-61" transform="scale(0.015625)"/>
      <path d="M 603 4863 
L 1178 4863 
L 1178 0 
L 603 0 
L 603 4863 
z
" id="DejaVuSans-6c" transform="scale(0.015625)"/>
      <path d="M 353 3500 
L 3084 3500 
L 3084 2975 
L 922 459 
L 3084 459 
L 3084 0 
L 275 0 
L 275 525 
L 2438 3041 
L 353 3041 
L 353 3500 
z
" id="DejaVuSans-7a" transform="scale(0.015625)"/>
      <path d="M 2834 3397 
L 2834 2853 
Q 2591 2978 2328 3040 
Q 2066 3103 1784 3103 
Q 1356 3103 1142 2972 
Q 928 2841 928 2578 
Q 928 2378 1081 2264 
Q 1234 2150 1697 2047 
L 1894 2003 
Q 2506 1872 2764 1633 
Q 3022 1394 3022 966 
Q 3022 478 2636 193 
Q 2250 -91 1575 -91 
Q 1294 -91 989 -36 
Q 684 19 347 128 
L 347 722 
Q 666 556 975 473 
Q 1284 391 1588 391 
Q 1994 391 2212 530 
Q 2431 669 2431 922 
Q 2431 1156 2273 1281 
Q 2116 1406 1581 1522 
L 1381 1569 
Q 847 1681 609 1914 
Q 372 2147 372 2553 
Q 372 3047 722 3315 
Q 1072 3584 1716 3584 
Q 2034 3584 2315 3537 
Q 2597 3491 2834 3397 
z
" id="DejaVuSans-73" transform="scale(0.015625)"/>
      <path d="M 1159 525 
L 1159 -1331 
L 581 -1331 
L 581 3500 
L 1159 3500 
L 1159 2969 
Q 1341 3281 1617 3432 
Q 1894 3584 2278 3584 
Q 2916 3584 3314 3078 
Q 3713 2572 3713 1747 
Q 3713 922 3314 415 
Q 2916 -91 2278 -91 
Q 1894 -91 1617 61 
Q 1341 213 1159 525 
z
M 3116 1747 
Q 3116 2381 2855 2742 
Q 2594 3103 2138 3103 
Q 1681 3103 1420 2742 
Q 1159 2381 1159 1747 
Q 1159 1113 1420 752 
Q 1681 391 2138 391 
Q 2594 391 2855 752 
Q 3116 1113 3116 1747 
z
" id="DejaVuSans-70" transform="scale(0.015625)"/>
     </defs>
     <use xlink:href="#DejaVuSans-35"/>
     <use x="63.623047" xlink:href="#DejaVuSans-20"/>
     <use x="95.410156" xlink:href="#DejaVuSans-64"/>
     <use x="158.886719" xlink:href="#DejaVuSans-69"/>
     <use x="186.669922" xlink:href="#DejaVuSans-66"/>
     <use x="221.875" xlink:href="#DejaVuSans-66"/>
     <use x="257.080078" xlink:href="#DejaVuSans-65"/>
     <use x="318.603516" xlink:href="#DejaVuSans-72"/>
     <use x="357.466797" xlink:href="#DejaVuSans-65"/>
     <use x="418.990234" xlink:href="#DejaVuSans-6e"/>
     <use x="482.369141" xlink:href="#DejaVuSans-74"/>
     <use x="521.578125" xlink:href="#DejaVuSans-20"/>
     <use x="553.365234" xlink:href="#DejaVuSans-66"/>
     <use x="588.570312" xlink:href="#DejaVuSans-75"/>
     <use x="651.949219" xlink:href="#DejaVuSans-6e"/>
     <use x="715.328125" xlink:href="#DejaVuSans-63"/>
     <use x="770.308594" xlink:href="#DejaVuSans-74"/>
     <use x="809.517578" xlink:href="#DejaVuSans-69"/>
     <use x="837.300781" xlink:href="#DejaVuSans-6f"/>
     <use x="898.482422" xlink:href="#DejaVuSans-6e"/>
     <use x="961.861328" xlink:href="#DejaVuSans-20"/>
     <use x="993.648438" xlink:href="#DejaVuSans-72"/>
     <use x="1032.511719" xlink:href="#DejaVuSans-65"/>
     <use x="1094.035156" xlink:href="#DejaVuSans-61"/>
     <use x="1155.314453" xlink:href="#DejaVuSans-6c"/>
     <use x="1183.097656" xlink:href="#DejaVuSans-69"/>
     <use x="1210.880859" xlink:href="#DejaVuSans-7a"/>
     <use x="1263.371094" xlink:href="#DejaVuSans-61"/>
     <use x="1324.650391" xlink:href="#DejaVuSans-74"/>
     <use x="1363.859375" xlink:href="#DejaVuSans-69"/>
     <use x="1391.642578" xlink:href="#DejaVuSans-6f"/>
     <use x="1452.824219" xlink:href="#DejaVuSans-6e"/>
     <use x="1516.203125" xlink:href="#DejaVuSans-73"/>
     <use x="1568.302734" xlink:href="#DejaVuSans-20"/>
     <use x="1600.089844" xlink:href="#DejaVuSans-61"/>
     <use x="1661.369141" xlink:href="#DejaVuSans-74"/>
     <use x="1700.578125" xlink:href="#DejaVuSans-20"/>
     <use x="1732.365234" xlink:href="#DejaVuSans-34"/>
     <use x="1795.988281" xlink:href="#DejaVuSans-31"/>
     <use x="1859.611328" xlink:href="#DejaVuSans-20"/>
     <use x="1891.398438" xlink:href="#DejaVuSans-70"/>
     <use x="1954.875" xlink:href="#DejaVuSans-6f"/>
     <use x="2016.056641" xlink:href="#DejaVuSans-69"/>
     <use x="2043.839844" xlink:href="#DejaVuSans-6e"/>
     <use x="2107.21875" xlink:href="#DejaVuSans-74"/>
     <use x="2146.427734" xlink:href="#DejaVuSans-73"/>
    </g>
    <!-- sampled from a Gaussian process with exponentiated quadratic kernel -->
    <g style="fill:#262626;" transform="translate(7.2 29.7555)scale(0.12 -0.12)">
     <defs>
      <path d="M 3328 2828 
Q 3544 3216 3844 3400 
Q 4144 3584 4550 3584 
Q 5097 3584 5394 3201 
Q 5691 2819 5691 2113 
L 5691 0 
L 5113 0 
L 5113 2094 
Q 5113 2597 4934 2840 
Q 4756 3084 4391 3084 
Q 3944 3084 3684 2787 
Q 3425 2491 3425 1978 
L 3425 0 
L 2847 0 
L 2847 2094 
Q 2847 2600 2669 2842 
Q 2491 3084 2119 3084 
Q 1678 3084 1418 2786 
Q 1159 2488 1159 1978 
L 1159 0 
L 581 0 
L 581 3500 
L 1159 3500 
L 1159 2956 
Q 1356 3278 1631 3431 
Q 1906 3584 2284 3584 
Q 2666 3584 2933 3390 
Q 3200 3197 3328 2828 
z
" id="DejaVuSans-6d" transform="scale(0.015625)"/>
      <path d="M 3809 666 
L 3809 1919 
L 2778 1919 
L 2778 2438 
L 4434 2438 
L 4434 434 
Q 4069 175 3628 42 
Q 3188 -91 2688 -91 
Q 1594 -91 976 548 
Q 359 1188 359 2328 
Q 359 3472 976 4111 
Q 1594 4750 2688 4750 
Q 3144 4750 3555 4637 
Q 3966 4525 4313 4306 
L 4313 3634 
Q 3963 3931 3569 4081 
Q 3175 4231 2741 4231 
Q 1884 4231 1454 3753 
Q 1025 3275 1025 2328 
Q 1025 1384 1454 906 
Q 1884 428 2741 428 
Q 3075 428 3337 486 
Q 3600 544 3809 666 
z
" id="DejaVuSans-47" transform="scale(0.015625)"/>
      <path d="M 269 3500 
L 844 3500 
L 1563 769 
L 2278 3500 
L 2956 3500 
L 3675 769 
L 4391 3500 
L 4966 3500 
L 4050 0 
L 3372 0 
L 2619 2869 
L 1863 0 
L 1184 0 
L 269 3500 
z
" id="DejaVuSans-77" transform="scale(0.015625)"/>
      <path d="M 3513 2113 
L 3513 0 
L 2938 0 
L 2938 2094 
Q 2938 2591 2744 2837 
Q 2550 3084 2163 3084 
Q 1697 3084 1428 2787 
Q 1159 2491 1159 1978 
L 1159 0 
L 581 0 
L 581 4863 
L 1159 4863 
L 1159 2956 
Q 1366 3272 1645 3428 
Q 1925 3584 2291 3584 
Q 2894 3584 3203 3211 
Q 3513 2838 3513 2113 
z
" id="DejaVuSans-68" transform="scale(0.015625)"/>
      <path d="M 3513 3500 
L 2247 1797 
L 3578 0 
L 2900 0 
L 1881 1375 
L 863 0 
L 184 0 
L 1544 1831 
L 300 3500 
L 978 3500 
L 1906 2253 
L 2834 3500 
L 3513 3500 
z
" id="DejaVuSans-78" transform="scale(0.015625)"/>
      <path d="M 947 1747 
Q 947 1113 1208 752 
Q 1469 391 1925 391 
Q 2381 391 2643 752 
Q 2906 1113 2906 1747 
Q 2906 2381 2643 2742 
Q 2381 3103 1925 3103 
Q 1469 3103 1208 2742 
Q 947 2381 947 1747 
z
M 2906 525 
Q 2725 213 2448 61 
Q 2172 -91 1784 -91 
Q 1150 -91 751 415 
Q 353 922 353 1747 
Q 353 2572 751 3078 
Q 1150 3584 1784 3584 
Q 2172 3584 2448 3432 
Q 2725 3281 2906 2969 
L 2906 3500 
L 3481 3500 
L 3481 -1331 
L 2906 -1331 
L 2906 525 
z
" id="DejaVuSans-71" transform="scale(0.015625)"/>
      <path d="M 581 4863 
L 1159 4863 
L 1159 1991 
L 2875 3500 
L 3609 3500 
L 1753 1863 
L 3688 0 
L 2938 0 
L 1159 1709 
L 1159 0 
L 581 0 
L 581 4863 
z
" id="DejaVuSans-6b" transform="scale(0.015625)"/>
     </defs>
     <use xlink:href="#DejaVuSans-73"/>
     <use x="52.099609" xlink:href="#DejaVuSans-61"/>
     <use x="113.378906" xlink:href="#DejaVuSans-6d"/>
     <use x="210.791016" xlink:href="#DejaVuSans-70"/>
     <use x="274.267578" xlink:href="#DejaVuSans-6c"/>
     <use x="302.050781" xlink:href="#DejaVuSans-65"/>
     <use x="363.574219" xlink:href="#DejaVuSans-64"/>
     <use x="427.050781" xlink:href="#DejaVuSans-20"/>
     <use x="458.837891" xlink:href="#DejaVuSans-66"/>
     <use x="494.042969" xlink:href="#DejaVuSans-72"/>
     <use x="532.90625" xlink:href="#DejaVuSans-6f"/>
     <use x="594.087891" xlink:href="#DejaVuSans-6d"/>
     <use x="691.5" xlink:href="#DejaVuSans-20"/>
     <use x="723.287109" xlink:href="#DejaVuSans-61"/>
     <use x="784.566406" xlink:href="#DejaVuSans-20"/>
     <use x="816.353516" xlink:href="#DejaVuSans-47"/>
     <use x="893.84375" xlink:href="#DejaVuSans-61"/>
     <use x="955.123047" xlink:href="#DejaVuSans-75"/>
     <use x="1018.501953" xlink:href="#DejaVuSans-73"/>
     <use x="1070.601562" xlink:href="#DejaVuSans-73"/>
     <use x="1122.701172" xlink:href="#DejaVuSans-69"/>
     <use x="1150.484375" xlink:href="#DejaVuSans-61"/>
     <use x="1211.763672" xlink:href="#DejaVuSans-6e"/>
     <use x="1275.142578" xlink:href="#DejaVuSans-20"/>
     <use x="1306.929688" xlink:href="#DejaVuSans-70"/>
     <use x="1370.40625" xlink:href="#DejaVuSans-72"/>
     <use x="1409.269531" xlink:href="#DejaVuSans-6f"/>
     <use x="1470.451172" xlink:href="#DejaVuSans-63"/>
     <use x="1525.431641" xlink:href="#DejaVuSans-65"/>
     <use x="1586.955078" xlink:href="#DejaVuSans-73"/>
     <use x="1639.054688" xlink:href="#DejaVuSans-73"/>
     <use x="1691.154297" xlink:href="#DejaVuSans-20"/>
     <use x="1722.941406" xlink:href="#DejaVuSans-77"/>
     <use x="1804.728516" xlink:href="#DejaVuSans-69"/>
     <use x="1832.511719" xlink:href="#DejaVuSans-74"/>
     <use x="1871.720703" xlink:href="#DejaVuSans-68"/>
     <use x="1935.099609" xlink:href="#DejaVuSans-20"/>
     <use x="1966.886719" xlink:href="#DejaVuSans-65"/>
     <use x="2026.660156" xlink:href="#DejaVuSans-78"/>
     <use x="2085.839844" xlink:href="#DejaVuSans-70"/>
     <use x="2149.316406" xlink:href="#DejaVuSans-6f"/>
     <use x="2210.498047" xlink:href="#DejaVuSans-6e"/>
     <use x="2273.876953" xlink:href="#DejaVuSans-65"/>
     <use x="2335.400391" xlink:href="#DejaVuSans-6e"/>
     <use x="2398.779297" xlink:href="#DejaVuSans-74"/>
     <use x="2437.988281" xlink:href="#DejaVuSans-69"/>
     <use x="2465.771484" xlink:href="#DejaVuSans-61"/>
     <use x="2527.050781" xlink:href="#DejaVuSans-74"/>
     <use x="2566.259766" xlink:href="#DejaVuSans-65"/>
     <use x="2627.783203" xlink:href="#DejaVuSans-64"/>
     <use x="2691.259766" xlink:href="#DejaVuSans-20"/>
     <use x="2723.046875" xlink:href="#DejaVuSans-71"/>
     <use x="2786.523438" xlink:href="#DejaVuSans-75"/>
     <use x="2849.902344" xlink:href="#DejaVuSans-61"/>
     <use x="2911.181641" xlink:href="#DejaVuSans-64"/>
     <use x="2974.658203" xlink:href="#DejaVuSans-72"/>
     <use x="3015.771484" xlink:href="#DejaVuSans-61"/>
     <use x="3077.050781" xlink:href="#DejaVuSans-74"/>
     <use x="3116.259766" xlink:href="#DejaVuSans-69"/>
     <use x="3144.042969" xlink:href="#DejaVuSans-63"/>
     <use x="3199.023438" xlink:href="#DejaVuSans-20"/>
     <use x="3230.810547" xlink:href="#DejaVuSans-6b"/>
     <use x="3285.095703" xlink:href="#DejaVuSans-65"/>
     <use x="3346.619141" xlink:href="#DejaVuSans-72"/>
     <use x="3385.982422" xlink:href="#DejaVuSans-6e"/>
     <use x="3449.361328" xlink:href="#DejaVuSans-65"/>
     <use x="3510.884766" xlink:href="#DejaVuSans-6c"/>
    </g>
   </g>
  </g>
 </g>
 <defs>
  <clipPath id="ped142e874c">
   <rect height="217.44" width="334.8" x="52.118437" y="35.7555"/>
  </clipPath>
 </defs>
</svg>
