<?xml version="1.0" encoding="utf-8" standalone="no"?>
<!DOCTYPE svg PUBLIC "-//W3C//DTD SVG 1.1//EN"
  "http://www.w3.org/Graphics/SVG/1.1/DTD/svg11.dtd">
<svg height="423.177812pt" version="1.1" viewBox="0 0 423.3675 423.177812" width="423.3675pt" xmlns="http://www.w3.org/2000/svg" xmlns:xlink="http://www.w3.org/1999/xlink">
 <metadata>
  <rdf:RDF xmlns:cc="http://creativecommons.org/ns#" xmlns:dc="http://purl.org/dc/elements/1.1/" xmlns:rdf="http://www.w3.org/1999/02/22-rdf-syntax-ns#">
   <cc:Work>
    <dc:type rdf:resource="http://purl.org/dc/dcmitype/StillImage"/>
    <dc:date>2021-09-02T12:43:12.146159</dc:date>
    <dc:format>image/svg+xml</dc:format>
    <dc:creator>
     <cc:Agent>
      <dc:title>Matplotlib v3.4.3, https://matplotlib.org/</dc:title>
     </cc:Agent>
    </dc:creator>
   </cc:Work>
  </rdf:RDF>
 </metadata>
 <defs>
  <style type="text/css">*{stroke-linecap:butt;stroke-linejoin:round;}</style>
 </defs>
 <g id="figure_1">
  <g id="patch_1">
   <path d="M 0 423.177812 
L 423.3675 423.177812 
L 423.3675 0 
L 0 0 
z
" style="fill:#ffffff;"/>
  </g>
  <g id="axes_1">
   <g id="patch_2">
    <path d="M 45.52375 172.118125 
L 412.98625 172.118125 
L 412.98625 22.318125 
L 45.52375 22.318125 
z
" style="fill:#eaeaf2;"/>
   </g>
   <g id="matplotlib.axis_1">
    <g id="xtick_1">
     <g id="line2d_1">
      <path clip-path="url(#p56025f3df2)" d="M 45.52375 172.118125 
L 45.52375 22.318125 
" style="fill:none;stroke:#ffffff;stroke-linecap:round;stroke-width:0.8;"/>
     </g>
     <g id="text_1">
      <!-- −6 -->
      <g style="fill:#262626;" transform="translate(38.152656 186.716562)scale(0.1 -0.1)">
       <defs>
        <path d="M 678 2272 
L 4684 2272 
L 4684 1741 
L 678 1741 
L 678 2272 
z
" id="DejaVuSans-2212" transform="scale(0.015625)"/>
        <path d="M 2113 2584 
Q 1688 2584 1439 2293 
Q 1191 2003 1191 1497 
Q 1191 994 1439 701 
Q 1688 409 2113 409 
Q 2538 409 2786 701 
Q 3034 994 3034 1497 
Q 3034 2003 2786 2293 
Q 2538 2584 2113 2584 
z
M 3366 4563 
L 3366 3988 
Q 3128 4100 2886 4159 
Q 2644 4219 2406 4219 
Q 1781 4219 1451 3797 
Q 1122 3375 1075 2522 
Q 1259 2794 1537 2939 
Q 1816 3084 2150 3084 
Q 2853 3084 3261 2657 
Q 3669 2231 3669 1497 
Q 3669 778 3244 343 
Q 2819 -91 2113 -91 
Q 1303 -91 875 529 
Q 447 1150 447 2328 
Q 447 3434 972 4092 
Q 1497 4750 2381 4750 
Q 2619 4750 2861 4703 
Q 3103 4656 3366 4563 
z
" id="DejaVuSans-36" transform="scale(0.015625)"/>
       </defs>
       <use xlink:href="#DejaVuSans-2212"/>
       <use x="83.789062" xlink:href="#DejaVuSans-36"/>
      </g>
     </g>
    </g>
    <g id="xtick_2">
     <g id="line2d_2">
      <path clip-path="url(#p56025f3df2)" d="M 106.7675 172.118125 
L 106.7675 22.318125 
" style="fill:none;stroke:#ffffff;stroke-linecap:round;stroke-width:0.8;"/>
     </g>
     <g id="text_2">
      <!-- −4 -->
      <g style="fill:#262626;" transform="translate(99.396406 186.716562)scale(0.1 -0.1)">
       <defs>
        <path d="M 2419 4116 
L 825 1625 
L 2419 1625 
L 2419 4116 
z
M 2253 4666 
L 3047 4666 
L 3047 1625 
L 3713 1625 
L 3713 1100 
L 3047 1100 
L 3047 0 
L 2419 0 
L 2419 1100 
L 313 1100 
L 313 1709 
L 2253 4666 
z
" id="DejaVuSans-34" transform="scale(0.015625)"/>
       </defs>
       <use xlink:href="#DejaVuSans-2212"/>
       <use x="83.789062" xlink:href="#DejaVuSans-34"/>
      </g>
     </g>
    </g>
    <g id="xtick_3">
     <g id="line2d_3">
      <path clip-path="url(#p56025f3df2)" d="M 168.01125 172.118125 
L 168.01125 22.318125 
" style="fill:none;stroke:#ffffff;stroke-linecap:round;stroke-width:0.8;"/>
     </g>
     <g id="text_3">
      <!-- −2 -->
      <g style="fill:#262626;" transform="translate(160.640156 186.716562)scale(0.1 -0.1)">
       <defs>
        <path d="M 1228 531 
L 3431 531 
L 3431 0 
L 469 0 
L 469 531 
Q 828 903 1448 1529 
Q 2069 2156 2228 2338 
Q 2531 2678 2651 2914 
Q 2772 3150 2772 3378 
Q 2772 3750 2511 3984 
Q 2250 4219 1831 4219 
Q 1534 4219 1204 4116 
Q 875 4013 500 3803 
L 500 4441 
Q 881 4594 1212 4672 
Q 1544 4750 1819 4750 
Q 2544 4750 2975 4387 
Q 3406 4025 3406 3419 
Q 3406 3131 3298 2873 
Q 3191 2616 2906 2266 
Q 2828 2175 2409 1742 
Q 1991 1309 1228 531 
z
" id="DejaVuSans-32" transform="scale(0.015625)"/>
       </defs>
       <use xlink:href="#DejaVuSans-2212"/>
       <use x="83.789062" xlink:href="#DejaVuSans-32"/>
      </g>
     </g>
    </g>
    <g id="xtick_4">
     <g id="line2d_4">
      <path clip-path="url(#p56025f3df2)" d="M 229.255 172.118125 
L 229.255 22.318125 
" style="fill:none;stroke:#ffffff;stroke-linecap:round;stroke-width:0.8;"/>
     </g>
     <g id="text_4">
      <!-- 0 -->
      <g style="fill:#262626;" transform="translate(226.07375 186.716562)scale(0.1 -0.1)">
       <defs>
        <path d="M 2034 4250 
Q 1547 4250 1301 3770 
Q 1056 3291 1056 2328 
Q 1056 1369 1301 889 
Q 1547 409 2034 409 
Q 2525 409 2770 889 
Q 3016 1369 3016 2328 
Q 3016 3291 2770 3770 
Q 2525 4250 2034 4250 
z
M 2034 4750 
Q 2819 4750 3233 4129 
Q 3647 3509 3647 2328 
Q 3647 1150 3233 529 
Q 2819 -91 2034 -91 
Q 1250 -91 836 529 
Q 422 1150 422 2328 
Q 422 3509 836 4129 
Q 1250 4750 2034 4750 
z
" id="DejaVuSans-30" transform="scale(0.015625)"/>
       </defs>
       <use xlink:href="#DejaVuSans-30"/>
      </g>
     </g>
    </g>
    <g id="xtick_5">
     <g id="line2d_5">
      <path clip-path="url(#p56025f3df2)" d="M 290.49875 172.118125 
L 290.49875 22.318125 
" style="fill:none;stroke:#ffffff;stroke-linecap:round;stroke-width:0.8;"/>
     </g>
     <g id="text_5">
      <!-- 2 -->
      <g style="fill:#262626;" transform="translate(287.3175 186.716562)scale(0.1 -0.1)">
       <use xlink:href="#DejaVuSans-32"/>
      </g>
     </g>
    </g>
    <g id="xtick_6">
     <g id="line2d_6">
      <path clip-path="url(#p56025f3df2)" d="M 351.7425 172.118125 
L 351.7425 22.318125 
" style="fill:none;stroke:#ffffff;stroke-linecap:round;stroke-width:0.8;"/>
     </g>
     <g id="text_6">
      <!-- 4 -->
      <g style="fill:#262626;" transform="translate(348.56125 186.716562)scale(0.1 -0.1)">
       <use xlink:href="#DejaVuSans-34"/>
      </g>
     </g>
    </g>
    <g id="xtick_7">
     <g id="line2d_7">
      <path clip-path="url(#p56025f3df2)" d="M 412.98625 172.118125 
L 412.98625 22.318125 
" style="fill:none;stroke:#ffffff;stroke-linecap:round;stroke-width:0.8;"/>
     </g>
     <g id="text_7">
      <!-- 6 -->
      <g style="fill:#262626;" transform="translate(409.805 186.716562)scale(0.1 -0.1)">
       <use xlink:href="#DejaVuSans-36"/>
      </g>
     </g>
    </g>
    <g id="text_8">
     <!-- $x$ -->
     <g style="fill:#262626;" transform="translate(225.355 202.674219)scale(0.13 -0.13)">
      <defs>
       <path d="M 3841 3500 
L 2234 1784 
L 3219 0 
L 2559 0 
L 1819 1388 
L 531 0 
L -166 0 
L 1556 1844 
L 641 3500 
L 1300 3500 
L 1972 2234 
L 3144 3500 
L 3841 3500 
z
" id="DejaVuSans-Oblique-78" transform="scale(0.015625)"/>
      </defs>
      <use transform="translate(0 0.3125)" xlink:href="#DejaVuSans-Oblique-78"/>
     </g>
    </g>
   </g>
   <g id="matplotlib.axis_2">
    <g id="ytick_1">
     <g id="line2d_8">
      <path clip-path="url(#p56025f3df2)" d="M 45.52375 172.118125 
L 412.98625 172.118125 
" style="fill:none;stroke:#ffffff;stroke-linecap:round;stroke-width:0.8;"/>
     </g>
     <g id="text_9">
      <!-- −3 -->
      <g style="fill:#262626;" transform="translate(23.781562 175.917344)scale(0.1 -0.1)">
       <defs>
        <path d="M 2597 2516 
Q 3050 2419 3304 2112 
Q 3559 1806 3559 1356 
Q 3559 666 3084 287 
Q 2609 -91 1734 -91 
Q 1441 -91 1130 -33 
Q 819 25 488 141 
L 488 750 
Q 750 597 1062 519 
Q 1375 441 1716 441 
Q 2309 441 2620 675 
Q 2931 909 2931 1356 
Q 2931 1769 2642 2001 
Q 2353 2234 1838 2234 
L 1294 2234 
L 1294 2753 
L 1863 2753 
Q 2328 2753 2575 2939 
Q 2822 3125 2822 3475 
Q 2822 3834 2567 4026 
Q 2313 4219 1838 4219 
Q 1578 4219 1281 4162 
Q 984 4106 628 3988 
L 628 4550 
Q 988 4650 1302 4700 
Q 1616 4750 1894 4750 
Q 2613 4750 3031 4423 
Q 3450 4097 3450 3541 
Q 3450 3153 3228 2886 
Q 3006 2619 2597 2516 
z
" id="DejaVuSans-33" transform="scale(0.015625)"/>
       </defs>
       <use xlink:href="#DejaVuSans-2212"/>
       <use x="83.789062" xlink:href="#DejaVuSans-33"/>
      </g>
     </g>
    </g>
    <g id="ytick_2">
     <g id="line2d_9">
      <path clip-path="url(#p56025f3df2)" d="M 45.52375 147.151458 
L 412.98625 147.151458 
" style="fill:none;stroke:#ffffff;stroke-linecap:round;stroke-width:0.8;"/>
     </g>
     <g id="text_10">
      <!-- −2 -->
      <g style="fill:#262626;" transform="translate(23.781562 150.950677)scale(0.1 -0.1)">
       <use xlink:href="#DejaVuSans-2212"/>
       <use x="83.789062" xlink:href="#DejaVuSans-32"/>
      </g>
     </g>
    </g>
    <g id="ytick_3">
     <g id="line2d_10">
      <path clip-path="url(#p56025f3df2)" d="M 45.52375 122.184792 
L 412.98625 122.184792 
" style="fill:none;stroke:#ffffff;stroke-linecap:round;stroke-width:0.8;"/>
     </g>
     <g id="text_11">
      <!-- −1 -->
      <g style="fill:#262626;" transform="translate(23.781562 125.98401)scale(0.1 -0.1)">
       <defs>
        <path d="M 794 531 
L 1825 531 
L 1825 4091 
L 703 3866 
L 703 4441 
L 1819 4666 
L 2450 4666 
L 2450 531 
L 3481 531 
L 3481 0 
L 794 0 
L 794 531 
z
" id="DejaVuSans-31" transform="scale(0.015625)"/>
       </defs>
       <use xlink:href="#DejaVuSans-2212"/>
       <use x="83.789062" xlink:href="#DejaVuSans-31"/>
      </g>
     </g>
    </g>
    <g id="ytick_4">
     <g id="line2d_11">
      <path clip-path="url(#p56025f3df2)" d="M 45.52375 97.218125 
L 412.98625 97.218125 
" style="fill:none;stroke:#ffffff;stroke-linecap:round;stroke-width:0.8;"/>
     </g>
     <g id="text_12">
      <!-- 0 -->
      <g style="fill:#262626;" transform="translate(32.16125 101.017344)scale(0.1 -0.1)">
       <use xlink:href="#DejaVuSans-30"/>
      </g>
     </g>
    </g>
    <g id="ytick_5">
     <g id="line2d_12">
      <path clip-path="url(#p56025f3df2)" d="M 45.52375 72.251458 
L 412.98625 72.251458 
" style="fill:none;stroke:#ffffff;stroke-linecap:round;stroke-width:0.8;"/>
     </g>
     <g id="text_13">
      <!-- 1 -->
      <g style="fill:#262626;" transform="translate(32.16125 76.050677)scale(0.1 -0.1)">
       <use xlink:href="#DejaVuSans-31"/>
      </g>
     </g>
    </g>
    <g id="ytick_6">
     <g id="line2d_13">
      <path clip-path="url(#p56025f3df2)" d="M 45.52375 47.284792 
L 412.98625 47.284792 
" style="fill:none;stroke:#ffffff;stroke-linecap:round;stroke-width:0.8;"/>
     </g>
     <g id="text_14">
      <!-- 2 -->
      <g style="fill:#262626;" transform="translate(32.16125 51.08401)scale(0.1 -0.1)">
       <use xlink:href="#DejaVuSans-32"/>
      </g>
     </g>
    </g>
    <g id="ytick_7">
     <g id="line2d_14">
      <path clip-path="url(#p56025f3df2)" d="M 45.52375 22.318125 
L 412.98625 22.318125 
" style="fill:none;stroke:#ffffff;stroke-linecap:round;stroke-width:0.8;"/>
     </g>
     <g id="text_15">
      <!-- 3 -->
      <g style="fill:#262626;" transform="translate(32.16125 26.117344)scale(0.1 -0.1)">
       <use xlink:href="#DejaVuSans-33"/>
      </g>
     </g>
    </g>
    <g id="text_16">
     <!-- $y$ -->
     <g style="fill:#262626;" transform="translate(17.051562 101.118125)rotate(-90)scale(0.13 -0.13)">
      <defs>
       <path d="M 1588 -325 
Q 1188 -997 936 -1164 
Q 684 -1331 294 -1331 
L -159 -1331 
L -63 -850 
L 269 -850 
Q 509 -850 678 -719 
Q 847 -588 1056 -206 
L 1234 128 
L 459 3500 
L 1069 3500 
L 1650 819 
L 3256 3500 
L 3859 3500 
L 1588 -325 
z
" id="DejaVuSans-Oblique-79" transform="scale(0.015625)"/>
      </defs>
      <use transform="translate(0 0.3125)" xlink:href="#DejaVuSans-Oblique-79"/>
     </g>
    </g>
   </g>
   <g id="PolyCollection_1">
    <defs>
     <path d="M 45.52375 -375.932778 
L 45.52375 -276.068448 
L 50.489459 -276.097564 
L 55.455169 -276.144524 
L 60.420878 -276.219385 
L 65.386588 -276.337893 
L 70.352297 -276.524717 
L 75.318007 -276.817868 
L 80.283716 -277.273753 
L 85.249426 -277.971219 
L 90.215135 -279.011807 
L 95.180845 -280.512841 
L 100.146554 -282.590786 
L 105.112264 -285.334741 
L 110.077973 -288.773541 
L 115.043682 -292.843478 
L 120.009392 -297.366018 
L 124.975101 -302.044864 
L 129.940811 -306.489055 
L 134.90652 -310.263435 
L 139.87223 -312.960801 
L 144.837939 -314.282895 
L 149.803649 -312.208296 
L 154.769358 -307.707317 
L 159.735068 -304.619924 
L 164.700777 -302.806931 
L 169.666486 -301.989651 
L 174.632196 -301.208996 
L 179.597905 -299.776705 
L 184.563615 -299.60444 
L 189.529324 -300.655764 
L 194.495034 -302.679683 
L 199.460743 -305.294886 
L 204.426453 -307.645229 
L 209.392162 -310.797815 
L 214.357872 -313.244388 
L 219.323581 -315.498927 
L 224.289291 -317.772247 
L 229.255 -320.344444 
L 234.220709 -323.458667 
L 239.186419 -327.226043 
L 244.152128 -331.570327 
L 249.117838 -336.228606 
L 254.083547 -340.807251 
L 259.049257 -344.875607 
L 264.014966 -348.068671 
L 268.980676 -349.799816 
L 273.946385 -350.335031 
L 278.912095 -350.643927 
L 283.877804 -350.275366 
L 288.843514 -348.899716 
L 293.809223 -347.127066 
L 298.774932 -344.989334 
L 303.740642 -341.972247 
L 308.706351 -338.643413 
L 313.672061 -335.078528 
L 318.63777 -330.054606 
L 323.60348 -324.092489 
L 328.569189 -317.365468 
L 333.534899 -310.190045 
L 338.500608 -302.973462 
L 343.466318 -296.141132 
L 348.432027 -290.063609 
L 353.397736 -285.00052 
L 358.363446 -281.072274 
L 363.329155 -278.261951 
L 368.294865 -276.442209 
L 373.260574 -275.417037 
L 378.226284 -274.966609 
L 383.191993 -274.8851 
L 388.157703 -275.005188 
L 393.123412 -275.207752 
L 398.089122 -275.419448 
L 403.054831 -275.603075 
L 408.020541 -275.745727 
L 412.98625 -275.848257 
L 412.98625 -375.701579 
L 412.98625 -375.701579 
L 408.020541 -375.577393 
L 403.054831 -375.383197 
L 398.089122 -375.084438 
L 393.123412 -374.631619 
L 388.157703 -373.955906 
L 383.191993 -372.966283 
L 378.226284 -371.551291 
L 373.260574 -369.588956 
L 368.294865 -366.967435 
L 363.329155 -363.615846 
L 358.363446 -359.540363 
L 353.397736 -354.856572 
L 348.432027 -349.806937 
L 343.466318 -344.753283 
L 338.500608 -340.138848 
L 333.534899 -336.421977 
L 328.569189 -333.992274 
L 323.60348 -333.087471 
L 318.63777 -333.732616 
L 313.672061 -335.720522 
L 308.706351 -339.150603 
L 303.740642 -342.390654 
L 298.774932 -345.166051 
L 293.809223 -347.783488 
L 288.843514 -349.56637 
L 283.877804 -350.471774 
L 278.912095 -351.097559 
L 273.946385 -351.135722 
L 268.980676 -350.167774 
L 264.014966 -349.196714 
L 259.049257 -348.526415 
L 254.083547 -347.626714 
L 249.117838 -346.224887 
L 244.152128 -344.030837 
L 239.186419 -340.841716 
L 234.220709 -336.625357 
L 229.255 -331.556514 
L 224.289291 -325.994401 
L 219.323581 -320.407767 
L 214.357872 -315.269331 
L 209.392162 -310.950294 
L 204.426453 -308.102773 
L 199.460743 -305.348282 
L 194.495034 -303.886232 
L 189.529324 -302.997161 
L 184.563615 -302.430478 
L 179.597905 -302.03842 
L 174.632196 -301.832532 
L 169.666486 -303.690834 
L 164.700777 -306.792735 
L 159.735068 -309.946424 
L 154.769358 -312.556034 
L 149.803649 -314.112277 
L 144.837939 -318.073421 
L 139.87223 -325.059619 
L 134.90652 -332.767703 
L 129.940811 -340.71051 
L 124.975101 -348.393635 
L 120.009392 -355.390087 
L 115.043682 -361.394156 
L 110.077973 -366.246632 
L 105.112264 -369.931056 
L 100.146554 -372.546873 
L 95.180845 -374.269173 
L 90.215135 -375.305568 
L 85.249426 -375.859231 
L 80.283716 -376.103682 
L 75.318007 -376.170917 
L 70.352297 -376.150862 
L 65.386588 -376.098096 
L 60.420878 -376.041501 
L 55.455169 -375.993562 
L 50.489459 -375.957633 
L 45.52375 -375.932778 
z
" id="m79d5bbc9a3" style="stroke:#ff0000;stroke-opacity:0.15;"/>
    </defs>
    <g clip-path="url(#p56025f3df2)">
     <use style="fill:#ff0000;fill-opacity:0.15;stroke:#ff0000;stroke-opacity:0.15;" x="0" xlink:href="#m79d5bbc9a3" y="423.177812"/>
    </g>
   </g>
   <g id="line2d_15">
    <path clip-path="url(#p56025f3df2)" d="M 45.52375 90.242051 
L 50.489459 86.463197 
L 55.455169 82.966541 
L 60.420878 79.843832 
L 65.386588 77.177007 
L 70.352297 75.036041 
L 75.318007 73.477111 
L 80.283716 72.54112 
L 85.249426 72.25263 
L 90.215135 72.619208 
L 95.180845 73.631238 
L 100.146554 75.262164 
L 105.112264 77.469192 
L 110.077973 80.194412 
L 115.043682 83.366317 
L 120.009392 86.901679 
L 124.975101 90.707735 
L 129.940811 94.684617 
L 134.90652 98.727975 
L 139.87223 102.731717 
L 144.837939 106.590787 
L 149.803649 110.203929 
L 154.769358 113.476336 
L 159.735068 116.322143 
L 164.700777 118.666681 
L 169.666486 120.44843 
L 174.632196 121.62064 
L 179.597905 122.152552 
L 184.563615 122.030209 
L 189.529324 121.256823 
L 194.495034 119.852686 
L 199.460743 117.85464 
L 204.426453 115.315113 
L 209.392162 112.30074 
L 214.357872 108.890613 
L 219.323581 105.174213 
L 224.289291 101.249053 
L 229.255 97.218125 
L 234.220709 93.187197 
L 239.186419 89.262037 
L 244.152128 85.545637 
L 249.117838 82.13551 
L 254.083547 79.121137 
L 259.049257 76.58161 
L 264.014966 74.583564 
L 268.980676 73.179427 
L 273.946385 72.406041 
L 278.912095 72.283698 
L 283.877804 72.81561 
L 288.843514 73.98782 
L 293.809223 75.769569 
L 298.774932 78.114107 
L 303.740642 80.959914 
L 308.706351 84.232321 
L 313.672061 87.845463 
L 318.63777 91.704533 
L 323.60348 95.708275 
L 328.569189 99.751633 
L 333.534899 103.728515 
L 338.500608 107.534571 
L 343.466318 111.069933 
L 348.432027 114.241838 
L 353.397736 116.967058 
L 358.363446 119.174086 
L 363.329155 120.805012 
L 368.294865 121.817042 
L 373.260574 122.18362 
L 378.226284 121.89513 
L 383.191993 120.959139 
L 388.157703 119.400209 
L 393.123412 117.259243 
L 398.089122 114.592418 
L 403.054831 111.469709 
L 408.020541 107.973053 
L 412.98625 104.194199 
" style="fill:none;stroke:#0000ff;stroke-dasharray:5.55,2.4;stroke-dashoffset:0;stroke-width:1.5;"/>
   </g>
   <g id="line2d_16">
    <path clip-path="url(#p56025f3df2)" d="M 45.52375 97.1772 
L 50.489459 97.150214 
L 55.455169 97.108769 
L 60.420878 97.04737 
L 65.386588 96.959818 
L 70.352297 96.840023 
L 75.318007 96.68342 
L 80.283716 96.489095 
L 85.249426 96.262588 
L 90.215135 96.019125 
L 95.180845 95.786805 
L 100.146554 95.608983 
L 105.112264 95.544914 
L 110.077973 95.667726 
L 115.043682 96.058995 
L 120.009392 96.79976 
L 124.975101 97.958563 
L 129.940811 99.57803 
L 134.90652 101.662244 
L 139.87223 104.167603 
L 144.837939 106.999654 
L 149.803649 110.017526 
L 154.769358 113.046137 
L 159.735068 115.894638 
L 164.700777 118.37798 
L 169.666486 120.33757 
L 174.632196 121.657048 
L 179.597905 122.27025 
L 184.563615 122.160353 
L 189.529324 121.35135 
L 194.495034 119.894855 
L 199.460743 117.856228 
L 204.426453 115.303811 
L 209.392162 112.303758 
L 214.357872 108.920953 
L 219.323581 105.224466 
L 224.289291 101.294488 
L 229.255 97.227333 
L 234.220709 93.1358 
L 239.186419 89.143933 
L 244.152128 85.377231 
L 249.117838 81.951066 
L 254.083547 78.96083 
L 259.049257 76.476801 
L 264.014966 74.54512 
L 268.980676 73.194018 
L 273.946385 72.442436 
L 278.912095 72.307069 
L 283.877804 72.804242 
L 288.843514 73.944769 
L 293.809223 75.722536 
L 298.774932 78.10012 
L 303.740642 80.996362 
L 308.706351 84.280804 
L 313.672061 87.778288 
L 318.63777 91.284201 
L 323.60348 94.587832 
L 328.569189 97.498941 
L 333.534899 99.871801 
L 338.500608 101.621657 
L 343.466318 102.730605 
L 348.432027 103.24254 
L 353.397736 103.249266 
L 358.363446 102.871494 
L 363.329155 102.238914 
L 368.294865 101.47299 
L 373.260574 100.674816 
L 378.226284 99.918863 
L 383.191993 99.252121 
L 388.157703 98.697266 
L 393.123412 98.258127 
L 398.089122 97.92587 
L 403.054831 97.684677 
L 408.020541 97.516252 
L 412.98625 97.402894 
" style="fill:none;stroke:#ff0000;stroke-linecap:round;stroke-width:2;"/>
   </g>
   <g id="line2d_17">
    <defs>
     <path d="M 0 3 
C 0.795609 3 1.55874 2.683901 2.12132 2.12132 
C 2.683901 1.55874 3 0.795609 3 0 
C 3 -0.795609 2.683901 -1.55874 2.12132 -2.12132 
C 1.55874 -2.683901 0.795609 -3 0 -3 
C -0.795609 -3 -1.55874 -2.683901 -2.12132 -2.12132 
C -2.683901 -1.55874 -3 -0.795609 -3 0 
C -3 0.795609 -2.683901 1.55874 -2.12132 2.12132 
C -1.55874 2.683901 -0.795609 3 0 3 
z
" id="m39a8e13c8f" style="stroke:#000000;"/>
    </defs>
    <g clip-path="url(#p56025f3df2)">
     <use style="stroke:#000000;" x="300.156336" xlink:href="#m39a8e13c8f" y="78.858418"/>
     <use style="stroke:#000000;" x="173.207137" xlink:href="#m39a8e13c8f" y="121.348709"/>
     <use style="stroke:#000000;" x="208.742543" xlink:href="#m39a8e13c8f" y="112.719391"/>
     <use style="stroke:#000000;" x="311.731291" xlink:href="#m39a8e13c8f" y="86.398644"/>
     <use style="stroke:#000000;" x="147.855981" xlink:href="#m39a8e13c8f" y="108.822312"/>
     <use style="stroke:#000000;" x="199.750867" xlink:href="#m39a8e13c8f" y="117.720578"/>
     <use style="stroke:#000000;" x="282.385945" xlink:href="#m39a8e13c8f" y="72.587554"/>
     <use style="stroke:#000000;" x="267.35226" xlink:href="#m39a8e13c8f" y="73.571849"/>
    </g>
   </g>
   <g id="patch_3">
    <path d="M 45.52375 172.118125 
L 45.52375 22.318125 
" style="fill:none;stroke:#ffffff;stroke-linecap:square;stroke-linejoin:miter;stroke-width:0.8;"/>
   </g>
   <g id="patch_4">
    <path d="M 412.98625 172.118125 
L 412.98625 22.318125 
" style="fill:none;stroke:#ffffff;stroke-linecap:square;stroke-linejoin:miter;stroke-width:0.8;"/>
   </g>
   <g id="patch_5">
    <path d="M 45.52375 172.118125 
L 412.98625 172.118125 
" style="fill:none;stroke:#ffffff;stroke-linecap:square;stroke-linejoin:miter;stroke-width:0.8;"/>
   </g>
   <g id="patch_6">
    <path d="M 45.52375 22.318125 
L 412.98625 22.318125 
" style="fill:none;stroke:#ffffff;stroke-linecap:square;stroke-linejoin:miter;stroke-width:0.8;"/>
   </g>
   <g id="text_17">
    <!-- Distribution of posterior and prior data. -->
    <g style="fill:#262626;" transform="translate(111.222813 16.318125)scale(0.12 -0.12)">
     <defs>
      <path d="M 1259 4147 
L 1259 519 
L 2022 519 
Q 2988 519 3436 956 
Q 3884 1394 3884 2338 
Q 3884 3275 3436 3711 
Q 2988 4147 2022 4147 
L 1259 4147 
z
M 628 4666 
L 1925 4666 
Q 3281 4666 3915 4102 
Q 4550 3538 4550 2338 
Q 4550 1131 3912 565 
Q 3275 0 1925 0 
L 628 0 
L 628 4666 
z
" id="DejaVuSans-44" transform="scale(0.015625)"/>
      <path d="M 603 3500 
L 1178 3500 
L 1178 0 
L 603 0 
L 603 3500 
z
M 603 4863 
L 1178 4863 
L 1178 4134 
L 603 4134 
L 603 4863 
z
" id="DejaVuSans-69" transform="scale(0.015625)"/>
      <path d="M 2834 3397 
L 2834 2853 
Q 2591 2978 2328 3040 
Q 2066 3103 1784 3103 
Q 1356 3103 1142 2972 
Q 928 2841 928 2578 
Q 928 2378 1081 2264 
Q 1234 2150 1697 2047 
L 1894 2003 
Q 2506 1872 2764 1633 
Q 3022 1394 3022 966 
Q 3022 478 2636 193 
Q 2250 -91 1575 -91 
Q 1294 -91 989 -36 
Q 684 19 347 128 
L 347 722 
Q 666 556 975 473 
Q 1284 391 1588 391 
Q 1994 391 2212 530 
Q 2431 669 2431 922 
Q 2431 1156 2273 1281 
Q 2116 1406 1581 1522 
L 1381 1569 
Q 847 1681 609 1914 
Q 372 2147 372 2553 
Q 372 3047 722 3315 
Q 1072 3584 1716 3584 
Q 2034 3584 2315 3537 
Q 2597 3491 2834 3397 
z
" id="DejaVuSans-73" transform="scale(0.015625)"/>
      <path d="M 1172 4494 
L 1172 3500 
L 2356 3500 
L 2356 3053 
L 1172 3053 
L 1172 1153 
Q 1172 725 1289 603 
Q 1406 481 1766 481 
L 2356 481 
L 2356 0 
L 1766 0 
Q 1100 0 847 248 
Q 594 497 594 1153 
L 594 3053 
L 172 3053 
L 172 3500 
L 594 3500 
L 594 4494 
L 1172 4494 
z
" id="DejaVuSans-74" transform="scale(0.015625)"/>
      <path d="M 2631 2963 
Q 2534 3019 2420 3045 
Q 2306 3072 2169 3072 
Q 1681 3072 1420 2755 
Q 1159 2438 1159 1844 
L 1159 0 
L 581 0 
L 581 3500 
L 1159 3500 
L 1159 2956 
Q 1341 3275 1631 3429 
Q 1922 3584 2338 3584 
Q 2397 3584 2469 3576 
Q 2541 3569 2628 3553 
L 2631 2963 
z
" id="DejaVuSans-72" transform="scale(0.015625)"/>
      <path d="M 3116 1747 
Q 3116 2381 2855 2742 
Q 2594 3103 2138 3103 
Q 1681 3103 1420 2742 
Q 1159 2381 1159 1747 
Q 1159 1113 1420 752 
Q 1681 391 2138 391 
Q 2594 391 2855 752 
Q 3116 1113 3116 1747 
z
M 1159 2969 
Q 1341 3281 1617 3432 
Q 1894 3584 2278 3584 
Q 2916 3584 3314 3078 
Q 3713 2572 3713 1747 
Q 3713 922 3314 415 
Q 2916 -91 2278 -91 
Q 1894 -91 1617 61 
Q 1341 213 1159 525 
L 1159 0 
L 581 0 
L 581 4863 
L 1159 4863 
L 1159 2969 
z
" id="DejaVuSans-62" transform="scale(0.015625)"/>
      <path d="M 544 1381 
L 544 3500 
L 1119 3500 
L 1119 1403 
Q 1119 906 1312 657 
Q 1506 409 1894 409 
Q 2359 409 2629 706 
Q 2900 1003 2900 1516 
L 2900 3500 
L 3475 3500 
L 3475 0 
L 2900 0 
L 2900 538 
Q 2691 219 2414 64 
Q 2138 -91 1772 -91 
Q 1169 -91 856 284 
Q 544 659 544 1381 
z
M 1991 3584 
L 1991 3584 
z
" id="DejaVuSans-75" transform="scale(0.015625)"/>
      <path d="M 1959 3097 
Q 1497 3097 1228 2736 
Q 959 2375 959 1747 
Q 959 1119 1226 758 
Q 1494 397 1959 397 
Q 2419 397 2687 759 
Q 2956 1122 2956 1747 
Q 2956 2369 2687 2733 
Q 2419 3097 1959 3097 
z
M 1959 3584 
Q 2709 3584 3137 3096 
Q 3566 2609 3566 1747 
Q 3566 888 3137 398 
Q 2709 -91 1959 -91 
Q 1206 -91 779 398 
Q 353 888 353 1747 
Q 353 2609 779 3096 
Q 1206 3584 1959 3584 
z
" id="DejaVuSans-6f" transform="scale(0.015625)"/>
      <path d="M 3513 2113 
L 3513 0 
L 2938 0 
L 2938 2094 
Q 2938 2591 2744 2837 
Q 2550 3084 2163 3084 
Q 1697 3084 1428 2787 
Q 1159 2491 1159 1978 
L 1159 0 
L 581 0 
L 581 3500 
L 1159 3500 
L 1159 2956 
Q 1366 3272 1645 3428 
Q 1925 3584 2291 3584 
Q 2894 3584 3203 3211 
Q 3513 2838 3513 2113 
z
" id="DejaVuSans-6e" transform="scale(0.015625)"/>
      <path id="DejaVuSans-20" transform="scale(0.015625)"/>
      <path d="M 2375 4863 
L 2375 4384 
L 1825 4384 
Q 1516 4384 1395 4259 
Q 1275 4134 1275 3809 
L 1275 3500 
L 2222 3500 
L 2222 3053 
L 1275 3053 
L 1275 0 
L 697 0 
L 697 3053 
L 147 3053 
L 147 3500 
L 697 3500 
L 697 3744 
Q 697 4328 969 4595 
Q 1241 4863 1831 4863 
L 2375 4863 
z
" id="DejaVuSans-66" transform="scale(0.015625)"/>
      <path d="M 1159 525 
L 1159 -1331 
L 581 -1331 
L 581 3500 
L 1159 3500 
L 1159 2969 
Q 1341 3281 1617 3432 
Q 1894 3584 2278 3584 
Q 2916 3584 3314 3078 
Q 3713 2572 3713 1747 
Q 3713 922 3314 415 
Q 2916 -91 2278 -91 
Q 1894 -91 1617 61 
Q 1341 213 1159 525 
z
M 3116 1747 
Q 3116 2381 2855 2742 
Q 2594 3103 2138 3103 
Q 1681 3103 1420 2742 
Q 1159 2381 1159 1747 
Q 1159 1113 1420 752 
Q 1681 391 2138 391 
Q 2594 391 2855 752 
Q 3116 1113 3116 1747 
z
" id="DejaVuSans-70" transform="scale(0.015625)"/>
      <path d="M 3597 1894 
L 3597 1613 
L 953 1613 
Q 991 1019 1311 708 
Q 1631 397 2203 397 
Q 2534 397 2845 478 
Q 3156 559 3463 722 
L 3463 178 
Q 3153 47 2828 -22 
Q 2503 -91 2169 -91 
Q 1331 -91 842 396 
Q 353 884 353 1716 
Q 353 2575 817 3079 
Q 1281 3584 2069 3584 
Q 2775 3584 3186 3129 
Q 3597 2675 3597 1894 
z
M 3022 2063 
Q 3016 2534 2758 2815 
Q 2500 3097 2075 3097 
Q 1594 3097 1305 2825 
Q 1016 2553 972 2059 
L 3022 2063 
z
" id="DejaVuSans-65" transform="scale(0.015625)"/>
      <path d="M 2194 1759 
Q 1497 1759 1228 1600 
Q 959 1441 959 1056 
Q 959 750 1161 570 
Q 1363 391 1709 391 
Q 2188 391 2477 730 
Q 2766 1069 2766 1631 
L 2766 1759 
L 2194 1759 
z
M 3341 1997 
L 3341 0 
L 2766 0 
L 2766 531 
Q 2569 213 2275 61 
Q 1981 -91 1556 -91 
Q 1019 -91 701 211 
Q 384 513 384 1019 
Q 384 1609 779 1909 
Q 1175 2209 1959 2209 
L 2766 2209 
L 2766 2266 
Q 2766 2663 2505 2880 
Q 2244 3097 1772 3097 
Q 1472 3097 1187 3025 
Q 903 2953 641 2809 
L 641 3341 
Q 956 3463 1253 3523 
Q 1550 3584 1831 3584 
Q 2591 3584 2966 3190 
Q 3341 2797 3341 1997 
z
" id="DejaVuSans-61" transform="scale(0.015625)"/>
      <path d="M 2906 2969 
L 2906 4863 
L 3481 4863 
L 3481 0 
L 2906 0 
L 2906 525 
Q 2725 213 2448 61 
Q 2172 -91 1784 -91 
Q 1150 -91 751 415 
Q 353 922 353 1747 
Q 353 2572 751 3078 
Q 1150 3584 1784 3584 
Q 2172 3584 2448 3432 
Q 2725 3281 2906 2969 
z
M 947 1747 
Q 947 1113 1208 752 
Q 1469 391 1925 391 
Q 2381 391 2643 752 
Q 2906 1113 2906 1747 
Q 2906 2381 2643 2742 
Q 2381 3103 1925 3103 
Q 1469 3103 1208 2742 
Q 947 2381 947 1747 
z
" id="DejaVuSans-64" transform="scale(0.015625)"/>
      <path d="M 684 794 
L 1344 794 
L 1344 0 
L 684 0 
L 684 794 
z
" id="DejaVuSans-2e" transform="scale(0.015625)"/>
     </defs>
     <use xlink:href="#DejaVuSans-44"/>
     <use x="77.001953" xlink:href="#DejaVuSans-69"/>
     <use x="104.785156" xlink:href="#DejaVuSans-73"/>
     <use x="156.884766" xlink:href="#DejaVuSans-74"/>
     <use x="196.09375" xlink:href="#DejaVuSans-72"/>
     <use x="237.207031" xlink:href="#DejaVuSans-69"/>
     <use x="264.990234" xlink:href="#DejaVuSans-62"/>
     <use x="328.466797" xlink:href="#DejaVuSans-75"/>
     <use x="391.845703" xlink:href="#DejaVuSans-74"/>
     <use x="431.054688" xlink:href="#DejaVuSans-69"/>
     <use x="458.837891" xlink:href="#DejaVuSans-6f"/>
     <use x="520.019531" xlink:href="#DejaVuSans-6e"/>
     <use x="583.398438" xlink:href="#DejaVuSans-20"/>
     <use x="615.185547" xlink:href="#DejaVuSans-6f"/>
     <use x="676.367188" xlink:href="#DejaVuSans-66"/>
     <use x="711.572266" xlink:href="#DejaVuSans-20"/>
     <use x="743.359375" xlink:href="#DejaVuSans-70"/>
     <use x="806.835938" xlink:href="#DejaVuSans-6f"/>
     <use x="868.017578" xlink:href="#DejaVuSans-73"/>
     <use x="920.117188" xlink:href="#DejaVuSans-74"/>
     <use x="959.326172" xlink:href="#DejaVuSans-65"/>
     <use x="1020.849609" xlink:href="#DejaVuSans-72"/>
     <use x="1061.962891" xlink:href="#DejaVuSans-69"/>
     <use x="1089.746094" xlink:href="#DejaVuSans-6f"/>
     <use x="1150.927734" xlink:href="#DejaVuSans-72"/>
     <use x="1192.041016" xlink:href="#DejaVuSans-20"/>
     <use x="1223.828125" xlink:href="#DejaVuSans-61"/>
     <use x="1285.107422" xlink:href="#DejaVuSans-6e"/>
     <use x="1348.486328" xlink:href="#DejaVuSans-64"/>
     <use x="1411.962891" xlink:href="#DejaVuSans-20"/>
     <use x="1443.75" xlink:href="#DejaVuSans-70"/>
     <use x="1507.226562" xlink:href="#DejaVuSans-72"/>
     <use x="1548.339844" xlink:href="#DejaVuSans-69"/>
     <use x="1576.123047" xlink:href="#DejaVuSans-6f"/>
     <use x="1637.304688" xlink:href="#DejaVuSans-72"/>
     <use x="1678.417969" xlink:href="#DejaVuSans-20"/>
     <use x="1710.205078" xlink:href="#DejaVuSans-64"/>
     <use x="1773.681641" xlink:href="#DejaVuSans-61"/>
     <use x="1834.960938" xlink:href="#DejaVuSans-74"/>
     <use x="1874.169922" xlink:href="#DejaVuSans-61"/>
     <use x="1935.449219" xlink:href="#DejaVuSans-2e"/>
    </g>
   </g>
   <g id="legend_1">
    <g id="patch_7">
     <path d="M 339.68625 91.493125 
L 405.98625 91.493125 
Q 407.98625 91.493125 407.98625 89.493125 
L 407.98625 29.318125 
Q 407.98625 27.318125 405.98625 27.318125 
L 339.68625 27.318125 
Q 337.68625 27.318125 337.68625 29.318125 
L 337.68625 89.493125 
Q 337.68625 91.493125 339.68625 91.493125 
z
" style="fill:#eaeaf2;opacity:0.8;stroke:#cccccc;stroke-linejoin:miter;"/>
    </g>
    <g id="line2d_18">
     <path d="M 341.68625 35.416562 
L 361.68625 35.416562 
" style="fill:none;stroke:#0000ff;stroke-dasharray:5.55,2.4;stroke-dashoffset:0;stroke-width:1.5;"/>
    </g>
    <g id="line2d_19"/>
    <g id="text_18">
     <!-- $sin(x)$ -->
     <g style="fill:#262626;" transform="translate(369.68625 38.916562)scale(0.1 -0.1)">
      <defs>
       <path d="M 3200 3397 
L 3091 2853 
Q 2863 2978 2609 3040 
Q 2356 3103 2088 3103 
Q 1634 3103 1373 2948 
Q 1113 2794 1113 2528 
Q 1113 2219 1719 2053 
Q 1766 2041 1788 2034 
L 1972 1978 
Q 2547 1819 2739 1644 
Q 2931 1469 2931 1166 
Q 2931 609 2489 259 
Q 2047 -91 1331 -91 
Q 1053 -91 747 -37 
Q 441 16 72 128 
L 184 722 
Q 500 559 806 475 
Q 1113 391 1394 391 
Q 1816 391 2080 572 
Q 2344 753 2344 1031 
Q 2344 1331 1650 1516 
L 1591 1531 
L 1394 1581 
Q 956 1697 753 1886 
Q 550 2075 550 2369 
Q 550 2928 970 3256 
Q 1391 3584 2113 3584 
Q 2397 3584 2667 3537 
Q 2938 3491 3200 3397 
z
" id="DejaVuSans-Oblique-73" transform="scale(0.015625)"/>
       <path d="M 1172 4863 
L 1747 4863 
L 1606 4134 
L 1031 4134 
L 1172 4863 
z
M 909 3500 
L 1484 3500 
L 800 0 
L 225 0 
L 909 3500 
z
" id="DejaVuSans-Oblique-69" transform="scale(0.015625)"/>
       <path d="M 3566 2113 
L 3156 0 
L 2578 0 
L 2988 2091 
Q 3016 2238 3031 2350 
Q 3047 2463 3047 2528 
Q 3047 2791 2881 2937 
Q 2716 3084 2419 3084 
Q 1956 3084 1622 2776 
Q 1288 2469 1184 1941 
L 800 0 
L 225 0 
L 903 3500 
L 1478 3500 
L 1363 2950 
Q 1603 3253 1940 3418 
Q 2278 3584 2650 3584 
Q 3113 3584 3367 3334 
Q 3622 3084 3622 2631 
Q 3622 2519 3608 2391 
Q 3594 2263 3566 2113 
z
" id="DejaVuSans-Oblique-6e" transform="scale(0.015625)"/>
       <path d="M 1984 4856 
Q 1566 4138 1362 3434 
Q 1159 2731 1159 2009 
Q 1159 1288 1364 580 
Q 1569 -128 1984 -844 
L 1484 -844 
Q 1016 -109 783 600 
Q 550 1309 550 2009 
Q 550 2706 781 3412 
Q 1013 4119 1484 4856 
L 1984 4856 
z
" id="DejaVuSans-28" transform="scale(0.015625)"/>
       <path d="M 513 4856 
L 1013 4856 
Q 1481 4119 1714 3412 
Q 1947 2706 1947 2009 
Q 1947 1309 1714 600 
Q 1481 -109 1013 -844 
L 513 -844 
Q 928 -128 1133 580 
Q 1338 1288 1338 2009 
Q 1338 2731 1133 3434 
Q 928 4138 513 4856 
z
" id="DejaVuSans-29" transform="scale(0.015625)"/>
      </defs>
      <use transform="translate(0 0.015625)" xlink:href="#DejaVuSans-Oblique-73"/>
      <use transform="translate(52.099609 0.015625)" xlink:href="#DejaVuSans-Oblique-69"/>
      <use transform="translate(79.882812 0.015625)" xlink:href="#DejaVuSans-Oblique-6e"/>
      <use transform="translate(143.261719 0.015625)" xlink:href="#DejaVuSans-28"/>
      <use transform="translate(182.275391 0.015625)" xlink:href="#DejaVuSans-Oblique-78"/>
      <use transform="translate(241.455078 0.015625)" xlink:href="#DejaVuSans-29"/>
     </g>
    </g>
    <g id="line2d_20">
     <path d="M 341.68625 50.094688 
L 361.68625 50.094688 
" style="fill:none;stroke:#ff0000;stroke-linecap:round;stroke-width:2;"/>
    </g>
    <g id="line2d_21"/>
    <g id="text_19">
     <!-- $\mu_{2|1}$ -->
     <g style="fill:#262626;" transform="translate(369.68625 53.594688)scale(0.1 -0.1)">
      <defs>
       <path d="M -84 -1331 
L 856 3500 
L 1434 3500 
L 1009 1322 
Q 997 1256 987 1175 
Q 978 1094 978 1013 
Q 978 722 1161 565 
Q 1344 409 1684 409 
Q 2147 409 2431 671 
Q 2716 934 2816 1459 
L 3213 3500 
L 3788 3500 
L 3266 809 
Q 3253 750 3248 706 
Q 3244 663 3244 628 
Q 3244 531 3283 486 
Q 3322 441 3406 441 
Q 3438 441 3492 456 
Q 3547 472 3647 513 
L 3559 50 
Q 3422 -19 3297 -55 
Q 3172 -91 3053 -91 
Q 2847 -91 2730 40 
Q 2613 172 2613 403 
Q 2438 153 2195 31 
Q 1953 -91 1625 -91 
Q 1334 -91 1117 43 
Q 900 178 831 397 
L 494 -1331 
L -84 -1331 
z
" id="DejaVuSans-Oblique-3bc" transform="scale(0.015625)"/>
       <path d="M 1344 4891 
L 1344 -1509 
L 813 -1509 
L 813 4891 
L 1344 4891 
z
" id="DejaVuSans-7c" transform="scale(0.015625)"/>
      </defs>
      <use transform="translate(0 0.3125)" xlink:href="#DejaVuSans-Oblique-3bc"/>
      <use transform="translate(63.623047 -16.09375)scale(0.7)" xlink:href="#DejaVuSans-32"/>
      <use transform="translate(108.15918 -16.09375)scale(0.7)" xlink:href="#DejaVuSans-7c"/>
      <use transform="translate(131.743164 -16.09375)scale(0.7)" xlink:href="#DejaVuSans-31"/>
     </g>
    </g>
    <g id="line2d_22"/>
    <g id="line2d_23">
     <g>
      <use style="stroke:#000000;" x="351.68625" xlink:href="#m39a8e13c8f" y="65.994687"/>
     </g>
    </g>
    <g id="text_20">
     <!-- $(x_1, y_1)$ -->
     <g style="fill:#262626;" transform="translate(369.68625 69.494687)scale(0.1 -0.1)">
      <defs>
       <path d="M 750 794 
L 1409 794 
L 1409 256 
L 897 -744 
L 494 -744 
L 750 256 
L 750 794 
z
" id="DejaVuSans-2c" transform="scale(0.015625)"/>
      </defs>
      <use transform="translate(0 0.125)" xlink:href="#DejaVuSans-28"/>
      <use transform="translate(39.013672 0.125)" xlink:href="#DejaVuSans-Oblique-78"/>
      <use transform="translate(98.193359 -16.28125)scale(0.7)" xlink:href="#DejaVuSans-31"/>
      <use transform="translate(145.463867 0.125)" xlink:href="#DejaVuSans-2c"/>
      <use transform="translate(196.733398 0.125)" xlink:href="#DejaVuSans-Oblique-79"/>
      <use transform="translate(255.913086 -16.28125)scale(0.7)" xlink:href="#DejaVuSans-31"/>
      <use transform="translate(303.183594 0.125)" xlink:href="#DejaVuSans-29"/>
     </g>
    </g>
    <g id="patch_8">
     <path d="M 341.68625 84.193125 
L 361.68625 84.193125 
L 361.68625 77.193125 
L 341.68625 77.193125 
z
" style="fill:#ff0000;fill-opacity:0.15;stroke:#ff0000;stroke-linejoin:miter;stroke-opacity:0.15;"/>
    </g>
    <g id="text_21">
     <!-- $2 \sigma_{2|1}$ -->
     <g style="fill:#262626;" transform="translate(369.68625 84.193125)scale(0.1 -0.1)">
      <defs>
       <path d="M 2219 3044 
Q 1744 3044 1422 2700 
Q 1081 2341 969 1747 
Q 844 1119 1044 756 
Q 1241 397 1706 397 
Q 2166 397 2503 759 
Q 2844 1122 2966 1747 
Q 3075 2319 2881 2700 
Q 2700 3044 2219 3044 
z
M 2309 3503 
L 4219 3500 
L 4106 2925 
L 3463 2925 
Q 3706 2438 3575 1747 
Q 3406 888 2884 400 
Q 2359 -91 1609 -91 
Q 856 -91 525 400 
Q 194 888 363 1747 
Q 528 2609 1050 3097 
Q 1484 3503 2309 3503 
z
" id="DejaVuSans-Oblique-3c3" transform="scale(0.015625)"/>
      </defs>
      <use transform="translate(0 0.78125)" xlink:href="#DejaVuSans-32"/>
      <use transform="translate(63.623047 0.78125)" xlink:href="#DejaVuSans-Oblique-3c3"/>
      <use transform="translate(127.001953 -15.625)scale(0.7)" xlink:href="#DejaVuSans-32"/>
      <use transform="translate(171.538086 -15.625)scale(0.7)" xlink:href="#DejaVuSans-7c"/>
      <use transform="translate(195.12207 -15.625)scale(0.7)" xlink:href="#DejaVuSans-31"/>
     </g>
    </g>
   </g>
  </g>
  <g id="axes_2">
   <g id="patch_9">
    <path d="M 45.52375 382.718125 
L 412.98625 382.718125 
L 412.98625 232.918125 
L 45.52375 232.918125 
z
" style="fill:#eaeaf2;"/>
   </g>
   <g id="matplotlib.axis_3">
    <g id="xtick_8">
     <g id="line2d_24">
      <path clip-path="url(#p874c398301)" d="M 45.52375 382.718125 
L 45.52375 232.918125 
" style="fill:none;stroke:#ffffff;stroke-linecap:round;stroke-width:0.8;"/>
     </g>
     <g id="text_22">
      <!-- −6 -->
      <g style="fill:#262626;" transform="translate(38.152656 397.316562)scale(0.1 -0.1)">
       <use xlink:href="#DejaVuSans-2212"/>
       <use x="83.789062" xlink:href="#DejaVuSans-36"/>
      </g>
     </g>
    </g>
    <g id="xtick_9">
     <g id="line2d_25">
      <path clip-path="url(#p874c398301)" d="M 106.7675 382.718125 
L 106.7675 232.918125 
" style="fill:none;stroke:#ffffff;stroke-linecap:round;stroke-width:0.8;"/>
     </g>
     <g id="text_23">
      <!-- −4 -->
      <g style="fill:#262626;" transform="translate(99.396406 397.316562)scale(0.1 -0.1)">
       <use xlink:href="#DejaVuSans-2212"/>
       <use x="83.789062" xlink:href="#DejaVuSans-34"/>
      </g>
     </g>
    </g>
    <g id="xtick_10">
     <g id="line2d_26">
      <path clip-path="url(#p874c398301)" d="M 168.01125 382.718125 
L 168.01125 232.918125 
" style="fill:none;stroke:#ffffff;stroke-linecap:round;stroke-width:0.8;"/>
     </g>
     <g id="text_24">
      <!-- −2 -->
      <g style="fill:#262626;" transform="translate(160.640156 397.316562)scale(0.1 -0.1)">
       <use xlink:href="#DejaVuSans-2212"/>
       <use x="83.789062" xlink:href="#DejaVuSans-32"/>
      </g>
     </g>
    </g>
    <g id="xtick_11">
     <g id="line2d_27">
      <path clip-path="url(#p874c398301)" d="M 229.255 382.718125 
L 229.255 232.918125 
" style="fill:none;stroke:#ffffff;stroke-linecap:round;stroke-width:0.8;"/>
     </g>
     <g id="text_25">
      <!-- 0 -->
      <g style="fill:#262626;" transform="translate(226.07375 397.316562)scale(0.1 -0.1)">
       <use xlink:href="#DejaVuSans-30"/>
      </g>
     </g>
    </g>
    <g id="xtick_12">
     <g id="line2d_28">
      <path clip-path="url(#p874c398301)" d="M 290.49875 382.718125 
L 290.49875 232.918125 
" style="fill:none;stroke:#ffffff;stroke-linecap:round;stroke-width:0.8;"/>
     </g>
     <g id="text_26">
      <!-- 2 -->
      <g style="fill:#262626;" transform="translate(287.3175 397.316562)scale(0.1 -0.1)">
       <use xlink:href="#DejaVuSans-32"/>
      </g>
     </g>
    </g>
    <g id="xtick_13">
     <g id="line2d_29">
      <path clip-path="url(#p874c398301)" d="M 351.7425 382.718125 
L 351.7425 232.918125 
" style="fill:none;stroke:#ffffff;stroke-linecap:round;stroke-width:0.8;"/>
     </g>
     <g id="text_27">
      <!-- 4 -->
      <g style="fill:#262626;" transform="translate(348.56125 397.316562)scale(0.1 -0.1)">
       <use xlink:href="#DejaVuSans-34"/>
      </g>
     </g>
    </g>
    <g id="xtick_14">
     <g id="line2d_30">
      <path clip-path="url(#p874c398301)" d="M 412.98625 382.718125 
L 412.98625 232.918125 
" style="fill:none;stroke:#ffffff;stroke-linecap:round;stroke-width:0.8;"/>
     </g>
     <g id="text_28">
      <!-- 6 -->
      <g style="fill:#262626;" transform="translate(409.805 397.316562)scale(0.1 -0.1)">
       <use xlink:href="#DejaVuSans-36"/>
      </g>
     </g>
    </g>
    <g id="text_29">
     <!-- $x$ -->
     <g style="fill:#262626;" transform="translate(225.355 413.274219)scale(0.13 -0.13)">
      <use transform="translate(0 0.3125)" xlink:href="#DejaVuSans-Oblique-78"/>
     </g>
    </g>
   </g>
   <g id="matplotlib.axis_4">
    <g id="ytick_8">
     <g id="line2d_31">
      <path clip-path="url(#p874c398301)" d="M 45.52375 364.678242 
L 412.98625 364.678242 
" style="fill:none;stroke:#ffffff;stroke-linecap:round;stroke-width:0.8;"/>
     </g>
     <g id="text_30">
      <!-- −2 -->
      <g style="fill:#262626;" transform="translate(23.781562 368.47746)scale(0.1 -0.1)">
       <use xlink:href="#DejaVuSans-2212"/>
       <use x="83.789062" xlink:href="#DejaVuSans-32"/>
      </g>
     </g>
    </g>
    <g id="ytick_9">
     <g id="line2d_32">
      <path clip-path="url(#p874c398301)" d="M 45.52375 333.512105 
L 412.98625 333.512105 
" style="fill:none;stroke:#ffffff;stroke-linecap:round;stroke-width:0.8;"/>
     </g>
     <g id="text_31">
      <!-- −1 -->
      <g style="fill:#262626;" transform="translate(23.781562 337.311324)scale(0.1 -0.1)">
       <use xlink:href="#DejaVuSans-2212"/>
       <use x="83.789062" xlink:href="#DejaVuSans-31"/>
      </g>
     </g>
    </g>
    <g id="ytick_10">
     <g id="line2d_33">
      <path clip-path="url(#p874c398301)" d="M 45.52375 302.345968 
L 412.98625 302.345968 
" style="fill:none;stroke:#ffffff;stroke-linecap:round;stroke-width:0.8;"/>
     </g>
     <g id="text_32">
      <!-- 0 -->
      <g style="fill:#262626;" transform="translate(32.16125 306.145187)scale(0.1 -0.1)">
       <use xlink:href="#DejaVuSans-30"/>
      </g>
     </g>
    </g>
    <g id="ytick_11">
     <g id="line2d_34">
      <path clip-path="url(#p874c398301)" d="M 45.52375 271.179832 
L 412.98625 271.179832 
" style="fill:none;stroke:#ffffff;stroke-linecap:round;stroke-width:0.8;"/>
     </g>
     <g id="text_33">
      <!-- 1 -->
      <g style="fill:#262626;" transform="translate(32.16125 274.97905)scale(0.1 -0.1)">
       <use xlink:href="#DejaVuSans-31"/>
      </g>
     </g>
    </g>
    <g id="ytick_12">
     <g id="line2d_35">
      <path clip-path="url(#p874c398301)" d="M 45.52375 240.013695 
L 412.98625 240.013695 
" style="fill:none;stroke:#ffffff;stroke-linecap:round;stroke-width:0.8;"/>
     </g>
     <g id="text_34">
      <!-- 2 -->
      <g style="fill:#262626;" transform="translate(32.16125 243.812914)scale(0.1 -0.1)">
       <use xlink:href="#DejaVuSans-32"/>
      </g>
     </g>
    </g>
    <g id="text_35">
     <!-- $y$ -->
     <g style="fill:#262626;" transform="translate(17.051562 311.718125)rotate(-90)scale(0.13 -0.13)">
      <use transform="translate(0 0.3125)" xlink:href="#DejaVuSans-Oblique-79"/>
     </g>
    </g>
   </g>
   <g id="line2d_36">
    <path clip-path="url(#p874c398301)" d="M 45.52375 313.133272 
L 50.489459 303.350072 
L 55.455169 295.10569 
L 60.420878 289.248873 
L 65.386588 286.430765 
L 70.352297 286.965805 
L 75.318007 290.731413 
L 80.283716 297.134511 
L 85.249426 305.163499 
L 90.215135 313.531643 
L 95.180845 320.899231 
L 100.146554 326.137635 
L 105.112264 328.574686 
L 110.077973 328.149708 
L 115.043682 325.42055 
L 120.009392 321.406319 
L 124.975101 317.306193 
L 129.940811 314.182883 
L 134.90652 312.714371 
L 139.87223 313.089473 
L 144.837939 315.063139 
L 149.803649 318.124169 
L 154.769358 321.691692 
L 159.735068 325.262429 
L 164.700777 328.470969 
L 169.666486 331.074791 
L 174.632196 332.907628 
L 179.597905 333.84574 
L 184.563615 333.807673 
L 189.529324 332.778133 
L 194.495034 330.82946 
L 199.460743 328.117228 
L 204.426453 324.844095 
L 209.392162 321.205174 
L 214.357872 317.338329 
L 219.323581 313.30007 
L 224.289291 309.076045 
L 229.255 304.62104 
L 234.220709 299.912743 
L 239.186419 294.999003 
L 244.152128 290.020952 
L 249.117838 285.202562 
L 254.083547 280.809307 
L 259.049257 277.090446 
L 264.014966 274.226453 
L 268.980676 272.30155 
L 273.946385 271.310812 
L 278.912095 271.195784 
L 283.877804 271.889644 
L 288.843514 273.348828 
L 293.809223 275.555366 
L 298.774932 278.489073 
L 303.740642 282.083825 
L 308.706351 286.189709 
L 313.672061 290.560074 
L 318.63777 294.871361 
L 323.60348 298.770428 
L 328.569189 301.934802 
L 333.534899 304.128882 
L 338.500608 305.242876 
L 343.466318 305.307547 
L 348.432027 304.483584 
L 353.397736 303.027955 
L 358.363446 301.242067 
L 363.329155 299.409282 
L 368.294865 297.732852 
L 373.260574 296.288019 
L 378.226284 295.00103 
L 383.191993 293.661831 
L 388.157703 291.967785 
L 393.123412 289.587002 
L 398.089122 286.226025 
L 403.054831 281.688338 
L 408.020541 275.915524 
L 412.98625 269.007595 
" style="fill:none;stroke:#1f77b4;stroke-linecap:round;stroke-width:1.5;"/>
   </g>
   <g id="line2d_37">
    <path clip-path="url(#p874c398301)" d="M 45.52375 288.60441 
L 50.489459 290.357099 
L 55.455169 291.898754 
L 60.420878 293.238922 
L 65.386588 294.363462 
L 70.352297 295.194788 
L 75.318007 295.592541 
L 80.283716 295.398666 
L 85.249426 294.510471 
L 90.215135 292.952014 
L 95.180845 290.914553 
L 100.146554 288.749312 
L 105.112264 286.913798 
L 110.077973 285.887573 
L 115.043682 286.079698 
L 120.009392 287.748773 
L 124.975101 290.950788 
L 129.940811 295.523732 
L 134.90652 301.112008 
L 139.87223 307.227282 
L 144.837939 313.33485 
L 149.803649 318.947358 
L 154.769358 323.703851 
L 159.735068 327.414562 
L 164.700777 330.060774 
L 169.666486 331.752308 
L 174.632196 332.657747 
L 179.597905 332.930178 
L 184.563615 332.65171 
L 189.529324 331.812783 
L 194.495034 330.330274 
L 199.460743 328.095187 
L 204.426453 325.031331 
L 209.392162 321.143741 
L 214.357872 316.540778 
L 219.323581 311.424072 
L 224.289291 306.051592 
L 229.255 300.687311 
L 234.220709 295.55358 
L 239.186419 290.800518 
L 244.152128 286.500726 
L 249.117838 282.669575 
L 254.083547 279.30251 
L 259.049257 276.41396 
L 264.014966 274.060963 
L 268.980676 272.34043 
L 273.946385 271.361149 
L 278.912095 271.20449 
L 283.877804 271.894424 
L 288.843514 273.393241 
L 293.809223 275.625268 
L 298.774932 278.514313 
L 303.740642 282.010783 
L 308.706351 286.087855 
L 313.672061 290.701834 
L 318.63777 295.732004 
L 323.60348 300.929374 
L 328.569189 305.904 
L 333.534899 310.166482 
L 338.500608 313.217613 
L 343.466318 314.660121 
L 348.432027 314.296916 
L 353.397736 312.183754 
L 358.363446 308.619012 
L 363.329155 304.072927 
L 368.294865 299.076397 
L 373.260574 294.099481 
L 378.226284 289.450153 
L 383.191993 285.215949 
L 388.157703 281.259269 
L 393.123412 277.265266 
L 398.089122 272.832167 
L 403.054831 267.587182 
L 408.020541 261.306134 
L 412.98625 254.011659 
" style="fill:none;stroke:#ff7f0e;stroke-linecap:round;stroke-width:1.5;"/>
   </g>
   <g id="line2d_38">
    <path clip-path="url(#p874c398301)" d="M 45.52375 261.812366 
L 50.489459 268.44761 
L 55.455169 274.655887 
L 60.420878 280.065334 
L 65.386588 284.487013 
L 70.352297 287.905694 
L 75.318007 290.432546 
L 80.283716 292.235827 
L 85.249426 293.47465 
L 90.215135 294.26044 
L 95.180845 294.659691 
L 100.146554 294.733961 
L 105.112264 294.595632 
L 110.077973 294.44917 
L 115.043682 294.592145 
L 120.009392 295.36688 
L 124.975101 297.0755 
L 129.940811 299.888053 
L 134.90652 303.777864 
L 139.87223 308.508602 
L 144.837939 313.678548 
L 149.803649 318.807701 
L 154.769358 323.440558 
L 159.735068 327.234965 
L 164.700777 330.014299 
L 169.666486 331.772523 
L 174.632196 332.634707 
L 179.597905 332.786434 
L 184.563615 332.392632 
L 189.529324 331.528995 
L 194.495034 330.146945 
L 199.460743 328.085383 
L 204.426453 325.130062 
L 209.392162 321.105919 
L 214.357872 315.974015 
L 219.323581 309.89816 
L 224.289291 303.251924 
L 229.255 296.555145 
L 234.220709 290.355104 
L 239.186419 285.090902 
L 244.152128 280.989367 
L 249.117838 278.030499 
L 254.083547 275.993934 
L 259.049257 274.566083 
L 264.014966 273.465739 
L 268.980676 272.542901 
L 273.946385 271.821038 
L 278.912095 271.476781 
L 283.877804 271.771108 
L 288.843514 272.955369 
L 293.809223 275.174689 
L 298.774932 278.387875 
L 303.740642 282.32144 
L 308.706351 286.476081 
L 313.672061 290.199736 
L 318.63777 292.826823 
L 323.60348 293.858296 
L 328.569189 293.131723 
L 333.534899 290.919095 
L 338.500608 287.903532 
L 343.466318 285.024218 
L 348.432027 283.228236 
L 353.397736 283.206967 
L 358.363446 285.205698 
L 363.329155 288.970834 
L 368.294865 293.849852 
L 373.260574 299.004571 
L 378.226284 303.660257 
L 383.191993 307.305615 
L 388.157703 309.782257 
L 393.123412 311.24602 
L 398.089122 312.028819 
L 403.054831 312.462077 
L 408.020541 312.730876 
L 412.98625 312.810957 
" style="fill:none;stroke:#2ca02c;stroke-linecap:round;stroke-width:1.5;"/>
   </g>
   <g id="line2d_39">
    <path clip-path="url(#p874c398301)" d="M 45.52375 374.592099 
L 50.489459 375.909034 
L 55.455169 374.631996 
L 60.420878 370.822983 
L 65.386588 364.855416 
L 70.352297 357.354283 
L 75.318007 349.086673 
L 80.283716 340.82997 
L 85.249426 333.246644 
L 90.215135 326.79041 
L 95.180845 321.661732 
L 100.146554 317.821265 
L 105.112264 315.057231 
L 110.077973 313.088201 
L 115.043682 311.670959 
L 120.009392 310.679894 
L 124.975101 310.133237 
L 129.940811 310.160363 
L 134.90652 310.925769 
L 139.87223 312.540387 
L 144.837939 314.993102 
L 149.803649 318.124988 
L 154.769358 321.650823 
L 159.735068 325.215341 
L 164.700777 328.461828 
L 169.666486 331.090569 
L 174.632196 332.892816 
L 179.597905 333.75732 
L 184.563615 333.656615 
L 189.529324 332.625212 
L 194.495034 330.740735 
L 199.460743 328.113098 
L 204.426453 324.879067 
L 209.392162 321.194404 
L 214.357872 317.216527 
L 219.323581 313.07739 
L 224.289291 308.855865 
L 229.255 304.565018 
L 234.220709 300.167295 
L 239.186419 295.61903 
L 244.152128 290.929826 
L 249.117838 286.210923 
L 254.083547 281.686923 
L 259.049257 277.659203 
L 264.014966 274.431308 
L 268.980676 272.225877 
L 273.946385 271.128614 
L 278.912095 271.083732 
L 283.877804 271.941473 
L 288.843514 273.534248 
L 293.809223 275.745654 
L 298.774932 278.541977 
L 303.740642 281.95541 
L 308.706351 286.030988 
L 313.672061 290.764181 
L 318.63777 296.056962 
L 323.60348 301.708766 
L 328.569189 307.441846 
L 333.534899 312.946327 
L 338.500608 317.923964 
L 343.466318 322.112934 
L 348.432027 325.286762 
L 353.397736 327.234458 
L 358.363446 327.74067 
L 363.329155 326.588455 
L 368.294865 323.600228 
L 373.260574 318.715187 
L 378.226284 312.079775 
L 383.191993 304.112098 
L 388.157703 295.50027 
L 393.123412 287.113078 
L 398.089122 279.833868 
L 403.054831 274.362297 
L 408.020541 271.047977 
L 412.98625 269.814499 
" style="fill:none;stroke:#d62728;stroke-linecap:round;stroke-width:1.5;"/>
   </g>
   <g id="line2d_40">
    <path clip-path="url(#p874c398301)" d="M 45.52375 295.556119 
L 50.489459 284.970873 
L 55.455169 275.833486 
L 60.420878 268.04203 
L 65.386588 261.428115 
L 70.352297 255.794499 
L 75.318007 250.964442 
L 80.283716 246.838295 
L 85.249426 243.444231 
L 90.215135 240.965355 
L 95.180845 239.727216 
L 100.146554 240.137962 
L 105.112264 242.586853 
L 110.077973 247.321985 
L 115.043682 254.340257 
L 120.009392 263.326384 
L 124.975101 273.668627 
L 129.940811 284.556824 
L 134.90652 295.139467 
L 139.87223 304.692953 
L 144.837939 312.749119 
L 149.803649 319.142144 
L 154.769358 323.967344 
L 159.735068 327.477691 
L 164.700777 329.963793 
L 169.666486 331.660819 
L 174.632196 332.70543 
L 179.597905 333.139974 
L 184.563615 332.943579 
L 189.529324 332.067742 
L 194.495034 330.4637 
L 199.460743 328.101029 
L 204.426453 324.982717 
L 209.392162 321.159297 
L 214.357872 316.738027 
L 219.323581 311.879774 
L 224.289291 306.779634 
L 229.255 301.635722 
L 234.220709 296.617925 
L 239.186419 291.849657 
L 244.152128 287.409792 
L 249.117838 283.351968 
L 254.083547 279.730522 
L 259.049257 276.619605 
L 264.014966 274.116178 
L 268.980676 272.325447 
L 273.946385 271.335676 
L 278.912095 271.194286 
L 283.877804 271.896984 
L 288.843514 273.395711 
L 293.809223 275.621831 
L 298.774932 278.511915 
L 303.740642 282.019617 
L 308.706351 286.101888 
L 313.672061 290.680645 
L 318.63777 295.596519 
L 323.60348 300.580891 
L 328.569189 305.269545 
L 333.534899 309.264681 
L 338.500608 312.22902 
L 343.466318 313.977418 
L 348.432027 314.528881 
L 353.397736 314.097599 
L 358.363446 313.029112 
L 363.329155 311.712468 
L 368.294865 310.508025 
L 373.260574 309.718181 
L 378.226284 309.601578 
L 383.191993 310.405631 
L 388.157703 312.381577 
L 393.123412 315.75584 
L 398.089122 320.654867 
L 403.054831 327.004334 
L 408.020541 334.437839 
L 412.98625 342.250599 
" style="fill:none;stroke:#9467bd;stroke-linecap:round;stroke-width:1.5;"/>
   </g>
   <g id="patch_10">
    <path d="M 45.52375 382.718125 
L 45.52375 232.918125 
" style="fill:none;stroke:#ffffff;stroke-linecap:square;stroke-linejoin:miter;stroke-width:0.8;"/>
   </g>
   <g id="patch_11">
    <path d="M 412.98625 382.718125 
L 412.98625 232.918125 
" style="fill:none;stroke:#ffffff;stroke-linecap:square;stroke-linejoin:miter;stroke-width:0.8;"/>
   </g>
   <g id="patch_12">
    <path d="M 45.52375 382.718125 
L 412.98625 382.718125 
" style="fill:none;stroke:#ffffff;stroke-linecap:square;stroke-linejoin:miter;stroke-width:0.8;"/>
   </g>
   <g id="patch_13">
    <path d="M 45.52375 232.918125 
L 412.98625 232.918125 
" style="fill:none;stroke:#ffffff;stroke-linecap:square;stroke-linejoin:miter;stroke-width:0.8;"/>
   </g>
   <g id="text_36">
    <!-- 5 different function realizations from posterior -->
    <g style="fill:#262626;" transform="translate(90.464688 226.918125)scale(0.12 -0.12)">
     <defs>
      <path d="M 691 4666 
L 3169 4666 
L 3169 4134 
L 1269 4134 
L 1269 2991 
Q 1406 3038 1543 3061 
Q 1681 3084 1819 3084 
Q 2600 3084 3056 2656 
Q 3513 2228 3513 1497 
Q 3513 744 3044 326 
Q 2575 -91 1722 -91 
Q 1428 -91 1123 -41 
Q 819 9 494 109 
L 494 744 
Q 775 591 1075 516 
Q 1375 441 1709 441 
Q 2250 441 2565 725 
Q 2881 1009 2881 1497 
Q 2881 1984 2565 2268 
Q 2250 2553 1709 2553 
Q 1456 2553 1204 2497 
Q 953 2441 691 2322 
L 691 4666 
z
" id="DejaVuSans-35" transform="scale(0.015625)"/>
      <path d="M 3122 3366 
L 3122 2828 
Q 2878 2963 2633 3030 
Q 2388 3097 2138 3097 
Q 1578 3097 1268 2742 
Q 959 2388 959 1747 
Q 959 1106 1268 751 
Q 1578 397 2138 397 
Q 2388 397 2633 464 
Q 2878 531 3122 666 
L 3122 134 
Q 2881 22 2623 -34 
Q 2366 -91 2075 -91 
Q 1284 -91 818 406 
Q 353 903 353 1747 
Q 353 2603 823 3093 
Q 1294 3584 2113 3584 
Q 2378 3584 2631 3529 
Q 2884 3475 3122 3366 
z
" id="DejaVuSans-63" transform="scale(0.015625)"/>
      <path d="M 603 4863 
L 1178 4863 
L 1178 0 
L 603 0 
L 603 4863 
z
" id="DejaVuSans-6c" transform="scale(0.015625)"/>
      <path d="M 353 3500 
L 3084 3500 
L 3084 2975 
L 922 459 
L 3084 459 
L 3084 0 
L 275 0 
L 275 525 
L 2438 3041 
L 353 3041 
L 353 3500 
z
" id="DejaVuSans-7a" transform="scale(0.015625)"/>
      <path d="M 3328 2828 
Q 3544 3216 3844 3400 
Q 4144 3584 4550 3584 
Q 5097 3584 5394 3201 
Q 5691 2819 5691 2113 
L 5691 0 
L 5113 0 
L 5113 2094 
Q 5113 2597 4934 2840 
Q 4756 3084 4391 3084 
Q 3944 3084 3684 2787 
Q 3425 2491 3425 1978 
L 3425 0 
L 2847 0 
L 2847 2094 
Q 2847 2600 2669 2842 
Q 2491 3084 2119 3084 
Q 1678 3084 1418 2786 
Q 1159 2488 1159 1978 
L 1159 0 
L 581 0 
L 581 3500 
L 1159 3500 
L 1159 2956 
Q 1356 3278 1631 3431 
Q 1906 3584 2284 3584 
Q 2666 3584 2933 3390 
Q 3200 3197 3328 2828 
z
" id="DejaVuSans-6d" transform="scale(0.015625)"/>
     </defs>
     <use xlink:href="#DejaVuSans-35"/>
     <use x="63.623047" xlink:href="#DejaVuSans-20"/>
     <use x="95.410156" xlink:href="#DejaVuSans-64"/>
     <use x="158.886719" xlink:href="#DejaVuSans-69"/>
     <use x="186.669922" xlink:href="#DejaVuSans-66"/>
     <use x="221.875" xlink:href="#DejaVuSans-66"/>
     <use x="257.080078" xlink:href="#DejaVuSans-65"/>
     <use x="318.603516" xlink:href="#DejaVuSans-72"/>
     <use x="357.466797" xlink:href="#DejaVuSans-65"/>
     <use x="418.990234" xlink:href="#DejaVuSans-6e"/>
     <use x="482.369141" xlink:href="#DejaVuSans-74"/>
     <use x="521.578125" xlink:href="#DejaVuSans-20"/>
     <use x="553.365234" xlink:href="#DejaVuSans-66"/>
     <use x="588.570312" xlink:href="#DejaVuSans-75"/>
     <use x="651.949219" xlink:href="#DejaVuSans-6e"/>
     <use x="715.328125" xlink:href="#DejaVuSans-63"/>
     <use x="770.308594" xlink:href="#DejaVuSans-74"/>
     <use x="809.517578" xlink:href="#DejaVuSans-69"/>
     <use x="837.300781" xlink:href="#DejaVuSans-6f"/>
     <use x="898.482422" xlink:href="#DejaVuSans-6e"/>
     <use x="961.861328" xlink:href="#DejaVuSans-20"/>
     <use x="993.648438" xlink:href="#DejaVuSans-72"/>
     <use x="1032.511719" xlink:href="#DejaVuSans-65"/>
     <use x="1094.035156" xlink:href="#DejaVuSans-61"/>
     <use x="1155.314453" xlink:href="#DejaVuSans-6c"/>
     <use x="1183.097656" xlink:href="#DejaVuSans-69"/>
     <use x="1210.880859" xlink:href="#DejaVuSans-7a"/>
     <use x="1263.371094" xlink:href="#DejaVuSans-61"/>
     <use x="1324.650391" xlink:href="#DejaVuSans-74"/>
     <use x="1363.859375" xlink:href="#DejaVuSans-69"/>
     <use x="1391.642578" xlink:href="#DejaVuSans-6f"/>
     <use x="1452.824219" xlink:href="#DejaVuSans-6e"/>
     <use x="1516.203125" xlink:href="#DejaVuSans-73"/>
     <use x="1568.302734" xlink:href="#DejaVuSans-20"/>
     <use x="1600.089844" xlink:href="#DejaVuSans-66"/>
     <use x="1635.294922" xlink:href="#DejaVuSans-72"/>
     <use x="1674.158203" xlink:href="#DejaVuSans-6f"/>
     <use x="1735.339844" xlink:href="#DejaVuSans-6d"/>
     <use x="1832.751953" xlink:href="#DejaVuSans-20"/>
     <use x="1864.539062" xlink:href="#DejaVuSans-70"/>
     <use x="1928.015625" xlink:href="#DejaVuSans-6f"/>
     <use x="1989.197266" xlink:href="#DejaVuSans-73"/>
     <use x="2041.296875" xlink:href="#DejaVuSans-74"/>
     <use x="2080.505859" xlink:href="#DejaVuSans-65"/>
     <use x="2142.029297" xlink:href="#DejaVuSans-72"/>
     <use x="2183.142578" xlink:href="#DejaVuSans-69"/>
     <use x="2210.925781" xlink:href="#DejaVuSans-6f"/>
     <use x="2272.107422" xlink:href="#DejaVuSans-72"/>
    </g>
   </g>
  </g>
 </g>
 <defs>
  <clipPath id="p56025f3df2">
   <rect height="149.8" width="367.4625" x="45.52375" y="22.318125"/>
  </clipPath>
  <clipPath id="p874c398301">
   <rect height="149.8" width="367.4625" x="45.52375" y="232.918125"/>
  </clipPath>
 </defs>
</svg>
