<?xml version="1.0" encoding="utf-8" standalone="no"?>
<!DOCTYPE svg PUBLIC "-//W3C//DTD SVG 1.1//EN"
  "http://www.w3.org/Graphics/SVG/1.1/DTD/svg11.dtd">
<svg height="423.177812pt" version="1.1" viewBox="0 0 423.3675 423.177812" width="423.3675pt" xmlns="http://www.w3.org/2000/svg" xmlns:xlink="http://www.w3.org/1999/xlink">
 <metadata>
  <rdf:RDF xmlns:cc="http://creativecommons.org/ns#" xmlns:dc="http://purl.org/dc/elements/1.1/" xmlns:rdf="http://www.w3.org/1999/02/22-rdf-syntax-ns#">
   <cc:Work>
    <dc:type rdf:resource="http://purl.org/dc/dcmitype/StillImage"/>
    <dc:date>2021-08-31T21:48:29.979768</dc:date>
    <dc:format>image/svg+xml</dc:format>
    <dc:creator>
     <cc:Agent>
      <dc:title>Matplotlib v3.4.3, https://matplotlib.org/</dc:title>
     </cc:Agent>
    </dc:creator>
   </cc:Work>
  </rdf:RDF>
 </metadata>
 <defs>
  <style type="text/css">*{stroke-linecap:butt;stroke-linejoin:round;}</style>
 </defs>
 <g id="figure_1">
  <g id="patch_1">
   <path d="M 0 423.177812 
L 423.3675 423.177812 
L 423.3675 0 
L 0 0 
z
" style="fill:#ffffff;"/>
  </g>
  <g id="axes_1">
   <g id="patch_2">
    <path d="M 45.52375 172.118125 
L 412.98625 172.118125 
L 412.98625 22.318125 
L 45.52375 22.318125 
z
" style="fill:#eaeaf2;"/>
   </g>
   <g id="matplotlib.axis_1">
    <g id="xtick_1">
     <g id="line2d_1">
      <path clip-path="url(#p4f827bbe3c)" d="M 45.52375 172.118125 
L 45.52375 22.318125 
" style="fill:none;stroke:#ffffff;stroke-linecap:round;stroke-width:0.8;"/>
     </g>
     <g id="text_1">
      <!-- −6 -->
      <g style="fill:#262626;" transform="translate(38.152656 186.716562)scale(0.1 -0.1)">
       <defs>
        <path d="M 678 2272 
L 4684 2272 
L 4684 1741 
L 678 1741 
L 678 2272 
z
" id="DejaVuSans-2212" transform="scale(0.015625)"/>
        <path d="M 2113 2584 
Q 1688 2584 1439 2293 
Q 1191 2003 1191 1497 
Q 1191 994 1439 701 
Q 1688 409 2113 409 
Q 2538 409 2786 701 
Q 3034 994 3034 1497 
Q 3034 2003 2786 2293 
Q 2538 2584 2113 2584 
z
M 3366 4563 
L 3366 3988 
Q 3128 4100 2886 4159 
Q 2644 4219 2406 4219 
Q 1781 4219 1451 3797 
Q 1122 3375 1075 2522 
Q 1259 2794 1537 2939 
Q 1816 3084 2150 3084 
Q 2853 3084 3261 2657 
Q 3669 2231 3669 1497 
Q 3669 778 3244 343 
Q 2819 -91 2113 -91 
Q 1303 -91 875 529 
Q 447 1150 447 2328 
Q 447 3434 972 4092 
Q 1497 4750 2381 4750 
Q 2619 4750 2861 4703 
Q 3103 4656 3366 4563 
z
" id="DejaVuSans-36" transform="scale(0.015625)"/>
       </defs>
       <use xlink:href="#DejaVuSans-2212"/>
       <use x="83.789062" xlink:href="#DejaVuSans-36"/>
      </g>
     </g>
    </g>
    <g id="xtick_2">
     <g id="line2d_2">
      <path clip-path="url(#p4f827bbe3c)" d="M 106.7675 172.118125 
L 106.7675 22.318125 
" style="fill:none;stroke:#ffffff;stroke-linecap:round;stroke-width:0.8;"/>
     </g>
     <g id="text_2">
      <!-- −4 -->
      <g style="fill:#262626;" transform="translate(99.396406 186.716562)scale(0.1 -0.1)">
       <defs>
        <path d="M 2419 4116 
L 825 1625 
L 2419 1625 
L 2419 4116 
z
M 2253 4666 
L 3047 4666 
L 3047 1625 
L 3713 1625 
L 3713 1100 
L 3047 1100 
L 3047 0 
L 2419 0 
L 2419 1100 
L 313 1100 
L 313 1709 
L 2253 4666 
z
" id="DejaVuSans-34" transform="scale(0.015625)"/>
       </defs>
       <use xlink:href="#DejaVuSans-2212"/>
       <use x="83.789062" xlink:href="#DejaVuSans-34"/>
      </g>
     </g>
    </g>
    <g id="xtick_3">
     <g id="line2d_3">
      <path clip-path="url(#p4f827bbe3c)" d="M 168.01125 172.118125 
L 168.01125 22.318125 
" style="fill:none;stroke:#ffffff;stroke-linecap:round;stroke-width:0.8;"/>
     </g>
     <g id="text_3">
      <!-- −2 -->
      <g style="fill:#262626;" transform="translate(160.640156 186.716562)scale(0.1 -0.1)">
       <defs>
        <path d="M 1228 531 
L 3431 531 
L 3431 0 
L 469 0 
L 469 531 
Q 828 903 1448 1529 
Q 2069 2156 2228 2338 
Q 2531 2678 2651 2914 
Q 2772 3150 2772 3378 
Q 2772 3750 2511 3984 
Q 2250 4219 1831 4219 
Q 1534 4219 1204 4116 
Q 875 4013 500 3803 
L 500 4441 
Q 881 4594 1212 4672 
Q 1544 4750 1819 4750 
Q 2544 4750 2975 4387 
Q 3406 4025 3406 3419 
Q 3406 3131 3298 2873 
Q 3191 2616 2906 2266 
Q 2828 2175 2409 1742 
Q 1991 1309 1228 531 
z
" id="DejaVuSans-32" transform="scale(0.015625)"/>
       </defs>
       <use xlink:href="#DejaVuSans-2212"/>
       <use x="83.789062" xlink:href="#DejaVuSans-32"/>
      </g>
     </g>
    </g>
    <g id="xtick_4">
     <g id="line2d_4">
      <path clip-path="url(#p4f827bbe3c)" d="M 229.255 172.118125 
L 229.255 22.318125 
" style="fill:none;stroke:#ffffff;stroke-linecap:round;stroke-width:0.8;"/>
     </g>
     <g id="text_4">
      <!-- 0 -->
      <g style="fill:#262626;" transform="translate(226.07375 186.716562)scale(0.1 -0.1)">
       <defs>
        <path d="M 2034 4250 
Q 1547 4250 1301 3770 
Q 1056 3291 1056 2328 
Q 1056 1369 1301 889 
Q 1547 409 2034 409 
Q 2525 409 2770 889 
Q 3016 1369 3016 2328 
Q 3016 3291 2770 3770 
Q 2525 4250 2034 4250 
z
M 2034 4750 
Q 2819 4750 3233 4129 
Q 3647 3509 3647 2328 
Q 3647 1150 3233 529 
Q 2819 -91 2034 -91 
Q 1250 -91 836 529 
Q 422 1150 422 2328 
Q 422 3509 836 4129 
Q 1250 4750 2034 4750 
z
" id="DejaVuSans-30" transform="scale(0.015625)"/>
       </defs>
       <use xlink:href="#DejaVuSans-30"/>
      </g>
     </g>
    </g>
    <g id="xtick_5">
     <g id="line2d_5">
      <path clip-path="url(#p4f827bbe3c)" d="M 290.49875 172.118125 
L 290.49875 22.318125 
" style="fill:none;stroke:#ffffff;stroke-linecap:round;stroke-width:0.8;"/>
     </g>
     <g id="text_5">
      <!-- 2 -->
      <g style="fill:#262626;" transform="translate(287.3175 186.716562)scale(0.1 -0.1)">
       <use xlink:href="#DejaVuSans-32"/>
      </g>
     </g>
    </g>
    <g id="xtick_6">
     <g id="line2d_6">
      <path clip-path="url(#p4f827bbe3c)" d="M 351.7425 172.118125 
L 351.7425 22.318125 
" style="fill:none;stroke:#ffffff;stroke-linecap:round;stroke-width:0.8;"/>
     </g>
     <g id="text_6">
      <!-- 4 -->
      <g style="fill:#262626;" transform="translate(348.56125 186.716562)scale(0.1 -0.1)">
       <use xlink:href="#DejaVuSans-34"/>
      </g>
     </g>
    </g>
    <g id="xtick_7">
     <g id="line2d_7">
      <path clip-path="url(#p4f827bbe3c)" d="M 412.98625 172.118125 
L 412.98625 22.318125 
" style="fill:none;stroke:#ffffff;stroke-linecap:round;stroke-width:0.8;"/>
     </g>
     <g id="text_7">
      <!-- 6 -->
      <g style="fill:#262626;" transform="translate(409.805 186.716562)scale(0.1 -0.1)">
       <use xlink:href="#DejaVuSans-36"/>
      </g>
     </g>
    </g>
    <g id="text_8">
     <!-- $x$ -->
     <g style="fill:#262626;" transform="translate(225.355 202.674219)scale(0.13 -0.13)">
      <defs>
       <path d="M 3841 3500 
L 2234 1784 
L 3219 0 
L 2559 0 
L 1819 1388 
L 531 0 
L -166 0 
L 1556 1844 
L 641 3500 
L 1300 3500 
L 1972 2234 
L 3144 3500 
L 3841 3500 
z
" id="DejaVuSans-Oblique-78" transform="scale(0.015625)"/>
      </defs>
      <use transform="translate(0 0.3125)" xlink:href="#DejaVuSans-Oblique-78"/>
     </g>
    </g>
   </g>
   <g id="matplotlib.axis_2">
    <g id="ytick_1">
     <g id="line2d_8">
      <path clip-path="url(#p4f827bbe3c)" d="M 45.52375 172.118125 
L 412.98625 172.118125 
" style="fill:none;stroke:#ffffff;stroke-linecap:round;stroke-width:0.8;"/>
     </g>
     <g id="text_9">
      <!-- −3 -->
      <g style="fill:#262626;" transform="translate(23.781562 175.917344)scale(0.1 -0.1)">
       <defs>
        <path d="M 2597 2516 
Q 3050 2419 3304 2112 
Q 3559 1806 3559 1356 
Q 3559 666 3084 287 
Q 2609 -91 1734 -91 
Q 1441 -91 1130 -33 
Q 819 25 488 141 
L 488 750 
Q 750 597 1062 519 
Q 1375 441 1716 441 
Q 2309 441 2620 675 
Q 2931 909 2931 1356 
Q 2931 1769 2642 2001 
Q 2353 2234 1838 2234 
L 1294 2234 
L 1294 2753 
L 1863 2753 
Q 2328 2753 2575 2939 
Q 2822 3125 2822 3475 
Q 2822 3834 2567 4026 
Q 2313 4219 1838 4219 
Q 1578 4219 1281 4162 
Q 984 4106 628 3988 
L 628 4550 
Q 988 4650 1302 4700 
Q 1616 4750 1894 4750 
Q 2613 4750 3031 4423 
Q 3450 4097 3450 3541 
Q 3450 3153 3228 2886 
Q 3006 2619 2597 2516 
z
" id="DejaVuSans-33" transform="scale(0.015625)"/>
       </defs>
       <use xlink:href="#DejaVuSans-2212"/>
       <use x="83.789062" xlink:href="#DejaVuSans-33"/>
      </g>
     </g>
    </g>
    <g id="ytick_2">
     <g id="line2d_9">
      <path clip-path="url(#p4f827bbe3c)" d="M 45.52375 147.151458 
L 412.98625 147.151458 
" style="fill:none;stroke:#ffffff;stroke-linecap:round;stroke-width:0.8;"/>
     </g>
     <g id="text_10">
      <!-- −2 -->
      <g style="fill:#262626;" transform="translate(23.781562 150.950677)scale(0.1 -0.1)">
       <use xlink:href="#DejaVuSans-2212"/>
       <use x="83.789062" xlink:href="#DejaVuSans-32"/>
      </g>
     </g>
    </g>
    <g id="ytick_3">
     <g id="line2d_10">
      <path clip-path="url(#p4f827bbe3c)" d="M 45.52375 122.184792 
L 412.98625 122.184792 
" style="fill:none;stroke:#ffffff;stroke-linecap:round;stroke-width:0.8;"/>
     </g>
     <g id="text_11">
      <!-- −1 -->
      <g style="fill:#262626;" transform="translate(23.781562 125.98401)scale(0.1 -0.1)">
       <defs>
        <path d="M 794 531 
L 1825 531 
L 1825 4091 
L 703 3866 
L 703 4441 
L 1819 4666 
L 2450 4666 
L 2450 531 
L 3481 531 
L 3481 0 
L 794 0 
L 794 531 
z
" id="DejaVuSans-31" transform="scale(0.015625)"/>
       </defs>
       <use xlink:href="#DejaVuSans-2212"/>
       <use x="83.789062" xlink:href="#DejaVuSans-31"/>
      </g>
     </g>
    </g>
    <g id="ytick_4">
     <g id="line2d_11">
      <path clip-path="url(#p4f827bbe3c)" d="M 45.52375 97.218125 
L 412.98625 97.218125 
" style="fill:none;stroke:#ffffff;stroke-linecap:round;stroke-width:0.8;"/>
     </g>
     <g id="text_12">
      <!-- 0 -->
      <g style="fill:#262626;" transform="translate(32.16125 101.017344)scale(0.1 -0.1)">
       <use xlink:href="#DejaVuSans-30"/>
      </g>
     </g>
    </g>
    <g id="ytick_5">
     <g id="line2d_12">
      <path clip-path="url(#p4f827bbe3c)" d="M 45.52375 72.251458 
L 412.98625 72.251458 
" style="fill:none;stroke:#ffffff;stroke-linecap:round;stroke-width:0.8;"/>
     </g>
     <g id="text_13">
      <!-- 1 -->
      <g style="fill:#262626;" transform="translate(32.16125 76.050677)scale(0.1 -0.1)">
       <use xlink:href="#DejaVuSans-31"/>
      </g>
     </g>
    </g>
    <g id="ytick_6">
     <g id="line2d_13">
      <path clip-path="url(#p4f827bbe3c)" d="M 45.52375 47.284792 
L 412.98625 47.284792 
" style="fill:none;stroke:#ffffff;stroke-linecap:round;stroke-width:0.8;"/>
     </g>
     <g id="text_14">
      <!-- 2 -->
      <g style="fill:#262626;" transform="translate(32.16125 51.08401)scale(0.1 -0.1)">
       <use xlink:href="#DejaVuSans-32"/>
      </g>
     </g>
    </g>
    <g id="ytick_7">
     <g id="line2d_14">
      <path clip-path="url(#p4f827bbe3c)" d="M 45.52375 22.318125 
L 412.98625 22.318125 
" style="fill:none;stroke:#ffffff;stroke-linecap:round;stroke-width:0.8;"/>
     </g>
     <g id="text_15">
      <!-- 3 -->
      <g style="fill:#262626;" transform="translate(32.16125 26.117344)scale(0.1 -0.1)">
       <use xlink:href="#DejaVuSans-33"/>
      </g>
     </g>
    </g>
    <g id="text_16">
     <!-- $y$ -->
     <g style="fill:#262626;" transform="translate(17.051562 101.118125)rotate(-90)scale(0.13 -0.13)">
      <defs>
       <path d="M 1588 -325 
Q 1188 -997 936 -1164 
Q 684 -1331 294 -1331 
L -159 -1331 
L -63 -850 
L 269 -850 
Q 509 -850 678 -719 
Q 847 -588 1056 -206 
L 1234 128 
L 459 3500 
L 1069 3500 
L 1650 819 
L 3256 3500 
L 3859 3500 
L 1588 -325 
z
" id="DejaVuSans-Oblique-79" transform="scale(0.015625)"/>
      </defs>
      <use transform="translate(0 0.3125)" xlink:href="#DejaVuSans-Oblique-79"/>
     </g>
    </g>
   </g>
   <g id="PolyCollection_1">
    <defs>
     <path d="M 45.52375 -377.579344 
L 45.52375 -278.235219 
L 50.489459 -279.253941 
L 55.455169 -280.665688 
L 60.420878 -282.58442 
L 65.386588 -285.134998 
L 70.352297 -288.440669 
L 75.318007 -292.604623 
L 80.283716 -297.687567 
L 85.249426 -303.684925 
L 90.215135 -310.508159 
L 95.180845 -317.97456 
L 100.146554 -325.808671 
L 105.112264 -333.656509 
L 110.077973 -341.111443 
L 115.043682 -335.051038 
L 120.009392 -325.717792 
L 124.975101 -316.463934 
L 129.940811 -307.707112 
L 134.90652 -299.85416 
L 139.87223 -293.277259 
L 144.837939 -288.293229 
L 149.803649 -285.145375 
L 154.769358 -283.987442 
L 159.735068 -284.870106 
L 164.700777 -287.731627 
L 169.666486 -292.395034 
L 174.632196 -298.574065 
L 179.597905 -296.343038 
L 184.563615 -289.295485 
L 189.529324 -283.739855 
L 194.495034 -279.940335 
L 199.460743 -278.073372 
L 204.426453 -278.225472 
L 209.392162 -280.391959 
L 214.357872 -284.473442 
L 219.323581 -290.269394 
L 224.289291 -297.472185 
L 229.255 -305.668443 
L 234.220709 -314.355714 
L 239.186419 -322.97983 
L 244.152128 -330.992348 
L 249.117838 -337.919754 
L 254.083547 -343.429422 
L 259.049257 -345.615803 
L 264.014966 -347.070003 
L 268.980676 -348.823822 
L 273.946385 -350.408557 
L 278.912095 -350.509041 
L 283.877804 -349.524584 
L 288.843514 -348.230816 
L 293.809223 -346.625019 
L 298.774932 -344.615121 
L 303.740642 -342.087302 
L 308.706351 -338.902911 
L 313.672061 -335.32572 
L 318.63777 -331.279239 
L 323.60348 -327.067133 
L 328.569189 -322.932277 
L 333.534899 -319.059791 
L 338.500608 -315.522632 
L 343.466318 -311.892733 
L 348.432027 -308.676237 
L 353.397736 -305.892125 
L 358.363446 -302.391335 
L 363.329155 -298.529934 
L 368.294865 -294.341705 
L 373.260574 -289.982721 
L 378.226284 -285.695629 
L 383.191993 -281.753092 
L 388.157703 -278.397549 
L 393.123412 -275.793262 
L 398.089122 -274.001075 
L 403.054831 -272.978787 
L 408.020541 -272.603045 
L 412.98625 -272.703968 
L 412.98625 -367.011773 
L 412.98625 -367.011773 
L 408.020541 -363.322137 
L 403.054831 -358.592288 
L 398.089122 -352.796101 
L 393.123412 -346.037249 
L 388.157703 -338.575198 
L 383.191993 -330.824268 
L 378.226284 -323.318451 
L 373.260574 -316.642709 
L 368.294865 -311.341166 
L 363.329155 -307.821294 
L 358.363446 -306.277694 
L 353.397736 -306.656993 
L 348.432027 -309.122935 
L 343.466318 -312.264093 
L 338.500608 -315.807871 
L 333.534899 -319.976213 
L 328.569189 -324.088465 
L 323.60348 -328.004577 
L 318.63777 -331.729211 
L 313.672061 -335.341029 
L 308.706351 -338.978244 
L 303.740642 -342.386609 
L 298.774932 -345.639955 
L 293.809223 -348.40942 
L 288.843514 -350.410934 
L 283.877804 -351.424705 
L 278.912095 -351.381228 
L 273.946385 -351.059487 
L 268.980676 -350.930077 
L 264.014966 -349.804242 
L 259.049257 -347.374675 
L 254.083547 -344.846715 
L 249.117838 -344.976288 
L 244.152128 -345.998903 
L 239.186419 -347.692353 
L 234.220709 -349.664886 
L 229.255 -351.431179 
L 224.289291 -352.497437 
L 219.323581 -352.437557 
L 214.357872 -350.948341 
L 209.392162 -347.87944 
L 204.426453 -343.24015 
L 199.460743 -337.188902 
L 194.495034 -330.011732 
L 189.529324 -322.094439 
L 184.563615 -313.890924 
L 179.597905 -305.888888 
L 174.632196 -304.537462 
L 169.666486 -313.466721 
L 164.700777 -322.672771 
L 159.735068 -331.677671 
L 154.769358 -340.011878 
L 149.803649 -347.241874 
L 144.837939 -352.995152 
L 139.87223 -356.981573 
L 134.90652 -359.010626 
L 129.940811 -359.003943 
L 124.975101 -357.001809 
L 120.009392 -353.161883 
L 115.043682 -347.748437 
L 110.077973 -344.061884 
L 105.112264 -352.392243 
L 100.146554 -359.753694 
L 95.180845 -365.947807 
L 90.215135 -370.877398 
L 85.249426 -374.546535 
L 80.283716 -377.049081 
L 75.318007 -378.547639 
L 70.352297 -379.246466 
L 65.386588 -379.3629 
L 60.420878 -379.10183 
L 55.455169 -378.636819 
L 50.489459 -378.099809 
L 45.52375 -377.579344 
z
" id="m96a5600624" style="stroke:#ff0000;stroke-opacity:0.15;"/>
    </defs>
    <g clip-path="url(#p4f827bbe3c)">
     <use style="fill:#ff0000;fill-opacity:0.15;stroke:#ff0000;stroke-opacity:0.15;" x="0" xlink:href="#m96a5600624" y="423.177812"/>
    </g>
   </g>
   <g id="line2d_15">
    <path clip-path="url(#p4f827bbe3c)" d="M 45.52375 90.242051 
L 50.489459 86.463197 
L 55.455169 82.966541 
L 60.420878 79.843832 
L 65.386588 77.177007 
L 70.352297 75.036041 
L 75.318007 73.477111 
L 80.283716 72.54112 
L 85.249426 72.25263 
L 90.215135 72.619208 
L 95.180845 73.631238 
L 100.146554 75.262164 
L 105.112264 77.469192 
L 110.077973 80.194412 
L 115.043682 83.366317 
L 120.009392 86.901679 
L 124.975101 90.707735 
L 129.940811 94.684617 
L 134.90652 98.727975 
L 139.87223 102.731717 
L 144.837939 106.590787 
L 149.803649 110.203929 
L 154.769358 113.476336 
L 159.735068 116.322143 
L 164.700777 118.666681 
L 169.666486 120.44843 
L 174.632196 121.62064 
L 179.597905 122.152552 
L 184.563615 122.030209 
L 189.529324 121.256823 
L 194.495034 119.852686 
L 199.460743 117.85464 
L 204.426453 115.315113 
L 209.392162 112.30074 
L 214.357872 108.890613 
L 219.323581 105.174213 
L 224.289291 101.249053 
L 229.255 97.218125 
L 234.220709 93.187197 
L 239.186419 89.262037 
L 244.152128 85.545637 
L 249.117838 82.13551 
L 254.083547 79.121137 
L 259.049257 76.58161 
L 264.014966 74.583564 
L 268.980676 73.179427 
L 273.946385 72.406041 
L 278.912095 72.283698 
L 283.877804 72.81561 
L 288.843514 73.98782 
L 293.809223 75.769569 
L 298.774932 78.114107 
L 303.740642 80.959914 
L 308.706351 84.232321 
L 313.672061 87.845463 
L 318.63777 91.704533 
L 323.60348 95.708275 
L 328.569189 99.751633 
L 333.534899 103.728515 
L 338.500608 107.534571 
L 343.466318 111.069933 
L 348.432027 114.241838 
L 353.397736 116.967058 
L 358.363446 119.174086 
L 363.329155 120.805012 
L 368.294865 121.817042 
L 373.260574 122.18362 
L 378.226284 121.89513 
L 383.191993 120.959139 
L 388.157703 119.400209 
L 393.123412 117.259243 
L 398.089122 114.592418 
L 403.054831 111.469709 
L 408.020541 107.973053 
L 412.98625 104.194199 
" style="fill:none;stroke:#0000ff;stroke-dasharray:5.55,2.4;stroke-dashoffset:0;stroke-width:1.5;"/>
   </g>
   <g id="line2d_16">
    <path clip-path="url(#p4f827bbe3c)" d="M 45.52375 95.270531 
L 50.489459 94.500937 
L 55.455169 93.526559 
L 60.420878 92.334687 
L 65.386588 90.928863 
L 70.352297 89.334245 
L 75.318007 87.601682 
L 80.283716 85.809488 
L 85.249426 84.062082 
L 90.215135 82.485034 
L 95.180845 81.216629 
L 100.146554 80.39663 
L 105.112264 80.153437 
L 110.077973 80.591149 
L 115.043682 81.778075 
L 120.009392 83.737975 
L 124.975101 86.444941 
L 129.940811 89.822285 
L 134.90652 93.74542 
L 139.87223 98.048396 
L 144.837939 102.533622 
L 149.803649 106.984188 
L 154.769358 111.178152 
L 159.735068 114.903924 
L 164.700777 117.975613 
L 169.666486 120.246935 
L 174.632196 121.622049 
L 179.597905 122.061849 
L 184.563615 121.584608 
L 189.529324 120.260666 
L 194.495034 118.201779 
L 199.460743 115.546676 
L 204.426453 112.445001 
L 209.392162 109.042113 
L 214.357872 105.466921 
L 219.323581 101.824337 
L 224.289291 98.193001 
L 229.255 94.628002 
L 234.220709 91.167512 
L 239.186419 87.841721 
L 244.152128 84.682187 
L 249.117838 81.729792 
L 254.083547 79.039744 
L 259.049257 76.682573 
L 264.014966 74.74069 
L 268.980676 73.300863 
L 273.946385 72.44379 
L 278.912095 72.232678 
L 283.877804 72.703168 
L 288.843514 73.856938 
L 293.809223 75.660593 
L 298.774932 78.050274 
L 303.740642 80.940857 
L 308.706351 84.237235 
L 313.672061 87.844438 
L 318.63777 91.673588 
L 323.60348 95.641957 
L 328.569189 99.667442 
L 333.534899 103.659811 
L 338.500608 107.512561 
L 343.466318 111.099399 
L 348.432027 114.278226 
L 353.397736 116.903254 
L 358.363446 118.843298 
L 363.329155 120.002198 
L 368.294865 120.336377 
L 373.260574 119.865098 
L 378.226284 118.670773 
L 383.191993 116.889133 
L 388.157703 114.691439 
L 393.123412 112.262557 
L 398.089122 109.779224 
L 403.054831 107.392275 
L 408.020541 105.215222 
L 412.98625 103.319942 
" style="fill:none;stroke:#ff0000;stroke-linecap:round;stroke-width:2;"/>
   </g>
   <g id="line2d_17">
    <defs>
     <path d="M 0 3 
C 0.795609 3 1.55874 2.683901 2.12132 2.12132 
C 2.683901 1.55874 3 0.795609 3 0 
C 3 -0.795609 2.683901 -1.55874 2.12132 -2.12132 
C 1.55874 -2.683901 0.795609 -3 0 -3 
C -0.795609 -3 -1.55874 -2.683901 -2.12132 -2.12132 
C -2.683901 -1.55874 -3 -0.795609 -3 0 
C -3 0.795609 -2.683901 1.55874 -2.12132 2.12132 
C -1.55874 2.683901 -0.795609 3 0 3 
z
" id="m675280b769" style="stroke:#000000;"/>
    </defs>
    <g clip-path="url(#p4f827bbe3c)">
     <use style="stroke:#000000;" x="313.411016" xlink:href="#m675280b769" y="87.648537"/>
     <use style="stroke:#000000;" x="176.541665" xlink:href="#m675280b769" y="121.902083"/>
     <use style="stroke:#000000;" x="111.003793" xlink:href="#m675280b769" y="80.754262"/>
     <use style="stroke:#000000;" x="255.864615" xlink:href="#m675280b769" y="78.151906"/>
     <use style="stroke:#000000;" x="351.098022" xlink:href="#m675280b769" y="115.76534"/>
     <use style="stroke:#000000;" x="275.971421" xlink:href="#m675280b769" y="72.276965"/>
     <use style="stroke:#000000;" x="307.027073" xlink:href="#m675280b769" y="83.08305"/>
     <use style="stroke:#000000;" x="340.457651" xlink:href="#m675280b769" y="108.965548"/>
    </g>
   </g>
   <g id="patch_3">
    <path d="M 45.52375 172.118125 
L 45.52375 22.318125 
" style="fill:none;stroke:#ffffff;stroke-linecap:square;stroke-linejoin:miter;stroke-width:0.8;"/>
   </g>
   <g id="patch_4">
    <path d="M 412.98625 172.118125 
L 412.98625 22.318125 
" style="fill:none;stroke:#ffffff;stroke-linecap:square;stroke-linejoin:miter;stroke-width:0.8;"/>
   </g>
   <g id="patch_5">
    <path d="M 45.52375 172.118125 
L 412.98625 172.118125 
" style="fill:none;stroke:#ffffff;stroke-linecap:square;stroke-linejoin:miter;stroke-width:0.8;"/>
   </g>
   <g id="patch_6">
    <path d="M 45.52375 22.318125 
L 412.98625 22.318125 
" style="fill:none;stroke:#ffffff;stroke-linecap:square;stroke-linejoin:miter;stroke-width:0.8;"/>
   </g>
   <g id="text_17">
    <!-- Distribution of posterior and prior data. -->
    <g style="fill:#262626;" transform="translate(111.222813 16.318125)scale(0.12 -0.12)">
     <defs>
      <path d="M 1259 4147 
L 1259 519 
L 2022 519 
Q 2988 519 3436 956 
Q 3884 1394 3884 2338 
Q 3884 3275 3436 3711 
Q 2988 4147 2022 4147 
L 1259 4147 
z
M 628 4666 
L 1925 4666 
Q 3281 4666 3915 4102 
Q 4550 3538 4550 2338 
Q 4550 1131 3912 565 
Q 3275 0 1925 0 
L 628 0 
L 628 4666 
z
" id="DejaVuSans-44" transform="scale(0.015625)"/>
      <path d="M 603 3500 
L 1178 3500 
L 1178 0 
L 603 0 
L 603 3500 
z
M 603 4863 
L 1178 4863 
L 1178 4134 
L 603 4134 
L 603 4863 
z
" id="DejaVuSans-69" transform="scale(0.015625)"/>
      <path d="M 2834 3397 
L 2834 2853 
Q 2591 2978 2328 3040 
Q 2066 3103 1784 3103 
Q 1356 3103 1142 2972 
Q 928 2841 928 2578 
Q 928 2378 1081 2264 
Q 1234 2150 1697 2047 
L 1894 2003 
Q 2506 1872 2764 1633 
Q 3022 1394 3022 966 
Q 3022 478 2636 193 
Q 2250 -91 1575 -91 
Q 1294 -91 989 -36 
Q 684 19 347 128 
L 347 722 
Q 666 556 975 473 
Q 1284 391 1588 391 
Q 1994 391 2212 530 
Q 2431 669 2431 922 
Q 2431 1156 2273 1281 
Q 2116 1406 1581 1522 
L 1381 1569 
Q 847 1681 609 1914 
Q 372 2147 372 2553 
Q 372 3047 722 3315 
Q 1072 3584 1716 3584 
Q 2034 3584 2315 3537 
Q 2597 3491 2834 3397 
z
" id="DejaVuSans-73" transform="scale(0.015625)"/>
      <path d="M 1172 4494 
L 1172 3500 
L 2356 3500 
L 2356 3053 
L 1172 3053 
L 1172 1153 
Q 1172 725 1289 603 
Q 1406 481 1766 481 
L 2356 481 
L 2356 0 
L 1766 0 
Q 1100 0 847 248 
Q 594 497 594 1153 
L 594 3053 
L 172 3053 
L 172 3500 
L 594 3500 
L 594 4494 
L 1172 4494 
z
" id="DejaVuSans-74" transform="scale(0.015625)"/>
      <path d="M 2631 2963 
Q 2534 3019 2420 3045 
Q 2306 3072 2169 3072 
Q 1681 3072 1420 2755 
Q 1159 2438 1159 1844 
L 1159 0 
L 581 0 
L 581 3500 
L 1159 3500 
L 1159 2956 
Q 1341 3275 1631 3429 
Q 1922 3584 2338 3584 
Q 2397 3584 2469 3576 
Q 2541 3569 2628 3553 
L 2631 2963 
z
" id="DejaVuSans-72" transform="scale(0.015625)"/>
      <path d="M 3116 1747 
Q 3116 2381 2855 2742 
Q 2594 3103 2138 3103 
Q 1681 3103 1420 2742 
Q 1159 2381 1159 1747 
Q 1159 1113 1420 752 
Q 1681 391 2138 391 
Q 2594 391 2855 752 
Q 3116 1113 3116 1747 
z
M 1159 2969 
Q 1341 3281 1617 3432 
Q 1894 3584 2278 3584 
Q 2916 3584 3314 3078 
Q 3713 2572 3713 1747 
Q 3713 922 3314 415 
Q 2916 -91 2278 -91 
Q 1894 -91 1617 61 
Q 1341 213 1159 525 
L 1159 0 
L 581 0 
L 581 4863 
L 1159 4863 
L 1159 2969 
z
" id="DejaVuSans-62" transform="scale(0.015625)"/>
      <path d="M 544 1381 
L 544 3500 
L 1119 3500 
L 1119 1403 
Q 1119 906 1312 657 
Q 1506 409 1894 409 
Q 2359 409 2629 706 
Q 2900 1003 2900 1516 
L 2900 3500 
L 3475 3500 
L 3475 0 
L 2900 0 
L 2900 538 
Q 2691 219 2414 64 
Q 2138 -91 1772 -91 
Q 1169 -91 856 284 
Q 544 659 544 1381 
z
M 1991 3584 
L 1991 3584 
z
" id="DejaVuSans-75" transform="scale(0.015625)"/>
      <path d="M 1959 3097 
Q 1497 3097 1228 2736 
Q 959 2375 959 1747 
Q 959 1119 1226 758 
Q 1494 397 1959 397 
Q 2419 397 2687 759 
Q 2956 1122 2956 1747 
Q 2956 2369 2687 2733 
Q 2419 3097 1959 3097 
z
M 1959 3584 
Q 2709 3584 3137 3096 
Q 3566 2609 3566 1747 
Q 3566 888 3137 398 
Q 2709 -91 1959 -91 
Q 1206 -91 779 398 
Q 353 888 353 1747 
Q 353 2609 779 3096 
Q 1206 3584 1959 3584 
z
" id="DejaVuSans-6f" transform="scale(0.015625)"/>
      <path d="M 3513 2113 
L 3513 0 
L 2938 0 
L 2938 2094 
Q 2938 2591 2744 2837 
Q 2550 3084 2163 3084 
Q 1697 3084 1428 2787 
Q 1159 2491 1159 1978 
L 1159 0 
L 581 0 
L 581 3500 
L 1159 3500 
L 1159 2956 
Q 1366 3272 1645 3428 
Q 1925 3584 2291 3584 
Q 2894 3584 3203 3211 
Q 3513 2838 3513 2113 
z
" id="DejaVuSans-6e" transform="scale(0.015625)"/>
      <path id="DejaVuSans-20" transform="scale(0.015625)"/>
      <path d="M 2375 4863 
L 2375 4384 
L 1825 4384 
Q 1516 4384 1395 4259 
Q 1275 4134 1275 3809 
L 1275 3500 
L 2222 3500 
L 2222 3053 
L 1275 3053 
L 1275 0 
L 697 0 
L 697 3053 
L 147 3053 
L 147 3500 
L 697 3500 
L 697 3744 
Q 697 4328 969 4595 
Q 1241 4863 1831 4863 
L 2375 4863 
z
" id="DejaVuSans-66" transform="scale(0.015625)"/>
      <path d="M 1159 525 
L 1159 -1331 
L 581 -1331 
L 581 3500 
L 1159 3500 
L 1159 2969 
Q 1341 3281 1617 3432 
Q 1894 3584 2278 3584 
Q 2916 3584 3314 3078 
Q 3713 2572 3713 1747 
Q 3713 922 3314 415 
Q 2916 -91 2278 -91 
Q 1894 -91 1617 61 
Q 1341 213 1159 525 
z
M 3116 1747 
Q 3116 2381 2855 2742 
Q 2594 3103 2138 3103 
Q 1681 3103 1420 2742 
Q 1159 2381 1159 1747 
Q 1159 1113 1420 752 
Q 1681 391 2138 391 
Q 2594 391 2855 752 
Q 3116 1113 3116 1747 
z
" id="DejaVuSans-70" transform="scale(0.015625)"/>
      <path d="M 3597 1894 
L 3597 1613 
L 953 1613 
Q 991 1019 1311 708 
Q 1631 397 2203 397 
Q 2534 397 2845 478 
Q 3156 559 3463 722 
L 3463 178 
Q 3153 47 2828 -22 
Q 2503 -91 2169 -91 
Q 1331 -91 842 396 
Q 353 884 353 1716 
Q 353 2575 817 3079 
Q 1281 3584 2069 3584 
Q 2775 3584 3186 3129 
Q 3597 2675 3597 1894 
z
M 3022 2063 
Q 3016 2534 2758 2815 
Q 2500 3097 2075 3097 
Q 1594 3097 1305 2825 
Q 1016 2553 972 2059 
L 3022 2063 
z
" id="DejaVuSans-65" transform="scale(0.015625)"/>
      <path d="M 2194 1759 
Q 1497 1759 1228 1600 
Q 959 1441 959 1056 
Q 959 750 1161 570 
Q 1363 391 1709 391 
Q 2188 391 2477 730 
Q 2766 1069 2766 1631 
L 2766 1759 
L 2194 1759 
z
M 3341 1997 
L 3341 0 
L 2766 0 
L 2766 531 
Q 2569 213 2275 61 
Q 1981 -91 1556 -91 
Q 1019 -91 701 211 
Q 384 513 384 1019 
Q 384 1609 779 1909 
Q 1175 2209 1959 2209 
L 2766 2209 
L 2766 2266 
Q 2766 2663 2505 2880 
Q 2244 3097 1772 3097 
Q 1472 3097 1187 3025 
Q 903 2953 641 2809 
L 641 3341 
Q 956 3463 1253 3523 
Q 1550 3584 1831 3584 
Q 2591 3584 2966 3190 
Q 3341 2797 3341 1997 
z
" id="DejaVuSans-61" transform="scale(0.015625)"/>
      <path d="M 2906 2969 
L 2906 4863 
L 3481 4863 
L 3481 0 
L 2906 0 
L 2906 525 
Q 2725 213 2448 61 
Q 2172 -91 1784 -91 
Q 1150 -91 751 415 
Q 353 922 353 1747 
Q 353 2572 751 3078 
Q 1150 3584 1784 3584 
Q 2172 3584 2448 3432 
Q 2725 3281 2906 2969 
z
M 947 1747 
Q 947 1113 1208 752 
Q 1469 391 1925 391 
Q 2381 391 2643 752 
Q 2906 1113 2906 1747 
Q 2906 2381 2643 2742 
Q 2381 3103 1925 3103 
Q 1469 3103 1208 2742 
Q 947 2381 947 1747 
z
" id="DejaVuSans-64" transform="scale(0.015625)"/>
      <path d="M 684 794 
L 1344 794 
L 1344 0 
L 684 0 
L 684 794 
z
" id="DejaVuSans-2e" transform="scale(0.015625)"/>
     </defs>
     <use xlink:href="#DejaVuSans-44"/>
     <use x="77.001953" xlink:href="#DejaVuSans-69"/>
     <use x="104.785156" xlink:href="#DejaVuSans-73"/>
     <use x="156.884766" xlink:href="#DejaVuSans-74"/>
     <use x="196.09375" xlink:href="#DejaVuSans-72"/>
     <use x="237.207031" xlink:href="#DejaVuSans-69"/>
     <use x="264.990234" xlink:href="#DejaVuSans-62"/>
     <use x="328.466797" xlink:href="#DejaVuSans-75"/>
     <use x="391.845703" xlink:href="#DejaVuSans-74"/>
     <use x="431.054688" xlink:href="#DejaVuSans-69"/>
     <use x="458.837891" xlink:href="#DejaVuSans-6f"/>
     <use x="520.019531" xlink:href="#DejaVuSans-6e"/>
     <use x="583.398438" xlink:href="#DejaVuSans-20"/>
     <use x="615.185547" xlink:href="#DejaVuSans-6f"/>
     <use x="676.367188" xlink:href="#DejaVuSans-66"/>
     <use x="711.572266" xlink:href="#DejaVuSans-20"/>
     <use x="743.359375" xlink:href="#DejaVuSans-70"/>
     <use x="806.835938" xlink:href="#DejaVuSans-6f"/>
     <use x="868.017578" xlink:href="#DejaVuSans-73"/>
     <use x="920.117188" xlink:href="#DejaVuSans-74"/>
     <use x="959.326172" xlink:href="#DejaVuSans-65"/>
     <use x="1020.849609" xlink:href="#DejaVuSans-72"/>
     <use x="1061.962891" xlink:href="#DejaVuSans-69"/>
     <use x="1089.746094" xlink:href="#DejaVuSans-6f"/>
     <use x="1150.927734" xlink:href="#DejaVuSans-72"/>
     <use x="1192.041016" xlink:href="#DejaVuSans-20"/>
     <use x="1223.828125" xlink:href="#DejaVuSans-61"/>
     <use x="1285.107422" xlink:href="#DejaVuSans-6e"/>
     <use x="1348.486328" xlink:href="#DejaVuSans-64"/>
     <use x="1411.962891" xlink:href="#DejaVuSans-20"/>
     <use x="1443.75" xlink:href="#DejaVuSans-70"/>
     <use x="1507.226562" xlink:href="#DejaVuSans-72"/>
     <use x="1548.339844" xlink:href="#DejaVuSans-69"/>
     <use x="1576.123047" xlink:href="#DejaVuSans-6f"/>
     <use x="1637.304688" xlink:href="#DejaVuSans-72"/>
     <use x="1678.417969" xlink:href="#DejaVuSans-20"/>
     <use x="1710.205078" xlink:href="#DejaVuSans-64"/>
     <use x="1773.681641" xlink:href="#DejaVuSans-61"/>
     <use x="1834.960938" xlink:href="#DejaVuSans-74"/>
     <use x="1874.169922" xlink:href="#DejaVuSans-61"/>
     <use x="1935.449219" xlink:href="#DejaVuSans-2e"/>
    </g>
   </g>
   <g id="legend_1">
    <g id="patch_7">
     <path d="M 339.68625 91.493125 
L 405.98625 91.493125 
Q 407.98625 91.493125 407.98625 89.493125 
L 407.98625 29.318125 
Q 407.98625 27.318125 405.98625 27.318125 
L 339.68625 27.318125 
Q 337.68625 27.318125 337.68625 29.318125 
L 337.68625 89.493125 
Q 337.68625 91.493125 339.68625 91.493125 
z
" style="fill:#eaeaf2;opacity:0.8;stroke:#cccccc;stroke-linejoin:miter;"/>
    </g>
    <g id="line2d_18">
     <path d="M 341.68625 35.416562 
L 361.68625 35.416562 
" style="fill:none;stroke:#0000ff;stroke-dasharray:5.55,2.4;stroke-dashoffset:0;stroke-width:1.5;"/>
    </g>
    <g id="line2d_19"/>
    <g id="text_18">
     <!-- $sin(x)$ -->
     <g style="fill:#262626;" transform="translate(369.68625 38.916562)scale(0.1 -0.1)">
      <defs>
       <path d="M 3200 3397 
L 3091 2853 
Q 2863 2978 2609 3040 
Q 2356 3103 2088 3103 
Q 1634 3103 1373 2948 
Q 1113 2794 1113 2528 
Q 1113 2219 1719 2053 
Q 1766 2041 1788 2034 
L 1972 1978 
Q 2547 1819 2739 1644 
Q 2931 1469 2931 1166 
Q 2931 609 2489 259 
Q 2047 -91 1331 -91 
Q 1053 -91 747 -37 
Q 441 16 72 128 
L 184 722 
Q 500 559 806 475 
Q 1113 391 1394 391 
Q 1816 391 2080 572 
Q 2344 753 2344 1031 
Q 2344 1331 1650 1516 
L 1591 1531 
L 1394 1581 
Q 956 1697 753 1886 
Q 550 2075 550 2369 
Q 550 2928 970 3256 
Q 1391 3584 2113 3584 
Q 2397 3584 2667 3537 
Q 2938 3491 3200 3397 
z
" id="DejaVuSans-Oblique-73" transform="scale(0.015625)"/>
       <path d="M 1172 4863 
L 1747 4863 
L 1606 4134 
L 1031 4134 
L 1172 4863 
z
M 909 3500 
L 1484 3500 
L 800 0 
L 225 0 
L 909 3500 
z
" id="DejaVuSans-Oblique-69" transform="scale(0.015625)"/>
       <path d="M 3566 2113 
L 3156 0 
L 2578 0 
L 2988 2091 
Q 3016 2238 3031 2350 
Q 3047 2463 3047 2528 
Q 3047 2791 2881 2937 
Q 2716 3084 2419 3084 
Q 1956 3084 1622 2776 
Q 1288 2469 1184 1941 
L 800 0 
L 225 0 
L 903 3500 
L 1478 3500 
L 1363 2950 
Q 1603 3253 1940 3418 
Q 2278 3584 2650 3584 
Q 3113 3584 3367 3334 
Q 3622 3084 3622 2631 
Q 3622 2519 3608 2391 
Q 3594 2263 3566 2113 
z
" id="DejaVuSans-Oblique-6e" transform="scale(0.015625)"/>
       <path d="M 1984 4856 
Q 1566 4138 1362 3434 
Q 1159 2731 1159 2009 
Q 1159 1288 1364 580 
Q 1569 -128 1984 -844 
L 1484 -844 
Q 1016 -109 783 600 
Q 550 1309 550 2009 
Q 550 2706 781 3412 
Q 1013 4119 1484 4856 
L 1984 4856 
z
" id="DejaVuSans-28" transform="scale(0.015625)"/>
       <path d="M 513 4856 
L 1013 4856 
Q 1481 4119 1714 3412 
Q 1947 2706 1947 2009 
Q 1947 1309 1714 600 
Q 1481 -109 1013 -844 
L 513 -844 
Q 928 -128 1133 580 
Q 1338 1288 1338 2009 
Q 1338 2731 1133 3434 
Q 928 4138 513 4856 
z
" id="DejaVuSans-29" transform="scale(0.015625)"/>
      </defs>
      <use transform="translate(0 0.015625)" xlink:href="#DejaVuSans-Oblique-73"/>
      <use transform="translate(52.099609 0.015625)" xlink:href="#DejaVuSans-Oblique-69"/>
      <use transform="translate(79.882812 0.015625)" xlink:href="#DejaVuSans-Oblique-6e"/>
      <use transform="translate(143.261719 0.015625)" xlink:href="#DejaVuSans-28"/>
      <use transform="translate(182.275391 0.015625)" xlink:href="#DejaVuSans-Oblique-78"/>
      <use transform="translate(241.455078 0.015625)" xlink:href="#DejaVuSans-29"/>
     </g>
    </g>
    <g id="line2d_20">
     <path d="M 341.68625 50.094688 
L 361.68625 50.094688 
" style="fill:none;stroke:#ff0000;stroke-linecap:round;stroke-width:2;"/>
    </g>
    <g id="line2d_21"/>
    <g id="text_19">
     <!-- $\mu_{2|1}$ -->
     <g style="fill:#262626;" transform="translate(369.68625 53.594688)scale(0.1 -0.1)">
      <defs>
       <path d="M -84 -1331 
L 856 3500 
L 1434 3500 
L 1009 1322 
Q 997 1256 987 1175 
Q 978 1094 978 1013 
Q 978 722 1161 565 
Q 1344 409 1684 409 
Q 2147 409 2431 671 
Q 2716 934 2816 1459 
L 3213 3500 
L 3788 3500 
L 3266 809 
Q 3253 750 3248 706 
Q 3244 663 3244 628 
Q 3244 531 3283 486 
Q 3322 441 3406 441 
Q 3438 441 3492 456 
Q 3547 472 3647 513 
L 3559 50 
Q 3422 -19 3297 -55 
Q 3172 -91 3053 -91 
Q 2847 -91 2730 40 
Q 2613 172 2613 403 
Q 2438 153 2195 31 
Q 1953 -91 1625 -91 
Q 1334 -91 1117 43 
Q 900 178 831 397 
L 494 -1331 
L -84 -1331 
z
" id="DejaVuSans-Oblique-3bc" transform="scale(0.015625)"/>
       <path d="M 1344 4891 
L 1344 -1509 
L 813 -1509 
L 813 4891 
L 1344 4891 
z
" id="DejaVuSans-7c" transform="scale(0.015625)"/>
      </defs>
      <use transform="translate(0 0.3125)" xlink:href="#DejaVuSans-Oblique-3bc"/>
      <use transform="translate(63.623047 -16.09375)scale(0.7)" xlink:href="#DejaVuSans-32"/>
      <use transform="translate(108.15918 -16.09375)scale(0.7)" xlink:href="#DejaVuSans-7c"/>
      <use transform="translate(131.743164 -16.09375)scale(0.7)" xlink:href="#DejaVuSans-31"/>
     </g>
    </g>
    <g id="line2d_22"/>
    <g id="line2d_23">
     <g>
      <use style="stroke:#000000;" x="351.68625" xlink:href="#m675280b769" y="65.994687"/>
     </g>
    </g>
    <g id="text_20">
     <!-- $(x_1, y_1)$ -->
     <g style="fill:#262626;" transform="translate(369.68625 69.494687)scale(0.1 -0.1)">
      <defs>
       <path d="M 750 794 
L 1409 794 
L 1409 256 
L 897 -744 
L 494 -744 
L 750 256 
L 750 794 
z
" id="DejaVuSans-2c" transform="scale(0.015625)"/>
      </defs>
      <use transform="translate(0 0.125)" xlink:href="#DejaVuSans-28"/>
      <use transform="translate(39.013672 0.125)" xlink:href="#DejaVuSans-Oblique-78"/>
      <use transform="translate(98.193359 -16.28125)scale(0.7)" xlink:href="#DejaVuSans-31"/>
      <use transform="translate(145.463867 0.125)" xlink:href="#DejaVuSans-2c"/>
      <use transform="translate(196.733398 0.125)" xlink:href="#DejaVuSans-Oblique-79"/>
      <use transform="translate(255.913086 -16.28125)scale(0.7)" xlink:href="#DejaVuSans-31"/>
      <use transform="translate(303.183594 0.125)" xlink:href="#DejaVuSans-29"/>
     </g>
    </g>
    <g id="patch_8">
     <path d="M 341.68625 84.193125 
L 361.68625 84.193125 
L 361.68625 77.193125 
L 341.68625 77.193125 
z
" style="fill:#ff0000;fill-opacity:0.15;stroke:#ff0000;stroke-linejoin:miter;stroke-opacity:0.15;"/>
    </g>
    <g id="text_21">
     <!-- $2 \sigma_{2|1}$ -->
     <g style="fill:#262626;" transform="translate(369.68625 84.193125)scale(0.1 -0.1)">
      <defs>
       <path d="M 2219 3044 
Q 1744 3044 1422 2700 
Q 1081 2341 969 1747 
Q 844 1119 1044 756 
Q 1241 397 1706 397 
Q 2166 397 2503 759 
Q 2844 1122 2966 1747 
Q 3075 2319 2881 2700 
Q 2700 3044 2219 3044 
z
M 2309 3503 
L 4219 3500 
L 4106 2925 
L 3463 2925 
Q 3706 2438 3575 1747 
Q 3406 888 2884 400 
Q 2359 -91 1609 -91 
Q 856 -91 525 400 
Q 194 888 363 1747 
Q 528 2609 1050 3097 
Q 1484 3503 2309 3503 
z
" id="DejaVuSans-Oblique-3c3" transform="scale(0.015625)"/>
      </defs>
      <use transform="translate(0 0.78125)" xlink:href="#DejaVuSans-32"/>
      <use transform="translate(63.623047 0.78125)" xlink:href="#DejaVuSans-Oblique-3c3"/>
      <use transform="translate(127.001953 -15.625)scale(0.7)" xlink:href="#DejaVuSans-32"/>
      <use transform="translate(171.538086 -15.625)scale(0.7)" xlink:href="#DejaVuSans-7c"/>
      <use transform="translate(195.12207 -15.625)scale(0.7)" xlink:href="#DejaVuSans-31"/>
     </g>
    </g>
   </g>
  </g>
  <g id="axes_2">
   <g id="patch_9">
    <path d="M 45.52375 382.718125 
L 412.98625 382.718125 
L 412.98625 232.918125 
L 45.52375 232.918125 
z
" style="fill:#eaeaf2;"/>
   </g>
   <g id="matplotlib.axis_3">
    <g id="xtick_8">
     <g id="line2d_24">
      <path clip-path="url(#pc39b387a93)" d="M 45.52375 382.718125 
L 45.52375 232.918125 
" style="fill:none;stroke:#ffffff;stroke-linecap:round;stroke-width:0.8;"/>
     </g>
     <g id="text_22">
      <!-- −6 -->
      <g style="fill:#262626;" transform="translate(38.152656 397.316562)scale(0.1 -0.1)">
       <use xlink:href="#DejaVuSans-2212"/>
       <use x="83.789062" xlink:href="#DejaVuSans-36"/>
      </g>
     </g>
    </g>
    <g id="xtick_9">
     <g id="line2d_25">
      <path clip-path="url(#pc39b387a93)" d="M 106.7675 382.718125 
L 106.7675 232.918125 
" style="fill:none;stroke:#ffffff;stroke-linecap:round;stroke-width:0.8;"/>
     </g>
     <g id="text_23">
      <!-- −4 -->
      <g style="fill:#262626;" transform="translate(99.396406 397.316562)scale(0.1 -0.1)">
       <use xlink:href="#DejaVuSans-2212"/>
       <use x="83.789062" xlink:href="#DejaVuSans-34"/>
      </g>
     </g>
    </g>
    <g id="xtick_10">
     <g id="line2d_26">
      <path clip-path="url(#pc39b387a93)" d="M 168.01125 382.718125 
L 168.01125 232.918125 
" style="fill:none;stroke:#ffffff;stroke-linecap:round;stroke-width:0.8;"/>
     </g>
     <g id="text_24">
      <!-- −2 -->
      <g style="fill:#262626;" transform="translate(160.640156 397.316562)scale(0.1 -0.1)">
       <use xlink:href="#DejaVuSans-2212"/>
       <use x="83.789062" xlink:href="#DejaVuSans-32"/>
      </g>
     </g>
    </g>
    <g id="xtick_11">
     <g id="line2d_27">
      <path clip-path="url(#pc39b387a93)" d="M 229.255 382.718125 
L 229.255 232.918125 
" style="fill:none;stroke:#ffffff;stroke-linecap:round;stroke-width:0.8;"/>
     </g>
     <g id="text_25">
      <!-- 0 -->
      <g style="fill:#262626;" transform="translate(226.07375 397.316562)scale(0.1 -0.1)">
       <use xlink:href="#DejaVuSans-30"/>
      </g>
     </g>
    </g>
    <g id="xtick_12">
     <g id="line2d_28">
      <path clip-path="url(#pc39b387a93)" d="M 290.49875 382.718125 
L 290.49875 232.918125 
" style="fill:none;stroke:#ffffff;stroke-linecap:round;stroke-width:0.8;"/>
     </g>
     <g id="text_26">
      <!-- 2 -->
      <g style="fill:#262626;" transform="translate(287.3175 397.316562)scale(0.1 -0.1)">
       <use xlink:href="#DejaVuSans-32"/>
      </g>
     </g>
    </g>
    <g id="xtick_13">
     <g id="line2d_29">
      <path clip-path="url(#pc39b387a93)" d="M 351.7425 382.718125 
L 351.7425 232.918125 
" style="fill:none;stroke:#ffffff;stroke-linecap:round;stroke-width:0.8;"/>
     </g>
     <g id="text_27">
      <!-- 4 -->
      <g style="fill:#262626;" transform="translate(348.56125 397.316562)scale(0.1 -0.1)">
       <use xlink:href="#DejaVuSans-34"/>
      </g>
     </g>
    </g>
    <g id="xtick_14">
     <g id="line2d_30">
      <path clip-path="url(#pc39b387a93)" d="M 412.98625 382.718125 
L 412.98625 232.918125 
" style="fill:none;stroke:#ffffff;stroke-linecap:round;stroke-width:0.8;"/>
     </g>
     <g id="text_28">
      <!-- 6 -->
      <g style="fill:#262626;" transform="translate(409.805 397.316562)scale(0.1 -0.1)">
       <use xlink:href="#DejaVuSans-36"/>
      </g>
     </g>
    </g>
    <g id="text_29">
     <!-- $x$ -->
     <g style="fill:#262626;" transform="translate(225.355 413.274219)scale(0.13 -0.13)">
      <use transform="translate(0 0.3125)" xlink:href="#DejaVuSans-Oblique-78"/>
     </g>
    </g>
   </g>
   <g id="matplotlib.axis_4">
    <g id="ytick_8">
     <g id="line2d_31">
      <path clip-path="url(#pc39b387a93)" d="M 45.52375 363.924447 
L 412.98625 363.924447 
" style="fill:none;stroke:#ffffff;stroke-linecap:round;stroke-width:0.8;"/>
     </g>
     <g id="text_30">
      <!-- −1 -->
      <g style="fill:#262626;" transform="translate(23.781562 367.723666)scale(0.1 -0.1)">
       <use xlink:href="#DejaVuSans-2212"/>
       <use x="83.789062" xlink:href="#DejaVuSans-31"/>
      </g>
     </g>
    </g>
    <g id="ytick_9">
     <g id="line2d_32">
      <path clip-path="url(#pc39b387a93)" d="M 45.52375 324.723308 
L 412.98625 324.723308 
" style="fill:none;stroke:#ffffff;stroke-linecap:round;stroke-width:0.8;"/>
     </g>
     <g id="text_31">
      <!-- 0 -->
      <g style="fill:#262626;" transform="translate(32.16125 328.522527)scale(0.1 -0.1)">
       <use xlink:href="#DejaVuSans-30"/>
      </g>
     </g>
    </g>
    <g id="ytick_10">
     <g id="line2d_33">
      <path clip-path="url(#pc39b387a93)" d="M 45.52375 285.522168 
L 412.98625 285.522168 
" style="fill:none;stroke:#ffffff;stroke-linecap:round;stroke-width:0.8;"/>
     </g>
     <g id="text_32">
      <!-- 1 -->
      <g style="fill:#262626;" transform="translate(32.16125 289.321387)scale(0.1 -0.1)">
       <use xlink:href="#DejaVuSans-31"/>
      </g>
     </g>
    </g>
    <g id="ytick_11">
     <g id="line2d_34">
      <path clip-path="url(#pc39b387a93)" d="M 45.52375 246.321029 
L 412.98625 246.321029 
" style="fill:none;stroke:#ffffff;stroke-linecap:round;stroke-width:0.8;"/>
     </g>
     <g id="text_33">
      <!-- 2 -->
      <g style="fill:#262626;" transform="translate(32.16125 250.120248)scale(0.1 -0.1)">
       <use xlink:href="#DejaVuSans-32"/>
      </g>
     </g>
    </g>
    <g id="text_34">
     <!-- $y$ -->
     <g style="fill:#262626;" transform="translate(17.051562 311.718125)rotate(-90)scale(0.13 -0.13)">
      <use transform="translate(0 0.3125)" xlink:href="#DejaVuSans-Oblique-79"/>
     </g>
    </g>
   </g>
   <g id="line2d_35">
    <path clip-path="url(#pc39b387a93)" d="M 45.52375 324.738688 
L 50.489459 325.098015 
L 55.455169 326.364198 
L 60.420878 328.190974 
L 65.386588 330.080345 
L 70.352297 331.481454 
L 75.318007 331.88732 
L 80.283716 330.915505 
L 85.249426 328.365964 
L 90.215135 324.254799 
L 95.180845 318.824357 
L 100.146554 312.527835 
L 105.112264 305.983964 
L 110.077973 299.899297 
L 115.043682 294.964291 
L 120.009392 291.742492 
L 124.975101 290.582343 
L 129.940811 291.580674 
L 134.90652 294.612081 
L 139.87223 299.413211 
L 144.837939 305.686693 
L 149.803649 313.17859 
L 154.769358 321.693508 
L 159.735068 331.039768 
L 164.700777 340.931035 
L 169.666486 350.89416 
L 174.632196 360.234477 
L 179.597905 368.088753 
L 184.563615 373.561588 
L 189.529324 375.909034 
L 194.495034 374.71501 
L 199.460743 370.007966 
L 204.426453 362.283605 
L 209.392162 352.426494 
L 214.357872 341.549974 
L 219.323581 330.792647 
L 224.289291 321.117735 
L 229.255 313.158218 
L 234.220709 307.138821 
L 239.186419 302.888782 
L 244.152128 299.940356 
L 249.117838 297.689816 
L 254.083547 295.582459 
L 259.049257 293.274365 
L 264.014966 290.725656 
L 268.980676 288.196279 
L 273.946385 286.14487 
L 278.912095 285.065502 
L 283.877804 285.321904 
L 288.843514 287.040882 
L 293.809223 290.101793 
L 298.774932 294.21682 
L 303.740642 299.057454 
L 308.706351 304.365512 
L 313.672061 310.001144 
L 318.63777 315.916681 
L 323.60348 322.083666 
L 328.569189 328.420619 
L 333.534899 334.76124 
L 338.500608 340.875012 
L 343.466318 346.520912 
L 348.432027 351.498873 
L 353.397736 355.669002 
L 358.363446 358.930464 
L 363.329155 361.176739 
L 368.294865 362.258491 
L 373.260574 361.983671 
L 378.226284 360.168385 
L 383.191993 356.728835 
L 388.157703 351.78336 
L 393.123412 345.722674 
L 398.089122 339.210448 
L 403.054831 333.096443 
L 408.020541 328.254388 
L 412.98625 325.386002 
" style="fill:none;stroke:#1f77b4;stroke-linecap:round;stroke-width:1.5;"/>
   </g>
   <g id="line2d_36">
    <path clip-path="url(#pc39b387a93)" d="M 45.52375 348.364754 
L 50.489459 347.529208 
L 55.455169 344.729971 
L 60.420878 340.332763 
L 65.386588 334.688426 
L 70.352297 328.133547 
L 75.318007 321.00827 
L 80.283716 313.691093 
L 85.249426 306.643987 
L 90.215135 300.447868 
L 95.180845 295.797488 
L 100.146554 293.429084 
L 105.112264 293.977827 
L 110.077973 297.797407 
L 115.043682 304.803383 
L 120.009392 314.407784 
L 124.975101 325.587044 
L 129.940811 337.077739 
L 134.90652 347.644268 
L 139.87223 356.3333 
L 144.837939 362.634837 
L 149.803649 366.507176 
L 154.769358 368.275497 
L 159.735068 368.457676 
L 164.700777 367.587784 
L 169.666486 366.093639 
L 174.632196 364.25002 
L 179.597905 362.193527 
L 184.563615 359.96505 
L 189.529324 357.548174 
L 194.495034 354.889495 
L 199.460743 351.906512 
L 204.426453 348.497939 
L 209.392162 344.566803 
L 214.357872 340.053904 
L 219.323581 334.96871 
L 224.289291 329.402925 
L 229.255 323.520009 
L 234.220709 317.525309 
L 239.186419 311.630075 
L 244.152128 306.023566 
L 249.117838 300.86171 
L 254.083547 296.271909 
L 259.049257 292.365953 
L 264.014966 289.250285 
L 268.980676 287.025898 
L 273.946385 285.777489 
L 278.912095 285.558582 
L 283.877804 286.382191 
L 288.843514 288.222333 
L 293.809223 291.023719 
L 298.774932 294.710765 
L 303.740642 299.188497 
L 308.706351 304.336556 
L 313.672061 310.006078 
L 318.63777 316.030156 
L 323.60348 322.248056 
L 328.569189 328.528399 
L 333.534899 334.7681 
L 338.500608 340.85222 
L 343.466318 346.582871 
L 348.432027 351.611021 
L 353.397736 355.416405 
L 358.363446 357.367763 
L 363.329155 356.862142 
L 368.294865 353.504071 
L 373.260574 347.262973 
L 378.226284 338.551667 
L 383.191993 328.197483 
L 388.157703 317.315423 
L 393.123412 307.122575 
L 398.089122 298.743866 
L 403.054831 293.052019 
L 408.020541 290.567149 
L 412.98625 291.423554 
" style="fill:none;stroke:#ff7f0e;stroke-linecap:round;stroke-width:1.5;"/>
   </g>
   <g id="line2d_37">
    <path clip-path="url(#pc39b387a93)" d="M 45.52375 334.384974 
L 50.489459 333.417365 
L 55.455169 332.336204 
L 60.420878 331.305488 
L 65.386588 330.390455 
L 70.352297 329.495039 
L 75.318007 328.363202 
L 80.283716 326.647617 
L 85.249426 324.024091 
L 90.215135 320.314874 
L 95.180845 315.581828 
L 100.146554 310.160129 
L 105.112264 304.620936 
L 110.077973 299.671704 
L 115.043682 296.020379 
L 120.009392 294.239755 
L 124.975101 294.667261 
L 129.940811 297.363718 
L 134.90652 302.135248 
L 139.87223 308.60315 
L 144.837939 316.293197 
L 149.803649 324.713342 
L 154.769358 333.397189 
L 159.735068 341.907245 
L 164.700777 349.810432 
L 169.666486 356.651568 
L 174.632196 361.952204 
L 179.597905 365.250222 
L 184.563615 366.175031 
L 189.529324 364.53381 
L 194.495034 360.376467 
L 199.460743 354.015159 
L 204.426453 345.992745 
L 209.392162 337.012165 
L 214.357872 327.84598 
L 219.323581 319.240408 
L 224.289291 311.819634 
L 229.255 305.994297 
L 234.220709 301.887275 
L 239.186419 299.302735 
L 244.152128 297.767151 
L 249.117838 296.654063 
L 254.083547 295.369921 
L 259.049257 293.544418 
L 264.014966 291.154968 
L 268.980676 288.533774 
L 273.946385 286.251209 
L 278.912095 284.920023 
L 283.877804 284.996913 
L 288.843514 286.655838 
L 293.809223 289.773486 
L 298.774932 294.018573 
L 303.740642 298.996072 
L 308.706351 304.381997 
L 313.672061 309.997564 
L 318.63777 315.803768 
L 323.60348 321.832308 
L 328.569189 328.091035 
L 333.534899 334.485521 
L 338.500608 340.785254 
L 343.466318 346.641854 
L 348.432027 351.647669 
L 353.397736 355.411721 
L 358.363446 357.628301 
L 363.329155 358.120414 
L 368.294865 356.850558 
L 373.260574 353.902972 
L 378.226284 349.449483 
L 383.191993 343.714608 
L 388.157703 336.95322 
L 393.123412 329.446754 
L 398.089122 321.513784 
L 403.054831 313.521794 
L 408.020541 305.883406 
L 412.98625 299.025388 
" style="fill:none;stroke:#2ca02c;stroke-linecap:round;stroke-width:1.5;"/>
   </g>
   <g id="line2d_38">
    <path clip-path="url(#pc39b387a93)" d="M 45.52375 271.942624 
L 50.489459 267.482651 
L 55.455169 262.726897 
L 60.420878 258.67048 
L 65.386588 256.172391 
L 70.352297 255.784802 
L 75.318007 257.653132 
L 80.283716 261.516778 
L 85.249426 266.816013 
L 90.215135 272.878585 
L 95.180845 279.131445 
L 100.146554 285.270257 
L 105.112264 291.330224 
L 110.077973 297.633962 
L 115.043682 304.635087 
L 120.009392 312.712687 
L 124.975101 321.987661 
L 129.940811 332.221278 
L 134.90652 342.82486 
L 139.87223 352.971282 
L 144.837939 361.769211 
L 149.803649 368.448999 
L 154.769358 372.514869 
L 159.735068 373.83434 
L 164.700777 372.653247 
L 169.666486 369.538427 
L 174.632196 365.260218 
L 179.597905 360.636041 
L 184.563615 356.365846 
L 189.529324 352.89648 
L 194.495034 350.349593 
L 199.460743 348.532379 
L 204.426453 347.025548 
L 209.392162 345.317897 
L 214.357872 342.943322 
L 219.323581 339.581232 
L 224.289291 335.101766 
L 229.255 329.561807 
L 234.220709 323.173321 
L 239.186419 316.264945 
L 244.152128 309.245155 
L 249.117838 302.561663 
L 254.083547 296.648261 
L 259.049257 291.859815 
L 264.014966 288.411592 
L 268.980676 286.348206 
L 273.946385 285.56115 
L 278.912095 285.853742 
L 283.877804 287.028551 
L 288.843514 288.959704 
L 293.809223 291.618824 
L 298.774932 295.04603 
L 303.740642 299.284389 
L 308.706351 304.312858 
L 313.672061 310.010833 
L 318.63777 316.169545 
L 323.60348 322.540989 
L 328.569189 328.897368 
L 333.534899 335.070264 
L 338.500608 340.950343 
L 343.466318 346.448604 
L 348.432027 351.440516 
L 353.397736 355.725324 
L 358.363446 359.029473 
L 363.329155 361.065601 
L 368.294865 361.633199 
L 373.260574 360.724293 
L 378.226284 358.588191 
L 383.191993 355.719228 
L 388.157703 352.758053 
L 393.123412 350.330131 
L 398.089122 348.870558 
L 403.054831 348.491729 
L 408.020541 348.937068 
L 412.98625 349.636218 
" style="fill:none;stroke:#d62728;stroke-linecap:round;stroke-width:1.5;"/>
   </g>
   <g id="line2d_39">
    <path clip-path="url(#pc39b387a93)" d="M 45.52375 239.727216 
L 50.489459 242.264916 
L 55.455169 247.015817 
L 60.420878 253.24576 
L 65.386588 260.159197 
L 70.352297 267.048137 
L 75.318007 273.401105 
L 80.283716 278.945105 
L 85.249426 283.619592 
L 90.215135 287.506623 
L 95.180845 290.755235 
L 100.146554 293.533108 
L 105.112264 296.01794 
L 110.077973 298.415787 
L 115.043682 300.978302 
L 120.009392 303.993064 
L 124.975101 307.739116 
L 129.940811 312.421073 
L 134.90652 318.107454 
L 139.87223 324.6959 
L 144.837939 331.914371 
L 149.803649 339.35346 
L 154.769358 346.519021 
L 159.735068 352.8962 
L 164.700777 358.019421 
L 169.666486 361.541137 
L 174.632196 363.285496 
L 179.597905 363.268482 
L 184.563615 361.671749 
L 189.529324 358.774587 
L 194.495034 354.86899 
L 199.460743 350.193605 
L 204.426453 344.914625 
L 209.392162 339.157334 
L 214.357872 333.064411 
L 219.323581 326.841718 
L 224.289291 320.759005 
L 229.255 315.098305 
L 234.220709 310.073166 
L 239.186419 305.759963 
L 244.152128 302.079053 
L 249.117838 298.840091 
L 254.083547 295.835259 
L 259.049257 292.941898 
L 264.014966 290.192172 
L 268.980676 287.782277 
L 273.946385 286.019125 
L 278.912095 285.226677 
L 283.877804 285.647476 
L 288.843514 287.374366 
L 293.809223 290.333818 
L 298.774932 294.322551 
L 303.740642 299.079372 
L 308.706351 304.362402 
L 313.672061 310.001276 
L 318.63777 315.905912 
L 323.60348 322.032385 
L 328.569189 328.324982 
L 333.534899 334.663254 
L 338.500608 340.838934 
L 343.466318 346.573155 
L 348.432027 351.565463 
L 353.397736 355.553327 
L 358.363446 358.359324 
L 363.329155 359.912373 
L 368.294865 360.243624 
L 373.260574 359.467502 
L 378.226284 357.759445 
L 383.191993 355.335015 
L 388.157703 352.42698 
L 393.123412 349.254608 
L 398.089122 345.985823 
L 403.054831 342.702984 
L 408.020541 339.389031 
L 412.98625 335.945639 
" style="fill:none;stroke:#9467bd;stroke-linecap:round;stroke-width:1.5;"/>
   </g>
   <g id="patch_10">
    <path d="M 45.52375 382.718125 
L 45.52375 232.918125 
" style="fill:none;stroke:#ffffff;stroke-linecap:square;stroke-linejoin:miter;stroke-width:0.8;"/>
   </g>
   <g id="patch_11">
    <path d="M 412.98625 382.718125 
L 412.98625 232.918125 
" style="fill:none;stroke:#ffffff;stroke-linecap:square;stroke-linejoin:miter;stroke-width:0.8;"/>
   </g>
   <g id="patch_12">
    <path d="M 45.52375 382.718125 
L 412.98625 382.718125 
" style="fill:none;stroke:#ffffff;stroke-linecap:square;stroke-linejoin:miter;stroke-width:0.8;"/>
   </g>
   <g id="patch_13">
    <path d="M 45.52375 232.918125 
L 412.98625 232.918125 
" style="fill:none;stroke:#ffffff;stroke-linecap:square;stroke-linejoin:miter;stroke-width:0.8;"/>
   </g>
   <g id="text_35">
    <!-- 5 different function realizations from posterior -->
    <g style="fill:#262626;" transform="translate(90.464688 226.918125)scale(0.12 -0.12)">
     <defs>
      <path d="M 691 4666 
L 3169 4666 
L 3169 4134 
L 1269 4134 
L 1269 2991 
Q 1406 3038 1543 3061 
Q 1681 3084 1819 3084 
Q 2600 3084 3056 2656 
Q 3513 2228 3513 1497 
Q 3513 744 3044 326 
Q 2575 -91 1722 -91 
Q 1428 -91 1123 -41 
Q 819 9 494 109 
L 494 744 
Q 775 591 1075 516 
Q 1375 441 1709 441 
Q 2250 441 2565 725 
Q 2881 1009 2881 1497 
Q 2881 1984 2565 2268 
Q 2250 2553 1709 2553 
Q 1456 2553 1204 2497 
Q 953 2441 691 2322 
L 691 4666 
z
" id="DejaVuSans-35" transform="scale(0.015625)"/>
      <path d="M 3122 3366 
L 3122 2828 
Q 2878 2963 2633 3030 
Q 2388 3097 2138 3097 
Q 1578 3097 1268 2742 
Q 959 2388 959 1747 
Q 959 1106 1268 751 
Q 1578 397 2138 397 
Q 2388 397 2633 464 
Q 2878 531 3122 666 
L 3122 134 
Q 2881 22 2623 -34 
Q 2366 -91 2075 -91 
Q 1284 -91 818 406 
Q 353 903 353 1747 
Q 353 2603 823 3093 
Q 1294 3584 2113 3584 
Q 2378 3584 2631 3529 
Q 2884 3475 3122 3366 
z
" id="DejaVuSans-63" transform="scale(0.015625)"/>
      <path d="M 603 4863 
L 1178 4863 
L 1178 0 
L 603 0 
L 603 4863 
z
" id="DejaVuSans-6c" transform="scale(0.015625)"/>
      <path d="M 353 3500 
L 3084 3500 
L 3084 2975 
L 922 459 
L 3084 459 
L 3084 0 
L 275 0 
L 275 525 
L 2438 3041 
L 353 3041 
L 353 3500 
z
" id="DejaVuSans-7a" transform="scale(0.015625)"/>
      <path d="M 3328 2828 
Q 3544 3216 3844 3400 
Q 4144 3584 4550 3584 
Q 5097 3584 5394 3201 
Q 5691 2819 5691 2113 
L 5691 0 
L 5113 0 
L 5113 2094 
Q 5113 2597 4934 2840 
Q 4756 3084 4391 3084 
Q 3944 3084 3684 2787 
Q 3425 2491 3425 1978 
L 3425 0 
L 2847 0 
L 2847 2094 
Q 2847 2600 2669 2842 
Q 2491 3084 2119 3084 
Q 1678 3084 1418 2786 
Q 1159 2488 1159 1978 
L 1159 0 
L 581 0 
L 581 3500 
L 1159 3500 
L 1159 2956 
Q 1356 3278 1631 3431 
Q 1906 3584 2284 3584 
Q 2666 3584 2933 3390 
Q 3200 3197 3328 2828 
z
" id="DejaVuSans-6d" transform="scale(0.015625)"/>
     </defs>
     <use xlink:href="#DejaVuSans-35"/>
     <use x="63.623047" xlink:href="#DejaVuSans-20"/>
     <use x="95.410156" xlink:href="#DejaVuSans-64"/>
     <use x="158.886719" xlink:href="#DejaVuSans-69"/>
     <use x="186.669922" xlink:href="#DejaVuSans-66"/>
     <use x="221.875" xlink:href="#DejaVuSans-66"/>
     <use x="257.080078" xlink:href="#DejaVuSans-65"/>
     <use x="318.603516" xlink:href="#DejaVuSans-72"/>
     <use x="357.466797" xlink:href="#DejaVuSans-65"/>
     <use x="418.990234" xlink:href="#DejaVuSans-6e"/>
     <use x="482.369141" xlink:href="#DejaVuSans-74"/>
     <use x="521.578125" xlink:href="#DejaVuSans-20"/>
     <use x="553.365234" xlink:href="#DejaVuSans-66"/>
     <use x="588.570312" xlink:href="#DejaVuSans-75"/>
     <use x="651.949219" xlink:href="#DejaVuSans-6e"/>
     <use x="715.328125" xlink:href="#DejaVuSans-63"/>
     <use x="770.308594" xlink:href="#DejaVuSans-74"/>
     <use x="809.517578" xlink:href="#DejaVuSans-69"/>
     <use x="837.300781" xlink:href="#DejaVuSans-6f"/>
     <use x="898.482422" xlink:href="#DejaVuSans-6e"/>
     <use x="961.861328" xlink:href="#DejaVuSans-20"/>
     <use x="993.648438" xlink:href="#DejaVuSans-72"/>
     <use x="1032.511719" xlink:href="#DejaVuSans-65"/>
     <use x="1094.035156" xlink:href="#DejaVuSans-61"/>
     <use x="1155.314453" xlink:href="#DejaVuSans-6c"/>
     <use x="1183.097656" xlink:href="#DejaVuSans-69"/>
     <use x="1210.880859" xlink:href="#DejaVuSans-7a"/>
     <use x="1263.371094" xlink:href="#DejaVuSans-61"/>
     <use x="1324.650391" xlink:href="#DejaVuSans-74"/>
     <use x="1363.859375" xlink:href="#DejaVuSans-69"/>
     <use x="1391.642578" xlink:href="#DejaVuSans-6f"/>
     <use x="1452.824219" xlink:href="#DejaVuSans-6e"/>
     <use x="1516.203125" xlink:href="#DejaVuSans-73"/>
     <use x="1568.302734" xlink:href="#DejaVuSans-20"/>
     <use x="1600.089844" xlink:href="#DejaVuSans-66"/>
     <use x="1635.294922" xlink:href="#DejaVuSans-72"/>
     <use x="1674.158203" xlink:href="#DejaVuSans-6f"/>
     <use x="1735.339844" xlink:href="#DejaVuSans-6d"/>
     <use x="1832.751953" xlink:href="#DejaVuSans-20"/>
     <use x="1864.539062" xlink:href="#DejaVuSans-70"/>
     <use x="1928.015625" xlink:href="#DejaVuSans-6f"/>
     <use x="1989.197266" xlink:href="#DejaVuSans-73"/>
     <use x="2041.296875" xlink:href="#DejaVuSans-74"/>
     <use x="2080.505859" xlink:href="#DejaVuSans-65"/>
     <use x="2142.029297" xlink:href="#DejaVuSans-72"/>
     <use x="2183.142578" xlink:href="#DejaVuSans-69"/>
     <use x="2210.925781" xlink:href="#DejaVuSans-6f"/>
     <use x="2272.107422" xlink:href="#DejaVuSans-72"/>
    </g>
   </g>
  </g>
 </g>
 <defs>
  <clipPath id="p4f827bbe3c">
   <rect height="149.8" width="367.4625" x="45.52375" y="22.318125"/>
  </clipPath>
  <clipPath id="pc39b387a93">
   <rect height="149.8" width="367.4625" x="45.52375" y="232.918125"/>
  </clipPath>
 </defs>
</svg>
