<?xml version="1.0" encoding="utf-8" standalone="no"?>
<!DOCTYPE svg PUBLIC "-//W3C//DTD SVG 1.1//EN"
  "http://www.w3.org/Graphics/SVG/1.1/DTD/svg11.dtd">
<svg height="423.177812pt" version="1.1" viewBox="0 0 423.408125 423.177812" width="423.408125pt" xmlns="http://www.w3.org/2000/svg" xmlns:xlink="http://www.w3.org/1999/xlink">
 <metadata>
  <rdf:RDF xmlns:cc="http://creativecommons.org/ns#" xmlns:dc="http://purl.org/dc/elements/1.1/" xmlns:rdf="http://www.w3.org/1999/02/22-rdf-syntax-ns#">
   <cc:Work>
    <dc:type rdf:resource="http://purl.org/dc/dcmitype/StillImage"/>
    <dc:date>2021-09-03T18:21:24.330833</dc:date>
    <dc:format>image/svg+xml</dc:format>
    <dc:creator>
     <cc:Agent>
      <dc:title>Matplotlib v3.4.3, https://matplotlib.org/</dc:title>
     </cc:Agent>
    </dc:creator>
   </cc:Work>
  </rdf:RDF>
 </metadata>
 <defs>
  <style type="text/css">*{stroke-linecap:butt;stroke-linejoin:round;}</style>
 </defs>
 <g id="figure_1">
  <g id="patch_1">
   <path d="M 0 423.177812 
L 423.408125 423.177812 
L 423.408125 0 
L 0 0 
z
" style="fill:#ffffff;"/>
  </g>
  <g id="axes_1">
   <g id="patch_2">
    <path d="M 55.064375 172.118125 
L 413.026875 172.118125 
L 413.026875 22.318125 
L 55.064375 22.318125 
z
" style="fill:#eaeaf2;"/>
   </g>
   <g id="matplotlib.axis_1">
    <g id="xtick_1">
     <g id="line2d_1">
      <path clip-path="url(#pb2552d731e)" d="M 55.064375 172.118125 
L 55.064375 22.318125 
" style="fill:none;stroke:#ffffff;stroke-linecap:round;stroke-width:0.8;"/>
     </g>
     <g id="text_1">
      <!-- −6 -->
      <g style="fill:#262626;" transform="translate(47.693281 186.716562)scale(0.1 -0.1)">
       <defs>
        <path d="M 678 2272 
L 4684 2272 
L 4684 1741 
L 678 1741 
L 678 2272 
z
" id="DejaVuSans-2212" transform="scale(0.015625)"/>
        <path d="M 2113 2584 
Q 1688 2584 1439 2293 
Q 1191 2003 1191 1497 
Q 1191 994 1439 701 
Q 1688 409 2113 409 
Q 2538 409 2786 701 
Q 3034 994 3034 1497 
Q 3034 2003 2786 2293 
Q 2538 2584 2113 2584 
z
M 3366 4563 
L 3366 3988 
Q 3128 4100 2886 4159 
Q 2644 4219 2406 4219 
Q 1781 4219 1451 3797 
Q 1122 3375 1075 2522 
Q 1259 2794 1537 2939 
Q 1816 3084 2150 3084 
Q 2853 3084 3261 2657 
Q 3669 2231 3669 1497 
Q 3669 778 3244 343 
Q 2819 -91 2113 -91 
Q 1303 -91 875 529 
Q 447 1150 447 2328 
Q 447 3434 972 4092 
Q 1497 4750 2381 4750 
Q 2619 4750 2861 4703 
Q 3103 4656 3366 4563 
z
" id="DejaVuSans-36" transform="scale(0.015625)"/>
       </defs>
       <use xlink:href="#DejaVuSans-2212"/>
       <use x="83.789062" xlink:href="#DejaVuSans-36"/>
      </g>
     </g>
    </g>
    <g id="xtick_2">
     <g id="line2d_2">
      <path clip-path="url(#pb2552d731e)" d="M 114.724792 172.118125 
L 114.724792 22.318125 
" style="fill:none;stroke:#ffffff;stroke-linecap:round;stroke-width:0.8;"/>
     </g>
     <g id="text_2">
      <!-- −4 -->
      <g style="fill:#262626;" transform="translate(107.353698 186.716562)scale(0.1 -0.1)">
       <defs>
        <path d="M 2419 4116 
L 825 1625 
L 2419 1625 
L 2419 4116 
z
M 2253 4666 
L 3047 4666 
L 3047 1625 
L 3713 1625 
L 3713 1100 
L 3047 1100 
L 3047 0 
L 2419 0 
L 2419 1100 
L 313 1100 
L 313 1709 
L 2253 4666 
z
" id="DejaVuSans-34" transform="scale(0.015625)"/>
       </defs>
       <use xlink:href="#DejaVuSans-2212"/>
       <use x="83.789062" xlink:href="#DejaVuSans-34"/>
      </g>
     </g>
    </g>
    <g id="xtick_3">
     <g id="line2d_3">
      <path clip-path="url(#pb2552d731e)" d="M 174.385208 172.118125 
L 174.385208 22.318125 
" style="fill:none;stroke:#ffffff;stroke-linecap:round;stroke-width:0.8;"/>
     </g>
     <g id="text_3">
      <!-- −2 -->
      <g style="fill:#262626;" transform="translate(167.014115 186.716562)scale(0.1 -0.1)">
       <defs>
        <path d="M 1228 531 
L 3431 531 
L 3431 0 
L 469 0 
L 469 531 
Q 828 903 1448 1529 
Q 2069 2156 2228 2338 
Q 2531 2678 2651 2914 
Q 2772 3150 2772 3378 
Q 2772 3750 2511 3984 
Q 2250 4219 1831 4219 
Q 1534 4219 1204 4116 
Q 875 4013 500 3803 
L 500 4441 
Q 881 4594 1212 4672 
Q 1544 4750 1819 4750 
Q 2544 4750 2975 4387 
Q 3406 4025 3406 3419 
Q 3406 3131 3298 2873 
Q 3191 2616 2906 2266 
Q 2828 2175 2409 1742 
Q 1991 1309 1228 531 
z
" id="DejaVuSans-32" transform="scale(0.015625)"/>
       </defs>
       <use xlink:href="#DejaVuSans-2212"/>
       <use x="83.789062" xlink:href="#DejaVuSans-32"/>
      </g>
     </g>
    </g>
    <g id="xtick_4">
     <g id="line2d_4">
      <path clip-path="url(#pb2552d731e)" d="M 234.045625 172.118125 
L 234.045625 22.318125 
" style="fill:none;stroke:#ffffff;stroke-linecap:round;stroke-width:0.8;"/>
     </g>
     <g id="text_4">
      <!-- 0 -->
      <g style="fill:#262626;" transform="translate(230.864375 186.716562)scale(0.1 -0.1)">
       <defs>
        <path d="M 2034 4250 
Q 1547 4250 1301 3770 
Q 1056 3291 1056 2328 
Q 1056 1369 1301 889 
Q 1547 409 2034 409 
Q 2525 409 2770 889 
Q 3016 1369 3016 2328 
Q 3016 3291 2770 3770 
Q 2525 4250 2034 4250 
z
M 2034 4750 
Q 2819 4750 3233 4129 
Q 3647 3509 3647 2328 
Q 3647 1150 3233 529 
Q 2819 -91 2034 -91 
Q 1250 -91 836 529 
Q 422 1150 422 2328 
Q 422 3509 836 4129 
Q 1250 4750 2034 4750 
z
" id="DejaVuSans-30" transform="scale(0.015625)"/>
       </defs>
       <use xlink:href="#DejaVuSans-30"/>
      </g>
     </g>
    </g>
    <g id="xtick_5">
     <g id="line2d_5">
      <path clip-path="url(#pb2552d731e)" d="M 293.706042 172.118125 
L 293.706042 22.318125 
" style="fill:none;stroke:#ffffff;stroke-linecap:round;stroke-width:0.8;"/>
     </g>
     <g id="text_5">
      <!-- 2 -->
      <g style="fill:#262626;" transform="translate(290.524792 186.716562)scale(0.1 -0.1)">
       <use xlink:href="#DejaVuSans-32"/>
      </g>
     </g>
    </g>
    <g id="xtick_6">
     <g id="line2d_6">
      <path clip-path="url(#pb2552d731e)" d="M 353.366458 172.118125 
L 353.366458 22.318125 
" style="fill:none;stroke:#ffffff;stroke-linecap:round;stroke-width:0.8;"/>
     </g>
     <g id="text_6">
      <!-- 4 -->
      <g style="fill:#262626;" transform="translate(350.185208 186.716562)scale(0.1 -0.1)">
       <use xlink:href="#DejaVuSans-34"/>
      </g>
     </g>
    </g>
    <g id="xtick_7">
     <g id="line2d_7">
      <path clip-path="url(#pb2552d731e)" d="M 413.026875 172.118125 
L 413.026875 22.318125 
" style="fill:none;stroke:#ffffff;stroke-linecap:round;stroke-width:0.8;"/>
     </g>
     <g id="text_7">
      <!-- 6 -->
      <g style="fill:#262626;" transform="translate(409.845625 186.716562)scale(0.1 -0.1)">
       <use xlink:href="#DejaVuSans-36"/>
      </g>
     </g>
    </g>
    <g id="text_8">
     <!-- $x$ -->
     <g style="fill:#262626;" transform="translate(230.145625 202.674219)scale(0.13 -0.13)">
      <defs>
       <path d="M 3841 3500 
L 2234 1784 
L 3219 0 
L 2559 0 
L 1819 1388 
L 531 0 
L -166 0 
L 1556 1844 
L 641 3500 
L 1300 3500 
L 1972 2234 
L 3144 3500 
L 3841 3500 
z
" id="DejaVuSans-Oblique-78" transform="scale(0.015625)"/>
      </defs>
      <use transform="translate(0 0.3125)" xlink:href="#DejaVuSans-Oblique-78"/>
     </g>
    </g>
   </g>
   <g id="matplotlib.axis_2">
    <g id="ytick_1">
     <g id="line2d_8">
      <path clip-path="url(#pb2552d731e)" d="M 55.064375 172.118125 
L 413.026875 172.118125 
" style="fill:none;stroke:#ffffff;stroke-linecap:round;stroke-width:0.8;"/>
     </g>
     <g id="text_9">
      <!-- −3 -->
      <g style="fill:#262626;" transform="translate(33.322188 175.917344)scale(0.1 -0.1)">
       <defs>
        <path d="M 2597 2516 
Q 3050 2419 3304 2112 
Q 3559 1806 3559 1356 
Q 3559 666 3084 287 
Q 2609 -91 1734 -91 
Q 1441 -91 1130 -33 
Q 819 25 488 141 
L 488 750 
Q 750 597 1062 519 
Q 1375 441 1716 441 
Q 2309 441 2620 675 
Q 2931 909 2931 1356 
Q 2931 1769 2642 2001 
Q 2353 2234 1838 2234 
L 1294 2234 
L 1294 2753 
L 1863 2753 
Q 2328 2753 2575 2939 
Q 2822 3125 2822 3475 
Q 2822 3834 2567 4026 
Q 2313 4219 1838 4219 
Q 1578 4219 1281 4162 
Q 984 4106 628 3988 
L 628 4550 
Q 988 4650 1302 4700 
Q 1616 4750 1894 4750 
Q 2613 4750 3031 4423 
Q 3450 4097 3450 3541 
Q 3450 3153 3228 2886 
Q 3006 2619 2597 2516 
z
" id="DejaVuSans-33" transform="scale(0.015625)"/>
       </defs>
       <use xlink:href="#DejaVuSans-2212"/>
       <use x="83.789062" xlink:href="#DejaVuSans-33"/>
      </g>
     </g>
    </g>
    <g id="ytick_2">
     <g id="line2d_9">
      <path clip-path="url(#pb2552d731e)" d="M 55.064375 147.151458 
L 413.026875 147.151458 
" style="fill:none;stroke:#ffffff;stroke-linecap:round;stroke-width:0.8;"/>
     </g>
     <g id="text_10">
      <!-- −2 -->
      <g style="fill:#262626;" transform="translate(33.322188 150.950677)scale(0.1 -0.1)">
       <use xlink:href="#DejaVuSans-2212"/>
       <use x="83.789062" xlink:href="#DejaVuSans-32"/>
      </g>
     </g>
    </g>
    <g id="ytick_3">
     <g id="line2d_10">
      <path clip-path="url(#pb2552d731e)" d="M 55.064375 122.184792 
L 413.026875 122.184792 
" style="fill:none;stroke:#ffffff;stroke-linecap:round;stroke-width:0.8;"/>
     </g>
     <g id="text_11">
      <!-- −1 -->
      <g style="fill:#262626;" transform="translate(33.322188 125.98401)scale(0.1 -0.1)">
       <defs>
        <path d="M 794 531 
L 1825 531 
L 1825 4091 
L 703 3866 
L 703 4441 
L 1819 4666 
L 2450 4666 
L 2450 531 
L 3481 531 
L 3481 0 
L 794 0 
L 794 531 
z
" id="DejaVuSans-31" transform="scale(0.015625)"/>
       </defs>
       <use xlink:href="#DejaVuSans-2212"/>
       <use x="83.789062" xlink:href="#DejaVuSans-31"/>
      </g>
     </g>
    </g>
    <g id="ytick_4">
     <g id="line2d_11">
      <path clip-path="url(#pb2552d731e)" d="M 55.064375 97.218125 
L 413.026875 97.218125 
" style="fill:none;stroke:#ffffff;stroke-linecap:round;stroke-width:0.8;"/>
     </g>
     <g id="text_12">
      <!-- 0 -->
      <g style="fill:#262626;" transform="translate(41.701875 101.017344)scale(0.1 -0.1)">
       <use xlink:href="#DejaVuSans-30"/>
      </g>
     </g>
    </g>
    <g id="ytick_5">
     <g id="line2d_12">
      <path clip-path="url(#pb2552d731e)" d="M 55.064375 72.251458 
L 413.026875 72.251458 
" style="fill:none;stroke:#ffffff;stroke-linecap:round;stroke-width:0.8;"/>
     </g>
     <g id="text_13">
      <!-- 1 -->
      <g style="fill:#262626;" transform="translate(41.701875 76.050677)scale(0.1 -0.1)">
       <use xlink:href="#DejaVuSans-31"/>
      </g>
     </g>
    </g>
    <g id="ytick_6">
     <g id="line2d_13">
      <path clip-path="url(#pb2552d731e)" d="M 55.064375 47.284792 
L 413.026875 47.284792 
" style="fill:none;stroke:#ffffff;stroke-linecap:round;stroke-width:0.8;"/>
     </g>
     <g id="text_14">
      <!-- 2 -->
      <g style="fill:#262626;" transform="translate(41.701875 51.08401)scale(0.1 -0.1)">
       <use xlink:href="#DejaVuSans-32"/>
      </g>
     </g>
    </g>
    <g id="ytick_7">
     <g id="line2d_14">
      <path clip-path="url(#pb2552d731e)" d="M 55.064375 22.318125 
L 413.026875 22.318125 
" style="fill:none;stroke:#ffffff;stroke-linecap:round;stroke-width:0.8;"/>
     </g>
     <g id="text_15">
      <!-- 3 -->
      <g style="fill:#262626;" transform="translate(41.701875 26.117344)scale(0.1 -0.1)">
       <use xlink:href="#DejaVuSans-33"/>
      </g>
     </g>
    </g>
    <g id="text_16">
     <!-- $y$ -->
     <g style="fill:#262626;" transform="translate(26.592188 101.118125)rotate(-90)scale(0.13 -0.13)">
      <defs>
       <path d="M 1588 -325 
Q 1188 -997 936 -1164 
Q 684 -1331 294 -1331 
L -159 -1331 
L -63 -850 
L 269 -850 
Q 509 -850 678 -719 
Q 847 -588 1056 -206 
L 1234 128 
L 459 3500 
L 1069 3500 
L 1650 819 
L 3256 3500 
L 3859 3500 
L 1588 -325 
z
" id="DejaVuSans-Oblique-79" transform="scale(0.015625)"/>
      </defs>
      <use transform="translate(0 0.3125)" xlink:href="#DejaVuSans-Oblique-79"/>
     </g>
    </g>
   </g>
   <g id="PolyCollection_1">
    <defs>
     <path d="M 55.064375 -378.762078 
L 55.064375 -280.212153 
L 59.901706 -282.106186 
L 64.739037 -284.67652 
L 69.576368 -288.061595 
L 74.413699 -292.367741 
L 79.25103 -297.63304 
L 84.088361 -303.789878 
L 88.925693 -310.635963 
L 93.763024 -317.824437 
L 98.600355 -324.881547 
L 103.437686 -331.255145 
L 108.275017 -336.389918 
L 113.112348 -339.817323 
L 117.949679 -341.241976 
L 122.78701 -339.211039 
L 127.624341 -334.844278 
L 132.461672 -331.102255 
L 137.299003 -327.788455 
L 142.136334 -324.244238 
L 146.973666 -319.428965 
L 151.810997 -315.242671 
L 156.648328 -311.82005 
L 161.485659 -309.075501 
L 166.32299 -306.760868 
L 171.160321 -304.459023 
L 175.997652 -302.194491 
L 180.834983 -299.514374 
L 185.672314 -296.551396 
L 190.509645 -293.525868 
L 195.346976 -290.80863 
L 200.184307 -288.851015 
L 205.021639 -288.101144 
L 209.85897 -288.925043 
L 214.696301 -291.546805 
L 219.533632 -296.015211 
L 224.370963 -302.197554 
L 229.208294 -309.796446 
L 234.045625 -318.383074 
L 238.882956 -327.440361 
L 243.720287 -329.955964 
L 248.557618 -326.164809 
L 253.394949 -323.206319 
L 258.23228 -321.573931 
L 263.069611 -321.572194 
L 267.906943 -323.265726 
L 272.744274 -326.457718 
L 277.581605 -330.705212 
L 282.418936 -335.373946 
L 287.256267 -339.728952 
L 292.093598 -343.049552 
L 296.930929 -344.750653 
L 301.76826 -344.488366 
L 306.605591 -342.212021 
L 311.442922 -338.263511 
L 316.280253 -333.16917 
L 321.117584 -327.713094 
L 325.954916 -322.727408 
L 330.792247 -318.97381 
L 335.629578 -317.026272 
L 340.466909 -314.894035 
L 345.30424 -308.621413 
L 350.141571 -302.142899 
L 354.978902 -295.822408 
L 359.816233 -290.011042 
L 364.653564 -284.991836 
L 369.490895 -280.942536 
L 374.328226 -277.921586 
L 379.165557 -275.876811 
L 384.002889 -274.671591 
L 388.84022 -274.120462 
L 393.677551 -274.025514 
L 398.514882 -274.206285 
L 403.352213 -274.518744 
L 408.189544 -274.862381 
L 413.026875 -275.177492 
L 413.026875 -374.789158 
L 413.026875 -374.789158 
L 408.189544 -374.188839 
L 403.352213 -373.303001 
L 398.514882 -372.020903 
L 393.677551 -370.208772 
L 388.84022 -367.720411 
L 384.002889 -364.41847 
L 379.165557 -360.206097 
L 374.328226 -355.065006 
L 369.490895 -349.092377 
L 364.653564 -342.526631 
L 359.816233 -335.752042 
L 354.978902 -329.274732 
L 350.141571 -323.667818 
L 345.30424 -319.490485 
L 340.466909 -317.193107 
L 335.629578 -320.646884 
L 330.792247 -325.672856 
L 325.954916 -329.908529 
L 321.117584 -333.441175 
L 316.280253 -336.482433 
L 311.442922 -339.313269 
L 306.605591 -342.228657 
L 301.76826 -345.381659 
L 296.930929 -348.89261 
L 292.093598 -352.653601 
L 287.256267 -356.416127 
L 282.418936 -359.810401 
L 277.581605 -362.404062 
L 272.744274 -363.771072 
L 267.906943 -363.557803 
L 263.069611 -361.535681 
L 258.23228 -357.634019 
L 253.394949 -351.951113 
L 248.557618 -344.745428 
L 243.720287 -336.410811 
L 238.882956 -333.968619 
L 234.045625 -337.555467 
L 229.208294 -340.11614 
L 224.370963 -341.173909 
L 219.533632 -340.438789 
L 214.696301 -337.850253 
L 209.85897 -333.593187 
L 205.021639 -328.082068 
L 200.184307 -321.911427 
L 195.346976 -315.775678 
L 190.509645 -310.367937 
L 185.672314 -306.273789 
L 180.834983 -303.880105 
L 175.997652 -303.318701 
L 171.160321 -304.559965 
L 166.32299 -306.953605 
L 161.485659 -310.3273 
L 156.648328 -314.089788 
L 151.810997 -317.84421 
L 146.973666 -321.365414 
L 142.136334 -324.629357 
L 137.299003 -329.329049 
L 132.461672 -334.150801 
L 127.624341 -338.099428 
L 122.78701 -340.603944 
L 117.949679 -344.256852 
L 113.112348 -349.869278 
L 108.275017 -355.788068 
L 103.437686 -361.658927 
L 98.600355 -367.105543 
L 93.763024 -371.800837 
L 88.925693 -375.521204 
L 84.088361 -378.173924 
L 79.25103 -379.795762 
L 74.413699 -380.527651 
L 69.576368 -380.574863 
L 64.739037 -380.163556 
L 59.901706 -379.503324 
L 55.064375 -378.762078 
z
" id="m0d73eab6b9" style="stroke:#ff0000;stroke-opacity:0.15;"/>
    </defs>
    <g clip-path="url(#pb2552d731e)">
     <use style="fill:#ff0000;fill-opacity:0.15;stroke:#ff0000;stroke-opacity:0.15;" x="0" xlink:href="#m0d73eab6b9" y="423.177812"/>
    </g>
   </g>
   <g id="line2d_15">
    <path clip-path="url(#pb2552d731e)" d="M 55.064375 90.242051 
L 59.901706 86.463197 
L 64.739037 82.966541 
L 69.576368 79.843832 
L 74.413699 77.177007 
L 79.25103 75.036041 
L 84.088361 73.477111 
L 88.925693 72.54112 
L 93.763024 72.25263 
L 98.600355 72.619208 
L 103.437686 73.631238 
L 108.275017 75.262164 
L 113.112348 77.469192 
L 117.949679 80.194412 
L 122.78701 83.366317 
L 127.624341 86.901679 
L 132.461672 90.707735 
L 137.299003 94.684617 
L 142.136334 98.727975 
L 146.973666 102.731717 
L 151.810997 106.590787 
L 156.648328 110.203929 
L 161.485659 113.476336 
L 166.32299 116.322143 
L 171.160321 118.666681 
L 175.997652 120.44843 
L 180.834983 121.62064 
L 185.672314 122.152552 
L 190.509645 122.030209 
L 195.346976 121.256823 
L 200.184307 119.852686 
L 205.021639 117.85464 
L 209.85897 115.315113 
L 214.696301 112.30074 
L 219.533632 108.890613 
L 224.370963 105.174213 
L 229.208294 101.249053 
L 234.045625 97.218125 
L 238.882956 93.187197 
L 243.720287 89.262037 
L 248.557618 85.545637 
L 253.394949 82.13551 
L 258.23228 79.121137 
L 263.069611 76.58161 
L 267.906943 74.583564 
L 272.744274 73.179427 
L 277.581605 72.406041 
L 282.418936 72.283698 
L 287.256267 72.81561 
L 292.093598 73.98782 
L 296.930929 75.769569 
L 301.76826 78.114107 
L 306.605591 80.959914 
L 311.442922 84.232321 
L 316.280253 87.845463 
L 321.117584 91.704533 
L 325.954916 95.708275 
L 330.792247 99.751633 
L 335.629578 103.728515 
L 340.466909 107.534571 
L 345.30424 111.069933 
L 350.141571 114.241838 
L 354.978902 116.967058 
L 359.816233 119.174086 
L 364.653564 120.805012 
L 369.490895 121.817042 
L 374.328226 122.18362 
L 379.165557 121.89513 
L 384.002889 120.959139 
L 388.84022 119.400209 
L 393.677551 117.259243 
L 398.514882 114.592418 
L 403.352213 111.469709 
L 408.189544 107.973053 
L 413.026875 104.194199 
" style="fill:none;stroke:#0000ff;stroke-dasharray:5.55,2.4;stroke-dashoffset:0;stroke-width:1.5;"/>
   </g>
   <g id="line2d_16">
    <path clip-path="url(#pb2552d731e)" d="M 55.064375 93.690697 
L 59.901706 92.373057 
L 64.739037 90.757774 
L 69.576368 88.859584 
L 74.413699 86.730116 
L 79.25103 84.463411 
L 84.088361 82.195911 
L 88.925693 80.099229 
L 93.763024 78.365175 
L 98.600355 77.184267 
L 103.437686 76.720776 
L 108.275017 77.08882 
L 113.112348 78.334512 
L 117.949679 80.428399 
L 122.78701 83.270321 
L 127.624341 86.70596 
L 132.461672 90.551284 
L 137.299003 94.61906 
L 142.136334 98.741015 
L 146.973666 102.780623 
L 151.810997 106.634372 
L 156.648328 110.222893 
L 161.485659 113.476412 
L 166.32299 116.320576 
L 171.160321 118.668318 
L 175.997652 120.421217 
L 180.834983 121.480573 
L 185.672314 121.76522 
L 190.509645 121.23091 
L 195.346976 119.885659 
L 200.184307 117.796592 
L 205.021639 115.086207 
L 209.85897 111.918697 
L 214.696301 108.479283 
L 219.533632 104.950812 
L 224.370963 101.492081 
L 229.208294 98.22152 
L 234.045625 95.208542 
L 238.882956 92.473322 
L 243.720287 89.994425 
L 248.557618 87.722694 
L 253.394949 85.599096 
L 258.23228 83.573837 
L 263.069611 81.623875 
L 267.906943 79.766048 
L 272.744274 78.063417 
L 277.581605 76.623176 
L 282.418936 75.585639 
L 287.256267 75.105273 
L 292.093598 75.326236 
L 296.930929 76.356181 
L 301.76826 78.2428 
L 306.605591 80.957473 
L 311.442922 84.389422 
L 316.280253 88.352011 
L 321.117584 92.600678 
L 325.954916 96.859844 
L 330.792247 100.854479 
L 335.629578 104.341234 
L 340.466909 107.134242 
L 345.30424 109.121864 
L 350.141571 110.272454 
L 354.978902 110.629243 
L 359.816233 110.29627 
L 364.653564 109.418579 
L 369.490895 108.160356 
L 374.328226 106.684517 
L 379.165557 105.136358 
L 384.002889 103.632782 
L 388.84022 102.257376 
L 393.677551 101.06067 
L 398.514882 100.064218 
L 403.352213 99.26694 
L 408.189544 98.652203 
L 413.026875 98.194488 
" style="fill:none;stroke:#ff0000;stroke-linecap:round;stroke-width:2;"/>
   </g>
   <g id="line2d_17">
    <defs>
     <path d="M 0 3 
C 0.795609 3 1.55874 2.683901 2.12132 2.12132 
C 2.683901 1.55874 3 0.795609 3 0 
C 3 -0.795609 2.683901 -1.55874 2.12132 -2.12132 
C 1.55874 -2.683901 0.795609 -3 0 -3 
C -0.795609 -3 -1.55874 -2.683901 -2.12132 -2.12132 
C -2.683901 -1.55874 -3 -0.795609 -3 0 
C -3 0.795609 -2.683901 1.55874 -2.12132 2.12132 
C -1.55874 2.683901 -0.795609 3 0 3 
z
" id="mb28b22efe6" style="stroke:#000000;"/>
    </defs>
    <g clip-path="url(#pb2552d731e)">
     <use style="stroke:#000000;" x="120.911589" xlink:href="#mb28b22efe6" y="82.088632"/>
     <use style="stroke:#000000;" x="305.446121" xlink:href="#mb28b22efe6" y="80.235912"/>
     <use style="stroke:#000000;" x="141.14981" xlink:href="#mb28b22efe6" y="97.903131"/>
     <use style="stroke:#000000;" x="241.302987" xlink:href="#mb28b22efe6" y="91.203753"/>
     <use style="stroke:#000000;" x="172.114605" xlink:href="#mb28b22efe6" y="119.064433"/>
     <use style="stroke:#000000;" x="167.661404" xlink:href="#mb28b22efe6" y="117.023876"/>
     <use style="stroke:#000000;" x="338.844378" xlink:href="#mb28b22efe6" y="106.283286"/>
     <use style="stroke:#000000;" x="306.934006" xlink:href="#mb28b22efe6" y="81.169497"/>
    </g>
   </g>
   <g id="patch_3">
    <path d="M 55.064375 172.118125 
L 55.064375 22.318125 
" style="fill:none;stroke:#ffffff;stroke-linecap:square;stroke-linejoin:miter;stroke-width:0.8;"/>
   </g>
   <g id="patch_4">
    <path d="M 413.026875 172.118125 
L 413.026875 22.318125 
" style="fill:none;stroke:#ffffff;stroke-linecap:square;stroke-linejoin:miter;stroke-width:0.8;"/>
   </g>
   <g id="patch_5">
    <path d="M 55.064375 172.118125 
L 413.026875 172.118125 
" style="fill:none;stroke:#ffffff;stroke-linecap:square;stroke-linejoin:miter;stroke-width:0.8;"/>
   </g>
   <g id="patch_6">
    <path d="M 55.064375 22.318125 
L 413.026875 22.318125 
" style="fill:none;stroke:#ffffff;stroke-linecap:square;stroke-linejoin:miter;stroke-width:0.8;"/>
   </g>
   <g id="text_17">
    <!-- Distribution of posterior and prior data. -->
    <g style="fill:#262626;" transform="translate(116.013438 16.318125)scale(0.12 -0.12)">
     <defs>
      <path d="M 1259 4147 
L 1259 519 
L 2022 519 
Q 2988 519 3436 956 
Q 3884 1394 3884 2338 
Q 3884 3275 3436 3711 
Q 2988 4147 2022 4147 
L 1259 4147 
z
M 628 4666 
L 1925 4666 
Q 3281 4666 3915 4102 
Q 4550 3538 4550 2338 
Q 4550 1131 3912 565 
Q 3275 0 1925 0 
L 628 0 
L 628 4666 
z
" id="DejaVuSans-44" transform="scale(0.015625)"/>
      <path d="M 603 3500 
L 1178 3500 
L 1178 0 
L 603 0 
L 603 3500 
z
M 603 4863 
L 1178 4863 
L 1178 4134 
L 603 4134 
L 603 4863 
z
" id="DejaVuSans-69" transform="scale(0.015625)"/>
      <path d="M 2834 3397 
L 2834 2853 
Q 2591 2978 2328 3040 
Q 2066 3103 1784 3103 
Q 1356 3103 1142 2972 
Q 928 2841 928 2578 
Q 928 2378 1081 2264 
Q 1234 2150 1697 2047 
L 1894 2003 
Q 2506 1872 2764 1633 
Q 3022 1394 3022 966 
Q 3022 478 2636 193 
Q 2250 -91 1575 -91 
Q 1294 -91 989 -36 
Q 684 19 347 128 
L 347 722 
Q 666 556 975 473 
Q 1284 391 1588 391 
Q 1994 391 2212 530 
Q 2431 669 2431 922 
Q 2431 1156 2273 1281 
Q 2116 1406 1581 1522 
L 1381 1569 
Q 847 1681 609 1914 
Q 372 2147 372 2553 
Q 372 3047 722 3315 
Q 1072 3584 1716 3584 
Q 2034 3584 2315 3537 
Q 2597 3491 2834 3397 
z
" id="DejaVuSans-73" transform="scale(0.015625)"/>
      <path d="M 1172 4494 
L 1172 3500 
L 2356 3500 
L 2356 3053 
L 1172 3053 
L 1172 1153 
Q 1172 725 1289 603 
Q 1406 481 1766 481 
L 2356 481 
L 2356 0 
L 1766 0 
Q 1100 0 847 248 
Q 594 497 594 1153 
L 594 3053 
L 172 3053 
L 172 3500 
L 594 3500 
L 594 4494 
L 1172 4494 
z
" id="DejaVuSans-74" transform="scale(0.015625)"/>
      <path d="M 2631 2963 
Q 2534 3019 2420 3045 
Q 2306 3072 2169 3072 
Q 1681 3072 1420 2755 
Q 1159 2438 1159 1844 
L 1159 0 
L 581 0 
L 581 3500 
L 1159 3500 
L 1159 2956 
Q 1341 3275 1631 3429 
Q 1922 3584 2338 3584 
Q 2397 3584 2469 3576 
Q 2541 3569 2628 3553 
L 2631 2963 
z
" id="DejaVuSans-72" transform="scale(0.015625)"/>
      <path d="M 3116 1747 
Q 3116 2381 2855 2742 
Q 2594 3103 2138 3103 
Q 1681 3103 1420 2742 
Q 1159 2381 1159 1747 
Q 1159 1113 1420 752 
Q 1681 391 2138 391 
Q 2594 391 2855 752 
Q 3116 1113 3116 1747 
z
M 1159 2969 
Q 1341 3281 1617 3432 
Q 1894 3584 2278 3584 
Q 2916 3584 3314 3078 
Q 3713 2572 3713 1747 
Q 3713 922 3314 415 
Q 2916 -91 2278 -91 
Q 1894 -91 1617 61 
Q 1341 213 1159 525 
L 1159 0 
L 581 0 
L 581 4863 
L 1159 4863 
L 1159 2969 
z
" id="DejaVuSans-62" transform="scale(0.015625)"/>
      <path d="M 544 1381 
L 544 3500 
L 1119 3500 
L 1119 1403 
Q 1119 906 1312 657 
Q 1506 409 1894 409 
Q 2359 409 2629 706 
Q 2900 1003 2900 1516 
L 2900 3500 
L 3475 3500 
L 3475 0 
L 2900 0 
L 2900 538 
Q 2691 219 2414 64 
Q 2138 -91 1772 -91 
Q 1169 -91 856 284 
Q 544 659 544 1381 
z
M 1991 3584 
L 1991 3584 
z
" id="DejaVuSans-75" transform="scale(0.015625)"/>
      <path d="M 1959 3097 
Q 1497 3097 1228 2736 
Q 959 2375 959 1747 
Q 959 1119 1226 758 
Q 1494 397 1959 397 
Q 2419 397 2687 759 
Q 2956 1122 2956 1747 
Q 2956 2369 2687 2733 
Q 2419 3097 1959 3097 
z
M 1959 3584 
Q 2709 3584 3137 3096 
Q 3566 2609 3566 1747 
Q 3566 888 3137 398 
Q 2709 -91 1959 -91 
Q 1206 -91 779 398 
Q 353 888 353 1747 
Q 353 2609 779 3096 
Q 1206 3584 1959 3584 
z
" id="DejaVuSans-6f" transform="scale(0.015625)"/>
      <path d="M 3513 2113 
L 3513 0 
L 2938 0 
L 2938 2094 
Q 2938 2591 2744 2837 
Q 2550 3084 2163 3084 
Q 1697 3084 1428 2787 
Q 1159 2491 1159 1978 
L 1159 0 
L 581 0 
L 581 3500 
L 1159 3500 
L 1159 2956 
Q 1366 3272 1645 3428 
Q 1925 3584 2291 3584 
Q 2894 3584 3203 3211 
Q 3513 2838 3513 2113 
z
" id="DejaVuSans-6e" transform="scale(0.015625)"/>
      <path id="DejaVuSans-20" transform="scale(0.015625)"/>
      <path d="M 2375 4863 
L 2375 4384 
L 1825 4384 
Q 1516 4384 1395 4259 
Q 1275 4134 1275 3809 
L 1275 3500 
L 2222 3500 
L 2222 3053 
L 1275 3053 
L 1275 0 
L 697 0 
L 697 3053 
L 147 3053 
L 147 3500 
L 697 3500 
L 697 3744 
Q 697 4328 969 4595 
Q 1241 4863 1831 4863 
L 2375 4863 
z
" id="DejaVuSans-66" transform="scale(0.015625)"/>
      <path d="M 1159 525 
L 1159 -1331 
L 581 -1331 
L 581 3500 
L 1159 3500 
L 1159 2969 
Q 1341 3281 1617 3432 
Q 1894 3584 2278 3584 
Q 2916 3584 3314 3078 
Q 3713 2572 3713 1747 
Q 3713 922 3314 415 
Q 2916 -91 2278 -91 
Q 1894 -91 1617 61 
Q 1341 213 1159 525 
z
M 3116 1747 
Q 3116 2381 2855 2742 
Q 2594 3103 2138 3103 
Q 1681 3103 1420 2742 
Q 1159 2381 1159 1747 
Q 1159 1113 1420 752 
Q 1681 391 2138 391 
Q 2594 391 2855 752 
Q 3116 1113 3116 1747 
z
" id="DejaVuSans-70" transform="scale(0.015625)"/>
      <path d="M 3597 1894 
L 3597 1613 
L 953 1613 
Q 991 1019 1311 708 
Q 1631 397 2203 397 
Q 2534 397 2845 478 
Q 3156 559 3463 722 
L 3463 178 
Q 3153 47 2828 -22 
Q 2503 -91 2169 -91 
Q 1331 -91 842 396 
Q 353 884 353 1716 
Q 353 2575 817 3079 
Q 1281 3584 2069 3584 
Q 2775 3584 3186 3129 
Q 3597 2675 3597 1894 
z
M 3022 2063 
Q 3016 2534 2758 2815 
Q 2500 3097 2075 3097 
Q 1594 3097 1305 2825 
Q 1016 2553 972 2059 
L 3022 2063 
z
" id="DejaVuSans-65" transform="scale(0.015625)"/>
      <path d="M 2194 1759 
Q 1497 1759 1228 1600 
Q 959 1441 959 1056 
Q 959 750 1161 570 
Q 1363 391 1709 391 
Q 2188 391 2477 730 
Q 2766 1069 2766 1631 
L 2766 1759 
L 2194 1759 
z
M 3341 1997 
L 3341 0 
L 2766 0 
L 2766 531 
Q 2569 213 2275 61 
Q 1981 -91 1556 -91 
Q 1019 -91 701 211 
Q 384 513 384 1019 
Q 384 1609 779 1909 
Q 1175 2209 1959 2209 
L 2766 2209 
L 2766 2266 
Q 2766 2663 2505 2880 
Q 2244 3097 1772 3097 
Q 1472 3097 1187 3025 
Q 903 2953 641 2809 
L 641 3341 
Q 956 3463 1253 3523 
Q 1550 3584 1831 3584 
Q 2591 3584 2966 3190 
Q 3341 2797 3341 1997 
z
" id="DejaVuSans-61" transform="scale(0.015625)"/>
      <path d="M 2906 2969 
L 2906 4863 
L 3481 4863 
L 3481 0 
L 2906 0 
L 2906 525 
Q 2725 213 2448 61 
Q 2172 -91 1784 -91 
Q 1150 -91 751 415 
Q 353 922 353 1747 
Q 353 2572 751 3078 
Q 1150 3584 1784 3584 
Q 2172 3584 2448 3432 
Q 2725 3281 2906 2969 
z
M 947 1747 
Q 947 1113 1208 752 
Q 1469 391 1925 391 
Q 2381 391 2643 752 
Q 2906 1113 2906 1747 
Q 2906 2381 2643 2742 
Q 2381 3103 1925 3103 
Q 1469 3103 1208 2742 
Q 947 2381 947 1747 
z
" id="DejaVuSans-64" transform="scale(0.015625)"/>
      <path d="M 684 794 
L 1344 794 
L 1344 0 
L 684 0 
L 684 794 
z
" id="DejaVuSans-2e" transform="scale(0.015625)"/>
     </defs>
     <use xlink:href="#DejaVuSans-44"/>
     <use x="77.001953" xlink:href="#DejaVuSans-69"/>
     <use x="104.785156" xlink:href="#DejaVuSans-73"/>
     <use x="156.884766" xlink:href="#DejaVuSans-74"/>
     <use x="196.09375" xlink:href="#DejaVuSans-72"/>
     <use x="237.207031" xlink:href="#DejaVuSans-69"/>
     <use x="264.990234" xlink:href="#DejaVuSans-62"/>
     <use x="328.466797" xlink:href="#DejaVuSans-75"/>
     <use x="391.845703" xlink:href="#DejaVuSans-74"/>
     <use x="431.054688" xlink:href="#DejaVuSans-69"/>
     <use x="458.837891" xlink:href="#DejaVuSans-6f"/>
     <use x="520.019531" xlink:href="#DejaVuSans-6e"/>
     <use x="583.398438" xlink:href="#DejaVuSans-20"/>
     <use x="615.185547" xlink:href="#DejaVuSans-6f"/>
     <use x="676.367188" xlink:href="#DejaVuSans-66"/>
     <use x="711.572266" xlink:href="#DejaVuSans-20"/>
     <use x="743.359375" xlink:href="#DejaVuSans-70"/>
     <use x="806.835938" xlink:href="#DejaVuSans-6f"/>
     <use x="868.017578" xlink:href="#DejaVuSans-73"/>
     <use x="920.117188" xlink:href="#DejaVuSans-74"/>
     <use x="959.326172" xlink:href="#DejaVuSans-65"/>
     <use x="1020.849609" xlink:href="#DejaVuSans-72"/>
     <use x="1061.962891" xlink:href="#DejaVuSans-69"/>
     <use x="1089.746094" xlink:href="#DejaVuSans-6f"/>
     <use x="1150.927734" xlink:href="#DejaVuSans-72"/>
     <use x="1192.041016" xlink:href="#DejaVuSans-20"/>
     <use x="1223.828125" xlink:href="#DejaVuSans-61"/>
     <use x="1285.107422" xlink:href="#DejaVuSans-6e"/>
     <use x="1348.486328" xlink:href="#DejaVuSans-64"/>
     <use x="1411.962891" xlink:href="#DejaVuSans-20"/>
     <use x="1443.75" xlink:href="#DejaVuSans-70"/>
     <use x="1507.226562" xlink:href="#DejaVuSans-72"/>
     <use x="1548.339844" xlink:href="#DejaVuSans-69"/>
     <use x="1576.123047" xlink:href="#DejaVuSans-6f"/>
     <use x="1637.304688" xlink:href="#DejaVuSans-72"/>
     <use x="1678.417969" xlink:href="#DejaVuSans-20"/>
     <use x="1710.205078" xlink:href="#DejaVuSans-64"/>
     <use x="1773.681641" xlink:href="#DejaVuSans-61"/>
     <use x="1834.960938" xlink:href="#DejaVuSans-74"/>
     <use x="1874.169922" xlink:href="#DejaVuSans-61"/>
     <use x="1935.449219" xlink:href="#DejaVuSans-2e"/>
    </g>
   </g>
   <g id="legend_1">
    <g id="patch_7">
     <path d="M 339.726875 91.493125 
L 406.026875 91.493125 
Q 408.026875 91.493125 408.026875 89.493125 
L 408.026875 29.318125 
Q 408.026875 27.318125 406.026875 27.318125 
L 339.726875 27.318125 
Q 337.726875 27.318125 337.726875 29.318125 
L 337.726875 89.493125 
Q 337.726875 91.493125 339.726875 91.493125 
z
" style="fill:#eaeaf2;opacity:0.8;stroke:#cccccc;stroke-linejoin:miter;"/>
    </g>
    <g id="line2d_18">
     <path d="M 341.726875 35.416562 
L 361.726875 35.416562 
" style="fill:none;stroke:#0000ff;stroke-dasharray:5.55,2.4;stroke-dashoffset:0;stroke-width:1.5;"/>
    </g>
    <g id="line2d_19"/>
    <g id="text_18">
     <!-- $sin(x)$ -->
     <g style="fill:#262626;" transform="translate(369.726875 38.916562)scale(0.1 -0.1)">
      <defs>
       <path d="M 3200 3397 
L 3091 2853 
Q 2863 2978 2609 3040 
Q 2356 3103 2088 3103 
Q 1634 3103 1373 2948 
Q 1113 2794 1113 2528 
Q 1113 2219 1719 2053 
Q 1766 2041 1788 2034 
L 1972 1978 
Q 2547 1819 2739 1644 
Q 2931 1469 2931 1166 
Q 2931 609 2489 259 
Q 2047 -91 1331 -91 
Q 1053 -91 747 -37 
Q 441 16 72 128 
L 184 722 
Q 500 559 806 475 
Q 1113 391 1394 391 
Q 1816 391 2080 572 
Q 2344 753 2344 1031 
Q 2344 1331 1650 1516 
L 1591 1531 
L 1394 1581 
Q 956 1697 753 1886 
Q 550 2075 550 2369 
Q 550 2928 970 3256 
Q 1391 3584 2113 3584 
Q 2397 3584 2667 3537 
Q 2938 3491 3200 3397 
z
" id="DejaVuSans-Oblique-73" transform="scale(0.015625)"/>
       <path d="M 1172 4863 
L 1747 4863 
L 1606 4134 
L 1031 4134 
L 1172 4863 
z
M 909 3500 
L 1484 3500 
L 800 0 
L 225 0 
L 909 3500 
z
" id="DejaVuSans-Oblique-69" transform="scale(0.015625)"/>
       <path d="M 3566 2113 
L 3156 0 
L 2578 0 
L 2988 2091 
Q 3016 2238 3031 2350 
Q 3047 2463 3047 2528 
Q 3047 2791 2881 2937 
Q 2716 3084 2419 3084 
Q 1956 3084 1622 2776 
Q 1288 2469 1184 1941 
L 800 0 
L 225 0 
L 903 3500 
L 1478 3500 
L 1363 2950 
Q 1603 3253 1940 3418 
Q 2278 3584 2650 3584 
Q 3113 3584 3367 3334 
Q 3622 3084 3622 2631 
Q 3622 2519 3608 2391 
Q 3594 2263 3566 2113 
z
" id="DejaVuSans-Oblique-6e" transform="scale(0.015625)"/>
       <path d="M 1984 4856 
Q 1566 4138 1362 3434 
Q 1159 2731 1159 2009 
Q 1159 1288 1364 580 
Q 1569 -128 1984 -844 
L 1484 -844 
Q 1016 -109 783 600 
Q 550 1309 550 2009 
Q 550 2706 781 3412 
Q 1013 4119 1484 4856 
L 1984 4856 
z
" id="DejaVuSans-28" transform="scale(0.015625)"/>
       <path d="M 513 4856 
L 1013 4856 
Q 1481 4119 1714 3412 
Q 1947 2706 1947 2009 
Q 1947 1309 1714 600 
Q 1481 -109 1013 -844 
L 513 -844 
Q 928 -128 1133 580 
Q 1338 1288 1338 2009 
Q 1338 2731 1133 3434 
Q 928 4138 513 4856 
z
" id="DejaVuSans-29" transform="scale(0.015625)"/>
      </defs>
      <use transform="translate(0 0.015625)" xlink:href="#DejaVuSans-Oblique-73"/>
      <use transform="translate(52.099609 0.015625)" xlink:href="#DejaVuSans-Oblique-69"/>
      <use transform="translate(79.882812 0.015625)" xlink:href="#DejaVuSans-Oblique-6e"/>
      <use transform="translate(143.261719 0.015625)" xlink:href="#DejaVuSans-28"/>
      <use transform="translate(182.275391 0.015625)" xlink:href="#DejaVuSans-Oblique-78"/>
      <use transform="translate(241.455078 0.015625)" xlink:href="#DejaVuSans-29"/>
     </g>
    </g>
    <g id="line2d_20">
     <path d="M 341.726875 50.094688 
L 361.726875 50.094688 
" style="fill:none;stroke:#ff0000;stroke-linecap:round;stroke-width:2;"/>
    </g>
    <g id="line2d_21"/>
    <g id="text_19">
     <!-- $\mu_{2|1}$ -->
     <g style="fill:#262626;" transform="translate(369.726875 53.594688)scale(0.1 -0.1)">
      <defs>
       <path d="M -84 -1331 
L 856 3500 
L 1434 3500 
L 1009 1322 
Q 997 1256 987 1175 
Q 978 1094 978 1013 
Q 978 722 1161 565 
Q 1344 409 1684 409 
Q 2147 409 2431 671 
Q 2716 934 2816 1459 
L 3213 3500 
L 3788 3500 
L 3266 809 
Q 3253 750 3248 706 
Q 3244 663 3244 628 
Q 3244 531 3283 486 
Q 3322 441 3406 441 
Q 3438 441 3492 456 
Q 3547 472 3647 513 
L 3559 50 
Q 3422 -19 3297 -55 
Q 3172 -91 3053 -91 
Q 2847 -91 2730 40 
Q 2613 172 2613 403 
Q 2438 153 2195 31 
Q 1953 -91 1625 -91 
Q 1334 -91 1117 43 
Q 900 178 831 397 
L 494 -1331 
L -84 -1331 
z
" id="DejaVuSans-Oblique-3bc" transform="scale(0.015625)"/>
       <path d="M 1344 4891 
L 1344 -1509 
L 813 -1509 
L 813 4891 
L 1344 4891 
z
" id="DejaVuSans-7c" transform="scale(0.015625)"/>
      </defs>
      <use transform="translate(0 0.3125)" xlink:href="#DejaVuSans-Oblique-3bc"/>
      <use transform="translate(63.623047 -16.09375)scale(0.7)" xlink:href="#DejaVuSans-32"/>
      <use transform="translate(108.15918 -16.09375)scale(0.7)" xlink:href="#DejaVuSans-7c"/>
      <use transform="translate(131.743164 -16.09375)scale(0.7)" xlink:href="#DejaVuSans-31"/>
     </g>
    </g>
    <g id="line2d_22"/>
    <g id="line2d_23">
     <g>
      <use style="stroke:#000000;" x="351.726875" xlink:href="#mb28b22efe6" y="65.994687"/>
     </g>
    </g>
    <g id="text_20">
     <!-- $(x_1, y_1)$ -->
     <g style="fill:#262626;" transform="translate(369.726875 69.494687)scale(0.1 -0.1)">
      <defs>
       <path d="M 750 794 
L 1409 794 
L 1409 256 
L 897 -744 
L 494 -744 
L 750 256 
L 750 794 
z
" id="DejaVuSans-2c" transform="scale(0.015625)"/>
      </defs>
      <use transform="translate(0 0.125)" xlink:href="#DejaVuSans-28"/>
      <use transform="translate(39.013672 0.125)" xlink:href="#DejaVuSans-Oblique-78"/>
      <use transform="translate(98.193359 -16.28125)scale(0.7)" xlink:href="#DejaVuSans-31"/>
      <use transform="translate(145.463867 0.125)" xlink:href="#DejaVuSans-2c"/>
      <use transform="translate(196.733398 0.125)" xlink:href="#DejaVuSans-Oblique-79"/>
      <use transform="translate(255.913086 -16.28125)scale(0.7)" xlink:href="#DejaVuSans-31"/>
      <use transform="translate(303.183594 0.125)" xlink:href="#DejaVuSans-29"/>
     </g>
    </g>
    <g id="patch_8">
     <path d="M 341.726875 84.193125 
L 361.726875 84.193125 
L 361.726875 77.193125 
L 341.726875 77.193125 
z
" style="fill:#ff0000;fill-opacity:0.15;stroke:#ff0000;stroke-linejoin:miter;stroke-opacity:0.15;"/>
    </g>
    <g id="text_21">
     <!-- $2 \sigma_{2|1}$ -->
     <g style="fill:#262626;" transform="translate(369.726875 84.193125)scale(0.1 -0.1)">
      <defs>
       <path d="M 2219 3044 
Q 1744 3044 1422 2700 
Q 1081 2341 969 1747 
Q 844 1119 1044 756 
Q 1241 397 1706 397 
Q 2166 397 2503 759 
Q 2844 1122 2966 1747 
Q 3075 2319 2881 2700 
Q 2700 3044 2219 3044 
z
M 2309 3503 
L 4219 3500 
L 4106 2925 
L 3463 2925 
Q 3706 2438 3575 1747 
Q 3406 888 2884 400 
Q 2359 -91 1609 -91 
Q 856 -91 525 400 
Q 194 888 363 1747 
Q 528 2609 1050 3097 
Q 1484 3503 2309 3503 
z
" id="DejaVuSans-Oblique-3c3" transform="scale(0.015625)"/>
      </defs>
      <use transform="translate(0 0.78125)" xlink:href="#DejaVuSans-32"/>
      <use transform="translate(63.623047 0.78125)" xlink:href="#DejaVuSans-Oblique-3c3"/>
      <use transform="translate(127.001953 -15.625)scale(0.7)" xlink:href="#DejaVuSans-32"/>
      <use transform="translate(171.538086 -15.625)scale(0.7)" xlink:href="#DejaVuSans-7c"/>
      <use transform="translate(195.12207 -15.625)scale(0.7)" xlink:href="#DejaVuSans-31"/>
     </g>
    </g>
   </g>
  </g>
  <g id="axes_2">
   <g id="patch_9">
    <path d="M 55.064375 382.718125 
L 413.026875 382.718125 
L 413.026875 232.918125 
L 55.064375 232.918125 
z
" style="fill:#eaeaf2;"/>
   </g>
   <g id="matplotlib.axis_3">
    <g id="xtick_8">
     <g id="line2d_24">
      <path clip-path="url(#p7ddad8aef2)" d="M 55.064375 382.718125 
L 55.064375 232.918125 
" style="fill:none;stroke:#ffffff;stroke-linecap:round;stroke-width:0.8;"/>
     </g>
     <g id="text_22">
      <!-- −6 -->
      <g style="fill:#262626;" transform="translate(47.693281 397.316562)scale(0.1 -0.1)">
       <use xlink:href="#DejaVuSans-2212"/>
       <use x="83.789062" xlink:href="#DejaVuSans-36"/>
      </g>
     </g>
    </g>
    <g id="xtick_9">
     <g id="line2d_25">
      <path clip-path="url(#p7ddad8aef2)" d="M 114.724792 382.718125 
L 114.724792 232.918125 
" style="fill:none;stroke:#ffffff;stroke-linecap:round;stroke-width:0.8;"/>
     </g>
     <g id="text_23">
      <!-- −4 -->
      <g style="fill:#262626;" transform="translate(107.353698 397.316562)scale(0.1 -0.1)">
       <use xlink:href="#DejaVuSans-2212"/>
       <use x="83.789062" xlink:href="#DejaVuSans-34"/>
      </g>
     </g>
    </g>
    <g id="xtick_10">
     <g id="line2d_26">
      <path clip-path="url(#p7ddad8aef2)" d="M 174.385208 382.718125 
L 174.385208 232.918125 
" style="fill:none;stroke:#ffffff;stroke-linecap:round;stroke-width:0.8;"/>
     </g>
     <g id="text_24">
      <!-- −2 -->
      <g style="fill:#262626;" transform="translate(167.014115 397.316562)scale(0.1 -0.1)">
       <use xlink:href="#DejaVuSans-2212"/>
       <use x="83.789062" xlink:href="#DejaVuSans-32"/>
      </g>
     </g>
    </g>
    <g id="xtick_11">
     <g id="line2d_27">
      <path clip-path="url(#p7ddad8aef2)" d="M 234.045625 382.718125 
L 234.045625 232.918125 
" style="fill:none;stroke:#ffffff;stroke-linecap:round;stroke-width:0.8;"/>
     </g>
     <g id="text_25">
      <!-- 0 -->
      <g style="fill:#262626;" transform="translate(230.864375 397.316562)scale(0.1 -0.1)">
       <use xlink:href="#DejaVuSans-30"/>
      </g>
     </g>
    </g>
    <g id="xtick_12">
     <g id="line2d_28">
      <path clip-path="url(#p7ddad8aef2)" d="M 293.706042 382.718125 
L 293.706042 232.918125 
" style="fill:none;stroke:#ffffff;stroke-linecap:round;stroke-width:0.8;"/>
     </g>
     <g id="text_26">
      <!-- 2 -->
      <g style="fill:#262626;" transform="translate(290.524792 397.316562)scale(0.1 -0.1)">
       <use xlink:href="#DejaVuSans-32"/>
      </g>
     </g>
    </g>
    <g id="xtick_13">
     <g id="line2d_29">
      <path clip-path="url(#p7ddad8aef2)" d="M 353.366458 382.718125 
L 353.366458 232.918125 
" style="fill:none;stroke:#ffffff;stroke-linecap:round;stroke-width:0.8;"/>
     </g>
     <g id="text_27">
      <!-- 4 -->
      <g style="fill:#262626;" transform="translate(350.185208 397.316562)scale(0.1 -0.1)">
       <use xlink:href="#DejaVuSans-34"/>
      </g>
     </g>
    </g>
    <g id="xtick_14">
     <g id="line2d_30">
      <path clip-path="url(#p7ddad8aef2)" d="M 413.026875 382.718125 
L 413.026875 232.918125 
" style="fill:none;stroke:#ffffff;stroke-linecap:round;stroke-width:0.8;"/>
     </g>
     <g id="text_28">
      <!-- 6 -->
      <g style="fill:#262626;" transform="translate(409.845625 397.316562)scale(0.1 -0.1)">
       <use xlink:href="#DejaVuSans-36"/>
      </g>
     </g>
    </g>
    <g id="text_29">
     <!-- $x$ -->
     <g style="fill:#262626;" transform="translate(230.145625 413.274219)scale(0.13 -0.13)">
      <use transform="translate(0 0.3125)" xlink:href="#DejaVuSans-Oblique-78"/>
     </g>
    </g>
   </g>
   <g id="matplotlib.axis_4">
    <g id="ytick_8">
     <g id="line2d_31">
      <path clip-path="url(#p7ddad8aef2)" d="M 55.064375 373.68419 
L 413.026875 373.68419 
" style="fill:none;stroke:#ffffff;stroke-linecap:round;stroke-width:0.8;"/>
     </g>
     <g id="text_30">
      <!-- −1.0 -->
      <g style="fill:#262626;" transform="translate(23.781563 377.483409)scale(0.1 -0.1)">
       <use xlink:href="#DejaVuSans-2212"/>
       <use x="83.789062" xlink:href="#DejaVuSans-31"/>
       <use x="147.412109" xlink:href="#DejaVuSans-2e"/>
       <use x="179.199219" xlink:href="#DejaVuSans-30"/>
      </g>
     </g>
    </g>
    <g id="ytick_9">
     <g id="line2d_32">
      <path clip-path="url(#p7ddad8aef2)" d="M 55.064375 349.751254 
L 413.026875 349.751254 
" style="fill:none;stroke:#ffffff;stroke-linecap:round;stroke-width:0.8;"/>
     </g>
     <g id="text_31">
      <!-- −0.5 -->
      <g style="fill:#262626;" transform="translate(23.781563 353.550473)scale(0.1 -0.1)">
       <defs>
        <path d="M 691 4666 
L 3169 4666 
L 3169 4134 
L 1269 4134 
L 1269 2991 
Q 1406 3038 1543 3061 
Q 1681 3084 1819 3084 
Q 2600 3084 3056 2656 
Q 3513 2228 3513 1497 
Q 3513 744 3044 326 
Q 2575 -91 1722 -91 
Q 1428 -91 1123 -41 
Q 819 9 494 109 
L 494 744 
Q 775 591 1075 516 
Q 1375 441 1709 441 
Q 2250 441 2565 725 
Q 2881 1009 2881 1497 
Q 2881 1984 2565 2268 
Q 2250 2553 1709 2553 
Q 1456 2553 1204 2497 
Q 953 2441 691 2322 
L 691 4666 
z
" id="DejaVuSans-35" transform="scale(0.015625)"/>
       </defs>
       <use xlink:href="#DejaVuSans-2212"/>
       <use x="83.789062" xlink:href="#DejaVuSans-30"/>
       <use x="147.412109" xlink:href="#DejaVuSans-2e"/>
       <use x="179.199219" xlink:href="#DejaVuSans-35"/>
      </g>
     </g>
    </g>
    <g id="ytick_10">
     <g id="line2d_33">
      <path clip-path="url(#p7ddad8aef2)" d="M 55.064375 325.818318 
L 413.026875 325.818318 
" style="fill:none;stroke:#ffffff;stroke-linecap:round;stroke-width:0.8;"/>
     </g>
     <g id="text_32">
      <!-- 0.0 -->
      <g style="fill:#262626;" transform="translate(32.16125 329.617537)scale(0.1 -0.1)">
       <use xlink:href="#DejaVuSans-30"/>
       <use x="63.623047" xlink:href="#DejaVuSans-2e"/>
       <use x="95.410156" xlink:href="#DejaVuSans-30"/>
      </g>
     </g>
    </g>
    <g id="ytick_11">
     <g id="line2d_34">
      <path clip-path="url(#p7ddad8aef2)" d="M 55.064375 301.885382 
L 413.026875 301.885382 
" style="fill:none;stroke:#ffffff;stroke-linecap:round;stroke-width:0.8;"/>
     </g>
     <g id="text_33">
      <!-- 0.5 -->
      <g style="fill:#262626;" transform="translate(32.16125 305.6846)scale(0.1 -0.1)">
       <use xlink:href="#DejaVuSans-30"/>
       <use x="63.623047" xlink:href="#DejaVuSans-2e"/>
       <use x="95.410156" xlink:href="#DejaVuSans-35"/>
      </g>
     </g>
    </g>
    <g id="ytick_12">
     <g id="line2d_35">
      <path clip-path="url(#p7ddad8aef2)" d="M 55.064375 277.952446 
L 413.026875 277.952446 
" style="fill:none;stroke:#ffffff;stroke-linecap:round;stroke-width:0.8;"/>
     </g>
     <g id="text_34">
      <!-- 1.0 -->
      <g style="fill:#262626;" transform="translate(32.16125 281.751664)scale(0.1 -0.1)">
       <use xlink:href="#DejaVuSans-31"/>
       <use x="63.623047" xlink:href="#DejaVuSans-2e"/>
       <use x="95.410156" xlink:href="#DejaVuSans-30"/>
      </g>
     </g>
    </g>
    <g id="ytick_13">
     <g id="line2d_36">
      <path clip-path="url(#p7ddad8aef2)" d="M 55.064375 254.019509 
L 413.026875 254.019509 
" style="fill:none;stroke:#ffffff;stroke-linecap:round;stroke-width:0.8;"/>
     </g>
     <g id="text_35">
      <!-- 1.5 -->
      <g style="fill:#262626;" transform="translate(32.16125 257.818728)scale(0.1 -0.1)">
       <use xlink:href="#DejaVuSans-31"/>
       <use x="63.623047" xlink:href="#DejaVuSans-2e"/>
       <use x="95.410156" xlink:href="#DejaVuSans-35"/>
      </g>
     </g>
    </g>
    <g id="text_36">
     <!-- $y$ -->
     <g style="fill:#262626;" transform="translate(17.051563 311.718125)rotate(-90)scale(0.13 -0.13)">
      <use transform="translate(0 0.3125)" xlink:href="#DejaVuSans-Oblique-79"/>
     </g>
    </g>
   </g>
   <g id="line2d_37">
    <path clip-path="url(#p7ddad8aef2)" d="M 55.064375 263.793453 
L 59.901706 260.572631 
L 64.739037 258.219686 
L 69.576368 256.633477 
L 74.413699 255.817312 
L 79.25103 255.871979 
L 84.088361 256.952972 
L 88.925693 259.203004 
L 93.763024 262.681154 
L 98.600355 267.315666 
L 103.437686 272.902635 
L 108.275017 279.155779 
L 113.112348 285.789239 
L 117.949679 292.597753 
L 122.78701 299.497908 
L 127.624341 306.512404 
L 132.461672 313.707389 
L 137.299003 321.115348 
L 142.136334 328.681348 
L 146.973666 336.255217 
L 151.810997 343.626314 
L 156.648328 350.574222 
L 161.485659 356.901579 
L 166.32299 362.428013 
L 171.160321 366.950242 
L 175.997652 370.198414 
L 180.834983 371.827778 
L 185.672314 371.471325 
L 190.509645 368.848428 
L 195.346976 363.893118 
L 200.184307 356.850058 
L 205.021639 348.295553 
L 209.85897 339.069596 
L 214.696301 330.137795 
L 219.533632 322.423324 
L 224.370963 316.650907 
L 229.208294 313.23186 
L 234.045625 312.20236 
L 238.882956 313.216236 
L 243.720287 315.590944 
L 248.557618 318.406576 
L 253.394949 320.65478 
L 258.23228 321.423796 
L 263.069611 320.0898 
L 267.906943 316.470963 
L 272.744274 310.898243 
L 277.581605 304.171861 
L 282.418936 297.402542 
L 287.256267 291.773579 
L 292.093598 288.287738 
L 296.930929 287.570377 
L 301.76826 289.77997 
L 306.605591 294.637828 
L 311.442922 301.546781 
L 316.280253 309.742762 
L 321.117584 318.425174 
L 325.954916 326.83805 
L 330.792247 334.308761 
L 335.629578 340.27454 
L 340.466909 344.327233 
L 345.30424 346.283861 
L 350.141571 346.260558 
L 354.978902 344.707975 
L 359.816233 342.370682 
L 364.653564 340.160514 
L 369.490895 338.970273 
L 374.328226 339.481021 
L 379.165557 342.019735 
L 384.002889 346.503541 
L 388.84022 352.473554 
L 393.677551 359.192692 
L 398.514882 365.770287 
L 403.352213 371.284098 
L 408.189544 374.888082 
L 413.026875 375.909034 
" style="fill:none;stroke:#1f77b4;stroke-linecap:round;stroke-width:1.5;"/>
   </g>
   <g id="line2d_38">
    <path clip-path="url(#p7ddad8aef2)" d="M 55.064375 282.882651 
L 59.901706 284.901665 
L 64.739037 286.913522 
L 69.576368 288.440456 
L 74.413699 289.251782 
L 79.25103 289.345029 
L 84.088361 288.88055 
L 88.925693 288.107824 
L 93.763024 287.31446 
L 98.600355 286.806578 
L 103.437686 286.905572 
L 108.275017 287.935905 
L 113.112348 290.186529 
L 117.949679 293.849509 
L 122.78701 298.959525 
L 127.624341 305.364554 
L 132.461672 312.746736 
L 137.299003 320.690392 
L 142.136334 328.772522 
L 146.973666 336.641981 
L 151.810997 344.059555 
L 156.648328 350.888841 
L 161.485659 357.048133 
L 166.32299 362.447783 
L 171.160321 366.940619 
L 175.997652 370.305222 
L 180.834983 372.267705 
L 185.672314 372.553624 
L 190.509645 370.953746 
L 195.346976 367.386868 
L 200.184307 361.947906 
L 205.021639 354.934558 
L 209.85897 346.84814 
L 214.696301 338.36285 
L 219.533632 330.257244 
L 224.370963 323.305648 
L 229.208294 318.138892 
L 234.045625 315.099636 
L 238.882956 314.131725 
L 243.720287 314.746232 
L 248.557618 316.094026 
L 253.394949 317.145246 
L 258.23228 316.939488 
L 263.069611 314.840231 
L 267.906943 310.717434 
L 272.744274 304.999481 
L 277.581605 298.575185 
L 282.418936 292.573807 
L 287.256267 288.088567 
L 292.093598 285.9241 
L 296.930929 286.437251 
L 301.76826 289.508826 
L 306.605591 294.643433 
L 311.442922 301.156111 
L 316.280253 308.381484 
L 321.117584 315.8373 
L 325.954916 323.292998 
L 330.792247 330.728187 
L 335.629578 338.205116 
L 340.466909 345.710317 
L 345.30424 353.031411 
L 350.141571 359.722029 
L 354.978902 365.173602 
L 359.816233 368.770884 
L 364.653564 370.074521 
L 369.490895 368.963417 
L 374.328226 365.686969 
L 379.165557 360.814625 
L 384.002889 355.109887 
L 388.84022 349.379084 
L 393.677551 344.343021 
L 398.514882 340.557076 
L 403.352213 338.377932 
L 408.189544 337.958638 
L 413.026875 339.25423 
" style="fill:none;stroke:#ff7f0e;stroke-linecap:round;stroke-width:1.5;"/>
   </g>
   <g id="line2d_39">
    <path clip-path="url(#p7ddad8aef2)" d="M 55.064375 245.084532 
L 59.901706 241.013757 
L 64.739037 239.727216 
L 69.576368 241.198907 
L 74.413699 245.056589 
L 79.25103 250.642214 
L 84.088361 257.151008 
L 88.925693 263.806929 
L 93.763024 270.022084 
L 98.600355 275.497834 
L 103.437686 280.248028 
L 108.275017 284.547996 
L 113.112348 288.82933 
L 117.949679 293.548056 
L 122.78701 299.056418 
L 127.624341 305.507777 
L 132.461672 312.819361 
L 137.299003 320.705386 
L 142.136334 328.771582 
L 146.973666 336.637197 
L 151.810997 344.03361 
L 156.648328 350.833131 
L 161.485659 356.991662 
L 166.32299 362.434318 
L 171.160321 366.950341 
L 175.997652 370.168915 
L 180.834983 371.651432 
L 185.672314 371.073004 
L 190.509645 368.40946 
L 195.346976 364.029432 
L 200.184307 358.627946 
L 205.021639 353.012716 
L 209.85897 347.828432 
L 214.696301 343.338606 
L 219.533632 339.360065 
L 224.370963 335.375022 
L 229.208294 330.766088 
L 234.045625 325.070222 
L 238.882956 318.1505 
L 243.720287 310.232813 
L 248.557618 301.819491 
L 253.394949 293.539593 
L 258.23228 286.005989 
L 263.069611 279.724231 
L 267.906943 275.05861 
L 272.744274 272.231039 
L 277.581605 271.323408 
L 282.418936 272.271717 
L 287.256267 274.863582 
L 292.093598 278.762842 
L 296.930929 283.575636 
L 301.76826 288.946985 
L 306.605591 294.652761 
L 311.442922 300.644174 
L 316.280253 307.019111 
L 321.117584 313.927726 
L 325.954916 321.451121 
L 330.792247 329.503035 
L 335.629578 337.789876 
L 340.466909 345.833308 
L 345.30424 353.032015 
L 350.141571 358.732073 
L 354.978902 362.290445 
L 359.816233 363.140008 
L 364.653564 360.876987 
L 369.490895 355.379541 
L 374.328226 346.935507 
L 379.165557 336.327531 
L 384.002889 324.817168 
L 388.84022 313.995588 
L 393.677551 305.517105 
L 398.514882 300.779312 
L 403.352213 300.637527 
L 408.189544 305.230973 
L 413.026875 313.960808 
" style="fill:none;stroke:#2ca02c;stroke-linecap:round;stroke-width:1.5;"/>
   </g>
   <g id="line2d_40">
    <path clip-path="url(#p7ddad8aef2)" d="M 55.064375 364.950501 
L 59.901706 340.981743 
L 64.739037 317.174872 
L 69.576368 295.331462 
L 74.413699 276.994607 
L 79.25103 263.275766 
L 84.088361 254.739207 
L 88.925693 251.363804 
L 93.763024 252.59362 
L 98.600355 257.474031 
L 103.437686 264.849581 
L 108.275017 273.579668 
L 113.112348 282.719757 
L 117.949679 291.626345 
L 122.78701 299.97232 
L 127.624341 307.69115 
L 132.461672 314.888419 
L 137.299003 321.756606 
L 142.136334 328.508935 
L 146.973666 335.325203 
L 151.810997 342.293905 
L 156.648328 349.345434 
L 161.485659 356.193103 
L 166.32299 362.31542 
L 171.160321 367.010255 
L 175.997652 369.528251 
L 180.834983 369.259211 
L 185.672314 365.918609 
L 190.509645 359.674602 
L 195.346976 351.171708 
L 200.184307 341.437982 
L 205.021639 331.69595 
L 209.85897 323.122571 
L 214.696301 316.615178 
L 219.533632 312.617993 
L 224.370963 311.049906 
L 229.208294 311.351171 
L 234.045625 312.637726 
L 238.882956 313.923431 
L 243.720287 314.350634 
L 248.557618 313.367306 
L 253.394949 310.807849 
L 258.23228 306.868754 
L 263.069611 302.005919 
L 267.906943 296.801749 
L 272.744274 291.84854 
L 277.581605 287.67376 
L 282.418936 284.705962 
L 287.256267 283.26255 
L 292.093598 283.540437 
L 296.930929 285.603406 
L 301.76826 289.374285 
L 306.605591 294.645053 
L 311.442922 301.10974 
L 316.280253 308.411331 
L 321.117584 316.184717 
L 325.954916 324.080186 
L 330.792247 331.764503 
L 335.629578 338.909802 
L 340.466909 345.185498 
L 345.30424 350.262025 
L 350.141571 353.824123 
L 354.978902 355.584627 
L 359.816233 355.294269 
L 364.653564 352.755316 
L 369.490895 347.856769 
L 374.328226 340.644943 
L 379.165557 331.423104 
L 384.002889 320.845961 
L 388.84022 309.956152 
L 393.677551 300.114906 
L 398.514882 292.811254 
L 403.352213 289.380927 
L 408.189544 290.706595 
L 413.026875 296.985973 
" style="fill:none;stroke:#d62728;stroke-linecap:round;stroke-width:1.5;"/>
   </g>
   <g id="line2d_41">
    <path clip-path="url(#p7ddad8aef2)" d="M 55.064375 325.269958 
L 59.901706 328.912662 
L 64.739037 331.54766 
L 69.576368 332.060045 
L 74.413699 329.825242 
L 79.25103 324.814608 
L 84.088361 317.583463 
L 88.925693 309.149892 
L 93.763024 300.78976 
L 98.600355 293.786193 
L 103.437686 289.181615 
L 108.275017 287.584538 
L 113.112348 289.077117 
L 117.949679 293.249287 
L 122.78701 299.352252 
L 127.624341 306.527085 
L 132.461672 314.037194 
L 137.299003 321.429106 
L 142.136334 328.570285 
L 146.973666 335.557833 
L 151.810997 342.541196 
L 156.648328 349.534735 
L 161.485659 356.298263 
L 166.32299 362.33379 
L 171.160321 366.998598 
L 175.997652 369.68851 
L 180.834983 370.020945 
L 185.672314 367.952698 
L 190.509645 363.796965 
L 195.346976 358.142794 
L 200.184307 351.711554 
L 205.021639 345.19891 
L 209.85897 339.146166 
L 214.696301 333.867403 
L 219.533632 329.437455 
L 224.370963 325.729076 
L 229.208294 322.479187 
L 234.045625 319.36499 
L 238.882956 316.076395 
L 243.720287 312.37735 
L 248.557618 308.151888 
L 253.394949 303.430812 
L 258.23228 298.394632 
L 263.069611 293.349852 
L 267.906943 288.680706 
L 272.744274 284.784801 
L 277.581605 282.007052 
L 282.418936 280.588467 
L 287.256267 280.643353 
L 292.093598 282.169882 
L 296.930929 285.087466 
L 301.76826 289.283429 
L 306.605591 294.64628 
L 311.442922 301.067198 
L 316.280253 308.40356 
L 321.117584 316.416113 
L 325.954916 324.706033 
L 330.792247 332.684029 
L 335.629578 339.597526 
L 340.466909 344.624089 
L 345.30424 347.016571 
L 350.141571 346.265283 
L 354.978902 342.232746 
L 359.816233 335.22156 
L 364.653564 325.953642 
L 369.490895 315.463905 
L 374.328226 304.934796 
L 379.165557 295.512035 
L 384.002889 288.143569 
L 388.84022 283.473324 
L 393.677551 281.804279 
L 398.514882 283.127749 
L 403.352213 287.202142 
L 408.189544 293.657808 
L 413.026875 302.10346 
" style="fill:none;stroke:#9467bd;stroke-linecap:round;stroke-width:1.5;"/>
   </g>
   <g id="patch_10">
    <path d="M 55.064375 382.718125 
L 55.064375 232.918125 
" style="fill:none;stroke:#ffffff;stroke-linecap:square;stroke-linejoin:miter;stroke-width:0.8;"/>
   </g>
   <g id="patch_11">
    <path d="M 413.026875 382.718125 
L 413.026875 232.918125 
" style="fill:none;stroke:#ffffff;stroke-linecap:square;stroke-linejoin:miter;stroke-width:0.8;"/>
   </g>
   <g id="patch_12">
    <path d="M 55.064375 382.718125 
L 413.026875 382.718125 
" style="fill:none;stroke:#ffffff;stroke-linecap:square;stroke-linejoin:miter;stroke-width:0.8;"/>
   </g>
   <g id="patch_13">
    <path d="M 55.064375 232.918125 
L 413.026875 232.918125 
" style="fill:none;stroke:#ffffff;stroke-linecap:square;stroke-linejoin:miter;stroke-width:0.8;"/>
   </g>
   <g id="text_37">
    <!-- 5 different function realizations from posterior -->
    <g style="fill:#262626;" transform="translate(95.255313 226.918125)scale(0.12 -0.12)">
     <defs>
      <path d="M 3122 3366 
L 3122 2828 
Q 2878 2963 2633 3030 
Q 2388 3097 2138 3097 
Q 1578 3097 1268 2742 
Q 959 2388 959 1747 
Q 959 1106 1268 751 
Q 1578 397 2138 397 
Q 2388 397 2633 464 
Q 2878 531 3122 666 
L 3122 134 
Q 2881 22 2623 -34 
Q 2366 -91 2075 -91 
Q 1284 -91 818 406 
Q 353 903 353 1747 
Q 353 2603 823 3093 
Q 1294 3584 2113 3584 
Q 2378 3584 2631 3529 
Q 2884 3475 3122 3366 
z
" id="DejaVuSans-63" transform="scale(0.015625)"/>
      <path d="M 603 4863 
L 1178 4863 
L 1178 0 
L 603 0 
L 603 4863 
z
" id="DejaVuSans-6c" transform="scale(0.015625)"/>
      <path d="M 353 3500 
L 3084 3500 
L 3084 2975 
L 922 459 
L 3084 459 
L 3084 0 
L 275 0 
L 275 525 
L 2438 3041 
L 353 3041 
L 353 3500 
z
" id="DejaVuSans-7a" transform="scale(0.015625)"/>
      <path d="M 3328 2828 
Q 3544 3216 3844 3400 
Q 4144 3584 4550 3584 
Q 5097 3584 5394 3201 
Q 5691 2819 5691 2113 
L 5691 0 
L 5113 0 
L 5113 2094 
Q 5113 2597 4934 2840 
Q 4756 3084 4391 3084 
Q 3944 3084 3684 2787 
Q 3425 2491 3425 1978 
L 3425 0 
L 2847 0 
L 2847 2094 
Q 2847 2600 2669 2842 
Q 2491 3084 2119 3084 
Q 1678 3084 1418 2786 
Q 1159 2488 1159 1978 
L 1159 0 
L 581 0 
L 581 3500 
L 1159 3500 
L 1159 2956 
Q 1356 3278 1631 3431 
Q 1906 3584 2284 3584 
Q 2666 3584 2933 3390 
Q 3200 3197 3328 2828 
z
" id="DejaVuSans-6d" transform="scale(0.015625)"/>
     </defs>
     <use xlink:href="#DejaVuSans-35"/>
     <use x="63.623047" xlink:href="#DejaVuSans-20"/>
     <use x="95.410156" xlink:href="#DejaVuSans-64"/>
     <use x="158.886719" xlink:href="#DejaVuSans-69"/>
     <use x="186.669922" xlink:href="#DejaVuSans-66"/>
     <use x="221.875" xlink:href="#DejaVuSans-66"/>
     <use x="257.080078" xlink:href="#DejaVuSans-65"/>
     <use x="318.603516" xlink:href="#DejaVuSans-72"/>
     <use x="357.466797" xlink:href="#DejaVuSans-65"/>
     <use x="418.990234" xlink:href="#DejaVuSans-6e"/>
     <use x="482.369141" xlink:href="#DejaVuSans-74"/>
     <use x="521.578125" xlink:href="#DejaVuSans-20"/>
     <use x="553.365234" xlink:href="#DejaVuSans-66"/>
     <use x="588.570312" xlink:href="#DejaVuSans-75"/>
     <use x="651.949219" xlink:href="#DejaVuSans-6e"/>
     <use x="715.328125" xlink:href="#DejaVuSans-63"/>
     <use x="770.308594" xlink:href="#DejaVuSans-74"/>
     <use x="809.517578" xlink:href="#DejaVuSans-69"/>
     <use x="837.300781" xlink:href="#DejaVuSans-6f"/>
     <use x="898.482422" xlink:href="#DejaVuSans-6e"/>
     <use x="961.861328" xlink:href="#DejaVuSans-20"/>
     <use x="993.648438" xlink:href="#DejaVuSans-72"/>
     <use x="1032.511719" xlink:href="#DejaVuSans-65"/>
     <use x="1094.035156" xlink:href="#DejaVuSans-61"/>
     <use x="1155.314453" xlink:href="#DejaVuSans-6c"/>
     <use x="1183.097656" xlink:href="#DejaVuSans-69"/>
     <use x="1210.880859" xlink:href="#DejaVuSans-7a"/>
     <use x="1263.371094" xlink:href="#DejaVuSans-61"/>
     <use x="1324.650391" xlink:href="#DejaVuSans-74"/>
     <use x="1363.859375" xlink:href="#DejaVuSans-69"/>
     <use x="1391.642578" xlink:href="#DejaVuSans-6f"/>
     <use x="1452.824219" xlink:href="#DejaVuSans-6e"/>
     <use x="1516.203125" xlink:href="#DejaVuSans-73"/>
     <use x="1568.302734" xlink:href="#DejaVuSans-20"/>
     <use x="1600.089844" xlink:href="#DejaVuSans-66"/>
     <use x="1635.294922" xlink:href="#DejaVuSans-72"/>
     <use x="1674.158203" xlink:href="#DejaVuSans-6f"/>
     <use x="1735.339844" xlink:href="#DejaVuSans-6d"/>
     <use x="1832.751953" xlink:href="#DejaVuSans-20"/>
     <use x="1864.539062" xlink:href="#DejaVuSans-70"/>
     <use x="1928.015625" xlink:href="#DejaVuSans-6f"/>
     <use x="1989.197266" xlink:href="#DejaVuSans-73"/>
     <use x="2041.296875" xlink:href="#DejaVuSans-74"/>
     <use x="2080.505859" xlink:href="#DejaVuSans-65"/>
     <use x="2142.029297" xlink:href="#DejaVuSans-72"/>
     <use x="2183.142578" xlink:href="#DejaVuSans-69"/>
     <use x="2210.925781" xlink:href="#DejaVuSans-6f"/>
     <use x="2272.107422" xlink:href="#DejaVuSans-72"/>
    </g>
   </g>
  </g>
 </g>
 <defs>
  <clipPath id="pb2552d731e">
   <rect height="149.8" width="357.9625" x="55.064375" y="22.318125"/>
  </clipPath>
  <clipPath id="p7ddad8aef2">
   <rect height="149.8" width="357.9625" x="55.064375" y="232.918125"/>
  </clipPath>
 </defs>
</svg>
