<?xml version="1.0" encoding="utf-8" standalone="no"?>
<!DOCTYPE svg PUBLIC "-//W3C//DTD SVG 1.1//EN"
  "http://www.w3.org/Graphics/SVG/1.1/DTD/svg11.dtd">
<svg height="293.655187pt" version="1.1" viewBox="0 0 439.036875 293.655187" width="439.036875pt" xmlns="http://www.w3.org/2000/svg" xmlns:xlink="http://www.w3.org/1999/xlink">
 <metadata>
  <rdf:RDF xmlns:cc="http://creativecommons.org/ns#" xmlns:dc="http://purl.org/dc/elements/1.1/" xmlns:rdf="http://www.w3.org/1999/02/22-rdf-syntax-ns#">
   <cc:Work>
    <dc:type rdf:resource="http://purl.org/dc/dcmitype/StillImage"/>
    <dc:date>2021-08-31T12:30:08.531869</dc:date>
    <dc:format>image/svg+xml</dc:format>
    <dc:creator>
     <cc:Agent>
      <dc:title>Matplotlib v3.4.3, https://matplotlib.org/</dc:title>
     </cc:Agent>
    </dc:creator>
   </cc:Work>
  </rdf:RDF>
 </metadata>
 <defs>
  <style type="text/css">*{stroke-linecap:butt;stroke-linejoin:round;}</style>
 </defs>
 <g id="figure_1">
  <g id="patch_1">
   <path d="M -0 293.655187 
L 439.036875 293.655187 
L 439.036875 0 
L -0 0 
z
" style="fill:#ffffff;"/>
  </g>
  <g id="axes_1">
   <g id="patch_2">
    <path d="M 52.118437 253.1955 
L 386.918437 253.1955 
L 386.918437 35.7555 
L 52.118437 35.7555 
z
" style="fill:#eaeaf2;"/>
   </g>
   <g id="matplotlib.axis_1">
    <g id="xtick_1">
     <g id="line2d_1">
      <path clip-path="url(#p4f6b6e0aef)" d="M 52.118437 253.1955 
L 52.118437 35.7555 
" style="fill:none;stroke:#ffffff;stroke-linecap:round;stroke-width:0.8;"/>
     </g>
     <g id="text_1">
      <!-- −4 -->
      <g style="fill:#262626;" transform="translate(44.747344 267.793937)scale(0.1 -0.1)">
       <defs>
        <path d="M 678 2272 
L 4684 2272 
L 4684 1741 
L 678 1741 
L 678 2272 
z
" id="DejaVuSans-2212" transform="scale(0.015625)"/>
        <path d="M 2419 4116 
L 825 1625 
L 2419 1625 
L 2419 4116 
z
M 2253 4666 
L 3047 4666 
L 3047 1625 
L 3713 1625 
L 3713 1100 
L 3047 1100 
L 3047 0 
L 2419 0 
L 2419 1100 
L 313 1100 
L 313 1709 
L 2253 4666 
z
" id="DejaVuSans-34" transform="scale(0.015625)"/>
       </defs>
       <use xlink:href="#DejaVuSans-2212"/>
       <use x="83.789062" xlink:href="#DejaVuSans-34"/>
      </g>
     </g>
    </g>
    <g id="xtick_2">
     <g id="line2d_2">
      <path clip-path="url(#p4f6b6e0aef)" d="M 93.968437 253.1955 
L 93.968437 35.7555 
" style="fill:none;stroke:#ffffff;stroke-linecap:round;stroke-width:0.8;"/>
     </g>
     <g id="text_2">
      <!-- −3 -->
      <g style="fill:#262626;" transform="translate(86.597344 267.793937)scale(0.1 -0.1)">
       <defs>
        <path d="M 2597 2516 
Q 3050 2419 3304 2112 
Q 3559 1806 3559 1356 
Q 3559 666 3084 287 
Q 2609 -91 1734 -91 
Q 1441 -91 1130 -33 
Q 819 25 488 141 
L 488 750 
Q 750 597 1062 519 
Q 1375 441 1716 441 
Q 2309 441 2620 675 
Q 2931 909 2931 1356 
Q 2931 1769 2642 2001 
Q 2353 2234 1838 2234 
L 1294 2234 
L 1294 2753 
L 1863 2753 
Q 2328 2753 2575 2939 
Q 2822 3125 2822 3475 
Q 2822 3834 2567 4026 
Q 2313 4219 1838 4219 
Q 1578 4219 1281 4162 
Q 984 4106 628 3988 
L 628 4550 
Q 988 4650 1302 4700 
Q 1616 4750 1894 4750 
Q 2613 4750 3031 4423 
Q 3450 4097 3450 3541 
Q 3450 3153 3228 2886 
Q 3006 2619 2597 2516 
z
" id="DejaVuSans-33" transform="scale(0.015625)"/>
       </defs>
       <use xlink:href="#DejaVuSans-2212"/>
       <use x="83.789062" xlink:href="#DejaVuSans-33"/>
      </g>
     </g>
    </g>
    <g id="xtick_3">
     <g id="line2d_3">
      <path clip-path="url(#p4f6b6e0aef)" d="M 135.818438 253.1955 
L 135.818438 35.7555 
" style="fill:none;stroke:#ffffff;stroke-linecap:round;stroke-width:0.8;"/>
     </g>
     <g id="text_3">
      <!-- −2 -->
      <g style="fill:#262626;" transform="translate(128.447344 267.793937)scale(0.1 -0.1)">
       <defs>
        <path d="M 1228 531 
L 3431 531 
L 3431 0 
L 469 0 
L 469 531 
Q 828 903 1448 1529 
Q 2069 2156 2228 2338 
Q 2531 2678 2651 2914 
Q 2772 3150 2772 3378 
Q 2772 3750 2511 3984 
Q 2250 4219 1831 4219 
Q 1534 4219 1204 4116 
Q 875 4013 500 3803 
L 500 4441 
Q 881 4594 1212 4672 
Q 1544 4750 1819 4750 
Q 2544 4750 2975 4387 
Q 3406 4025 3406 3419 
Q 3406 3131 3298 2873 
Q 3191 2616 2906 2266 
Q 2828 2175 2409 1742 
Q 1991 1309 1228 531 
z
" id="DejaVuSans-32" transform="scale(0.015625)"/>
       </defs>
       <use xlink:href="#DejaVuSans-2212"/>
       <use x="83.789062" xlink:href="#DejaVuSans-32"/>
      </g>
     </g>
    </g>
    <g id="xtick_4">
     <g id="line2d_4">
      <path clip-path="url(#p4f6b6e0aef)" d="M 177.668438 253.1955 
L 177.668438 35.7555 
" style="fill:none;stroke:#ffffff;stroke-linecap:round;stroke-width:0.8;"/>
     </g>
     <g id="text_4">
      <!-- −1 -->
      <g style="fill:#262626;" transform="translate(170.297344 267.793937)scale(0.1 -0.1)">
       <defs>
        <path d="M 794 531 
L 1825 531 
L 1825 4091 
L 703 3866 
L 703 4441 
L 1819 4666 
L 2450 4666 
L 2450 531 
L 3481 531 
L 3481 0 
L 794 0 
L 794 531 
z
" id="DejaVuSans-31" transform="scale(0.015625)"/>
       </defs>
       <use xlink:href="#DejaVuSans-2212"/>
       <use x="83.789062" xlink:href="#DejaVuSans-31"/>
      </g>
     </g>
    </g>
    <g id="xtick_5">
     <g id="line2d_5">
      <path clip-path="url(#p4f6b6e0aef)" d="M 219.518438 253.1955 
L 219.518438 35.7555 
" style="fill:none;stroke:#ffffff;stroke-linecap:round;stroke-width:0.8;"/>
     </g>
     <g id="text_5">
      <!-- 0 -->
      <g style="fill:#262626;" transform="translate(216.337187 267.793937)scale(0.1 -0.1)">
       <defs>
        <path d="M 2034 4250 
Q 1547 4250 1301 3770 
Q 1056 3291 1056 2328 
Q 1056 1369 1301 889 
Q 1547 409 2034 409 
Q 2525 409 2770 889 
Q 3016 1369 3016 2328 
Q 3016 3291 2770 3770 
Q 2525 4250 2034 4250 
z
M 2034 4750 
Q 2819 4750 3233 4129 
Q 3647 3509 3647 2328 
Q 3647 1150 3233 529 
Q 2819 -91 2034 -91 
Q 1250 -91 836 529 
Q 422 1150 422 2328 
Q 422 3509 836 4129 
Q 1250 4750 2034 4750 
z
" id="DejaVuSans-30" transform="scale(0.015625)"/>
       </defs>
       <use xlink:href="#DejaVuSans-30"/>
      </g>
     </g>
    </g>
    <g id="xtick_6">
     <g id="line2d_6">
      <path clip-path="url(#p4f6b6e0aef)" d="M 261.368438 253.1955 
L 261.368438 35.7555 
" style="fill:none;stroke:#ffffff;stroke-linecap:round;stroke-width:0.8;"/>
     </g>
     <g id="text_6">
      <!-- 1 -->
      <g style="fill:#262626;" transform="translate(258.187188 267.793937)scale(0.1 -0.1)">
       <use xlink:href="#DejaVuSans-31"/>
      </g>
     </g>
    </g>
    <g id="xtick_7">
     <g id="line2d_7">
      <path clip-path="url(#p4f6b6e0aef)" d="M 303.218437 253.1955 
L 303.218437 35.7555 
" style="fill:none;stroke:#ffffff;stroke-linecap:round;stroke-width:0.8;"/>
     </g>
     <g id="text_7">
      <!-- 2 -->
      <g style="fill:#262626;" transform="translate(300.037188 267.793937)scale(0.1 -0.1)">
       <use xlink:href="#DejaVuSans-32"/>
      </g>
     </g>
    </g>
    <g id="xtick_8">
     <g id="line2d_8">
      <path clip-path="url(#p4f6b6e0aef)" d="M 345.068438 253.1955 
L 345.068438 35.7555 
" style="fill:none;stroke:#ffffff;stroke-linecap:round;stroke-width:0.8;"/>
     </g>
     <g id="text_8">
      <!-- 3 -->
      <g style="fill:#262626;" transform="translate(341.887188 267.793937)scale(0.1 -0.1)">
       <use xlink:href="#DejaVuSans-33"/>
      </g>
     </g>
    </g>
    <g id="xtick_9">
     <g id="line2d_9">
      <path clip-path="url(#p4f6b6e0aef)" d="M 386.918437 253.1955 
L 386.918437 35.7555 
" style="fill:none;stroke:#ffffff;stroke-linecap:round;stroke-width:0.8;"/>
     </g>
     <g id="text_9">
      <!-- 4 -->
      <g style="fill:#262626;" transform="translate(383.737188 267.793937)scale(0.1 -0.1)">
       <use xlink:href="#DejaVuSans-34"/>
      </g>
     </g>
    </g>
    <g id="text_10">
     <!-- $x$ -->
     <g style="fill:#262626;" transform="translate(215.618437 283.751594)scale(0.13 -0.13)">
      <defs>
       <path d="M 3841 3500 
L 2234 1784 
L 3219 0 
L 2559 0 
L 1819 1388 
L 531 0 
L -166 0 
L 1556 1844 
L 641 3500 
L 1300 3500 
L 1972 2234 
L 3144 3500 
L 3841 3500 
z
" id="DejaVuSans-Oblique-78" transform="scale(0.015625)"/>
      </defs>
      <use transform="translate(0 0.3125)" xlink:href="#DejaVuSans-Oblique-78"/>
     </g>
    </g>
   </g>
   <g id="matplotlib.axis_2">
    <g id="ytick_1">
     <g id="line2d_10">
      <path clip-path="url(#p4f6b6e0aef)" d="M 52.118437 214.596498 
L 386.918437 214.596498 
" style="fill:none;stroke:#ffffff;stroke-linecap:round;stroke-width:0.8;"/>
     </g>
     <g id="text_11">
      <!-- −2 -->
      <g style="fill:#262626;" transform="translate(30.37625 218.395716)scale(0.1 -0.1)">
       <use xlink:href="#DejaVuSans-2212"/>
       <use x="83.789062" xlink:href="#DejaVuSans-32"/>
      </g>
     </g>
    </g>
    <g id="ytick_2">
     <g id="line2d_11">
      <path clip-path="url(#p4f6b6e0aef)" d="M 52.118437 173.463778 
L 386.918437 173.463778 
" style="fill:none;stroke:#ffffff;stroke-linecap:round;stroke-width:0.8;"/>
     </g>
     <g id="text_12">
      <!-- −1 -->
      <g style="fill:#262626;" transform="translate(30.37625 177.262997)scale(0.1 -0.1)">
       <use xlink:href="#DejaVuSans-2212"/>
       <use x="83.789062" xlink:href="#DejaVuSans-31"/>
      </g>
     </g>
    </g>
    <g id="ytick_3">
     <g id="line2d_12">
      <path clip-path="url(#p4f6b6e0aef)" d="M 52.118437 132.331059 
L 386.918437 132.331059 
" style="fill:none;stroke:#ffffff;stroke-linecap:round;stroke-width:0.8;"/>
     </g>
     <g id="text_13">
      <!-- 0 -->
      <g style="fill:#262626;" transform="translate(38.755937 136.130278)scale(0.1 -0.1)">
       <use xlink:href="#DejaVuSans-30"/>
      </g>
     </g>
    </g>
    <g id="ytick_4">
     <g id="line2d_13">
      <path clip-path="url(#p4f6b6e0aef)" d="M 52.118437 91.19834 
L 386.918437 91.19834 
" style="fill:none;stroke:#ffffff;stroke-linecap:round;stroke-width:0.8;"/>
     </g>
     <g id="text_14">
      <!-- 1 -->
      <g style="fill:#262626;" transform="translate(38.755937 94.997558)scale(0.1 -0.1)">
       <use xlink:href="#DejaVuSans-31"/>
      </g>
     </g>
    </g>
    <g id="ytick_5">
     <g id="line2d_14">
      <path clip-path="url(#p4f6b6e0aef)" d="M 52.118437 50.06562 
L 386.918437 50.06562 
" style="fill:none;stroke:#ffffff;stroke-linecap:round;stroke-width:0.8;"/>
     </g>
     <g id="text_15">
      <!-- 2 -->
      <g style="fill:#262626;" transform="translate(38.755937 53.864839)scale(0.1 -0.1)">
       <use xlink:href="#DejaVuSans-32"/>
      </g>
     </g>
    </g>
    <g id="text_16">
     <!-- $y = f(x)$ -->
     <g style="fill:#262626;" transform="translate(23.64625 167.5505)rotate(-90)scale(0.13 -0.13)">
      <defs>
       <path d="M 1588 -325 
Q 1188 -997 936 -1164 
Q 684 -1331 294 -1331 
L -159 -1331 
L -63 -850 
L 269 -850 
Q 509 -850 678 -719 
Q 847 -588 1056 -206 
L 1234 128 
L 459 3500 
L 1069 3500 
L 1650 819 
L 3256 3500 
L 3859 3500 
L 1588 -325 
z
" id="DejaVuSans-Oblique-79" transform="scale(0.015625)"/>
       <path d="M 678 2906 
L 4684 2906 
L 4684 2381 
L 678 2381 
L 678 2906 
z
M 678 1631 
L 4684 1631 
L 4684 1100 
L 678 1100 
L 678 1631 
z
" id="DejaVuSans-3d" transform="scale(0.015625)"/>
       <path d="M 3059 4863 
L 2969 4384 
L 2419 4384 
Q 2106 4384 1964 4261 
Q 1822 4138 1753 3809 
L 1691 3500 
L 2638 3500 
L 2553 3053 
L 1606 3053 
L 1013 0 
L 434 0 
L 1031 3053 
L 481 3053 
L 563 3500 
L 1113 3500 
L 1159 3744 
Q 1278 4363 1576 4613 
Q 1875 4863 2516 4863 
L 3059 4863 
z
" id="DejaVuSans-Oblique-66" transform="scale(0.015625)"/>
       <path d="M 1984 4856 
Q 1566 4138 1362 3434 
Q 1159 2731 1159 2009 
Q 1159 1288 1364 580 
Q 1569 -128 1984 -844 
L 1484 -844 
Q 1016 -109 783 600 
Q 550 1309 550 2009 
Q 550 2706 781 3412 
Q 1013 4119 1484 4856 
L 1984 4856 
z
" id="DejaVuSans-28" transform="scale(0.015625)"/>
       <path d="M 513 4856 
L 1013 4856 
Q 1481 4119 1714 3412 
Q 1947 2706 1947 2009 
Q 1947 1309 1714 600 
Q 1481 -109 1013 -844 
L 513 -844 
Q 928 -128 1133 580 
Q 1338 1288 1338 2009 
Q 1338 2731 1133 3434 
Q 928 4138 513 4856 
z
" id="DejaVuSans-29" transform="scale(0.015625)"/>
      </defs>
      <use transform="translate(0 0.015625)" xlink:href="#DejaVuSans-Oblique-79"/>
      <use transform="translate(78.662109 0.015625)" xlink:href="#DejaVuSans-3d"/>
      <use transform="translate(181.933594 0.015625)" xlink:href="#DejaVuSans-Oblique-66"/>
      <use transform="translate(217.138672 0.015625)" xlink:href="#DejaVuSans-28"/>
      <use transform="translate(256.152344 0.015625)" xlink:href="#DejaVuSans-Oblique-78"/>
      <use transform="translate(315.332031 0.015625)" xlink:href="#DejaVuSans-29"/>
     </g>
    </g>
   </g>
   <g id="line2d_15">
    <path clip-path="url(#p4f6b6e0aef)" d="M 52.118437 126.244231 
L 60.488438 110.382345 
L 68.858438 96.862655 
L 77.228438 86.899016 
L 85.598437 81.07214 
L 93.968437 79.157424 
L 102.338438 80.163988 
L 110.708438 82.589709 
L 119.078438 84.819089 
L 127.448437 85.543995 
L 135.818438 84.087869 
L 144.188438 80.550975 
L 152.558438 75.744666 
L 160.928438 70.933499 
L 169.298438 67.455315 
L 177.668438 66.336933 
L 186.038438 68.042196 
L 194.408438 72.447773 
L 202.778437 79.039466 
L 211.148438 87.206744 
L 219.518438 96.46048 
L 227.888438 106.452742 
L 236.258438 116.81007 
L 244.628438 126.917681 
L 252.998438 135.828307 
L 261.368438 142.397402 
L 269.738438 145.61919 
L 278.108438 145.034026 
L 286.478438 141.041215 
L 294.848438 134.978246 
L 303.218437 128.893507 
L 311.588437 125.032915 
L 319.958438 125.171775 
L 328.328438 130.016627 
L 336.698438 138.916074 
L 345.068438 150.015869 
L 353.438438 160.806464 
L 361.808438 168.843192 
L 370.178438 172.370378 
L 378.548438 170.671724 
L 386.918437 164.125461 
" style="fill:none;stroke:#1f77b4;stroke-linecap:round;stroke-width:1.5;"/>
    <defs>
     <path d="M 0 1.5 
C 0.397805 1.5 0.77937 1.341951 1.06066 1.06066 
C 1.341951 0.77937 1.5 0.397805 1.5 0 
C 1.5 -0.397805 1.341951 -0.77937 1.06066 -1.06066 
C 0.77937 -1.341951 0.397805 -1.5 0 -1.5 
C -0.397805 -1.5 -0.77937 -1.341951 -1.06066 -1.06066 
C -1.341951 -0.77937 -1.5 -0.397805 -1.5 0 
C -1.5 0.397805 -1.341951 0.77937 -1.06066 1.06066 
C -0.77937 1.341951 -0.397805 1.5 0 1.5 
z
" id="m36e1b2b4a8" style="stroke:#1f77b4;"/>
    </defs>
    <g clip-path="url(#p4f6b6e0aef)">
     <use style="fill:#1f77b4;stroke:#1f77b4;" x="52.118437" xlink:href="#m36e1b2b4a8" y="126.244231"/>
     <use style="fill:#1f77b4;stroke:#1f77b4;" x="60.488438" xlink:href="#m36e1b2b4a8" y="110.382345"/>
     <use style="fill:#1f77b4;stroke:#1f77b4;" x="68.858438" xlink:href="#m36e1b2b4a8" y="96.862655"/>
     <use style="fill:#1f77b4;stroke:#1f77b4;" x="77.228438" xlink:href="#m36e1b2b4a8" y="86.899016"/>
     <use style="fill:#1f77b4;stroke:#1f77b4;" x="85.598437" xlink:href="#m36e1b2b4a8" y="81.07214"/>
     <use style="fill:#1f77b4;stroke:#1f77b4;" x="93.968437" xlink:href="#m36e1b2b4a8" y="79.157424"/>
     <use style="fill:#1f77b4;stroke:#1f77b4;" x="102.338438" xlink:href="#m36e1b2b4a8" y="80.163988"/>
     <use style="fill:#1f77b4;stroke:#1f77b4;" x="110.708438" xlink:href="#m36e1b2b4a8" y="82.589709"/>
     <use style="fill:#1f77b4;stroke:#1f77b4;" x="119.078438" xlink:href="#m36e1b2b4a8" y="84.819089"/>
     <use style="fill:#1f77b4;stroke:#1f77b4;" x="127.448437" xlink:href="#m36e1b2b4a8" y="85.543995"/>
     <use style="fill:#1f77b4;stroke:#1f77b4;" x="135.818438" xlink:href="#m36e1b2b4a8" y="84.087869"/>
     <use style="fill:#1f77b4;stroke:#1f77b4;" x="144.188438" xlink:href="#m36e1b2b4a8" y="80.550975"/>
     <use style="fill:#1f77b4;stroke:#1f77b4;" x="152.558438" xlink:href="#m36e1b2b4a8" y="75.744666"/>
     <use style="fill:#1f77b4;stroke:#1f77b4;" x="160.928438" xlink:href="#m36e1b2b4a8" y="70.933499"/>
     <use style="fill:#1f77b4;stroke:#1f77b4;" x="169.298438" xlink:href="#m36e1b2b4a8" y="67.455315"/>
     <use style="fill:#1f77b4;stroke:#1f77b4;" x="177.668438" xlink:href="#m36e1b2b4a8" y="66.336933"/>
     <use style="fill:#1f77b4;stroke:#1f77b4;" x="186.038438" xlink:href="#m36e1b2b4a8" y="68.042196"/>
     <use style="fill:#1f77b4;stroke:#1f77b4;" x="194.408438" xlink:href="#m36e1b2b4a8" y="72.447773"/>
     <use style="fill:#1f77b4;stroke:#1f77b4;" x="202.778437" xlink:href="#m36e1b2b4a8" y="79.039466"/>
     <use style="fill:#1f77b4;stroke:#1f77b4;" x="211.148438" xlink:href="#m36e1b2b4a8" y="87.206744"/>
     <use style="fill:#1f77b4;stroke:#1f77b4;" x="219.518438" xlink:href="#m36e1b2b4a8" y="96.46048"/>
     <use style="fill:#1f77b4;stroke:#1f77b4;" x="227.888438" xlink:href="#m36e1b2b4a8" y="106.452742"/>
     <use style="fill:#1f77b4;stroke:#1f77b4;" x="236.258438" xlink:href="#m36e1b2b4a8" y="116.81007"/>
     <use style="fill:#1f77b4;stroke:#1f77b4;" x="244.628438" xlink:href="#m36e1b2b4a8" y="126.917681"/>
     <use style="fill:#1f77b4;stroke:#1f77b4;" x="252.998438" xlink:href="#m36e1b2b4a8" y="135.828307"/>
     <use style="fill:#1f77b4;stroke:#1f77b4;" x="261.368438" xlink:href="#m36e1b2b4a8" y="142.397402"/>
     <use style="fill:#1f77b4;stroke:#1f77b4;" x="269.738438" xlink:href="#m36e1b2b4a8" y="145.61919"/>
     <use style="fill:#1f77b4;stroke:#1f77b4;" x="278.108438" xlink:href="#m36e1b2b4a8" y="145.034026"/>
     <use style="fill:#1f77b4;stroke:#1f77b4;" x="286.478438" xlink:href="#m36e1b2b4a8" y="141.041215"/>
     <use style="fill:#1f77b4;stroke:#1f77b4;" x="294.848438" xlink:href="#m36e1b2b4a8" y="134.978246"/>
     <use style="fill:#1f77b4;stroke:#1f77b4;" x="303.218437" xlink:href="#m36e1b2b4a8" y="128.893507"/>
     <use style="fill:#1f77b4;stroke:#1f77b4;" x="311.588437" xlink:href="#m36e1b2b4a8" y="125.032915"/>
     <use style="fill:#1f77b4;stroke:#1f77b4;" x="319.958438" xlink:href="#m36e1b2b4a8" y="125.171775"/>
     <use style="fill:#1f77b4;stroke:#1f77b4;" x="328.328438" xlink:href="#m36e1b2b4a8" y="130.016627"/>
     <use style="fill:#1f77b4;stroke:#1f77b4;" x="336.698438" xlink:href="#m36e1b2b4a8" y="138.916074"/>
     <use style="fill:#1f77b4;stroke:#1f77b4;" x="345.068438" xlink:href="#m36e1b2b4a8" y="150.015869"/>
     <use style="fill:#1f77b4;stroke:#1f77b4;" x="353.438438" xlink:href="#m36e1b2b4a8" y="160.806464"/>
     <use style="fill:#1f77b4;stroke:#1f77b4;" x="361.808438" xlink:href="#m36e1b2b4a8" y="168.843192"/>
     <use style="fill:#1f77b4;stroke:#1f77b4;" x="370.178438" xlink:href="#m36e1b2b4a8" y="172.370378"/>
     <use style="fill:#1f77b4;stroke:#1f77b4;" x="378.548438" xlink:href="#m36e1b2b4a8" y="170.671724"/>
     <use style="fill:#1f77b4;stroke:#1f77b4;" x="386.918437" xlink:href="#m36e1b2b4a8" y="164.125461"/>
    </g>
   </g>
   <g id="line2d_16">
    <path clip-path="url(#p4f6b6e0aef)" d="M 52.118437 85.39123 
L 60.488438 76.213191 
L 68.858438 69.7955 
L 77.228438 67.119821 
L 85.598437 68.113428 
L 93.968437 71.77969 
L 102.338438 76.567434 
L 110.708438 80.874085 
L 119.078438 83.552029 
L 127.448437 84.262699 
L 135.818438 83.540755 
L 144.188438 82.519913 
L 152.558438 82.408362 
L 160.928438 83.919225 
L 169.298438 86.895805 
L 177.668438 90.299785 
L 186.038438 92.578807 
L 194.408438 92.263671 
L 202.778437 88.542437 
L 211.148438 81.574184 
L 219.518438 72.433225 
L 227.888438 62.747598 
L 236.258438 54.219049 
L 244.628438 48.227378 
L 252.998438 45.639136 
L 261.368438 46.822917 
L 269.738438 51.789066 
L 278.108438 60.352993 
L 286.478438 72.254 
L 294.848438 87.207365 
L 303.218437 104.895087 
L 311.588437 124.905928 
L 319.958438 146.636813 
L 328.328438 169.183594 
L 336.698438 191.275975 
L 345.068438 211.323234 
L 353.438438 227.608914 
L 361.808438 238.605878 
L 370.178438 243.311864 
L 378.548438 241.476516 
L 386.918437 233.629089 
" style="fill:none;stroke:#ff7f0e;stroke-linecap:round;stroke-width:1.5;"/>
    <defs>
     <path d="M 0 1.5 
C 0.397805 1.5 0.77937 1.341951 1.06066 1.06066 
C 1.341951 0.77937 1.5 0.397805 1.5 0 
C 1.5 -0.397805 1.341951 -0.77937 1.06066 -1.06066 
C 0.77937 -1.341951 0.397805 -1.5 0 -1.5 
C -0.397805 -1.5 -0.77937 -1.341951 -1.06066 -1.06066 
C -1.341951 -0.77937 -1.5 -0.397805 -1.5 0 
C -1.5 0.397805 -1.341951 0.77937 -1.06066 1.06066 
C -0.77937 1.341951 -0.397805 1.5 0 1.5 
z
" id="ma935001ff9" style="stroke:#ff7f0e;"/>
    </defs>
    <g clip-path="url(#p4f6b6e0aef)">
     <use style="fill:#ff7f0e;stroke:#ff7f0e;" x="52.118437" xlink:href="#ma935001ff9" y="85.39123"/>
     <use style="fill:#ff7f0e;stroke:#ff7f0e;" x="60.488438" xlink:href="#ma935001ff9" y="76.213191"/>
     <use style="fill:#ff7f0e;stroke:#ff7f0e;" x="68.858438" xlink:href="#ma935001ff9" y="69.7955"/>
     <use style="fill:#ff7f0e;stroke:#ff7f0e;" x="77.228438" xlink:href="#ma935001ff9" y="67.119821"/>
     <use style="fill:#ff7f0e;stroke:#ff7f0e;" x="85.598437" xlink:href="#ma935001ff9" y="68.113428"/>
     <use style="fill:#ff7f0e;stroke:#ff7f0e;" x="93.968437" xlink:href="#ma935001ff9" y="71.77969"/>
     <use style="fill:#ff7f0e;stroke:#ff7f0e;" x="102.338438" xlink:href="#ma935001ff9" y="76.567434"/>
     <use style="fill:#ff7f0e;stroke:#ff7f0e;" x="110.708438" xlink:href="#ma935001ff9" y="80.874085"/>
     <use style="fill:#ff7f0e;stroke:#ff7f0e;" x="119.078438" xlink:href="#ma935001ff9" y="83.552029"/>
     <use style="fill:#ff7f0e;stroke:#ff7f0e;" x="127.448437" xlink:href="#ma935001ff9" y="84.262699"/>
     <use style="fill:#ff7f0e;stroke:#ff7f0e;" x="135.818438" xlink:href="#ma935001ff9" y="83.540755"/>
     <use style="fill:#ff7f0e;stroke:#ff7f0e;" x="144.188438" xlink:href="#ma935001ff9" y="82.519913"/>
     <use style="fill:#ff7f0e;stroke:#ff7f0e;" x="152.558438" xlink:href="#ma935001ff9" y="82.408362"/>
     <use style="fill:#ff7f0e;stroke:#ff7f0e;" x="160.928438" xlink:href="#ma935001ff9" y="83.919225"/>
     <use style="fill:#ff7f0e;stroke:#ff7f0e;" x="169.298438" xlink:href="#ma935001ff9" y="86.895805"/>
     <use style="fill:#ff7f0e;stroke:#ff7f0e;" x="177.668438" xlink:href="#ma935001ff9" y="90.299785"/>
     <use style="fill:#ff7f0e;stroke:#ff7f0e;" x="186.038438" xlink:href="#ma935001ff9" y="92.578807"/>
     <use style="fill:#ff7f0e;stroke:#ff7f0e;" x="194.408438" xlink:href="#ma935001ff9" y="92.263671"/>
     <use style="fill:#ff7f0e;stroke:#ff7f0e;" x="202.778437" xlink:href="#ma935001ff9" y="88.542437"/>
     <use style="fill:#ff7f0e;stroke:#ff7f0e;" x="211.148438" xlink:href="#ma935001ff9" y="81.574184"/>
     <use style="fill:#ff7f0e;stroke:#ff7f0e;" x="219.518438" xlink:href="#ma935001ff9" y="72.433225"/>
     <use style="fill:#ff7f0e;stroke:#ff7f0e;" x="227.888438" xlink:href="#ma935001ff9" y="62.747598"/>
     <use style="fill:#ff7f0e;stroke:#ff7f0e;" x="236.258438" xlink:href="#ma935001ff9" y="54.219049"/>
     <use style="fill:#ff7f0e;stroke:#ff7f0e;" x="244.628438" xlink:href="#ma935001ff9" y="48.227378"/>
     <use style="fill:#ff7f0e;stroke:#ff7f0e;" x="252.998438" xlink:href="#ma935001ff9" y="45.639136"/>
     <use style="fill:#ff7f0e;stroke:#ff7f0e;" x="261.368438" xlink:href="#ma935001ff9" y="46.822917"/>
     <use style="fill:#ff7f0e;stroke:#ff7f0e;" x="269.738438" xlink:href="#ma935001ff9" y="51.789066"/>
     <use style="fill:#ff7f0e;stroke:#ff7f0e;" x="278.108438" xlink:href="#ma935001ff9" y="60.352993"/>
     <use style="fill:#ff7f0e;stroke:#ff7f0e;" x="286.478438" xlink:href="#ma935001ff9" y="72.254"/>
     <use style="fill:#ff7f0e;stroke:#ff7f0e;" x="294.848438" xlink:href="#ma935001ff9" y="87.207365"/>
     <use style="fill:#ff7f0e;stroke:#ff7f0e;" x="303.218437" xlink:href="#ma935001ff9" y="104.895087"/>
     <use style="fill:#ff7f0e;stroke:#ff7f0e;" x="311.588437" xlink:href="#ma935001ff9" y="124.905928"/>
     <use style="fill:#ff7f0e;stroke:#ff7f0e;" x="319.958438" xlink:href="#ma935001ff9" y="146.636813"/>
     <use style="fill:#ff7f0e;stroke:#ff7f0e;" x="328.328438" xlink:href="#ma935001ff9" y="169.183594"/>
     <use style="fill:#ff7f0e;stroke:#ff7f0e;" x="336.698438" xlink:href="#ma935001ff9" y="191.275975"/>
     <use style="fill:#ff7f0e;stroke:#ff7f0e;" x="345.068438" xlink:href="#ma935001ff9" y="211.323234"/>
     <use style="fill:#ff7f0e;stroke:#ff7f0e;" x="353.438438" xlink:href="#ma935001ff9" y="227.608914"/>
     <use style="fill:#ff7f0e;stroke:#ff7f0e;" x="361.808438" xlink:href="#ma935001ff9" y="238.605878"/>
     <use style="fill:#ff7f0e;stroke:#ff7f0e;" x="370.178438" xlink:href="#ma935001ff9" y="243.311864"/>
     <use style="fill:#ff7f0e;stroke:#ff7f0e;" x="378.548438" xlink:href="#ma935001ff9" y="241.476516"/>
     <use style="fill:#ff7f0e;stroke:#ff7f0e;" x="386.918437" xlink:href="#ma935001ff9" y="233.629089"/>
    </g>
   </g>
   <g id="line2d_17">
    <path clip-path="url(#p4f6b6e0aef)" d="M 52.118437 153.487734 
L 60.488438 168.464761 
L 68.858438 176.355046 
L 77.228438 177.491407 
L 85.598437 173.553466 
L 93.968437 166.869509 
L 102.338438 159.597543 
L 110.708438 153.121148 
L 119.078438 147.873519 
L 127.448437 143.579483 
L 135.818438 139.709955 
L 144.188438 135.886525 
L 152.558438 132.068992 
L 160.928438 128.52046 
L 169.298438 125.658845 
L 177.668438 123.913126 
L 186.038438 123.635242 
L 194.408438 125.04797 
L 202.778437 128.190891 
L 211.148438 132.858054 
L 219.518438 138.558816 
L 227.888438 144.537847 
L 236.258438 149.86245 
L 244.628438 153.557928 
L 252.998438 154.768452 
L 261.368438 152.92914 
L 269.738438 147.924703 
L 278.108438 140.178905 
L 286.478438 130.605203 
L 294.848438 120.392907 
L 303.218437 110.693276 
L 311.588437 102.340859 
L 319.958438 95.73311 
L 328.328438 90.897338 
L 336.698438 87.6681 
L 345.068438 85.858836 
L 353.438438 85.355997 
L 361.808438 86.138865 
L 370.178438 88.265065 
L 378.548438 91.842284 
L 386.918437 96.973952 
" style="fill:none;stroke:#2ca02c;stroke-linecap:round;stroke-width:1.5;"/>
    <defs>
     <path d="M 0 1.5 
C 0.397805 1.5 0.77937 1.341951 1.06066 1.06066 
C 1.341951 0.77937 1.5 0.397805 1.5 0 
C 1.5 -0.397805 1.341951 -0.77937 1.06066 -1.06066 
C 0.77937 -1.341951 0.397805 -1.5 0 -1.5 
C -0.397805 -1.5 -0.77937 -1.341951 -1.06066 -1.06066 
C -1.341951 -0.77937 -1.5 -0.397805 -1.5 0 
C -1.5 0.397805 -1.341951 0.77937 -1.06066 1.06066 
C -0.77937 1.341951 -0.397805 1.5 0 1.5 
z
" id="m773ec4e177" style="stroke:#2ca02c;"/>
    </defs>
    <g clip-path="url(#p4f6b6e0aef)">
     <use style="fill:#2ca02c;stroke:#2ca02c;" x="52.118437" xlink:href="#m773ec4e177" y="153.487734"/>
     <use style="fill:#2ca02c;stroke:#2ca02c;" x="60.488438" xlink:href="#m773ec4e177" y="168.464761"/>
     <use style="fill:#2ca02c;stroke:#2ca02c;" x="68.858438" xlink:href="#m773ec4e177" y="176.355046"/>
     <use style="fill:#2ca02c;stroke:#2ca02c;" x="77.228438" xlink:href="#m773ec4e177" y="177.491407"/>
     <use style="fill:#2ca02c;stroke:#2ca02c;" x="85.598437" xlink:href="#m773ec4e177" y="173.553466"/>
     <use style="fill:#2ca02c;stroke:#2ca02c;" x="93.968437" xlink:href="#m773ec4e177" y="166.869509"/>
     <use style="fill:#2ca02c;stroke:#2ca02c;" x="102.338438" xlink:href="#m773ec4e177" y="159.597543"/>
     <use style="fill:#2ca02c;stroke:#2ca02c;" x="110.708438" xlink:href="#m773ec4e177" y="153.121148"/>
     <use style="fill:#2ca02c;stroke:#2ca02c;" x="119.078438" xlink:href="#m773ec4e177" y="147.873519"/>
     <use style="fill:#2ca02c;stroke:#2ca02c;" x="127.448437" xlink:href="#m773ec4e177" y="143.579483"/>
     <use style="fill:#2ca02c;stroke:#2ca02c;" x="135.818438" xlink:href="#m773ec4e177" y="139.709955"/>
     <use style="fill:#2ca02c;stroke:#2ca02c;" x="144.188438" xlink:href="#m773ec4e177" y="135.886525"/>
     <use style="fill:#2ca02c;stroke:#2ca02c;" x="152.558438" xlink:href="#m773ec4e177" y="132.068992"/>
     <use style="fill:#2ca02c;stroke:#2ca02c;" x="160.928438" xlink:href="#m773ec4e177" y="128.52046"/>
     <use style="fill:#2ca02c;stroke:#2ca02c;" x="169.298438" xlink:href="#m773ec4e177" y="125.658845"/>
     <use style="fill:#2ca02c;stroke:#2ca02c;" x="177.668438" xlink:href="#m773ec4e177" y="123.913126"/>
     <use style="fill:#2ca02c;stroke:#2ca02c;" x="186.038438" xlink:href="#m773ec4e177" y="123.635242"/>
     <use style="fill:#2ca02c;stroke:#2ca02c;" x="194.408438" xlink:href="#m773ec4e177" y="125.04797"/>
     <use style="fill:#2ca02c;stroke:#2ca02c;" x="202.778437" xlink:href="#m773ec4e177" y="128.190891"/>
     <use style="fill:#2ca02c;stroke:#2ca02c;" x="211.148438" xlink:href="#m773ec4e177" y="132.858054"/>
     <use style="fill:#2ca02c;stroke:#2ca02c;" x="219.518438" xlink:href="#m773ec4e177" y="138.558816"/>
     <use style="fill:#2ca02c;stroke:#2ca02c;" x="227.888438" xlink:href="#m773ec4e177" y="144.537847"/>
     <use style="fill:#2ca02c;stroke:#2ca02c;" x="236.258438" xlink:href="#m773ec4e177" y="149.86245"/>
     <use style="fill:#2ca02c;stroke:#2ca02c;" x="244.628438" xlink:href="#m773ec4e177" y="153.557928"/>
     <use style="fill:#2ca02c;stroke:#2ca02c;" x="252.998438" xlink:href="#m773ec4e177" y="154.768452"/>
     <use style="fill:#2ca02c;stroke:#2ca02c;" x="261.368438" xlink:href="#m773ec4e177" y="152.92914"/>
     <use style="fill:#2ca02c;stroke:#2ca02c;" x="269.738438" xlink:href="#m773ec4e177" y="147.924703"/>
     <use style="fill:#2ca02c;stroke:#2ca02c;" x="278.108438" xlink:href="#m773ec4e177" y="140.178905"/>
     <use style="fill:#2ca02c;stroke:#2ca02c;" x="286.478438" xlink:href="#m773ec4e177" y="130.605203"/>
     <use style="fill:#2ca02c;stroke:#2ca02c;" x="294.848438" xlink:href="#m773ec4e177" y="120.392907"/>
     <use style="fill:#2ca02c;stroke:#2ca02c;" x="303.218437" xlink:href="#m773ec4e177" y="110.693276"/>
     <use style="fill:#2ca02c;stroke:#2ca02c;" x="311.588437" xlink:href="#m773ec4e177" y="102.340859"/>
     <use style="fill:#2ca02c;stroke:#2ca02c;" x="319.958438" xlink:href="#m773ec4e177" y="95.73311"/>
     <use style="fill:#2ca02c;stroke:#2ca02c;" x="328.328438" xlink:href="#m773ec4e177" y="90.897338"/>
     <use style="fill:#2ca02c;stroke:#2ca02c;" x="336.698438" xlink:href="#m773ec4e177" y="87.6681"/>
     <use style="fill:#2ca02c;stroke:#2ca02c;" x="345.068438" xlink:href="#m773ec4e177" y="85.858836"/>
     <use style="fill:#2ca02c;stroke:#2ca02c;" x="353.438438" xlink:href="#m773ec4e177" y="85.355997"/>
     <use style="fill:#2ca02c;stroke:#2ca02c;" x="361.808438" xlink:href="#m773ec4e177" y="86.138865"/>
     <use style="fill:#2ca02c;stroke:#2ca02c;" x="370.178438" xlink:href="#m773ec4e177" y="88.265065"/>
     <use style="fill:#2ca02c;stroke:#2ca02c;" x="378.548438" xlink:href="#m773ec4e177" y="91.842284"/>
     <use style="fill:#2ca02c;stroke:#2ca02c;" x="386.918437" xlink:href="#m773ec4e177" y="96.973952"/>
    </g>
   </g>
   <g id="line2d_18">
    <path clip-path="url(#p4f6b6e0aef)" d="M 52.118437 178.261388 
L 60.488438 186.688175 
L 68.858438 194.589305 
L 77.228438 201.12727 
L 85.598437 205.494651 
L 93.968437 207.208421 
L 102.338438 206.28115 
L 110.708438 203.171855 
L 119.078438 198.554327 
L 127.448437 193.053309 
L 135.818438 187.106139 
L 144.188438 181.001861 
L 152.558438 175.01238 
L 160.928438 169.470085 
L 169.298438 164.710947 
L 177.668438 160.932743 
L 186.038438 158.098583 
L 194.408438 155.974352 
L 202.778437 154.263355 
L 211.148438 152.709312 
L 219.518438 151.06961 
L 227.888438 148.993469 
L 236.258438 145.955416 
L 244.628438 141.378778 
L 252.998438 134.932826 
L 261.368438 126.820228 
L 269.738438 117.837426 
L 278.108438 109.136974 
L 286.478438 101.840922 
L 294.848438 96.766261 
L 303.218437 94.422187 
L 311.588437 95.198314 
L 319.958438 99.484317 
L 328.328438 107.509026 
L 336.698438 118.939322 
L 345.068438 132.537391 
L 353.438438 146.220199 
L 361.808438 157.637743 
L 370.178438 165.037032 
L 378.548438 167.953409 
L 386.918437 167.332177 
" style="fill:none;stroke:#d62728;stroke-linecap:round;stroke-width:1.5;"/>
    <defs>
     <path d="M 0 1.5 
C 0.397805 1.5 0.77937 1.341951 1.06066 1.06066 
C 1.341951 0.77937 1.5 0.397805 1.5 0 
C 1.5 -0.397805 1.341951 -0.77937 1.06066 -1.06066 
C 0.77937 -1.341951 0.397805 -1.5 0 -1.5 
C -0.397805 -1.5 -0.77937 -1.341951 -1.06066 -1.06066 
C -1.341951 -0.77937 -1.5 -0.397805 -1.5 0 
C -1.5 0.397805 -1.341951 0.77937 -1.06066 1.06066 
C -0.77937 1.341951 -0.397805 1.5 0 1.5 
z
" id="m2849701f4d" style="stroke:#d62728;"/>
    </defs>
    <g clip-path="url(#p4f6b6e0aef)">
     <use style="fill:#d62728;stroke:#d62728;" x="52.118437" xlink:href="#m2849701f4d" y="178.261388"/>
     <use style="fill:#d62728;stroke:#d62728;" x="60.488438" xlink:href="#m2849701f4d" y="186.688175"/>
     <use style="fill:#d62728;stroke:#d62728;" x="68.858438" xlink:href="#m2849701f4d" y="194.589305"/>
     <use style="fill:#d62728;stroke:#d62728;" x="77.228438" xlink:href="#m2849701f4d" y="201.12727"/>
     <use style="fill:#d62728;stroke:#d62728;" x="85.598437" xlink:href="#m2849701f4d" y="205.494651"/>
     <use style="fill:#d62728;stroke:#d62728;" x="93.968437" xlink:href="#m2849701f4d" y="207.208421"/>
     <use style="fill:#d62728;stroke:#d62728;" x="102.338438" xlink:href="#m2849701f4d" y="206.28115"/>
     <use style="fill:#d62728;stroke:#d62728;" x="110.708438" xlink:href="#m2849701f4d" y="203.171855"/>
     <use style="fill:#d62728;stroke:#d62728;" x="119.078438" xlink:href="#m2849701f4d" y="198.554327"/>
     <use style="fill:#d62728;stroke:#d62728;" x="127.448437" xlink:href="#m2849701f4d" y="193.053309"/>
     <use style="fill:#d62728;stroke:#d62728;" x="135.818438" xlink:href="#m2849701f4d" y="187.106139"/>
     <use style="fill:#d62728;stroke:#d62728;" x="144.188438" xlink:href="#m2849701f4d" y="181.001861"/>
     <use style="fill:#d62728;stroke:#d62728;" x="152.558438" xlink:href="#m2849701f4d" y="175.01238"/>
     <use style="fill:#d62728;stroke:#d62728;" x="160.928438" xlink:href="#m2849701f4d" y="169.470085"/>
     <use style="fill:#d62728;stroke:#d62728;" x="169.298438" xlink:href="#m2849701f4d" y="164.710947"/>
     <use style="fill:#d62728;stroke:#d62728;" x="177.668438" xlink:href="#m2849701f4d" y="160.932743"/>
     <use style="fill:#d62728;stroke:#d62728;" x="186.038438" xlink:href="#m2849701f4d" y="158.098583"/>
     <use style="fill:#d62728;stroke:#d62728;" x="194.408438" xlink:href="#m2849701f4d" y="155.974352"/>
     <use style="fill:#d62728;stroke:#d62728;" x="202.778437" xlink:href="#m2849701f4d" y="154.263355"/>
     <use style="fill:#d62728;stroke:#d62728;" x="211.148438" xlink:href="#m2849701f4d" y="152.709312"/>
     <use style="fill:#d62728;stroke:#d62728;" x="219.518438" xlink:href="#m2849701f4d" y="151.06961"/>
     <use style="fill:#d62728;stroke:#d62728;" x="227.888438" xlink:href="#m2849701f4d" y="148.993469"/>
     <use style="fill:#d62728;stroke:#d62728;" x="236.258438" xlink:href="#m2849701f4d" y="145.955416"/>
     <use style="fill:#d62728;stroke:#d62728;" x="244.628438" xlink:href="#m2849701f4d" y="141.378778"/>
     <use style="fill:#d62728;stroke:#d62728;" x="252.998438" xlink:href="#m2849701f4d" y="134.932826"/>
     <use style="fill:#d62728;stroke:#d62728;" x="261.368438" xlink:href="#m2849701f4d" y="126.820228"/>
     <use style="fill:#d62728;stroke:#d62728;" x="269.738438" xlink:href="#m2849701f4d" y="117.837426"/>
     <use style="fill:#d62728;stroke:#d62728;" x="278.108438" xlink:href="#m2849701f4d" y="109.136974"/>
     <use style="fill:#d62728;stroke:#d62728;" x="286.478438" xlink:href="#m2849701f4d" y="101.840922"/>
     <use style="fill:#d62728;stroke:#d62728;" x="294.848438" xlink:href="#m2849701f4d" y="96.766261"/>
     <use style="fill:#d62728;stroke:#d62728;" x="303.218437" xlink:href="#m2849701f4d" y="94.422187"/>
     <use style="fill:#d62728;stroke:#d62728;" x="311.588437" xlink:href="#m2849701f4d" y="95.198314"/>
     <use style="fill:#d62728;stroke:#d62728;" x="319.958438" xlink:href="#m2849701f4d" y="99.484317"/>
     <use style="fill:#d62728;stroke:#d62728;" x="328.328438" xlink:href="#m2849701f4d" y="107.509026"/>
     <use style="fill:#d62728;stroke:#d62728;" x="336.698438" xlink:href="#m2849701f4d" y="118.939322"/>
     <use style="fill:#d62728;stroke:#d62728;" x="345.068438" xlink:href="#m2849701f4d" y="132.537391"/>
     <use style="fill:#d62728;stroke:#d62728;" x="353.438438" xlink:href="#m2849701f4d" y="146.220199"/>
     <use style="fill:#d62728;stroke:#d62728;" x="361.808438" xlink:href="#m2849701f4d" y="157.637743"/>
     <use style="fill:#d62728;stroke:#d62728;" x="370.178438" xlink:href="#m2849701f4d" y="165.037032"/>
     <use style="fill:#d62728;stroke:#d62728;" x="378.548438" xlink:href="#m2849701f4d" y="167.953409"/>
     <use style="fill:#d62728;stroke:#d62728;" x="386.918437" xlink:href="#m2849701f4d" y="167.332177"/>
    </g>
   </g>
   <g id="line2d_19">
    <path clip-path="url(#p4f6b6e0aef)" d="M 52.118437 83.747115 
L 60.488438 75.752458 
L 68.858438 69.931838 
L 77.228438 67.655093 
L 85.598437 69.992369 
L 93.968437 77.258516 
L 102.338438 88.722604 
L 110.708438 102.614025 
L 119.078438 116.455233 
L 127.448437 127.659704 
L 135.818438 134.254551 
L 144.188438 135.516366 
L 152.558438 132.280045 
L 160.928438 126.749766 
L 169.298438 121.816872 
L 177.668438 120.098313 
L 186.038438 123.036826 
L 194.408438 130.384962 
L 202.778437 140.252815 
L 211.148438 149.709958 
L 219.518438 155.757202 
L 227.888438 156.355088 
L 236.258438 151.146585 
L 244.628438 141.58769 
L 252.998438 130.416338 
L 261.368438 120.673342 
L 269.738438 114.691417 
L 278.108438 113.466364 
L 286.478438 116.613943 
L 294.848438 122.822214 
L 303.218437 130.498916 
L 311.588437 138.290336 
L 319.958438 145.297954 
L 328.328438 151.031777 
L 336.698438 155.279416 
L 345.068438 158.058265 
L 353.438438 159.681821 
L 361.808438 160.824964 
L 370.178438 162.435301 
L 378.548438 165.439487 
L 386.918437 170.353709 
" style="fill:none;stroke:#9467bd;stroke-linecap:round;stroke-width:1.5;"/>
    <defs>
     <path d="M 0 1.5 
C 0.397805 1.5 0.77937 1.341951 1.06066 1.06066 
C 1.341951 0.77937 1.5 0.397805 1.5 0 
C 1.5 -0.397805 1.341951 -0.77937 1.06066 -1.06066 
C 0.77937 -1.341951 0.397805 -1.5 0 -1.5 
C -0.397805 -1.5 -0.77937 -1.341951 -1.06066 -1.06066 
C -1.341951 -0.77937 -1.5 -0.397805 -1.5 0 
C -1.5 0.397805 -1.341951 0.77937 -1.06066 1.06066 
C -0.77937 1.341951 -0.397805 1.5 0 1.5 
z
" id="m30995c488f" style="stroke:#9467bd;"/>
    </defs>
    <g clip-path="url(#p4f6b6e0aef)">
     <use style="fill:#9467bd;stroke:#9467bd;" x="52.118437" xlink:href="#m30995c488f" y="83.747115"/>
     <use style="fill:#9467bd;stroke:#9467bd;" x="60.488438" xlink:href="#m30995c488f" y="75.752458"/>
     <use style="fill:#9467bd;stroke:#9467bd;" x="68.858438" xlink:href="#m30995c488f" y="69.931838"/>
     <use style="fill:#9467bd;stroke:#9467bd;" x="77.228438" xlink:href="#m30995c488f" y="67.655093"/>
     <use style="fill:#9467bd;stroke:#9467bd;" x="85.598437" xlink:href="#m30995c488f" y="69.992369"/>
     <use style="fill:#9467bd;stroke:#9467bd;" x="93.968437" xlink:href="#m30995c488f" y="77.258516"/>
     <use style="fill:#9467bd;stroke:#9467bd;" x="102.338438" xlink:href="#m30995c488f" y="88.722604"/>
     <use style="fill:#9467bd;stroke:#9467bd;" x="110.708438" xlink:href="#m30995c488f" y="102.614025"/>
     <use style="fill:#9467bd;stroke:#9467bd;" x="119.078438" xlink:href="#m30995c488f" y="116.455233"/>
     <use style="fill:#9467bd;stroke:#9467bd;" x="127.448437" xlink:href="#m30995c488f" y="127.659704"/>
     <use style="fill:#9467bd;stroke:#9467bd;" x="135.818438" xlink:href="#m30995c488f" y="134.254551"/>
     <use style="fill:#9467bd;stroke:#9467bd;" x="144.188438" xlink:href="#m30995c488f" y="135.516366"/>
     <use style="fill:#9467bd;stroke:#9467bd;" x="152.558438" xlink:href="#m30995c488f" y="132.280045"/>
     <use style="fill:#9467bd;stroke:#9467bd;" x="160.928438" xlink:href="#m30995c488f" y="126.749766"/>
     <use style="fill:#9467bd;stroke:#9467bd;" x="169.298438" xlink:href="#m30995c488f" y="121.816872"/>
     <use style="fill:#9467bd;stroke:#9467bd;" x="177.668438" xlink:href="#m30995c488f" y="120.098313"/>
     <use style="fill:#9467bd;stroke:#9467bd;" x="186.038438" xlink:href="#m30995c488f" y="123.036826"/>
     <use style="fill:#9467bd;stroke:#9467bd;" x="194.408438" xlink:href="#m30995c488f" y="130.384962"/>
     <use style="fill:#9467bd;stroke:#9467bd;" x="202.778437" xlink:href="#m30995c488f" y="140.252815"/>
     <use style="fill:#9467bd;stroke:#9467bd;" x="211.148438" xlink:href="#m30995c488f" y="149.709958"/>
     <use style="fill:#9467bd;stroke:#9467bd;" x="219.518438" xlink:href="#m30995c488f" y="155.757202"/>
     <use style="fill:#9467bd;stroke:#9467bd;" x="227.888438" xlink:href="#m30995c488f" y="156.355088"/>
     <use style="fill:#9467bd;stroke:#9467bd;" x="236.258438" xlink:href="#m30995c488f" y="151.146585"/>
     <use style="fill:#9467bd;stroke:#9467bd;" x="244.628438" xlink:href="#m30995c488f" y="141.58769"/>
     <use style="fill:#9467bd;stroke:#9467bd;" x="252.998438" xlink:href="#m30995c488f" y="130.416338"/>
     <use style="fill:#9467bd;stroke:#9467bd;" x="261.368438" xlink:href="#m30995c488f" y="120.673342"/>
     <use style="fill:#9467bd;stroke:#9467bd;" x="269.738438" xlink:href="#m30995c488f" y="114.691417"/>
     <use style="fill:#9467bd;stroke:#9467bd;" x="278.108438" xlink:href="#m30995c488f" y="113.466364"/>
     <use style="fill:#9467bd;stroke:#9467bd;" x="286.478438" xlink:href="#m30995c488f" y="116.613943"/>
     <use style="fill:#9467bd;stroke:#9467bd;" x="294.848438" xlink:href="#m30995c488f" y="122.822214"/>
     <use style="fill:#9467bd;stroke:#9467bd;" x="303.218437" xlink:href="#m30995c488f" y="130.498916"/>
     <use style="fill:#9467bd;stroke:#9467bd;" x="311.588437" xlink:href="#m30995c488f" y="138.290336"/>
     <use style="fill:#9467bd;stroke:#9467bd;" x="319.958438" xlink:href="#m30995c488f" y="145.297954"/>
     <use style="fill:#9467bd;stroke:#9467bd;" x="328.328438" xlink:href="#m30995c488f" y="151.031777"/>
     <use style="fill:#9467bd;stroke:#9467bd;" x="336.698438" xlink:href="#m30995c488f" y="155.279416"/>
     <use style="fill:#9467bd;stroke:#9467bd;" x="345.068438" xlink:href="#m30995c488f" y="158.058265"/>
     <use style="fill:#9467bd;stroke:#9467bd;" x="353.438438" xlink:href="#m30995c488f" y="159.681821"/>
     <use style="fill:#9467bd;stroke:#9467bd;" x="361.808438" xlink:href="#m30995c488f" y="160.824964"/>
     <use style="fill:#9467bd;stroke:#9467bd;" x="370.178438" xlink:href="#m30995c488f" y="162.435301"/>
     <use style="fill:#9467bd;stroke:#9467bd;" x="378.548438" xlink:href="#m30995c488f" y="165.439487"/>
     <use style="fill:#9467bd;stroke:#9467bd;" x="386.918437" xlink:href="#m30995c488f" y="170.353709"/>
    </g>
   </g>
   <g id="patch_3">
    <path d="M 52.118437 253.1955 
L 52.118437 35.7555 
" style="fill:none;stroke:#ffffff;stroke-linecap:square;stroke-linejoin:miter;stroke-width:0.8;"/>
   </g>
   <g id="patch_4">
    <path d="M 386.918437 253.1955 
L 386.918437 35.7555 
" style="fill:none;stroke:#ffffff;stroke-linecap:square;stroke-linejoin:miter;stroke-width:0.8;"/>
   </g>
   <g id="patch_5">
    <path d="M 52.118437 253.1955 
L 386.918437 253.1955 
" style="fill:none;stroke:#ffffff;stroke-linecap:square;stroke-linejoin:miter;stroke-width:0.8;"/>
   </g>
   <g id="patch_6">
    <path d="M 52.118437 35.7555 
L 386.918437 35.7555 
" style="fill:none;stroke:#ffffff;stroke-linecap:square;stroke-linejoin:miter;stroke-width:0.8;"/>
   </g>
   <g id="text_17">
    <!-- 5 different function realizations at 41 points -->
    <g style="fill:#262626;" transform="translate(87.610313 16.318125)scale(0.12 -0.12)">
     <defs>
      <path d="M 691 4666 
L 3169 4666 
L 3169 4134 
L 1269 4134 
L 1269 2991 
Q 1406 3038 1543 3061 
Q 1681 3084 1819 3084 
Q 2600 3084 3056 2656 
Q 3513 2228 3513 1497 
Q 3513 744 3044 326 
Q 2575 -91 1722 -91 
Q 1428 -91 1123 -41 
Q 819 9 494 109 
L 494 744 
Q 775 591 1075 516 
Q 1375 441 1709 441 
Q 2250 441 2565 725 
Q 2881 1009 2881 1497 
Q 2881 1984 2565 2268 
Q 2250 2553 1709 2553 
Q 1456 2553 1204 2497 
Q 953 2441 691 2322 
L 691 4666 
z
" id="DejaVuSans-35" transform="scale(0.015625)"/>
      <path id="DejaVuSans-20" transform="scale(0.015625)"/>
      <path d="M 2906 2969 
L 2906 4863 
L 3481 4863 
L 3481 0 
L 2906 0 
L 2906 525 
Q 2725 213 2448 61 
Q 2172 -91 1784 -91 
Q 1150 -91 751 415 
Q 353 922 353 1747 
Q 353 2572 751 3078 
Q 1150 3584 1784 3584 
Q 2172 3584 2448 3432 
Q 2725 3281 2906 2969 
z
M 947 1747 
Q 947 1113 1208 752 
Q 1469 391 1925 391 
Q 2381 391 2643 752 
Q 2906 1113 2906 1747 
Q 2906 2381 2643 2742 
Q 2381 3103 1925 3103 
Q 1469 3103 1208 2742 
Q 947 2381 947 1747 
z
" id="DejaVuSans-64" transform="scale(0.015625)"/>
      <path d="M 603 3500 
L 1178 3500 
L 1178 0 
L 603 0 
L 603 3500 
z
M 603 4863 
L 1178 4863 
L 1178 4134 
L 603 4134 
L 603 4863 
z
" id="DejaVuSans-69" transform="scale(0.015625)"/>
      <path d="M 2375 4863 
L 2375 4384 
L 1825 4384 
Q 1516 4384 1395 4259 
Q 1275 4134 1275 3809 
L 1275 3500 
L 2222 3500 
L 2222 3053 
L 1275 3053 
L 1275 0 
L 697 0 
L 697 3053 
L 147 3053 
L 147 3500 
L 697 3500 
L 697 3744 
Q 697 4328 969 4595 
Q 1241 4863 1831 4863 
L 2375 4863 
z
" id="DejaVuSans-66" transform="scale(0.015625)"/>
      <path d="M 3597 1894 
L 3597 1613 
L 953 1613 
Q 991 1019 1311 708 
Q 1631 397 2203 397 
Q 2534 397 2845 478 
Q 3156 559 3463 722 
L 3463 178 
Q 3153 47 2828 -22 
Q 2503 -91 2169 -91 
Q 1331 -91 842 396 
Q 353 884 353 1716 
Q 353 2575 817 3079 
Q 1281 3584 2069 3584 
Q 2775 3584 3186 3129 
Q 3597 2675 3597 1894 
z
M 3022 2063 
Q 3016 2534 2758 2815 
Q 2500 3097 2075 3097 
Q 1594 3097 1305 2825 
Q 1016 2553 972 2059 
L 3022 2063 
z
" id="DejaVuSans-65" transform="scale(0.015625)"/>
      <path d="M 2631 2963 
Q 2534 3019 2420 3045 
Q 2306 3072 2169 3072 
Q 1681 3072 1420 2755 
Q 1159 2438 1159 1844 
L 1159 0 
L 581 0 
L 581 3500 
L 1159 3500 
L 1159 2956 
Q 1341 3275 1631 3429 
Q 1922 3584 2338 3584 
Q 2397 3584 2469 3576 
Q 2541 3569 2628 3553 
L 2631 2963 
z
" id="DejaVuSans-72" transform="scale(0.015625)"/>
      <path d="M 3513 2113 
L 3513 0 
L 2938 0 
L 2938 2094 
Q 2938 2591 2744 2837 
Q 2550 3084 2163 3084 
Q 1697 3084 1428 2787 
Q 1159 2491 1159 1978 
L 1159 0 
L 581 0 
L 581 3500 
L 1159 3500 
L 1159 2956 
Q 1366 3272 1645 3428 
Q 1925 3584 2291 3584 
Q 2894 3584 3203 3211 
Q 3513 2838 3513 2113 
z
" id="DejaVuSans-6e" transform="scale(0.015625)"/>
      <path d="M 1172 4494 
L 1172 3500 
L 2356 3500 
L 2356 3053 
L 1172 3053 
L 1172 1153 
Q 1172 725 1289 603 
Q 1406 481 1766 481 
L 2356 481 
L 2356 0 
L 1766 0 
Q 1100 0 847 248 
Q 594 497 594 1153 
L 594 3053 
L 172 3053 
L 172 3500 
L 594 3500 
L 594 4494 
L 1172 4494 
z
" id="DejaVuSans-74" transform="scale(0.015625)"/>
      <path d="M 544 1381 
L 544 3500 
L 1119 3500 
L 1119 1403 
Q 1119 906 1312 657 
Q 1506 409 1894 409 
Q 2359 409 2629 706 
Q 2900 1003 2900 1516 
L 2900 3500 
L 3475 3500 
L 3475 0 
L 2900 0 
L 2900 538 
Q 2691 219 2414 64 
Q 2138 -91 1772 -91 
Q 1169 -91 856 284 
Q 544 659 544 1381 
z
M 1991 3584 
L 1991 3584 
z
" id="DejaVuSans-75" transform="scale(0.015625)"/>
      <path d="M 3122 3366 
L 3122 2828 
Q 2878 2963 2633 3030 
Q 2388 3097 2138 3097 
Q 1578 3097 1268 2742 
Q 959 2388 959 1747 
Q 959 1106 1268 751 
Q 1578 397 2138 397 
Q 2388 397 2633 464 
Q 2878 531 3122 666 
L 3122 134 
Q 2881 22 2623 -34 
Q 2366 -91 2075 -91 
Q 1284 -91 818 406 
Q 353 903 353 1747 
Q 353 2603 823 3093 
Q 1294 3584 2113 3584 
Q 2378 3584 2631 3529 
Q 2884 3475 3122 3366 
z
" id="DejaVuSans-63" transform="scale(0.015625)"/>
      <path d="M 1959 3097 
Q 1497 3097 1228 2736 
Q 959 2375 959 1747 
Q 959 1119 1226 758 
Q 1494 397 1959 397 
Q 2419 397 2687 759 
Q 2956 1122 2956 1747 
Q 2956 2369 2687 2733 
Q 2419 3097 1959 3097 
z
M 1959 3584 
Q 2709 3584 3137 3096 
Q 3566 2609 3566 1747 
Q 3566 888 3137 398 
Q 2709 -91 1959 -91 
Q 1206 -91 779 398 
Q 353 888 353 1747 
Q 353 2609 779 3096 
Q 1206 3584 1959 3584 
z
" id="DejaVuSans-6f" transform="scale(0.015625)"/>
      <path d="M 2194 1759 
Q 1497 1759 1228 1600 
Q 959 1441 959 1056 
Q 959 750 1161 570 
Q 1363 391 1709 391 
Q 2188 391 2477 730 
Q 2766 1069 2766 1631 
L 2766 1759 
L 2194 1759 
z
M 3341 1997 
L 3341 0 
L 2766 0 
L 2766 531 
Q 2569 213 2275 61 
Q 1981 -91 1556 -91 
Q 1019 -91 701 211 
Q 384 513 384 1019 
Q 384 1609 779 1909 
Q 1175 2209 1959 2209 
L 2766 2209 
L 2766 2266 
Q 2766 2663 2505 2880 
Q 2244 3097 1772 3097 
Q 1472 3097 1187 3025 
Q 903 2953 641 2809 
L 641 3341 
Q 956 3463 1253 3523 
Q 1550 3584 1831 3584 
Q 2591 3584 2966 3190 
Q 3341 2797 3341 1997 
z
" id="DejaVuSans-61" transform="scale(0.015625)"/>
      <path d="M 603 4863 
L 1178 4863 
L 1178 0 
L 603 0 
L 603 4863 
z
" id="DejaVuSans-6c" transform="scale(0.015625)"/>
      <path d="M 353 3500 
L 3084 3500 
L 3084 2975 
L 922 459 
L 3084 459 
L 3084 0 
L 275 0 
L 275 525 
L 2438 3041 
L 353 3041 
L 353 3500 
z
" id="DejaVuSans-7a" transform="scale(0.015625)"/>
      <path d="M 2834 3397 
L 2834 2853 
Q 2591 2978 2328 3040 
Q 2066 3103 1784 3103 
Q 1356 3103 1142 2972 
Q 928 2841 928 2578 
Q 928 2378 1081 2264 
Q 1234 2150 1697 2047 
L 1894 2003 
Q 2506 1872 2764 1633 
Q 3022 1394 3022 966 
Q 3022 478 2636 193 
Q 2250 -91 1575 -91 
Q 1294 -91 989 -36 
Q 684 19 347 128 
L 347 722 
Q 666 556 975 473 
Q 1284 391 1588 391 
Q 1994 391 2212 530 
Q 2431 669 2431 922 
Q 2431 1156 2273 1281 
Q 2116 1406 1581 1522 
L 1381 1569 
Q 847 1681 609 1914 
Q 372 2147 372 2553 
Q 372 3047 722 3315 
Q 1072 3584 1716 3584 
Q 2034 3584 2315 3537 
Q 2597 3491 2834 3397 
z
" id="DejaVuSans-73" transform="scale(0.015625)"/>
      <path d="M 1159 525 
L 1159 -1331 
L 581 -1331 
L 581 3500 
L 1159 3500 
L 1159 2969 
Q 1341 3281 1617 3432 
Q 1894 3584 2278 3584 
Q 2916 3584 3314 3078 
Q 3713 2572 3713 1747 
Q 3713 922 3314 415 
Q 2916 -91 2278 -91 
Q 1894 -91 1617 61 
Q 1341 213 1159 525 
z
M 3116 1747 
Q 3116 2381 2855 2742 
Q 2594 3103 2138 3103 
Q 1681 3103 1420 2742 
Q 1159 2381 1159 1747 
Q 1159 1113 1420 752 
Q 1681 391 2138 391 
Q 2594 391 2855 752 
Q 3116 1113 3116 1747 
z
" id="DejaVuSans-70" transform="scale(0.015625)"/>
     </defs>
     <use xlink:href="#DejaVuSans-35"/>
     <use x="63.623047" xlink:href="#DejaVuSans-20"/>
     <use x="95.410156" xlink:href="#DejaVuSans-64"/>
     <use x="158.886719" xlink:href="#DejaVuSans-69"/>
     <use x="186.669922" xlink:href="#DejaVuSans-66"/>
     <use x="221.875" xlink:href="#DejaVuSans-66"/>
     <use x="257.080078" xlink:href="#DejaVuSans-65"/>
     <use x="318.603516" xlink:href="#DejaVuSans-72"/>
     <use x="357.466797" xlink:href="#DejaVuSans-65"/>
     <use x="418.990234" xlink:href="#DejaVuSans-6e"/>
     <use x="482.369141" xlink:href="#DejaVuSans-74"/>
     <use x="521.578125" xlink:href="#DejaVuSans-20"/>
     <use x="553.365234" xlink:href="#DejaVuSans-66"/>
     <use x="588.570312" xlink:href="#DejaVuSans-75"/>
     <use x="651.949219" xlink:href="#DejaVuSans-6e"/>
     <use x="715.328125" xlink:href="#DejaVuSans-63"/>
     <use x="770.308594" xlink:href="#DejaVuSans-74"/>
     <use x="809.517578" xlink:href="#DejaVuSans-69"/>
     <use x="837.300781" xlink:href="#DejaVuSans-6f"/>
     <use x="898.482422" xlink:href="#DejaVuSans-6e"/>
     <use x="961.861328" xlink:href="#DejaVuSans-20"/>
     <use x="993.648438" xlink:href="#DejaVuSans-72"/>
     <use x="1032.511719" xlink:href="#DejaVuSans-65"/>
     <use x="1094.035156" xlink:href="#DejaVuSans-61"/>
     <use x="1155.314453" xlink:href="#DejaVuSans-6c"/>
     <use x="1183.097656" xlink:href="#DejaVuSans-69"/>
     <use x="1210.880859" xlink:href="#DejaVuSans-7a"/>
     <use x="1263.371094" xlink:href="#DejaVuSans-61"/>
     <use x="1324.650391" xlink:href="#DejaVuSans-74"/>
     <use x="1363.859375" xlink:href="#DejaVuSans-69"/>
     <use x="1391.642578" xlink:href="#DejaVuSans-6f"/>
     <use x="1452.824219" xlink:href="#DejaVuSans-6e"/>
     <use x="1516.203125" xlink:href="#DejaVuSans-73"/>
     <use x="1568.302734" xlink:href="#DejaVuSans-20"/>
     <use x="1600.089844" xlink:href="#DejaVuSans-61"/>
     <use x="1661.369141" xlink:href="#DejaVuSans-74"/>
     <use x="1700.578125" xlink:href="#DejaVuSans-20"/>
     <use x="1732.365234" xlink:href="#DejaVuSans-34"/>
     <use x="1795.988281" xlink:href="#DejaVuSans-31"/>
     <use x="1859.611328" xlink:href="#DejaVuSans-20"/>
     <use x="1891.398438" xlink:href="#DejaVuSans-70"/>
     <use x="1954.875" xlink:href="#DejaVuSans-6f"/>
     <use x="2016.056641" xlink:href="#DejaVuSans-69"/>
     <use x="2043.839844" xlink:href="#DejaVuSans-6e"/>
     <use x="2107.21875" xlink:href="#DejaVuSans-74"/>
     <use x="2146.427734" xlink:href="#DejaVuSans-73"/>
    </g>
    <!-- sampled from a Gaussian process with exponentiated quadratic kernel -->
    <g style="fill:#262626;" transform="translate(7.2 29.7555)scale(0.12 -0.12)">
     <defs>
      <path d="M 3328 2828 
Q 3544 3216 3844 3400 
Q 4144 3584 4550 3584 
Q 5097 3584 5394 3201 
Q 5691 2819 5691 2113 
L 5691 0 
L 5113 0 
L 5113 2094 
Q 5113 2597 4934 2840 
Q 4756 3084 4391 3084 
Q 3944 3084 3684 2787 
Q 3425 2491 3425 1978 
L 3425 0 
L 2847 0 
L 2847 2094 
Q 2847 2600 2669 2842 
Q 2491 3084 2119 3084 
Q 1678 3084 1418 2786 
Q 1159 2488 1159 1978 
L 1159 0 
L 581 0 
L 581 3500 
L 1159 3500 
L 1159 2956 
Q 1356 3278 1631 3431 
Q 1906 3584 2284 3584 
Q 2666 3584 2933 3390 
Q 3200 3197 3328 2828 
z
" id="DejaVuSans-6d" transform="scale(0.015625)"/>
      <path d="M 3809 666 
L 3809 1919 
L 2778 1919 
L 2778 2438 
L 4434 2438 
L 4434 434 
Q 4069 175 3628 42 
Q 3188 -91 2688 -91 
Q 1594 -91 976 548 
Q 359 1188 359 2328 
Q 359 3472 976 4111 
Q 1594 4750 2688 4750 
Q 3144 4750 3555 4637 
Q 3966 4525 4313 4306 
L 4313 3634 
Q 3963 3931 3569 4081 
Q 3175 4231 2741 4231 
Q 1884 4231 1454 3753 
Q 1025 3275 1025 2328 
Q 1025 1384 1454 906 
Q 1884 428 2741 428 
Q 3075 428 3337 486 
Q 3600 544 3809 666 
z
" id="DejaVuSans-47" transform="scale(0.015625)"/>
      <path d="M 269 3500 
L 844 3500 
L 1563 769 
L 2278 3500 
L 2956 3500 
L 3675 769 
L 4391 3500 
L 4966 3500 
L 4050 0 
L 3372 0 
L 2619 2869 
L 1863 0 
L 1184 0 
L 269 3500 
z
" id="DejaVuSans-77" transform="scale(0.015625)"/>
      <path d="M 3513 2113 
L 3513 0 
L 2938 0 
L 2938 2094 
Q 2938 2591 2744 2837 
Q 2550 3084 2163 3084 
Q 1697 3084 1428 2787 
Q 1159 2491 1159 1978 
L 1159 0 
L 581 0 
L 581 4863 
L 1159 4863 
L 1159 2956 
Q 1366 3272 1645 3428 
Q 1925 3584 2291 3584 
Q 2894 3584 3203 3211 
Q 3513 2838 3513 2113 
z
" id="DejaVuSans-68" transform="scale(0.015625)"/>
      <path d="M 3513 3500 
L 2247 1797 
L 3578 0 
L 2900 0 
L 1881 1375 
L 863 0 
L 184 0 
L 1544 1831 
L 300 3500 
L 978 3500 
L 1906 2253 
L 2834 3500 
L 3513 3500 
z
" id="DejaVuSans-78" transform="scale(0.015625)"/>
      <path d="M 947 1747 
Q 947 1113 1208 752 
Q 1469 391 1925 391 
Q 2381 391 2643 752 
Q 2906 1113 2906 1747 
Q 2906 2381 2643 2742 
Q 2381 3103 1925 3103 
Q 1469 3103 1208 2742 
Q 947 2381 947 1747 
z
M 2906 525 
Q 2725 213 2448 61 
Q 2172 -91 1784 -91 
Q 1150 -91 751 415 
Q 353 922 353 1747 
Q 353 2572 751 3078 
Q 1150 3584 1784 3584 
Q 2172 3584 2448 3432 
Q 2725 3281 2906 2969 
L 2906 3500 
L 3481 3500 
L 3481 -1331 
L 2906 -1331 
L 2906 525 
z
" id="DejaVuSans-71" transform="scale(0.015625)"/>
      <path d="M 581 4863 
L 1159 4863 
L 1159 1991 
L 2875 3500 
L 3609 3500 
L 1753 1863 
L 3688 0 
L 2938 0 
L 1159 1709 
L 1159 0 
L 581 0 
L 581 4863 
z
" id="DejaVuSans-6b" transform="scale(0.015625)"/>
     </defs>
     <use xlink:href="#DejaVuSans-73"/>
     <use x="52.099609" xlink:href="#DejaVuSans-61"/>
     <use x="113.378906" xlink:href="#DejaVuSans-6d"/>
     <use x="210.791016" xlink:href="#DejaVuSans-70"/>
     <use x="274.267578" xlink:href="#DejaVuSans-6c"/>
     <use x="302.050781" xlink:href="#DejaVuSans-65"/>
     <use x="363.574219" xlink:href="#DejaVuSans-64"/>
     <use x="427.050781" xlink:href="#DejaVuSans-20"/>
     <use x="458.837891" xlink:href="#DejaVuSans-66"/>
     <use x="494.042969" xlink:href="#DejaVuSans-72"/>
     <use x="532.90625" xlink:href="#DejaVuSans-6f"/>
     <use x="594.087891" xlink:href="#DejaVuSans-6d"/>
     <use x="691.5" xlink:href="#DejaVuSans-20"/>
     <use x="723.287109" xlink:href="#DejaVuSans-61"/>
     <use x="784.566406" xlink:href="#DejaVuSans-20"/>
     <use x="816.353516" xlink:href="#DejaVuSans-47"/>
     <use x="893.84375" xlink:href="#DejaVuSans-61"/>
     <use x="955.123047" xlink:href="#DejaVuSans-75"/>
     <use x="1018.501953" xlink:href="#DejaVuSans-73"/>
     <use x="1070.601562" xlink:href="#DejaVuSans-73"/>
     <use x="1122.701172" xlink:href="#DejaVuSans-69"/>
     <use x="1150.484375" xlink:href="#DejaVuSans-61"/>
     <use x="1211.763672" xlink:href="#DejaVuSans-6e"/>
     <use x="1275.142578" xlink:href="#DejaVuSans-20"/>
     <use x="1306.929688" xlink:href="#DejaVuSans-70"/>
     <use x="1370.40625" xlink:href="#DejaVuSans-72"/>
     <use x="1409.269531" xlink:href="#DejaVuSans-6f"/>
     <use x="1470.451172" xlink:href="#DejaVuSans-63"/>
     <use x="1525.431641" xlink:href="#DejaVuSans-65"/>
     <use x="1586.955078" xlink:href="#DejaVuSans-73"/>
     <use x="1639.054688" xlink:href="#DejaVuSans-73"/>
     <use x="1691.154297" xlink:href="#DejaVuSans-20"/>
     <use x="1722.941406" xlink:href="#DejaVuSans-77"/>
     <use x="1804.728516" xlink:href="#DejaVuSans-69"/>
     <use x="1832.511719" xlink:href="#DejaVuSans-74"/>
     <use x="1871.720703" xlink:href="#DejaVuSans-68"/>
     <use x="1935.099609" xlink:href="#DejaVuSans-20"/>
     <use x="1966.886719" xlink:href="#DejaVuSans-65"/>
     <use x="2026.660156" xlink:href="#DejaVuSans-78"/>
     <use x="2085.839844" xlink:href="#DejaVuSans-70"/>
     <use x="2149.316406" xlink:href="#DejaVuSans-6f"/>
     <use x="2210.498047" xlink:href="#DejaVuSans-6e"/>
     <use x="2273.876953" xlink:href="#DejaVuSans-65"/>
     <use x="2335.400391" xlink:href="#DejaVuSans-6e"/>
     <use x="2398.779297" xlink:href="#DejaVuSans-74"/>
     <use x="2437.988281" xlink:href="#DejaVuSans-69"/>
     <use x="2465.771484" xlink:href="#DejaVuSans-61"/>
     <use x="2527.050781" xlink:href="#DejaVuSans-74"/>
     <use x="2566.259766" xlink:href="#DejaVuSans-65"/>
     <use x="2627.783203" xlink:href="#DejaVuSans-64"/>
     <use x="2691.259766" xlink:href="#DejaVuSans-20"/>
     <use x="2723.046875" xlink:href="#DejaVuSans-71"/>
     <use x="2786.523438" xlink:href="#DejaVuSans-75"/>
     <use x="2849.902344" xlink:href="#DejaVuSans-61"/>
     <use x="2911.181641" xlink:href="#DejaVuSans-64"/>
     <use x="2974.658203" xlink:href="#DejaVuSans-72"/>
     <use x="3015.771484" xlink:href="#DejaVuSans-61"/>
     <use x="3077.050781" xlink:href="#DejaVuSans-74"/>
     <use x="3116.259766" xlink:href="#DejaVuSans-69"/>
     <use x="3144.042969" xlink:href="#DejaVuSans-63"/>
     <use x="3199.023438" xlink:href="#DejaVuSans-20"/>
     <use x="3230.810547" xlink:href="#DejaVuSans-6b"/>
     <use x="3285.095703" xlink:href="#DejaVuSans-65"/>
     <use x="3346.619141" xlink:href="#DejaVuSans-72"/>
     <use x="3385.982422" xlink:href="#DejaVuSans-6e"/>
     <use x="3449.361328" xlink:href="#DejaVuSans-65"/>
     <use x="3510.884766" xlink:href="#DejaVuSans-6c"/>
    </g>
   </g>
  </g>
 </g>
 <defs>
  <clipPath id="p4f6b6e0aef">
   <rect height="217.44" width="334.8" x="52.118437" y="35.7555"/>
  </clipPath>
 </defs>
</svg>
