<?xml version="1.0" encoding="utf-8" standalone="no"?>
<!DOCTYPE svg PUBLIC "-//W3C//DTD SVG 1.1//EN"
  "http://www.w3.org/Graphics/SVG/1.1/DTD/svg11.dtd">
<svg height="423.177812pt" version="1.1" viewBox="0 0 423.283125 423.177812" width="423.283125pt" xmlns="http://www.w3.org/2000/svg" xmlns:xlink="http://www.w3.org/1999/xlink">
 <metadata>
  <rdf:RDF xmlns:cc="http://creativecommons.org/ns#" xmlns:dc="http://purl.org/dc/elements/1.1/" xmlns:rdf="http://www.w3.org/1999/02/22-rdf-syntax-ns#">
   <cc:Work>
    <dc:type rdf:resource="http://purl.org/dc/dcmitype/StillImage"/>
    <dc:date>2021-09-07T11:53:46.329356</dc:date>
    <dc:format>image/svg+xml</dc:format>
    <dc:creator>
     <cc:Agent>
      <dc:title>Matplotlib v3.4.3, https://matplotlib.org/</dc:title>
     </cc:Agent>
    </dc:creator>
   </cc:Work>
  </rdf:RDF>
 </metadata>
 <defs>
  <style type="text/css">*{stroke-linecap:butt;stroke-linejoin:round;}</style>
 </defs>
 <g id="figure_1">
  <g id="patch_1">
   <path d="M 0 423.177812 
L 423.283125 423.177812 
L 423.283125 0 
L 0 0 
z
" style="fill:#ffffff;"/>
  </g>
  <g id="axes_1">
   <g id="patch_2">
    <path d="M 55.064375 172.118125 
L 412.901875 172.118125 
L 412.901875 22.318125 
L 55.064375 22.318125 
z
" style="fill:#eaeaf2;"/>
   </g>
   <g id="matplotlib.axis_1">
    <g id="xtick_1">
     <g id="line2d_1">
      <path clip-path="url(#pac8fce3dc6)" d="M 55.064375 172.118125 
L 55.064375 22.318125 
" style="fill:none;stroke:#ffffff;stroke-linecap:round;stroke-width:0.8;"/>
     </g>
     <g id="text_1">
      <!-- −6 -->
      <g style="fill:#262626;" transform="translate(47.693281 186.716562)scale(0.1 -0.1)">
       <defs>
        <path d="M 678 2272 
L 4684 2272 
L 4684 1741 
L 678 1741 
L 678 2272 
z
" id="DejaVuSans-2212" transform="scale(0.015625)"/>
        <path d="M 2113 2584 
Q 1688 2584 1439 2293 
Q 1191 2003 1191 1497 
Q 1191 994 1439 701 
Q 1688 409 2113 409 
Q 2538 409 2786 701 
Q 3034 994 3034 1497 
Q 3034 2003 2786 2293 
Q 2538 2584 2113 2584 
z
M 3366 4563 
L 3366 3988 
Q 3128 4100 2886 4159 
Q 2644 4219 2406 4219 
Q 1781 4219 1451 3797 
Q 1122 3375 1075 2522 
Q 1259 2794 1537 2939 
Q 1816 3084 2150 3084 
Q 2853 3084 3261 2657 
Q 3669 2231 3669 1497 
Q 3669 778 3244 343 
Q 2819 -91 2113 -91 
Q 1303 -91 875 529 
Q 447 1150 447 2328 
Q 447 3434 972 4092 
Q 1497 4750 2381 4750 
Q 2619 4750 2861 4703 
Q 3103 4656 3366 4563 
z
" id="DejaVuSans-36" transform="scale(0.015625)"/>
       </defs>
       <use xlink:href="#DejaVuSans-2212"/>
       <use x="83.789062" xlink:href="#DejaVuSans-36"/>
      </g>
     </g>
    </g>
    <g id="xtick_2">
     <g id="line2d_2">
      <path clip-path="url(#pac8fce3dc6)" d="M 114.703958 172.118125 
L 114.703958 22.318125 
" style="fill:none;stroke:#ffffff;stroke-linecap:round;stroke-width:0.8;"/>
     </g>
     <g id="text_2">
      <!-- −4 -->
      <g style="fill:#262626;" transform="translate(107.332865 186.716562)scale(0.1 -0.1)">
       <defs>
        <path d="M 2419 4116 
L 825 1625 
L 2419 1625 
L 2419 4116 
z
M 2253 4666 
L 3047 4666 
L 3047 1625 
L 3713 1625 
L 3713 1100 
L 3047 1100 
L 3047 0 
L 2419 0 
L 2419 1100 
L 313 1100 
L 313 1709 
L 2253 4666 
z
" id="DejaVuSans-34" transform="scale(0.015625)"/>
       </defs>
       <use xlink:href="#DejaVuSans-2212"/>
       <use x="83.789062" xlink:href="#DejaVuSans-34"/>
      </g>
     </g>
    </g>
    <g id="xtick_3">
     <g id="line2d_3">
      <path clip-path="url(#pac8fce3dc6)" d="M 174.343542 172.118125 
L 174.343542 22.318125 
" style="fill:none;stroke:#ffffff;stroke-linecap:round;stroke-width:0.8;"/>
     </g>
     <g id="text_3">
      <!-- −2 -->
      <g style="fill:#262626;" transform="translate(166.972448 186.716562)scale(0.1 -0.1)">
       <defs>
        <path d="M 1228 531 
L 3431 531 
L 3431 0 
L 469 0 
L 469 531 
Q 828 903 1448 1529 
Q 2069 2156 2228 2338 
Q 2531 2678 2651 2914 
Q 2772 3150 2772 3378 
Q 2772 3750 2511 3984 
Q 2250 4219 1831 4219 
Q 1534 4219 1204 4116 
Q 875 4013 500 3803 
L 500 4441 
Q 881 4594 1212 4672 
Q 1544 4750 1819 4750 
Q 2544 4750 2975 4387 
Q 3406 4025 3406 3419 
Q 3406 3131 3298 2873 
Q 3191 2616 2906 2266 
Q 2828 2175 2409 1742 
Q 1991 1309 1228 531 
z
" id="DejaVuSans-32" transform="scale(0.015625)"/>
       </defs>
       <use xlink:href="#DejaVuSans-2212"/>
       <use x="83.789062" xlink:href="#DejaVuSans-32"/>
      </g>
     </g>
    </g>
    <g id="xtick_4">
     <g id="line2d_4">
      <path clip-path="url(#pac8fce3dc6)" d="M 233.983125 172.118125 
L 233.983125 22.318125 
" style="fill:none;stroke:#ffffff;stroke-linecap:round;stroke-width:0.8;"/>
     </g>
     <g id="text_4">
      <!-- 0 -->
      <g style="fill:#262626;" transform="translate(230.801875 186.716562)scale(0.1 -0.1)">
       <defs>
        <path d="M 2034 4250 
Q 1547 4250 1301 3770 
Q 1056 3291 1056 2328 
Q 1056 1369 1301 889 
Q 1547 409 2034 409 
Q 2525 409 2770 889 
Q 3016 1369 3016 2328 
Q 3016 3291 2770 3770 
Q 2525 4250 2034 4250 
z
M 2034 4750 
Q 2819 4750 3233 4129 
Q 3647 3509 3647 2328 
Q 3647 1150 3233 529 
Q 2819 -91 2034 -91 
Q 1250 -91 836 529 
Q 422 1150 422 2328 
Q 422 3509 836 4129 
Q 1250 4750 2034 4750 
z
" id="DejaVuSans-30" transform="scale(0.015625)"/>
       </defs>
       <use xlink:href="#DejaVuSans-30"/>
      </g>
     </g>
    </g>
    <g id="xtick_5">
     <g id="line2d_5">
      <path clip-path="url(#pac8fce3dc6)" d="M 293.622708 172.118125 
L 293.622708 22.318125 
" style="fill:none;stroke:#ffffff;stroke-linecap:round;stroke-width:0.8;"/>
     </g>
     <g id="text_5">
      <!-- 2 -->
      <g style="fill:#262626;" transform="translate(290.441458 186.716562)scale(0.1 -0.1)">
       <use xlink:href="#DejaVuSans-32"/>
      </g>
     </g>
    </g>
    <g id="xtick_6">
     <g id="line2d_6">
      <path clip-path="url(#pac8fce3dc6)" d="M 353.262292 172.118125 
L 353.262292 22.318125 
" style="fill:none;stroke:#ffffff;stroke-linecap:round;stroke-width:0.8;"/>
     </g>
     <g id="text_6">
      <!-- 4 -->
      <g style="fill:#262626;" transform="translate(350.081042 186.716562)scale(0.1 -0.1)">
       <use xlink:href="#DejaVuSans-34"/>
      </g>
     </g>
    </g>
    <g id="xtick_7">
     <g id="line2d_7">
      <path clip-path="url(#pac8fce3dc6)" d="M 412.901875 172.118125 
L 412.901875 22.318125 
" style="fill:none;stroke:#ffffff;stroke-linecap:round;stroke-width:0.8;"/>
     </g>
     <g id="text_7">
      <!-- 6 -->
      <g style="fill:#262626;" transform="translate(409.720625 186.716562)scale(0.1 -0.1)">
       <use xlink:href="#DejaVuSans-36"/>
      </g>
     </g>
    </g>
    <g id="text_8">
     <!-- $x$ -->
     <g style="fill:#262626;" transform="translate(230.083125 202.674219)scale(0.13 -0.13)">
      <defs>
       <path d="M 3841 3500 
L 2234 1784 
L 3219 0 
L 2559 0 
L 1819 1388 
L 531 0 
L -166 0 
L 1556 1844 
L 641 3500 
L 1300 3500 
L 1972 2234 
L 3144 3500 
L 3841 3500 
z
" id="DejaVuSans-Oblique-78" transform="scale(0.015625)"/>
      </defs>
      <use transform="translate(0 0.3125)" xlink:href="#DejaVuSans-Oblique-78"/>
     </g>
    </g>
   </g>
   <g id="matplotlib.axis_2">
    <g id="ytick_1">
     <g id="line2d_8">
      <path clip-path="url(#pac8fce3dc6)" d="M 55.064375 172.118125 
L 412.901875 172.118125 
" style="fill:none;stroke:#ffffff;stroke-linecap:round;stroke-width:0.8;"/>
     </g>
     <g id="text_9">
      <!-- −3 -->
      <g style="fill:#262626;" transform="translate(33.322188 175.917344)scale(0.1 -0.1)">
       <defs>
        <path d="M 2597 2516 
Q 3050 2419 3304 2112 
Q 3559 1806 3559 1356 
Q 3559 666 3084 287 
Q 2609 -91 1734 -91 
Q 1441 -91 1130 -33 
Q 819 25 488 141 
L 488 750 
Q 750 597 1062 519 
Q 1375 441 1716 441 
Q 2309 441 2620 675 
Q 2931 909 2931 1356 
Q 2931 1769 2642 2001 
Q 2353 2234 1838 2234 
L 1294 2234 
L 1294 2753 
L 1863 2753 
Q 2328 2753 2575 2939 
Q 2822 3125 2822 3475 
Q 2822 3834 2567 4026 
Q 2313 4219 1838 4219 
Q 1578 4219 1281 4162 
Q 984 4106 628 3988 
L 628 4550 
Q 988 4650 1302 4700 
Q 1616 4750 1894 4750 
Q 2613 4750 3031 4423 
Q 3450 4097 3450 3541 
Q 3450 3153 3228 2886 
Q 3006 2619 2597 2516 
z
" id="DejaVuSans-33" transform="scale(0.015625)"/>
       </defs>
       <use xlink:href="#DejaVuSans-2212"/>
       <use x="83.789062" xlink:href="#DejaVuSans-33"/>
      </g>
     </g>
    </g>
    <g id="ytick_2">
     <g id="line2d_9">
      <path clip-path="url(#pac8fce3dc6)" d="M 55.064375 147.151458 
L 412.901875 147.151458 
" style="fill:none;stroke:#ffffff;stroke-linecap:round;stroke-width:0.8;"/>
     </g>
     <g id="text_10">
      <!-- −2 -->
      <g style="fill:#262626;" transform="translate(33.322188 150.950677)scale(0.1 -0.1)">
       <use xlink:href="#DejaVuSans-2212"/>
       <use x="83.789062" xlink:href="#DejaVuSans-32"/>
      </g>
     </g>
    </g>
    <g id="ytick_3">
     <g id="line2d_10">
      <path clip-path="url(#pac8fce3dc6)" d="M 55.064375 122.184792 
L 412.901875 122.184792 
" style="fill:none;stroke:#ffffff;stroke-linecap:round;stroke-width:0.8;"/>
     </g>
     <g id="text_11">
      <!-- −1 -->
      <g style="fill:#262626;" transform="translate(33.322188 125.98401)scale(0.1 -0.1)">
       <defs>
        <path d="M 794 531 
L 1825 531 
L 1825 4091 
L 703 3866 
L 703 4441 
L 1819 4666 
L 2450 4666 
L 2450 531 
L 3481 531 
L 3481 0 
L 794 0 
L 794 531 
z
" id="DejaVuSans-31" transform="scale(0.015625)"/>
       </defs>
       <use xlink:href="#DejaVuSans-2212"/>
       <use x="83.789062" xlink:href="#DejaVuSans-31"/>
      </g>
     </g>
    </g>
    <g id="ytick_4">
     <g id="line2d_11">
      <path clip-path="url(#pac8fce3dc6)" d="M 55.064375 97.218125 
L 412.901875 97.218125 
" style="fill:none;stroke:#ffffff;stroke-linecap:round;stroke-width:0.8;"/>
     </g>
     <g id="text_12">
      <!-- 0 -->
      <g style="fill:#262626;" transform="translate(41.701875 101.017344)scale(0.1 -0.1)">
       <use xlink:href="#DejaVuSans-30"/>
      </g>
     </g>
    </g>
    <g id="ytick_5">
     <g id="line2d_12">
      <path clip-path="url(#pac8fce3dc6)" d="M 55.064375 72.251458 
L 412.901875 72.251458 
" style="fill:none;stroke:#ffffff;stroke-linecap:round;stroke-width:0.8;"/>
     </g>
     <g id="text_13">
      <!-- 1 -->
      <g style="fill:#262626;" transform="translate(41.701875 76.050677)scale(0.1 -0.1)">
       <use xlink:href="#DejaVuSans-31"/>
      </g>
     </g>
    </g>
    <g id="ytick_6">
     <g id="line2d_13">
      <path clip-path="url(#pac8fce3dc6)" d="M 55.064375 47.284792 
L 412.901875 47.284792 
" style="fill:none;stroke:#ffffff;stroke-linecap:round;stroke-width:0.8;"/>
     </g>
     <g id="text_14">
      <!-- 2 -->
      <g style="fill:#262626;" transform="translate(41.701875 51.08401)scale(0.1 -0.1)">
       <use xlink:href="#DejaVuSans-32"/>
      </g>
     </g>
    </g>
    <g id="ytick_7">
     <g id="line2d_14">
      <path clip-path="url(#pac8fce3dc6)" d="M 55.064375 22.318125 
L 412.901875 22.318125 
" style="fill:none;stroke:#ffffff;stroke-linecap:round;stroke-width:0.8;"/>
     </g>
     <g id="text_15">
      <!-- 3 -->
      <g style="fill:#262626;" transform="translate(41.701875 26.117344)scale(0.1 -0.1)">
       <use xlink:href="#DejaVuSans-33"/>
      </g>
     </g>
    </g>
    <g id="text_16">
     <!-- $y$ -->
     <g style="fill:#262626;" transform="translate(26.592188 101.118125)rotate(-90)scale(0.13 -0.13)">
      <defs>
       <path d="M 1588 -325 
Q 1188 -997 936 -1164 
Q 684 -1331 294 -1331 
L -159 -1331 
L -63 -850 
L 269 -850 
Q 509 -850 678 -719 
Q 847 -588 1056 -206 
L 1234 128 
L 459 3500 
L 1069 3500 
L 1650 819 
L 3256 3500 
L 3859 3500 
L 1588 -325 
z
" id="DejaVuSans-Oblique-79" transform="scale(0.015625)"/>
      </defs>
      <use transform="translate(0 0.3125)" xlink:href="#DejaVuSans-Oblique-79"/>
     </g>
    </g>
   </g>
   <g id="PolyCollection_1">
    <defs>
     <path d="M 55.064375 -375.868905 
L 55.064375 -276.002354 
L 59.900017 -275.98395 
L 64.735659 -275.953467 
L 69.571301 -275.904559 
L 74.406943 -275.828697 
L 79.242584 -275.715257 
L 84.078226 -275.552379 
L 88.913868 -275.329105 
L 93.74951 -275.039337 
L 98.585152 -274.687948 
L 103.420794 -274.298821 
L 108.256436 -273.923743 
L 113.092078 -273.650048 
L 117.92772 -273.60423 
L 122.763361 -273.9488 
L 127.599003 -274.870656 
L 132.434645 -276.560993 
L 137.270287 -279.188832 
L 142.105929 -282.871898 
L 146.941571 -287.649616 
L 151.777213 -293.463013 
L 156.612855 -300.145463 
L 161.448497 -307.426572 
L 166.284139 -302.651911 
L 171.11978 -295.130618 
L 175.955422 -288.636681 
L 180.791064 -283.467789 
L 185.626706 -279.868719 
L 190.462348 -278.018521 
L 195.29799 -278.016004 
L 200.133632 -279.86265 
L 204.969274 -283.446156 
L 209.804916 -288.531718 
L 214.640557 -294.769734 
L 219.476199 -301.726003 
L 224.311841 -308.933872 
L 229.147483 -315.959175 
L 233.983125 -322.461872 
L 238.818767 -328.236423 
L 243.654409 -333.217938 
L 248.490051 -337.452028 
L 253.325693 -341.039106 
L 258.161334 -344.037544 
L 262.996976 -346.593492 
L 267.832618 -348.593053 
L 272.66826 -349.99606 
L 277.503902 -350.747614 
L 282.339544 -350.804084 
L 287.175186 -350.190253 
L 292.010828 -348.968492 
L 296.84647 -347.211495 
L 301.682111 -344.967864 
L 306.517753 -342.193471 
L 311.353395 -338.872467 
L 316.189037 -335.325386 
L 321.024679 -331.263274 
L 325.860321 -327.027761 
L 330.695963 -323.002562 
L 335.531605 -319.303974 
L 340.367247 -314.404712 
L 345.202889 -309.004444 
L 350.03853 -303.193375 
L 354.874172 -297.186233 
L 359.709814 -291.289508 
L 364.545456 -285.842347 
L 369.381098 -281.149154 
L 374.21674 -277.422702 
L 379.052382 -274.751484 
L 383.888024 -273.096644 
L 388.723666 -272.315239 
L 393.559307 -272.200368 
L 398.394949 -272.526074 
L 403.230591 -273.085965 
L 408.066233 -273.7183 
L 412.901875 -274.315384 
L 412.901875 -373.666497 
L 412.901875 -373.666497 
L 408.066233 -372.525864 
L 403.230591 -370.904157 
L 398.394949 -368.659841 
L 393.559307 -365.650786 
L 388.723666 -361.763018 
L 383.888024 -356.948998 
L 379.052382 -351.267952 
L 374.21674 -344.916767 
L 369.381098 -338.238932 
L 364.545456 -331.702007 
L 359.709814 -325.841206 
L 354.874172 -321.176321 
L 350.03853 -318.118731 
L 345.202889 -316.891313 
L 340.367247 -317.483726 
L 335.531605 -319.657624 
L 330.695963 -323.732264 
L 325.860321 -327.799881 
L 321.024679 -331.635648 
L 316.189037 -335.341069 
L 311.353395 -339.034056 
L 306.517753 -342.246617 
L 301.682111 -345.147749 
L 296.84647 -347.586028 
L 292.010828 -349.396165 
L 287.175186 -350.527025 
L 282.339544 -350.982975 
L 277.503902 -350.796323 
L 272.66826 -350.000608 
L 267.832618 -348.595356 
L 262.996976 -346.598643 
L 258.161334 -344.073393 
L 253.325693 -341.046073 
L 248.490051 -337.851473 
L 243.654409 -334.792599 
L 238.818767 -332.266888 
L 233.983125 -330.649401 
L 229.147483 -330.201736 
L 224.311841 -330.998352 
L 219.476199 -332.892439 
L 214.640557 -335.53077 
L 209.804916 -338.412195 
L 204.969274 -340.973024 
L 200.133632 -342.677789 
L 195.29799 -343.096177 
L 190.462348 -341.954102 
L 185.626706 -339.155365 
L 180.791064 -334.777103 
L 175.955422 -329.045703 
L 171.11978 -322.300272 
L 166.284139 -314.949521 
L 161.448497 -310.864083 
L 156.612855 -319.410087 
L 151.777213 -327.935297 
L 146.941571 -336.113349 
L 142.105929 -343.670947 
L 137.270287 -350.407178 
L 132.434645 -356.203758 
L 127.599003 -361.024543 
L 122.763361 -364.904952 
L 117.92772 -367.93401 
L 113.092078 -370.232987 
L 108.256436 -371.934839 
L 103.420794 -373.167777 
L 98.585152 -374.044698 
L 93.74951 -374.658466 
L 88.913868 -375.081688 
L 84.078226 -375.369145 
L 79.242584 -375.561211 
L 74.406943 -375.687206 
L 69.571301 -375.768178 
L 64.735659 -375.819053 
L 59.900017 -375.850253 
L 55.064375 -375.868905 
z
" id="m04e07f9e12" style="stroke:#ff0000;stroke-opacity:0.15;"/>
    </defs>
    <g clip-path="url(#pac8fce3dc6)">
     <use style="fill:#ff0000;fill-opacity:0.15;stroke:#ff0000;stroke-opacity:0.15;" x="0" xlink:href="#m04e07f9e12" y="423.177812"/>
    </g>
   </g>
   <g id="line2d_15">
    <path clip-path="url(#pac8fce3dc6)" d="M 55.064375 90.242051 
L 59.900017 86.463197 
L 64.735659 82.966541 
L 69.571301 79.843832 
L 74.406943 77.177007 
L 79.242584 75.036041 
L 84.078226 73.477111 
L 88.913868 72.54112 
L 93.74951 72.25263 
L 98.585152 72.619208 
L 103.420794 73.631238 
L 108.256436 75.262164 
L 113.092078 77.469192 
L 117.92772 80.194412 
L 122.763361 83.366317 
L 127.599003 86.901679 
L 132.434645 90.707735 
L 137.270287 94.684617 
L 142.105929 98.727975 
L 146.941571 102.731717 
L 151.777213 106.590787 
L 156.612855 110.203929 
L 161.448497 113.476336 
L 166.284139 116.322143 
L 171.11978 118.666681 
L 175.955422 120.44843 
L 180.791064 121.62064 
L 185.626706 122.152552 
L 190.462348 122.030209 
L 195.29799 121.256823 
L 200.133632 119.852686 
L 204.969274 117.85464 
L 209.804916 115.315113 
L 214.640557 112.30074 
L 219.476199 108.890613 
L 224.311841 105.174213 
L 229.147483 101.249053 
L 233.983125 97.218125 
L 238.818767 93.187197 
L 243.654409 89.262037 
L 248.490051 85.545637 
L 253.325693 82.13551 
L 258.161334 79.121137 
L 262.996976 76.58161 
L 267.832618 74.583564 
L 272.66826 73.179427 
L 277.503902 72.406041 
L 282.339544 72.283698 
L 287.175186 72.81561 
L 292.010828 73.98782 
L 296.84647 75.769569 
L 301.682111 78.114107 
L 306.517753 80.959914 
L 311.353395 84.232321 
L 316.189037 87.845463 
L 321.024679 91.704533 
L 325.860321 95.708275 
L 330.695963 99.751633 
L 335.531605 103.728515 
L 340.367247 107.534571 
L 345.202889 111.069933 
L 350.03853 114.241838 
L 354.874172 116.967058 
L 359.709814 119.174086 
L 364.545456 120.805012 
L 369.381098 121.817042 
L 374.21674 122.18362 
L 379.052382 121.89513 
L 383.888024 120.959139 
L 388.723666 119.400209 
L 393.559307 117.259243 
L 398.394949 114.592418 
L 403.230591 111.469709 
L 408.066233 107.973053 
L 412.901875 104.194199 
" style="fill:none;stroke:#0000ff;stroke-dasharray:5.55,2.4;stroke-dashoffset:0;stroke-width:1.5;"/>
   </g>
   <g id="line2d_16">
    <path clip-path="url(#pac8fce3dc6)" d="M 55.064375 97.242183 
L 59.900017 97.260711 
L 64.735659 97.291553 
L 69.571301 97.341444 
L 74.406943 97.419861 
L 79.242584 97.539578 
L 84.078226 97.717051 
L 88.913868 97.972416 
L 93.74951 98.328911 
L 98.585152 98.81149 
L 103.420794 99.444514 
L 108.256436 100.248521 
L 113.092078 101.236295 
L 117.92772 102.408693 
L 122.763361 103.750936 
L 127.599003 105.230213 
L 132.434645 106.795437 
L 137.270287 108.379808 
L 142.105929 109.90639 
L 146.941571 111.29633 
L 151.777213 112.478658 
L 156.612855 113.400037 
L 161.448497 114.032485 
L 166.284139 114.377097 
L 171.11978 114.462368 
L 175.955422 114.336621 
L 180.791064 114.055367 
L 185.626706 113.665771 
L 190.462348 113.191501 
L 195.29799 112.621722 
L 200.133632 111.907593 
L 204.969274 110.968222 
L 209.804916 109.705856 
L 214.640557 108.027561 
L 219.476199 105.868592 
L 224.311841 103.211701 
L 229.147483 100.097357 
L 233.983125 96.622176 
L 238.818767 92.926157 
L 243.654409 89.172544 
L 248.490051 85.526062 
L 253.325693 82.135223 
L 258.161334 79.122344 
L 262.996976 76.581745 
L 267.832618 74.583608 
L 272.66826 73.179479 
L 277.503902 72.405844 
L 282.339544 72.284283 
L 287.175186 72.819173 
L 292.010828 73.995484 
L 296.84647 75.779051 
L 301.682111 78.120006 
L 306.517753 80.957769 
L 311.353395 84.224551 
L 316.189037 87.844585 
L 321.024679 91.728352 
L 325.860321 95.763992 
L 330.695963 99.8104 
L 335.531605 103.697013 
L 340.367247 107.233594 
L 345.202889 110.229934 
L 350.03853 112.52176 
L 354.874172 113.996535 
L 359.709814 114.612456 
L 364.545456 114.405636 
L 369.381098 113.483769 
L 374.21674 112.008078 
L 379.052382 110.168094 
L 383.888024 108.154991 
L 388.723666 106.138684 
L 393.559307 104.252236 
L 398.394949 102.584855 
L 403.230591 101.182752 
L 408.066233 100.055731 
L 412.901875 99.186872 
" style="fill:none;stroke:#ff0000;stroke-linecap:round;stroke-width:2;"/>
   </g>
   <g id="line2d_17">
    <defs>
     <path d="M 0 3 
C 0.795609 3 1.55874 2.683901 2.12132 2.12132 
C 2.683901 1.55874 3 0.795609 3 0 
C 3 -0.795609 2.683901 -1.55874 2.12132 -2.12132 
C 1.55874 -2.683901 0.795609 -3 0 -3 
C -0.795609 -3 -1.55874 -2.683901 -2.12132 -2.12132 
C -2.683901 -1.55874 -3 -0.795609 -3 0 
C -3 0.795609 -2.683901 1.55874 -2.12132 2.12132 
C -1.55874 2.683901 -0.795609 3 0 3 
z
" id="mef35dbe9f2" style="stroke:#000000;"/>
    </defs>
    <g clip-path="url(#pac8fce3dc6)">
     <use style="stroke:#000000;" x="264.955759" xlink:href="#mef35dbe9f2" y="75.703717"/>
     <use style="stroke:#000000;" x="162.494513" xlink:href="#mef35dbe9f2" y="114.130834"/>
     <use style="stroke:#000000;" x="273.628072" xlink:href="#mef35dbe9f2" y="72.974861"/>
     <use style="stroke:#000000;" x="305.310501" xlink:href="#mef35dbe9f2" y="80.206361"/>
     <use style="stroke:#000000;" x="316.448236" xlink:href="#mef35dbe9f2" y="88.046957"/>
     <use style="stroke:#000000;" x="334.487553" xlink:href="#mef35dbe9f2" y="102.880806"/>
     <use style="stroke:#000000;" x="266.339171" xlink:href="#mef35dbe9f2" y="75.139402"/>
     <use style="stroke:#000000;" x="253.551905" xlink:href="#mef35dbe9f2" y="81.985015"/>
    </g>
   </g>
   <g id="patch_3">
    <path d="M 55.064375 172.118125 
L 55.064375 22.318125 
" style="fill:none;stroke:#ffffff;stroke-linecap:square;stroke-linejoin:miter;stroke-width:0.8;"/>
   </g>
   <g id="patch_4">
    <path d="M 412.901875 172.118125 
L 412.901875 22.318125 
" style="fill:none;stroke:#ffffff;stroke-linecap:square;stroke-linejoin:miter;stroke-width:0.8;"/>
   </g>
   <g id="patch_5">
    <path d="M 55.064375 172.118125 
L 412.901875 172.118125 
" style="fill:none;stroke:#ffffff;stroke-linecap:square;stroke-linejoin:miter;stroke-width:0.8;"/>
   </g>
   <g id="patch_6">
    <path d="M 55.064375 22.318125 
L 412.901875 22.318125 
" style="fill:none;stroke:#ffffff;stroke-linecap:square;stroke-linejoin:miter;stroke-width:0.8;"/>
   </g>
   <g id="text_17">
    <!-- Distribution of posterior and prior data. -->
    <g style="fill:#262626;" transform="translate(115.950938 16.318125)scale(0.12 -0.12)">
     <defs>
      <path d="M 1259 4147 
L 1259 519 
L 2022 519 
Q 2988 519 3436 956 
Q 3884 1394 3884 2338 
Q 3884 3275 3436 3711 
Q 2988 4147 2022 4147 
L 1259 4147 
z
M 628 4666 
L 1925 4666 
Q 3281 4666 3915 4102 
Q 4550 3538 4550 2338 
Q 4550 1131 3912 565 
Q 3275 0 1925 0 
L 628 0 
L 628 4666 
z
" id="DejaVuSans-44" transform="scale(0.015625)"/>
      <path d="M 603 3500 
L 1178 3500 
L 1178 0 
L 603 0 
L 603 3500 
z
M 603 4863 
L 1178 4863 
L 1178 4134 
L 603 4134 
L 603 4863 
z
" id="DejaVuSans-69" transform="scale(0.015625)"/>
      <path d="M 2834 3397 
L 2834 2853 
Q 2591 2978 2328 3040 
Q 2066 3103 1784 3103 
Q 1356 3103 1142 2972 
Q 928 2841 928 2578 
Q 928 2378 1081 2264 
Q 1234 2150 1697 2047 
L 1894 2003 
Q 2506 1872 2764 1633 
Q 3022 1394 3022 966 
Q 3022 478 2636 193 
Q 2250 -91 1575 -91 
Q 1294 -91 989 -36 
Q 684 19 347 128 
L 347 722 
Q 666 556 975 473 
Q 1284 391 1588 391 
Q 1994 391 2212 530 
Q 2431 669 2431 922 
Q 2431 1156 2273 1281 
Q 2116 1406 1581 1522 
L 1381 1569 
Q 847 1681 609 1914 
Q 372 2147 372 2553 
Q 372 3047 722 3315 
Q 1072 3584 1716 3584 
Q 2034 3584 2315 3537 
Q 2597 3491 2834 3397 
z
" id="DejaVuSans-73" transform="scale(0.015625)"/>
      <path d="M 1172 4494 
L 1172 3500 
L 2356 3500 
L 2356 3053 
L 1172 3053 
L 1172 1153 
Q 1172 725 1289 603 
Q 1406 481 1766 481 
L 2356 481 
L 2356 0 
L 1766 0 
Q 1100 0 847 248 
Q 594 497 594 1153 
L 594 3053 
L 172 3053 
L 172 3500 
L 594 3500 
L 594 4494 
L 1172 4494 
z
" id="DejaVuSans-74" transform="scale(0.015625)"/>
      <path d="M 2631 2963 
Q 2534 3019 2420 3045 
Q 2306 3072 2169 3072 
Q 1681 3072 1420 2755 
Q 1159 2438 1159 1844 
L 1159 0 
L 581 0 
L 581 3500 
L 1159 3500 
L 1159 2956 
Q 1341 3275 1631 3429 
Q 1922 3584 2338 3584 
Q 2397 3584 2469 3576 
Q 2541 3569 2628 3553 
L 2631 2963 
z
" id="DejaVuSans-72" transform="scale(0.015625)"/>
      <path d="M 3116 1747 
Q 3116 2381 2855 2742 
Q 2594 3103 2138 3103 
Q 1681 3103 1420 2742 
Q 1159 2381 1159 1747 
Q 1159 1113 1420 752 
Q 1681 391 2138 391 
Q 2594 391 2855 752 
Q 3116 1113 3116 1747 
z
M 1159 2969 
Q 1341 3281 1617 3432 
Q 1894 3584 2278 3584 
Q 2916 3584 3314 3078 
Q 3713 2572 3713 1747 
Q 3713 922 3314 415 
Q 2916 -91 2278 -91 
Q 1894 -91 1617 61 
Q 1341 213 1159 525 
L 1159 0 
L 581 0 
L 581 4863 
L 1159 4863 
L 1159 2969 
z
" id="DejaVuSans-62" transform="scale(0.015625)"/>
      <path d="M 544 1381 
L 544 3500 
L 1119 3500 
L 1119 1403 
Q 1119 906 1312 657 
Q 1506 409 1894 409 
Q 2359 409 2629 706 
Q 2900 1003 2900 1516 
L 2900 3500 
L 3475 3500 
L 3475 0 
L 2900 0 
L 2900 538 
Q 2691 219 2414 64 
Q 2138 -91 1772 -91 
Q 1169 -91 856 284 
Q 544 659 544 1381 
z
M 1991 3584 
L 1991 3584 
z
" id="DejaVuSans-75" transform="scale(0.015625)"/>
      <path d="M 1959 3097 
Q 1497 3097 1228 2736 
Q 959 2375 959 1747 
Q 959 1119 1226 758 
Q 1494 397 1959 397 
Q 2419 397 2687 759 
Q 2956 1122 2956 1747 
Q 2956 2369 2687 2733 
Q 2419 3097 1959 3097 
z
M 1959 3584 
Q 2709 3584 3137 3096 
Q 3566 2609 3566 1747 
Q 3566 888 3137 398 
Q 2709 -91 1959 -91 
Q 1206 -91 779 398 
Q 353 888 353 1747 
Q 353 2609 779 3096 
Q 1206 3584 1959 3584 
z
" id="DejaVuSans-6f" transform="scale(0.015625)"/>
      <path d="M 3513 2113 
L 3513 0 
L 2938 0 
L 2938 2094 
Q 2938 2591 2744 2837 
Q 2550 3084 2163 3084 
Q 1697 3084 1428 2787 
Q 1159 2491 1159 1978 
L 1159 0 
L 581 0 
L 581 3500 
L 1159 3500 
L 1159 2956 
Q 1366 3272 1645 3428 
Q 1925 3584 2291 3584 
Q 2894 3584 3203 3211 
Q 3513 2838 3513 2113 
z
" id="DejaVuSans-6e" transform="scale(0.015625)"/>
      <path id="DejaVuSans-20" transform="scale(0.015625)"/>
      <path d="M 2375 4863 
L 2375 4384 
L 1825 4384 
Q 1516 4384 1395 4259 
Q 1275 4134 1275 3809 
L 1275 3500 
L 2222 3500 
L 2222 3053 
L 1275 3053 
L 1275 0 
L 697 0 
L 697 3053 
L 147 3053 
L 147 3500 
L 697 3500 
L 697 3744 
Q 697 4328 969 4595 
Q 1241 4863 1831 4863 
L 2375 4863 
z
" id="DejaVuSans-66" transform="scale(0.015625)"/>
      <path d="M 1159 525 
L 1159 -1331 
L 581 -1331 
L 581 3500 
L 1159 3500 
L 1159 2969 
Q 1341 3281 1617 3432 
Q 1894 3584 2278 3584 
Q 2916 3584 3314 3078 
Q 3713 2572 3713 1747 
Q 3713 922 3314 415 
Q 2916 -91 2278 -91 
Q 1894 -91 1617 61 
Q 1341 213 1159 525 
z
M 3116 1747 
Q 3116 2381 2855 2742 
Q 2594 3103 2138 3103 
Q 1681 3103 1420 2742 
Q 1159 2381 1159 1747 
Q 1159 1113 1420 752 
Q 1681 391 2138 391 
Q 2594 391 2855 752 
Q 3116 1113 3116 1747 
z
" id="DejaVuSans-70" transform="scale(0.015625)"/>
      <path d="M 3597 1894 
L 3597 1613 
L 953 1613 
Q 991 1019 1311 708 
Q 1631 397 2203 397 
Q 2534 397 2845 478 
Q 3156 559 3463 722 
L 3463 178 
Q 3153 47 2828 -22 
Q 2503 -91 2169 -91 
Q 1331 -91 842 396 
Q 353 884 353 1716 
Q 353 2575 817 3079 
Q 1281 3584 2069 3584 
Q 2775 3584 3186 3129 
Q 3597 2675 3597 1894 
z
M 3022 2063 
Q 3016 2534 2758 2815 
Q 2500 3097 2075 3097 
Q 1594 3097 1305 2825 
Q 1016 2553 972 2059 
L 3022 2063 
z
" id="DejaVuSans-65" transform="scale(0.015625)"/>
      <path d="M 2194 1759 
Q 1497 1759 1228 1600 
Q 959 1441 959 1056 
Q 959 750 1161 570 
Q 1363 391 1709 391 
Q 2188 391 2477 730 
Q 2766 1069 2766 1631 
L 2766 1759 
L 2194 1759 
z
M 3341 1997 
L 3341 0 
L 2766 0 
L 2766 531 
Q 2569 213 2275 61 
Q 1981 -91 1556 -91 
Q 1019 -91 701 211 
Q 384 513 384 1019 
Q 384 1609 779 1909 
Q 1175 2209 1959 2209 
L 2766 2209 
L 2766 2266 
Q 2766 2663 2505 2880 
Q 2244 3097 1772 3097 
Q 1472 3097 1187 3025 
Q 903 2953 641 2809 
L 641 3341 
Q 956 3463 1253 3523 
Q 1550 3584 1831 3584 
Q 2591 3584 2966 3190 
Q 3341 2797 3341 1997 
z
" id="DejaVuSans-61" transform="scale(0.015625)"/>
      <path d="M 2906 2969 
L 2906 4863 
L 3481 4863 
L 3481 0 
L 2906 0 
L 2906 525 
Q 2725 213 2448 61 
Q 2172 -91 1784 -91 
Q 1150 -91 751 415 
Q 353 922 353 1747 
Q 353 2572 751 3078 
Q 1150 3584 1784 3584 
Q 2172 3584 2448 3432 
Q 2725 3281 2906 2969 
z
M 947 1747 
Q 947 1113 1208 752 
Q 1469 391 1925 391 
Q 2381 391 2643 752 
Q 2906 1113 2906 1747 
Q 2906 2381 2643 2742 
Q 2381 3103 1925 3103 
Q 1469 3103 1208 2742 
Q 947 2381 947 1747 
z
" id="DejaVuSans-64" transform="scale(0.015625)"/>
      <path d="M 684 794 
L 1344 794 
L 1344 0 
L 684 0 
L 684 794 
z
" id="DejaVuSans-2e" transform="scale(0.015625)"/>
     </defs>
     <use xlink:href="#DejaVuSans-44"/>
     <use x="77.001953" xlink:href="#DejaVuSans-69"/>
     <use x="104.785156" xlink:href="#DejaVuSans-73"/>
     <use x="156.884766" xlink:href="#DejaVuSans-74"/>
     <use x="196.09375" xlink:href="#DejaVuSans-72"/>
     <use x="237.207031" xlink:href="#DejaVuSans-69"/>
     <use x="264.990234" xlink:href="#DejaVuSans-62"/>
     <use x="328.466797" xlink:href="#DejaVuSans-75"/>
     <use x="391.845703" xlink:href="#DejaVuSans-74"/>
     <use x="431.054688" xlink:href="#DejaVuSans-69"/>
     <use x="458.837891" xlink:href="#DejaVuSans-6f"/>
     <use x="520.019531" xlink:href="#DejaVuSans-6e"/>
     <use x="583.398438" xlink:href="#DejaVuSans-20"/>
     <use x="615.185547" xlink:href="#DejaVuSans-6f"/>
     <use x="676.367188" xlink:href="#DejaVuSans-66"/>
     <use x="711.572266" xlink:href="#DejaVuSans-20"/>
     <use x="743.359375" xlink:href="#DejaVuSans-70"/>
     <use x="806.835938" xlink:href="#DejaVuSans-6f"/>
     <use x="868.017578" xlink:href="#DejaVuSans-73"/>
     <use x="920.117188" xlink:href="#DejaVuSans-74"/>
     <use x="959.326172" xlink:href="#DejaVuSans-65"/>
     <use x="1020.849609" xlink:href="#DejaVuSans-72"/>
     <use x="1061.962891" xlink:href="#DejaVuSans-69"/>
     <use x="1089.746094" xlink:href="#DejaVuSans-6f"/>
     <use x="1150.927734" xlink:href="#DejaVuSans-72"/>
     <use x="1192.041016" xlink:href="#DejaVuSans-20"/>
     <use x="1223.828125" xlink:href="#DejaVuSans-61"/>
     <use x="1285.107422" xlink:href="#DejaVuSans-6e"/>
     <use x="1348.486328" xlink:href="#DejaVuSans-64"/>
     <use x="1411.962891" xlink:href="#DejaVuSans-20"/>
     <use x="1443.75" xlink:href="#DejaVuSans-70"/>
     <use x="1507.226562" xlink:href="#DejaVuSans-72"/>
     <use x="1548.339844" xlink:href="#DejaVuSans-69"/>
     <use x="1576.123047" xlink:href="#DejaVuSans-6f"/>
     <use x="1637.304688" xlink:href="#DejaVuSans-72"/>
     <use x="1678.417969" xlink:href="#DejaVuSans-20"/>
     <use x="1710.205078" xlink:href="#DejaVuSans-64"/>
     <use x="1773.681641" xlink:href="#DejaVuSans-61"/>
     <use x="1834.960938" xlink:href="#DejaVuSans-74"/>
     <use x="1874.169922" xlink:href="#DejaVuSans-61"/>
     <use x="1935.449219" xlink:href="#DejaVuSans-2e"/>
    </g>
   </g>
   <g id="legend_1">
    <g id="patch_7">
     <path d="M 339.601875 91.493125 
L 405.901875 91.493125 
Q 407.901875 91.493125 407.901875 89.493125 
L 407.901875 29.318125 
Q 407.901875 27.318125 405.901875 27.318125 
L 339.601875 27.318125 
Q 337.601875 27.318125 337.601875 29.318125 
L 337.601875 89.493125 
Q 337.601875 91.493125 339.601875 91.493125 
z
" style="fill:#eaeaf2;opacity:0.8;stroke:#cccccc;stroke-linejoin:miter;"/>
    </g>
    <g id="line2d_18">
     <path d="M 341.601875 35.416562 
L 361.601875 35.416562 
" style="fill:none;stroke:#0000ff;stroke-dasharray:5.55,2.4;stroke-dashoffset:0;stroke-width:1.5;"/>
    </g>
    <g id="line2d_19"/>
    <g id="text_18">
     <!-- $sin(x)$ -->
     <g style="fill:#262626;" transform="translate(369.601875 38.916562)scale(0.1 -0.1)">
      <defs>
       <path d="M 3200 3397 
L 3091 2853 
Q 2863 2978 2609 3040 
Q 2356 3103 2088 3103 
Q 1634 3103 1373 2948 
Q 1113 2794 1113 2528 
Q 1113 2219 1719 2053 
Q 1766 2041 1788 2034 
L 1972 1978 
Q 2547 1819 2739 1644 
Q 2931 1469 2931 1166 
Q 2931 609 2489 259 
Q 2047 -91 1331 -91 
Q 1053 -91 747 -37 
Q 441 16 72 128 
L 184 722 
Q 500 559 806 475 
Q 1113 391 1394 391 
Q 1816 391 2080 572 
Q 2344 753 2344 1031 
Q 2344 1331 1650 1516 
L 1591 1531 
L 1394 1581 
Q 956 1697 753 1886 
Q 550 2075 550 2369 
Q 550 2928 970 3256 
Q 1391 3584 2113 3584 
Q 2397 3584 2667 3537 
Q 2938 3491 3200 3397 
z
" id="DejaVuSans-Oblique-73" transform="scale(0.015625)"/>
       <path d="M 1172 4863 
L 1747 4863 
L 1606 4134 
L 1031 4134 
L 1172 4863 
z
M 909 3500 
L 1484 3500 
L 800 0 
L 225 0 
L 909 3500 
z
" id="DejaVuSans-Oblique-69" transform="scale(0.015625)"/>
       <path d="M 3566 2113 
L 3156 0 
L 2578 0 
L 2988 2091 
Q 3016 2238 3031 2350 
Q 3047 2463 3047 2528 
Q 3047 2791 2881 2937 
Q 2716 3084 2419 3084 
Q 1956 3084 1622 2776 
Q 1288 2469 1184 1941 
L 800 0 
L 225 0 
L 903 3500 
L 1478 3500 
L 1363 2950 
Q 1603 3253 1940 3418 
Q 2278 3584 2650 3584 
Q 3113 3584 3367 3334 
Q 3622 3084 3622 2631 
Q 3622 2519 3608 2391 
Q 3594 2263 3566 2113 
z
" id="DejaVuSans-Oblique-6e" transform="scale(0.015625)"/>
       <path d="M 1984 4856 
Q 1566 4138 1362 3434 
Q 1159 2731 1159 2009 
Q 1159 1288 1364 580 
Q 1569 -128 1984 -844 
L 1484 -844 
Q 1016 -109 783 600 
Q 550 1309 550 2009 
Q 550 2706 781 3412 
Q 1013 4119 1484 4856 
L 1984 4856 
z
" id="DejaVuSans-28" transform="scale(0.015625)"/>
       <path d="M 513 4856 
L 1013 4856 
Q 1481 4119 1714 3412 
Q 1947 2706 1947 2009 
Q 1947 1309 1714 600 
Q 1481 -109 1013 -844 
L 513 -844 
Q 928 -128 1133 580 
Q 1338 1288 1338 2009 
Q 1338 2731 1133 3434 
Q 928 4138 513 4856 
z
" id="DejaVuSans-29" transform="scale(0.015625)"/>
      </defs>
      <use transform="translate(0 0.015625)" xlink:href="#DejaVuSans-Oblique-73"/>
      <use transform="translate(52.099609 0.015625)" xlink:href="#DejaVuSans-Oblique-69"/>
      <use transform="translate(79.882812 0.015625)" xlink:href="#DejaVuSans-Oblique-6e"/>
      <use transform="translate(143.261719 0.015625)" xlink:href="#DejaVuSans-28"/>
      <use transform="translate(182.275391 0.015625)" xlink:href="#DejaVuSans-Oblique-78"/>
      <use transform="translate(241.455078 0.015625)" xlink:href="#DejaVuSans-29"/>
     </g>
    </g>
    <g id="line2d_20">
     <path d="M 341.601875 50.094688 
L 361.601875 50.094688 
" style="fill:none;stroke:#ff0000;stroke-linecap:round;stroke-width:2;"/>
    </g>
    <g id="line2d_21"/>
    <g id="text_19">
     <!-- $\mu_{2|1}$ -->
     <g style="fill:#262626;" transform="translate(369.601875 53.594688)scale(0.1 -0.1)">
      <defs>
       <path d="M -84 -1331 
L 856 3500 
L 1434 3500 
L 1009 1322 
Q 997 1256 987 1175 
Q 978 1094 978 1013 
Q 978 722 1161 565 
Q 1344 409 1684 409 
Q 2147 409 2431 671 
Q 2716 934 2816 1459 
L 3213 3500 
L 3788 3500 
L 3266 809 
Q 3253 750 3248 706 
Q 3244 663 3244 628 
Q 3244 531 3283 486 
Q 3322 441 3406 441 
Q 3438 441 3492 456 
Q 3547 472 3647 513 
L 3559 50 
Q 3422 -19 3297 -55 
Q 3172 -91 3053 -91 
Q 2847 -91 2730 40 
Q 2613 172 2613 403 
Q 2438 153 2195 31 
Q 1953 -91 1625 -91 
Q 1334 -91 1117 43 
Q 900 178 831 397 
L 494 -1331 
L -84 -1331 
z
" id="DejaVuSans-Oblique-3bc" transform="scale(0.015625)"/>
       <path d="M 1344 4891 
L 1344 -1509 
L 813 -1509 
L 813 4891 
L 1344 4891 
z
" id="DejaVuSans-7c" transform="scale(0.015625)"/>
      </defs>
      <use transform="translate(0 0.3125)" xlink:href="#DejaVuSans-Oblique-3bc"/>
      <use transform="translate(63.623047 -16.09375)scale(0.7)" xlink:href="#DejaVuSans-32"/>
      <use transform="translate(108.15918 -16.09375)scale(0.7)" xlink:href="#DejaVuSans-7c"/>
      <use transform="translate(131.743164 -16.09375)scale(0.7)" xlink:href="#DejaVuSans-31"/>
     </g>
    </g>
    <g id="line2d_22"/>
    <g id="line2d_23">
     <g>
      <use style="stroke:#000000;" x="351.601875" xlink:href="#mef35dbe9f2" y="65.994687"/>
     </g>
    </g>
    <g id="text_20">
     <!-- $(x_1, y_1)$ -->
     <g style="fill:#262626;" transform="translate(369.601875 69.494687)scale(0.1 -0.1)">
      <defs>
       <path d="M 750 794 
L 1409 794 
L 1409 256 
L 897 -744 
L 494 -744 
L 750 256 
L 750 794 
z
" id="DejaVuSans-2c" transform="scale(0.015625)"/>
      </defs>
      <use transform="translate(0 0.125)" xlink:href="#DejaVuSans-28"/>
      <use transform="translate(39.013672 0.125)" xlink:href="#DejaVuSans-Oblique-78"/>
      <use transform="translate(98.193359 -16.28125)scale(0.7)" xlink:href="#DejaVuSans-31"/>
      <use transform="translate(145.463867 0.125)" xlink:href="#DejaVuSans-2c"/>
      <use transform="translate(196.733398 0.125)" xlink:href="#DejaVuSans-Oblique-79"/>
      <use transform="translate(255.913086 -16.28125)scale(0.7)" xlink:href="#DejaVuSans-31"/>
      <use transform="translate(303.183594 0.125)" xlink:href="#DejaVuSans-29"/>
     </g>
    </g>
    <g id="patch_8">
     <path d="M 341.601875 84.193125 
L 361.601875 84.193125 
L 361.601875 77.193125 
L 341.601875 77.193125 
z
" style="fill:#ff0000;fill-opacity:0.15;stroke:#ff0000;stroke-linejoin:miter;stroke-opacity:0.15;"/>
    </g>
    <g id="text_21">
     <!-- $2 \sigma_{2|1}$ -->
     <g style="fill:#262626;" transform="translate(369.601875 84.193125)scale(0.1 -0.1)">
      <defs>
       <path d="M 2219 3044 
Q 1744 3044 1422 2700 
Q 1081 2341 969 1747 
Q 844 1119 1044 756 
Q 1241 397 1706 397 
Q 2166 397 2503 759 
Q 2844 1122 2966 1747 
Q 3075 2319 2881 2700 
Q 2700 3044 2219 3044 
z
M 2309 3503 
L 4219 3500 
L 4106 2925 
L 3463 2925 
Q 3706 2438 3575 1747 
Q 3406 888 2884 400 
Q 2359 -91 1609 -91 
Q 856 -91 525 400 
Q 194 888 363 1747 
Q 528 2609 1050 3097 
Q 1484 3503 2309 3503 
z
" id="DejaVuSans-Oblique-3c3" transform="scale(0.015625)"/>
      </defs>
      <use transform="translate(0 0.78125)" xlink:href="#DejaVuSans-32"/>
      <use transform="translate(63.623047 0.78125)" xlink:href="#DejaVuSans-Oblique-3c3"/>
      <use transform="translate(127.001953 -15.625)scale(0.7)" xlink:href="#DejaVuSans-32"/>
      <use transform="translate(171.538086 -15.625)scale(0.7)" xlink:href="#DejaVuSans-7c"/>
      <use transform="translate(195.12207 -15.625)scale(0.7)" xlink:href="#DejaVuSans-31"/>
     </g>
    </g>
   </g>
  </g>
  <g id="axes_2">
   <g id="patch_9">
    <path d="M 55.064375 382.718125 
L 412.901875 382.718125 
L 412.901875 232.918125 
L 55.064375 232.918125 
z
" style="fill:#eaeaf2;"/>
   </g>
   <g id="matplotlib.axis_3">
    <g id="xtick_8">
     <g id="line2d_24">
      <path clip-path="url(#p189dffddfb)" d="M 55.064375 382.718125 
L 55.064375 232.918125 
" style="fill:none;stroke:#ffffff;stroke-linecap:round;stroke-width:0.8;"/>
     </g>
     <g id="text_22">
      <!-- −6 -->
      <g style="fill:#262626;" transform="translate(47.693281 397.316562)scale(0.1 -0.1)">
       <use xlink:href="#DejaVuSans-2212"/>
       <use x="83.789062" xlink:href="#DejaVuSans-36"/>
      </g>
     </g>
    </g>
    <g id="xtick_9">
     <g id="line2d_25">
      <path clip-path="url(#p189dffddfb)" d="M 114.703958 382.718125 
L 114.703958 232.918125 
" style="fill:none;stroke:#ffffff;stroke-linecap:round;stroke-width:0.8;"/>
     </g>
     <g id="text_23">
      <!-- −4 -->
      <g style="fill:#262626;" transform="translate(107.332865 397.316562)scale(0.1 -0.1)">
       <use xlink:href="#DejaVuSans-2212"/>
       <use x="83.789062" xlink:href="#DejaVuSans-34"/>
      </g>
     </g>
    </g>
    <g id="xtick_10">
     <g id="line2d_26">
      <path clip-path="url(#p189dffddfb)" d="M 174.343542 382.718125 
L 174.343542 232.918125 
" style="fill:none;stroke:#ffffff;stroke-linecap:round;stroke-width:0.8;"/>
     </g>
     <g id="text_24">
      <!-- −2 -->
      <g style="fill:#262626;" transform="translate(166.972448 397.316562)scale(0.1 -0.1)">
       <use xlink:href="#DejaVuSans-2212"/>
       <use x="83.789062" xlink:href="#DejaVuSans-32"/>
      </g>
     </g>
    </g>
    <g id="xtick_11">
     <g id="line2d_27">
      <path clip-path="url(#p189dffddfb)" d="M 233.983125 382.718125 
L 233.983125 232.918125 
" style="fill:none;stroke:#ffffff;stroke-linecap:round;stroke-width:0.8;"/>
     </g>
     <g id="text_25">
      <!-- 0 -->
      <g style="fill:#262626;" transform="translate(230.801875 397.316562)scale(0.1 -0.1)">
       <use xlink:href="#DejaVuSans-30"/>
      </g>
     </g>
    </g>
    <g id="xtick_12">
     <g id="line2d_28">
      <path clip-path="url(#p189dffddfb)" d="M 293.622708 382.718125 
L 293.622708 232.918125 
" style="fill:none;stroke:#ffffff;stroke-linecap:round;stroke-width:0.8;"/>
     </g>
     <g id="text_26">
      <!-- 2 -->
      <g style="fill:#262626;" transform="translate(290.441458 397.316562)scale(0.1 -0.1)">
       <use xlink:href="#DejaVuSans-32"/>
      </g>
     </g>
    </g>
    <g id="xtick_13">
     <g id="line2d_29">
      <path clip-path="url(#p189dffddfb)" d="M 353.262292 382.718125 
L 353.262292 232.918125 
" style="fill:none;stroke:#ffffff;stroke-linecap:round;stroke-width:0.8;"/>
     </g>
     <g id="text_27">
      <!-- 4 -->
      <g style="fill:#262626;" transform="translate(350.081042 397.316562)scale(0.1 -0.1)">
       <use xlink:href="#DejaVuSans-34"/>
      </g>
     </g>
    </g>
    <g id="xtick_14">
     <g id="line2d_30">
      <path clip-path="url(#p189dffddfb)" d="M 412.901875 382.718125 
L 412.901875 232.918125 
" style="fill:none;stroke:#ffffff;stroke-linecap:round;stroke-width:0.8;"/>
     </g>
     <g id="text_28">
      <!-- 6 -->
      <g style="fill:#262626;" transform="translate(409.720625 397.316562)scale(0.1 -0.1)">
       <use xlink:href="#DejaVuSans-36"/>
      </g>
     </g>
    </g>
    <g id="text_29">
     <!-- $x$ -->
     <g style="fill:#262626;" transform="translate(230.083125 413.274219)scale(0.13 -0.13)">
      <use transform="translate(0 0.3125)" xlink:href="#DejaVuSans-Oblique-78"/>
     </g>
    </g>
   </g>
   <g id="matplotlib.axis_4">
    <g id="ytick_8">
     <g id="line2d_31">
      <path clip-path="url(#p189dffddfb)" d="M 55.064375 366.522098 
L 412.901875 366.522098 
" style="fill:none;stroke:#ffffff;stroke-linecap:round;stroke-width:0.8;"/>
     </g>
     <g id="text_30">
      <!-- −1.5 -->
      <g style="fill:#262626;" transform="translate(23.781563 370.321317)scale(0.1 -0.1)">
       <defs>
        <path d="M 691 4666 
L 3169 4666 
L 3169 4134 
L 1269 4134 
L 1269 2991 
Q 1406 3038 1543 3061 
Q 1681 3084 1819 3084 
Q 2600 3084 3056 2656 
Q 3513 2228 3513 1497 
Q 3513 744 3044 326 
Q 2575 -91 1722 -91 
Q 1428 -91 1123 -41 
Q 819 9 494 109 
L 494 744 
Q 775 591 1075 516 
Q 1375 441 1709 441 
Q 2250 441 2565 725 
Q 2881 1009 2881 1497 
Q 2881 1984 2565 2268 
Q 2250 2553 1709 2553 
Q 1456 2553 1204 2497 
Q 953 2441 691 2322 
L 691 4666 
z
" id="DejaVuSans-35" transform="scale(0.015625)"/>
       </defs>
       <use xlink:href="#DejaVuSans-2212"/>
       <use x="83.789062" xlink:href="#DejaVuSans-31"/>
       <use x="147.412109" xlink:href="#DejaVuSans-2e"/>
       <use x="179.199219" xlink:href="#DejaVuSans-35"/>
      </g>
     </g>
    </g>
    <g id="ytick_9">
     <g id="line2d_32">
      <path clip-path="url(#p189dffddfb)" d="M 55.064375 344.810919 
L 412.901875 344.810919 
" style="fill:none;stroke:#ffffff;stroke-linecap:round;stroke-width:0.8;"/>
     </g>
     <g id="text_31">
      <!-- −1.0 -->
      <g style="fill:#262626;" transform="translate(23.781563 348.610138)scale(0.1 -0.1)">
       <use xlink:href="#DejaVuSans-2212"/>
       <use x="83.789062" xlink:href="#DejaVuSans-31"/>
       <use x="147.412109" xlink:href="#DejaVuSans-2e"/>
       <use x="179.199219" xlink:href="#DejaVuSans-30"/>
      </g>
     </g>
    </g>
    <g id="ytick_10">
     <g id="line2d_33">
      <path clip-path="url(#p189dffddfb)" d="M 55.064375 323.09974 
L 412.901875 323.09974 
" style="fill:none;stroke:#ffffff;stroke-linecap:round;stroke-width:0.8;"/>
     </g>
     <g id="text_32">
      <!-- −0.5 -->
      <g style="fill:#262626;" transform="translate(23.781563 326.898959)scale(0.1 -0.1)">
       <use xlink:href="#DejaVuSans-2212"/>
       <use x="83.789062" xlink:href="#DejaVuSans-30"/>
       <use x="147.412109" xlink:href="#DejaVuSans-2e"/>
       <use x="179.199219" xlink:href="#DejaVuSans-35"/>
      </g>
     </g>
    </g>
    <g id="ytick_11">
     <g id="line2d_34">
      <path clip-path="url(#p189dffddfb)" d="M 55.064375 301.388562 
L 412.901875 301.388562 
" style="fill:none;stroke:#ffffff;stroke-linecap:round;stroke-width:0.8;"/>
     </g>
     <g id="text_33">
      <!-- 0.0 -->
      <g style="fill:#262626;" transform="translate(32.16125 305.18778)scale(0.1 -0.1)">
       <use xlink:href="#DejaVuSans-30"/>
       <use x="63.623047" xlink:href="#DejaVuSans-2e"/>
       <use x="95.410156" xlink:href="#DejaVuSans-30"/>
      </g>
     </g>
    </g>
    <g id="ytick_12">
     <g id="line2d_35">
      <path clip-path="url(#p189dffddfb)" d="M 55.064375 279.677383 
L 412.901875 279.677383 
" style="fill:none;stroke:#ffffff;stroke-linecap:round;stroke-width:0.8;"/>
     </g>
     <g id="text_34">
      <!-- 0.5 -->
      <g style="fill:#262626;" transform="translate(32.16125 283.476602)scale(0.1 -0.1)">
       <use xlink:href="#DejaVuSans-30"/>
       <use x="63.623047" xlink:href="#DejaVuSans-2e"/>
       <use x="95.410156" xlink:href="#DejaVuSans-35"/>
      </g>
     </g>
    </g>
    <g id="ytick_13">
     <g id="line2d_36">
      <path clip-path="url(#p189dffddfb)" d="M 55.064375 257.966204 
L 412.901875 257.966204 
" style="fill:none;stroke:#ffffff;stroke-linecap:round;stroke-width:0.8;"/>
     </g>
     <g id="text_35">
      <!-- 1.0 -->
      <g style="fill:#262626;" transform="translate(32.16125 261.765423)scale(0.1 -0.1)">
       <use xlink:href="#DejaVuSans-31"/>
       <use x="63.623047" xlink:href="#DejaVuSans-2e"/>
       <use x="95.410156" xlink:href="#DejaVuSans-30"/>
      </g>
     </g>
    </g>
    <g id="ytick_14">
     <g id="line2d_37">
      <path clip-path="url(#p189dffddfb)" d="M 55.064375 236.255025 
L 412.901875 236.255025 
" style="fill:none;stroke:#ffffff;stroke-linecap:round;stroke-width:0.8;"/>
     </g>
     <g id="text_36">
      <!-- 1.5 -->
      <g style="fill:#262626;" transform="translate(32.16125 240.054244)scale(0.1 -0.1)">
       <use xlink:href="#DejaVuSans-31"/>
       <use x="63.623047" xlink:href="#DejaVuSans-2e"/>
       <use x="95.410156" xlink:href="#DejaVuSans-35"/>
      </g>
     </g>
    </g>
    <g id="text_37">
     <!-- $y$ -->
     <g style="fill:#262626;" transform="translate(17.051563 311.718125)rotate(-90)scale(0.13 -0.13)">
      <use transform="translate(0 0.3125)" xlink:href="#DejaVuSans-Oblique-79"/>
     </g>
    </g>
   </g>
   <g id="line2d_38">
    <path clip-path="url(#p189dffddfb)" d="M 55.064375 254.266989 
L 59.900017 259.419058 
L 64.735659 265.513633 
L 69.571301 272.400847 
L 74.406943 279.79054 
L 79.242584 287.30509 
L 84.078226 294.544149 
L 88.913868 301.14255 
L 93.74951 306.807396 
L 98.585152 311.33121 
L 103.420794 314.589713 
L 108.256436 316.539446 
L 113.092078 317.227221 
L 117.92772 316.812491 
L 122.763361 315.590825 
L 127.599003 313.999069 
L 132.434645 312.584498 
L 137.270287 311.930836 
L 142.105929 312.549543 
L 146.941571 314.759386 
L 151.777213 318.586536 
L 156.612855 323.718138 
L 161.448497 329.533186 
L 166.284139 335.215556 
L 171.11978 339.929081 
L 175.955422 343.010185 
L 180.791064 344.120168 
L 185.626706 343.305514 
L 190.462348 340.94274 
L 195.29799 337.585784 
L 200.133632 333.771737 
L 204.969274 329.857046 
L 209.804916 325.941915 
L 214.640557 321.901745 
L 219.476199 317.499454 
L 224.311841 312.522475 
L 229.147483 306.887122 
L 233.983125 300.675867 
L 238.818767 294.109054 
L 243.654409 287.47803 
L 248.490051 281.076647 
L 253.325693 275.156595 
L 258.161334 269.913927 
L 262.996976 265.497179 
L 267.832618 262.022214 
L 272.66826 259.57998 
L 277.503902 258.236409 
L 282.339544 258.026445 
L 287.175186 258.952515 
L 292.010828 260.987359 
L 296.84647 264.079902 
L 301.682111 268.156553 
L 306.517753 273.115102 
L 311.353395 278.816832 
L 316.189037 285.089221 
L 321.024679 291.748347 
L 325.860321 298.637565 
L 330.695963 305.660864 
L 335.531605 312.782185 
L 340.367247 319.973037 
L 345.202889 327.119491 
L 350.03853 333.931545 
L 354.874172 339.912932 
L 359.709814 344.43397 
L 364.545456 346.906781 
L 369.381098 347.009932 
L 374.21674 344.875451 
L 379.052382 341.154393 
L 383.888024 336.91971 
L 388.723666 333.428083 
L 393.559307 331.817139 
L 398.394949 332.835988 
L 403.230591 336.688067 
L 408.066233 343.017281 
L 412.901875 351.015734 
" style="fill:none;stroke:#1f77b4;stroke-linecap:round;stroke-width:1.5;"/>
   </g>
   <g id="line2d_39">
    <path clip-path="url(#p189dffddfb)" d="M 55.064375 328.031981 
L 59.900017 324.337904 
L 64.735659 320.849583 
L 69.571301 316.844618 
L 74.406943 311.79292 
L 79.242584 305.57771 
L 84.078226 298.584688 
L 88.913868 291.638276 
L 93.74951 285.812896 
L 98.585152 282.180073 
L 103.420794 281.560345 
L 108.256436 284.336715 
L 113.092078 290.364202 
L 117.92772 298.986357 
L 122.763361 309.148753 
L 127.599003 319.582184 
L 132.434645 329.016203 
L 137.270287 336.379886 
L 142.105929 340.953741 
L 146.941571 342.452947 
L 151.777213 341.040109 
L 156.612855 337.277817 
L 161.448497 332.033301 
L 166.284139 326.343985 
L 171.11978 321.251886 
L 175.955422 317.622517 
L 180.791064 315.978467 
L 185.626706 316.389117 
L 190.462348 318.454631 
L 195.29799 321.400579 
L 200.133632 324.264724 
L 204.969274 326.124929 
L 209.804916 326.301423 
L 214.640557 324.47664 
L 219.476199 320.706806 
L 224.311841 315.33831 
L 229.147483 308.871968 
L 233.983125 301.827663 
L 238.818767 294.650088 
L 243.654409 287.671065 
L 248.490051 281.119801 
L 253.325693 275.157265 
L 258.161334 269.911082 
L 262.996976 265.49687 
L 267.832618 262.022065 
L 272.66826 259.579789 
L 277.503902 258.238814 
L 282.339544 258.036071 
L 287.175186 258.973903 
L 292.010828 261.02108 
L 296.84647 264.117314 
L 301.682111 268.179254 
L 306.517753 273.106758 
L 311.353395 278.785916 
L 316.189037 285.085654 
L 321.024679 291.847004 
L 325.860321 298.869194 
L 330.695963 305.902029 
L 335.531605 312.657138 
L 340.367247 318.845344 
L 345.202889 324.23621 
L 350.03853 328.721694 
L 354.874172 332.357578 
L 359.709814 335.360143 
L 364.545456 338.052082 
L 369.381098 340.77349 
L 374.21674 343.789961 
L 379.052382 347.231914 
L 383.888024 351.085535 
L 388.723666 355.233088 
L 393.559307 359.519323 
L 398.394949 363.810761 
L 403.230591 368.019834 
L 408.066233 372.083533 
L 412.901875 375.909034 
" style="fill:none;stroke:#ff7f0e;stroke-linecap:round;stroke-width:1.5;"/>
   </g>
   <g id="line2d_40">
    <path clip-path="url(#p189dffddfb)" d="M 55.064375 262.208382 
L 59.900017 252.192561 
L 64.735659 244.685932 
L 69.571301 240.425167 
L 74.406943 239.727216 
L 79.242584 242.49879 
L 84.078226 248.322057 
L 88.913868 256.578173 
L 93.74951 266.563321 
L 98.585152 277.565481 
L 103.420794 288.895417 
L 108.256436 299.890202 
L 113.092078 309.919749 
L 117.92772 318.420446 
L 122.763361 324.960454 
L 127.599003 329.318356 
L 132.434645 331.544266 
L 137.270287 331.974994 
L 142.105929 331.19111 
L 146.941571 329.924002 
L 151.777213 328.935846 
L 156.612855 328.898226 
L 161.448497 330.288721 
L 166.284139 333.315129 
L 171.11978 337.872063 
L 175.955422 343.535777 
L 180.791064 349.605835 
L 185.626706 355.199856 
L 190.462348 359.395691 
L 195.29799 361.397792 
L 200.133632 360.689721 
L 204.969274 357.131728 
L 209.804916 350.974868 
L 214.640557 342.78764 
L 219.476199 333.317715 
L 224.311841 323.330291 
L 229.147483 313.469143 
L 233.983125 304.174884 
L 238.818767 295.673519 
L 243.654409 288.024179 
L 248.490051 281.198597 
L 253.325693 275.158451 
L 258.161334 269.90573 
L 262.996976 265.496156 
L 267.832618 262.021794 
L 272.66826 259.579373 
L 277.503902 258.242188 
L 282.339544 258.045532 
L 287.175186 258.986113 
L 292.010828 261.029825 
L 296.84647 264.119331 
L 301.682111 268.177658 
L 306.517753 273.107899 
L 311.353395 278.791319 
L 316.189037 285.086337 
L 321.024679 291.827422 
L 325.860321 298.823683 
L 330.695963 305.856595 
L 335.531605 312.678909 
L 340.367247 319.016555 
L 345.202889 324.575111 
L 350.03853 329.050761 
L 354.874172 332.145513 
L 359.709814 333.586134 
L 364.545456 333.145946 
L 369.381098 330.667576 
L 374.21674 326.083869 
L 379.052382 319.434709 
L 383.888024 310.879479 
L 388.723666 300.705619 
L 393.559307 289.332803 
L 398.394949 277.308161 
L 403.230591 265.284553 
L 408.066233 253.973765 
L 412.901875 244.072068 
" style="fill:none;stroke:#2ca02c;stroke-linecap:round;stroke-width:1.5;"/>
   </g>
   <g id="line2d_41">
    <path clip-path="url(#p189dffddfb)" d="M 55.064375 321.276369 
L 59.900017 318.873724 
L 64.735659 314.379815 
L 69.571301 308.389963 
L 74.406943 301.500532 
L 79.242584 294.223924 
L 84.078226 286.941962 
L 88.913868 279.905544 
L 93.74951 273.276532 
L 98.585152 267.195686 
L 103.420794 261.852223 
L 108.256436 257.529449 
L 113.092078 254.608576 
L 117.92772 253.525759 
L 122.763361 254.691377 
L 127.599003 258.390772 
L 132.434645 264.690867 
L 137.270287 273.377077 
L 142.105929 283.941101 
L 146.941571 295.631378 
L 151.777213 307.563942 
L 156.612855 318.872901 
L 161.448497 328.86256 
L 166.284139 337.115792 
L 171.11978 343.522631 
L 175.955422 348.218788 
L 180.791064 351.457455 
L 185.626706 353.463757 
L 190.462348 354.328005 
L 195.29799 353.976674 
L 200.133632 352.226787 
L 204.969274 348.895104 
L 209.804916 343.912984 
L 214.640557 337.399629 
L 219.476199 329.667513 
L 224.311841 321.163545 
L 229.147483 312.373758 
L 233.983125 303.729503 
L 238.818767 295.546383 
L 243.654409 288.010005 
L 248.490051 281.20368 
L 253.325693 275.15867 
L 258.161334 269.903863 
L 262.996976 265.495806 
L 267.832618 262.021594 
L 272.66826 259.578924 
L 277.503902 258.247233 
L 282.339544 258.065086 
L 287.175186 259.023725 
L 292.010828 261.077142 
L 296.84647 264.159121 
L 301.682111 268.195437 
L 306.517753 273.103198 
L 311.353395 278.779165 
L 316.189037 285.085393 
L 321.024679 291.843339 
L 325.860321 298.842234 
L 330.695963 305.859412 
L 335.531605 312.685226 
L 340.367247 319.144464 
L 345.202889 325.110291 
L 350.03853 330.509928 
L 354.874172 335.321263 
L 359.709814 339.556269 
L 364.545456 343.225853 
L 369.381098 346.285759 
L 374.21674 348.574667 
L 379.052382 349.768313 
L 383.888024 349.378565 
L 388.723666 346.818916 
L 393.559307 341.537576 
L 398.394949 333.193982 
L 403.230591 321.833568 
L 408.066233 308.007288 
L 412.901875 292.790666 
" style="fill:none;stroke:#d62728;stroke-linecap:round;stroke-width:1.5;"/>
   </g>
   <g id="line2d_42">
    <path clip-path="url(#p189dffddfb)" d="M 55.064375 314.694964 
L 59.900017 314.862753 
L 64.735659 315.956319 
L 69.571301 317.623831 
L 74.406943 319.2761 
L 79.242584 320.26782 
L 84.078226 320.106216 
L 88.913868 318.60998 
L 93.74951 315.966516 
L 98.585152 312.678576 
L 103.420794 309.432426 
L 108.256436 306.940946 
L 113.092078 305.809133 
L 117.92772 306.444914 
L 122.763361 309.010439 
L 127.599003 313.394593 
L 132.434645 319.192078 
L 137.270287 325.694281 
L 142.105929 331.917776 
L 146.941571 336.702303 
L 151.777213 338.894068 
L 156.612855 337.594712 
L 161.448497 332.41773 
L 166.284139 323.670667 
L 171.11978 312.388098 
L 175.955422 300.178449 
L 180.791064 288.905452 
L 185.626706 280.28097 
L 190.462348 275.479114 
L 195.29799 274.879194 
L 200.133632 278.007693 
L 204.969274 283.68993 
L 209.804916 290.361202 
L 214.640557 296.443618 
L 219.476199 300.683433 
L 224.311841 302.364519 
L 229.147483 301.359136 
L 233.983125 298.030159 
L 238.818767 293.040186 
L 243.654409 287.141458 
L 248.490051 281.009543 
L 253.325693 275.155699 
L 258.161334 269.917135 
L 262.996976 265.497502 
L 267.832618 262.022228 
L 272.66826 259.579982 
L 277.503902 258.238194 
L 282.339544 258.03858 
L 287.175186 258.986193 
L 292.010828 261.044624 
L 296.84647 264.143632 
L 301.682111 268.194135 
L 306.517753 273.101804 
L 311.353395 278.769443 
L 316.189037 285.083913 
L 321.024679 291.891268 
L 325.860321 298.968843 
L 330.695963 306.005727 
L 335.531605 312.600745 
L 340.367247 318.283063 
L 345.202889 322.555828 
L 350.03853 324.959463 
L 354.874172 325.14747 
L 359.709814 322.963382 
L 364.545456 318.503028 
L 369.381098 312.143579 
L 374.21674 304.523727 
L 379.052382 296.469734 
L 383.888024 288.878277 
L 388.723666 282.582957 
L 393.559307 278.238728 
L 398.394949 276.252297 
L 403.230591 276.76851 
L 408.066233 279.701729 
L 412.901875 284.78759 
" style="fill:none;stroke:#9467bd;stroke-linecap:round;stroke-width:1.5;"/>
   </g>
   <g id="patch_10">
    <path d="M 55.064375 382.718125 
L 55.064375 232.918125 
" style="fill:none;stroke:#ffffff;stroke-linecap:square;stroke-linejoin:miter;stroke-width:0.8;"/>
   </g>
   <g id="patch_11">
    <path d="M 412.901875 382.718125 
L 412.901875 232.918125 
" style="fill:none;stroke:#ffffff;stroke-linecap:square;stroke-linejoin:miter;stroke-width:0.8;"/>
   </g>
   <g id="patch_12">
    <path d="M 55.064375 382.718125 
L 412.901875 382.718125 
" style="fill:none;stroke:#ffffff;stroke-linecap:square;stroke-linejoin:miter;stroke-width:0.8;"/>
   </g>
   <g id="patch_13">
    <path d="M 55.064375 232.918125 
L 412.901875 232.918125 
" style="fill:none;stroke:#ffffff;stroke-linecap:square;stroke-linejoin:miter;stroke-width:0.8;"/>
   </g>
   <g id="text_38">
    <!-- 5 different function realizations from posterior -->
    <g style="fill:#262626;" transform="translate(95.192813 226.918125)scale(0.12 -0.12)">
     <defs>
      <path d="M 3122 3366 
L 3122 2828 
Q 2878 2963 2633 3030 
Q 2388 3097 2138 3097 
Q 1578 3097 1268 2742 
Q 959 2388 959 1747 
Q 959 1106 1268 751 
Q 1578 397 2138 397 
Q 2388 397 2633 464 
Q 2878 531 3122 666 
L 3122 134 
Q 2881 22 2623 -34 
Q 2366 -91 2075 -91 
Q 1284 -91 818 406 
Q 353 903 353 1747 
Q 353 2603 823 3093 
Q 1294 3584 2113 3584 
Q 2378 3584 2631 3529 
Q 2884 3475 3122 3366 
z
" id="DejaVuSans-63" transform="scale(0.015625)"/>
      <path d="M 603 4863 
L 1178 4863 
L 1178 0 
L 603 0 
L 603 4863 
z
" id="DejaVuSans-6c" transform="scale(0.015625)"/>
      <path d="M 353 3500 
L 3084 3500 
L 3084 2975 
L 922 459 
L 3084 459 
L 3084 0 
L 275 0 
L 275 525 
L 2438 3041 
L 353 3041 
L 353 3500 
z
" id="DejaVuSans-7a" transform="scale(0.015625)"/>
      <path d="M 3328 2828 
Q 3544 3216 3844 3400 
Q 4144 3584 4550 3584 
Q 5097 3584 5394 3201 
Q 5691 2819 5691 2113 
L 5691 0 
L 5113 0 
L 5113 2094 
Q 5113 2597 4934 2840 
Q 4756 3084 4391 3084 
Q 3944 3084 3684 2787 
Q 3425 2491 3425 1978 
L 3425 0 
L 2847 0 
L 2847 2094 
Q 2847 2600 2669 2842 
Q 2491 3084 2119 3084 
Q 1678 3084 1418 2786 
Q 1159 2488 1159 1978 
L 1159 0 
L 581 0 
L 581 3500 
L 1159 3500 
L 1159 2956 
Q 1356 3278 1631 3431 
Q 1906 3584 2284 3584 
Q 2666 3584 2933 3390 
Q 3200 3197 3328 2828 
z
" id="DejaVuSans-6d" transform="scale(0.015625)"/>
     </defs>
     <use xlink:href="#DejaVuSans-35"/>
     <use x="63.623047" xlink:href="#DejaVuSans-20"/>
     <use x="95.410156" xlink:href="#DejaVuSans-64"/>
     <use x="158.886719" xlink:href="#DejaVuSans-69"/>
     <use x="186.669922" xlink:href="#DejaVuSans-66"/>
     <use x="221.875" xlink:href="#DejaVuSans-66"/>
     <use x="257.080078" xlink:href="#DejaVuSans-65"/>
     <use x="318.603516" xlink:href="#DejaVuSans-72"/>
     <use x="357.466797" xlink:href="#DejaVuSans-65"/>
     <use x="418.990234" xlink:href="#DejaVuSans-6e"/>
     <use x="482.369141" xlink:href="#DejaVuSans-74"/>
     <use x="521.578125" xlink:href="#DejaVuSans-20"/>
     <use x="553.365234" xlink:href="#DejaVuSans-66"/>
     <use x="588.570312" xlink:href="#DejaVuSans-75"/>
     <use x="651.949219" xlink:href="#DejaVuSans-6e"/>
     <use x="715.328125" xlink:href="#DejaVuSans-63"/>
     <use x="770.308594" xlink:href="#DejaVuSans-74"/>
     <use x="809.517578" xlink:href="#DejaVuSans-69"/>
     <use x="837.300781" xlink:href="#DejaVuSans-6f"/>
     <use x="898.482422" xlink:href="#DejaVuSans-6e"/>
     <use x="961.861328" xlink:href="#DejaVuSans-20"/>
     <use x="993.648438" xlink:href="#DejaVuSans-72"/>
     <use x="1032.511719" xlink:href="#DejaVuSans-65"/>
     <use x="1094.035156" xlink:href="#DejaVuSans-61"/>
     <use x="1155.314453" xlink:href="#DejaVuSans-6c"/>
     <use x="1183.097656" xlink:href="#DejaVuSans-69"/>
     <use x="1210.880859" xlink:href="#DejaVuSans-7a"/>
     <use x="1263.371094" xlink:href="#DejaVuSans-61"/>
     <use x="1324.650391" xlink:href="#DejaVuSans-74"/>
     <use x="1363.859375" xlink:href="#DejaVuSans-69"/>
     <use x="1391.642578" xlink:href="#DejaVuSans-6f"/>
     <use x="1452.824219" xlink:href="#DejaVuSans-6e"/>
     <use x="1516.203125" xlink:href="#DejaVuSans-73"/>
     <use x="1568.302734" xlink:href="#DejaVuSans-20"/>
     <use x="1600.089844" xlink:href="#DejaVuSans-66"/>
     <use x="1635.294922" xlink:href="#DejaVuSans-72"/>
     <use x="1674.158203" xlink:href="#DejaVuSans-6f"/>
     <use x="1735.339844" xlink:href="#DejaVuSans-6d"/>
     <use x="1832.751953" xlink:href="#DejaVuSans-20"/>
     <use x="1864.539062" xlink:href="#DejaVuSans-70"/>
     <use x="1928.015625" xlink:href="#DejaVuSans-6f"/>
     <use x="1989.197266" xlink:href="#DejaVuSans-73"/>
     <use x="2041.296875" xlink:href="#DejaVuSans-74"/>
     <use x="2080.505859" xlink:href="#DejaVuSans-65"/>
     <use x="2142.029297" xlink:href="#DejaVuSans-72"/>
     <use x="2183.142578" xlink:href="#DejaVuSans-69"/>
     <use x="2210.925781" xlink:href="#DejaVuSans-6f"/>
     <use x="2272.107422" xlink:href="#DejaVuSans-72"/>
    </g>
   </g>
  </g>
 </g>
 <defs>
  <clipPath id="pac8fce3dc6">
   <rect height="149.8" width="357.8375" x="55.064375" y="22.318125"/>
  </clipPath>
  <clipPath id="p189dffddfb">
   <rect height="149.8" width="357.8375" x="55.064375" y="232.918125"/>
  </clipPath>
 </defs>
</svg>
