<?xml version="1.0" encoding="utf-8" standalone="no"?>
<!DOCTYPE svg PUBLIC "-//W3C//DTD SVG 1.1//EN"
  "http://www.w3.org/Graphics/SVG/1.1/DTD/svg11.dtd">
<svg height="220.457813pt" version="1.1" viewBox="0 0 336.094375 220.457813" width="336.094375pt" xmlns="http://www.w3.org/2000/svg" xmlns:xlink="http://www.w3.org/1999/xlink">
 <metadata>
  <rdf:RDF xmlns:cc="http://creativecommons.org/ns#" xmlns:dc="http://purl.org/dc/elements/1.1/" xmlns:rdf="http://www.w3.org/1999/02/22-rdf-syntax-ns#">
   <cc:Work>
    <dc:type rdf:resource="http://purl.org/dc/dcmitype/StillImage"/>
    <dc:date>2021-08-24T13:38:41.038962</dc:date>
    <dc:format>image/svg+xml</dc:format>
    <dc:creator>
     <cc:Agent>
      <dc:title>Matplotlib v3.4.3, https://matplotlib.org/</dc:title>
     </cc:Agent>
    </dc:creator>
   </cc:Work>
  </rdf:RDF>
 </metadata>
 <defs>
  <style type="text/css">*{stroke-linecap:butt;stroke-linejoin:round;}</style>
 </defs>
 <g id="figure_1">
  <g id="patch_1">
   <path d="M 0 220.457813 
L 336.094375 220.457813 
L 336.094375 0 
L 0 0 
z
" style="fill:#ffffff;"/>
  </g>
  <g id="axes_1">
   <g id="patch_2">
    <path d="M 46.713125 179.998125 
L 325.713125 179.998125 
L 325.713125 22.318125 
L 46.713125 22.318125 
z
" style="fill:#eaeaf2;"/>
   </g>
   <g id="matplotlib.axis_1">
    <g id="xtick_1">
     <g id="line2d_1">
      <path clip-path="url(#pbfcec86228)" d="M 46.713125 179.998125 
L 46.713125 22.318125 
" style="fill:none;stroke:#ffffff;stroke-linecap:round;stroke-width:0.8;"/>
     </g>
     <g id="text_1">
      <!-- −3 -->
      <g style="fill:#262626;" transform="translate(39.342031 194.596563)scale(0.1 -0.1)">
       <defs>
        <path d="M 678 2272 
L 4684 2272 
L 4684 1741 
L 678 1741 
L 678 2272 
z
" id="DejaVuSans-2212" transform="scale(0.015625)"/>
        <path d="M 2597 2516 
Q 3050 2419 3304 2112 
Q 3559 1806 3559 1356 
Q 3559 666 3084 287 
Q 2609 -91 1734 -91 
Q 1441 -91 1130 -33 
Q 819 25 488 141 
L 488 750 
Q 750 597 1062 519 
Q 1375 441 1716 441 
Q 2309 441 2620 675 
Q 2931 909 2931 1356 
Q 2931 1769 2642 2001 
Q 2353 2234 1838 2234 
L 1294 2234 
L 1294 2753 
L 1863 2753 
Q 2328 2753 2575 2939 
Q 2822 3125 2822 3475 
Q 2822 3834 2567 4026 
Q 2313 4219 1838 4219 
Q 1578 4219 1281 4162 
Q 984 4106 628 3988 
L 628 4550 
Q 988 4650 1302 4700 
Q 1616 4750 1894 4750 
Q 2613 4750 3031 4423 
Q 3450 4097 3450 3541 
Q 3450 3153 3228 2886 
Q 3006 2619 2597 2516 
z
" id="DejaVuSans-33" transform="scale(0.015625)"/>
       </defs>
       <use xlink:href="#DejaVuSans-2212"/>
       <use x="83.789062" xlink:href="#DejaVuSans-33"/>
      </g>
     </g>
    </g>
    <g id="xtick_2">
     <g id="line2d_2">
      <path clip-path="url(#pbfcec86228)" d="M 81.588125 179.998125 
L 81.588125 22.318125 
" style="fill:none;stroke:#ffffff;stroke-linecap:round;stroke-width:0.8;"/>
     </g>
     <g id="text_2">
      <!-- −2 -->
      <g style="fill:#262626;" transform="translate(74.217031 194.596563)scale(0.1 -0.1)">
       <defs>
        <path d="M 1228 531 
L 3431 531 
L 3431 0 
L 469 0 
L 469 531 
Q 828 903 1448 1529 
Q 2069 2156 2228 2338 
Q 2531 2678 2651 2914 
Q 2772 3150 2772 3378 
Q 2772 3750 2511 3984 
Q 2250 4219 1831 4219 
Q 1534 4219 1204 4116 
Q 875 4013 500 3803 
L 500 4441 
Q 881 4594 1212 4672 
Q 1544 4750 1819 4750 
Q 2544 4750 2975 4387 
Q 3406 4025 3406 3419 
Q 3406 3131 3298 2873 
Q 3191 2616 2906 2266 
Q 2828 2175 2409 1742 
Q 1991 1309 1228 531 
z
" id="DejaVuSans-32" transform="scale(0.015625)"/>
       </defs>
       <use xlink:href="#DejaVuSans-2212"/>
       <use x="83.789062" xlink:href="#DejaVuSans-32"/>
      </g>
     </g>
    </g>
    <g id="xtick_3">
     <g id="line2d_3">
      <path clip-path="url(#pbfcec86228)" d="M 116.463125 179.998125 
L 116.463125 22.318125 
" style="fill:none;stroke:#ffffff;stroke-linecap:round;stroke-width:0.8;"/>
     </g>
     <g id="text_3">
      <!-- −1 -->
      <g style="fill:#262626;" transform="translate(109.092031 194.596563)scale(0.1 -0.1)">
       <defs>
        <path d="M 794 531 
L 1825 531 
L 1825 4091 
L 703 3866 
L 703 4441 
L 1819 4666 
L 2450 4666 
L 2450 531 
L 3481 531 
L 3481 0 
L 794 0 
L 794 531 
z
" id="DejaVuSans-31" transform="scale(0.015625)"/>
       </defs>
       <use xlink:href="#DejaVuSans-2212"/>
       <use x="83.789062" xlink:href="#DejaVuSans-31"/>
      </g>
     </g>
    </g>
    <g id="xtick_4">
     <g id="line2d_4">
      <path clip-path="url(#pbfcec86228)" d="M 151.338125 179.998125 
L 151.338125 22.318125 
" style="fill:none;stroke:#ffffff;stroke-linecap:round;stroke-width:0.8;"/>
     </g>
     <g id="text_4">
      <!-- 0 -->
      <g style="fill:#262626;" transform="translate(148.156875 194.596563)scale(0.1 -0.1)">
       <defs>
        <path d="M 2034 4250 
Q 1547 4250 1301 3770 
Q 1056 3291 1056 2328 
Q 1056 1369 1301 889 
Q 1547 409 2034 409 
Q 2525 409 2770 889 
Q 3016 1369 3016 2328 
Q 3016 3291 2770 3770 
Q 2525 4250 2034 4250 
z
M 2034 4750 
Q 2819 4750 3233 4129 
Q 3647 3509 3647 2328 
Q 3647 1150 3233 529 
Q 2819 -91 2034 -91 
Q 1250 -91 836 529 
Q 422 1150 422 2328 
Q 422 3509 836 4129 
Q 1250 4750 2034 4750 
z
" id="DejaVuSans-30" transform="scale(0.015625)"/>
       </defs>
       <use xlink:href="#DejaVuSans-30"/>
      </g>
     </g>
    </g>
    <g id="xtick_5">
     <g id="line2d_5">
      <path clip-path="url(#pbfcec86228)" d="M 186.213125 179.998125 
L 186.213125 22.318125 
" style="fill:none;stroke:#ffffff;stroke-linecap:round;stroke-width:0.8;"/>
     </g>
     <g id="text_5">
      <!-- 1 -->
      <g style="fill:#262626;" transform="translate(183.031875 194.596563)scale(0.1 -0.1)">
       <use xlink:href="#DejaVuSans-31"/>
      </g>
     </g>
    </g>
    <g id="xtick_6">
     <g id="line2d_6">
      <path clip-path="url(#pbfcec86228)" d="M 221.088125 179.998125 
L 221.088125 22.318125 
" style="fill:none;stroke:#ffffff;stroke-linecap:round;stroke-width:0.8;"/>
     </g>
     <g id="text_6">
      <!-- 2 -->
      <g style="fill:#262626;" transform="translate(217.906875 194.596563)scale(0.1 -0.1)">
       <use xlink:href="#DejaVuSans-32"/>
      </g>
     </g>
    </g>
    <g id="xtick_7">
     <g id="line2d_7">
      <path clip-path="url(#pbfcec86228)" d="M 255.963125 179.998125 
L 255.963125 22.318125 
" style="fill:none;stroke:#ffffff;stroke-linecap:round;stroke-width:0.8;"/>
     </g>
     <g id="text_7">
      <!-- 3 -->
      <g style="fill:#262626;" transform="translate(252.781875 194.596563)scale(0.1 -0.1)">
       <use xlink:href="#DejaVuSans-33"/>
      </g>
     </g>
    </g>
    <g id="xtick_8">
     <g id="line2d_8">
      <path clip-path="url(#pbfcec86228)" d="M 290.838125 179.998125 
L 290.838125 22.318125 
" style="fill:none;stroke:#ffffff;stroke-linecap:round;stroke-width:0.8;"/>
     </g>
     <g id="text_8">
      <!-- 4 -->
      <g style="fill:#262626;" transform="translate(287.656875 194.596563)scale(0.1 -0.1)">
       <defs>
        <path d="M 2419 4116 
L 825 1625 
L 2419 1625 
L 2419 4116 
z
M 2253 4666 
L 3047 4666 
L 3047 1625 
L 3713 1625 
L 3713 1100 
L 3047 1100 
L 3047 0 
L 2419 0 
L 2419 1100 
L 313 1100 
L 313 1709 
L 2253 4666 
z
" id="DejaVuSans-34" transform="scale(0.015625)"/>
       </defs>
       <use xlink:href="#DejaVuSans-34"/>
      </g>
     </g>
    </g>
    <g id="xtick_9">
     <g id="line2d_9">
      <path clip-path="url(#pbfcec86228)" d="M 325.713125 179.998125 
L 325.713125 22.318125 
" style="fill:none;stroke:#ffffff;stroke-linecap:round;stroke-width:0.8;"/>
     </g>
     <g id="text_9">
      <!-- 5 -->
      <g style="fill:#262626;" transform="translate(322.531875 194.596563)scale(0.1 -0.1)">
       <defs>
        <path d="M 691 4666 
L 3169 4666 
L 3169 4134 
L 1269 4134 
L 1269 2991 
Q 1406 3038 1543 3061 
Q 1681 3084 1819 3084 
Q 2600 3084 3056 2656 
Q 3513 2228 3513 1497 
Q 3513 744 3044 326 
Q 2575 -91 1722 -91 
Q 1428 -91 1123 -41 
Q 819 9 494 109 
L 494 744 
Q 775 591 1075 516 
Q 1375 441 1709 441 
Q 2250 441 2565 725 
Q 2881 1009 2881 1497 
Q 2881 1984 2565 2268 
Q 2250 2553 1709 2553 
Q 1456 2553 1204 2497 
Q 953 2441 691 2322 
L 691 4666 
z
" id="DejaVuSans-35" transform="scale(0.015625)"/>
       </defs>
       <use xlink:href="#DejaVuSans-35"/>
      </g>
     </g>
    </g>
    <g id="text_10">
     <!-- $x$ -->
     <g style="fill:#262626;" transform="translate(182.313125 210.554219)scale(0.13 -0.13)">
      <defs>
       <path d="M 3841 3500 
L 2234 1784 
L 3219 0 
L 2559 0 
L 1819 1388 
L 531 0 
L -166 0 
L 1556 1844 
L 641 3500 
L 1300 3500 
L 1972 2234 
L 3144 3500 
L 3841 3500 
z
" id="DejaVuSans-Oblique-78" transform="scale(0.015625)"/>
      </defs>
      <use transform="translate(0 0.3125)" xlink:href="#DejaVuSans-Oblique-78"/>
     </g>
    </g>
   </g>
   <g id="matplotlib.axis_2">
    <g id="ytick_1">
     <g id="line2d_10">
      <path clip-path="url(#pbfcec86228)" d="M 46.713125 179.998125 
L 325.713125 179.998125 
" style="fill:none;stroke:#ffffff;stroke-linecap:round;stroke-width:0.8;"/>
     </g>
     <g id="text_11">
      <!-- 0.0 -->
      <g style="fill:#262626;" transform="translate(23.81 183.797344)scale(0.1 -0.1)">
       <defs>
        <path d="M 684 794 
L 1344 794 
L 1344 0 
L 684 0 
L 684 794 
z
" id="DejaVuSans-2e" transform="scale(0.015625)"/>
       </defs>
       <use xlink:href="#DejaVuSans-30"/>
       <use x="63.623047" xlink:href="#DejaVuSans-2e"/>
       <use x="95.410156" xlink:href="#DejaVuSans-30"/>
      </g>
     </g>
    </g>
    <g id="ytick_2">
     <g id="line2d_11">
      <path clip-path="url(#pbfcec86228)" d="M 46.713125 148.462125 
L 325.713125 148.462125 
" style="fill:none;stroke:#ffffff;stroke-linecap:round;stroke-width:0.8;"/>
     </g>
     <g id="text_12">
      <!-- 0.2 -->
      <g style="fill:#262626;" transform="translate(23.81 152.261344)scale(0.1 -0.1)">
       <use xlink:href="#DejaVuSans-30"/>
       <use x="63.623047" xlink:href="#DejaVuSans-2e"/>
       <use x="95.410156" xlink:href="#DejaVuSans-32"/>
      </g>
     </g>
    </g>
    <g id="ytick_3">
     <g id="line2d_12">
      <path clip-path="url(#pbfcec86228)" d="M 46.713125 116.926125 
L 325.713125 116.926125 
" style="fill:none;stroke:#ffffff;stroke-linecap:round;stroke-width:0.8;"/>
     </g>
     <g id="text_13">
      <!-- 0.4 -->
      <g style="fill:#262626;" transform="translate(23.81 120.725344)scale(0.1 -0.1)">
       <use xlink:href="#DejaVuSans-30"/>
       <use x="63.623047" xlink:href="#DejaVuSans-2e"/>
       <use x="95.410156" xlink:href="#DejaVuSans-34"/>
      </g>
     </g>
    </g>
    <g id="ytick_4">
     <g id="line2d_13">
      <path clip-path="url(#pbfcec86228)" d="M 46.713125 85.390125 
L 325.713125 85.390125 
" style="fill:none;stroke:#ffffff;stroke-linecap:round;stroke-width:0.8;"/>
     </g>
     <g id="text_14">
      <!-- 0.6 -->
      <g style="fill:#262626;" transform="translate(23.81 89.189344)scale(0.1 -0.1)">
       <defs>
        <path d="M 2113 2584 
Q 1688 2584 1439 2293 
Q 1191 2003 1191 1497 
Q 1191 994 1439 701 
Q 1688 409 2113 409 
Q 2538 409 2786 701 
Q 3034 994 3034 1497 
Q 3034 2003 2786 2293 
Q 2538 2584 2113 2584 
z
M 3366 4563 
L 3366 3988 
Q 3128 4100 2886 4159 
Q 2644 4219 2406 4219 
Q 1781 4219 1451 3797 
Q 1122 3375 1075 2522 
Q 1259 2794 1537 2939 
Q 1816 3084 2150 3084 
Q 2853 3084 3261 2657 
Q 3669 2231 3669 1497 
Q 3669 778 3244 343 
Q 2819 -91 2113 -91 
Q 1303 -91 875 529 
Q 447 1150 447 2328 
Q 447 3434 972 4092 
Q 1497 4750 2381 4750 
Q 2619 4750 2861 4703 
Q 3103 4656 3366 4563 
z
" id="DejaVuSans-36" transform="scale(0.015625)"/>
       </defs>
       <use xlink:href="#DejaVuSans-30"/>
       <use x="63.623047" xlink:href="#DejaVuSans-2e"/>
       <use x="95.410156" xlink:href="#DejaVuSans-36"/>
      </g>
     </g>
    </g>
    <g id="ytick_5">
     <g id="line2d_14">
      <path clip-path="url(#pbfcec86228)" d="M 46.713125 53.854125 
L 325.713125 53.854125 
" style="fill:none;stroke:#ffffff;stroke-linecap:round;stroke-width:0.8;"/>
     </g>
     <g id="text_15">
      <!-- 0.8 -->
      <g style="fill:#262626;" transform="translate(23.81 57.653344)scale(0.1 -0.1)">
       <defs>
        <path d="M 2034 2216 
Q 1584 2216 1326 1975 
Q 1069 1734 1069 1313 
Q 1069 891 1326 650 
Q 1584 409 2034 409 
Q 2484 409 2743 651 
Q 3003 894 3003 1313 
Q 3003 1734 2745 1975 
Q 2488 2216 2034 2216 
z
M 1403 2484 
Q 997 2584 770 2862 
Q 544 3141 544 3541 
Q 544 4100 942 4425 
Q 1341 4750 2034 4750 
Q 2731 4750 3128 4425 
Q 3525 4100 3525 3541 
Q 3525 3141 3298 2862 
Q 3072 2584 2669 2484 
Q 3125 2378 3379 2068 
Q 3634 1759 3634 1313 
Q 3634 634 3220 271 
Q 2806 -91 2034 -91 
Q 1263 -91 848 271 
Q 434 634 434 1313 
Q 434 1759 690 2068 
Q 947 2378 1403 2484 
z
M 1172 3481 
Q 1172 3119 1398 2916 
Q 1625 2713 2034 2713 
Q 2441 2713 2670 2916 
Q 2900 3119 2900 3481 
Q 2900 3844 2670 4047 
Q 2441 4250 2034 4250 
Q 1625 4250 1398 4047 
Q 1172 3844 1172 3481 
z
" id="DejaVuSans-38" transform="scale(0.015625)"/>
       </defs>
       <use xlink:href="#DejaVuSans-30"/>
       <use x="63.623047" xlink:href="#DejaVuSans-2e"/>
       <use x="95.410156" xlink:href="#DejaVuSans-38"/>
      </g>
     </g>
    </g>
    <g id="ytick_6">
     <g id="line2d_15">
      <path clip-path="url(#pbfcec86228)" d="M 46.713125 22.318125 
L 325.713125 22.318125 
" style="fill:none;stroke:#ffffff;stroke-linecap:round;stroke-width:0.8;"/>
     </g>
     <g id="text_16">
      <!-- 1.0 -->
      <g style="fill:#262626;" transform="translate(23.81 26.117344)scale(0.1 -0.1)">
       <use xlink:href="#DejaVuSans-31"/>
       <use x="63.623047" xlink:href="#DejaVuSans-2e"/>
       <use x="95.410156" xlink:href="#DejaVuSans-30"/>
      </g>
     </g>
    </g>
    <g id="text_17">
     <!-- density: $p(x)$ -->
     <g style="fill:#262626;" transform="translate(17.08 142.303125)rotate(-90)scale(0.13 -0.13)">
      <defs>
       <path d="M 2906 2969 
L 2906 4863 
L 3481 4863 
L 3481 0 
L 2906 0 
L 2906 525 
Q 2725 213 2448 61 
Q 2172 -91 1784 -91 
Q 1150 -91 751 415 
Q 353 922 353 1747 
Q 353 2572 751 3078 
Q 1150 3584 1784 3584 
Q 2172 3584 2448 3432 
Q 2725 3281 2906 2969 
z
M 947 1747 
Q 947 1113 1208 752 
Q 1469 391 1925 391 
Q 2381 391 2643 752 
Q 2906 1113 2906 1747 
Q 2906 2381 2643 2742 
Q 2381 3103 1925 3103 
Q 1469 3103 1208 2742 
Q 947 2381 947 1747 
z
" id="DejaVuSans-64" transform="scale(0.015625)"/>
       <path d="M 3597 1894 
L 3597 1613 
L 953 1613 
Q 991 1019 1311 708 
Q 1631 397 2203 397 
Q 2534 397 2845 478 
Q 3156 559 3463 722 
L 3463 178 
Q 3153 47 2828 -22 
Q 2503 -91 2169 -91 
Q 1331 -91 842 396 
Q 353 884 353 1716 
Q 353 2575 817 3079 
Q 1281 3584 2069 3584 
Q 2775 3584 3186 3129 
Q 3597 2675 3597 1894 
z
M 3022 2063 
Q 3016 2534 2758 2815 
Q 2500 3097 2075 3097 
Q 1594 3097 1305 2825 
Q 1016 2553 972 2059 
L 3022 2063 
z
" id="DejaVuSans-65" transform="scale(0.015625)"/>
       <path d="M 3513 2113 
L 3513 0 
L 2938 0 
L 2938 2094 
Q 2938 2591 2744 2837 
Q 2550 3084 2163 3084 
Q 1697 3084 1428 2787 
Q 1159 2491 1159 1978 
L 1159 0 
L 581 0 
L 581 3500 
L 1159 3500 
L 1159 2956 
Q 1366 3272 1645 3428 
Q 1925 3584 2291 3584 
Q 2894 3584 3203 3211 
Q 3513 2838 3513 2113 
z
" id="DejaVuSans-6e" transform="scale(0.015625)"/>
       <path d="M 2834 3397 
L 2834 2853 
Q 2591 2978 2328 3040 
Q 2066 3103 1784 3103 
Q 1356 3103 1142 2972 
Q 928 2841 928 2578 
Q 928 2378 1081 2264 
Q 1234 2150 1697 2047 
L 1894 2003 
Q 2506 1872 2764 1633 
Q 3022 1394 3022 966 
Q 3022 478 2636 193 
Q 2250 -91 1575 -91 
Q 1294 -91 989 -36 
Q 684 19 347 128 
L 347 722 
Q 666 556 975 473 
Q 1284 391 1588 391 
Q 1994 391 2212 530 
Q 2431 669 2431 922 
Q 2431 1156 2273 1281 
Q 2116 1406 1581 1522 
L 1381 1569 
Q 847 1681 609 1914 
Q 372 2147 372 2553 
Q 372 3047 722 3315 
Q 1072 3584 1716 3584 
Q 2034 3584 2315 3537 
Q 2597 3491 2834 3397 
z
" id="DejaVuSans-73" transform="scale(0.015625)"/>
       <path d="M 603 3500 
L 1178 3500 
L 1178 0 
L 603 0 
L 603 3500 
z
M 603 4863 
L 1178 4863 
L 1178 4134 
L 603 4134 
L 603 4863 
z
" id="DejaVuSans-69" transform="scale(0.015625)"/>
       <path d="M 1172 4494 
L 1172 3500 
L 2356 3500 
L 2356 3053 
L 1172 3053 
L 1172 1153 
Q 1172 725 1289 603 
Q 1406 481 1766 481 
L 2356 481 
L 2356 0 
L 1766 0 
Q 1100 0 847 248 
Q 594 497 594 1153 
L 594 3053 
L 172 3053 
L 172 3500 
L 594 3500 
L 594 4494 
L 1172 4494 
z
" id="DejaVuSans-74" transform="scale(0.015625)"/>
       <path d="M 2059 -325 
Q 1816 -950 1584 -1140 
Q 1353 -1331 966 -1331 
L 506 -1331 
L 506 -850 
L 844 -850 
Q 1081 -850 1212 -737 
Q 1344 -625 1503 -206 
L 1606 56 
L 191 3500 
L 800 3500 
L 1894 763 
L 2988 3500 
L 3597 3500 
L 2059 -325 
z
" id="DejaVuSans-79" transform="scale(0.015625)"/>
       <path d="M 750 794 
L 1409 794 
L 1409 0 
L 750 0 
L 750 794 
z
M 750 3309 
L 1409 3309 
L 1409 2516 
L 750 2516 
L 750 3309 
z
" id="DejaVuSans-3a" transform="scale(0.015625)"/>
       <path id="DejaVuSans-20" transform="scale(0.015625)"/>
       <path d="M 3175 2156 
Q 3175 2616 2975 2859 
Q 2775 3103 2400 3103 
Q 2144 3103 1911 2972 
Q 1678 2841 1497 2591 
Q 1319 2344 1212 1994 
Q 1106 1644 1106 1300 
Q 1106 863 1306 627 
Q 1506 391 1875 391 
Q 2147 391 2380 519 
Q 2613 647 2778 891 
Q 2956 1147 3065 1494 
Q 3175 1841 3175 2156 
z
M 1394 2969 
Q 1625 3272 1939 3428 
Q 2253 3584 2638 3584 
Q 3175 3584 3472 3232 
Q 3769 2881 3769 2247 
Q 3769 1728 3584 1258 
Q 3400 788 3053 416 
Q 2822 169 2531 39 
Q 2241 -91 1919 -91 
Q 1547 -91 1294 64 
Q 1041 219 916 525 
L 556 -1331 
L -19 -1331 
L 922 3500 
L 1497 3500 
L 1394 2969 
z
" id="DejaVuSans-Oblique-70" transform="scale(0.015625)"/>
       <path d="M 1984 4856 
Q 1566 4138 1362 3434 
Q 1159 2731 1159 2009 
Q 1159 1288 1364 580 
Q 1569 -128 1984 -844 
L 1484 -844 
Q 1016 -109 783 600 
Q 550 1309 550 2009 
Q 550 2706 781 3412 
Q 1013 4119 1484 4856 
L 1984 4856 
z
" id="DejaVuSans-28" transform="scale(0.015625)"/>
       <path d="M 513 4856 
L 1013 4856 
Q 1481 4119 1714 3412 
Q 1947 2706 1947 2009 
Q 1947 1309 1714 600 
Q 1481 -109 1013 -844 
L 513 -844 
Q 928 -128 1133 580 
Q 1338 1288 1338 2009 
Q 1338 2731 1133 3434 
Q 928 4138 513 4856 
z
" id="DejaVuSans-29" transform="scale(0.015625)"/>
      </defs>
      <use transform="translate(0 0.015625)" xlink:href="#DejaVuSans-64"/>
      <use transform="translate(63.476562 0.015625)" xlink:href="#DejaVuSans-65"/>
      <use transform="translate(125 0.015625)" xlink:href="#DejaVuSans-6e"/>
      <use transform="translate(188.378906 0.015625)" xlink:href="#DejaVuSans-73"/>
      <use transform="translate(240.478516 0.015625)" xlink:href="#DejaVuSans-69"/>
      <use transform="translate(268.261719 0.015625)" xlink:href="#DejaVuSans-74"/>
      <use transform="translate(307.470703 0.015625)" xlink:href="#DejaVuSans-79"/>
      <use transform="translate(366.650391 0.015625)" xlink:href="#DejaVuSans-3a"/>
      <use transform="translate(400.341797 0.015625)" xlink:href="#DejaVuSans-20"/>
      <use transform="translate(432.128906 0.015625)" xlink:href="#DejaVuSans-Oblique-70"/>
      <use transform="translate(495.605469 0.015625)" xlink:href="#DejaVuSans-28"/>
      <use transform="translate(534.619141 0.015625)" xlink:href="#DejaVuSans-Oblique-78"/>
      <use transform="translate(593.798828 0.015625)" xlink:href="#DejaVuSans-29"/>
     </g>
    </g>
   </g>
   <g id="line2d_16">
    <path clip-path="url(#pbfcec86228)" d="M 46.713125 179.299311 
L 49.531307 179.110505 
L 52.349489 178.878025 
L 55.16767 178.593856 
L 57.985852 178.249051 
L 60.804034 177.833762 
L 63.622216 177.337302 
L 66.440398 176.748254 
L 69.25858 176.05464 
L 72.076761 175.244134 
L 74.894943 174.304346 
L 77.713125 173.223161 
L 80.531307 171.989141 
L 83.349489 170.591974 
L 86.16767 169.022973 
L 88.985852 167.275602 
L 91.804034 165.346021 
L 94.622216 163.233616 
L 97.440398 160.941511 
L 100.25858 158.477011 
L 103.076761 155.851979 
L 105.894943 153.083088 
L 108.713125 150.191951 
L 111.531307 147.205094 
L 114.349489 144.153755 
L 117.16767 141.0735 
L 119.985852 138.003665 
L 122.804034 134.986608 
L 125.622216 132.066807 
L 128.440398 129.28981 
L 131.25858 126.701088 
L 134.076761 124.344811 
L 136.894943 122.262605 
L 139.713125 120.492338 
L 142.531307 119.06697 
L 145.349489 118.013539 
L 148.16767 117.352309 
L 150.985852 117.096115 
L 153.804034 117.249957 
L 156.622216 117.810831 
L 159.440398 118.76783 
L 162.25858 120.102497 
L 165.076761 121.789415 
L 167.894943 123.797013 
L 170.713125 126.088548 
L 173.531307 128.623222 
L 176.349489 131.357383 
L 179.16767 134.245771 
L 181.985852 137.242744 
L 184.804034 140.303455 
L 187.622216 143.384924 
L 190.440398 146.446986 
L 193.25858 149.453069 
L 196.076761 152.370811 
L 198.894943 155.172483 
L 201.713125 157.835235 
L 204.531307 160.341165 
L 207.349489 162.677226 
L 210.16767 164.835005 
L 212.985852 166.810373 
L 215.804034 168.603053 
L 218.622216 170.216129 
L 221.440398 171.655515 
L 224.25858 172.92941 
L 227.076761 174.047767 
L 229.894943 175.021788 
L 232.713125 175.863458 
L 235.531307 176.585132 
L 238.349489 177.19918 
L 241.16767 177.717691 
L 243.985852 178.15224 
L 246.804034 178.513709 
L 249.622216 178.812162 
L 252.440398 179.056777 
L 255.25858 179.255801 
L 258.076761 179.416556 
L 260.894943 179.545464 
L 263.713125 179.648092 
L 266.531307 179.729214 
L 269.349489 179.79288 
L 272.16767 179.842493 
L 274.985852 179.880881 
L 277.804034 179.910375 
L 280.622216 179.932877 
L 283.440398 179.949924 
L 286.25858 179.96275 
L 289.076761 179.972331 
L 291.894943 179.97944 
L 294.713125 179.984678 
L 297.531307 179.98851 
L 300.349489 179.991295 
L 303.16767 179.993305 
L 305.985852 179.994746 
L 308.804034 179.995771 
L 311.622216 179.996496 
L 314.440398 179.997005 
L 317.25858 179.99736 
L 320.076761 179.997606 
L 322.894943 179.997775 
L 325.713125 179.997891 
" style="fill:none;stroke:#1f77b4;stroke-linecap:round;stroke-width:1.5;"/>
   </g>
   <g id="line2d_17">
    <path clip-path="url(#pbfcec86228)" d="M 46.713125 179.435051 
L 49.531307 179.354573 
L 52.349489 179.264191 
L 55.16767 179.162937 
L 57.985852 179.049779 
L 60.804034 178.923632 
L 63.622216 178.783352 
L 66.440398 178.627743 
L 69.25858 178.455563 
L 72.076761 178.265525 
L 74.894943 178.056306 
L 77.713125 177.826555 
L 80.531307 177.5749 
L 83.349489 177.299962 
L 86.16767 177.000361 
L 88.985852 176.674735 
L 91.804034 176.321749 
L 94.622216 175.940114 
L 97.440398 175.528602 
L 100.25858 175.086063 
L 103.076761 174.611445 
L 105.894943 174.103811 
L 108.713125 173.562363 
L 111.531307 172.986455 
L 114.349489 172.375622 
L 117.16767 171.729593 
L 119.985852 171.048313 
L 122.804034 170.331961 
L 125.622216 169.580972 
L 128.440398 168.796045 
L 131.25858 167.978167 
L 134.076761 167.128617 
L 136.894943 166.248982 
L 139.713125 165.341161 
L 142.531307 164.407372 
L 145.349489 163.45015 
L 148.16767 162.472347 
L 150.985852 161.477123 
L 153.804034 160.467942 
L 156.622216 159.44855 
L 159.440398 158.422962 
L 162.25858 157.395441 
L 165.076761 156.370469 
L 167.894943 155.352721 
L 170.713125 154.347027 
L 173.531307 153.358344 
L 176.349489 152.391708 
L 179.16767 151.452199 
L 181.985852 150.544896 
L 184.804034 149.67483 
L 187.622216 148.846941 
L 190.440398 148.06603 
L 193.25858 147.336712 
L 196.076761 146.663374 
L 198.894943 146.050127 
L 201.713125 145.50077 
L 204.531307 145.018743 
L 207.349489 144.607099 
L 210.16767 144.268466 
L 212.985852 144.005023 
L 215.804034 143.818474 
L 218.622216 143.71003 
L 221.440398 143.680398 
L 224.25858 143.729771 
L 227.076761 143.857827 
L 229.894943 144.063733 
L 232.713125 144.346153 
L 235.531307 144.703261 
L 238.349489 145.132764 
L 241.16767 145.631925 
L 243.985852 146.197592 
L 246.804034 146.82623 
L 249.622216 147.51396 
L 252.440398 148.256597 
L 255.25858 149.049694 
L 258.076761 149.888583 
L 260.894943 150.768426 
L 263.713125 151.684255 
L 266.531307 152.631022 
L 269.349489 153.603646 
L 272.16767 154.597051 
L 274.985852 155.606219 
L 277.804034 156.626221 
L 280.622216 157.652261 
L 283.440398 158.679711 
L 286.25858 159.70414 
L 289.076761 160.721346 
L 291.894943 161.727378 
L 294.713125 162.718559 
L 297.531307 163.691502 
L 300.349489 164.643121 
L 303.16767 165.570643 
L 305.985852 166.471612 
L 308.804034 167.343892 
L 311.622216 168.185661 
L 314.440398 168.995409 
L 317.25858 169.771933 
L 320.076761 170.514318 
L 322.894943 171.221932 
L 325.713125 171.894407 
" style="fill:none;stroke:#ff7f0e;stroke-linecap:round;stroke-width:1.5;"/>
   </g>
   <g id="line2d_18">
    <path clip-path="url(#pbfcec86228)" d="M 46.713125 179.998125 
L 49.531307 179.998125 
L 52.349489 179.998125 
L 55.16767 179.998124 
L 57.985852 179.998123 
L 60.804034 179.998118 
L 63.622216 179.998106 
L 66.440398 179.998073 
L 69.25858 179.997989 
L 72.076761 179.997778 
L 74.894943 179.99727 
L 77.713125 179.996087 
L 80.531307 179.993419 
L 83.349489 179.98761 
L 86.16767 179.975385 
L 88.985852 179.950525 
L 91.804034 179.901689 
L 94.622216 179.809025 
L 97.440398 179.63923 
L 100.25858 179.338857 
L 103.076761 178.825991 
L 105.894943 177.981091 
L 108.713125 176.638665 
L 111.531307 174.582531 
L 114.349489 171.54839 
L 117.16767 167.237837 
L 119.985852 161.347289 
L 122.804034 153.613159 
L 125.622216 143.870854 
L 128.440398 132.120325 
L 131.25858 118.586072 
L 134.076761 103.756271 
L 136.894943 88.385846 
L 139.713125 73.452818 
L 142.531307 60.066046 
L 145.349489 49.333867 
L 148.16767 42.214168 
L 150.985852 39.373654 
L 153.804034 41.084913 
L 156.622216 47.183284 
L 159.440398 57.09298 
L 162.25858 69.916731 
L 165.076761 84.569606 
L 167.894943 99.929412 
L 170.713125 114.974989 
L 173.531307 128.889596 
L 176.349489 141.116961 
L 179.16767 151.369168 
L 181.985852 159.595211 
L 184.804034 165.924717 
L 187.622216 170.602476 
L 190.440398 173.926923 
L 193.25858 176.201105 
L 196.076761 177.699693 
L 198.894943 178.651518 
L 201.713125 179.234517 
L 204.531307 179.579023 
L 207.349489 179.775492 
L 210.16767 179.883658 
L 212.985852 179.941162 
L 215.804034 179.970689 
L 218.622216 179.985335 
L 221.440398 179.992354 
L 224.25858 179.995605 
L 227.076761 179.99706 
L 229.894943 179.997689 
L 232.713125 179.997952 
L 235.531307 179.998059 
L 238.349489 179.9981 
L 241.16767 179.998116 
L 243.985852 179.998122 
L 246.804034 179.998124 
L 249.622216 179.998125 
L 252.440398 179.998125 
L 255.25858 179.998125 
L 258.076761 179.998125 
L 260.894943 179.998125 
L 263.713125 179.998125 
L 266.531307 179.998125 
L 269.349489 179.998125 
L 272.16767 179.998125 
L 274.985852 179.998125 
L 277.804034 179.998125 
L 280.622216 179.998125 
L 283.440398 179.998125 
L 286.25858 179.998125 
L 289.076761 179.998125 
L 291.894943 179.998125 
L 294.713125 179.998125 
L 297.531307 179.998125 
L 300.349489 179.998125 
L 303.16767 179.998125 
L 305.985852 179.998125 
L 308.804034 179.998125 
L 311.622216 179.998125 
L 314.440398 179.998125 
L 317.25858 179.998125 
L 320.076761 179.998125 
L 322.894943 179.998125 
L 325.713125 179.998125 
" style="fill:none;stroke:#2ca02c;stroke-linecap:round;stroke-width:1.5;"/>
   </g>
   <g id="patch_3">
    <path d="M 46.713125 179.998125 
L 46.713125 22.318125 
" style="fill:none;stroke:#ffffff;stroke-linecap:square;stroke-linejoin:miter;stroke-width:0.8;"/>
   </g>
   <g id="patch_4">
    <path d="M 325.713125 179.998125 
L 325.713125 22.318125 
" style="fill:none;stroke:#ffffff;stroke-linecap:square;stroke-linejoin:miter;stroke-width:0.8;"/>
   </g>
   <g id="patch_5">
    <path d="M 46.713125 179.998125 
L 325.713125 179.998125 
" style="fill:none;stroke:#ffffff;stroke-linecap:square;stroke-linejoin:miter;stroke-width:0.8;"/>
   </g>
   <g id="patch_6">
    <path d="M 46.713125 22.318125 
L 325.713125 22.318125 
" style="fill:none;stroke:#ffffff;stroke-linecap:square;stroke-linejoin:miter;stroke-width:0.8;"/>
   </g>
   <g id="text_18">
    <!-- Univariate normal distributions -->
    <g style="fill:#262626;" transform="translate(93.115625 16.318125)scale(0.12 -0.12)">
     <defs>
      <path d="M 556 4666 
L 1191 4666 
L 1191 1831 
Q 1191 1081 1462 751 
Q 1734 422 2344 422 
Q 2950 422 3222 751 
Q 3494 1081 3494 1831 
L 3494 4666 
L 4128 4666 
L 4128 1753 
Q 4128 841 3676 375 
Q 3225 -91 2344 -91 
Q 1459 -91 1007 375 
Q 556 841 556 1753 
L 556 4666 
z
" id="DejaVuSans-55" transform="scale(0.015625)"/>
      <path d="M 191 3500 
L 800 3500 
L 1894 563 
L 2988 3500 
L 3597 3500 
L 2284 0 
L 1503 0 
L 191 3500 
z
" id="DejaVuSans-76" transform="scale(0.015625)"/>
      <path d="M 2194 1759 
Q 1497 1759 1228 1600 
Q 959 1441 959 1056 
Q 959 750 1161 570 
Q 1363 391 1709 391 
Q 2188 391 2477 730 
Q 2766 1069 2766 1631 
L 2766 1759 
L 2194 1759 
z
M 3341 1997 
L 3341 0 
L 2766 0 
L 2766 531 
Q 2569 213 2275 61 
Q 1981 -91 1556 -91 
Q 1019 -91 701 211 
Q 384 513 384 1019 
Q 384 1609 779 1909 
Q 1175 2209 1959 2209 
L 2766 2209 
L 2766 2266 
Q 2766 2663 2505 2880 
Q 2244 3097 1772 3097 
Q 1472 3097 1187 3025 
Q 903 2953 641 2809 
L 641 3341 
Q 956 3463 1253 3523 
Q 1550 3584 1831 3584 
Q 2591 3584 2966 3190 
Q 3341 2797 3341 1997 
z
" id="DejaVuSans-61" transform="scale(0.015625)"/>
      <path d="M 2631 2963 
Q 2534 3019 2420 3045 
Q 2306 3072 2169 3072 
Q 1681 3072 1420 2755 
Q 1159 2438 1159 1844 
L 1159 0 
L 581 0 
L 581 3500 
L 1159 3500 
L 1159 2956 
Q 1341 3275 1631 3429 
Q 1922 3584 2338 3584 
Q 2397 3584 2469 3576 
Q 2541 3569 2628 3553 
L 2631 2963 
z
" id="DejaVuSans-72" transform="scale(0.015625)"/>
      <path d="M 1959 3097 
Q 1497 3097 1228 2736 
Q 959 2375 959 1747 
Q 959 1119 1226 758 
Q 1494 397 1959 397 
Q 2419 397 2687 759 
Q 2956 1122 2956 1747 
Q 2956 2369 2687 2733 
Q 2419 3097 1959 3097 
z
M 1959 3584 
Q 2709 3584 3137 3096 
Q 3566 2609 3566 1747 
Q 3566 888 3137 398 
Q 2709 -91 1959 -91 
Q 1206 -91 779 398 
Q 353 888 353 1747 
Q 353 2609 779 3096 
Q 1206 3584 1959 3584 
z
" id="DejaVuSans-6f" transform="scale(0.015625)"/>
      <path d="M 3328 2828 
Q 3544 3216 3844 3400 
Q 4144 3584 4550 3584 
Q 5097 3584 5394 3201 
Q 5691 2819 5691 2113 
L 5691 0 
L 5113 0 
L 5113 2094 
Q 5113 2597 4934 2840 
Q 4756 3084 4391 3084 
Q 3944 3084 3684 2787 
Q 3425 2491 3425 1978 
L 3425 0 
L 2847 0 
L 2847 2094 
Q 2847 2600 2669 2842 
Q 2491 3084 2119 3084 
Q 1678 3084 1418 2786 
Q 1159 2488 1159 1978 
L 1159 0 
L 581 0 
L 581 3500 
L 1159 3500 
L 1159 2956 
Q 1356 3278 1631 3431 
Q 1906 3584 2284 3584 
Q 2666 3584 2933 3390 
Q 3200 3197 3328 2828 
z
" id="DejaVuSans-6d" transform="scale(0.015625)"/>
      <path d="M 603 4863 
L 1178 4863 
L 1178 0 
L 603 0 
L 603 4863 
z
" id="DejaVuSans-6c" transform="scale(0.015625)"/>
      <path d="M 3116 1747 
Q 3116 2381 2855 2742 
Q 2594 3103 2138 3103 
Q 1681 3103 1420 2742 
Q 1159 2381 1159 1747 
Q 1159 1113 1420 752 
Q 1681 391 2138 391 
Q 2594 391 2855 752 
Q 3116 1113 3116 1747 
z
M 1159 2969 
Q 1341 3281 1617 3432 
Q 1894 3584 2278 3584 
Q 2916 3584 3314 3078 
Q 3713 2572 3713 1747 
Q 3713 922 3314 415 
Q 2916 -91 2278 -91 
Q 1894 -91 1617 61 
Q 1341 213 1159 525 
L 1159 0 
L 581 0 
L 581 4863 
L 1159 4863 
L 1159 2969 
z
" id="DejaVuSans-62" transform="scale(0.015625)"/>
      <path d="M 544 1381 
L 544 3500 
L 1119 3500 
L 1119 1403 
Q 1119 906 1312 657 
Q 1506 409 1894 409 
Q 2359 409 2629 706 
Q 2900 1003 2900 1516 
L 2900 3500 
L 3475 3500 
L 3475 0 
L 2900 0 
L 2900 538 
Q 2691 219 2414 64 
Q 2138 -91 1772 -91 
Q 1169 -91 856 284 
Q 544 659 544 1381 
z
M 1991 3584 
L 1991 3584 
z
" id="DejaVuSans-75" transform="scale(0.015625)"/>
     </defs>
     <use xlink:href="#DejaVuSans-55"/>
     <use x="73.193359" xlink:href="#DejaVuSans-6e"/>
     <use x="136.572266" xlink:href="#DejaVuSans-69"/>
     <use x="164.355469" xlink:href="#DejaVuSans-76"/>
     <use x="223.535156" xlink:href="#DejaVuSans-61"/>
     <use x="284.814453" xlink:href="#DejaVuSans-72"/>
     <use x="325.927734" xlink:href="#DejaVuSans-69"/>
     <use x="353.710938" xlink:href="#DejaVuSans-61"/>
     <use x="414.990234" xlink:href="#DejaVuSans-74"/>
     <use x="454.199219" xlink:href="#DejaVuSans-65"/>
     <use x="515.722656" xlink:href="#DejaVuSans-20"/>
     <use x="547.509766" xlink:href="#DejaVuSans-6e"/>
     <use x="610.888672" xlink:href="#DejaVuSans-6f"/>
     <use x="672.070312" xlink:href="#DejaVuSans-72"/>
     <use x="711.433594" xlink:href="#DejaVuSans-6d"/>
     <use x="808.845703" xlink:href="#DejaVuSans-61"/>
     <use x="870.125" xlink:href="#DejaVuSans-6c"/>
     <use x="897.908203" xlink:href="#DejaVuSans-20"/>
     <use x="929.695312" xlink:href="#DejaVuSans-64"/>
     <use x="993.171875" xlink:href="#DejaVuSans-69"/>
     <use x="1020.955078" xlink:href="#DejaVuSans-73"/>
     <use x="1073.054688" xlink:href="#DejaVuSans-74"/>
     <use x="1112.263672" xlink:href="#DejaVuSans-72"/>
     <use x="1153.376953" xlink:href="#DejaVuSans-69"/>
     <use x="1181.160156" xlink:href="#DejaVuSans-62"/>
     <use x="1244.636719" xlink:href="#DejaVuSans-75"/>
     <use x="1308.015625" xlink:href="#DejaVuSans-74"/>
     <use x="1347.224609" xlink:href="#DejaVuSans-69"/>
     <use x="1375.007812" xlink:href="#DejaVuSans-6f"/>
     <use x="1436.189453" xlink:href="#DejaVuSans-6e"/>
     <use x="1499.568359" xlink:href="#DejaVuSans-73"/>
    </g>
   </g>
   <g id="legend_1">
    <g id="patch_7">
     <path d="M 242.413125 74.3525 
L 318.713125 74.3525 
Q 320.713125 74.3525 320.713125 72.3525 
L 320.713125 29.318125 
Q 320.713125 27.318125 318.713125 27.318125 
L 242.413125 27.318125 
Q 240.413125 27.318125 240.413125 29.318125 
L 240.413125 72.3525 
Q 240.413125 74.3525 242.413125 74.3525 
z
" style="fill:#eaeaf2;opacity:0.8;stroke:#cccccc;stroke-linejoin:miter;"/>
    </g>
    <g id="line2d_19">
     <path d="M 244.413125 35.416563 
L 264.413125 35.416563 
" style="fill:none;stroke:#1f77b4;stroke-linecap:round;stroke-width:1.5;"/>
    </g>
    <g id="line2d_20"/>
    <g id="text_19">
     <!-- $\mathcal{N}(0, 1)$ -->
     <g style="fill:#262626;" transform="translate(272.413125 38.916563)scale(0.1 -0.1)">
      <defs>
       <path d="M 4294 800 
L 4301 800 
Q 5293 4070 5408 4378 
Q 5472 4538 5523 4614 
Q 5830 5088 6253 5088 
Q 6490 5088 6650 4931 
Q 6810 4774 6810 4550 
Q 6810 4378 6720 4272 
Q 6630 4166 6470 4166 
Q 6368 4166 6297 4224 
Q 6227 4282 6198 4349 
Q 6170 4416 6118 4473 
Q 6067 4531 6003 4531 
Q 5939 4531 5881 4508 
Q 5824 4486 5785 4457 
Q 5747 4429 5705 4371 
Q 5664 4314 5638 4275 
Q 5613 4237 5584 4163 
Q 5555 4090 5545 4058 
Q 5536 4026 5510 3952 
Q 5485 3878 5485 3866 
L 4262 -154 
L 4134 -154 
Q 3078 1280 2483 2893 
L 2470 2893 
Q 2406 2579 2358 2361 
Q 2310 2144 2214 1792 
Q 2118 1440 2028 1190 
Q 1939 941 1804 653 
Q 1670 365 1529 185 
Q 1389 6 1203 -115 
Q 1018 -237 813 -237 
Q 576 -237 416 -80 
Q 256 77 256 301 
Q 256 474 345 579 
Q 435 685 595 685 
Q 698 685 768 627 
Q 838 570 867 502 
Q 896 435 947 377 
Q 998 320 1062 320 
Q 1222 320 1369 480 
Q 1517 640 1638 928 
Q 1760 1216 1862 1542 
Q 1965 1869 2057 2288 
Q 2150 2707 2214 3033 
Q 2278 3360 2348 3741 
Q 2419 4122 2458 4294 
L 2630 4294 
Q 2682 4166 2874 3680 
Q 3066 3194 3142 3008 
Q 3219 2822 3392 2422 
Q 3565 2022 3683 1798 
Q 3802 1574 3968 1292 
Q 4134 1011 4294 800 
z
" id="STIXNonUnicode-Italic-e23a" transform="scale(0.015625)"/>
       <path d="M 750 794 
L 1409 794 
L 1409 256 
L 897 -744 
L 494 -744 
L 750 256 
L 750 794 
z
" id="DejaVuSans-2c" transform="scale(0.015625)"/>
      </defs>
      <use transform="translate(0 0.5)" xlink:href="#STIXNonUnicode-Italic-e23a"/>
      <use transform="translate(95.699982 0.5)" xlink:href="#DejaVuSans-28"/>
      <use transform="translate(134.713654 0.5)" xlink:href="#DejaVuSans-30"/>
      <use transform="translate(198.3367 0.5)" xlink:href="#DejaVuSans-2c"/>
      <use transform="translate(249.606232 0.5)" xlink:href="#DejaVuSans-31"/>
      <use transform="translate(313.229279 0.5)" xlink:href="#DejaVuSans-29"/>
     </g>
    </g>
    <g id="line2d_21">
     <path d="M 244.413125 50.094688 
L 264.413125 50.094688 
" style="fill:none;stroke:#ff7f0e;stroke-linecap:round;stroke-width:1.5;"/>
    </g>
    <g id="line2d_22"/>
    <g id="text_20">
     <!-- $\mathcal{N}(2, 3)$ -->
     <g style="fill:#262626;" transform="translate(272.413125 53.594688)scale(0.1 -0.1)">
      <use transform="translate(0 0.5)" xlink:href="#STIXNonUnicode-Italic-e23a"/>
      <use transform="translate(95.699982 0.5)" xlink:href="#DejaVuSans-28"/>
      <use transform="translate(134.713654 0.5)" xlink:href="#DejaVuSans-32"/>
      <use transform="translate(198.3367 0.5)" xlink:href="#DejaVuSans-2c"/>
      <use transform="translate(249.606232 0.5)" xlink:href="#DejaVuSans-33"/>
      <use transform="translate(313.229279 0.5)" xlink:href="#DejaVuSans-29"/>
     </g>
    </g>
    <g id="line2d_23">
     <path d="M 244.413125 64.772813 
L 264.413125 64.772813 
" style="fill:none;stroke:#2ca02c;stroke-linecap:round;stroke-width:1.5;"/>
    </g>
    <g id="line2d_24"/>
    <g id="text_21">
     <!-- $\mathcal{N}(0, 0.2)$ -->
     <g style="fill:#262626;" transform="translate(272.413125 68.272813)scale(0.1 -0.1)">
      <use transform="translate(0 0.5)" xlink:href="#STIXNonUnicode-Italic-e23a"/>
      <use transform="translate(95.699982 0.5)" xlink:href="#DejaVuSans-28"/>
      <use transform="translate(134.713654 0.5)" xlink:href="#DejaVuSans-30"/>
      <use transform="translate(198.3367 0.5)" xlink:href="#DejaVuSans-2c"/>
      <use transform="translate(249.606232 0.5)" xlink:href="#DejaVuSans-30"/>
      <use transform="translate(313.229279 0.5)" xlink:href="#DejaVuSans-2e"/>
      <use transform="translate(339.516388 0.5)" xlink:href="#DejaVuSans-32"/>
      <use transform="translate(403.139435 0.5)" xlink:href="#DejaVuSans-29"/>
     </g>
    </g>
   </g>
  </g>
 </g>
 <defs>
  <clipPath id="pbfcec86228">
   <rect height="157.68" width="279" x="46.713125" y="22.318125"/>
  </clipPath>
 </defs>
</svg>
