<?xml version="1.0" encoding="utf-8" standalone="no"?>
<!DOCTYPE svg PUBLIC "-//W3C//DTD SVG 1.1//EN"
  "http://www.w3.org/Graphics/SVG/1.1/DTD/svg11.dtd">
<svg height="293.655187pt" version="1.1" viewBox="0 0 439.036875 293.655187" width="439.036875pt" xmlns="http://www.w3.org/2000/svg" xmlns:xlink="http://www.w3.org/1999/xlink">
 <metadata>
  <rdf:RDF xmlns:cc="http://creativecommons.org/ns#" xmlns:dc="http://purl.org/dc/elements/1.1/" xmlns:rdf="http://www.w3.org/1999/02/22-rdf-syntax-ns#">
   <cc:Work>
    <dc:type rdf:resource="http://purl.org/dc/dcmitype/StillImage"/>
    <dc:date>2021-08-20T15:41:48.098366</dc:date>
    <dc:format>image/svg+xml</dc:format>
    <dc:creator>
     <cc:Agent>
      <dc:title>Matplotlib v3.4.3, https://matplotlib.org/</dc:title>
     </cc:Agent>
    </dc:creator>
   </cc:Work>
  </rdf:RDF>
 </metadata>
 <defs>
  <style type="text/css">*{stroke-linecap:butt;stroke-linejoin:round;}</style>
 </defs>
 <g id="figure_1">
  <g id="patch_1">
   <path d="M -0 293.655187 
L 439.036875 293.655187 
L 439.036875 0 
L -0 0 
z
" style="fill:#ffffff;"/>
  </g>
  <g id="axes_1">
   <g id="patch_2">
    <path d="M 52.118437 253.1955 
L 386.918437 253.1955 
L 386.918437 35.7555 
L 52.118437 35.7555 
z
" style="fill:#eaeaf2;"/>
   </g>
   <g id="matplotlib.axis_1">
    <g id="xtick_1">
     <g id="line2d_1">
      <path clip-path="url(#pe2e446141f)" d="M 52.118437 253.1955 
L 52.118437 35.7555 
" style="fill:none;stroke:#ffffff;stroke-linecap:round;stroke-width:0.8;"/>
     </g>
     <g id="text_1">
      <!-- −4 -->
      <g style="fill:#262626;" transform="translate(44.747344 267.793937)scale(0.1 -0.1)">
       <defs>
        <path d="M 678 2272 
L 4684 2272 
L 4684 1741 
L 678 1741 
L 678 2272 
z
" id="DejaVuSans-2212" transform="scale(0.015625)"/>
        <path d="M 2419 4116 
L 825 1625 
L 2419 1625 
L 2419 4116 
z
M 2253 4666 
L 3047 4666 
L 3047 1625 
L 3713 1625 
L 3713 1100 
L 3047 1100 
L 3047 0 
L 2419 0 
L 2419 1100 
L 313 1100 
L 313 1709 
L 2253 4666 
z
" id="DejaVuSans-34" transform="scale(0.015625)"/>
       </defs>
       <use xlink:href="#DejaVuSans-2212"/>
       <use x="83.789062" xlink:href="#DejaVuSans-34"/>
      </g>
     </g>
    </g>
    <g id="xtick_2">
     <g id="line2d_2">
      <path clip-path="url(#pe2e446141f)" d="M 93.968437 253.1955 
L 93.968437 35.7555 
" style="fill:none;stroke:#ffffff;stroke-linecap:round;stroke-width:0.8;"/>
     </g>
     <g id="text_2">
      <!-- −3 -->
      <g style="fill:#262626;" transform="translate(86.597344 267.793937)scale(0.1 -0.1)">
       <defs>
        <path d="M 2597 2516 
Q 3050 2419 3304 2112 
Q 3559 1806 3559 1356 
Q 3559 666 3084 287 
Q 2609 -91 1734 -91 
Q 1441 -91 1130 -33 
Q 819 25 488 141 
L 488 750 
Q 750 597 1062 519 
Q 1375 441 1716 441 
Q 2309 441 2620 675 
Q 2931 909 2931 1356 
Q 2931 1769 2642 2001 
Q 2353 2234 1838 2234 
L 1294 2234 
L 1294 2753 
L 1863 2753 
Q 2328 2753 2575 2939 
Q 2822 3125 2822 3475 
Q 2822 3834 2567 4026 
Q 2313 4219 1838 4219 
Q 1578 4219 1281 4162 
Q 984 4106 628 3988 
L 628 4550 
Q 988 4650 1302 4700 
Q 1616 4750 1894 4750 
Q 2613 4750 3031 4423 
Q 3450 4097 3450 3541 
Q 3450 3153 3228 2886 
Q 3006 2619 2597 2516 
z
" id="DejaVuSans-33" transform="scale(0.015625)"/>
       </defs>
       <use xlink:href="#DejaVuSans-2212"/>
       <use x="83.789062" xlink:href="#DejaVuSans-33"/>
      </g>
     </g>
    </g>
    <g id="xtick_3">
     <g id="line2d_3">
      <path clip-path="url(#pe2e446141f)" d="M 135.818438 253.1955 
L 135.818438 35.7555 
" style="fill:none;stroke:#ffffff;stroke-linecap:round;stroke-width:0.8;"/>
     </g>
     <g id="text_3">
      <!-- −2 -->
      <g style="fill:#262626;" transform="translate(128.447344 267.793937)scale(0.1 -0.1)">
       <defs>
        <path d="M 1228 531 
L 3431 531 
L 3431 0 
L 469 0 
L 469 531 
Q 828 903 1448 1529 
Q 2069 2156 2228 2338 
Q 2531 2678 2651 2914 
Q 2772 3150 2772 3378 
Q 2772 3750 2511 3984 
Q 2250 4219 1831 4219 
Q 1534 4219 1204 4116 
Q 875 4013 500 3803 
L 500 4441 
Q 881 4594 1212 4672 
Q 1544 4750 1819 4750 
Q 2544 4750 2975 4387 
Q 3406 4025 3406 3419 
Q 3406 3131 3298 2873 
Q 3191 2616 2906 2266 
Q 2828 2175 2409 1742 
Q 1991 1309 1228 531 
z
" id="DejaVuSans-32" transform="scale(0.015625)"/>
       </defs>
       <use xlink:href="#DejaVuSans-2212"/>
       <use x="83.789062" xlink:href="#DejaVuSans-32"/>
      </g>
     </g>
    </g>
    <g id="xtick_4">
     <g id="line2d_4">
      <path clip-path="url(#pe2e446141f)" d="M 177.668438 253.1955 
L 177.668438 35.7555 
" style="fill:none;stroke:#ffffff;stroke-linecap:round;stroke-width:0.8;"/>
     </g>
     <g id="text_4">
      <!-- −1 -->
      <g style="fill:#262626;" transform="translate(170.297344 267.793937)scale(0.1 -0.1)">
       <defs>
        <path d="M 794 531 
L 1825 531 
L 1825 4091 
L 703 3866 
L 703 4441 
L 1819 4666 
L 2450 4666 
L 2450 531 
L 3481 531 
L 3481 0 
L 794 0 
L 794 531 
z
" id="DejaVuSans-31" transform="scale(0.015625)"/>
       </defs>
       <use xlink:href="#DejaVuSans-2212"/>
       <use x="83.789062" xlink:href="#DejaVuSans-31"/>
      </g>
     </g>
    </g>
    <g id="xtick_5">
     <g id="line2d_5">
      <path clip-path="url(#pe2e446141f)" d="M 219.518438 253.1955 
L 219.518438 35.7555 
" style="fill:none;stroke:#ffffff;stroke-linecap:round;stroke-width:0.8;"/>
     </g>
     <g id="text_5">
      <!-- 0 -->
      <g style="fill:#262626;" transform="translate(216.337187 267.793937)scale(0.1 -0.1)">
       <defs>
        <path d="M 2034 4250 
Q 1547 4250 1301 3770 
Q 1056 3291 1056 2328 
Q 1056 1369 1301 889 
Q 1547 409 2034 409 
Q 2525 409 2770 889 
Q 3016 1369 3016 2328 
Q 3016 3291 2770 3770 
Q 2525 4250 2034 4250 
z
M 2034 4750 
Q 2819 4750 3233 4129 
Q 3647 3509 3647 2328 
Q 3647 1150 3233 529 
Q 2819 -91 2034 -91 
Q 1250 -91 836 529 
Q 422 1150 422 2328 
Q 422 3509 836 4129 
Q 1250 4750 2034 4750 
z
" id="DejaVuSans-30" transform="scale(0.015625)"/>
       </defs>
       <use xlink:href="#DejaVuSans-30"/>
      </g>
     </g>
    </g>
    <g id="xtick_6">
     <g id="line2d_6">
      <path clip-path="url(#pe2e446141f)" d="M 261.368438 253.1955 
L 261.368438 35.7555 
" style="fill:none;stroke:#ffffff;stroke-linecap:round;stroke-width:0.8;"/>
     </g>
     <g id="text_6">
      <!-- 1 -->
      <g style="fill:#262626;" transform="translate(258.187188 267.793937)scale(0.1 -0.1)">
       <use xlink:href="#DejaVuSans-31"/>
      </g>
     </g>
    </g>
    <g id="xtick_7">
     <g id="line2d_7">
      <path clip-path="url(#pe2e446141f)" d="M 303.218437 253.1955 
L 303.218437 35.7555 
" style="fill:none;stroke:#ffffff;stroke-linecap:round;stroke-width:0.8;"/>
     </g>
     <g id="text_7">
      <!-- 2 -->
      <g style="fill:#262626;" transform="translate(300.037188 267.793937)scale(0.1 -0.1)">
       <use xlink:href="#DejaVuSans-32"/>
      </g>
     </g>
    </g>
    <g id="xtick_8">
     <g id="line2d_8">
      <path clip-path="url(#pe2e446141f)" d="M 345.068438 253.1955 
L 345.068438 35.7555 
" style="fill:none;stroke:#ffffff;stroke-linecap:round;stroke-width:0.8;"/>
     </g>
     <g id="text_8">
      <!-- 3 -->
      <g style="fill:#262626;" transform="translate(341.887188 267.793937)scale(0.1 -0.1)">
       <use xlink:href="#DejaVuSans-33"/>
      </g>
     </g>
    </g>
    <g id="xtick_9">
     <g id="line2d_9">
      <path clip-path="url(#pe2e446141f)" d="M 386.918437 253.1955 
L 386.918437 35.7555 
" style="fill:none;stroke:#ffffff;stroke-linecap:round;stroke-width:0.8;"/>
     </g>
     <g id="text_9">
      <!-- 4 -->
      <g style="fill:#262626;" transform="translate(383.737188 267.793937)scale(0.1 -0.1)">
       <use xlink:href="#DejaVuSans-34"/>
      </g>
     </g>
    </g>
    <g id="text_10">
     <!-- $x$ -->
     <g style="fill:#262626;" transform="translate(215.618437 283.751594)scale(0.13 -0.13)">
      <defs>
       <path d="M 3841 3500 
L 2234 1784 
L 3219 0 
L 2559 0 
L 1819 1388 
L 531 0 
L -166 0 
L 1556 1844 
L 641 3500 
L 1300 3500 
L 1972 2234 
L 3144 3500 
L 3841 3500 
z
" id="DejaVuSans-Oblique-78" transform="scale(0.015625)"/>
      </defs>
      <use transform="translate(0 0.3125)" xlink:href="#DejaVuSans-Oblique-78"/>
     </g>
    </g>
   </g>
   <g id="matplotlib.axis_2">
    <g id="ytick_1">
     <g id="line2d_10">
      <path clip-path="url(#pe2e446141f)" d="M 52.118437 235.873389 
L 386.918437 235.873389 
" style="fill:none;stroke:#ffffff;stroke-linecap:round;stroke-width:0.8;"/>
     </g>
     <g id="text_11">
      <!-- −3 -->
      <g style="fill:#262626;" transform="translate(30.37625 239.672607)scale(0.1 -0.1)">
       <use xlink:href="#DejaVuSans-2212"/>
       <use x="83.789062" xlink:href="#DejaVuSans-33"/>
      </g>
     </g>
    </g>
    <g id="ytick_2">
     <g id="line2d_11">
      <path clip-path="url(#pe2e446141f)" d="M 52.118437 203.975419 
L 386.918437 203.975419 
" style="fill:none;stroke:#ffffff;stroke-linecap:round;stroke-width:0.8;"/>
     </g>
     <g id="text_12">
      <!-- −2 -->
      <g style="fill:#262626;" transform="translate(30.37625 207.774638)scale(0.1 -0.1)">
       <use xlink:href="#DejaVuSans-2212"/>
       <use x="83.789062" xlink:href="#DejaVuSans-32"/>
      </g>
     </g>
    </g>
    <g id="ytick_3">
     <g id="line2d_12">
      <path clip-path="url(#pe2e446141f)" d="M 52.118437 172.07745 
L 386.918437 172.07745 
" style="fill:none;stroke:#ffffff;stroke-linecap:round;stroke-width:0.8;"/>
     </g>
     <g id="text_13">
      <!-- −1 -->
      <g style="fill:#262626;" transform="translate(30.37625 175.876669)scale(0.1 -0.1)">
       <use xlink:href="#DejaVuSans-2212"/>
       <use x="83.789062" xlink:href="#DejaVuSans-31"/>
      </g>
     </g>
    </g>
    <g id="ytick_4">
     <g id="line2d_13">
      <path clip-path="url(#pe2e446141f)" d="M 52.118437 140.179481 
L 386.918437 140.179481 
" style="fill:none;stroke:#ffffff;stroke-linecap:round;stroke-width:0.8;"/>
     </g>
     <g id="text_14">
      <!-- 0 -->
      <g style="fill:#262626;" transform="translate(38.755937 143.9787)scale(0.1 -0.1)">
       <use xlink:href="#DejaVuSans-30"/>
      </g>
     </g>
    </g>
    <g id="ytick_5">
     <g id="line2d_14">
      <path clip-path="url(#pe2e446141f)" d="M 52.118437 108.281512 
L 386.918437 108.281512 
" style="fill:none;stroke:#ffffff;stroke-linecap:round;stroke-width:0.8;"/>
     </g>
     <g id="text_15">
      <!-- 1 -->
      <g style="fill:#262626;" transform="translate(38.755937 112.08073)scale(0.1 -0.1)">
       <use xlink:href="#DejaVuSans-31"/>
      </g>
     </g>
    </g>
    <g id="ytick_6">
     <g id="line2d_15">
      <path clip-path="url(#pe2e446141f)" d="M 52.118437 76.383542 
L 386.918437 76.383542 
" style="fill:none;stroke:#ffffff;stroke-linecap:round;stroke-width:0.8;"/>
     </g>
     <g id="text_16">
      <!-- 2 -->
      <g style="fill:#262626;" transform="translate(38.755937 80.182761)scale(0.1 -0.1)">
       <use xlink:href="#DejaVuSans-32"/>
      </g>
     </g>
    </g>
    <g id="ytick_7">
     <g id="line2d_16">
      <path clip-path="url(#pe2e446141f)" d="M 52.118437 44.485573 
L 386.918437 44.485573 
" style="fill:none;stroke:#ffffff;stroke-linecap:round;stroke-width:0.8;"/>
     </g>
     <g id="text_17">
      <!-- 3 -->
      <g style="fill:#262626;" transform="translate(38.755937 48.284792)scale(0.1 -0.1)">
       <use xlink:href="#DejaVuSans-33"/>
      </g>
     </g>
    </g>
    <g id="text_18">
     <!-- $y = f(x)$ -->
     <g style="fill:#262626;" transform="translate(23.64625 167.5505)rotate(-90)scale(0.13 -0.13)">
      <defs>
       <path d="M 1588 -325 
Q 1188 -997 936 -1164 
Q 684 -1331 294 -1331 
L -159 -1331 
L -63 -850 
L 269 -850 
Q 509 -850 678 -719 
Q 847 -588 1056 -206 
L 1234 128 
L 459 3500 
L 1069 3500 
L 1650 819 
L 3256 3500 
L 3859 3500 
L 1588 -325 
z
" id="DejaVuSans-Oblique-79" transform="scale(0.015625)"/>
       <path d="M 678 2906 
L 4684 2906 
L 4684 2381 
L 678 2381 
L 678 2906 
z
M 678 1631 
L 4684 1631 
L 4684 1100 
L 678 1100 
L 678 1631 
z
" id="DejaVuSans-3d" transform="scale(0.015625)"/>
       <path d="M 3059 4863 
L 2969 4384 
L 2419 4384 
Q 2106 4384 1964 4261 
Q 1822 4138 1753 3809 
L 1691 3500 
L 2638 3500 
L 2553 3053 
L 1606 3053 
L 1013 0 
L 434 0 
L 1031 3053 
L 481 3053 
L 563 3500 
L 1113 3500 
L 1159 3744 
Q 1278 4363 1576 4613 
Q 1875 4863 2516 4863 
L 3059 4863 
z
" id="DejaVuSans-Oblique-66" transform="scale(0.015625)"/>
       <path d="M 1984 4856 
Q 1566 4138 1362 3434 
Q 1159 2731 1159 2009 
Q 1159 1288 1364 580 
Q 1569 -128 1984 -844 
L 1484 -844 
Q 1016 -109 783 600 
Q 550 1309 550 2009 
Q 550 2706 781 3412 
Q 1013 4119 1484 4856 
L 1984 4856 
z
" id="DejaVuSans-28" transform="scale(0.015625)"/>
       <path d="M 513 4856 
L 1013 4856 
Q 1481 4119 1714 3412 
Q 1947 2706 1947 2009 
Q 1947 1309 1714 600 
Q 1481 -109 1013 -844 
L 513 -844 
Q 928 -128 1133 580 
Q 1338 1288 1338 2009 
Q 1338 2731 1133 3434 
Q 928 4138 513 4856 
z
" id="DejaVuSans-29" transform="scale(0.015625)"/>
      </defs>
      <use transform="translate(0 0.015625)" xlink:href="#DejaVuSans-Oblique-79"/>
      <use transform="translate(78.662109 0.015625)" xlink:href="#DejaVuSans-3d"/>
      <use transform="translate(181.933594 0.015625)" xlink:href="#DejaVuSans-Oblique-66"/>
      <use transform="translate(217.138672 0.015625)" xlink:href="#DejaVuSans-28"/>
      <use transform="translate(256.152344 0.015625)" xlink:href="#DejaVuSans-Oblique-78"/>
      <use transform="translate(315.332031 0.015625)" xlink:href="#DejaVuSans-29"/>
     </g>
    </g>
   </g>
   <g id="line2d_17">
    <path clip-path="url(#pe2e446141f)" d="M 52.118437 157.651202 
L 60.488438 162.835161 
L 68.858438 166.275588 
L 77.228438 166.773862 
L 85.598437 163.472996 
L 93.968437 156.107041 
L 102.338438 145.118623 
L 110.708438 131.581392 
L 119.078438 116.939677 
L 127.448437 102.655647 
L 135.818438 89.885797 
L 144.188438 79.281495 
L 152.558438 70.950425 
L 160.928438 64.563135 
L 169.298438 59.557493 
L 177.668438 55.380513 
L 186.038438 51.703732 
L 194.408438 48.554447 
L 202.778437 46.323215 
L 211.148438 45.639136 
L 219.518438 47.145161 
L 227.888438 51.245293 
L 236.258438 57.916765 
L 244.628438 66.66476 
L 252.998438 76.640749 
L 261.368438 86.871361 
L 269.738438 96.495252 
L 278.108438 104.915403 
L 286.478438 111.83783 
L 294.848438 117.238245 
L 303.218437 121.32217 
L 311.588437 124.506033 
L 319.958438 127.384994 
L 328.328438 130.625781 
L 336.698438 134.759988 
L 345.068438 139.931323 
L 353.438438 145.71266 
L 361.808438 151.108087 
L 370.178438 154.785916 
L 378.548438 155.486791 
L 386.918437 152.469131 
" style="fill:none;stroke:#1f77b4;stroke-linecap:round;stroke-width:1.5;"/>
    <defs>
     <path d="M 0 1.5 
C 0.397805 1.5 0.77937 1.341951 1.06066 1.06066 
C 1.341951 0.77937 1.5 0.397805 1.5 0 
C 1.5 -0.397805 1.341951 -0.77937 1.06066 -1.06066 
C 0.77937 -1.341951 0.397805 -1.5 0 -1.5 
C -0.397805 -1.5 -0.77937 -1.341951 -1.06066 -1.06066 
C -1.341951 -0.77937 -1.5 -0.397805 -1.5 0 
C -1.5 0.397805 -1.341951 0.77937 -1.06066 1.06066 
C -0.77937 1.341951 -0.397805 1.5 0 1.5 
z
" id="mf0154d0415" style="stroke:#1f77b4;"/>
    </defs>
    <g clip-path="url(#pe2e446141f)">
     <use style="fill:#1f77b4;stroke:#1f77b4;" x="52.118437" xlink:href="#mf0154d0415" y="157.651202"/>
     <use style="fill:#1f77b4;stroke:#1f77b4;" x="60.488438" xlink:href="#mf0154d0415" y="162.835161"/>
     <use style="fill:#1f77b4;stroke:#1f77b4;" x="68.858438" xlink:href="#mf0154d0415" y="166.275588"/>
     <use style="fill:#1f77b4;stroke:#1f77b4;" x="77.228438" xlink:href="#mf0154d0415" y="166.773862"/>
     <use style="fill:#1f77b4;stroke:#1f77b4;" x="85.598437" xlink:href="#mf0154d0415" y="163.472996"/>
     <use style="fill:#1f77b4;stroke:#1f77b4;" x="93.968437" xlink:href="#mf0154d0415" y="156.107041"/>
     <use style="fill:#1f77b4;stroke:#1f77b4;" x="102.338438" xlink:href="#mf0154d0415" y="145.118623"/>
     <use style="fill:#1f77b4;stroke:#1f77b4;" x="110.708438" xlink:href="#mf0154d0415" y="131.581392"/>
     <use style="fill:#1f77b4;stroke:#1f77b4;" x="119.078438" xlink:href="#mf0154d0415" y="116.939677"/>
     <use style="fill:#1f77b4;stroke:#1f77b4;" x="127.448437" xlink:href="#mf0154d0415" y="102.655647"/>
     <use style="fill:#1f77b4;stroke:#1f77b4;" x="135.818438" xlink:href="#mf0154d0415" y="89.885797"/>
     <use style="fill:#1f77b4;stroke:#1f77b4;" x="144.188438" xlink:href="#mf0154d0415" y="79.281495"/>
     <use style="fill:#1f77b4;stroke:#1f77b4;" x="152.558438" xlink:href="#mf0154d0415" y="70.950425"/>
     <use style="fill:#1f77b4;stroke:#1f77b4;" x="160.928438" xlink:href="#mf0154d0415" y="64.563135"/>
     <use style="fill:#1f77b4;stroke:#1f77b4;" x="169.298438" xlink:href="#mf0154d0415" y="59.557493"/>
     <use style="fill:#1f77b4;stroke:#1f77b4;" x="177.668438" xlink:href="#mf0154d0415" y="55.380513"/>
     <use style="fill:#1f77b4;stroke:#1f77b4;" x="186.038438" xlink:href="#mf0154d0415" y="51.703732"/>
     <use style="fill:#1f77b4;stroke:#1f77b4;" x="194.408438" xlink:href="#mf0154d0415" y="48.554447"/>
     <use style="fill:#1f77b4;stroke:#1f77b4;" x="202.778437" xlink:href="#mf0154d0415" y="46.323215"/>
     <use style="fill:#1f77b4;stroke:#1f77b4;" x="211.148438" xlink:href="#mf0154d0415" y="45.639136"/>
     <use style="fill:#1f77b4;stroke:#1f77b4;" x="219.518438" xlink:href="#mf0154d0415" y="47.145161"/>
     <use style="fill:#1f77b4;stroke:#1f77b4;" x="227.888438" xlink:href="#mf0154d0415" y="51.245293"/>
     <use style="fill:#1f77b4;stroke:#1f77b4;" x="236.258438" xlink:href="#mf0154d0415" y="57.916765"/>
     <use style="fill:#1f77b4;stroke:#1f77b4;" x="244.628438" xlink:href="#mf0154d0415" y="66.66476"/>
     <use style="fill:#1f77b4;stroke:#1f77b4;" x="252.998438" xlink:href="#mf0154d0415" y="76.640749"/>
     <use style="fill:#1f77b4;stroke:#1f77b4;" x="261.368438" xlink:href="#mf0154d0415" y="86.871361"/>
     <use style="fill:#1f77b4;stroke:#1f77b4;" x="269.738438" xlink:href="#mf0154d0415" y="96.495252"/>
     <use style="fill:#1f77b4;stroke:#1f77b4;" x="278.108438" xlink:href="#mf0154d0415" y="104.915403"/>
     <use style="fill:#1f77b4;stroke:#1f77b4;" x="286.478438" xlink:href="#mf0154d0415" y="111.83783"/>
     <use style="fill:#1f77b4;stroke:#1f77b4;" x="294.848438" xlink:href="#mf0154d0415" y="117.238245"/>
     <use style="fill:#1f77b4;stroke:#1f77b4;" x="303.218437" xlink:href="#mf0154d0415" y="121.32217"/>
     <use style="fill:#1f77b4;stroke:#1f77b4;" x="311.588437" xlink:href="#mf0154d0415" y="124.506033"/>
     <use style="fill:#1f77b4;stroke:#1f77b4;" x="319.958438" xlink:href="#mf0154d0415" y="127.384994"/>
     <use style="fill:#1f77b4;stroke:#1f77b4;" x="328.328438" xlink:href="#mf0154d0415" y="130.625781"/>
     <use style="fill:#1f77b4;stroke:#1f77b4;" x="336.698438" xlink:href="#mf0154d0415" y="134.759988"/>
     <use style="fill:#1f77b4;stroke:#1f77b4;" x="345.068438" xlink:href="#mf0154d0415" y="139.931323"/>
     <use style="fill:#1f77b4;stroke:#1f77b4;" x="353.438438" xlink:href="#mf0154d0415" y="145.71266"/>
     <use style="fill:#1f77b4;stroke:#1f77b4;" x="361.808438" xlink:href="#mf0154d0415" y="151.108087"/>
     <use style="fill:#1f77b4;stroke:#1f77b4;" x="370.178438" xlink:href="#mf0154d0415" y="154.785916"/>
     <use style="fill:#1f77b4;stroke:#1f77b4;" x="378.548438" xlink:href="#mf0154d0415" y="155.486791"/>
     <use style="fill:#1f77b4;stroke:#1f77b4;" x="386.918437" xlink:href="#mf0154d0415" y="152.469131"/>
    </g>
   </g>
   <g id="line2d_18">
    <path clip-path="url(#pe2e446141f)" d="M 52.118437 150.436101 
L 60.488438 154.411585 
L 68.858438 160.744531 
L 77.228438 170.091719 
L 85.598437 182.458195 
L 93.968437 196.990118 
L 102.338438 212.073863 
L 110.708438 225.721455 
L 119.078438 236.10715 
L 127.448437 242.056775 
L 135.818438 243.311864 
L 144.188438 240.489625 
L 152.558438 234.785877 
L 160.928438 227.554429 
L 169.298438 219.91008 
L 177.668438 212.464504 
L 186.038438 205.256654 
L 194.408438 197.895097 
L 202.778437 189.870336 
L 211.148438 180.91584 
L 219.518438 171.243599 
L 227.888438 161.518477 
L 236.258438 152.576066 
L 244.628438 145.048479 
L 252.998438 139.121946 
L 261.368438 134.556466 
L 269.738438 130.919773 
L 278.108438 127.861102 
L 286.478438 125.25987 
L 294.848438 123.19898 
L 303.218437 121.824983 
L 311.588437 121.190265 
L 319.958438 121.13858 
L 328.328438 121.258899 
L 336.698438 120.928939 
L 345.068438 119.470972 
L 353.438438 116.404626 
L 361.808438 111.709429 
L 370.178438 105.963121 
L 378.548438 100.25722 
L 386.918437 95.900727 
" style="fill:none;stroke:#ff7f0e;stroke-linecap:round;stroke-width:1.5;"/>
    <defs>
     <path d="M 0 1.5 
C 0.397805 1.5 0.77937 1.341951 1.06066 1.06066 
C 1.341951 0.77937 1.5 0.397805 1.5 0 
C 1.5 -0.397805 1.341951 -0.77937 1.06066 -1.06066 
C 0.77937 -1.341951 0.397805 -1.5 0 -1.5 
C -0.397805 -1.5 -0.77937 -1.341951 -1.06066 -1.06066 
C -1.341951 -0.77937 -1.5 -0.397805 -1.5 0 
C -1.5 0.397805 -1.341951 0.77937 -1.06066 1.06066 
C -0.77937 1.341951 -0.397805 1.5 0 1.5 
z
" id="m0a22c9b52c" style="stroke:#ff7f0e;"/>
    </defs>
    <g clip-path="url(#pe2e446141f)">
     <use style="fill:#ff7f0e;stroke:#ff7f0e;" x="52.118437" xlink:href="#m0a22c9b52c" y="150.436101"/>
     <use style="fill:#ff7f0e;stroke:#ff7f0e;" x="60.488438" xlink:href="#m0a22c9b52c" y="154.411585"/>
     <use style="fill:#ff7f0e;stroke:#ff7f0e;" x="68.858438" xlink:href="#m0a22c9b52c" y="160.744531"/>
     <use style="fill:#ff7f0e;stroke:#ff7f0e;" x="77.228438" xlink:href="#m0a22c9b52c" y="170.091719"/>
     <use style="fill:#ff7f0e;stroke:#ff7f0e;" x="85.598437" xlink:href="#m0a22c9b52c" y="182.458195"/>
     <use style="fill:#ff7f0e;stroke:#ff7f0e;" x="93.968437" xlink:href="#m0a22c9b52c" y="196.990118"/>
     <use style="fill:#ff7f0e;stroke:#ff7f0e;" x="102.338438" xlink:href="#m0a22c9b52c" y="212.073863"/>
     <use style="fill:#ff7f0e;stroke:#ff7f0e;" x="110.708438" xlink:href="#m0a22c9b52c" y="225.721455"/>
     <use style="fill:#ff7f0e;stroke:#ff7f0e;" x="119.078438" xlink:href="#m0a22c9b52c" y="236.10715"/>
     <use style="fill:#ff7f0e;stroke:#ff7f0e;" x="127.448437" xlink:href="#m0a22c9b52c" y="242.056775"/>
     <use style="fill:#ff7f0e;stroke:#ff7f0e;" x="135.818438" xlink:href="#m0a22c9b52c" y="243.311864"/>
     <use style="fill:#ff7f0e;stroke:#ff7f0e;" x="144.188438" xlink:href="#m0a22c9b52c" y="240.489625"/>
     <use style="fill:#ff7f0e;stroke:#ff7f0e;" x="152.558438" xlink:href="#m0a22c9b52c" y="234.785877"/>
     <use style="fill:#ff7f0e;stroke:#ff7f0e;" x="160.928438" xlink:href="#m0a22c9b52c" y="227.554429"/>
     <use style="fill:#ff7f0e;stroke:#ff7f0e;" x="169.298438" xlink:href="#m0a22c9b52c" y="219.91008"/>
     <use style="fill:#ff7f0e;stroke:#ff7f0e;" x="177.668438" xlink:href="#m0a22c9b52c" y="212.464504"/>
     <use style="fill:#ff7f0e;stroke:#ff7f0e;" x="186.038438" xlink:href="#m0a22c9b52c" y="205.256654"/>
     <use style="fill:#ff7f0e;stroke:#ff7f0e;" x="194.408438" xlink:href="#m0a22c9b52c" y="197.895097"/>
     <use style="fill:#ff7f0e;stroke:#ff7f0e;" x="202.778437" xlink:href="#m0a22c9b52c" y="189.870336"/>
     <use style="fill:#ff7f0e;stroke:#ff7f0e;" x="211.148438" xlink:href="#m0a22c9b52c" y="180.91584"/>
     <use style="fill:#ff7f0e;stroke:#ff7f0e;" x="219.518438" xlink:href="#m0a22c9b52c" y="171.243599"/>
     <use style="fill:#ff7f0e;stroke:#ff7f0e;" x="227.888438" xlink:href="#m0a22c9b52c" y="161.518477"/>
     <use style="fill:#ff7f0e;stroke:#ff7f0e;" x="236.258438" xlink:href="#m0a22c9b52c" y="152.576066"/>
     <use style="fill:#ff7f0e;stroke:#ff7f0e;" x="244.628438" xlink:href="#m0a22c9b52c" y="145.048479"/>
     <use style="fill:#ff7f0e;stroke:#ff7f0e;" x="252.998438" xlink:href="#m0a22c9b52c" y="139.121946"/>
     <use style="fill:#ff7f0e;stroke:#ff7f0e;" x="261.368438" xlink:href="#m0a22c9b52c" y="134.556466"/>
     <use style="fill:#ff7f0e;stroke:#ff7f0e;" x="269.738438" xlink:href="#m0a22c9b52c" y="130.919773"/>
     <use style="fill:#ff7f0e;stroke:#ff7f0e;" x="278.108438" xlink:href="#m0a22c9b52c" y="127.861102"/>
     <use style="fill:#ff7f0e;stroke:#ff7f0e;" x="286.478438" xlink:href="#m0a22c9b52c" y="125.25987"/>
     <use style="fill:#ff7f0e;stroke:#ff7f0e;" x="294.848438" xlink:href="#m0a22c9b52c" y="123.19898"/>
     <use style="fill:#ff7f0e;stroke:#ff7f0e;" x="303.218437" xlink:href="#m0a22c9b52c" y="121.824983"/>
     <use style="fill:#ff7f0e;stroke:#ff7f0e;" x="311.588437" xlink:href="#m0a22c9b52c" y="121.190265"/>
     <use style="fill:#ff7f0e;stroke:#ff7f0e;" x="319.958438" xlink:href="#m0a22c9b52c" y="121.13858"/>
     <use style="fill:#ff7f0e;stroke:#ff7f0e;" x="328.328438" xlink:href="#m0a22c9b52c" y="121.258899"/>
     <use style="fill:#ff7f0e;stroke:#ff7f0e;" x="336.698438" xlink:href="#m0a22c9b52c" y="120.928939"/>
     <use style="fill:#ff7f0e;stroke:#ff7f0e;" x="345.068438" xlink:href="#m0a22c9b52c" y="119.470972"/>
     <use style="fill:#ff7f0e;stroke:#ff7f0e;" x="353.438438" xlink:href="#m0a22c9b52c" y="116.404626"/>
     <use style="fill:#ff7f0e;stroke:#ff7f0e;" x="361.808438" xlink:href="#m0a22c9b52c" y="111.709429"/>
     <use style="fill:#ff7f0e;stroke:#ff7f0e;" x="370.178438" xlink:href="#m0a22c9b52c" y="105.963121"/>
     <use style="fill:#ff7f0e;stroke:#ff7f0e;" x="378.548438" xlink:href="#m0a22c9b52c" y="100.25722"/>
     <use style="fill:#ff7f0e;stroke:#ff7f0e;" x="386.918437" xlink:href="#m0a22c9b52c" y="95.900727"/>
    </g>
   </g>
   <g id="line2d_19">
    <path clip-path="url(#pe2e446141f)" d="M 52.118437 84.876894 
L 60.488438 84.073071 
L 68.858438 84.632646 
L 77.228438 86.315726 
L 85.598437 89.156411 
L 93.968437 93.195278 
L 102.338438 98.209868 
L 110.708438 103.615572 
L 119.078438 108.603135 
L 127.448437 112.450098 
L 135.818438 114.84894 
L 144.188438 116.07641 
L 152.558438 116.901196 
L 160.928438 118.263982 
L 169.298438 120.893893 
L 177.668438 125.066212 
L 186.038438 130.623044 
L 194.408438 137.216206 
L 202.778437 144.593245 
L 211.148438 152.723182 
L 219.518438 161.666155 
L 227.888438 171.26423 
L 236.258438 180.86177 
L 244.628438 189.269936 
L 252.998438 195.060626 
L 261.368438 197.082042 
L 269.738438 194.944205 
L 278.108438 189.217399 
L 286.478438 181.227626 
L 294.848438 172.541054 
L 303.218437 164.384841 
L 311.588437 157.27177 
L 319.958438 150.980771 
L 328.328438 144.867788 
L 336.698438 138.33447 
L 345.068438 131.227874 
L 353.438438 123.992328 
L 361.808438 117.514185 
L 370.178438 112.738337 
L 378.548438 110.234759 
L 386.918437 109.910084 
" style="fill:none;stroke:#2ca02c;stroke-linecap:round;stroke-width:1.5;"/>
    <defs>
     <path d="M 0 1.5 
C 0.397805 1.5 0.77937 1.341951 1.06066 1.06066 
C 1.341951 0.77937 1.5 0.397805 1.5 0 
C 1.5 -0.397805 1.341951 -0.77937 1.06066 -1.06066 
C 0.77937 -1.341951 0.397805 -1.5 0 -1.5 
C -0.397805 -1.5 -0.77937 -1.341951 -1.06066 -1.06066 
C -1.341951 -0.77937 -1.5 -0.397805 -1.5 0 
C -1.5 0.397805 -1.341951 0.77937 -1.06066 1.06066 
C -0.77937 1.341951 -0.397805 1.5 0 1.5 
z
" id="m820169275c" style="stroke:#2ca02c;"/>
    </defs>
    <g clip-path="url(#pe2e446141f)">
     <use style="fill:#2ca02c;stroke:#2ca02c;" x="52.118437" xlink:href="#m820169275c" y="84.876894"/>
     <use style="fill:#2ca02c;stroke:#2ca02c;" x="60.488438" xlink:href="#m820169275c" y="84.073071"/>
     <use style="fill:#2ca02c;stroke:#2ca02c;" x="68.858438" xlink:href="#m820169275c" y="84.632646"/>
     <use style="fill:#2ca02c;stroke:#2ca02c;" x="77.228438" xlink:href="#m820169275c" y="86.315726"/>
     <use style="fill:#2ca02c;stroke:#2ca02c;" x="85.598437" xlink:href="#m820169275c" y="89.156411"/>
     <use style="fill:#2ca02c;stroke:#2ca02c;" x="93.968437" xlink:href="#m820169275c" y="93.195278"/>
     <use style="fill:#2ca02c;stroke:#2ca02c;" x="102.338438" xlink:href="#m820169275c" y="98.209868"/>
     <use style="fill:#2ca02c;stroke:#2ca02c;" x="110.708438" xlink:href="#m820169275c" y="103.615572"/>
     <use style="fill:#2ca02c;stroke:#2ca02c;" x="119.078438" xlink:href="#m820169275c" y="108.603135"/>
     <use style="fill:#2ca02c;stroke:#2ca02c;" x="127.448437" xlink:href="#m820169275c" y="112.450098"/>
     <use style="fill:#2ca02c;stroke:#2ca02c;" x="135.818438" xlink:href="#m820169275c" y="114.84894"/>
     <use style="fill:#2ca02c;stroke:#2ca02c;" x="144.188438" xlink:href="#m820169275c" y="116.07641"/>
     <use style="fill:#2ca02c;stroke:#2ca02c;" x="152.558438" xlink:href="#m820169275c" y="116.901196"/>
     <use style="fill:#2ca02c;stroke:#2ca02c;" x="160.928438" xlink:href="#m820169275c" y="118.263982"/>
     <use style="fill:#2ca02c;stroke:#2ca02c;" x="169.298438" xlink:href="#m820169275c" y="120.893893"/>
     <use style="fill:#2ca02c;stroke:#2ca02c;" x="177.668438" xlink:href="#m820169275c" y="125.066212"/>
     <use style="fill:#2ca02c;stroke:#2ca02c;" x="186.038438" xlink:href="#m820169275c" y="130.623044"/>
     <use style="fill:#2ca02c;stroke:#2ca02c;" x="194.408438" xlink:href="#m820169275c" y="137.216206"/>
     <use style="fill:#2ca02c;stroke:#2ca02c;" x="202.778437" xlink:href="#m820169275c" y="144.593245"/>
     <use style="fill:#2ca02c;stroke:#2ca02c;" x="211.148438" xlink:href="#m820169275c" y="152.723182"/>
     <use style="fill:#2ca02c;stroke:#2ca02c;" x="219.518438" xlink:href="#m820169275c" y="161.666155"/>
     <use style="fill:#2ca02c;stroke:#2ca02c;" x="227.888438" xlink:href="#m820169275c" y="171.26423"/>
     <use style="fill:#2ca02c;stroke:#2ca02c;" x="236.258438" xlink:href="#m820169275c" y="180.86177"/>
     <use style="fill:#2ca02c;stroke:#2ca02c;" x="244.628438" xlink:href="#m820169275c" y="189.269936"/>
     <use style="fill:#2ca02c;stroke:#2ca02c;" x="252.998438" xlink:href="#m820169275c" y="195.060626"/>
     <use style="fill:#2ca02c;stroke:#2ca02c;" x="261.368438" xlink:href="#m820169275c" y="197.082042"/>
     <use style="fill:#2ca02c;stroke:#2ca02c;" x="269.738438" xlink:href="#m820169275c" y="194.944205"/>
     <use style="fill:#2ca02c;stroke:#2ca02c;" x="278.108438" xlink:href="#m820169275c" y="189.217399"/>
     <use style="fill:#2ca02c;stroke:#2ca02c;" x="286.478438" xlink:href="#m820169275c" y="181.227626"/>
     <use style="fill:#2ca02c;stroke:#2ca02c;" x="294.848438" xlink:href="#m820169275c" y="172.541054"/>
     <use style="fill:#2ca02c;stroke:#2ca02c;" x="303.218437" xlink:href="#m820169275c" y="164.384841"/>
     <use style="fill:#2ca02c;stroke:#2ca02c;" x="311.588437" xlink:href="#m820169275c" y="157.27177"/>
     <use style="fill:#2ca02c;stroke:#2ca02c;" x="319.958438" xlink:href="#m820169275c" y="150.980771"/>
     <use style="fill:#2ca02c;stroke:#2ca02c;" x="328.328438" xlink:href="#m820169275c" y="144.867788"/>
     <use style="fill:#2ca02c;stroke:#2ca02c;" x="336.698438" xlink:href="#m820169275c" y="138.33447"/>
     <use style="fill:#2ca02c;stroke:#2ca02c;" x="345.068438" xlink:href="#m820169275c" y="131.227874"/>
     <use style="fill:#2ca02c;stroke:#2ca02c;" x="353.438438" xlink:href="#m820169275c" y="123.992328"/>
     <use style="fill:#2ca02c;stroke:#2ca02c;" x="361.808438" xlink:href="#m820169275c" y="117.514185"/>
     <use style="fill:#2ca02c;stroke:#2ca02c;" x="370.178438" xlink:href="#m820169275c" y="112.738337"/>
     <use style="fill:#2ca02c;stroke:#2ca02c;" x="378.548438" xlink:href="#m820169275c" y="110.234759"/>
     <use style="fill:#2ca02c;stroke:#2ca02c;" x="386.918437" xlink:href="#m820169275c" y="109.910084"/>
    </g>
   </g>
   <g id="line2d_20">
    <path clip-path="url(#pe2e446141f)" d="M 52.118437 180.168698 
L 60.488438 176.166904 
L 68.858438 172.520282 
L 77.228438 170.020457 
L 85.598437 169.024259 
L 93.968437 169.249692 
L 102.338438 169.802112 
L 110.708438 169.479821 
L 119.078438 167.241498 
L 127.448437 162.613929 
L 135.818438 155.851828 
L 144.188438 147.806281 
L 152.558438 139.611328 
L 160.928438 132.359994 
L 169.298438 126.886156 
L 177.668438 123.657559 
L 186.038438 122.713011 
L 194.408438 123.59722 
L 202.778437 125.331201 
L 211.148438 126.518287 
L 219.518438 125.652711 
L 227.888438 121.575095 
L 236.258438 113.893668 
L 244.628438 103.164267 
L 252.998438 90.731037 
L 261.368438 78.308362 
L 269.738438 67.513177 
L 278.108438 59.552856 
L 286.478438 55.151137 
L 294.848438 54.647053 
L 303.218437 58.126084 
L 311.588437 65.470516 
L 319.958438 76.305413 
L 328.328438 89.899586 
L 336.698438 105.114375 
L 345.068438 120.472688 
L 353.438438 134.366045 
L 361.808438 145.354095 
L 370.178438 152.465561 
L 378.548438 155.402188 
L 386.918437 154.579511 
" style="fill:none;stroke:#d62728;stroke-linecap:round;stroke-width:1.5;"/>
    <defs>
     <path d="M 0 1.5 
C 0.397805 1.5 0.77937 1.341951 1.06066 1.06066 
C 1.341951 0.77937 1.5 0.397805 1.5 0 
C 1.5 -0.397805 1.341951 -0.77937 1.06066 -1.06066 
C 0.77937 -1.341951 0.397805 -1.5 0 -1.5 
C -0.397805 -1.5 -0.77937 -1.341951 -1.06066 -1.06066 
C -1.341951 -0.77937 -1.5 -0.397805 -1.5 0 
C -1.5 0.397805 -1.341951 0.77937 -1.06066 1.06066 
C -0.77937 1.341951 -0.397805 1.5 0 1.5 
z
" id="md66335706d" style="stroke:#d62728;"/>
    </defs>
    <g clip-path="url(#pe2e446141f)">
     <use style="fill:#d62728;stroke:#d62728;" x="52.118437" xlink:href="#md66335706d" y="180.168698"/>
     <use style="fill:#d62728;stroke:#d62728;" x="60.488438" xlink:href="#md66335706d" y="176.166904"/>
     <use style="fill:#d62728;stroke:#d62728;" x="68.858438" xlink:href="#md66335706d" y="172.520282"/>
     <use style="fill:#d62728;stroke:#d62728;" x="77.228438" xlink:href="#md66335706d" y="170.020457"/>
     <use style="fill:#d62728;stroke:#d62728;" x="85.598437" xlink:href="#md66335706d" y="169.024259"/>
     <use style="fill:#d62728;stroke:#d62728;" x="93.968437" xlink:href="#md66335706d" y="169.249692"/>
     <use style="fill:#d62728;stroke:#d62728;" x="102.338438" xlink:href="#md66335706d" y="169.802112"/>
     <use style="fill:#d62728;stroke:#d62728;" x="110.708438" xlink:href="#md66335706d" y="169.479821"/>
     <use style="fill:#d62728;stroke:#d62728;" x="119.078438" xlink:href="#md66335706d" y="167.241498"/>
     <use style="fill:#d62728;stroke:#d62728;" x="127.448437" xlink:href="#md66335706d" y="162.613929"/>
     <use style="fill:#d62728;stroke:#d62728;" x="135.818438" xlink:href="#md66335706d" y="155.851828"/>
     <use style="fill:#d62728;stroke:#d62728;" x="144.188438" xlink:href="#md66335706d" y="147.806281"/>
     <use style="fill:#d62728;stroke:#d62728;" x="152.558438" xlink:href="#md66335706d" y="139.611328"/>
     <use style="fill:#d62728;stroke:#d62728;" x="160.928438" xlink:href="#md66335706d" y="132.359994"/>
     <use style="fill:#d62728;stroke:#d62728;" x="169.298438" xlink:href="#md66335706d" y="126.886156"/>
     <use style="fill:#d62728;stroke:#d62728;" x="177.668438" xlink:href="#md66335706d" y="123.657559"/>
     <use style="fill:#d62728;stroke:#d62728;" x="186.038438" xlink:href="#md66335706d" y="122.713011"/>
     <use style="fill:#d62728;stroke:#d62728;" x="194.408438" xlink:href="#md66335706d" y="123.59722"/>
     <use style="fill:#d62728;stroke:#d62728;" x="202.778437" xlink:href="#md66335706d" y="125.331201"/>
     <use style="fill:#d62728;stroke:#d62728;" x="211.148438" xlink:href="#md66335706d" y="126.518287"/>
     <use style="fill:#d62728;stroke:#d62728;" x="219.518438" xlink:href="#md66335706d" y="125.652711"/>
     <use style="fill:#d62728;stroke:#d62728;" x="227.888438" xlink:href="#md66335706d" y="121.575095"/>
     <use style="fill:#d62728;stroke:#d62728;" x="236.258438" xlink:href="#md66335706d" y="113.893668"/>
     <use style="fill:#d62728;stroke:#d62728;" x="244.628438" xlink:href="#md66335706d" y="103.164267"/>
     <use style="fill:#d62728;stroke:#d62728;" x="252.998438" xlink:href="#md66335706d" y="90.731037"/>
     <use style="fill:#d62728;stroke:#d62728;" x="261.368438" xlink:href="#md66335706d" y="78.308362"/>
     <use style="fill:#d62728;stroke:#d62728;" x="269.738438" xlink:href="#md66335706d" y="67.513177"/>
     <use style="fill:#d62728;stroke:#d62728;" x="278.108438" xlink:href="#md66335706d" y="59.552856"/>
     <use style="fill:#d62728;stroke:#d62728;" x="286.478438" xlink:href="#md66335706d" y="55.151137"/>
     <use style="fill:#d62728;stroke:#d62728;" x="294.848438" xlink:href="#md66335706d" y="54.647053"/>
     <use style="fill:#d62728;stroke:#d62728;" x="303.218437" xlink:href="#md66335706d" y="58.126084"/>
     <use style="fill:#d62728;stroke:#d62728;" x="311.588437" xlink:href="#md66335706d" y="65.470516"/>
     <use style="fill:#d62728;stroke:#d62728;" x="319.958438" xlink:href="#md66335706d" y="76.305413"/>
     <use style="fill:#d62728;stroke:#d62728;" x="328.328438" xlink:href="#md66335706d" y="89.899586"/>
     <use style="fill:#d62728;stroke:#d62728;" x="336.698438" xlink:href="#md66335706d" y="105.114375"/>
     <use style="fill:#d62728;stroke:#d62728;" x="345.068438" xlink:href="#md66335706d" y="120.472688"/>
     <use style="fill:#d62728;stroke:#d62728;" x="353.438438" xlink:href="#md66335706d" y="134.366045"/>
     <use style="fill:#d62728;stroke:#d62728;" x="361.808438" xlink:href="#md66335706d" y="145.354095"/>
     <use style="fill:#d62728;stroke:#d62728;" x="370.178438" xlink:href="#md66335706d" y="152.465561"/>
     <use style="fill:#d62728;stroke:#d62728;" x="378.548438" xlink:href="#md66335706d" y="155.402188"/>
     <use style="fill:#d62728;stroke:#d62728;" x="386.918437" xlink:href="#md66335706d" y="154.579511"/>
    </g>
   </g>
   <g id="line2d_21">
    <path clip-path="url(#pe2e446141f)" d="M 52.118437 122.127749 
L 60.488438 126.563092 
L 68.858438 131.888941 
L 77.228438 136.85152 
L 85.598437 140.555008 
L 93.968437 142.693727 
L 102.338438 143.611829 
L 110.708438 144.153522 
L 119.078438 145.346012 
L 127.448437 148.026492 
L 135.818438 152.544871 
L 144.188438 158.638286 
L 152.558438 165.508574 
L 160.928438 172.070802 
L 169.298438 177.291416 
L 177.668438 180.501023 
L 186.038438 181.56442 
L 194.408438 180.840171 
L 202.778437 178.959095 
L 211.148438 176.54479 
L 219.518438 174.022911 
L 227.888438 171.596842 
L 236.258438 169.355113 
L 244.628438 167.404465 
L 252.998438 165.936771 
L 261.368438 165.207853 
L 269.738438 165.463435 
L 278.108438 166.854502 
L 286.478438 169.363147 
L 294.848438 172.75294 
L 303.218437 176.573213 
L 311.588437 180.250006 
L 319.958438 183.257875 
L 328.328438 185.304923 
L 336.698438 186.43411 
L 345.068438 186.98195 
L 353.438438 187.416575 
L 361.808438 188.137024 
L 370.178438 189.312975 
L 378.548438 190.79748 
L 386.918437 192.108787 
" style="fill:none;stroke:#9467bd;stroke-linecap:round;stroke-width:1.5;"/>
    <defs>
     <path d="M 0 1.5 
C 0.397805 1.5 0.77937 1.341951 1.06066 1.06066 
C 1.341951 0.77937 1.5 0.397805 1.5 0 
C 1.5 -0.397805 1.341951 -0.77937 1.06066 -1.06066 
C 0.77937 -1.341951 0.397805 -1.5 0 -1.5 
C -0.397805 -1.5 -0.77937 -1.341951 -1.06066 -1.06066 
C -1.341951 -0.77937 -1.5 -0.397805 -1.5 0 
C -1.5 0.397805 -1.341951 0.77937 -1.06066 1.06066 
C -0.77937 1.341951 -0.397805 1.5 0 1.5 
z
" id="m31c6f373b1" style="stroke:#9467bd;"/>
    </defs>
    <g clip-path="url(#pe2e446141f)">
     <use style="fill:#9467bd;stroke:#9467bd;" x="52.118437" xlink:href="#m31c6f373b1" y="122.127749"/>
     <use style="fill:#9467bd;stroke:#9467bd;" x="60.488438" xlink:href="#m31c6f373b1" y="126.563092"/>
     <use style="fill:#9467bd;stroke:#9467bd;" x="68.858438" xlink:href="#m31c6f373b1" y="131.888941"/>
     <use style="fill:#9467bd;stroke:#9467bd;" x="77.228438" xlink:href="#m31c6f373b1" y="136.85152"/>
     <use style="fill:#9467bd;stroke:#9467bd;" x="85.598437" xlink:href="#m31c6f373b1" y="140.555008"/>
     <use style="fill:#9467bd;stroke:#9467bd;" x="93.968437" xlink:href="#m31c6f373b1" y="142.693727"/>
     <use style="fill:#9467bd;stroke:#9467bd;" x="102.338438" xlink:href="#m31c6f373b1" y="143.611829"/>
     <use style="fill:#9467bd;stroke:#9467bd;" x="110.708438" xlink:href="#m31c6f373b1" y="144.153522"/>
     <use style="fill:#9467bd;stroke:#9467bd;" x="119.078438" xlink:href="#m31c6f373b1" y="145.346012"/>
     <use style="fill:#9467bd;stroke:#9467bd;" x="127.448437" xlink:href="#m31c6f373b1" y="148.026492"/>
     <use style="fill:#9467bd;stroke:#9467bd;" x="135.818438" xlink:href="#m31c6f373b1" y="152.544871"/>
     <use style="fill:#9467bd;stroke:#9467bd;" x="144.188438" xlink:href="#m31c6f373b1" y="158.638286"/>
     <use style="fill:#9467bd;stroke:#9467bd;" x="152.558438" xlink:href="#m31c6f373b1" y="165.508574"/>
     <use style="fill:#9467bd;stroke:#9467bd;" x="160.928438" xlink:href="#m31c6f373b1" y="172.070802"/>
     <use style="fill:#9467bd;stroke:#9467bd;" x="169.298438" xlink:href="#m31c6f373b1" y="177.291416"/>
     <use style="fill:#9467bd;stroke:#9467bd;" x="177.668438" xlink:href="#m31c6f373b1" y="180.501023"/>
     <use style="fill:#9467bd;stroke:#9467bd;" x="186.038438" xlink:href="#m31c6f373b1" y="181.56442"/>
     <use style="fill:#9467bd;stroke:#9467bd;" x="194.408438" xlink:href="#m31c6f373b1" y="180.840171"/>
     <use style="fill:#9467bd;stroke:#9467bd;" x="202.778437" xlink:href="#m31c6f373b1" y="178.959095"/>
     <use style="fill:#9467bd;stroke:#9467bd;" x="211.148438" xlink:href="#m31c6f373b1" y="176.54479"/>
     <use style="fill:#9467bd;stroke:#9467bd;" x="219.518438" xlink:href="#m31c6f373b1" y="174.022911"/>
     <use style="fill:#9467bd;stroke:#9467bd;" x="227.888438" xlink:href="#m31c6f373b1" y="171.596842"/>
     <use style="fill:#9467bd;stroke:#9467bd;" x="236.258438" xlink:href="#m31c6f373b1" y="169.355113"/>
     <use style="fill:#9467bd;stroke:#9467bd;" x="244.628438" xlink:href="#m31c6f373b1" y="167.404465"/>
     <use style="fill:#9467bd;stroke:#9467bd;" x="252.998438" xlink:href="#m31c6f373b1" y="165.936771"/>
     <use style="fill:#9467bd;stroke:#9467bd;" x="261.368438" xlink:href="#m31c6f373b1" y="165.207853"/>
     <use style="fill:#9467bd;stroke:#9467bd;" x="269.738438" xlink:href="#m31c6f373b1" y="165.463435"/>
     <use style="fill:#9467bd;stroke:#9467bd;" x="278.108438" xlink:href="#m31c6f373b1" y="166.854502"/>
     <use style="fill:#9467bd;stroke:#9467bd;" x="286.478438" xlink:href="#m31c6f373b1" y="169.363147"/>
     <use style="fill:#9467bd;stroke:#9467bd;" x="294.848438" xlink:href="#m31c6f373b1" y="172.75294"/>
     <use style="fill:#9467bd;stroke:#9467bd;" x="303.218437" xlink:href="#m31c6f373b1" y="176.573213"/>
     <use style="fill:#9467bd;stroke:#9467bd;" x="311.588437" xlink:href="#m31c6f373b1" y="180.250006"/>
     <use style="fill:#9467bd;stroke:#9467bd;" x="319.958438" xlink:href="#m31c6f373b1" y="183.257875"/>
     <use style="fill:#9467bd;stroke:#9467bd;" x="328.328438" xlink:href="#m31c6f373b1" y="185.304923"/>
     <use style="fill:#9467bd;stroke:#9467bd;" x="336.698438" xlink:href="#m31c6f373b1" y="186.43411"/>
     <use style="fill:#9467bd;stroke:#9467bd;" x="345.068438" xlink:href="#m31c6f373b1" y="186.98195"/>
     <use style="fill:#9467bd;stroke:#9467bd;" x="353.438438" xlink:href="#m31c6f373b1" y="187.416575"/>
     <use style="fill:#9467bd;stroke:#9467bd;" x="361.808438" xlink:href="#m31c6f373b1" y="188.137024"/>
     <use style="fill:#9467bd;stroke:#9467bd;" x="370.178438" xlink:href="#m31c6f373b1" y="189.312975"/>
     <use style="fill:#9467bd;stroke:#9467bd;" x="378.548438" xlink:href="#m31c6f373b1" y="190.79748"/>
     <use style="fill:#9467bd;stroke:#9467bd;" x="386.918437" xlink:href="#m31c6f373b1" y="192.108787"/>
    </g>
   </g>
   <g id="patch_3">
    <path d="M 52.118437 253.1955 
L 52.118437 35.7555 
" style="fill:none;stroke:#ffffff;stroke-linecap:square;stroke-linejoin:miter;stroke-width:0.8;"/>
   </g>
   <g id="patch_4">
    <path d="M 386.918437 253.1955 
L 386.918437 35.7555 
" style="fill:none;stroke:#ffffff;stroke-linecap:square;stroke-linejoin:miter;stroke-width:0.8;"/>
   </g>
   <g id="patch_5">
    <path d="M 52.118437 253.1955 
L 386.918437 253.1955 
" style="fill:none;stroke:#ffffff;stroke-linecap:square;stroke-linejoin:miter;stroke-width:0.8;"/>
   </g>
   <g id="patch_6">
    <path d="M 52.118437 35.7555 
L 386.918437 35.7555 
" style="fill:none;stroke:#ffffff;stroke-linecap:square;stroke-linejoin:miter;stroke-width:0.8;"/>
   </g>
   <g id="text_19">
    <!-- 5 different function realizations at 41 points -->
    <g style="fill:#262626;" transform="translate(87.610313 16.318125)scale(0.12 -0.12)">
     <defs>
      <path d="M 691 4666 
L 3169 4666 
L 3169 4134 
L 1269 4134 
L 1269 2991 
Q 1406 3038 1543 3061 
Q 1681 3084 1819 3084 
Q 2600 3084 3056 2656 
Q 3513 2228 3513 1497 
Q 3513 744 3044 326 
Q 2575 -91 1722 -91 
Q 1428 -91 1123 -41 
Q 819 9 494 109 
L 494 744 
Q 775 591 1075 516 
Q 1375 441 1709 441 
Q 2250 441 2565 725 
Q 2881 1009 2881 1497 
Q 2881 1984 2565 2268 
Q 2250 2553 1709 2553 
Q 1456 2553 1204 2497 
Q 953 2441 691 2322 
L 691 4666 
z
" id="DejaVuSans-35" transform="scale(0.015625)"/>
      <path id="DejaVuSans-20" transform="scale(0.015625)"/>
      <path d="M 2906 2969 
L 2906 4863 
L 3481 4863 
L 3481 0 
L 2906 0 
L 2906 525 
Q 2725 213 2448 61 
Q 2172 -91 1784 -91 
Q 1150 -91 751 415 
Q 353 922 353 1747 
Q 353 2572 751 3078 
Q 1150 3584 1784 3584 
Q 2172 3584 2448 3432 
Q 2725 3281 2906 2969 
z
M 947 1747 
Q 947 1113 1208 752 
Q 1469 391 1925 391 
Q 2381 391 2643 752 
Q 2906 1113 2906 1747 
Q 2906 2381 2643 2742 
Q 2381 3103 1925 3103 
Q 1469 3103 1208 2742 
Q 947 2381 947 1747 
z
" id="DejaVuSans-64" transform="scale(0.015625)"/>
      <path d="M 603 3500 
L 1178 3500 
L 1178 0 
L 603 0 
L 603 3500 
z
M 603 4863 
L 1178 4863 
L 1178 4134 
L 603 4134 
L 603 4863 
z
" id="DejaVuSans-69" transform="scale(0.015625)"/>
      <path d="M 2375 4863 
L 2375 4384 
L 1825 4384 
Q 1516 4384 1395 4259 
Q 1275 4134 1275 3809 
L 1275 3500 
L 2222 3500 
L 2222 3053 
L 1275 3053 
L 1275 0 
L 697 0 
L 697 3053 
L 147 3053 
L 147 3500 
L 697 3500 
L 697 3744 
Q 697 4328 969 4595 
Q 1241 4863 1831 4863 
L 2375 4863 
z
" id="DejaVuSans-66" transform="scale(0.015625)"/>
      <path d="M 3597 1894 
L 3597 1613 
L 953 1613 
Q 991 1019 1311 708 
Q 1631 397 2203 397 
Q 2534 397 2845 478 
Q 3156 559 3463 722 
L 3463 178 
Q 3153 47 2828 -22 
Q 2503 -91 2169 -91 
Q 1331 -91 842 396 
Q 353 884 353 1716 
Q 353 2575 817 3079 
Q 1281 3584 2069 3584 
Q 2775 3584 3186 3129 
Q 3597 2675 3597 1894 
z
M 3022 2063 
Q 3016 2534 2758 2815 
Q 2500 3097 2075 3097 
Q 1594 3097 1305 2825 
Q 1016 2553 972 2059 
L 3022 2063 
z
" id="DejaVuSans-65" transform="scale(0.015625)"/>
      <path d="M 2631 2963 
Q 2534 3019 2420 3045 
Q 2306 3072 2169 3072 
Q 1681 3072 1420 2755 
Q 1159 2438 1159 1844 
L 1159 0 
L 581 0 
L 581 3500 
L 1159 3500 
L 1159 2956 
Q 1341 3275 1631 3429 
Q 1922 3584 2338 3584 
Q 2397 3584 2469 3576 
Q 2541 3569 2628 3553 
L 2631 2963 
z
" id="DejaVuSans-72" transform="scale(0.015625)"/>
      <path d="M 3513 2113 
L 3513 0 
L 2938 0 
L 2938 2094 
Q 2938 2591 2744 2837 
Q 2550 3084 2163 3084 
Q 1697 3084 1428 2787 
Q 1159 2491 1159 1978 
L 1159 0 
L 581 0 
L 581 3500 
L 1159 3500 
L 1159 2956 
Q 1366 3272 1645 3428 
Q 1925 3584 2291 3584 
Q 2894 3584 3203 3211 
Q 3513 2838 3513 2113 
z
" id="DejaVuSans-6e" transform="scale(0.015625)"/>
      <path d="M 1172 4494 
L 1172 3500 
L 2356 3500 
L 2356 3053 
L 1172 3053 
L 1172 1153 
Q 1172 725 1289 603 
Q 1406 481 1766 481 
L 2356 481 
L 2356 0 
L 1766 0 
Q 1100 0 847 248 
Q 594 497 594 1153 
L 594 3053 
L 172 3053 
L 172 3500 
L 594 3500 
L 594 4494 
L 1172 4494 
z
" id="DejaVuSans-74" transform="scale(0.015625)"/>
      <path d="M 544 1381 
L 544 3500 
L 1119 3500 
L 1119 1403 
Q 1119 906 1312 657 
Q 1506 409 1894 409 
Q 2359 409 2629 706 
Q 2900 1003 2900 1516 
L 2900 3500 
L 3475 3500 
L 3475 0 
L 2900 0 
L 2900 538 
Q 2691 219 2414 64 
Q 2138 -91 1772 -91 
Q 1169 -91 856 284 
Q 544 659 544 1381 
z
M 1991 3584 
L 1991 3584 
z
" id="DejaVuSans-75" transform="scale(0.015625)"/>
      <path d="M 3122 3366 
L 3122 2828 
Q 2878 2963 2633 3030 
Q 2388 3097 2138 3097 
Q 1578 3097 1268 2742 
Q 959 2388 959 1747 
Q 959 1106 1268 751 
Q 1578 397 2138 397 
Q 2388 397 2633 464 
Q 2878 531 3122 666 
L 3122 134 
Q 2881 22 2623 -34 
Q 2366 -91 2075 -91 
Q 1284 -91 818 406 
Q 353 903 353 1747 
Q 353 2603 823 3093 
Q 1294 3584 2113 3584 
Q 2378 3584 2631 3529 
Q 2884 3475 3122 3366 
z
" id="DejaVuSans-63" transform="scale(0.015625)"/>
      <path d="M 1959 3097 
Q 1497 3097 1228 2736 
Q 959 2375 959 1747 
Q 959 1119 1226 758 
Q 1494 397 1959 397 
Q 2419 397 2687 759 
Q 2956 1122 2956 1747 
Q 2956 2369 2687 2733 
Q 2419 3097 1959 3097 
z
M 1959 3584 
Q 2709 3584 3137 3096 
Q 3566 2609 3566 1747 
Q 3566 888 3137 398 
Q 2709 -91 1959 -91 
Q 1206 -91 779 398 
Q 353 888 353 1747 
Q 353 2609 779 3096 
Q 1206 3584 1959 3584 
z
" id="DejaVuSans-6f" transform="scale(0.015625)"/>
      <path d="M 2194 1759 
Q 1497 1759 1228 1600 
Q 959 1441 959 1056 
Q 959 750 1161 570 
Q 1363 391 1709 391 
Q 2188 391 2477 730 
Q 2766 1069 2766 1631 
L 2766 1759 
L 2194 1759 
z
M 3341 1997 
L 3341 0 
L 2766 0 
L 2766 531 
Q 2569 213 2275 61 
Q 1981 -91 1556 -91 
Q 1019 -91 701 211 
Q 384 513 384 1019 
Q 384 1609 779 1909 
Q 1175 2209 1959 2209 
L 2766 2209 
L 2766 2266 
Q 2766 2663 2505 2880 
Q 2244 3097 1772 3097 
Q 1472 3097 1187 3025 
Q 903 2953 641 2809 
L 641 3341 
Q 956 3463 1253 3523 
Q 1550 3584 1831 3584 
Q 2591 3584 2966 3190 
Q 3341 2797 3341 1997 
z
" id="DejaVuSans-61" transform="scale(0.015625)"/>
      <path d="M 603 4863 
L 1178 4863 
L 1178 0 
L 603 0 
L 603 4863 
z
" id="DejaVuSans-6c" transform="scale(0.015625)"/>
      <path d="M 353 3500 
L 3084 3500 
L 3084 2975 
L 922 459 
L 3084 459 
L 3084 0 
L 275 0 
L 275 525 
L 2438 3041 
L 353 3041 
L 353 3500 
z
" id="DejaVuSans-7a" transform="scale(0.015625)"/>
      <path d="M 2834 3397 
L 2834 2853 
Q 2591 2978 2328 3040 
Q 2066 3103 1784 3103 
Q 1356 3103 1142 2972 
Q 928 2841 928 2578 
Q 928 2378 1081 2264 
Q 1234 2150 1697 2047 
L 1894 2003 
Q 2506 1872 2764 1633 
Q 3022 1394 3022 966 
Q 3022 478 2636 193 
Q 2250 -91 1575 -91 
Q 1294 -91 989 -36 
Q 684 19 347 128 
L 347 722 
Q 666 556 975 473 
Q 1284 391 1588 391 
Q 1994 391 2212 530 
Q 2431 669 2431 922 
Q 2431 1156 2273 1281 
Q 2116 1406 1581 1522 
L 1381 1569 
Q 847 1681 609 1914 
Q 372 2147 372 2553 
Q 372 3047 722 3315 
Q 1072 3584 1716 3584 
Q 2034 3584 2315 3537 
Q 2597 3491 2834 3397 
z
" id="DejaVuSans-73" transform="scale(0.015625)"/>
      <path d="M 1159 525 
L 1159 -1331 
L 581 -1331 
L 581 3500 
L 1159 3500 
L 1159 2969 
Q 1341 3281 1617 3432 
Q 1894 3584 2278 3584 
Q 2916 3584 3314 3078 
Q 3713 2572 3713 1747 
Q 3713 922 3314 415 
Q 2916 -91 2278 -91 
Q 1894 -91 1617 61 
Q 1341 213 1159 525 
z
M 3116 1747 
Q 3116 2381 2855 2742 
Q 2594 3103 2138 3103 
Q 1681 3103 1420 2742 
Q 1159 2381 1159 1747 
Q 1159 1113 1420 752 
Q 1681 391 2138 391 
Q 2594 391 2855 752 
Q 3116 1113 3116 1747 
z
" id="DejaVuSans-70" transform="scale(0.015625)"/>
     </defs>
     <use xlink:href="#DejaVuSans-35"/>
     <use x="63.623047" xlink:href="#DejaVuSans-20"/>
     <use x="95.410156" xlink:href="#DejaVuSans-64"/>
     <use x="158.886719" xlink:href="#DejaVuSans-69"/>
     <use x="186.669922" xlink:href="#DejaVuSans-66"/>
     <use x="221.875" xlink:href="#DejaVuSans-66"/>
     <use x="257.080078" xlink:href="#DejaVuSans-65"/>
     <use x="318.603516" xlink:href="#DejaVuSans-72"/>
     <use x="357.466797" xlink:href="#DejaVuSans-65"/>
     <use x="418.990234" xlink:href="#DejaVuSans-6e"/>
     <use x="482.369141" xlink:href="#DejaVuSans-74"/>
     <use x="521.578125" xlink:href="#DejaVuSans-20"/>
     <use x="553.365234" xlink:href="#DejaVuSans-66"/>
     <use x="588.570312" xlink:href="#DejaVuSans-75"/>
     <use x="651.949219" xlink:href="#DejaVuSans-6e"/>
     <use x="715.328125" xlink:href="#DejaVuSans-63"/>
     <use x="770.308594" xlink:href="#DejaVuSans-74"/>
     <use x="809.517578" xlink:href="#DejaVuSans-69"/>
     <use x="837.300781" xlink:href="#DejaVuSans-6f"/>
     <use x="898.482422" xlink:href="#DejaVuSans-6e"/>
     <use x="961.861328" xlink:href="#DejaVuSans-20"/>
     <use x="993.648438" xlink:href="#DejaVuSans-72"/>
     <use x="1032.511719" xlink:href="#DejaVuSans-65"/>
     <use x="1094.035156" xlink:href="#DejaVuSans-61"/>
     <use x="1155.314453" xlink:href="#DejaVuSans-6c"/>
     <use x="1183.097656" xlink:href="#DejaVuSans-69"/>
     <use x="1210.880859" xlink:href="#DejaVuSans-7a"/>
     <use x="1263.371094" xlink:href="#DejaVuSans-61"/>
     <use x="1324.650391" xlink:href="#DejaVuSans-74"/>
     <use x="1363.859375" xlink:href="#DejaVuSans-69"/>
     <use x="1391.642578" xlink:href="#DejaVuSans-6f"/>
     <use x="1452.824219" xlink:href="#DejaVuSans-6e"/>
     <use x="1516.203125" xlink:href="#DejaVuSans-73"/>
     <use x="1568.302734" xlink:href="#DejaVuSans-20"/>
     <use x="1600.089844" xlink:href="#DejaVuSans-61"/>
     <use x="1661.369141" xlink:href="#DejaVuSans-74"/>
     <use x="1700.578125" xlink:href="#DejaVuSans-20"/>
     <use x="1732.365234" xlink:href="#DejaVuSans-34"/>
     <use x="1795.988281" xlink:href="#DejaVuSans-31"/>
     <use x="1859.611328" xlink:href="#DejaVuSans-20"/>
     <use x="1891.398438" xlink:href="#DejaVuSans-70"/>
     <use x="1954.875" xlink:href="#DejaVuSans-6f"/>
     <use x="2016.056641" xlink:href="#DejaVuSans-69"/>
     <use x="2043.839844" xlink:href="#DejaVuSans-6e"/>
     <use x="2107.21875" xlink:href="#DejaVuSans-74"/>
     <use x="2146.427734" xlink:href="#DejaVuSans-73"/>
    </g>
    <!-- sampled from a Gaussian process with exponentiated quadratic kernel -->
    <g style="fill:#262626;" transform="translate(7.2 29.7555)scale(0.12 -0.12)">
     <defs>
      <path d="M 3328 2828 
Q 3544 3216 3844 3400 
Q 4144 3584 4550 3584 
Q 5097 3584 5394 3201 
Q 5691 2819 5691 2113 
L 5691 0 
L 5113 0 
L 5113 2094 
Q 5113 2597 4934 2840 
Q 4756 3084 4391 3084 
Q 3944 3084 3684 2787 
Q 3425 2491 3425 1978 
L 3425 0 
L 2847 0 
L 2847 2094 
Q 2847 2600 2669 2842 
Q 2491 3084 2119 3084 
Q 1678 3084 1418 2786 
Q 1159 2488 1159 1978 
L 1159 0 
L 581 0 
L 581 3500 
L 1159 3500 
L 1159 2956 
Q 1356 3278 1631 3431 
Q 1906 3584 2284 3584 
Q 2666 3584 2933 3390 
Q 3200 3197 3328 2828 
z
" id="DejaVuSans-6d" transform="scale(0.015625)"/>
      <path d="M 3809 666 
L 3809 1919 
L 2778 1919 
L 2778 2438 
L 4434 2438 
L 4434 434 
Q 4069 175 3628 42 
Q 3188 -91 2688 -91 
Q 1594 -91 976 548 
Q 359 1188 359 2328 
Q 359 3472 976 4111 
Q 1594 4750 2688 4750 
Q 3144 4750 3555 4637 
Q 3966 4525 4313 4306 
L 4313 3634 
Q 3963 3931 3569 4081 
Q 3175 4231 2741 4231 
Q 1884 4231 1454 3753 
Q 1025 3275 1025 2328 
Q 1025 1384 1454 906 
Q 1884 428 2741 428 
Q 3075 428 3337 486 
Q 3600 544 3809 666 
z
" id="DejaVuSans-47" transform="scale(0.015625)"/>
      <path d="M 269 3500 
L 844 3500 
L 1563 769 
L 2278 3500 
L 2956 3500 
L 3675 769 
L 4391 3500 
L 4966 3500 
L 4050 0 
L 3372 0 
L 2619 2869 
L 1863 0 
L 1184 0 
L 269 3500 
z
" id="DejaVuSans-77" transform="scale(0.015625)"/>
      <path d="M 3513 2113 
L 3513 0 
L 2938 0 
L 2938 2094 
Q 2938 2591 2744 2837 
Q 2550 3084 2163 3084 
Q 1697 3084 1428 2787 
Q 1159 2491 1159 1978 
L 1159 0 
L 581 0 
L 581 4863 
L 1159 4863 
L 1159 2956 
Q 1366 3272 1645 3428 
Q 1925 3584 2291 3584 
Q 2894 3584 3203 3211 
Q 3513 2838 3513 2113 
z
" id="DejaVuSans-68" transform="scale(0.015625)"/>
      <path d="M 3513 3500 
L 2247 1797 
L 3578 0 
L 2900 0 
L 1881 1375 
L 863 0 
L 184 0 
L 1544 1831 
L 300 3500 
L 978 3500 
L 1906 2253 
L 2834 3500 
L 3513 3500 
z
" id="DejaVuSans-78" transform="scale(0.015625)"/>
      <path d="M 947 1747 
Q 947 1113 1208 752 
Q 1469 391 1925 391 
Q 2381 391 2643 752 
Q 2906 1113 2906 1747 
Q 2906 2381 2643 2742 
Q 2381 3103 1925 3103 
Q 1469 3103 1208 2742 
Q 947 2381 947 1747 
z
M 2906 525 
Q 2725 213 2448 61 
Q 2172 -91 1784 -91 
Q 1150 -91 751 415 
Q 353 922 353 1747 
Q 353 2572 751 3078 
Q 1150 3584 1784 3584 
Q 2172 3584 2448 3432 
Q 2725 3281 2906 2969 
L 2906 3500 
L 3481 3500 
L 3481 -1331 
L 2906 -1331 
L 2906 525 
z
" id="DejaVuSans-71" transform="scale(0.015625)"/>
      <path d="M 581 4863 
L 1159 4863 
L 1159 1991 
L 2875 3500 
L 3609 3500 
L 1753 1863 
L 3688 0 
L 2938 0 
L 1159 1709 
L 1159 0 
L 581 0 
L 581 4863 
z
" id="DejaVuSans-6b" transform="scale(0.015625)"/>
     </defs>
     <use xlink:href="#DejaVuSans-73"/>
     <use x="52.099609" xlink:href="#DejaVuSans-61"/>
     <use x="113.378906" xlink:href="#DejaVuSans-6d"/>
     <use x="210.791016" xlink:href="#DejaVuSans-70"/>
     <use x="274.267578" xlink:href="#DejaVuSans-6c"/>
     <use x="302.050781" xlink:href="#DejaVuSans-65"/>
     <use x="363.574219" xlink:href="#DejaVuSans-64"/>
     <use x="427.050781" xlink:href="#DejaVuSans-20"/>
     <use x="458.837891" xlink:href="#DejaVuSans-66"/>
     <use x="494.042969" xlink:href="#DejaVuSans-72"/>
     <use x="532.90625" xlink:href="#DejaVuSans-6f"/>
     <use x="594.087891" xlink:href="#DejaVuSans-6d"/>
     <use x="691.5" xlink:href="#DejaVuSans-20"/>
     <use x="723.287109" xlink:href="#DejaVuSans-61"/>
     <use x="784.566406" xlink:href="#DejaVuSans-20"/>
     <use x="816.353516" xlink:href="#DejaVuSans-47"/>
     <use x="893.84375" xlink:href="#DejaVuSans-61"/>
     <use x="955.123047" xlink:href="#DejaVuSans-75"/>
     <use x="1018.501953" xlink:href="#DejaVuSans-73"/>
     <use x="1070.601562" xlink:href="#DejaVuSans-73"/>
     <use x="1122.701172" xlink:href="#DejaVuSans-69"/>
     <use x="1150.484375" xlink:href="#DejaVuSans-61"/>
     <use x="1211.763672" xlink:href="#DejaVuSans-6e"/>
     <use x="1275.142578" xlink:href="#DejaVuSans-20"/>
     <use x="1306.929688" xlink:href="#DejaVuSans-70"/>
     <use x="1370.40625" xlink:href="#DejaVuSans-72"/>
     <use x="1409.269531" xlink:href="#DejaVuSans-6f"/>
     <use x="1470.451172" xlink:href="#DejaVuSans-63"/>
     <use x="1525.431641" xlink:href="#DejaVuSans-65"/>
     <use x="1586.955078" xlink:href="#DejaVuSans-73"/>
     <use x="1639.054688" xlink:href="#DejaVuSans-73"/>
     <use x="1691.154297" xlink:href="#DejaVuSans-20"/>
     <use x="1722.941406" xlink:href="#DejaVuSans-77"/>
     <use x="1804.728516" xlink:href="#DejaVuSans-69"/>
     <use x="1832.511719" xlink:href="#DejaVuSans-74"/>
     <use x="1871.720703" xlink:href="#DejaVuSans-68"/>
     <use x="1935.099609" xlink:href="#DejaVuSans-20"/>
     <use x="1966.886719" xlink:href="#DejaVuSans-65"/>
     <use x="2026.660156" xlink:href="#DejaVuSans-78"/>
     <use x="2085.839844" xlink:href="#DejaVuSans-70"/>
     <use x="2149.316406" xlink:href="#DejaVuSans-6f"/>
     <use x="2210.498047" xlink:href="#DejaVuSans-6e"/>
     <use x="2273.876953" xlink:href="#DejaVuSans-65"/>
     <use x="2335.400391" xlink:href="#DejaVuSans-6e"/>
     <use x="2398.779297" xlink:href="#DejaVuSans-74"/>
     <use x="2437.988281" xlink:href="#DejaVuSans-69"/>
     <use x="2465.771484" xlink:href="#DejaVuSans-61"/>
     <use x="2527.050781" xlink:href="#DejaVuSans-74"/>
     <use x="2566.259766" xlink:href="#DejaVuSans-65"/>
     <use x="2627.783203" xlink:href="#DejaVuSans-64"/>
     <use x="2691.259766" xlink:href="#DejaVuSans-20"/>
     <use x="2723.046875" xlink:href="#DejaVuSans-71"/>
     <use x="2786.523438" xlink:href="#DejaVuSans-75"/>
     <use x="2849.902344" xlink:href="#DejaVuSans-61"/>
     <use x="2911.181641" xlink:href="#DejaVuSans-64"/>
     <use x="2974.658203" xlink:href="#DejaVuSans-72"/>
     <use x="3015.771484" xlink:href="#DejaVuSans-61"/>
     <use x="3077.050781" xlink:href="#DejaVuSans-74"/>
     <use x="3116.259766" xlink:href="#DejaVuSans-69"/>
     <use x="3144.042969" xlink:href="#DejaVuSans-63"/>
     <use x="3199.023438" xlink:href="#DejaVuSans-20"/>
     <use x="3230.810547" xlink:href="#DejaVuSans-6b"/>
     <use x="3285.095703" xlink:href="#DejaVuSans-65"/>
     <use x="3346.619141" xlink:href="#DejaVuSans-72"/>
     <use x="3385.982422" xlink:href="#DejaVuSans-6e"/>
     <use x="3449.361328" xlink:href="#DejaVuSans-65"/>
     <use x="3510.884766" xlink:href="#DejaVuSans-6c"/>
    </g>
   </g>
  </g>
 </g>
 <defs>
  <clipPath id="pe2e446141f">
   <rect height="217.44" width="334.8" x="52.118437" y="35.7555"/>
  </clipPath>
 </defs>
</svg>
