<?xml version="1.0" encoding="utf-8" standalone="no"?>
<!DOCTYPE svg PUBLIC "-//W3C//DTD SVG 1.1//EN"
  "http://www.w3.org/Graphics/SVG/1.1/DTD/svg11.dtd">
<svg height="423.177812pt" version="1.1" viewBox="0 0 423.3675 423.177812" width="423.3675pt" xmlns="http://www.w3.org/2000/svg" xmlns:xlink="http://www.w3.org/1999/xlink">
 <metadata>
  <rdf:RDF xmlns:cc="http://creativecommons.org/ns#" xmlns:dc="http://purl.org/dc/elements/1.1/" xmlns:rdf="http://www.w3.org/1999/02/22-rdf-syntax-ns#">
   <cc:Work>
    <dc:type rdf:resource="http://purl.org/dc/dcmitype/StillImage"/>
    <dc:date>2021-09-01T14:49:25.212554</dc:date>
    <dc:format>image/svg+xml</dc:format>
    <dc:creator>
     <cc:Agent>
      <dc:title>Matplotlib v3.4.3, https://matplotlib.org/</dc:title>
     </cc:Agent>
    </dc:creator>
   </cc:Work>
  </rdf:RDF>
 </metadata>
 <defs>
  <style type="text/css">*{stroke-linecap:butt;stroke-linejoin:round;}</style>
 </defs>
 <g id="figure_1">
  <g id="patch_1">
   <path d="M 0 423.177812 
L 423.3675 423.177812 
L 423.3675 0 
L 0 0 
z
" style="fill:#ffffff;"/>
  </g>
  <g id="axes_1">
   <g id="patch_2">
    <path d="M 45.52375 172.118125 
L 412.98625 172.118125 
L 412.98625 22.318125 
L 45.52375 22.318125 
z
" style="fill:#eaeaf2;"/>
   </g>
   <g id="matplotlib.axis_1">
    <g id="xtick_1">
     <g id="line2d_1">
      <path clip-path="url(#pb1df7d46aa)" d="M 45.52375 172.118125 
L 45.52375 22.318125 
" style="fill:none;stroke:#ffffff;stroke-linecap:round;stroke-width:0.8;"/>
     </g>
     <g id="text_1">
      <!-- −6 -->
      <g style="fill:#262626;" transform="translate(38.152656 186.716562)scale(0.1 -0.1)">
       <defs>
        <path d="M 678 2272 
L 4684 2272 
L 4684 1741 
L 678 1741 
L 678 2272 
z
" id="DejaVuSans-2212" transform="scale(0.015625)"/>
        <path d="M 2113 2584 
Q 1688 2584 1439 2293 
Q 1191 2003 1191 1497 
Q 1191 994 1439 701 
Q 1688 409 2113 409 
Q 2538 409 2786 701 
Q 3034 994 3034 1497 
Q 3034 2003 2786 2293 
Q 2538 2584 2113 2584 
z
M 3366 4563 
L 3366 3988 
Q 3128 4100 2886 4159 
Q 2644 4219 2406 4219 
Q 1781 4219 1451 3797 
Q 1122 3375 1075 2522 
Q 1259 2794 1537 2939 
Q 1816 3084 2150 3084 
Q 2853 3084 3261 2657 
Q 3669 2231 3669 1497 
Q 3669 778 3244 343 
Q 2819 -91 2113 -91 
Q 1303 -91 875 529 
Q 447 1150 447 2328 
Q 447 3434 972 4092 
Q 1497 4750 2381 4750 
Q 2619 4750 2861 4703 
Q 3103 4656 3366 4563 
z
" id="DejaVuSans-36" transform="scale(0.015625)"/>
       </defs>
       <use xlink:href="#DejaVuSans-2212"/>
       <use x="83.789062" xlink:href="#DejaVuSans-36"/>
      </g>
     </g>
    </g>
    <g id="xtick_2">
     <g id="line2d_2">
      <path clip-path="url(#pb1df7d46aa)" d="M 106.7675 172.118125 
L 106.7675 22.318125 
" style="fill:none;stroke:#ffffff;stroke-linecap:round;stroke-width:0.8;"/>
     </g>
     <g id="text_2">
      <!-- −4 -->
      <g style="fill:#262626;" transform="translate(99.396406 186.716562)scale(0.1 -0.1)">
       <defs>
        <path d="M 2419 4116 
L 825 1625 
L 2419 1625 
L 2419 4116 
z
M 2253 4666 
L 3047 4666 
L 3047 1625 
L 3713 1625 
L 3713 1100 
L 3047 1100 
L 3047 0 
L 2419 0 
L 2419 1100 
L 313 1100 
L 313 1709 
L 2253 4666 
z
" id="DejaVuSans-34" transform="scale(0.015625)"/>
       </defs>
       <use xlink:href="#DejaVuSans-2212"/>
       <use x="83.789062" xlink:href="#DejaVuSans-34"/>
      </g>
     </g>
    </g>
    <g id="xtick_3">
     <g id="line2d_3">
      <path clip-path="url(#pb1df7d46aa)" d="M 168.01125 172.118125 
L 168.01125 22.318125 
" style="fill:none;stroke:#ffffff;stroke-linecap:round;stroke-width:0.8;"/>
     </g>
     <g id="text_3">
      <!-- −2 -->
      <g style="fill:#262626;" transform="translate(160.640156 186.716562)scale(0.1 -0.1)">
       <defs>
        <path d="M 1228 531 
L 3431 531 
L 3431 0 
L 469 0 
L 469 531 
Q 828 903 1448 1529 
Q 2069 2156 2228 2338 
Q 2531 2678 2651 2914 
Q 2772 3150 2772 3378 
Q 2772 3750 2511 3984 
Q 2250 4219 1831 4219 
Q 1534 4219 1204 4116 
Q 875 4013 500 3803 
L 500 4441 
Q 881 4594 1212 4672 
Q 1544 4750 1819 4750 
Q 2544 4750 2975 4387 
Q 3406 4025 3406 3419 
Q 3406 3131 3298 2873 
Q 3191 2616 2906 2266 
Q 2828 2175 2409 1742 
Q 1991 1309 1228 531 
z
" id="DejaVuSans-32" transform="scale(0.015625)"/>
       </defs>
       <use xlink:href="#DejaVuSans-2212"/>
       <use x="83.789062" xlink:href="#DejaVuSans-32"/>
      </g>
     </g>
    </g>
    <g id="xtick_4">
     <g id="line2d_4">
      <path clip-path="url(#pb1df7d46aa)" d="M 229.255 172.118125 
L 229.255 22.318125 
" style="fill:none;stroke:#ffffff;stroke-linecap:round;stroke-width:0.8;"/>
     </g>
     <g id="text_4">
      <!-- 0 -->
      <g style="fill:#262626;" transform="translate(226.07375 186.716562)scale(0.1 -0.1)">
       <defs>
        <path d="M 2034 4250 
Q 1547 4250 1301 3770 
Q 1056 3291 1056 2328 
Q 1056 1369 1301 889 
Q 1547 409 2034 409 
Q 2525 409 2770 889 
Q 3016 1369 3016 2328 
Q 3016 3291 2770 3770 
Q 2525 4250 2034 4250 
z
M 2034 4750 
Q 2819 4750 3233 4129 
Q 3647 3509 3647 2328 
Q 3647 1150 3233 529 
Q 2819 -91 2034 -91 
Q 1250 -91 836 529 
Q 422 1150 422 2328 
Q 422 3509 836 4129 
Q 1250 4750 2034 4750 
z
" id="DejaVuSans-30" transform="scale(0.015625)"/>
       </defs>
       <use xlink:href="#DejaVuSans-30"/>
      </g>
     </g>
    </g>
    <g id="xtick_5">
     <g id="line2d_5">
      <path clip-path="url(#pb1df7d46aa)" d="M 290.49875 172.118125 
L 290.49875 22.318125 
" style="fill:none;stroke:#ffffff;stroke-linecap:round;stroke-width:0.8;"/>
     </g>
     <g id="text_5">
      <!-- 2 -->
      <g style="fill:#262626;" transform="translate(287.3175 186.716562)scale(0.1 -0.1)">
       <use xlink:href="#DejaVuSans-32"/>
      </g>
     </g>
    </g>
    <g id="xtick_6">
     <g id="line2d_6">
      <path clip-path="url(#pb1df7d46aa)" d="M 351.7425 172.118125 
L 351.7425 22.318125 
" style="fill:none;stroke:#ffffff;stroke-linecap:round;stroke-width:0.8;"/>
     </g>
     <g id="text_6">
      <!-- 4 -->
      <g style="fill:#262626;" transform="translate(348.56125 186.716562)scale(0.1 -0.1)">
       <use xlink:href="#DejaVuSans-34"/>
      </g>
     </g>
    </g>
    <g id="xtick_7">
     <g id="line2d_7">
      <path clip-path="url(#pb1df7d46aa)" d="M 412.98625 172.118125 
L 412.98625 22.318125 
" style="fill:none;stroke:#ffffff;stroke-linecap:round;stroke-width:0.8;"/>
     </g>
     <g id="text_7">
      <!-- 6 -->
      <g style="fill:#262626;" transform="translate(409.805 186.716562)scale(0.1 -0.1)">
       <use xlink:href="#DejaVuSans-36"/>
      </g>
     </g>
    </g>
    <g id="text_8">
     <!-- $x$ -->
     <g style="fill:#262626;" transform="translate(225.355 202.674219)scale(0.13 -0.13)">
      <defs>
       <path d="M 3841 3500 
L 2234 1784 
L 3219 0 
L 2559 0 
L 1819 1388 
L 531 0 
L -166 0 
L 1556 1844 
L 641 3500 
L 1300 3500 
L 1972 2234 
L 3144 3500 
L 3841 3500 
z
" id="DejaVuSans-Oblique-78" transform="scale(0.015625)"/>
      </defs>
      <use transform="translate(0 0.3125)" xlink:href="#DejaVuSans-Oblique-78"/>
     </g>
    </g>
   </g>
   <g id="matplotlib.axis_2">
    <g id="ytick_1">
     <g id="line2d_8">
      <path clip-path="url(#pb1df7d46aa)" d="M 45.52375 172.118125 
L 412.98625 172.118125 
" style="fill:none;stroke:#ffffff;stroke-linecap:round;stroke-width:0.8;"/>
     </g>
     <g id="text_9">
      <!-- −3 -->
      <g style="fill:#262626;" transform="translate(23.781562 175.917344)scale(0.1 -0.1)">
       <defs>
        <path d="M 2597 2516 
Q 3050 2419 3304 2112 
Q 3559 1806 3559 1356 
Q 3559 666 3084 287 
Q 2609 -91 1734 -91 
Q 1441 -91 1130 -33 
Q 819 25 488 141 
L 488 750 
Q 750 597 1062 519 
Q 1375 441 1716 441 
Q 2309 441 2620 675 
Q 2931 909 2931 1356 
Q 2931 1769 2642 2001 
Q 2353 2234 1838 2234 
L 1294 2234 
L 1294 2753 
L 1863 2753 
Q 2328 2753 2575 2939 
Q 2822 3125 2822 3475 
Q 2822 3834 2567 4026 
Q 2313 4219 1838 4219 
Q 1578 4219 1281 4162 
Q 984 4106 628 3988 
L 628 4550 
Q 988 4650 1302 4700 
Q 1616 4750 1894 4750 
Q 2613 4750 3031 4423 
Q 3450 4097 3450 3541 
Q 3450 3153 3228 2886 
Q 3006 2619 2597 2516 
z
" id="DejaVuSans-33" transform="scale(0.015625)"/>
       </defs>
       <use xlink:href="#DejaVuSans-2212"/>
       <use x="83.789062" xlink:href="#DejaVuSans-33"/>
      </g>
     </g>
    </g>
    <g id="ytick_2">
     <g id="line2d_9">
      <path clip-path="url(#pb1df7d46aa)" d="M 45.52375 147.151458 
L 412.98625 147.151458 
" style="fill:none;stroke:#ffffff;stroke-linecap:round;stroke-width:0.8;"/>
     </g>
     <g id="text_10">
      <!-- −2 -->
      <g style="fill:#262626;" transform="translate(23.781562 150.950677)scale(0.1 -0.1)">
       <use xlink:href="#DejaVuSans-2212"/>
       <use x="83.789062" xlink:href="#DejaVuSans-32"/>
      </g>
     </g>
    </g>
    <g id="ytick_3">
     <g id="line2d_10">
      <path clip-path="url(#pb1df7d46aa)" d="M 45.52375 122.184792 
L 412.98625 122.184792 
" style="fill:none;stroke:#ffffff;stroke-linecap:round;stroke-width:0.8;"/>
     </g>
     <g id="text_11">
      <!-- −1 -->
      <g style="fill:#262626;" transform="translate(23.781562 125.98401)scale(0.1 -0.1)">
       <defs>
        <path d="M 794 531 
L 1825 531 
L 1825 4091 
L 703 3866 
L 703 4441 
L 1819 4666 
L 2450 4666 
L 2450 531 
L 3481 531 
L 3481 0 
L 794 0 
L 794 531 
z
" id="DejaVuSans-31" transform="scale(0.015625)"/>
       </defs>
       <use xlink:href="#DejaVuSans-2212"/>
       <use x="83.789062" xlink:href="#DejaVuSans-31"/>
      </g>
     </g>
    </g>
    <g id="ytick_4">
     <g id="line2d_11">
      <path clip-path="url(#pb1df7d46aa)" d="M 45.52375 97.218125 
L 412.98625 97.218125 
" style="fill:none;stroke:#ffffff;stroke-linecap:round;stroke-width:0.8;"/>
     </g>
     <g id="text_12">
      <!-- 0 -->
      <g style="fill:#262626;" transform="translate(32.16125 101.017344)scale(0.1 -0.1)">
       <use xlink:href="#DejaVuSans-30"/>
      </g>
     </g>
    </g>
    <g id="ytick_5">
     <g id="line2d_12">
      <path clip-path="url(#pb1df7d46aa)" d="M 45.52375 72.251458 
L 412.98625 72.251458 
" style="fill:none;stroke:#ffffff;stroke-linecap:round;stroke-width:0.8;"/>
     </g>
     <g id="text_13">
      <!-- 1 -->
      <g style="fill:#262626;" transform="translate(32.16125 76.050677)scale(0.1 -0.1)">
       <use xlink:href="#DejaVuSans-31"/>
      </g>
     </g>
    </g>
    <g id="ytick_6">
     <g id="line2d_13">
      <path clip-path="url(#pb1df7d46aa)" d="M 45.52375 47.284792 
L 412.98625 47.284792 
" style="fill:none;stroke:#ffffff;stroke-linecap:round;stroke-width:0.8;"/>
     </g>
     <g id="text_14">
      <!-- 2 -->
      <g style="fill:#262626;" transform="translate(32.16125 51.08401)scale(0.1 -0.1)">
       <use xlink:href="#DejaVuSans-32"/>
      </g>
     </g>
    </g>
    <g id="ytick_7">
     <g id="line2d_14">
      <path clip-path="url(#pb1df7d46aa)" d="M 45.52375 22.318125 
L 412.98625 22.318125 
" style="fill:none;stroke:#ffffff;stroke-linecap:round;stroke-width:0.8;"/>
     </g>
     <g id="text_15">
      <!-- 3 -->
      <g style="fill:#262626;" transform="translate(32.16125 26.117344)scale(0.1 -0.1)">
       <use xlink:href="#DejaVuSans-33"/>
      </g>
     </g>
    </g>
    <g id="text_16">
     <!-- $y$ -->
     <g style="fill:#262626;" transform="translate(17.051562 101.118125)rotate(-90)scale(0.13 -0.13)">
      <defs>
       <path d="M 1588 -325 
Q 1188 -997 936 -1164 
Q 684 -1331 294 -1331 
L -159 -1331 
L -63 -850 
L 269 -850 
Q 509 -850 678 -719 
Q 847 -588 1056 -206 
L 1234 128 
L 459 3500 
L 1069 3500 
L 1650 819 
L 3256 3500 
L 3859 3500 
L 1588 -325 
z
" id="DejaVuSans-Oblique-79" transform="scale(0.015625)"/>
      </defs>
      <use transform="translate(0 0.3125)" xlink:href="#DejaVuSans-Oblique-79"/>
     </g>
    </g>
   </g>
   <g id="PolyCollection_1">
    <defs>
     <path d="M 45.52375 -378.940772 
L 45.52375 -281.44933 
L 50.489459 -283.887084 
L 55.455169 -287.156878 
L 60.420878 -291.384321 
L 65.386588 -296.626387 
L 70.352297 -302.830054 
L 75.318007 -309.799984 
L 80.283716 -317.187291 
L 85.249426 -324.508826 
L 90.215135 -331.200284 
L 95.180845 -336.697678 
L 100.146554 -340.532694 
L 105.112264 -342.420715 
L 110.077973 -342.318719 
L 115.043682 -339.373961 
L 120.009392 -335.624614 
L 124.975101 -332.0076 
L 129.940811 -328.325404 
L 134.90652 -324.445538 
L 139.87223 -320.361331 
L 144.837939 -316.215058 
L 149.803649 -312.273738 
L 154.769358 -308.862525 
L 159.735068 -306.274294 
L 164.700777 -304.309696 
L 169.666486 -301.163056 
L 174.632196 -298.455233 
L 179.597905 -296.64202 
L 184.563615 -296.190145 
L 189.529324 -297.464037 
L 194.495034 -300.630581 
L 199.460743 -305.056737 
L 204.426453 -303.845911 
L 209.392162 -302.564324 
L 214.357872 -301.688538 
L 219.323581 -301.716899 
L 224.289291 -303.068062 
L 229.255 -305.992556 
L 234.220709 -310.513426 
L 239.186419 -316.406667 
L 244.152128 -323.225732 
L 249.117838 -330.367136 
L 254.083547 -337.166979 
L 259.049257 -343.011884 
L 264.014966 -347.443842 
L 268.980676 -349.790778 
L 273.946385 -350.204577 
L 278.912095 -350.521304 
L 283.877804 -350.308059 
L 288.843514 -349.122312 
L 293.809223 -346.611143 
L 298.774932 -342.590715 
L 303.740642 -337.088911 
L 308.706351 -330.343351 
L 313.672061 -322.757872 
L 318.63777 -314.829923 
L 323.60348 -307.066794 
L 328.569189 -299.909141 
L 333.534899 -293.676316 
L 338.500608 -288.541143 
L 343.466318 -284.534178 
L 348.432027 -281.571136 
L 353.397736 -279.493305 
L 358.363446 -278.109965 
L 363.329155 -277.233795 
L 368.294865 -276.70407 
L 373.260574 -276.396851 
L 378.226284 -276.224832 
L 383.191993 -276.131137 
L 388.157703 -276.081102 
L 393.123412 -276.054725 
L 398.089122 -276.040934 
L 403.054831 -276.03377 
L 408.020541 -276.030076 
L 412.98625 -276.028192 
L 412.98625 -375.89476 
L 412.98625 -375.89476 
L 408.020541 -375.896412 
L 403.054831 -375.899385 
L 398.089122 -375.904447 
L 393.123412 -375.912467 
L 388.157703 -375.923937 
L 383.191993 -375.937772 
L 378.226284 -375.948897 
L 373.260574 -375.94415 
L 368.294865 -375.896438 
L 363.329155 -375.758045 
L 358.363446 -375.455339 
L 353.397736 -374.888397 
L 348.432027 -373.939256 
L 343.466318 -372.49091 
L 338.500608 -370.455922 
L 333.534899 -367.80952 
L 328.569189 -364.618699 
L 323.60348 -361.057555 
L 318.63777 -357.400395 
L 313.672061 -353.9884 
L 308.706351 -351.171988 
L 303.740642 -349.238167 
L 298.774932 -348.338153 
L 293.809223 -348.433203 
L 288.843514 -349.274786 
L 283.877804 -350.428476 
L 278.912095 -351.340975 
L 273.946385 -351.438753 
L 268.980676 -350.238254 
L 264.014966 -349.606417 
L 259.049257 -349.79908 
L 254.083547 -350.305001 
L 249.117838 -350.863174 
L 244.152128 -351.072076 
L 239.186419 -350.476384 
L 234.220709 -348.665859 
L 229.255 -345.367366 
L 224.289291 -340.513254 
L 219.323581 -334.274004 
L 214.357872 -327.049067 
L 209.392162 -319.416393 
L 204.426453 -312.047943 
L 199.460743 -305.604804 
L 194.495034 -305.837326 
L 189.529324 -306.015086 
L 184.563615 -305.633112 
L 179.597905 -304.930501 
L 174.632196 -304.277606 
L 169.666486 -304.08107 
L 164.700777 -304.68211 
L 159.735068 -307.552344 
L 154.769358 -310.724524 
L 149.803649 -313.843137 
L 144.837939 -317.057442 
L 139.87223 -320.555349 
L 134.90652 -324.455487 
L 129.940811 -328.718154 
L 124.975101 -333.102839 
L 120.009392 -337.186048 
L 115.043682 -340.435278 
L 110.077973 -343.440228 
L 105.112264 -347.924279 
L 100.146554 -352.799925 
L 95.180845 -357.908669 
L 90.215135 -362.991116 
L 85.249426 -367.743469 
L 80.283716 -371.881929 
L 75.318007 -375.197842 
L 70.352297 -377.591194 
L 65.386588 -379.077412 
L 60.420878 -379.769825 
L 55.455169 -379.845687 
L 50.489459 -379.506237 
L 45.52375 -378.940772 
z
" id="m6d0569872c" style="stroke:#ff0000;stroke-opacity:0.15;"/>
    </defs>
    <g clip-path="url(#pb1df7d46aa)">
     <use style="fill:#ff0000;fill-opacity:0.15;stroke:#ff0000;stroke-opacity:0.15;" x="0" xlink:href="#m6d0569872c" y="423.177812"/>
    </g>
   </g>
   <g id="line2d_15">
    <path clip-path="url(#pb1df7d46aa)" d="M 45.52375 90.242051 
L 50.489459 86.463197 
L 55.455169 82.966541 
L 60.420878 79.843832 
L 65.386588 77.177007 
L 70.352297 75.036041 
L 75.318007 73.477111 
L 80.283716 72.54112 
L 85.249426 72.25263 
L 90.215135 72.619208 
L 95.180845 73.631238 
L 100.146554 75.262164 
L 105.112264 77.469192 
L 110.077973 80.194412 
L 115.043682 83.366317 
L 120.009392 86.901679 
L 124.975101 90.707735 
L 129.940811 94.684617 
L 134.90652 98.727975 
L 139.87223 102.731717 
L 144.837939 106.590787 
L 149.803649 110.203929 
L 154.769358 113.476336 
L 159.735068 116.322143 
L 164.700777 118.666681 
L 169.666486 120.44843 
L 174.632196 121.62064 
L 179.597905 122.152552 
L 184.563615 122.030209 
L 189.529324 121.256823 
L 194.495034 119.852686 
L 199.460743 117.85464 
L 204.426453 115.315113 
L 209.392162 112.30074 
L 214.357872 108.890613 
L 219.323581 105.174213 
L 224.289291 101.249053 
L 229.255 97.218125 
L 234.220709 93.187197 
L 239.186419 89.262037 
L 244.152128 85.545637 
L 249.117838 82.13551 
L 254.083547 79.121137 
L 259.049257 76.58161 
L 264.014966 74.583564 
L 268.980676 73.179427 
L 273.946385 72.406041 
L 278.912095 72.283698 
L 283.877804 72.81561 
L 288.843514 73.98782 
L 293.809223 75.769569 
L 298.774932 78.114107 
L 303.740642 80.959914 
L 308.706351 84.232321 
L 313.672061 87.845463 
L 318.63777 91.704533 
L 323.60348 95.708275 
L 328.569189 99.751633 
L 333.534899 103.728515 
L 338.500608 107.534571 
L 343.466318 111.069933 
L 348.432027 114.241838 
L 353.397736 116.967058 
L 358.363446 119.174086 
L 363.329155 120.805012 
L 368.294865 121.817042 
L 373.260574 122.18362 
L 378.226284 121.89513 
L 383.191993 120.959139 
L 388.157703 119.400209 
L 393.123412 117.259243 
L 398.089122 114.592418 
L 403.054831 111.469709 
L 408.020541 107.973053 
L 412.98625 104.194199 
" style="fill:none;stroke:#0000ff;stroke-dasharray:5.55,2.4;stroke-dashoffset:0;stroke-width:1.5;"/>
   </g>
   <g id="line2d_16">
    <path clip-path="url(#pb1df7d46aa)" d="M 45.52375 92.982762 
L 50.489459 91.481152 
L 55.455169 89.67653 
L 60.420878 87.600739 
L 65.386588 85.325913 
L 70.352297 82.967189 
L 75.318007 80.678899 
L 80.283716 78.643202 
L 85.249426 77.051665 
L 90.215135 76.082113 
L 95.180845 75.874639 
L 100.146554 76.511503 
L 105.112264 78.005316 
L 110.077973 80.298339 
L 115.043682 83.273193 
L 120.009392 86.772481 
L 124.975101 90.622593 
L 129.940811 94.656033 
L 134.90652 98.7273 
L 139.87223 102.719472 
L 144.837939 106.541562 
L 149.803649 110.119375 
L 154.769358 113.384288 
L 159.735068 116.264493 
L 164.700777 118.681909 
L 169.666486 120.555749 
L 174.632196 121.811393 
L 179.597905 122.391552 
L 184.563615 122.266184 
L 189.529324 121.438251 
L 194.495034 119.943859 
L 199.460743 117.847042 
L 204.426453 115.230885 
L 209.392162 112.187454 
L 214.357872 108.80901 
L 219.323581 105.182361 
L 224.289291 101.387155 
L 229.255 97.497851 
L 234.220709 93.58817 
L 239.186419 89.736287 
L 244.152128 86.028908 
L 249.117838 82.562658 
L 254.083547 79.441823 
L 259.049257 76.772331 
L 264.014966 74.652683 
L 268.980676 73.163296 
L 273.946385 72.356148 
L 278.912095 72.246673 
L 283.877804 72.809545 
L 288.843514 73.979263 
L 293.809223 75.655639 
L 298.774932 77.713379 
L 303.740642 80.014273 
L 308.706351 82.420143 
L 313.672061 84.804677 
L 318.63777 87.062653 
L 323.60348 89.115638 
L 328.569189 90.913893 
L 333.534899 92.434895 
L 338.500608 93.67928 
L 343.466318 94.665269 
L 348.432027 95.422616 
L 353.397736 95.986962 
L 358.363446 96.395161 
L 363.329155 96.681892 
L 368.294865 96.877558 
L 373.260574 97.007312 
L 378.226284 97.090948 
L 383.191993 97.143358 
L 388.157703 97.175293 
L 393.123412 97.194216 
L 398.089122 97.205122 
L 403.054831 97.211235 
L 408.020541 97.214569 
L 412.98625 97.216337 
" style="fill:none;stroke:#ff0000;stroke-linecap:round;stroke-width:2;"/>
   </g>
   <g id="line2d_17">
    <defs>
     <path d="M 0 3 
C 0.795609 3 1.55874 2.683901 2.12132 2.12132 
C 2.683901 1.55874 3 0.795609 3 0 
C 3 -0.795609 2.683901 -1.55874 2.12132 -2.12132 
C 1.55874 -2.683901 0.795609 -3 0 -3 
C -0.795609 -3 -1.55874 -2.683901 -2.12132 -2.12132 
C -2.683901 -1.55874 -3 -0.795609 -3 0 
C -3 0.795609 -2.683901 1.55874 -2.12132 2.12132 
C -1.55874 2.683901 -0.795609 3 0 3 
z
" id="mdc24d00a55" style="stroke:#000000;"/>
    </defs>
    <g clip-path="url(#pb1df7d46aa)">
     <use style="stroke:#000000;" x="267.783186" xlink:href="#mdc24d00a55" y="73.461449"/>
     <use style="stroke:#000000;" x="135.664638" xlink:href="#mdc24d00a55" y="99.344428"/>
     <use style="stroke:#000000;" x="199.057378" xlink:href="#mdc24d00a55" y="118.037949"/>
     <use style="stroke:#000000;" x="285.555911" xlink:href="#mdc24d00a55" y="73.141309"/>
     <use style="stroke:#000000;" x="287.184812" xlink:href="#mdc24d00a55" y="73.526608"/>
     <use style="stroke:#000000;" x="112.079006" xlink:href="#mdc24d00a55" y="81.423303"/>
     <use style="stroke:#000000;" x="135.980501" xlink:href="#mdc24d00a55" y="99.600904"/>
     <use style="stroke:#000000;" x="163.808983" xlink:href="#mdc24d00a55" y="118.285489"/>
    </g>
   </g>
   <g id="patch_3">
    <path d="M 45.52375 172.118125 
L 45.52375 22.318125 
" style="fill:none;stroke:#ffffff;stroke-linecap:square;stroke-linejoin:miter;stroke-width:0.8;"/>
   </g>
   <g id="patch_4">
    <path d="M 412.98625 172.118125 
L 412.98625 22.318125 
" style="fill:none;stroke:#ffffff;stroke-linecap:square;stroke-linejoin:miter;stroke-width:0.8;"/>
   </g>
   <g id="patch_5">
    <path d="M 45.52375 172.118125 
L 412.98625 172.118125 
" style="fill:none;stroke:#ffffff;stroke-linecap:square;stroke-linejoin:miter;stroke-width:0.8;"/>
   </g>
   <g id="patch_6">
    <path d="M 45.52375 22.318125 
L 412.98625 22.318125 
" style="fill:none;stroke:#ffffff;stroke-linecap:square;stroke-linejoin:miter;stroke-width:0.8;"/>
   </g>
   <g id="text_17">
    <!-- Distribution of posterior and prior data. -->
    <g style="fill:#262626;" transform="translate(111.222813 16.318125)scale(0.12 -0.12)">
     <defs>
      <path d="M 1259 4147 
L 1259 519 
L 2022 519 
Q 2988 519 3436 956 
Q 3884 1394 3884 2338 
Q 3884 3275 3436 3711 
Q 2988 4147 2022 4147 
L 1259 4147 
z
M 628 4666 
L 1925 4666 
Q 3281 4666 3915 4102 
Q 4550 3538 4550 2338 
Q 4550 1131 3912 565 
Q 3275 0 1925 0 
L 628 0 
L 628 4666 
z
" id="DejaVuSans-44" transform="scale(0.015625)"/>
      <path d="M 603 3500 
L 1178 3500 
L 1178 0 
L 603 0 
L 603 3500 
z
M 603 4863 
L 1178 4863 
L 1178 4134 
L 603 4134 
L 603 4863 
z
" id="DejaVuSans-69" transform="scale(0.015625)"/>
      <path d="M 2834 3397 
L 2834 2853 
Q 2591 2978 2328 3040 
Q 2066 3103 1784 3103 
Q 1356 3103 1142 2972 
Q 928 2841 928 2578 
Q 928 2378 1081 2264 
Q 1234 2150 1697 2047 
L 1894 2003 
Q 2506 1872 2764 1633 
Q 3022 1394 3022 966 
Q 3022 478 2636 193 
Q 2250 -91 1575 -91 
Q 1294 -91 989 -36 
Q 684 19 347 128 
L 347 722 
Q 666 556 975 473 
Q 1284 391 1588 391 
Q 1994 391 2212 530 
Q 2431 669 2431 922 
Q 2431 1156 2273 1281 
Q 2116 1406 1581 1522 
L 1381 1569 
Q 847 1681 609 1914 
Q 372 2147 372 2553 
Q 372 3047 722 3315 
Q 1072 3584 1716 3584 
Q 2034 3584 2315 3537 
Q 2597 3491 2834 3397 
z
" id="DejaVuSans-73" transform="scale(0.015625)"/>
      <path d="M 1172 4494 
L 1172 3500 
L 2356 3500 
L 2356 3053 
L 1172 3053 
L 1172 1153 
Q 1172 725 1289 603 
Q 1406 481 1766 481 
L 2356 481 
L 2356 0 
L 1766 0 
Q 1100 0 847 248 
Q 594 497 594 1153 
L 594 3053 
L 172 3053 
L 172 3500 
L 594 3500 
L 594 4494 
L 1172 4494 
z
" id="DejaVuSans-74" transform="scale(0.015625)"/>
      <path d="M 2631 2963 
Q 2534 3019 2420 3045 
Q 2306 3072 2169 3072 
Q 1681 3072 1420 2755 
Q 1159 2438 1159 1844 
L 1159 0 
L 581 0 
L 581 3500 
L 1159 3500 
L 1159 2956 
Q 1341 3275 1631 3429 
Q 1922 3584 2338 3584 
Q 2397 3584 2469 3576 
Q 2541 3569 2628 3553 
L 2631 2963 
z
" id="DejaVuSans-72" transform="scale(0.015625)"/>
      <path d="M 3116 1747 
Q 3116 2381 2855 2742 
Q 2594 3103 2138 3103 
Q 1681 3103 1420 2742 
Q 1159 2381 1159 1747 
Q 1159 1113 1420 752 
Q 1681 391 2138 391 
Q 2594 391 2855 752 
Q 3116 1113 3116 1747 
z
M 1159 2969 
Q 1341 3281 1617 3432 
Q 1894 3584 2278 3584 
Q 2916 3584 3314 3078 
Q 3713 2572 3713 1747 
Q 3713 922 3314 415 
Q 2916 -91 2278 -91 
Q 1894 -91 1617 61 
Q 1341 213 1159 525 
L 1159 0 
L 581 0 
L 581 4863 
L 1159 4863 
L 1159 2969 
z
" id="DejaVuSans-62" transform="scale(0.015625)"/>
      <path d="M 544 1381 
L 544 3500 
L 1119 3500 
L 1119 1403 
Q 1119 906 1312 657 
Q 1506 409 1894 409 
Q 2359 409 2629 706 
Q 2900 1003 2900 1516 
L 2900 3500 
L 3475 3500 
L 3475 0 
L 2900 0 
L 2900 538 
Q 2691 219 2414 64 
Q 2138 -91 1772 -91 
Q 1169 -91 856 284 
Q 544 659 544 1381 
z
M 1991 3584 
L 1991 3584 
z
" id="DejaVuSans-75" transform="scale(0.015625)"/>
      <path d="M 1959 3097 
Q 1497 3097 1228 2736 
Q 959 2375 959 1747 
Q 959 1119 1226 758 
Q 1494 397 1959 397 
Q 2419 397 2687 759 
Q 2956 1122 2956 1747 
Q 2956 2369 2687 2733 
Q 2419 3097 1959 3097 
z
M 1959 3584 
Q 2709 3584 3137 3096 
Q 3566 2609 3566 1747 
Q 3566 888 3137 398 
Q 2709 -91 1959 -91 
Q 1206 -91 779 398 
Q 353 888 353 1747 
Q 353 2609 779 3096 
Q 1206 3584 1959 3584 
z
" id="DejaVuSans-6f" transform="scale(0.015625)"/>
      <path d="M 3513 2113 
L 3513 0 
L 2938 0 
L 2938 2094 
Q 2938 2591 2744 2837 
Q 2550 3084 2163 3084 
Q 1697 3084 1428 2787 
Q 1159 2491 1159 1978 
L 1159 0 
L 581 0 
L 581 3500 
L 1159 3500 
L 1159 2956 
Q 1366 3272 1645 3428 
Q 1925 3584 2291 3584 
Q 2894 3584 3203 3211 
Q 3513 2838 3513 2113 
z
" id="DejaVuSans-6e" transform="scale(0.015625)"/>
      <path id="DejaVuSans-20" transform="scale(0.015625)"/>
      <path d="M 2375 4863 
L 2375 4384 
L 1825 4384 
Q 1516 4384 1395 4259 
Q 1275 4134 1275 3809 
L 1275 3500 
L 2222 3500 
L 2222 3053 
L 1275 3053 
L 1275 0 
L 697 0 
L 697 3053 
L 147 3053 
L 147 3500 
L 697 3500 
L 697 3744 
Q 697 4328 969 4595 
Q 1241 4863 1831 4863 
L 2375 4863 
z
" id="DejaVuSans-66" transform="scale(0.015625)"/>
      <path d="M 1159 525 
L 1159 -1331 
L 581 -1331 
L 581 3500 
L 1159 3500 
L 1159 2969 
Q 1341 3281 1617 3432 
Q 1894 3584 2278 3584 
Q 2916 3584 3314 3078 
Q 3713 2572 3713 1747 
Q 3713 922 3314 415 
Q 2916 -91 2278 -91 
Q 1894 -91 1617 61 
Q 1341 213 1159 525 
z
M 3116 1747 
Q 3116 2381 2855 2742 
Q 2594 3103 2138 3103 
Q 1681 3103 1420 2742 
Q 1159 2381 1159 1747 
Q 1159 1113 1420 752 
Q 1681 391 2138 391 
Q 2594 391 2855 752 
Q 3116 1113 3116 1747 
z
" id="DejaVuSans-70" transform="scale(0.015625)"/>
      <path d="M 3597 1894 
L 3597 1613 
L 953 1613 
Q 991 1019 1311 708 
Q 1631 397 2203 397 
Q 2534 397 2845 478 
Q 3156 559 3463 722 
L 3463 178 
Q 3153 47 2828 -22 
Q 2503 -91 2169 -91 
Q 1331 -91 842 396 
Q 353 884 353 1716 
Q 353 2575 817 3079 
Q 1281 3584 2069 3584 
Q 2775 3584 3186 3129 
Q 3597 2675 3597 1894 
z
M 3022 2063 
Q 3016 2534 2758 2815 
Q 2500 3097 2075 3097 
Q 1594 3097 1305 2825 
Q 1016 2553 972 2059 
L 3022 2063 
z
" id="DejaVuSans-65" transform="scale(0.015625)"/>
      <path d="M 2194 1759 
Q 1497 1759 1228 1600 
Q 959 1441 959 1056 
Q 959 750 1161 570 
Q 1363 391 1709 391 
Q 2188 391 2477 730 
Q 2766 1069 2766 1631 
L 2766 1759 
L 2194 1759 
z
M 3341 1997 
L 3341 0 
L 2766 0 
L 2766 531 
Q 2569 213 2275 61 
Q 1981 -91 1556 -91 
Q 1019 -91 701 211 
Q 384 513 384 1019 
Q 384 1609 779 1909 
Q 1175 2209 1959 2209 
L 2766 2209 
L 2766 2266 
Q 2766 2663 2505 2880 
Q 2244 3097 1772 3097 
Q 1472 3097 1187 3025 
Q 903 2953 641 2809 
L 641 3341 
Q 956 3463 1253 3523 
Q 1550 3584 1831 3584 
Q 2591 3584 2966 3190 
Q 3341 2797 3341 1997 
z
" id="DejaVuSans-61" transform="scale(0.015625)"/>
      <path d="M 2906 2969 
L 2906 4863 
L 3481 4863 
L 3481 0 
L 2906 0 
L 2906 525 
Q 2725 213 2448 61 
Q 2172 -91 1784 -91 
Q 1150 -91 751 415 
Q 353 922 353 1747 
Q 353 2572 751 3078 
Q 1150 3584 1784 3584 
Q 2172 3584 2448 3432 
Q 2725 3281 2906 2969 
z
M 947 1747 
Q 947 1113 1208 752 
Q 1469 391 1925 391 
Q 2381 391 2643 752 
Q 2906 1113 2906 1747 
Q 2906 2381 2643 2742 
Q 2381 3103 1925 3103 
Q 1469 3103 1208 2742 
Q 947 2381 947 1747 
z
" id="DejaVuSans-64" transform="scale(0.015625)"/>
      <path d="M 684 794 
L 1344 794 
L 1344 0 
L 684 0 
L 684 794 
z
" id="DejaVuSans-2e" transform="scale(0.015625)"/>
     </defs>
     <use xlink:href="#DejaVuSans-44"/>
     <use x="77.001953" xlink:href="#DejaVuSans-69"/>
     <use x="104.785156" xlink:href="#DejaVuSans-73"/>
     <use x="156.884766" xlink:href="#DejaVuSans-74"/>
     <use x="196.09375" xlink:href="#DejaVuSans-72"/>
     <use x="237.207031" xlink:href="#DejaVuSans-69"/>
     <use x="264.990234" xlink:href="#DejaVuSans-62"/>
     <use x="328.466797" xlink:href="#DejaVuSans-75"/>
     <use x="391.845703" xlink:href="#DejaVuSans-74"/>
     <use x="431.054688" xlink:href="#DejaVuSans-69"/>
     <use x="458.837891" xlink:href="#DejaVuSans-6f"/>
     <use x="520.019531" xlink:href="#DejaVuSans-6e"/>
     <use x="583.398438" xlink:href="#DejaVuSans-20"/>
     <use x="615.185547" xlink:href="#DejaVuSans-6f"/>
     <use x="676.367188" xlink:href="#DejaVuSans-66"/>
     <use x="711.572266" xlink:href="#DejaVuSans-20"/>
     <use x="743.359375" xlink:href="#DejaVuSans-70"/>
     <use x="806.835938" xlink:href="#DejaVuSans-6f"/>
     <use x="868.017578" xlink:href="#DejaVuSans-73"/>
     <use x="920.117188" xlink:href="#DejaVuSans-74"/>
     <use x="959.326172" xlink:href="#DejaVuSans-65"/>
     <use x="1020.849609" xlink:href="#DejaVuSans-72"/>
     <use x="1061.962891" xlink:href="#DejaVuSans-69"/>
     <use x="1089.746094" xlink:href="#DejaVuSans-6f"/>
     <use x="1150.927734" xlink:href="#DejaVuSans-72"/>
     <use x="1192.041016" xlink:href="#DejaVuSans-20"/>
     <use x="1223.828125" xlink:href="#DejaVuSans-61"/>
     <use x="1285.107422" xlink:href="#DejaVuSans-6e"/>
     <use x="1348.486328" xlink:href="#DejaVuSans-64"/>
     <use x="1411.962891" xlink:href="#DejaVuSans-20"/>
     <use x="1443.75" xlink:href="#DejaVuSans-70"/>
     <use x="1507.226562" xlink:href="#DejaVuSans-72"/>
     <use x="1548.339844" xlink:href="#DejaVuSans-69"/>
     <use x="1576.123047" xlink:href="#DejaVuSans-6f"/>
     <use x="1637.304688" xlink:href="#DejaVuSans-72"/>
     <use x="1678.417969" xlink:href="#DejaVuSans-20"/>
     <use x="1710.205078" xlink:href="#DejaVuSans-64"/>
     <use x="1773.681641" xlink:href="#DejaVuSans-61"/>
     <use x="1834.960938" xlink:href="#DejaVuSans-74"/>
     <use x="1874.169922" xlink:href="#DejaVuSans-61"/>
     <use x="1935.449219" xlink:href="#DejaVuSans-2e"/>
    </g>
   </g>
   <g id="legend_1">
    <g id="patch_7">
     <path d="M 339.68625 91.493125 
L 405.98625 91.493125 
Q 407.98625 91.493125 407.98625 89.493125 
L 407.98625 29.318125 
Q 407.98625 27.318125 405.98625 27.318125 
L 339.68625 27.318125 
Q 337.68625 27.318125 337.68625 29.318125 
L 337.68625 89.493125 
Q 337.68625 91.493125 339.68625 91.493125 
z
" style="fill:#eaeaf2;opacity:0.8;stroke:#cccccc;stroke-linejoin:miter;"/>
    </g>
    <g id="line2d_18">
     <path d="M 341.68625 35.416562 
L 361.68625 35.416562 
" style="fill:none;stroke:#0000ff;stroke-dasharray:5.55,2.4;stroke-dashoffset:0;stroke-width:1.5;"/>
    </g>
    <g id="line2d_19"/>
    <g id="text_18">
     <!-- $sin(x)$ -->
     <g style="fill:#262626;" transform="translate(369.68625 38.916562)scale(0.1 -0.1)">
      <defs>
       <path d="M 3200 3397 
L 3091 2853 
Q 2863 2978 2609 3040 
Q 2356 3103 2088 3103 
Q 1634 3103 1373 2948 
Q 1113 2794 1113 2528 
Q 1113 2219 1719 2053 
Q 1766 2041 1788 2034 
L 1972 1978 
Q 2547 1819 2739 1644 
Q 2931 1469 2931 1166 
Q 2931 609 2489 259 
Q 2047 -91 1331 -91 
Q 1053 -91 747 -37 
Q 441 16 72 128 
L 184 722 
Q 500 559 806 475 
Q 1113 391 1394 391 
Q 1816 391 2080 572 
Q 2344 753 2344 1031 
Q 2344 1331 1650 1516 
L 1591 1531 
L 1394 1581 
Q 956 1697 753 1886 
Q 550 2075 550 2369 
Q 550 2928 970 3256 
Q 1391 3584 2113 3584 
Q 2397 3584 2667 3537 
Q 2938 3491 3200 3397 
z
" id="DejaVuSans-Oblique-73" transform="scale(0.015625)"/>
       <path d="M 1172 4863 
L 1747 4863 
L 1606 4134 
L 1031 4134 
L 1172 4863 
z
M 909 3500 
L 1484 3500 
L 800 0 
L 225 0 
L 909 3500 
z
" id="DejaVuSans-Oblique-69" transform="scale(0.015625)"/>
       <path d="M 3566 2113 
L 3156 0 
L 2578 0 
L 2988 2091 
Q 3016 2238 3031 2350 
Q 3047 2463 3047 2528 
Q 3047 2791 2881 2937 
Q 2716 3084 2419 3084 
Q 1956 3084 1622 2776 
Q 1288 2469 1184 1941 
L 800 0 
L 225 0 
L 903 3500 
L 1478 3500 
L 1363 2950 
Q 1603 3253 1940 3418 
Q 2278 3584 2650 3584 
Q 3113 3584 3367 3334 
Q 3622 3084 3622 2631 
Q 3622 2519 3608 2391 
Q 3594 2263 3566 2113 
z
" id="DejaVuSans-Oblique-6e" transform="scale(0.015625)"/>
       <path d="M 1984 4856 
Q 1566 4138 1362 3434 
Q 1159 2731 1159 2009 
Q 1159 1288 1364 580 
Q 1569 -128 1984 -844 
L 1484 -844 
Q 1016 -109 783 600 
Q 550 1309 550 2009 
Q 550 2706 781 3412 
Q 1013 4119 1484 4856 
L 1984 4856 
z
" id="DejaVuSans-28" transform="scale(0.015625)"/>
       <path d="M 513 4856 
L 1013 4856 
Q 1481 4119 1714 3412 
Q 1947 2706 1947 2009 
Q 1947 1309 1714 600 
Q 1481 -109 1013 -844 
L 513 -844 
Q 928 -128 1133 580 
Q 1338 1288 1338 2009 
Q 1338 2731 1133 3434 
Q 928 4138 513 4856 
z
" id="DejaVuSans-29" transform="scale(0.015625)"/>
      </defs>
      <use transform="translate(0 0.015625)" xlink:href="#DejaVuSans-Oblique-73"/>
      <use transform="translate(52.099609 0.015625)" xlink:href="#DejaVuSans-Oblique-69"/>
      <use transform="translate(79.882812 0.015625)" xlink:href="#DejaVuSans-Oblique-6e"/>
      <use transform="translate(143.261719 0.015625)" xlink:href="#DejaVuSans-28"/>
      <use transform="translate(182.275391 0.015625)" xlink:href="#DejaVuSans-Oblique-78"/>
      <use transform="translate(241.455078 0.015625)" xlink:href="#DejaVuSans-29"/>
     </g>
    </g>
    <g id="line2d_20">
     <path d="M 341.68625 50.094688 
L 361.68625 50.094688 
" style="fill:none;stroke:#ff0000;stroke-linecap:round;stroke-width:2;"/>
    </g>
    <g id="line2d_21"/>
    <g id="text_19">
     <!-- $\mu_{2|1}$ -->
     <g style="fill:#262626;" transform="translate(369.68625 53.594688)scale(0.1 -0.1)">
      <defs>
       <path d="M -84 -1331 
L 856 3500 
L 1434 3500 
L 1009 1322 
Q 997 1256 987 1175 
Q 978 1094 978 1013 
Q 978 722 1161 565 
Q 1344 409 1684 409 
Q 2147 409 2431 671 
Q 2716 934 2816 1459 
L 3213 3500 
L 3788 3500 
L 3266 809 
Q 3253 750 3248 706 
Q 3244 663 3244 628 
Q 3244 531 3283 486 
Q 3322 441 3406 441 
Q 3438 441 3492 456 
Q 3547 472 3647 513 
L 3559 50 
Q 3422 -19 3297 -55 
Q 3172 -91 3053 -91 
Q 2847 -91 2730 40 
Q 2613 172 2613 403 
Q 2438 153 2195 31 
Q 1953 -91 1625 -91 
Q 1334 -91 1117 43 
Q 900 178 831 397 
L 494 -1331 
L -84 -1331 
z
" id="DejaVuSans-Oblique-3bc" transform="scale(0.015625)"/>
       <path d="M 1344 4891 
L 1344 -1509 
L 813 -1509 
L 813 4891 
L 1344 4891 
z
" id="DejaVuSans-7c" transform="scale(0.015625)"/>
      </defs>
      <use transform="translate(0 0.3125)" xlink:href="#DejaVuSans-Oblique-3bc"/>
      <use transform="translate(63.623047 -16.09375)scale(0.7)" xlink:href="#DejaVuSans-32"/>
      <use transform="translate(108.15918 -16.09375)scale(0.7)" xlink:href="#DejaVuSans-7c"/>
      <use transform="translate(131.743164 -16.09375)scale(0.7)" xlink:href="#DejaVuSans-31"/>
     </g>
    </g>
    <g id="line2d_22"/>
    <g id="line2d_23">
     <g>
      <use style="stroke:#000000;" x="351.68625" xlink:href="#mdc24d00a55" y="65.994687"/>
     </g>
    </g>
    <g id="text_20">
     <!-- $(x_1, y_1)$ -->
     <g style="fill:#262626;" transform="translate(369.68625 69.494687)scale(0.1 -0.1)">
      <defs>
       <path d="M 750 794 
L 1409 794 
L 1409 256 
L 897 -744 
L 494 -744 
L 750 256 
L 750 794 
z
" id="DejaVuSans-2c" transform="scale(0.015625)"/>
      </defs>
      <use transform="translate(0 0.125)" xlink:href="#DejaVuSans-28"/>
      <use transform="translate(39.013672 0.125)" xlink:href="#DejaVuSans-Oblique-78"/>
      <use transform="translate(98.193359 -16.28125)scale(0.7)" xlink:href="#DejaVuSans-31"/>
      <use transform="translate(145.463867 0.125)" xlink:href="#DejaVuSans-2c"/>
      <use transform="translate(196.733398 0.125)" xlink:href="#DejaVuSans-Oblique-79"/>
      <use transform="translate(255.913086 -16.28125)scale(0.7)" xlink:href="#DejaVuSans-31"/>
      <use transform="translate(303.183594 0.125)" xlink:href="#DejaVuSans-29"/>
     </g>
    </g>
    <g id="patch_8">
     <path d="M 341.68625 84.193125 
L 361.68625 84.193125 
L 361.68625 77.193125 
L 341.68625 77.193125 
z
" style="fill:#ff0000;fill-opacity:0.15;stroke:#ff0000;stroke-linejoin:miter;stroke-opacity:0.15;"/>
    </g>
    <g id="text_21">
     <!-- $2 \sigma_{2|1}$ -->
     <g style="fill:#262626;" transform="translate(369.68625 84.193125)scale(0.1 -0.1)">
      <defs>
       <path d="M 2219 3044 
Q 1744 3044 1422 2700 
Q 1081 2341 969 1747 
Q 844 1119 1044 756 
Q 1241 397 1706 397 
Q 2166 397 2503 759 
Q 2844 1122 2966 1747 
Q 3075 2319 2881 2700 
Q 2700 3044 2219 3044 
z
M 2309 3503 
L 4219 3500 
L 4106 2925 
L 3463 2925 
Q 3706 2438 3575 1747 
Q 3406 888 2884 400 
Q 2359 -91 1609 -91 
Q 856 -91 525 400 
Q 194 888 363 1747 
Q 528 2609 1050 3097 
Q 1484 3503 2309 3503 
z
" id="DejaVuSans-Oblique-3c3" transform="scale(0.015625)"/>
      </defs>
      <use transform="translate(0 0.78125)" xlink:href="#DejaVuSans-32"/>
      <use transform="translate(63.623047 0.78125)" xlink:href="#DejaVuSans-Oblique-3c3"/>
      <use transform="translate(127.001953 -15.625)scale(0.7)" xlink:href="#DejaVuSans-32"/>
      <use transform="translate(171.538086 -15.625)scale(0.7)" xlink:href="#DejaVuSans-7c"/>
      <use transform="translate(195.12207 -15.625)scale(0.7)" xlink:href="#DejaVuSans-31"/>
     </g>
    </g>
   </g>
  </g>
  <g id="axes_2">
   <g id="patch_9">
    <path d="M 45.52375 382.718125 
L 412.98625 382.718125 
L 412.98625 232.918125 
L 45.52375 232.918125 
z
" style="fill:#eaeaf2;"/>
   </g>
   <g id="matplotlib.axis_3">
    <g id="xtick_8">
     <g id="line2d_24">
      <path clip-path="url(#p8ba22a5c5e)" d="M 45.52375 382.718125 
L 45.52375 232.918125 
" style="fill:none;stroke:#ffffff;stroke-linecap:round;stroke-width:0.8;"/>
     </g>
     <g id="text_22">
      <!-- −6 -->
      <g style="fill:#262626;" transform="translate(38.152656 397.316562)scale(0.1 -0.1)">
       <use xlink:href="#DejaVuSans-2212"/>
       <use x="83.789062" xlink:href="#DejaVuSans-36"/>
      </g>
     </g>
    </g>
    <g id="xtick_9">
     <g id="line2d_25">
      <path clip-path="url(#p8ba22a5c5e)" d="M 106.7675 382.718125 
L 106.7675 232.918125 
" style="fill:none;stroke:#ffffff;stroke-linecap:round;stroke-width:0.8;"/>
     </g>
     <g id="text_23">
      <!-- −4 -->
      <g style="fill:#262626;" transform="translate(99.396406 397.316562)scale(0.1 -0.1)">
       <use xlink:href="#DejaVuSans-2212"/>
       <use x="83.789062" xlink:href="#DejaVuSans-34"/>
      </g>
     </g>
    </g>
    <g id="xtick_10">
     <g id="line2d_26">
      <path clip-path="url(#p8ba22a5c5e)" d="M 168.01125 382.718125 
L 168.01125 232.918125 
" style="fill:none;stroke:#ffffff;stroke-linecap:round;stroke-width:0.8;"/>
     </g>
     <g id="text_24">
      <!-- −2 -->
      <g style="fill:#262626;" transform="translate(160.640156 397.316562)scale(0.1 -0.1)">
       <use xlink:href="#DejaVuSans-2212"/>
       <use x="83.789062" xlink:href="#DejaVuSans-32"/>
      </g>
     </g>
    </g>
    <g id="xtick_11">
     <g id="line2d_27">
      <path clip-path="url(#p8ba22a5c5e)" d="M 229.255 382.718125 
L 229.255 232.918125 
" style="fill:none;stroke:#ffffff;stroke-linecap:round;stroke-width:0.8;"/>
     </g>
     <g id="text_25">
      <!-- 0 -->
      <g style="fill:#262626;" transform="translate(226.07375 397.316562)scale(0.1 -0.1)">
       <use xlink:href="#DejaVuSans-30"/>
      </g>
     </g>
    </g>
    <g id="xtick_12">
     <g id="line2d_28">
      <path clip-path="url(#p8ba22a5c5e)" d="M 290.49875 382.718125 
L 290.49875 232.918125 
" style="fill:none;stroke:#ffffff;stroke-linecap:round;stroke-width:0.8;"/>
     </g>
     <g id="text_26">
      <!-- 2 -->
      <g style="fill:#262626;" transform="translate(287.3175 397.316562)scale(0.1 -0.1)">
       <use xlink:href="#DejaVuSans-32"/>
      </g>
     </g>
    </g>
    <g id="xtick_13">
     <g id="line2d_29">
      <path clip-path="url(#p8ba22a5c5e)" d="M 351.7425 382.718125 
L 351.7425 232.918125 
" style="fill:none;stroke:#ffffff;stroke-linecap:round;stroke-width:0.8;"/>
     </g>
     <g id="text_27">
      <!-- 4 -->
      <g style="fill:#262626;" transform="translate(348.56125 397.316562)scale(0.1 -0.1)">
       <use xlink:href="#DejaVuSans-34"/>
      </g>
     </g>
    </g>
    <g id="xtick_14">
     <g id="line2d_30">
      <path clip-path="url(#p8ba22a5c5e)" d="M 412.98625 382.718125 
L 412.98625 232.918125 
" style="fill:none;stroke:#ffffff;stroke-linecap:round;stroke-width:0.8;"/>
     </g>
     <g id="text_28">
      <!-- 6 -->
      <g style="fill:#262626;" transform="translate(409.805 397.316562)scale(0.1 -0.1)">
       <use xlink:href="#DejaVuSans-36"/>
      </g>
     </g>
    </g>
    <g id="text_29">
     <!-- $x$ -->
     <g style="fill:#262626;" transform="translate(225.355 413.274219)scale(0.13 -0.13)">
      <use transform="translate(0 0.3125)" xlink:href="#DejaVuSans-Oblique-78"/>
     </g>
    </g>
   </g>
   <g id="matplotlib.axis_4">
    <g id="ytick_8">
     <g id="line2d_31">
      <path clip-path="url(#p8ba22a5c5e)" d="M 45.52375 367.66101 
L 412.98625 367.66101 
" style="fill:none;stroke:#ffffff;stroke-linecap:round;stroke-width:0.8;"/>
     </g>
     <g id="text_30">
      <!-- −2 -->
      <g style="fill:#262626;" transform="translate(23.781562 371.460229)scale(0.1 -0.1)">
       <use xlink:href="#DejaVuSans-2212"/>
       <use x="83.789062" xlink:href="#DejaVuSans-32"/>
      </g>
     </g>
    </g>
    <g id="ytick_9">
     <g id="line2d_32">
      <path clip-path="url(#p8ba22a5c5e)" d="M 45.52375 334.022311 
L 412.98625 334.022311 
" style="fill:none;stroke:#ffffff;stroke-linecap:round;stroke-width:0.8;"/>
     </g>
     <g id="text_31">
      <!-- −1 -->
      <g style="fill:#262626;" transform="translate(23.781562 337.82153)scale(0.1 -0.1)">
       <use xlink:href="#DejaVuSans-2212"/>
       <use x="83.789062" xlink:href="#DejaVuSans-31"/>
      </g>
     </g>
    </g>
    <g id="ytick_10">
     <g id="line2d_33">
      <path clip-path="url(#p8ba22a5c5e)" d="M 45.52375 300.383611 
L 412.98625 300.383611 
" style="fill:none;stroke:#ffffff;stroke-linecap:round;stroke-width:0.8;"/>
     </g>
     <g id="text_32">
      <!-- 0 -->
      <g style="fill:#262626;" transform="translate(32.16125 304.18283)scale(0.1 -0.1)">
       <use xlink:href="#DejaVuSans-30"/>
      </g>
     </g>
    </g>
    <g id="ytick_11">
     <g id="line2d_34">
      <path clip-path="url(#p8ba22a5c5e)" d="M 45.52375 266.744912 
L 412.98625 266.744912 
" style="fill:none;stroke:#ffffff;stroke-linecap:round;stroke-width:0.8;"/>
     </g>
     <g id="text_33">
      <!-- 1 -->
      <g style="fill:#262626;" transform="translate(32.16125 270.544131)scale(0.1 -0.1)">
       <use xlink:href="#DejaVuSans-31"/>
      </g>
     </g>
    </g>
    <g id="ytick_12">
     <g id="line2d_35">
      <path clip-path="url(#p8ba22a5c5e)" d="M 45.52375 233.106213 
L 412.98625 233.106213 
" style="fill:none;stroke:#ffffff;stroke-linecap:round;stroke-width:0.8;"/>
     </g>
     <g id="text_34">
      <!-- 2 -->
      <g style="fill:#262626;" transform="translate(32.16125 236.905432)scale(0.1 -0.1)">
       <use xlink:href="#DejaVuSans-32"/>
      </g>
     </g>
    </g>
    <g id="text_35">
     <!-- $y$ -->
     <g style="fill:#262626;" transform="translate(17.051562 311.718125)rotate(-90)scale(0.13 -0.13)">
      <use transform="translate(0 0.3125)" xlink:href="#DejaVuSans-Oblique-79"/>
     </g>
    </g>
   </g>
   <g id="line2d_36">
    <path clip-path="url(#p8ba22a5c5e)" d="M 45.52375 311.59538 
L 50.489459 310.785078 
L 55.455169 308.751919 
L 60.420878 305.707935 
L 65.386588 301.84698 
L 70.352297 297.341379 
L 75.318007 292.39389 
L 80.283716 287.303671 
L 85.249426 282.495117 
L 90.215135 278.478627 
L 95.180845 275.749985 
L 100.146554 274.669026 
L 105.112264 275.369964 
L 110.077973 277.740426 
L 115.043682 281.473543 
L 120.009392 286.165848 
L 124.975101 291.419273 
L 129.940811 296.91111 
L 134.90652 302.416637 
L 139.87223 307.791393 
L 144.837939 312.934289 
L 149.803649 317.754222 
L 154.769358 322.154387 
L 159.735068 326.035412 
L 164.700777 329.308153 
L 169.666486 331.902028 
L 174.632196 333.758581 
L 179.597905 334.808914 
L 184.563615 334.945011 
L 189.529324 334.003071 
L 194.495034 331.77768 
L 199.460743 328.076084 
L 204.426453 322.805216 
L 209.392162 316.064914 
L 214.357872 308.208512 
L 219.323581 299.834391 
L 224.289291 291.692048 
L 229.255 284.519078 
L 234.220709 278.858037 
L 239.186419 274.918733 
L 244.152128 272.540966 
L 249.117838 271.276609 
L 254.083547 270.562503 
L 259.049257 269.918925 
L 264.014966 269.099742 
L 268.980676 268.143736 
L 273.946385 267.320081 
L 278.912095 267.002922 
L 283.877804 267.532348 
L 288.843514 269.113983 
L 293.809223 271.784442 
L 298.774932 275.43991 
L 303.740642 279.904169 
L 308.706351 285.006213 
L 313.672061 290.643002 
L 318.63777 296.811946 
L 323.60348 303.604999 
L 328.569189 311.161973 
L 333.534899 319.588678 
L 338.500608 328.858034 
L 343.466318 338.725516 
L 348.432027 348.69561 
L 353.397736 358.065691 
L 358.363446 366.047449 
L 363.329155 371.934405 
L 368.294865 375.262212 
L 373.260574 375.909034 
L 378.226284 374.107194 
L 383.191993 370.372878 
L 388.157703 365.390016 
L 393.123412 359.893797 
L 398.089122 354.585821 
L 403.054831 350.087781 
L 408.020541 346.918467 
L 412.98625 345.47216 
" style="fill:none;stroke:#1f77b4;stroke-linecap:round;stroke-width:1.5;"/>
   </g>
   <g id="line2d_37">
    <path clip-path="url(#p8ba22a5c5e)" d="M 45.52375 301.227561 
L 50.489459 298.236774 
L 55.455169 294.986531 
L 60.420878 291.768744 
L 65.386588 288.76021 
L 70.352297 286.019043 
L 75.318007 283.51811 
L 80.283716 281.20631 
L 85.249426 279.079883 
L 90.215135 277.238851 
L 95.180845 275.904206 
L 100.146554 275.38281 
L 105.112264 275.985857 
L 110.077973 277.927259 
L 115.043682 281.239435 
L 120.009392 285.740429 
L 124.975101 291.067431 
L 129.940811 296.767248 
L 134.90652 302.412574 
L 139.87223 307.70521 
L 144.837939 312.532563 
L 149.803649 316.961035 
L 154.769358 321.168093 
L 159.735068 325.333094 
L 164.700777 329.518374 
L 169.666486 333.577288 
L 174.632196 337.122303 
L 179.597905 339.572333 
L 184.563615 340.275735 
L 189.529324 338.679329 
L 194.495034 334.494444 
L 199.460743 327.807672 
L 204.426453 319.099743 
L 209.392162 309.165581 
L 214.357872 298.960226 
L 219.323581 289.416464 
L 224.289291 281.283192 
L 229.255 275.02069 
L 234.220709 270.76655 
L 239.186419 268.365003 
L 244.152128 267.439558 
L 249.117838 267.486785 
L 254.083547 267.975065 
L 259.049257 268.439504 
L 264.014966 268.56778 
L 268.980676 268.268353 
L 273.946385 267.706009 
L 278.912095 267.286367 
L 283.877804 267.577515 
L 288.843514 269.174686 
L 293.809223 272.536561 
L 298.774932 277.839266 
L 303.740642 284.896032 
L 308.706351 293.173777 
L 313.672061 301.907989 
L 318.63777 310.284854 
L 323.60348 317.637481 
L 328.569189 323.598392 
L 333.534899 328.164531 
L 338.500608 331.658373 
L 343.466318 334.599564 
L 348.432027 337.526332 
L 353.397736 340.81742 
L 358.363446 344.561452 
L 363.329155 348.504848 
L 368.294865 352.087914 
L 373.260574 354.558532 
L 378.226284 355.137914 
L 383.191993 353.204049 
L 388.157703 348.45484 
L 393.123412 341.014635 
L 398.089122 331.455982 
L 403.054831 320.724792 
L 408.020541 309.979438 
L 412.98625 300.377562 
" style="fill:none;stroke:#ff7f0e;stroke-linecap:round;stroke-width:1.5;"/>
   </g>
   <g id="line2d_38">
    <path clip-path="url(#p8ba22a5c5e)" d="M 45.52375 338.979354 
L 50.489459 335.600535 
L 55.455169 329.361064 
L 60.420878 320.652854 
L 65.386588 310.176721 
L 70.352297 298.909463 
L 75.318007 287.997836 
L 80.283716 278.587349 
L 85.249426 271.619478 
L 90.215135 267.650923 
L 95.180845 266.751873 
L 100.146554 268.522413 
L 105.112264 272.230183 
L 110.077973 277.031106 
L 115.043682 282.2029 
L 120.009392 287.313819 
L 124.975101 292.270082 
L 129.940811 297.230215 
L 134.90652 302.425006 
L 139.87223 307.959597 
L 144.837939 313.680765 
L 149.803649 319.167121 
L 154.769358 323.84793 
L 159.735068 327.203876 
L 164.700777 328.967435 
L 169.666486 329.240987 
L 174.632196 328.483109 
L 179.597905 327.365909 
L 184.563615 326.555437 
L 189.529324 326.494143 
L 194.495034 327.260032 
L 199.460743 328.546029 
L 204.426453 329.758718 
L 209.392162 330.196336 
L 214.357872 329.244393 
L 219.323581 326.529252 
L 224.289291 321.991566 
L 229.255 315.872214 
L 234.220709 308.631448 
L 239.186419 300.837583 
L 244.152128 293.06177 
L 249.117838 285.802802 
L 254.083547 279.448313 
L 259.049257 274.264434 
L 264.014966 270.39982 
L 268.980676 267.893177 
L 273.946385 266.681477 
L 278.912095 266.614067 
L 283.877804 267.480393 
L 288.843514 269.054649 
L 293.809223 271.150673 
L 298.774932 273.669944 
L 303.740642 276.620595 
L 308.706351 280.090533 
L 313.672061 284.173331 
L 318.63777 288.867053 
L 323.60348 293.983576 
L 328.569189 299.110618 
L 333.534899 303.655779 
L 338.500608 306.974515 
L 343.466318 308.551826 
L 348.432027 308.18384 
L 353.397736 306.098737 
L 358.363446 302.970668 
L 363.329155 299.809939 
L 368.294865 297.749013 
L 373.260574 297.776022 
L 378.226284 300.486163 
L 383.191993 305.921593 
L 388.157703 313.549687 
L 393.123412 322.392351 
L 398.089122 331.274097 
L 403.054831 339.118225 
L 408.020541 345.202717 
L 412.98625 349.299262 
" style="fill:none;stroke:#2ca02c;stroke-linecap:round;stroke-width:1.5;"/>
   </g>
   <g id="line2d_39">
    <path clip-path="url(#p8ba22a5c5e)" d="M 45.52375 239.727216 
L 50.489459 245.403611 
L 55.455169 250.619747 
L 60.420878 255.319948 
L 65.386588 259.488251 
L 70.352297 263.088321 
L 75.318007 266.051177 
L 80.283716 268.318594 
L 85.249426 269.917017 
L 90.215135 271.018254 
L 95.180845 271.947247 
L 100.146554 273.122724 
L 105.112264 274.949454 
L 110.077973 277.704874 
L 115.043682 281.466127 
L 120.009392 286.105225 
L 124.975101 291.349761 
L 129.940811 296.879334 
L 134.90652 302.415718 
L 139.87223 307.772794 
L 144.837939 312.854436 
L 149.803649 317.61418 
L 154.769358 322.005207 
L 159.735068 325.948129 
L 164.700777 329.328431 
L 169.666486 332.016337 
L 174.632196 333.89062 
L 179.597905 334.850668 
L 184.563615 334.813884 
L 189.529324 333.709374 
L 194.495034 331.482855 
L 199.460743 328.120426 
L 204.426453 323.684243 
L 209.392162 318.341794 
L 214.357872 312.369253 
L 219.323581 306.119409 
L 224.289291 299.960466 
L 229.255 294.20529 
L 234.220709 289.055609 
L 239.186419 284.58005 
L 244.152128 280.732281 
L 249.117838 277.401414 
L 254.083547 274.476296 
L 259.049257 271.902161 
L 264.014966 269.711758 
L 268.980676 268.02208 
L 273.946385 266.998511 
L 278.912095 266.797305 
L 283.877804 267.502905 
L 288.843514 269.076914 
L 293.809223 271.332186 
L 298.774932 273.939578 
L 303.740642 276.468746 
L 308.706351 278.458241 
L 313.672061 279.504252 
L 318.63777 279.351137 
L 323.60348 277.962547 
L 328.569189 275.552295 
L 333.534899 272.561584 
L 338.500608 269.582633 
L 343.466318 267.244544 
L 348.432027 266.08873 
L 353.397736 266.464692 
L 358.363446 268.471053 
L 363.329155 271.95412 
L 368.294865 276.560787 
L 373.260574 281.828433 
L 378.226284 287.285353 
L 383.191993 292.533565 
L 388.157703 297.292647 
L 393.123412 301.396849 
L 398.089122 304.754164 
L 403.054831 307.289341 
L 408.020541 308.898138 
L 412.98625 309.435333 
" style="fill:none;stroke:#d62728;stroke-linecap:round;stroke-width:1.5;"/>
   </g>
   <g id="line2d_40">
    <path clip-path="url(#p8ba22a5c5e)" d="M 45.52375 295.811163 
L 50.489459 289.886295 
L 55.455169 284.852651 
L 60.420878 280.938977 
L 65.386588 278.221445 
L 70.352297 276.58853 
L 75.318007 275.764348 
L 80.283716 275.394207 
L 85.249426 275.167961 
L 90.215135 274.936772 
L 95.180845 274.776633 
L 100.146554 274.969511 
L 105.112264 275.904161 
L 110.077973 277.930235 
L 115.043682 281.220171 
L 120.009392 285.691869 
L 124.975101 291.022559 
L 129.940811 296.748654 
L 134.90652 302.412089 
L 139.87223 307.695829 
L 144.837939 312.496655 
L 149.803649 316.90955 
L 154.769358 321.132595 
L 159.735068 325.330861 
L 164.700777 329.511419 
L 169.666486 333.455688 
L 174.632196 336.734039 
L 179.597905 338.800077 
L 184.563615 339.136049 
L 189.529324 337.40575 
L 194.495034 333.568804 
L 199.460743 327.921255 
L 204.426453 321.048032 
L 209.392162 313.697672 
L 214.357872 306.612401 
L 219.323581 300.361123 
L 224.289291 295.223976 
L 229.255 291.163058 
L 234.220709 287.88746 
L 239.186419 284.989456 
L 244.152128 282.104393 
L 249.117838 279.039156 
L 254.083547 275.827189 
L 259.049257 272.697183 
L 264.014966 269.975939 
L 268.980676 267.969536 
L 273.946385 266.871831 
L 278.912095 266.733623 
L 283.877804 267.497779 
L 288.843514 269.07731 
L 293.809223 271.437266 
L 298.774932 274.642991 
L 303.740642 278.854483 
L 308.706351 284.269358 
L 313.672061 291.034941 
L 318.63777 299.156813 
L 323.60348 308.42788 
L 328.569189 318.394432 
L 333.534899 328.368795 
L 338.500608 337.493303 
L 343.466318 344.853846 
L 348.432027 349.630719 
L 353.397736 351.260514 
L 358.363446 349.571613 
L 363.329155 344.854206 
L 368.294865 337.837981 
L 373.260574 329.573793 
L 378.226284 321.242028 
L 383.191993 313.930425 
L 388.157703 308.431307 
L 393.123412 305.101531 
L 398.089122 303.812274 
L 403.054831 303.996612 
L 408.020541 304.785095 
L 412.98625 305.20511 
" style="fill:none;stroke:#9467bd;stroke-linecap:round;stroke-width:1.5;"/>
   </g>
   <g id="patch_10">
    <path d="M 45.52375 382.718125 
L 45.52375 232.918125 
" style="fill:none;stroke:#ffffff;stroke-linecap:square;stroke-linejoin:miter;stroke-width:0.8;"/>
   </g>
   <g id="patch_11">
    <path d="M 412.98625 382.718125 
L 412.98625 232.918125 
" style="fill:none;stroke:#ffffff;stroke-linecap:square;stroke-linejoin:miter;stroke-width:0.8;"/>
   </g>
   <g id="patch_12">
    <path d="M 45.52375 382.718125 
L 412.98625 382.718125 
" style="fill:none;stroke:#ffffff;stroke-linecap:square;stroke-linejoin:miter;stroke-width:0.8;"/>
   </g>
   <g id="patch_13">
    <path d="M 45.52375 232.918125 
L 412.98625 232.918125 
" style="fill:none;stroke:#ffffff;stroke-linecap:square;stroke-linejoin:miter;stroke-width:0.8;"/>
   </g>
   <g id="text_36">
    <!-- 5 different function realizations from posterior -->
    <g style="fill:#262626;" transform="translate(90.464688 226.918125)scale(0.12 -0.12)">
     <defs>
      <path d="M 691 4666 
L 3169 4666 
L 3169 4134 
L 1269 4134 
L 1269 2991 
Q 1406 3038 1543 3061 
Q 1681 3084 1819 3084 
Q 2600 3084 3056 2656 
Q 3513 2228 3513 1497 
Q 3513 744 3044 326 
Q 2575 -91 1722 -91 
Q 1428 -91 1123 -41 
Q 819 9 494 109 
L 494 744 
Q 775 591 1075 516 
Q 1375 441 1709 441 
Q 2250 441 2565 725 
Q 2881 1009 2881 1497 
Q 2881 1984 2565 2268 
Q 2250 2553 1709 2553 
Q 1456 2553 1204 2497 
Q 953 2441 691 2322 
L 691 4666 
z
" id="DejaVuSans-35" transform="scale(0.015625)"/>
      <path d="M 3122 3366 
L 3122 2828 
Q 2878 2963 2633 3030 
Q 2388 3097 2138 3097 
Q 1578 3097 1268 2742 
Q 959 2388 959 1747 
Q 959 1106 1268 751 
Q 1578 397 2138 397 
Q 2388 397 2633 464 
Q 2878 531 3122 666 
L 3122 134 
Q 2881 22 2623 -34 
Q 2366 -91 2075 -91 
Q 1284 -91 818 406 
Q 353 903 353 1747 
Q 353 2603 823 3093 
Q 1294 3584 2113 3584 
Q 2378 3584 2631 3529 
Q 2884 3475 3122 3366 
z
" id="DejaVuSans-63" transform="scale(0.015625)"/>
      <path d="M 603 4863 
L 1178 4863 
L 1178 0 
L 603 0 
L 603 4863 
z
" id="DejaVuSans-6c" transform="scale(0.015625)"/>
      <path d="M 353 3500 
L 3084 3500 
L 3084 2975 
L 922 459 
L 3084 459 
L 3084 0 
L 275 0 
L 275 525 
L 2438 3041 
L 353 3041 
L 353 3500 
z
" id="DejaVuSans-7a" transform="scale(0.015625)"/>
      <path d="M 3328 2828 
Q 3544 3216 3844 3400 
Q 4144 3584 4550 3584 
Q 5097 3584 5394 3201 
Q 5691 2819 5691 2113 
L 5691 0 
L 5113 0 
L 5113 2094 
Q 5113 2597 4934 2840 
Q 4756 3084 4391 3084 
Q 3944 3084 3684 2787 
Q 3425 2491 3425 1978 
L 3425 0 
L 2847 0 
L 2847 2094 
Q 2847 2600 2669 2842 
Q 2491 3084 2119 3084 
Q 1678 3084 1418 2786 
Q 1159 2488 1159 1978 
L 1159 0 
L 581 0 
L 581 3500 
L 1159 3500 
L 1159 2956 
Q 1356 3278 1631 3431 
Q 1906 3584 2284 3584 
Q 2666 3584 2933 3390 
Q 3200 3197 3328 2828 
z
" id="DejaVuSans-6d" transform="scale(0.015625)"/>
     </defs>
     <use xlink:href="#DejaVuSans-35"/>
     <use x="63.623047" xlink:href="#DejaVuSans-20"/>
     <use x="95.410156" xlink:href="#DejaVuSans-64"/>
     <use x="158.886719" xlink:href="#DejaVuSans-69"/>
     <use x="186.669922" xlink:href="#DejaVuSans-66"/>
     <use x="221.875" xlink:href="#DejaVuSans-66"/>
     <use x="257.080078" xlink:href="#DejaVuSans-65"/>
     <use x="318.603516" xlink:href="#DejaVuSans-72"/>
     <use x="357.466797" xlink:href="#DejaVuSans-65"/>
     <use x="418.990234" xlink:href="#DejaVuSans-6e"/>
     <use x="482.369141" xlink:href="#DejaVuSans-74"/>
     <use x="521.578125" xlink:href="#DejaVuSans-20"/>
     <use x="553.365234" xlink:href="#DejaVuSans-66"/>
     <use x="588.570312" xlink:href="#DejaVuSans-75"/>
     <use x="651.949219" xlink:href="#DejaVuSans-6e"/>
     <use x="715.328125" xlink:href="#DejaVuSans-63"/>
     <use x="770.308594" xlink:href="#DejaVuSans-74"/>
     <use x="809.517578" xlink:href="#DejaVuSans-69"/>
     <use x="837.300781" xlink:href="#DejaVuSans-6f"/>
     <use x="898.482422" xlink:href="#DejaVuSans-6e"/>
     <use x="961.861328" xlink:href="#DejaVuSans-20"/>
     <use x="993.648438" xlink:href="#DejaVuSans-72"/>
     <use x="1032.511719" xlink:href="#DejaVuSans-65"/>
     <use x="1094.035156" xlink:href="#DejaVuSans-61"/>
     <use x="1155.314453" xlink:href="#DejaVuSans-6c"/>
     <use x="1183.097656" xlink:href="#DejaVuSans-69"/>
     <use x="1210.880859" xlink:href="#DejaVuSans-7a"/>
     <use x="1263.371094" xlink:href="#DejaVuSans-61"/>
     <use x="1324.650391" xlink:href="#DejaVuSans-74"/>
     <use x="1363.859375" xlink:href="#DejaVuSans-69"/>
     <use x="1391.642578" xlink:href="#DejaVuSans-6f"/>
     <use x="1452.824219" xlink:href="#DejaVuSans-6e"/>
     <use x="1516.203125" xlink:href="#DejaVuSans-73"/>
     <use x="1568.302734" xlink:href="#DejaVuSans-20"/>
     <use x="1600.089844" xlink:href="#DejaVuSans-66"/>
     <use x="1635.294922" xlink:href="#DejaVuSans-72"/>
     <use x="1674.158203" xlink:href="#DejaVuSans-6f"/>
     <use x="1735.339844" xlink:href="#DejaVuSans-6d"/>
     <use x="1832.751953" xlink:href="#DejaVuSans-20"/>
     <use x="1864.539062" xlink:href="#DejaVuSans-70"/>
     <use x="1928.015625" xlink:href="#DejaVuSans-6f"/>
     <use x="1989.197266" xlink:href="#DejaVuSans-73"/>
     <use x="2041.296875" xlink:href="#DejaVuSans-74"/>
     <use x="2080.505859" xlink:href="#DejaVuSans-65"/>
     <use x="2142.029297" xlink:href="#DejaVuSans-72"/>
     <use x="2183.142578" xlink:href="#DejaVuSans-69"/>
     <use x="2210.925781" xlink:href="#DejaVuSans-6f"/>
     <use x="2272.107422" xlink:href="#DejaVuSans-72"/>
    </g>
   </g>
  </g>
 </g>
 <defs>
  <clipPath id="pb1df7d46aa">
   <rect height="149.8" width="367.4625" x="45.52375" y="22.318125"/>
  </clipPath>
  <clipPath id="p8ba22a5c5e">
   <rect height="149.8" width="367.4625" x="45.52375" y="232.918125"/>
  </clipPath>
 </defs>
</svg>
