<?xml version="1.0" encoding="utf-8" standalone="no"?>
<!DOCTYPE svg PUBLIC "-//W3C//DTD SVG 1.1//EN"
  "http://www.w3.org/Graphics/SVG/1.1/DTD/svg11.dtd">
<svg height="275.615188pt" version="1.1" viewBox="0 0 420.331875 275.615188" width="420.331875pt" xmlns="http://www.w3.org/2000/svg" xmlns:xlink="http://www.w3.org/1999/xlink">
 <metadata>
  <rdf:RDF xmlns:cc="http://creativecommons.org/ns#" xmlns:dc="http://purl.org/dc/elements/1.1/" xmlns:rdf="http://www.w3.org/1999/02/22-rdf-syntax-ns#">
   <cc:Work>
    <dc:type rdf:resource="http://purl.org/dc/dcmitype/StillImage"/>
    <dc:date>2021-08-24T13:38:44.600441</dc:date>
    <dc:format>image/svg+xml</dc:format>
    <dc:creator>
     <cc:Agent>
      <dc:title>Matplotlib v3.4.3, https://matplotlib.org/</dc:title>
     </cc:Agent>
    </dc:creator>
   </cc:Work>
  </rdf:RDF>
 </metadata>
 <defs>
  <style type="text/css">*{stroke-linecap:butt;stroke-linejoin:round;}</style>
 </defs>
 <g id="figure_1">
  <g id="patch_1">
   <path d="M 0 275.615188 
L 420.331875 275.615188 
L 420.331875 0 
L 0 0 
z
" style="fill:#ffffff;"/>
  </g>
  <g id="axes_1">
   <g id="patch_2">
    <path d="M 55.092813 235.1555 
L 405.180313 235.1555 
L 405.180313 35.7555 
L 55.092813 35.7555 
z
" style="fill:#eaeaf2;"/>
   </g>
   <g id="matplotlib.axis_1">
    <g id="xtick_1">
     <g id="line2d_1">
      <path clip-path="url(#p42b803a1cb)" d="M 55.092813 235.1555 
L 55.092813 35.7555 
" style="fill:none;stroke:#ffffff;stroke-linecap:round;stroke-width:0.8;"/>
     </g>
     <g id="text_1">
      <!-- 0.0 -->
      <g style="fill:#262626;" transform="translate(47.14125 249.753938)scale(0.1 -0.1)">
       <defs>
        <path d="M 2034 4250 
Q 1547 4250 1301 3770 
Q 1056 3291 1056 2328 
Q 1056 1369 1301 889 
Q 1547 409 2034 409 
Q 2525 409 2770 889 
Q 3016 1369 3016 2328 
Q 3016 3291 2770 3770 
Q 2525 4250 2034 4250 
z
M 2034 4750 
Q 2819 4750 3233 4129 
Q 3647 3509 3647 2328 
Q 3647 1150 3233 529 
Q 2819 -91 2034 -91 
Q 1250 -91 836 529 
Q 422 1150 422 2328 
Q 422 3509 836 4129 
Q 1250 4750 2034 4750 
z
" id="DejaVuSans-30" transform="scale(0.015625)"/>
        <path d="M 684 794 
L 1344 794 
L 1344 0 
L 684 0 
L 684 794 
z
" id="DejaVuSans-2e" transform="scale(0.015625)"/>
       </defs>
       <use xlink:href="#DejaVuSans-30"/>
       <use x="63.623047" xlink:href="#DejaVuSans-2e"/>
       <use x="95.410156" xlink:href="#DejaVuSans-30"/>
      </g>
     </g>
    </g>
    <g id="xtick_2">
     <g id="line2d_2">
      <path clip-path="url(#p42b803a1cb)" d="M 125.110313 235.1555 
L 125.110313 35.7555 
" style="fill:none;stroke:#ffffff;stroke-linecap:round;stroke-width:0.8;"/>
     </g>
     <g id="text_2">
      <!-- 0.2 -->
      <g style="fill:#262626;" transform="translate(117.15875 249.753938)scale(0.1 -0.1)">
       <defs>
        <path d="M 1228 531 
L 3431 531 
L 3431 0 
L 469 0 
L 469 531 
Q 828 903 1448 1529 
Q 2069 2156 2228 2338 
Q 2531 2678 2651 2914 
Q 2772 3150 2772 3378 
Q 2772 3750 2511 3984 
Q 2250 4219 1831 4219 
Q 1534 4219 1204 4116 
Q 875 4013 500 3803 
L 500 4441 
Q 881 4594 1212 4672 
Q 1544 4750 1819 4750 
Q 2544 4750 2975 4387 
Q 3406 4025 3406 3419 
Q 3406 3131 3298 2873 
Q 3191 2616 2906 2266 
Q 2828 2175 2409 1742 
Q 1991 1309 1228 531 
z
" id="DejaVuSans-32" transform="scale(0.015625)"/>
       </defs>
       <use xlink:href="#DejaVuSans-30"/>
       <use x="63.623047" xlink:href="#DejaVuSans-2e"/>
       <use x="95.410156" xlink:href="#DejaVuSans-32"/>
      </g>
     </g>
    </g>
    <g id="xtick_3">
     <g id="line2d_3">
      <path clip-path="url(#p42b803a1cb)" d="M 195.127813 235.1555 
L 195.127813 35.7555 
" style="fill:none;stroke:#ffffff;stroke-linecap:round;stroke-width:0.8;"/>
     </g>
     <g id="text_3">
      <!-- 0.4 -->
      <g style="fill:#262626;" transform="translate(187.17625 249.753938)scale(0.1 -0.1)">
       <defs>
        <path d="M 2419 4116 
L 825 1625 
L 2419 1625 
L 2419 4116 
z
M 2253 4666 
L 3047 4666 
L 3047 1625 
L 3713 1625 
L 3713 1100 
L 3047 1100 
L 3047 0 
L 2419 0 
L 2419 1100 
L 313 1100 
L 313 1709 
L 2253 4666 
z
" id="DejaVuSans-34" transform="scale(0.015625)"/>
       </defs>
       <use xlink:href="#DejaVuSans-30"/>
       <use x="63.623047" xlink:href="#DejaVuSans-2e"/>
       <use x="95.410156" xlink:href="#DejaVuSans-34"/>
      </g>
     </g>
    </g>
    <g id="xtick_4">
     <g id="line2d_4">
      <path clip-path="url(#p42b803a1cb)" d="M 265.145313 235.1555 
L 265.145313 35.7555 
" style="fill:none;stroke:#ffffff;stroke-linecap:round;stroke-width:0.8;"/>
     </g>
     <g id="text_4">
      <!-- 0.6 -->
      <g style="fill:#262626;" transform="translate(257.19375 249.753938)scale(0.1 -0.1)">
       <defs>
        <path d="M 2113 2584 
Q 1688 2584 1439 2293 
Q 1191 2003 1191 1497 
Q 1191 994 1439 701 
Q 1688 409 2113 409 
Q 2538 409 2786 701 
Q 3034 994 3034 1497 
Q 3034 2003 2786 2293 
Q 2538 2584 2113 2584 
z
M 3366 4563 
L 3366 3988 
Q 3128 4100 2886 4159 
Q 2644 4219 2406 4219 
Q 1781 4219 1451 3797 
Q 1122 3375 1075 2522 
Q 1259 2794 1537 2939 
Q 1816 3084 2150 3084 
Q 2853 3084 3261 2657 
Q 3669 2231 3669 1497 
Q 3669 778 3244 343 
Q 2819 -91 2113 -91 
Q 1303 -91 875 529 
Q 447 1150 447 2328 
Q 447 3434 972 4092 
Q 1497 4750 2381 4750 
Q 2619 4750 2861 4703 
Q 3103 4656 3366 4563 
z
" id="DejaVuSans-36" transform="scale(0.015625)"/>
       </defs>
       <use xlink:href="#DejaVuSans-30"/>
       <use x="63.623047" xlink:href="#DejaVuSans-2e"/>
       <use x="95.410156" xlink:href="#DejaVuSans-36"/>
      </g>
     </g>
    </g>
    <g id="xtick_5">
     <g id="line2d_5">
      <path clip-path="url(#p42b803a1cb)" d="M 335.162812 235.1555 
L 335.162812 35.7555 
" style="fill:none;stroke:#ffffff;stroke-linecap:round;stroke-width:0.8;"/>
     </g>
     <g id="text_5">
      <!-- 0.8 -->
      <g style="fill:#262626;" transform="translate(327.21125 249.753938)scale(0.1 -0.1)">
       <defs>
        <path d="M 2034 2216 
Q 1584 2216 1326 1975 
Q 1069 1734 1069 1313 
Q 1069 891 1326 650 
Q 1584 409 2034 409 
Q 2484 409 2743 651 
Q 3003 894 3003 1313 
Q 3003 1734 2745 1975 
Q 2488 2216 2034 2216 
z
M 1403 2484 
Q 997 2584 770 2862 
Q 544 3141 544 3541 
Q 544 4100 942 4425 
Q 1341 4750 2034 4750 
Q 2731 4750 3128 4425 
Q 3525 4100 3525 3541 
Q 3525 3141 3298 2862 
Q 3072 2584 2669 2484 
Q 3125 2378 3379 2068 
Q 3634 1759 3634 1313 
Q 3634 634 3220 271 
Q 2806 -91 2034 -91 
Q 1263 -91 848 271 
Q 434 634 434 1313 
Q 434 1759 690 2068 
Q 947 2378 1403 2484 
z
M 1172 3481 
Q 1172 3119 1398 2916 
Q 1625 2713 2034 2713 
Q 2441 2713 2670 2916 
Q 2900 3119 2900 3481 
Q 2900 3844 2670 4047 
Q 2441 4250 2034 4250 
Q 1625 4250 1398 4047 
Q 1172 3844 1172 3481 
z
" id="DejaVuSans-38" transform="scale(0.015625)"/>
       </defs>
       <use xlink:href="#DejaVuSans-30"/>
       <use x="63.623047" xlink:href="#DejaVuSans-2e"/>
       <use x="95.410156" xlink:href="#DejaVuSans-38"/>
      </g>
     </g>
    </g>
    <g id="xtick_6">
     <g id="line2d_6">
      <path clip-path="url(#p42b803a1cb)" d="M 405.180313 235.1555 
L 405.180313 35.7555 
" style="fill:none;stroke:#ffffff;stroke-linecap:round;stroke-width:0.8;"/>
     </g>
     <g id="text_6">
      <!-- 1.0 -->
      <g style="fill:#262626;" transform="translate(397.22875 249.753938)scale(0.1 -0.1)">
       <defs>
        <path d="M 794 531 
L 1825 531 
L 1825 4091 
L 703 3866 
L 703 4441 
L 1819 4666 
L 2450 4666 
L 2450 531 
L 3481 531 
L 3481 0 
L 794 0 
L 794 531 
z
" id="DejaVuSans-31" transform="scale(0.015625)"/>
       </defs>
       <use xlink:href="#DejaVuSans-31"/>
       <use x="63.623047" xlink:href="#DejaVuSans-2e"/>
       <use x="95.410156" xlink:href="#DejaVuSans-30"/>
      </g>
     </g>
    </g>
    <g id="text_7">
     <!-- $t$ (time) -->
     <g style="fill:#262626;" transform="translate(205.761562 265.711594)scale(0.13 -0.13)">
      <defs>
       <path d="M 2706 3500 
L 2619 3053 
L 1472 3053 
L 1100 1153 
Q 1081 1047 1072 975 
Q 1063 903 1063 863 
Q 1063 663 1183 572 
Q 1303 481 1569 481 
L 2150 481 
L 2053 0 
L 1503 0 
Q 991 0 739 200 
Q 488 400 488 806 
Q 488 878 497 964 
Q 506 1050 525 1153 
L 897 3053 
L 409 3053 
L 500 3500 
L 978 3500 
L 1172 4494 
L 1747 4494 
L 1556 3500 
L 2706 3500 
z
" id="DejaVuSans-Oblique-74" transform="scale(0.015625)"/>
       <path id="DejaVuSans-20" transform="scale(0.015625)"/>
       <path d="M 1984 4856 
Q 1566 4138 1362 3434 
Q 1159 2731 1159 2009 
Q 1159 1288 1364 580 
Q 1569 -128 1984 -844 
L 1484 -844 
Q 1016 -109 783 600 
Q 550 1309 550 2009 
Q 550 2706 781 3412 
Q 1013 4119 1484 4856 
L 1984 4856 
z
" id="DejaVuSans-28" transform="scale(0.015625)"/>
       <path d="M 1172 4494 
L 1172 3500 
L 2356 3500 
L 2356 3053 
L 1172 3053 
L 1172 1153 
Q 1172 725 1289 603 
Q 1406 481 1766 481 
L 2356 481 
L 2356 0 
L 1766 0 
Q 1100 0 847 248 
Q 594 497 594 1153 
L 594 3053 
L 172 3053 
L 172 3500 
L 594 3500 
L 594 4494 
L 1172 4494 
z
" id="DejaVuSans-74" transform="scale(0.015625)"/>
       <path d="M 603 3500 
L 1178 3500 
L 1178 0 
L 603 0 
L 603 3500 
z
M 603 4863 
L 1178 4863 
L 1178 4134 
L 603 4134 
L 603 4863 
z
" id="DejaVuSans-69" transform="scale(0.015625)"/>
       <path d="M 3328 2828 
Q 3544 3216 3844 3400 
Q 4144 3584 4550 3584 
Q 5097 3584 5394 3201 
Q 5691 2819 5691 2113 
L 5691 0 
L 5113 0 
L 5113 2094 
Q 5113 2597 4934 2840 
Q 4756 3084 4391 3084 
Q 3944 3084 3684 2787 
Q 3425 2491 3425 1978 
L 3425 0 
L 2847 0 
L 2847 2094 
Q 2847 2600 2669 2842 
Q 2491 3084 2119 3084 
Q 1678 3084 1418 2786 
Q 1159 2488 1159 1978 
L 1159 0 
L 581 0 
L 581 3500 
L 1159 3500 
L 1159 2956 
Q 1356 3278 1631 3431 
Q 1906 3584 2284 3584 
Q 2666 3584 2933 3390 
Q 3200 3197 3328 2828 
z
" id="DejaVuSans-6d" transform="scale(0.015625)"/>
       <path d="M 3597 1894 
L 3597 1613 
L 953 1613 
Q 991 1019 1311 708 
Q 1631 397 2203 397 
Q 2534 397 2845 478 
Q 3156 559 3463 722 
L 3463 178 
Q 3153 47 2828 -22 
Q 2503 -91 2169 -91 
Q 1331 -91 842 396 
Q 353 884 353 1716 
Q 353 2575 817 3079 
Q 1281 3584 2069 3584 
Q 2775 3584 3186 3129 
Q 3597 2675 3597 1894 
z
M 3022 2063 
Q 3016 2534 2758 2815 
Q 2500 3097 2075 3097 
Q 1594 3097 1305 2825 
Q 1016 2553 972 2059 
L 3022 2063 
z
" id="DejaVuSans-65" transform="scale(0.015625)"/>
       <path d="M 513 4856 
L 1013 4856 
Q 1481 4119 1714 3412 
Q 1947 2706 1947 2009 
Q 1947 1309 1714 600 
Q 1481 -109 1013 -844 
L 513 -844 
Q 928 -128 1133 580 
Q 1338 1288 1338 2009 
Q 1338 2731 1133 3434 
Q 928 4138 513 4856 
z
" id="DejaVuSans-29" transform="scale(0.015625)"/>
      </defs>
      <use transform="translate(0 0.015625)" xlink:href="#DejaVuSans-Oblique-74"/>
      <use transform="translate(39.208984 0.015625)" xlink:href="#DejaVuSans-20"/>
      <use transform="translate(70.996094 0.015625)" xlink:href="#DejaVuSans-28"/>
      <use transform="translate(110.009766 0.015625)" xlink:href="#DejaVuSans-74"/>
      <use transform="translate(149.21875 0.015625)" xlink:href="#DejaVuSans-69"/>
      <use transform="translate(177.001953 0.015625)" xlink:href="#DejaVuSans-6d"/>
      <use transform="translate(274.414062 0.015625)" xlink:href="#DejaVuSans-65"/>
      <use transform="translate(335.9375 0.015625)" xlink:href="#DejaVuSans-29"/>
     </g>
    </g>
   </g>
   <g id="matplotlib.axis_2">
    <g id="ytick_1">
     <g id="line2d_7">
      <path clip-path="url(#p42b803a1cb)" d="M 55.092813 218.75775 
L 405.180313 218.75775 
" style="fill:none;stroke:#ffffff;stroke-linecap:round;stroke-width:0.8;"/>
     </g>
     <g id="text_8">
      <!-- −1.5 -->
      <g style="fill:#262626;" transform="translate(23.81 222.556969)scale(0.1 -0.1)">
       <defs>
        <path d="M 678 2272 
L 4684 2272 
L 4684 1741 
L 678 1741 
L 678 2272 
z
" id="DejaVuSans-2212" transform="scale(0.015625)"/>
        <path d="M 691 4666 
L 3169 4666 
L 3169 4134 
L 1269 4134 
L 1269 2991 
Q 1406 3038 1543 3061 
Q 1681 3084 1819 3084 
Q 2600 3084 3056 2656 
Q 3513 2228 3513 1497 
Q 3513 744 3044 326 
Q 2575 -91 1722 -91 
Q 1428 -91 1123 -41 
Q 819 9 494 109 
L 494 744 
Q 775 591 1075 516 
Q 1375 441 1709 441 
Q 2250 441 2565 725 
Q 2881 1009 2881 1497 
Q 2881 1984 2565 2268 
Q 2250 2553 1709 2553 
Q 1456 2553 1204 2497 
Q 953 2441 691 2322 
L 691 4666 
z
" id="DejaVuSans-35" transform="scale(0.015625)"/>
       </defs>
       <use xlink:href="#DejaVuSans-2212"/>
       <use x="83.789062" xlink:href="#DejaVuSans-31"/>
       <use x="147.412109" xlink:href="#DejaVuSans-2e"/>
       <use x="179.199219" xlink:href="#DejaVuSans-35"/>
      </g>
     </g>
    </g>
    <g id="ytick_2">
     <g id="line2d_8">
      <path clip-path="url(#p42b803a1cb)" d="M 55.092813 192.815908 
L 405.180313 192.815908 
" style="fill:none;stroke:#ffffff;stroke-linecap:round;stroke-width:0.8;"/>
     </g>
     <g id="text_9">
      <!-- −1.0 -->
      <g style="fill:#262626;" transform="translate(23.81 196.615127)scale(0.1 -0.1)">
       <use xlink:href="#DejaVuSans-2212"/>
       <use x="83.789062" xlink:href="#DejaVuSans-31"/>
       <use x="147.412109" xlink:href="#DejaVuSans-2e"/>
       <use x="179.199219" xlink:href="#DejaVuSans-30"/>
      </g>
     </g>
    </g>
    <g id="ytick_3">
     <g id="line2d_9">
      <path clip-path="url(#p42b803a1cb)" d="M 55.092813 166.874066 
L 405.180313 166.874066 
" style="fill:none;stroke:#ffffff;stroke-linecap:round;stroke-width:0.8;"/>
     </g>
     <g id="text_10">
      <!-- −0.5 -->
      <g style="fill:#262626;" transform="translate(23.81 170.673284)scale(0.1 -0.1)">
       <use xlink:href="#DejaVuSans-2212"/>
       <use x="83.789062" xlink:href="#DejaVuSans-30"/>
       <use x="147.412109" xlink:href="#DejaVuSans-2e"/>
       <use x="179.199219" xlink:href="#DejaVuSans-35"/>
      </g>
     </g>
    </g>
    <g id="ytick_4">
     <g id="line2d_10">
      <path clip-path="url(#p42b803a1cb)" d="M 55.092813 140.932223 
L 405.180313 140.932223 
" style="fill:none;stroke:#ffffff;stroke-linecap:round;stroke-width:0.8;"/>
     </g>
     <g id="text_11">
      <!-- 0.0 -->
      <g style="fill:#262626;" transform="translate(32.189688 144.731442)scale(0.1 -0.1)">
       <use xlink:href="#DejaVuSans-30"/>
       <use x="63.623047" xlink:href="#DejaVuSans-2e"/>
       <use x="95.410156" xlink:href="#DejaVuSans-30"/>
      </g>
     </g>
    </g>
    <g id="ytick_5">
     <g id="line2d_11">
      <path clip-path="url(#p42b803a1cb)" d="M 55.092813 114.990381 
L 405.180313 114.990381 
" style="fill:none;stroke:#ffffff;stroke-linecap:round;stroke-width:0.8;"/>
     </g>
     <g id="text_12">
      <!-- 0.5 -->
      <g style="fill:#262626;" transform="translate(32.189688 118.7896)scale(0.1 -0.1)">
       <use xlink:href="#DejaVuSans-30"/>
       <use x="63.623047" xlink:href="#DejaVuSans-2e"/>
       <use x="95.410156" xlink:href="#DejaVuSans-35"/>
      </g>
     </g>
    </g>
    <g id="ytick_6">
     <g id="line2d_12">
      <path clip-path="url(#p42b803a1cb)" d="M 55.092813 89.048539 
L 405.180313 89.048539 
" style="fill:none;stroke:#ffffff;stroke-linecap:round;stroke-width:0.8;"/>
     </g>
     <g id="text_13">
      <!-- 1.0 -->
      <g style="fill:#262626;" transform="translate(32.189688 92.847757)scale(0.1 -0.1)">
       <use xlink:href="#DejaVuSans-31"/>
       <use x="63.623047" xlink:href="#DejaVuSans-2e"/>
       <use x="95.410156" xlink:href="#DejaVuSans-30"/>
      </g>
     </g>
    </g>
    <g id="ytick_7">
     <g id="line2d_13">
      <path clip-path="url(#p42b803a1cb)" d="M 55.092813 63.106696 
L 405.180313 63.106696 
" style="fill:none;stroke:#ffffff;stroke-linecap:round;stroke-width:0.8;"/>
     </g>
     <g id="text_14">
      <!-- 1.5 -->
      <g style="fill:#262626;" transform="translate(32.189688 66.905915)scale(0.1 -0.1)">
       <use xlink:href="#DejaVuSans-31"/>
       <use x="63.623047" xlink:href="#DejaVuSans-2e"/>
       <use x="95.410156" xlink:href="#DejaVuSans-35"/>
      </g>
     </g>
    </g>
    <g id="ytick_8">
     <g id="line2d_14">
      <path clip-path="url(#p42b803a1cb)" d="M 55.092813 37.164854 
L 405.180313 37.164854 
" style="fill:none;stroke:#ffffff;stroke-linecap:round;stroke-width:0.8;"/>
     </g>
     <g id="text_15">
      <!-- 2.0 -->
      <g style="fill:#262626;" transform="translate(32.189688 40.964073)scale(0.1 -0.1)">
       <use xlink:href="#DejaVuSans-32"/>
       <use x="63.623047" xlink:href="#DejaVuSans-2e"/>
       <use x="95.410156" xlink:href="#DejaVuSans-30"/>
      </g>
     </g>
    </g>
    <g id="text_16">
     <!-- $d$ (position) -->
     <g style="fill:#262626;" transform="translate(17.08 172.5055)rotate(-90)scale(0.13 -0.13)">
      <defs>
       <path d="M 2675 525 
Q 2444 222 2128 65 
Q 1813 -91 1428 -91 
Q 903 -91 598 267 
Q 294 625 294 1247 
Q 294 1766 478 2236 
Q 663 2706 1013 3078 
Q 1244 3325 1534 3454 
Q 1825 3584 2144 3584 
Q 2481 3584 2739 3421 
Q 2997 3259 3138 2956 
L 3513 4863 
L 4091 4863 
L 3144 0 
L 2566 0 
L 2675 525 
z
M 891 1350 
Q 891 897 1095 644 
Q 1300 391 1663 391 
Q 1931 391 2161 520 
Q 2391 650 2566 903 
Q 2750 1166 2856 1509 
Q 2963 1853 2963 2188 
Q 2963 2622 2758 2865 
Q 2553 3109 2194 3109 
Q 1922 3109 1687 2981 
Q 1453 2853 1288 2613 
Q 1106 2353 998 2009 
Q 891 1666 891 1350 
z
" id="DejaVuSans-Oblique-64" transform="scale(0.015625)"/>
       <path d="M 1159 525 
L 1159 -1331 
L 581 -1331 
L 581 3500 
L 1159 3500 
L 1159 2969 
Q 1341 3281 1617 3432 
Q 1894 3584 2278 3584 
Q 2916 3584 3314 3078 
Q 3713 2572 3713 1747 
Q 3713 922 3314 415 
Q 2916 -91 2278 -91 
Q 1894 -91 1617 61 
Q 1341 213 1159 525 
z
M 3116 1747 
Q 3116 2381 2855 2742 
Q 2594 3103 2138 3103 
Q 1681 3103 1420 2742 
Q 1159 2381 1159 1747 
Q 1159 1113 1420 752 
Q 1681 391 2138 391 
Q 2594 391 2855 752 
Q 3116 1113 3116 1747 
z
" id="DejaVuSans-70" transform="scale(0.015625)"/>
       <path d="M 1959 3097 
Q 1497 3097 1228 2736 
Q 959 2375 959 1747 
Q 959 1119 1226 758 
Q 1494 397 1959 397 
Q 2419 397 2687 759 
Q 2956 1122 2956 1747 
Q 2956 2369 2687 2733 
Q 2419 3097 1959 3097 
z
M 1959 3584 
Q 2709 3584 3137 3096 
Q 3566 2609 3566 1747 
Q 3566 888 3137 398 
Q 2709 -91 1959 -91 
Q 1206 -91 779 398 
Q 353 888 353 1747 
Q 353 2609 779 3096 
Q 1206 3584 1959 3584 
z
" id="DejaVuSans-6f" transform="scale(0.015625)"/>
       <path d="M 2834 3397 
L 2834 2853 
Q 2591 2978 2328 3040 
Q 2066 3103 1784 3103 
Q 1356 3103 1142 2972 
Q 928 2841 928 2578 
Q 928 2378 1081 2264 
Q 1234 2150 1697 2047 
L 1894 2003 
Q 2506 1872 2764 1633 
Q 3022 1394 3022 966 
Q 3022 478 2636 193 
Q 2250 -91 1575 -91 
Q 1294 -91 989 -36 
Q 684 19 347 128 
L 347 722 
Q 666 556 975 473 
Q 1284 391 1588 391 
Q 1994 391 2212 530 
Q 2431 669 2431 922 
Q 2431 1156 2273 1281 
Q 2116 1406 1581 1522 
L 1381 1569 
Q 847 1681 609 1914 
Q 372 2147 372 2553 
Q 372 3047 722 3315 
Q 1072 3584 1716 3584 
Q 2034 3584 2315 3537 
Q 2597 3491 2834 3397 
z
" id="DejaVuSans-73" transform="scale(0.015625)"/>
       <path d="M 3513 2113 
L 3513 0 
L 2938 0 
L 2938 2094 
Q 2938 2591 2744 2837 
Q 2550 3084 2163 3084 
Q 1697 3084 1428 2787 
Q 1159 2491 1159 1978 
L 1159 0 
L 581 0 
L 581 3500 
L 1159 3500 
L 1159 2956 
Q 1366 3272 1645 3428 
Q 1925 3584 2291 3584 
Q 2894 3584 3203 3211 
Q 3513 2838 3513 2113 
z
" id="DejaVuSans-6e" transform="scale(0.015625)"/>
      </defs>
      <use transform="translate(0 0.015625)" xlink:href="#DejaVuSans-Oblique-64"/>
      <use transform="translate(63.476562 0.015625)" xlink:href="#DejaVuSans-20"/>
      <use transform="translate(95.263672 0.015625)" xlink:href="#DejaVuSans-28"/>
      <use transform="translate(134.277344 0.015625)" xlink:href="#DejaVuSans-70"/>
      <use transform="translate(197.753906 0.015625)" xlink:href="#DejaVuSans-6f"/>
      <use transform="translate(258.935547 0.015625)" xlink:href="#DejaVuSans-73"/>
      <use transform="translate(311.035156 0.015625)" xlink:href="#DejaVuSans-69"/>
      <use transform="translate(338.818359 0.015625)" xlink:href="#DejaVuSans-74"/>
      <use transform="translate(378.027344 0.015625)" xlink:href="#DejaVuSans-69"/>
      <use transform="translate(405.810547 0.015625)" xlink:href="#DejaVuSans-6f"/>
      <use transform="translate(466.992188 0.015625)" xlink:href="#DejaVuSans-6e"/>
      <use transform="translate(530.371094 0.015625)" xlink:href="#DejaVuSans-29"/>
     </g>
    </g>
   </g>
   <g id="line2d_15">
    <path clip-path="url(#p42b803a1cb)" d="M 55.092813 136.32472 
L 59.760646 134.90745 
L 64.428479 135.36731 
L 69.096313 135.559707 
L 73.764146 138.789224 
L 78.431979 137.740918 
L 83.099813 141.590132 
L 87.767646 141.962215 
L 92.435479 137.090319 
L 97.103313 136.992467 
L 101.771146 150.618892 
L 106.438979 147.150686 
L 111.106813 141.973559 
L 115.774646 150.639492 
L 120.442479 154.215962 
L 125.110313 141.761883 
L 129.778146 127.250638 
L 134.445979 133.460809 
L 139.113812 126.224728 
L 143.781646 121.479053 
L 148.449479 113.348126 
L 153.117313 130.187578 
L 157.785146 136.049374 
L 162.452979 135.362166 
L 167.120812 130.436712 
L 171.788646 126.368129 
L 176.456479 130.60038 
L 181.124313 137.231069 
L 185.792146 140.229105 
L 190.459979 138.596674 
L 195.127813 136.847487 
L 199.795646 140.649455 
L 204.463479 136.092559 
L 209.131313 129.042214 
L 213.799146 124.810486 
L 218.466979 117.590217 
L 223.134813 114.146909 
L 227.802646 113.177239 
L 232.470479 109.464803 
L 237.138313 100.720082 
L 241.806146 97.713503 
L 246.473979 101.574252 
L 251.141813 102.935603 
L 255.809646 102.714226 
L 260.477479 100.032735 
L 265.145313 94.77542 
L 269.813146 92.694116 
L 274.480979 92.996756 
L 279.148812 88.152849 
L 283.816646 87.47704 
L 288.484479 73.581418 
L 293.152312 81.669978 
L 297.820146 77.411186 
L 302.487979 70.682971 
L 307.155813 69.437216 
L 311.823646 58.438604 
L 316.491479 46.547646 
L 321.159312 47.264116 
L 325.827146 55.435613 
L 330.494979 55.749415 
L 335.162812 61.406068 
L 339.830646 72.346137 
L 344.498479 86.452902 
L 349.166313 91.820767 
L 353.834146 85.454402 
L 358.501979 81.173139 
L 363.169813 81.574643 
L 367.837646 76.717823 
L 372.505479 71.196687 
L 377.173312 65.970437 
L 381.841146 61.859557 
L 386.508979 56.564025 
L 391.176812 51.77655 
L 395.844646 46.491579 
L 400.512479 44.819136 
" style="fill:none;stroke:#1f77b4;stroke-linecap:round;stroke-width:1.5;"/>
   </g>
   <g id="line2d_16">
    <path clip-path="url(#p42b803a1cb)" d="M 55.092813 143.256423 
L 59.760646 139.005539 
L 64.428479 133.58242 
L 69.096313 132.75208 
L 73.764146 140.409159 
L 78.431979 144.07514 
L 83.099813 134.247227 
L 87.767646 146.184974 
L 92.435479 139.291356 
L 97.103313 139.178148 
L 101.771146 137.236119 
L 106.438979 134.631251 
L 111.106813 134.175577 
L 115.774646 128.06003 
L 120.442479 124.958743 
L 125.110313 127.913651 
L 129.778146 135.277006 
L 134.445979 141.366723 
L 139.113812 139.602576 
L 143.781646 146.716355 
L 148.449479 139.051049 
L 153.117313 139.867443 
L 157.785146 138.394956 
L 162.452979 140.462985 
L 167.120812 134.25749 
L 171.788646 137.67616 
L 176.456479 141.902247 
L 181.124313 138.848125 
L 185.792146 140.810438 
L 190.459979 148.929782 
L 195.127813 147.175755 
L 199.795646 146.861559 
L 204.463479 143.848733 
L 209.131313 149.249159 
L 213.799146 152.51035 
L 218.466979 150.772867 
L 223.134813 154.836661 
L 227.802646 151.408278 
L 232.470479 152.044564 
L 237.138313 146.993068 
L 241.806146 139.096422 
L 246.473979 135.522559 
L 251.141813 128.878637 
L 255.809646 132.921073 
L 260.477479 135.853966 
L 265.145313 134.37107 
L 269.813146 143.088338 
L 274.480979 140.468408 
L 279.148812 136.581019 
L 283.816646 130.594991 
L 288.484479 125.555631 
L 293.152312 130.392512 
L 297.820146 135.399476 
L 302.487979 142.540521 
L 307.155813 143.901266 
L 311.823646 133.308677 
L 316.491479 128.29277 
L 321.159312 128.428952 
L 325.827146 133.930509 
L 330.494979 133.672449 
L 335.162812 138.202889 
L 339.830646 142.936028 
L 344.498479 149.653874 
L 349.166313 152.374225 
L 353.834146 171.711313 
L 358.501979 187.739734 
L 363.169813 185.537485 
L 367.837646 183.381988 
L 372.505479 176.222454 
L 377.173312 170.271168 
L 381.841146 178.636998 
L 386.508979 178.887595 
L 391.176812 183.370002 
L 395.844646 191.546607 
L 400.512479 197.937272 
" style="fill:none;stroke:#ff7f0e;stroke-linecap:round;stroke-width:1.5;"/>
   </g>
   <g id="line2d_17">
    <path clip-path="url(#p42b803a1cb)" d="M 55.092813 138.878657 
L 59.760646 140.465763 
L 64.428479 147.135278 
L 69.096313 146.023348 
L 73.764146 139.881321 
L 78.431979 145.029488 
L 83.099813 141.863095 
L 87.767646 133.094227 
L 92.435479 126.362268 
L 97.103313 137.261385 
L 101.771146 141.841895 
L 106.438979 143.85627 
L 111.106813 147.121612 
L 115.774646 149.396572 
L 120.442479 158.951546 
L 125.110313 154.007036 
L 129.778146 158.344624 
L 134.445979 162.337647 
L 139.113812 165.416902 
L 143.781646 160.227606 
L 148.449479 158.861698 
L 153.117313 160.433192 
L 157.785146 167.810314 
L 162.452979 164.983718 
L 167.120812 159.466214 
L 171.788646 158.583293 
L 176.456479 167.024825 
L 181.124313 166.944425 
L 185.792146 169.453998 
L 190.459979 170.133066 
L 195.127813 177.624958 
L 199.795646 183.755113 
L 204.463479 195.29176 
L 209.131313 196.445255 
L 213.799146 206.081228 
L 218.466979 201.511607 
L 223.134813 204.156051 
L 227.802646 205.926366 
L 232.470479 212.214084 
L 237.138313 210.418228 
L 241.806146 208.056081 
L 246.473979 206.681506 
L 251.141813 216.946653 
L 255.809646 223.747709 
L 260.477479 222.968799 
L 265.145313 225.918648 
L 269.813146 226.091864 
L 274.480979 217.58686 
L 279.148812 218.313715 
L 283.816646 217.493511 
L 288.484479 213.334167 
L 293.152312 217.747917 
L 297.820146 206.589018 
L 302.487979 203.986212 
L 307.155813 200.67586 
L 311.823646 202.872769 
L 316.491479 199.903578 
L 321.159312 207.183732 
L 325.827146 195.070414 
L 330.494979 195.839049 
L 335.162812 191.06398 
L 339.830646 201.905564 
L 344.498479 204.991298 
L 349.166313 202.014529 
L 353.834146 203.862932 
L 358.501979 201.02397 
L 363.169813 195.840252 
L 367.837646 209.883491 
L 372.505479 204.262488 
L 377.173312 203.06962 
L 381.841146 203.535599 
L 386.508979 204.357651 
L 391.176812 210.253726 
L 395.844646 213.295575 
L 400.512479 210.254378 
" style="fill:none;stroke:#2ca02c;stroke-linecap:round;stroke-width:1.5;"/>
   </g>
   <g id="line2d_18">
    <path clip-path="url(#p42b803a1cb)" d="M 55.092813 143.448469 
L 59.760646 139.388865 
L 64.428479 136.26368 
L 69.096313 128.742084 
L 73.764146 130.54056 
L 78.431979 122.965958 
L 83.099813 131.515894 
L 87.767646 127.828937 
L 92.435479 135.819739 
L 97.103313 136.057537 
L 101.771146 125.268298 
L 106.438979 126.055185 
L 111.106813 130.600705 
L 115.774646 135.965839 
L 120.442479 135.925811 
L 125.110313 126.820983 
L 129.778146 128.970408 
L 134.445979 123.663086 
L 139.113812 135.478844 
L 143.781646 144.805657 
L 148.449479 148.827624 
L 153.117313 148.798206 
L 157.785146 143.347533 
L 162.452979 152.69563 
L 167.120812 143.349452 
L 171.788646 139.086013 
L 176.456479 131.395038 
L 181.124313 138.75501 
L 185.792146 145.112128 
L 190.459979 138.980679 
L 195.127813 143.562922 
L 199.795646 140.319879 
L 204.463479 150.428377 
L 209.131313 150.550363 
L 213.799146 151.56511 
L 218.466979 150.087893 
L 223.134813 148.348556 
L 227.802646 144.443431 
L 232.470479 132.404486 
L 237.138313 134.311609 
L 241.806146 130.772801 
L 246.473979 120.160473 
L 251.141813 116.356809 
L 255.809646 106.641883 
L 260.477479 114.116661 
L 265.145313 117.326704 
L 269.813146 118.792326 
L 274.480979 121.678113 
L 279.148812 129.317823 
L 283.816646 131.23294 
L 288.484479 140.275348 
L 293.152312 136.326808 
L 297.820146 140.09981 
L 302.487979 128.841359 
L 307.155813 119.977749 
L 311.823646 110.704945 
L 316.491479 112.246151 
L 321.159312 116.211192 
L 325.827146 109.485868 
L 330.494979 102.451757 
L 335.162812 99.424739 
L 339.830646 103.396602 
L 344.498479 103.517921 
L 349.166313 112.108694 
L 353.834146 115.777402 
L 358.501979 105.844028 
L 363.169813 100.626198 
L 367.837646 99.900559 
L 372.505479 104.615847 
L 377.173312 107.259662 
L 381.841146 98.602192 
L 386.508979 101.340873 
L 391.176812 109.713775 
L 395.844646 103.534313 
L 400.512479 103.382395 
" style="fill:none;stroke:#d62728;stroke-linecap:round;stroke-width:1.5;"/>
   </g>
   <g id="line2d_19">
    <path clip-path="url(#p42b803a1cb)" d="M 55.092813 144.47228 
L 59.760646 153.00766 
L 64.428479 145.996685 
L 69.096313 148.781217 
L 73.764146 150.018024 
L 78.431979 143.223277 
L 83.099813 141.320994 
L 87.767646 149.352547 
L 92.435479 147.786727 
L 97.103313 150.615683 
L 101.771146 147.321478 
L 106.438979 143.041485 
L 111.106813 138.533389 
L 115.774646 143.886551 
L 120.442479 131.274555 
L 125.110313 122.091221 
L 129.778146 123.587741 
L 134.445979 115.714004 
L 139.113812 122.056838 
L 143.781646 127.464848 
L 148.449479 116.969519 
L 153.117313 123.169655 
L 157.785146 128.444171 
L 162.452979 124.540521 
L 167.120812 137.558739 
L 171.788646 136.99615 
L 176.456479 133.354289 
L 181.124313 130.064302 
L 185.792146 124.610145 
L 190.459979 118.020708 
L 195.127813 114.442615 
L 199.795646 107.093983 
L 204.463479 108.567335 
L 209.131313 88.686724 
L 213.799146 75.204831 
L 218.466979 70.491619 
L 223.134813 73.885051 
L 227.802646 65.065198 
L 232.470479 60.201039 
L 237.138313 55.931675 
L 241.806146 73.979879 
L 246.473979 69.458166 
L 251.141813 62.281906 
L 255.809646 62.721435 
L 260.477479 57.627161 
L 265.145313 61.499843 
L 269.813146 65.831838 
L 274.480979 69.238078 
L 279.148812 72.218299 
L 283.816646 74.506644 
L 288.484479 70.374621 
L 293.152312 68.423953 
L 297.820146 58.700533 
L 302.487979 62.855546 
L 307.155813 64.51605 
L 311.823646 54.753711 
L 316.491479 59.744826 
L 321.159312 59.658437 
L 325.827146 62.118136 
L 330.494979 77.371162 
L 335.162812 77.845471 
L 339.830646 81.927515 
L 344.498479 81.729703 
L 349.166313 72.68286 
L 353.834146 81.469923 
L 358.501979 85.474886 
L 363.169813 84.928178 
L 367.837646 84.595071 
L 372.505479 87.959413 
L 377.173312 82.810042 
L 381.841146 86.683214 
L 386.508979 86.985648 
L 391.176812 97.010956 
L 395.844646 94.140214 
L 400.512479 101.649429 
" style="fill:none;stroke:#9467bd;stroke-linecap:round;stroke-width:1.5;"/>
   </g>
   <g id="patch_3">
    <path d="M 55.092813 235.1555 
L 55.092813 35.7555 
" style="fill:none;stroke:#ffffff;stroke-linecap:square;stroke-linejoin:miter;stroke-width:0.8;"/>
   </g>
   <g id="patch_4">
    <path d="M 405.180313 235.1555 
L 405.180313 35.7555 
" style="fill:none;stroke:#ffffff;stroke-linecap:square;stroke-linejoin:miter;stroke-width:0.8;"/>
   </g>
   <g id="patch_5">
    <path d="M 55.092813 235.1555 
L 405.180313 235.1555 
" style="fill:none;stroke:#ffffff;stroke-linecap:square;stroke-linejoin:miter;stroke-width:0.8;"/>
   </g>
   <g id="patch_6">
    <path d="M 55.092813 35.7555 
L 405.180313 35.7555 
" style="fill:none;stroke:#ffffff;stroke-linecap:square;stroke-linejoin:miter;stroke-width:0.8;"/>
   </g>
   <g id="text_17">
    <!-- Brownian motion process -->
    <g style="fill:#262626;" transform="translate(154.285313 16.318125)scale(0.12 -0.12)">
     <defs>
      <path d="M 1259 2228 
L 1259 519 
L 2272 519 
Q 2781 519 3026 730 
Q 3272 941 3272 1375 
Q 3272 1813 3026 2020 
Q 2781 2228 2272 2228 
L 1259 2228 
z
M 1259 4147 
L 1259 2741 
L 2194 2741 
Q 2656 2741 2882 2914 
Q 3109 3088 3109 3444 
Q 3109 3797 2882 3972 
Q 2656 4147 2194 4147 
L 1259 4147 
z
M 628 4666 
L 2241 4666 
Q 2963 4666 3353 4366 
Q 3744 4066 3744 3513 
Q 3744 3084 3544 2831 
Q 3344 2578 2956 2516 
Q 3422 2416 3680 2098 
Q 3938 1781 3938 1306 
Q 3938 681 3513 340 
Q 3088 0 2303 0 
L 628 0 
L 628 4666 
z
" id="DejaVuSans-42" transform="scale(0.015625)"/>
      <path d="M 2631 2963 
Q 2534 3019 2420 3045 
Q 2306 3072 2169 3072 
Q 1681 3072 1420 2755 
Q 1159 2438 1159 1844 
L 1159 0 
L 581 0 
L 581 3500 
L 1159 3500 
L 1159 2956 
Q 1341 3275 1631 3429 
Q 1922 3584 2338 3584 
Q 2397 3584 2469 3576 
Q 2541 3569 2628 3553 
L 2631 2963 
z
" id="DejaVuSans-72" transform="scale(0.015625)"/>
      <path d="M 269 3500 
L 844 3500 
L 1563 769 
L 2278 3500 
L 2956 3500 
L 3675 769 
L 4391 3500 
L 4966 3500 
L 4050 0 
L 3372 0 
L 2619 2869 
L 1863 0 
L 1184 0 
L 269 3500 
z
" id="DejaVuSans-77" transform="scale(0.015625)"/>
      <path d="M 2194 1759 
Q 1497 1759 1228 1600 
Q 959 1441 959 1056 
Q 959 750 1161 570 
Q 1363 391 1709 391 
Q 2188 391 2477 730 
Q 2766 1069 2766 1631 
L 2766 1759 
L 2194 1759 
z
M 3341 1997 
L 3341 0 
L 2766 0 
L 2766 531 
Q 2569 213 2275 61 
Q 1981 -91 1556 -91 
Q 1019 -91 701 211 
Q 384 513 384 1019 
Q 384 1609 779 1909 
Q 1175 2209 1959 2209 
L 2766 2209 
L 2766 2266 
Q 2766 2663 2505 2880 
Q 2244 3097 1772 3097 
Q 1472 3097 1187 3025 
Q 903 2953 641 2809 
L 641 3341 
Q 956 3463 1253 3523 
Q 1550 3584 1831 3584 
Q 2591 3584 2966 3190 
Q 3341 2797 3341 1997 
z
" id="DejaVuSans-61" transform="scale(0.015625)"/>
      <path d="M 3122 3366 
L 3122 2828 
Q 2878 2963 2633 3030 
Q 2388 3097 2138 3097 
Q 1578 3097 1268 2742 
Q 959 2388 959 1747 
Q 959 1106 1268 751 
Q 1578 397 2138 397 
Q 2388 397 2633 464 
Q 2878 531 3122 666 
L 3122 134 
Q 2881 22 2623 -34 
Q 2366 -91 2075 -91 
Q 1284 -91 818 406 
Q 353 903 353 1747 
Q 353 2603 823 3093 
Q 1294 3584 2113 3584 
Q 2378 3584 2631 3529 
Q 2884 3475 3122 3366 
z
" id="DejaVuSans-63" transform="scale(0.015625)"/>
     </defs>
     <use xlink:href="#DejaVuSans-42"/>
     <use x="68.603516" xlink:href="#DejaVuSans-72"/>
     <use x="107.466797" xlink:href="#DejaVuSans-6f"/>
     <use x="168.648438" xlink:href="#DejaVuSans-77"/>
     <use x="250.435547" xlink:href="#DejaVuSans-6e"/>
     <use x="313.814453" xlink:href="#DejaVuSans-69"/>
     <use x="341.597656" xlink:href="#DejaVuSans-61"/>
     <use x="402.876953" xlink:href="#DejaVuSans-6e"/>
     <use x="466.255859" xlink:href="#DejaVuSans-20"/>
     <use x="498.042969" xlink:href="#DejaVuSans-6d"/>
     <use x="595.455078" xlink:href="#DejaVuSans-6f"/>
     <use x="656.636719" xlink:href="#DejaVuSans-74"/>
     <use x="695.845703" xlink:href="#DejaVuSans-69"/>
     <use x="723.628906" xlink:href="#DejaVuSans-6f"/>
     <use x="784.810547" xlink:href="#DejaVuSans-6e"/>
     <use x="848.189453" xlink:href="#DejaVuSans-20"/>
     <use x="879.976562" xlink:href="#DejaVuSans-70"/>
     <use x="943.453125" xlink:href="#DejaVuSans-72"/>
     <use x="982.316406" xlink:href="#DejaVuSans-6f"/>
     <use x="1043.498047" xlink:href="#DejaVuSans-63"/>
     <use x="1098.478516" xlink:href="#DejaVuSans-65"/>
     <use x="1160.001953" xlink:href="#DejaVuSans-73"/>
     <use x="1212.101562" xlink:href="#DejaVuSans-73"/>
    </g>
    <!--  Position over time for 5 independent realizations -->
    <g style="fill:#262626;" transform="translate(82.02 29.7555)scale(0.12 -0.12)">
     <defs>
      <path d="M 1259 4147 
L 1259 2394 
L 2053 2394 
Q 2494 2394 2734 2622 
Q 2975 2850 2975 3272 
Q 2975 3691 2734 3919 
Q 2494 4147 2053 4147 
L 1259 4147 
z
M 628 4666 
L 2053 4666 
Q 2838 4666 3239 4311 
Q 3641 3956 3641 3272 
Q 3641 2581 3239 2228 
Q 2838 1875 2053 1875 
L 1259 1875 
L 1259 0 
L 628 0 
L 628 4666 
z
" id="DejaVuSans-50" transform="scale(0.015625)"/>
      <path d="M 191 3500 
L 800 3500 
L 1894 563 
L 2988 3500 
L 3597 3500 
L 2284 0 
L 1503 0 
L 191 3500 
z
" id="DejaVuSans-76" transform="scale(0.015625)"/>
      <path d="M 2375 4863 
L 2375 4384 
L 1825 4384 
Q 1516 4384 1395 4259 
Q 1275 4134 1275 3809 
L 1275 3500 
L 2222 3500 
L 2222 3053 
L 1275 3053 
L 1275 0 
L 697 0 
L 697 3053 
L 147 3053 
L 147 3500 
L 697 3500 
L 697 3744 
Q 697 4328 969 4595 
Q 1241 4863 1831 4863 
L 2375 4863 
z
" id="DejaVuSans-66" transform="scale(0.015625)"/>
      <path d="M 2906 2969 
L 2906 4863 
L 3481 4863 
L 3481 0 
L 2906 0 
L 2906 525 
Q 2725 213 2448 61 
Q 2172 -91 1784 -91 
Q 1150 -91 751 415 
Q 353 922 353 1747 
Q 353 2572 751 3078 
Q 1150 3584 1784 3584 
Q 2172 3584 2448 3432 
Q 2725 3281 2906 2969 
z
M 947 1747 
Q 947 1113 1208 752 
Q 1469 391 1925 391 
Q 2381 391 2643 752 
Q 2906 1113 2906 1747 
Q 2906 2381 2643 2742 
Q 2381 3103 1925 3103 
Q 1469 3103 1208 2742 
Q 947 2381 947 1747 
z
" id="DejaVuSans-64" transform="scale(0.015625)"/>
      <path d="M 603 4863 
L 1178 4863 
L 1178 0 
L 603 0 
L 603 4863 
z
" id="DejaVuSans-6c" transform="scale(0.015625)"/>
      <path d="M 353 3500 
L 3084 3500 
L 3084 2975 
L 922 459 
L 3084 459 
L 3084 0 
L 275 0 
L 275 525 
L 2438 3041 
L 353 3041 
L 353 3500 
z
" id="DejaVuSans-7a" transform="scale(0.015625)"/>
     </defs>
     <use xlink:href="#DejaVuSans-20"/>
     <use x="31.787109" xlink:href="#DejaVuSans-50"/>
     <use x="88.464844" xlink:href="#DejaVuSans-6f"/>
     <use x="149.646484" xlink:href="#DejaVuSans-73"/>
     <use x="201.746094" xlink:href="#DejaVuSans-69"/>
     <use x="229.529297" xlink:href="#DejaVuSans-74"/>
     <use x="268.738281" xlink:href="#DejaVuSans-69"/>
     <use x="296.521484" xlink:href="#DejaVuSans-6f"/>
     <use x="357.703125" xlink:href="#DejaVuSans-6e"/>
     <use x="421.082031" xlink:href="#DejaVuSans-20"/>
     <use x="452.869141" xlink:href="#DejaVuSans-6f"/>
     <use x="514.050781" xlink:href="#DejaVuSans-76"/>
     <use x="573.230469" xlink:href="#DejaVuSans-65"/>
     <use x="634.753906" xlink:href="#DejaVuSans-72"/>
     <use x="675.867188" xlink:href="#DejaVuSans-20"/>
     <use x="707.654297" xlink:href="#DejaVuSans-74"/>
     <use x="746.863281" xlink:href="#DejaVuSans-69"/>
     <use x="774.646484" xlink:href="#DejaVuSans-6d"/>
     <use x="872.058594" xlink:href="#DejaVuSans-65"/>
     <use x="933.582031" xlink:href="#DejaVuSans-20"/>
     <use x="965.369141" xlink:href="#DejaVuSans-66"/>
     <use x="1000.574219" xlink:href="#DejaVuSans-6f"/>
     <use x="1061.755859" xlink:href="#DejaVuSans-72"/>
     <use x="1102.869141" xlink:href="#DejaVuSans-20"/>
     <use x="1134.65625" xlink:href="#DejaVuSans-35"/>
     <use x="1198.279297" xlink:href="#DejaVuSans-20"/>
     <use x="1230.066406" xlink:href="#DejaVuSans-69"/>
     <use x="1257.849609" xlink:href="#DejaVuSans-6e"/>
     <use x="1321.228516" xlink:href="#DejaVuSans-64"/>
     <use x="1384.705078" xlink:href="#DejaVuSans-65"/>
     <use x="1446.228516" xlink:href="#DejaVuSans-70"/>
     <use x="1509.705078" xlink:href="#DejaVuSans-65"/>
     <use x="1571.228516" xlink:href="#DejaVuSans-6e"/>
     <use x="1634.607422" xlink:href="#DejaVuSans-64"/>
     <use x="1698.083984" xlink:href="#DejaVuSans-65"/>
     <use x="1759.607422" xlink:href="#DejaVuSans-6e"/>
     <use x="1822.986328" xlink:href="#DejaVuSans-74"/>
     <use x="1862.195312" xlink:href="#DejaVuSans-20"/>
     <use x="1893.982422" xlink:href="#DejaVuSans-72"/>
     <use x="1932.845703" xlink:href="#DejaVuSans-65"/>
     <use x="1994.369141" xlink:href="#DejaVuSans-61"/>
     <use x="2055.648438" xlink:href="#DejaVuSans-6c"/>
     <use x="2083.431641" xlink:href="#DejaVuSans-69"/>
     <use x="2111.214844" xlink:href="#DejaVuSans-7a"/>
     <use x="2163.705078" xlink:href="#DejaVuSans-61"/>
     <use x="2224.984375" xlink:href="#DejaVuSans-74"/>
     <use x="2264.193359" xlink:href="#DejaVuSans-69"/>
     <use x="2291.976562" xlink:href="#DejaVuSans-6f"/>
     <use x="2353.158203" xlink:href="#DejaVuSans-6e"/>
     <use x="2416.537109" xlink:href="#DejaVuSans-73"/>
    </g>
   </g>
  </g>
 </g>
 <defs>
  <clipPath id="p42b803a1cb">
   <rect height="199.4" width="350.0875" x="55.092813" y="35.7555"/>
  </clipPath>
 </defs>
</svg>
