<?xml version="1.0" encoding="utf-8" standalone="no"?>
<!DOCTYPE svg PUBLIC "-//W3C//DTD SVG 1.1//EN"
  "http://www.w3.org/Graphics/SVG/1.1/DTD/svg11.dtd">
<svg height="423.177812pt" version="1.1" viewBox="0 0 423.283125 423.177812" width="423.283125pt" xmlns="http://www.w3.org/2000/svg" xmlns:xlink="http://www.w3.org/1999/xlink">
 <metadata>
  <rdf:RDF xmlns:cc="http://creativecommons.org/ns#" xmlns:dc="http://purl.org/dc/elements/1.1/" xmlns:rdf="http://www.w3.org/1999/02/22-rdf-syntax-ns#">
   <cc:Work>
    <dc:type rdf:resource="http://purl.org/dc/dcmitype/StillImage"/>
    <dc:date>2021-08-31T12:30:08.962567</dc:date>
    <dc:format>image/svg+xml</dc:format>
    <dc:creator>
     <cc:Agent>
      <dc:title>Matplotlib v3.4.3, https://matplotlib.org/</dc:title>
     </cc:Agent>
    </dc:creator>
   </cc:Work>
  </rdf:RDF>
 </metadata>
 <defs>
  <style type="text/css">*{stroke-linecap:butt;stroke-linejoin:round;}</style>
 </defs>
 <g id="figure_1">
  <g id="patch_1">
   <path d="M 0 423.177812 
L 423.283125 423.177812 
L 423.283125 0 
L 0 0 
z
" style="fill:#ffffff;"/>
  </g>
  <g id="axes_1">
   <g id="patch_2">
    <path d="M 55.064375 172.118125 
L 412.901875 172.118125 
L 412.901875 22.318125 
L 55.064375 22.318125 
z
" style="fill:#eaeaf2;"/>
   </g>
   <g id="matplotlib.axis_1">
    <g id="xtick_1">
     <g id="line2d_1">
      <path clip-path="url(#p7224f0a070)" d="M 55.064375 172.118125 
L 55.064375 22.318125 
" style="fill:none;stroke:#ffffff;stroke-linecap:round;stroke-width:0.8;"/>
     </g>
     <g id="text_1">
      <!-- −6 -->
      <g style="fill:#262626;" transform="translate(47.693281 186.716562)scale(0.1 -0.1)">
       <defs>
        <path d="M 678 2272 
L 4684 2272 
L 4684 1741 
L 678 1741 
L 678 2272 
z
" id="DejaVuSans-2212" transform="scale(0.015625)"/>
        <path d="M 2113 2584 
Q 1688 2584 1439 2293 
Q 1191 2003 1191 1497 
Q 1191 994 1439 701 
Q 1688 409 2113 409 
Q 2538 409 2786 701 
Q 3034 994 3034 1497 
Q 3034 2003 2786 2293 
Q 2538 2584 2113 2584 
z
M 3366 4563 
L 3366 3988 
Q 3128 4100 2886 4159 
Q 2644 4219 2406 4219 
Q 1781 4219 1451 3797 
Q 1122 3375 1075 2522 
Q 1259 2794 1537 2939 
Q 1816 3084 2150 3084 
Q 2853 3084 3261 2657 
Q 3669 2231 3669 1497 
Q 3669 778 3244 343 
Q 2819 -91 2113 -91 
Q 1303 -91 875 529 
Q 447 1150 447 2328 
Q 447 3434 972 4092 
Q 1497 4750 2381 4750 
Q 2619 4750 2861 4703 
Q 3103 4656 3366 4563 
z
" id="DejaVuSans-36" transform="scale(0.015625)"/>
       </defs>
       <use xlink:href="#DejaVuSans-2212"/>
       <use x="83.789062" xlink:href="#DejaVuSans-36"/>
      </g>
     </g>
    </g>
    <g id="xtick_2">
     <g id="line2d_2">
      <path clip-path="url(#p7224f0a070)" d="M 114.703958 172.118125 
L 114.703958 22.318125 
" style="fill:none;stroke:#ffffff;stroke-linecap:round;stroke-width:0.8;"/>
     </g>
     <g id="text_2">
      <!-- −4 -->
      <g style="fill:#262626;" transform="translate(107.332865 186.716562)scale(0.1 -0.1)">
       <defs>
        <path d="M 2419 4116 
L 825 1625 
L 2419 1625 
L 2419 4116 
z
M 2253 4666 
L 3047 4666 
L 3047 1625 
L 3713 1625 
L 3713 1100 
L 3047 1100 
L 3047 0 
L 2419 0 
L 2419 1100 
L 313 1100 
L 313 1709 
L 2253 4666 
z
" id="DejaVuSans-34" transform="scale(0.015625)"/>
       </defs>
       <use xlink:href="#DejaVuSans-2212"/>
       <use x="83.789062" xlink:href="#DejaVuSans-34"/>
      </g>
     </g>
    </g>
    <g id="xtick_3">
     <g id="line2d_3">
      <path clip-path="url(#p7224f0a070)" d="M 174.343542 172.118125 
L 174.343542 22.318125 
" style="fill:none;stroke:#ffffff;stroke-linecap:round;stroke-width:0.8;"/>
     </g>
     <g id="text_3">
      <!-- −2 -->
      <g style="fill:#262626;" transform="translate(166.972448 186.716562)scale(0.1 -0.1)">
       <defs>
        <path d="M 1228 531 
L 3431 531 
L 3431 0 
L 469 0 
L 469 531 
Q 828 903 1448 1529 
Q 2069 2156 2228 2338 
Q 2531 2678 2651 2914 
Q 2772 3150 2772 3378 
Q 2772 3750 2511 3984 
Q 2250 4219 1831 4219 
Q 1534 4219 1204 4116 
Q 875 4013 500 3803 
L 500 4441 
Q 881 4594 1212 4672 
Q 1544 4750 1819 4750 
Q 2544 4750 2975 4387 
Q 3406 4025 3406 3419 
Q 3406 3131 3298 2873 
Q 3191 2616 2906 2266 
Q 2828 2175 2409 1742 
Q 1991 1309 1228 531 
z
" id="DejaVuSans-32" transform="scale(0.015625)"/>
       </defs>
       <use xlink:href="#DejaVuSans-2212"/>
       <use x="83.789062" xlink:href="#DejaVuSans-32"/>
      </g>
     </g>
    </g>
    <g id="xtick_4">
     <g id="line2d_4">
      <path clip-path="url(#p7224f0a070)" d="M 233.983125 172.118125 
L 233.983125 22.318125 
" style="fill:none;stroke:#ffffff;stroke-linecap:round;stroke-width:0.8;"/>
     </g>
     <g id="text_4">
      <!-- 0 -->
      <g style="fill:#262626;" transform="translate(230.801875 186.716562)scale(0.1 -0.1)">
       <defs>
        <path d="M 2034 4250 
Q 1547 4250 1301 3770 
Q 1056 3291 1056 2328 
Q 1056 1369 1301 889 
Q 1547 409 2034 409 
Q 2525 409 2770 889 
Q 3016 1369 3016 2328 
Q 3016 3291 2770 3770 
Q 2525 4250 2034 4250 
z
M 2034 4750 
Q 2819 4750 3233 4129 
Q 3647 3509 3647 2328 
Q 3647 1150 3233 529 
Q 2819 -91 2034 -91 
Q 1250 -91 836 529 
Q 422 1150 422 2328 
Q 422 3509 836 4129 
Q 1250 4750 2034 4750 
z
" id="DejaVuSans-30" transform="scale(0.015625)"/>
       </defs>
       <use xlink:href="#DejaVuSans-30"/>
      </g>
     </g>
    </g>
    <g id="xtick_5">
     <g id="line2d_5">
      <path clip-path="url(#p7224f0a070)" d="M 293.622708 172.118125 
L 293.622708 22.318125 
" style="fill:none;stroke:#ffffff;stroke-linecap:round;stroke-width:0.8;"/>
     </g>
     <g id="text_5">
      <!-- 2 -->
      <g style="fill:#262626;" transform="translate(290.441458 186.716562)scale(0.1 -0.1)">
       <use xlink:href="#DejaVuSans-32"/>
      </g>
     </g>
    </g>
    <g id="xtick_6">
     <g id="line2d_6">
      <path clip-path="url(#p7224f0a070)" d="M 353.262292 172.118125 
L 353.262292 22.318125 
" style="fill:none;stroke:#ffffff;stroke-linecap:round;stroke-width:0.8;"/>
     </g>
     <g id="text_6">
      <!-- 4 -->
      <g style="fill:#262626;" transform="translate(350.081042 186.716562)scale(0.1 -0.1)">
       <use xlink:href="#DejaVuSans-34"/>
      </g>
     </g>
    </g>
    <g id="xtick_7">
     <g id="line2d_7">
      <path clip-path="url(#p7224f0a070)" d="M 412.901875 172.118125 
L 412.901875 22.318125 
" style="fill:none;stroke:#ffffff;stroke-linecap:round;stroke-width:0.8;"/>
     </g>
     <g id="text_7">
      <!-- 6 -->
      <g style="fill:#262626;" transform="translate(409.720625 186.716562)scale(0.1 -0.1)">
       <use xlink:href="#DejaVuSans-36"/>
      </g>
     </g>
    </g>
    <g id="text_8">
     <!-- $x$ -->
     <g style="fill:#262626;" transform="translate(230.083125 202.674219)scale(0.13 -0.13)">
      <defs>
       <path d="M 3841 3500 
L 2234 1784 
L 3219 0 
L 2559 0 
L 1819 1388 
L 531 0 
L -166 0 
L 1556 1844 
L 641 3500 
L 1300 3500 
L 1972 2234 
L 3144 3500 
L 3841 3500 
z
" id="DejaVuSans-Oblique-78" transform="scale(0.015625)"/>
      </defs>
      <use transform="translate(0 0.3125)" xlink:href="#DejaVuSans-Oblique-78"/>
     </g>
    </g>
   </g>
   <g id="matplotlib.axis_2">
    <g id="ytick_1">
     <g id="line2d_8">
      <path clip-path="url(#p7224f0a070)" d="M 55.064375 172.118125 
L 412.901875 172.118125 
" style="fill:none;stroke:#ffffff;stroke-linecap:round;stroke-width:0.8;"/>
     </g>
     <g id="text_9">
      <!-- −3 -->
      <g style="fill:#262626;" transform="translate(33.322188 175.917344)scale(0.1 -0.1)">
       <defs>
        <path d="M 2597 2516 
Q 3050 2419 3304 2112 
Q 3559 1806 3559 1356 
Q 3559 666 3084 287 
Q 2609 -91 1734 -91 
Q 1441 -91 1130 -33 
Q 819 25 488 141 
L 488 750 
Q 750 597 1062 519 
Q 1375 441 1716 441 
Q 2309 441 2620 675 
Q 2931 909 2931 1356 
Q 2931 1769 2642 2001 
Q 2353 2234 1838 2234 
L 1294 2234 
L 1294 2753 
L 1863 2753 
Q 2328 2753 2575 2939 
Q 2822 3125 2822 3475 
Q 2822 3834 2567 4026 
Q 2313 4219 1838 4219 
Q 1578 4219 1281 4162 
Q 984 4106 628 3988 
L 628 4550 
Q 988 4650 1302 4700 
Q 1616 4750 1894 4750 
Q 2613 4750 3031 4423 
Q 3450 4097 3450 3541 
Q 3450 3153 3228 2886 
Q 3006 2619 2597 2516 
z
" id="DejaVuSans-33" transform="scale(0.015625)"/>
       </defs>
       <use xlink:href="#DejaVuSans-2212"/>
       <use x="83.789062" xlink:href="#DejaVuSans-33"/>
      </g>
     </g>
    </g>
    <g id="ytick_2">
     <g id="line2d_9">
      <path clip-path="url(#p7224f0a070)" d="M 55.064375 147.151458 
L 412.901875 147.151458 
" style="fill:none;stroke:#ffffff;stroke-linecap:round;stroke-width:0.8;"/>
     </g>
     <g id="text_10">
      <!-- −2 -->
      <g style="fill:#262626;" transform="translate(33.322188 150.950677)scale(0.1 -0.1)">
       <use xlink:href="#DejaVuSans-2212"/>
       <use x="83.789062" xlink:href="#DejaVuSans-32"/>
      </g>
     </g>
    </g>
    <g id="ytick_3">
     <g id="line2d_10">
      <path clip-path="url(#p7224f0a070)" d="M 55.064375 122.184792 
L 412.901875 122.184792 
" style="fill:none;stroke:#ffffff;stroke-linecap:round;stroke-width:0.8;"/>
     </g>
     <g id="text_11">
      <!-- −1 -->
      <g style="fill:#262626;" transform="translate(33.322188 125.98401)scale(0.1 -0.1)">
       <defs>
        <path d="M 794 531 
L 1825 531 
L 1825 4091 
L 703 3866 
L 703 4441 
L 1819 4666 
L 2450 4666 
L 2450 531 
L 3481 531 
L 3481 0 
L 794 0 
L 794 531 
z
" id="DejaVuSans-31" transform="scale(0.015625)"/>
       </defs>
       <use xlink:href="#DejaVuSans-2212"/>
       <use x="83.789062" xlink:href="#DejaVuSans-31"/>
      </g>
     </g>
    </g>
    <g id="ytick_4">
     <g id="line2d_11">
      <path clip-path="url(#p7224f0a070)" d="M 55.064375 97.218125 
L 412.901875 97.218125 
" style="fill:none;stroke:#ffffff;stroke-linecap:round;stroke-width:0.8;"/>
     </g>
     <g id="text_12">
      <!-- 0 -->
      <g style="fill:#262626;" transform="translate(41.701875 101.017344)scale(0.1 -0.1)">
       <use xlink:href="#DejaVuSans-30"/>
      </g>
     </g>
    </g>
    <g id="ytick_5">
     <g id="line2d_12">
      <path clip-path="url(#p7224f0a070)" d="M 55.064375 72.251458 
L 412.901875 72.251458 
" style="fill:none;stroke:#ffffff;stroke-linecap:round;stroke-width:0.8;"/>
     </g>
     <g id="text_13">
      <!-- 1 -->
      <g style="fill:#262626;" transform="translate(41.701875 76.050677)scale(0.1 -0.1)">
       <use xlink:href="#DejaVuSans-31"/>
      </g>
     </g>
    </g>
    <g id="ytick_6">
     <g id="line2d_13">
      <path clip-path="url(#p7224f0a070)" d="M 55.064375 47.284792 
L 412.901875 47.284792 
" style="fill:none;stroke:#ffffff;stroke-linecap:round;stroke-width:0.8;"/>
     </g>
     <g id="text_14">
      <!-- 2 -->
      <g style="fill:#262626;" transform="translate(41.701875 51.08401)scale(0.1 -0.1)">
       <use xlink:href="#DejaVuSans-32"/>
      </g>
     </g>
    </g>
    <g id="ytick_7">
     <g id="line2d_14">
      <path clip-path="url(#p7224f0a070)" d="M 55.064375 22.318125 
L 412.901875 22.318125 
" style="fill:none;stroke:#ffffff;stroke-linecap:round;stroke-width:0.8;"/>
     </g>
     <g id="text_15">
      <!-- 3 -->
      <g style="fill:#262626;" transform="translate(41.701875 26.117344)scale(0.1 -0.1)">
       <use xlink:href="#DejaVuSans-33"/>
      </g>
     </g>
    </g>
    <g id="text_16">
     <!-- $y$ -->
     <g style="fill:#262626;" transform="translate(26.592188 101.118125)rotate(-90)scale(0.13 -0.13)">
      <defs>
       <path d="M 1588 -325 
Q 1188 -997 936 -1164 
Q 684 -1331 294 -1331 
L -159 -1331 
L -63 -850 
L 269 -850 
Q 509 -850 678 -719 
Q 847 -588 1056 -206 
L 1234 128 
L 459 3500 
L 1069 3500 
L 1650 819 
L 3256 3500 
L 3859 3500 
L 1588 -325 
z
" id="DejaVuSans-Oblique-79" transform="scale(0.015625)"/>
      </defs>
      <use transform="translate(0 0.3125)" xlink:href="#DejaVuSans-Oblique-79"/>
     </g>
    </g>
   </g>
   <g id="PolyCollection_1">
    <defs>
     <path d="M 55.064375 -377.689751 
L 55.064375 -278.977682 
L 59.900017 -280.444509 
L 64.735659 -282.510401 
L 69.571301 -285.332816 
L 74.406943 -289.05468 
L 79.242584 -293.769305 
L 84.078226 -299.4797 
L 88.913868 -306.060827 
L 93.74951 -313.235395 
L 98.585152 -320.57333 
L 103.420794 -327.521763 
L 108.256436 -333.466563 
L 113.092078 -337.819097 
L 117.92772 -340.114681 
L 122.763361 -339.660131 
L 127.599003 -335.470911 
L 132.434645 -331.88006 
L 137.270287 -328.024221 
L 142.105929 -321.915114 
L 146.941571 -316.132952 
L 151.777213 -311.489384 
L 156.612855 -308.614448 
L 161.448497 -307.864809 
L 166.284139 -305.532303 
L 171.11978 -300.087001 
L 175.955422 -294.738059 
L 180.791064 -289.923448 
L 185.626706 -286.086261 
L 190.462348 -283.617024 
L 195.29799 -282.805249 
L 200.133632 -283.804106 
L 204.969274 -286.609964 
L 209.804916 -291.057912 
L 214.640557 -296.834579 
L 219.476199 -303.509455 
L 224.311841 -310.584278 
L 229.147483 -317.556614 
L 233.983125 -323.989278 
L 238.818767 -329.573433 
L 243.654409 -333.519737 
L 248.490051 -337.328883 
L 253.325693 -340.760471 
L 258.161334 -343.269938 
L 262.996976 -345.697626 
L 267.832618 -348.322969 
L 272.66826 -348.201193 
L 277.503902 -345.589356 
L 282.339544 -341.457159 
L 287.175186 -336.341598 
L 292.010828 -330.898536 
L 296.84647 -325.783717 
L 301.682111 -321.540765 
L 306.517753 -318.515622 
L 311.353395 -316.810089 
L 316.189037 -316.279176 
L 321.024679 -316.569408 
L 325.860321 -317.189058 
L 330.695963 -317.597145 
L 335.531605 -317.295953 
L 340.367247 -315.342006 
L 345.202889 -310.772714 
L 350.03853 -308.458743 
L 354.874172 -304.347988 
L 359.709814 -298.665102 
L 364.545456 -292.723741 
L 369.381098 -286.98052 
L 374.21674 -281.837118 
L 379.052382 -277.588321 
L 383.888024 -274.393776 
L 388.723666 -272.27538 
L 393.559307 -271.137083 
L 398.394949 -270.800088 
L 403.230591 -271.044562 
L 408.066233 -271.649142 
L 412.901875 -272.421419 
L 412.901875 -370.247599 
L 412.901875 -370.247599 
L 408.066233 -367.861259 
L 403.230591 -364.706454 
L 398.394949 -360.665187 
L 393.559307 -355.670594 
L 388.723666 -349.741731 
L 383.888024 -343.014891 
L 379.052382 -335.76277 
L 374.21674 -328.393609 
L 369.381098 -321.425415 
L 364.545456 -315.435157 
L 359.709814 -310.988394 
L 354.874172 -308.559862 
L 350.03853 -309.329244 
L 345.202889 -313.252387 
L 340.367247 -315.911948 
L 335.531605 -321.769308 
L 330.695963 -329.464533 
L 325.860321 -337.717088 
L 321.024679 -345.783677 
L 316.189037 -352.977832 
L 311.353395 -358.748197 
L 306.517753 -362.735475 
L 301.682111 -364.801703 
L 296.84647 -365.029375 
L 292.010828 -363.691377 
L 287.175186 -361.195805 
L 282.339544 -358.012873 
L 277.503902 -354.594069 
L 272.66826 -351.296101 
L 267.832618 -348.97756 
L 262.996976 -347.890444 
L 258.161334 -345.210923 
L 253.325693 -341.463246 
L 248.490051 -337.831723 
L 243.654409 -334.171918 
L 238.818767 -330.646599 
L 233.983125 -329.109663 
L 229.147483 -329.032245 
L 224.311841 -330.248597 
L 219.476199 -332.344846 
L 214.640557 -334.741639 
L 209.804916 -336.800583 
L 204.969274 -337.934782 
L 200.133632 -337.706085 
L 195.29799 -335.896306 
L 190.462348 -332.54488 
L 185.626706 -327.949762 
L 180.791064 -322.631848 
L 175.955422 -317.266278 
L 171.11978 -312.587517 
L 166.284139 -309.279324 
L 161.448497 -310.701093 
L 156.612855 -315.338125 
L 151.777213 -319.340259 
L 146.941571 -322.764257 
L 142.105929 -325.804268 
L 137.270287 -328.742093 
L 132.434645 -333.590478 
L 127.599003 -337.818483 
L 122.763361 -340.104131 
L 117.92772 -344.453151 
L 113.092078 -349.713714 
L 108.256436 -355.192132 
L 103.420794 -360.575304 
L 98.585152 -365.54598 
L 93.74951 -369.83785 
L 88.913868 -373.275418 
L 84.078226 -375.792332 
L 79.242584 -377.427383 
L 74.406943 -378.302328 
L 69.571301 -378.588941 
L 64.735659 -378.473816 
L 59.900017 -378.128478 
L 55.064375 -377.689751 
z
" id="m7229b72dc7" style="stroke:#ff0000;stroke-opacity:0.15;"/>
    </defs>
    <g clip-path="url(#p7224f0a070)">
     <use style="fill:#ff0000;fill-opacity:0.15;stroke:#ff0000;stroke-opacity:0.15;" x="0" xlink:href="#m7229b72dc7" y="423.177812"/>
    </g>
   </g>
   <g id="line2d_15">
    <path clip-path="url(#p7224f0a070)" d="M 55.064375 90.242051 
L 59.900017 86.463197 
L 64.735659 82.966541 
L 69.571301 79.843832 
L 74.406943 77.177007 
L 79.242584 75.036041 
L 84.078226 73.477111 
L 88.913868 72.54112 
L 93.74951 72.25263 
L 98.585152 72.619208 
L 103.420794 73.631238 
L 108.256436 75.262164 
L 113.092078 77.469192 
L 117.92772 80.194412 
L 122.763361 83.366317 
L 127.599003 86.901679 
L 132.434645 90.707735 
L 137.270287 94.684617 
L 142.105929 98.727975 
L 146.941571 102.731717 
L 151.777213 106.590787 
L 156.612855 110.203929 
L 161.448497 113.476336 
L 166.284139 116.322143 
L 171.11978 118.666681 
L 175.955422 120.44843 
L 180.791064 121.62064 
L 185.626706 122.152552 
L 190.462348 122.030209 
L 195.29799 121.256823 
L 200.133632 119.852686 
L 204.969274 117.85464 
L 209.804916 115.315113 
L 214.640557 112.30074 
L 219.476199 108.890613 
L 224.311841 105.174213 
L 229.147483 101.249053 
L 233.983125 97.218125 
L 238.818767 93.187197 
L 243.654409 89.262037 
L 248.490051 85.545637 
L 253.325693 82.13551 
L 258.161334 79.121137 
L 262.996976 76.58161 
L 267.832618 74.583564 
L 272.66826 73.179427 
L 277.503902 72.406041 
L 282.339544 72.283698 
L 287.175186 72.81561 
L 292.010828 73.98782 
L 296.84647 75.769569 
L 301.682111 78.114107 
L 306.517753 80.959914 
L 311.353395 84.232321 
L 316.189037 87.845463 
L 321.024679 91.704533 
L 325.860321 95.708275 
L 330.695963 99.751633 
L 335.531605 103.728515 
L 340.367247 107.534571 
L 345.202889 111.069933 
L 350.03853 114.241838 
L 354.874172 116.967058 
L 359.709814 119.174086 
L 364.545456 120.805012 
L 369.381098 121.817042 
L 374.21674 122.18362 
L 379.052382 121.89513 
L 383.888024 120.959139 
L 388.723666 119.400209 
L 393.559307 117.259243 
L 398.394949 114.592418 
L 403.230591 111.469709 
L 408.066233 107.973053 
L 412.901875 104.194199 
" style="fill:none;stroke:#0000ff;stroke-dasharray:5.55,2.4;stroke-dashoffset:0;stroke-width:1.5;"/>
   </g>
   <g id="line2d_16">
    <path clip-path="url(#p7224f0a070)" d="M 55.064375 94.844096 
L 59.900017 93.891319 
L 64.735659 92.685704 
L 69.571301 91.216934 
L 74.406943 89.499309 
L 79.242584 87.579469 
L 84.078226 85.541797 
L 88.913868 83.50969 
L 93.74951 81.64119 
L 98.585152 80.118158 
L 103.420794 79.129279 
L 108.256436 78.848465 
L 113.092078 79.411407 
L 117.92772 80.893896 
L 122.763361 83.295681 
L 127.599003 86.533116 
L 132.434645 90.442544 
L 137.270287 94.794655 
L 142.105929 99.318121 
L 146.941571 103.729208 
L 151.777213 107.762991 
L 156.612855 111.201526 
L 161.448497 113.894861 
L 166.284139 115.771999 
L 171.11978 116.840553 
L 175.955422 117.175644 
L 180.791064 116.900165 
L 185.626706 116.159801 
L 190.462348 115.096861 
L 195.29799 113.827035 
L 200.133632 112.422717 
L 204.969274 110.905439 
L 209.804916 109.248565 
L 214.640557 107.389703 
L 219.476199 105.250662 
L 224.311841 102.761375 
L 229.147483 99.883383 
L 233.983125 96.628342 
L 238.818767 93.067796 
L 243.654409 89.331985 
L 248.490051 85.597509 
L 253.325693 82.065954 
L 258.161334 78.937382 
L 262.996976 76.383777 
L 267.832618 74.527548 
L 272.66826 73.429166 
L 277.503902 73.0861 
L 282.339544 73.442796 
L 287.175186 74.409111 
L 292.010828 75.882856 
L 296.84647 77.771266 
L 301.682111 80.006579 
L 306.517753 82.552264 
L 311.353395 85.39867 
L 316.189037 88.549308 
L 321.024679 92.00127 
L 325.860321 95.72474 
L 330.695963 99.646973 
L 335.531605 103.645182 
L 340.367247 107.550836 
L 345.202889 111.165262 
L 350.03853 114.283819 
L 354.874172 116.723887 
L 359.709814 118.351065 
L 364.545456 119.098364 
L 369.381098 118.974845 
L 374.21674 118.062449 
L 379.052382 116.502267 
L 383.888024 114.473479 
L 388.723666 112.169257 
L 393.559307 109.773974 
L 398.394949 107.445175 
L 403.230591 105.302304 
L 408.066233 103.422612 
L 412.901875 101.843304 
" style="fill:none;stroke:#ff0000;stroke-linecap:round;stroke-width:2;"/>
   </g>
   <g id="line2d_17">
    <defs>
     <path d="M 0 3 
C 0.795609 3 1.55874 2.683901 2.12132 2.12132 
C 2.683901 1.55874 3 0.795609 3 0 
C 3 -0.795609 2.683901 -1.55874 2.12132 -2.12132 
C 1.55874 -2.683901 0.795609 -3 0 -3 
C -0.795609 -3 -1.55874 -2.683901 -2.12132 -2.12132 
C -2.683901 -1.55874 -3 -0.795609 -3 0 
C -3 0.795609 -2.683901 1.55874 -2.12132 2.12132 
C -1.55874 2.683901 -0.795609 3 0 3 
z
" id="m4831b94bf8" style="stroke:#000000;"/>
    </defs>
    <g clip-path="url(#p7224f0a070)">
     <use style="stroke:#000000;" x="122.151461" xlink:href="#m4831b94bf8" y="82.943029"/>
     <use style="stroke:#000000;" x="268.93561" xlink:href="#m4831b94bf8" y="74.209417"/>
     <use style="stroke:#000000;" x="351.149462" xlink:href="#m4831b94bf8" y="114.910244"/>
     <use style="stroke:#000000;" x="339.644004" xlink:href="#m4831b94bf8" y="106.980167"/>
     <use style="stroke:#000000;" x="163.762551" xlink:href="#m4831b94bf8" y="114.896277"/>
     <use style="stroke:#000000;" x="250.793265" xlink:href="#m4831b94bf8" y="83.877489"/>
     <use style="stroke:#000000;" x="136.067357" xlink:href="#m4831b94bf8" y="93.684993"/>
     <use style="stroke:#000000;" x="241.064874" xlink:href="#m4831b94bf8" y="91.344496"/>
    </g>
   </g>
   <g id="patch_3">
    <path d="M 55.064375 172.118125 
L 55.064375 22.318125 
" style="fill:none;stroke:#ffffff;stroke-linecap:square;stroke-linejoin:miter;stroke-width:0.8;"/>
   </g>
   <g id="patch_4">
    <path d="M 412.901875 172.118125 
L 412.901875 22.318125 
" style="fill:none;stroke:#ffffff;stroke-linecap:square;stroke-linejoin:miter;stroke-width:0.8;"/>
   </g>
   <g id="patch_5">
    <path d="M 55.064375 172.118125 
L 412.901875 172.118125 
" style="fill:none;stroke:#ffffff;stroke-linecap:square;stroke-linejoin:miter;stroke-width:0.8;"/>
   </g>
   <g id="patch_6">
    <path d="M 55.064375 22.318125 
L 412.901875 22.318125 
" style="fill:none;stroke:#ffffff;stroke-linecap:square;stroke-linejoin:miter;stroke-width:0.8;"/>
   </g>
   <g id="text_17">
    <!-- Distribution of posterior and prior data. -->
    <g style="fill:#262626;" transform="translate(115.950938 16.318125)scale(0.12 -0.12)">
     <defs>
      <path d="M 1259 4147 
L 1259 519 
L 2022 519 
Q 2988 519 3436 956 
Q 3884 1394 3884 2338 
Q 3884 3275 3436 3711 
Q 2988 4147 2022 4147 
L 1259 4147 
z
M 628 4666 
L 1925 4666 
Q 3281 4666 3915 4102 
Q 4550 3538 4550 2338 
Q 4550 1131 3912 565 
Q 3275 0 1925 0 
L 628 0 
L 628 4666 
z
" id="DejaVuSans-44" transform="scale(0.015625)"/>
      <path d="M 603 3500 
L 1178 3500 
L 1178 0 
L 603 0 
L 603 3500 
z
M 603 4863 
L 1178 4863 
L 1178 4134 
L 603 4134 
L 603 4863 
z
" id="DejaVuSans-69" transform="scale(0.015625)"/>
      <path d="M 2834 3397 
L 2834 2853 
Q 2591 2978 2328 3040 
Q 2066 3103 1784 3103 
Q 1356 3103 1142 2972 
Q 928 2841 928 2578 
Q 928 2378 1081 2264 
Q 1234 2150 1697 2047 
L 1894 2003 
Q 2506 1872 2764 1633 
Q 3022 1394 3022 966 
Q 3022 478 2636 193 
Q 2250 -91 1575 -91 
Q 1294 -91 989 -36 
Q 684 19 347 128 
L 347 722 
Q 666 556 975 473 
Q 1284 391 1588 391 
Q 1994 391 2212 530 
Q 2431 669 2431 922 
Q 2431 1156 2273 1281 
Q 2116 1406 1581 1522 
L 1381 1569 
Q 847 1681 609 1914 
Q 372 2147 372 2553 
Q 372 3047 722 3315 
Q 1072 3584 1716 3584 
Q 2034 3584 2315 3537 
Q 2597 3491 2834 3397 
z
" id="DejaVuSans-73" transform="scale(0.015625)"/>
      <path d="M 1172 4494 
L 1172 3500 
L 2356 3500 
L 2356 3053 
L 1172 3053 
L 1172 1153 
Q 1172 725 1289 603 
Q 1406 481 1766 481 
L 2356 481 
L 2356 0 
L 1766 0 
Q 1100 0 847 248 
Q 594 497 594 1153 
L 594 3053 
L 172 3053 
L 172 3500 
L 594 3500 
L 594 4494 
L 1172 4494 
z
" id="DejaVuSans-74" transform="scale(0.015625)"/>
      <path d="M 2631 2963 
Q 2534 3019 2420 3045 
Q 2306 3072 2169 3072 
Q 1681 3072 1420 2755 
Q 1159 2438 1159 1844 
L 1159 0 
L 581 0 
L 581 3500 
L 1159 3500 
L 1159 2956 
Q 1341 3275 1631 3429 
Q 1922 3584 2338 3584 
Q 2397 3584 2469 3576 
Q 2541 3569 2628 3553 
L 2631 2963 
z
" id="DejaVuSans-72" transform="scale(0.015625)"/>
      <path d="M 3116 1747 
Q 3116 2381 2855 2742 
Q 2594 3103 2138 3103 
Q 1681 3103 1420 2742 
Q 1159 2381 1159 1747 
Q 1159 1113 1420 752 
Q 1681 391 2138 391 
Q 2594 391 2855 752 
Q 3116 1113 3116 1747 
z
M 1159 2969 
Q 1341 3281 1617 3432 
Q 1894 3584 2278 3584 
Q 2916 3584 3314 3078 
Q 3713 2572 3713 1747 
Q 3713 922 3314 415 
Q 2916 -91 2278 -91 
Q 1894 -91 1617 61 
Q 1341 213 1159 525 
L 1159 0 
L 581 0 
L 581 4863 
L 1159 4863 
L 1159 2969 
z
" id="DejaVuSans-62" transform="scale(0.015625)"/>
      <path d="M 544 1381 
L 544 3500 
L 1119 3500 
L 1119 1403 
Q 1119 906 1312 657 
Q 1506 409 1894 409 
Q 2359 409 2629 706 
Q 2900 1003 2900 1516 
L 2900 3500 
L 3475 3500 
L 3475 0 
L 2900 0 
L 2900 538 
Q 2691 219 2414 64 
Q 2138 -91 1772 -91 
Q 1169 -91 856 284 
Q 544 659 544 1381 
z
M 1991 3584 
L 1991 3584 
z
" id="DejaVuSans-75" transform="scale(0.015625)"/>
      <path d="M 1959 3097 
Q 1497 3097 1228 2736 
Q 959 2375 959 1747 
Q 959 1119 1226 758 
Q 1494 397 1959 397 
Q 2419 397 2687 759 
Q 2956 1122 2956 1747 
Q 2956 2369 2687 2733 
Q 2419 3097 1959 3097 
z
M 1959 3584 
Q 2709 3584 3137 3096 
Q 3566 2609 3566 1747 
Q 3566 888 3137 398 
Q 2709 -91 1959 -91 
Q 1206 -91 779 398 
Q 353 888 353 1747 
Q 353 2609 779 3096 
Q 1206 3584 1959 3584 
z
" id="DejaVuSans-6f" transform="scale(0.015625)"/>
      <path d="M 3513 2113 
L 3513 0 
L 2938 0 
L 2938 2094 
Q 2938 2591 2744 2837 
Q 2550 3084 2163 3084 
Q 1697 3084 1428 2787 
Q 1159 2491 1159 1978 
L 1159 0 
L 581 0 
L 581 3500 
L 1159 3500 
L 1159 2956 
Q 1366 3272 1645 3428 
Q 1925 3584 2291 3584 
Q 2894 3584 3203 3211 
Q 3513 2838 3513 2113 
z
" id="DejaVuSans-6e" transform="scale(0.015625)"/>
      <path id="DejaVuSans-20" transform="scale(0.015625)"/>
      <path d="M 2375 4863 
L 2375 4384 
L 1825 4384 
Q 1516 4384 1395 4259 
Q 1275 4134 1275 3809 
L 1275 3500 
L 2222 3500 
L 2222 3053 
L 1275 3053 
L 1275 0 
L 697 0 
L 697 3053 
L 147 3053 
L 147 3500 
L 697 3500 
L 697 3744 
Q 697 4328 969 4595 
Q 1241 4863 1831 4863 
L 2375 4863 
z
" id="DejaVuSans-66" transform="scale(0.015625)"/>
      <path d="M 1159 525 
L 1159 -1331 
L 581 -1331 
L 581 3500 
L 1159 3500 
L 1159 2969 
Q 1341 3281 1617 3432 
Q 1894 3584 2278 3584 
Q 2916 3584 3314 3078 
Q 3713 2572 3713 1747 
Q 3713 922 3314 415 
Q 2916 -91 2278 -91 
Q 1894 -91 1617 61 
Q 1341 213 1159 525 
z
M 3116 1747 
Q 3116 2381 2855 2742 
Q 2594 3103 2138 3103 
Q 1681 3103 1420 2742 
Q 1159 2381 1159 1747 
Q 1159 1113 1420 752 
Q 1681 391 2138 391 
Q 2594 391 2855 752 
Q 3116 1113 3116 1747 
z
" id="DejaVuSans-70" transform="scale(0.015625)"/>
      <path d="M 3597 1894 
L 3597 1613 
L 953 1613 
Q 991 1019 1311 708 
Q 1631 397 2203 397 
Q 2534 397 2845 478 
Q 3156 559 3463 722 
L 3463 178 
Q 3153 47 2828 -22 
Q 2503 -91 2169 -91 
Q 1331 -91 842 396 
Q 353 884 353 1716 
Q 353 2575 817 3079 
Q 1281 3584 2069 3584 
Q 2775 3584 3186 3129 
Q 3597 2675 3597 1894 
z
M 3022 2063 
Q 3016 2534 2758 2815 
Q 2500 3097 2075 3097 
Q 1594 3097 1305 2825 
Q 1016 2553 972 2059 
L 3022 2063 
z
" id="DejaVuSans-65" transform="scale(0.015625)"/>
      <path d="M 2194 1759 
Q 1497 1759 1228 1600 
Q 959 1441 959 1056 
Q 959 750 1161 570 
Q 1363 391 1709 391 
Q 2188 391 2477 730 
Q 2766 1069 2766 1631 
L 2766 1759 
L 2194 1759 
z
M 3341 1997 
L 3341 0 
L 2766 0 
L 2766 531 
Q 2569 213 2275 61 
Q 1981 -91 1556 -91 
Q 1019 -91 701 211 
Q 384 513 384 1019 
Q 384 1609 779 1909 
Q 1175 2209 1959 2209 
L 2766 2209 
L 2766 2266 
Q 2766 2663 2505 2880 
Q 2244 3097 1772 3097 
Q 1472 3097 1187 3025 
Q 903 2953 641 2809 
L 641 3341 
Q 956 3463 1253 3523 
Q 1550 3584 1831 3584 
Q 2591 3584 2966 3190 
Q 3341 2797 3341 1997 
z
" id="DejaVuSans-61" transform="scale(0.015625)"/>
      <path d="M 2906 2969 
L 2906 4863 
L 3481 4863 
L 3481 0 
L 2906 0 
L 2906 525 
Q 2725 213 2448 61 
Q 2172 -91 1784 -91 
Q 1150 -91 751 415 
Q 353 922 353 1747 
Q 353 2572 751 3078 
Q 1150 3584 1784 3584 
Q 2172 3584 2448 3432 
Q 2725 3281 2906 2969 
z
M 947 1747 
Q 947 1113 1208 752 
Q 1469 391 1925 391 
Q 2381 391 2643 752 
Q 2906 1113 2906 1747 
Q 2906 2381 2643 2742 
Q 2381 3103 1925 3103 
Q 1469 3103 1208 2742 
Q 947 2381 947 1747 
z
" id="DejaVuSans-64" transform="scale(0.015625)"/>
      <path d="M 684 794 
L 1344 794 
L 1344 0 
L 684 0 
L 684 794 
z
" id="DejaVuSans-2e" transform="scale(0.015625)"/>
     </defs>
     <use xlink:href="#DejaVuSans-44"/>
     <use x="77.001953" xlink:href="#DejaVuSans-69"/>
     <use x="104.785156" xlink:href="#DejaVuSans-73"/>
     <use x="156.884766" xlink:href="#DejaVuSans-74"/>
     <use x="196.09375" xlink:href="#DejaVuSans-72"/>
     <use x="237.207031" xlink:href="#DejaVuSans-69"/>
     <use x="264.990234" xlink:href="#DejaVuSans-62"/>
     <use x="328.466797" xlink:href="#DejaVuSans-75"/>
     <use x="391.845703" xlink:href="#DejaVuSans-74"/>
     <use x="431.054688" xlink:href="#DejaVuSans-69"/>
     <use x="458.837891" xlink:href="#DejaVuSans-6f"/>
     <use x="520.019531" xlink:href="#DejaVuSans-6e"/>
     <use x="583.398438" xlink:href="#DejaVuSans-20"/>
     <use x="615.185547" xlink:href="#DejaVuSans-6f"/>
     <use x="676.367188" xlink:href="#DejaVuSans-66"/>
     <use x="711.572266" xlink:href="#DejaVuSans-20"/>
     <use x="743.359375" xlink:href="#DejaVuSans-70"/>
     <use x="806.835938" xlink:href="#DejaVuSans-6f"/>
     <use x="868.017578" xlink:href="#DejaVuSans-73"/>
     <use x="920.117188" xlink:href="#DejaVuSans-74"/>
     <use x="959.326172" xlink:href="#DejaVuSans-65"/>
     <use x="1020.849609" xlink:href="#DejaVuSans-72"/>
     <use x="1061.962891" xlink:href="#DejaVuSans-69"/>
     <use x="1089.746094" xlink:href="#DejaVuSans-6f"/>
     <use x="1150.927734" xlink:href="#DejaVuSans-72"/>
     <use x="1192.041016" xlink:href="#DejaVuSans-20"/>
     <use x="1223.828125" xlink:href="#DejaVuSans-61"/>
     <use x="1285.107422" xlink:href="#DejaVuSans-6e"/>
     <use x="1348.486328" xlink:href="#DejaVuSans-64"/>
     <use x="1411.962891" xlink:href="#DejaVuSans-20"/>
     <use x="1443.75" xlink:href="#DejaVuSans-70"/>
     <use x="1507.226562" xlink:href="#DejaVuSans-72"/>
     <use x="1548.339844" xlink:href="#DejaVuSans-69"/>
     <use x="1576.123047" xlink:href="#DejaVuSans-6f"/>
     <use x="1637.304688" xlink:href="#DejaVuSans-72"/>
     <use x="1678.417969" xlink:href="#DejaVuSans-20"/>
     <use x="1710.205078" xlink:href="#DejaVuSans-64"/>
     <use x="1773.681641" xlink:href="#DejaVuSans-61"/>
     <use x="1834.960938" xlink:href="#DejaVuSans-74"/>
     <use x="1874.169922" xlink:href="#DejaVuSans-61"/>
     <use x="1935.449219" xlink:href="#DejaVuSans-2e"/>
    </g>
   </g>
   <g id="legend_1">
    <g id="patch_7">
     <path d="M 339.601875 91.493125 
L 405.901875 91.493125 
Q 407.901875 91.493125 407.901875 89.493125 
L 407.901875 29.318125 
Q 407.901875 27.318125 405.901875 27.318125 
L 339.601875 27.318125 
Q 337.601875 27.318125 337.601875 29.318125 
L 337.601875 89.493125 
Q 337.601875 91.493125 339.601875 91.493125 
z
" style="fill:#eaeaf2;opacity:0.8;stroke:#cccccc;stroke-linejoin:miter;"/>
    </g>
    <g id="line2d_18">
     <path d="M 341.601875 35.416562 
L 361.601875 35.416562 
" style="fill:none;stroke:#0000ff;stroke-dasharray:5.55,2.4;stroke-dashoffset:0;stroke-width:1.5;"/>
    </g>
    <g id="line2d_19"/>
    <g id="text_18">
     <!-- $sin(x)$ -->
     <g style="fill:#262626;" transform="translate(369.601875 38.916562)scale(0.1 -0.1)">
      <defs>
       <path d="M 3200 3397 
L 3091 2853 
Q 2863 2978 2609 3040 
Q 2356 3103 2088 3103 
Q 1634 3103 1373 2948 
Q 1113 2794 1113 2528 
Q 1113 2219 1719 2053 
Q 1766 2041 1788 2034 
L 1972 1978 
Q 2547 1819 2739 1644 
Q 2931 1469 2931 1166 
Q 2931 609 2489 259 
Q 2047 -91 1331 -91 
Q 1053 -91 747 -37 
Q 441 16 72 128 
L 184 722 
Q 500 559 806 475 
Q 1113 391 1394 391 
Q 1816 391 2080 572 
Q 2344 753 2344 1031 
Q 2344 1331 1650 1516 
L 1591 1531 
L 1394 1581 
Q 956 1697 753 1886 
Q 550 2075 550 2369 
Q 550 2928 970 3256 
Q 1391 3584 2113 3584 
Q 2397 3584 2667 3537 
Q 2938 3491 3200 3397 
z
" id="DejaVuSans-Oblique-73" transform="scale(0.015625)"/>
       <path d="M 1172 4863 
L 1747 4863 
L 1606 4134 
L 1031 4134 
L 1172 4863 
z
M 909 3500 
L 1484 3500 
L 800 0 
L 225 0 
L 909 3500 
z
" id="DejaVuSans-Oblique-69" transform="scale(0.015625)"/>
       <path d="M 3566 2113 
L 3156 0 
L 2578 0 
L 2988 2091 
Q 3016 2238 3031 2350 
Q 3047 2463 3047 2528 
Q 3047 2791 2881 2937 
Q 2716 3084 2419 3084 
Q 1956 3084 1622 2776 
Q 1288 2469 1184 1941 
L 800 0 
L 225 0 
L 903 3500 
L 1478 3500 
L 1363 2950 
Q 1603 3253 1940 3418 
Q 2278 3584 2650 3584 
Q 3113 3584 3367 3334 
Q 3622 3084 3622 2631 
Q 3622 2519 3608 2391 
Q 3594 2263 3566 2113 
z
" id="DejaVuSans-Oblique-6e" transform="scale(0.015625)"/>
       <path d="M 1984 4856 
Q 1566 4138 1362 3434 
Q 1159 2731 1159 2009 
Q 1159 1288 1364 580 
Q 1569 -128 1984 -844 
L 1484 -844 
Q 1016 -109 783 600 
Q 550 1309 550 2009 
Q 550 2706 781 3412 
Q 1013 4119 1484 4856 
L 1984 4856 
z
" id="DejaVuSans-28" transform="scale(0.015625)"/>
       <path d="M 513 4856 
L 1013 4856 
Q 1481 4119 1714 3412 
Q 1947 2706 1947 2009 
Q 1947 1309 1714 600 
Q 1481 -109 1013 -844 
L 513 -844 
Q 928 -128 1133 580 
Q 1338 1288 1338 2009 
Q 1338 2731 1133 3434 
Q 928 4138 513 4856 
z
" id="DejaVuSans-29" transform="scale(0.015625)"/>
      </defs>
      <use transform="translate(0 0.015625)" xlink:href="#DejaVuSans-Oblique-73"/>
      <use transform="translate(52.099609 0.015625)" xlink:href="#DejaVuSans-Oblique-69"/>
      <use transform="translate(79.882812 0.015625)" xlink:href="#DejaVuSans-Oblique-6e"/>
      <use transform="translate(143.261719 0.015625)" xlink:href="#DejaVuSans-28"/>
      <use transform="translate(182.275391 0.015625)" xlink:href="#DejaVuSans-Oblique-78"/>
      <use transform="translate(241.455078 0.015625)" xlink:href="#DejaVuSans-29"/>
     </g>
    </g>
    <g id="line2d_20">
     <path d="M 341.601875 50.094688 
L 361.601875 50.094688 
" style="fill:none;stroke:#ff0000;stroke-linecap:round;stroke-width:2;"/>
    </g>
    <g id="line2d_21"/>
    <g id="text_19">
     <!-- $\mu_{2|1}$ -->
     <g style="fill:#262626;" transform="translate(369.601875 53.594688)scale(0.1 -0.1)">
      <defs>
       <path d="M -84 -1331 
L 856 3500 
L 1434 3500 
L 1009 1322 
Q 997 1256 987 1175 
Q 978 1094 978 1013 
Q 978 722 1161 565 
Q 1344 409 1684 409 
Q 2147 409 2431 671 
Q 2716 934 2816 1459 
L 3213 3500 
L 3788 3500 
L 3266 809 
Q 3253 750 3248 706 
Q 3244 663 3244 628 
Q 3244 531 3283 486 
Q 3322 441 3406 441 
Q 3438 441 3492 456 
Q 3547 472 3647 513 
L 3559 50 
Q 3422 -19 3297 -55 
Q 3172 -91 3053 -91 
Q 2847 -91 2730 40 
Q 2613 172 2613 403 
Q 2438 153 2195 31 
Q 1953 -91 1625 -91 
Q 1334 -91 1117 43 
Q 900 178 831 397 
L 494 -1331 
L -84 -1331 
z
" id="DejaVuSans-Oblique-3bc" transform="scale(0.015625)"/>
       <path d="M 1344 4891 
L 1344 -1509 
L 813 -1509 
L 813 4891 
L 1344 4891 
z
" id="DejaVuSans-7c" transform="scale(0.015625)"/>
      </defs>
      <use transform="translate(0 0.3125)" xlink:href="#DejaVuSans-Oblique-3bc"/>
      <use transform="translate(63.623047 -16.09375)scale(0.7)" xlink:href="#DejaVuSans-32"/>
      <use transform="translate(108.15918 -16.09375)scale(0.7)" xlink:href="#DejaVuSans-7c"/>
      <use transform="translate(131.743164 -16.09375)scale(0.7)" xlink:href="#DejaVuSans-31"/>
     </g>
    </g>
    <g id="line2d_22"/>
    <g id="line2d_23">
     <g>
      <use style="stroke:#000000;" x="351.601875" xlink:href="#m4831b94bf8" y="65.994687"/>
     </g>
    </g>
    <g id="text_20">
     <!-- $(x_1, y_1)$ -->
     <g style="fill:#262626;" transform="translate(369.601875 69.494687)scale(0.1 -0.1)">
      <defs>
       <path d="M 750 794 
L 1409 794 
L 1409 256 
L 897 -744 
L 494 -744 
L 750 256 
L 750 794 
z
" id="DejaVuSans-2c" transform="scale(0.015625)"/>
      </defs>
      <use transform="translate(0 0.125)" xlink:href="#DejaVuSans-28"/>
      <use transform="translate(39.013672 0.125)" xlink:href="#DejaVuSans-Oblique-78"/>
      <use transform="translate(98.193359 -16.28125)scale(0.7)" xlink:href="#DejaVuSans-31"/>
      <use transform="translate(145.463867 0.125)" xlink:href="#DejaVuSans-2c"/>
      <use transform="translate(196.733398 0.125)" xlink:href="#DejaVuSans-Oblique-79"/>
      <use transform="translate(255.913086 -16.28125)scale(0.7)" xlink:href="#DejaVuSans-31"/>
      <use transform="translate(303.183594 0.125)" xlink:href="#DejaVuSans-29"/>
     </g>
    </g>
    <g id="patch_8">
     <path d="M 341.601875 84.193125 
L 361.601875 84.193125 
L 361.601875 77.193125 
L 341.601875 77.193125 
z
" style="fill:#ff0000;fill-opacity:0.15;stroke:#ff0000;stroke-linejoin:miter;stroke-opacity:0.15;"/>
    </g>
    <g id="text_21">
     <!-- $2 \sigma_{2|1}$ -->
     <g style="fill:#262626;" transform="translate(369.601875 84.193125)scale(0.1 -0.1)">
      <defs>
       <path d="M 2219 3044 
Q 1744 3044 1422 2700 
Q 1081 2341 969 1747 
Q 844 1119 1044 756 
Q 1241 397 1706 397 
Q 2166 397 2503 759 
Q 2844 1122 2966 1747 
Q 3075 2319 2881 2700 
Q 2700 3044 2219 3044 
z
M 2309 3503 
L 4219 3500 
L 4106 2925 
L 3463 2925 
Q 3706 2438 3575 1747 
Q 3406 888 2884 400 
Q 2359 -91 1609 -91 
Q 856 -91 525 400 
Q 194 888 363 1747 
Q 528 2609 1050 3097 
Q 1484 3503 2309 3503 
z
" id="DejaVuSans-Oblique-3c3" transform="scale(0.015625)"/>
      </defs>
      <use transform="translate(0 0.78125)" xlink:href="#DejaVuSans-32"/>
      <use transform="translate(63.623047 0.78125)" xlink:href="#DejaVuSans-Oblique-3c3"/>
      <use transform="translate(127.001953 -15.625)scale(0.7)" xlink:href="#DejaVuSans-32"/>
      <use transform="translate(171.538086 -15.625)scale(0.7)" xlink:href="#DejaVuSans-7c"/>
      <use transform="translate(195.12207 -15.625)scale(0.7)" xlink:href="#DejaVuSans-31"/>
     </g>
    </g>
   </g>
  </g>
  <g id="axes_2">
   <g id="patch_9">
    <path d="M 55.064375 382.718125 
L 412.901875 382.718125 
L 412.901875 232.918125 
L 55.064375 232.918125 
z
" style="fill:#eaeaf2;"/>
   </g>
   <g id="matplotlib.axis_3">
    <g id="xtick_8">
     <g id="line2d_24">
      <path clip-path="url(#p83b0e5181a)" d="M 55.064375 382.718125 
L 55.064375 232.918125 
" style="fill:none;stroke:#ffffff;stroke-linecap:round;stroke-width:0.8;"/>
     </g>
     <g id="text_22">
      <!-- −6 -->
      <g style="fill:#262626;" transform="translate(47.693281 397.316562)scale(0.1 -0.1)">
       <use xlink:href="#DejaVuSans-2212"/>
       <use x="83.789062" xlink:href="#DejaVuSans-36"/>
      </g>
     </g>
    </g>
    <g id="xtick_9">
     <g id="line2d_25">
      <path clip-path="url(#p83b0e5181a)" d="M 114.703958 382.718125 
L 114.703958 232.918125 
" style="fill:none;stroke:#ffffff;stroke-linecap:round;stroke-width:0.8;"/>
     </g>
     <g id="text_23">
      <!-- −4 -->
      <g style="fill:#262626;" transform="translate(107.332865 397.316562)scale(0.1 -0.1)">
       <use xlink:href="#DejaVuSans-2212"/>
       <use x="83.789062" xlink:href="#DejaVuSans-34"/>
      </g>
     </g>
    </g>
    <g id="xtick_10">
     <g id="line2d_26">
      <path clip-path="url(#p83b0e5181a)" d="M 174.343542 382.718125 
L 174.343542 232.918125 
" style="fill:none;stroke:#ffffff;stroke-linecap:round;stroke-width:0.8;"/>
     </g>
     <g id="text_24">
      <!-- −2 -->
      <g style="fill:#262626;" transform="translate(166.972448 397.316562)scale(0.1 -0.1)">
       <use xlink:href="#DejaVuSans-2212"/>
       <use x="83.789062" xlink:href="#DejaVuSans-32"/>
      </g>
     </g>
    </g>
    <g id="xtick_11">
     <g id="line2d_27">
      <path clip-path="url(#p83b0e5181a)" d="M 233.983125 382.718125 
L 233.983125 232.918125 
" style="fill:none;stroke:#ffffff;stroke-linecap:round;stroke-width:0.8;"/>
     </g>
     <g id="text_25">
      <!-- 0 -->
      <g style="fill:#262626;" transform="translate(230.801875 397.316562)scale(0.1 -0.1)">
       <use xlink:href="#DejaVuSans-30"/>
      </g>
     </g>
    </g>
    <g id="xtick_12">
     <g id="line2d_28">
      <path clip-path="url(#p83b0e5181a)" d="M 293.622708 382.718125 
L 293.622708 232.918125 
" style="fill:none;stroke:#ffffff;stroke-linecap:round;stroke-width:0.8;"/>
     </g>
     <g id="text_26">
      <!-- 2 -->
      <g style="fill:#262626;" transform="translate(290.441458 397.316562)scale(0.1 -0.1)">
       <use xlink:href="#DejaVuSans-32"/>
      </g>
     </g>
    </g>
    <g id="xtick_13">
     <g id="line2d_29">
      <path clip-path="url(#p83b0e5181a)" d="M 353.262292 382.718125 
L 353.262292 232.918125 
" style="fill:none;stroke:#ffffff;stroke-linecap:round;stroke-width:0.8;"/>
     </g>
     <g id="text_27">
      <!-- 4 -->
      <g style="fill:#262626;" transform="translate(350.081042 397.316562)scale(0.1 -0.1)">
       <use xlink:href="#DejaVuSans-34"/>
      </g>
     </g>
    </g>
    <g id="xtick_14">
     <g id="line2d_30">
      <path clip-path="url(#p83b0e5181a)" d="M 412.901875 382.718125 
L 412.901875 232.918125 
" style="fill:none;stroke:#ffffff;stroke-linecap:round;stroke-width:0.8;"/>
     </g>
     <g id="text_28">
      <!-- 6 -->
      <g style="fill:#262626;" transform="translate(409.720625 397.316562)scale(0.1 -0.1)">
       <use xlink:href="#DejaVuSans-36"/>
      </g>
     </g>
    </g>
    <g id="text_29">
     <!-- $x$ -->
     <g style="fill:#262626;" transform="translate(230.083125 413.274219)scale(0.13 -0.13)">
      <use transform="translate(0 0.3125)" xlink:href="#DejaVuSans-Oblique-78"/>
     </g>
    </g>
   </g>
   <g id="matplotlib.axis_4">
    <g id="ytick_8">
     <g id="line2d_31">
      <path clip-path="url(#p83b0e5181a)" d="M 55.064375 373.260874 
L 412.901875 373.260874 
" style="fill:none;stroke:#ffffff;stroke-linecap:round;stroke-width:0.8;"/>
     </g>
     <g id="text_30">
      <!-- −1.5 -->
      <g style="fill:#262626;" transform="translate(23.781563 377.060092)scale(0.1 -0.1)">
       <defs>
        <path d="M 691 4666 
L 3169 4666 
L 3169 4134 
L 1269 4134 
L 1269 2991 
Q 1406 3038 1543 3061 
Q 1681 3084 1819 3084 
Q 2600 3084 3056 2656 
Q 3513 2228 3513 1497 
Q 3513 744 3044 326 
Q 2575 -91 1722 -91 
Q 1428 -91 1123 -41 
Q 819 9 494 109 
L 494 744 
Q 775 591 1075 516 
Q 1375 441 1709 441 
Q 2250 441 2565 725 
Q 2881 1009 2881 1497 
Q 2881 1984 2565 2268 
Q 2250 2553 1709 2553 
Q 1456 2553 1204 2497 
Q 953 2441 691 2322 
L 691 4666 
z
" id="DejaVuSans-35" transform="scale(0.015625)"/>
       </defs>
       <use xlink:href="#DejaVuSans-2212"/>
       <use x="83.789062" xlink:href="#DejaVuSans-31"/>
       <use x="147.412109" xlink:href="#DejaVuSans-2e"/>
       <use x="179.199219" xlink:href="#DejaVuSans-35"/>
      </g>
     </g>
    </g>
    <g id="ytick_9">
     <g id="line2d_32">
      <path clip-path="url(#p83b0e5181a)" d="M 55.064375 351.807921 
L 412.901875 351.807921 
" style="fill:none;stroke:#ffffff;stroke-linecap:round;stroke-width:0.8;"/>
     </g>
     <g id="text_31">
      <!-- −1.0 -->
      <g style="fill:#262626;" transform="translate(23.781563 355.60714)scale(0.1 -0.1)">
       <use xlink:href="#DejaVuSans-2212"/>
       <use x="83.789062" xlink:href="#DejaVuSans-31"/>
       <use x="147.412109" xlink:href="#DejaVuSans-2e"/>
       <use x="179.199219" xlink:href="#DejaVuSans-30"/>
      </g>
     </g>
    </g>
    <g id="ytick_10">
     <g id="line2d_33">
      <path clip-path="url(#p83b0e5181a)" d="M 55.064375 330.354969 
L 412.901875 330.354969 
" style="fill:none;stroke:#ffffff;stroke-linecap:round;stroke-width:0.8;"/>
     </g>
     <g id="text_32">
      <!-- −0.5 -->
      <g style="fill:#262626;" transform="translate(23.781563 334.154187)scale(0.1 -0.1)">
       <use xlink:href="#DejaVuSans-2212"/>
       <use x="83.789062" xlink:href="#DejaVuSans-30"/>
       <use x="147.412109" xlink:href="#DejaVuSans-2e"/>
       <use x="179.199219" xlink:href="#DejaVuSans-35"/>
      </g>
     </g>
    </g>
    <g id="ytick_11">
     <g id="line2d_34">
      <path clip-path="url(#p83b0e5181a)" d="M 55.064375 308.902016 
L 412.901875 308.902016 
" style="fill:none;stroke:#ffffff;stroke-linecap:round;stroke-width:0.8;"/>
     </g>
     <g id="text_33">
      <!-- 0.0 -->
      <g style="fill:#262626;" transform="translate(32.16125 312.701235)scale(0.1 -0.1)">
       <use xlink:href="#DejaVuSans-30"/>
       <use x="63.623047" xlink:href="#DejaVuSans-2e"/>
       <use x="95.410156" xlink:href="#DejaVuSans-30"/>
      </g>
     </g>
    </g>
    <g id="ytick_12">
     <g id="line2d_35">
      <path clip-path="url(#p83b0e5181a)" d="M 55.064375 287.449064 
L 412.901875 287.449064 
" style="fill:none;stroke:#ffffff;stroke-linecap:round;stroke-width:0.8;"/>
     </g>
     <g id="text_34">
      <!-- 0.5 -->
      <g style="fill:#262626;" transform="translate(32.16125 291.248282)scale(0.1 -0.1)">
       <use xlink:href="#DejaVuSans-30"/>
       <use x="63.623047" xlink:href="#DejaVuSans-2e"/>
       <use x="95.410156" xlink:href="#DejaVuSans-35"/>
      </g>
     </g>
    </g>
    <g id="ytick_13">
     <g id="line2d_36">
      <path clip-path="url(#p83b0e5181a)" d="M 55.064375 265.996111 
L 412.901875 265.996111 
" style="fill:none;stroke:#ffffff;stroke-linecap:round;stroke-width:0.8;"/>
     </g>
     <g id="text_35">
      <!-- 1.0 -->
      <g style="fill:#262626;" transform="translate(32.16125 269.79533)scale(0.1 -0.1)">
       <use xlink:href="#DejaVuSans-31"/>
       <use x="63.623047" xlink:href="#DejaVuSans-2e"/>
       <use x="95.410156" xlink:href="#DejaVuSans-30"/>
      </g>
     </g>
    </g>
    <g id="ytick_14">
     <g id="line2d_37">
      <path clip-path="url(#p83b0e5181a)" d="M 55.064375 244.543159 
L 412.901875 244.543159 
" style="fill:none;stroke:#ffffff;stroke-linecap:round;stroke-width:0.8;"/>
     </g>
     <g id="text_36">
      <!-- 1.5 -->
      <g style="fill:#262626;" transform="translate(32.16125 248.342377)scale(0.1 -0.1)">
       <use xlink:href="#DejaVuSans-31"/>
       <use x="63.623047" xlink:href="#DejaVuSans-2e"/>
       <use x="95.410156" xlink:href="#DejaVuSans-35"/>
      </g>
     </g>
    </g>
    <g id="text_37">
     <!-- $y$ -->
     <g style="fill:#262626;" transform="translate(17.051563 311.718125)rotate(-90)scale(0.13 -0.13)">
      <use transform="translate(0 0.3125)" xlink:href="#DejaVuSans-Oblique-79"/>
     </g>
    </g>
   </g>
   <g id="line2d_38">
    <path clip-path="url(#p83b0e5181a)" d="M 55.064375 324.768499 
L 59.900017 317.472115 
L 64.735659 310.319916 
L 69.571301 304.133897 
L 74.406943 299.341953 
L 79.242584 295.915492 
L 84.078226 293.44789 
L 88.913868 291.352329 
L 93.74951 289.118419 
L 98.585152 286.541812 
L 103.420794 283.842533 
L 108.256436 281.621398 
L 113.092078 280.662043 
L 117.92772 281.648495 
L 122.763361 284.907015 
L 127.599003 290.276273 
L 132.434645 297.159205 
L 137.270287 304.7338 
L 142.105929 312.232206 
L 146.941571 319.170035 
L 151.777213 325.43266 
L 156.612855 331.191293 
L 161.448497 336.696965 
L 166.284139 342.051359 
L 171.11978 347.058779 
L 175.955422 351.224371 
L 180.791064 353.899765 
L 185.626706 354.516231 
L 190.462348 352.810966 
L 195.29799 348.954958 
L 200.133632 343.528813 
L 204.969274 337.351245 
L 209.804916 331.222235 
L 214.640557 325.677621 
L 219.476199 320.848853 
L 224.311841 316.480409 
L 229.147483 312.093237 
L 233.983125 307.22313 
L 238.818767 301.634092 
L 243.654409 295.422043 
L 248.490051 288.975464 
L 253.325693 282.823114 
L 258.161334 277.444737 
L 262.996976 273.129836 
L 267.832618 269.939679 
L 272.66826 267.775815 
L 277.503902 266.509029 
L 282.339544 266.098861 
L 287.175186 266.644131 
L 292.010828 268.342545 
L 296.84647 271.382595 
L 301.682111 275.822581 
L 306.517753 281.515205 
L 311.353395 288.112978 
L 316.189037 295.151992 
L 321.024679 302.178357 
L 325.860321 308.86661 
L 330.695963 315.087327 
L 335.531605 320.904801 
L 340.367247 326.513009 
L 345.202889 332.138033 
L 350.03853 337.941564 
L 354.874172 343.954218 
L 359.709814 350.053028 
L 364.545456 355.98081 
L 369.381098 361.391369 
L 374.21674 365.898625 
L 379.052382 369.112122 
L 383.888024 370.654363 
L 388.723666 370.171287 
L 393.559307 367.356158 
L 398.394949 362.003032 
L 403.230591 354.087956 
L 408.066233 343.852841 
L 412.901875 331.85119 
" style="fill:none;stroke:#1f77b4;stroke-linecap:round;stroke-width:1.5;"/>
   </g>
   <g id="line2d_39">
    <path clip-path="url(#p83b0e5181a)" d="M 55.064375 321.825337 
L 59.900017 320.00391 
L 64.735659 315.885523 
L 69.571301 310.264381 
L 74.406943 304.036739 
L 79.242584 297.990815 
L 84.078226 292.673633 
L 88.913868 288.351999 
L 93.74951 285.056814 
L 98.585152 282.683621 
L 103.420794 281.115657 
L 108.256436 280.334205 
L 113.092078 280.483284 
L 117.92772 281.863665 
L 122.763361 284.848137 
L 127.599003 289.73457 
L 132.434645 296.578193 
L 137.270287 305.059946 
L 142.105929 314.445077 
L 146.941571 323.66419 
L 151.777213 331.513276 
L 156.612855 336.930444 
L 161.448497 339.276771 
L 166.284139 338.53676 
L 171.11978 335.366695 
L 175.955422 330.956891 
L 180.791064 326.728929 
L 185.626706 323.945837 
L 190.462348 323.350849 
L 195.29799 324.951374 
L 200.133632 328.023356 
L 204.969274 331.338816 
L 209.804916 333.542453 
L 214.640557 333.551472 
L 219.476199 330.847647 
L 224.311841 325.573645 
L 229.147483 318.418969 
L 233.983125 310.355081 
L 238.818767 302.325239 
L 243.654409 294.998022 
L 248.490051 288.657116 
L 253.325693 283.242476 
L 258.161334 278.503316 
L 262.996976 274.190425 
L 267.832618 270.212105 
L 272.66826 266.700717 
L 277.503902 263.974847 
L 282.339544 262.421587 
L 287.175186 262.351981 
L 292.010828 263.890634 
L 296.84647 266.943961 
L 301.682111 271.256243 
L 306.517753 276.521966 
L 311.353395 282.496594 
L 316.189037 289.049504 
L 321.024679 296.133622 
L 325.860321 303.691346 
L 330.695963 311.55186 
L 335.531605 319.382025 
L 340.367247 326.727307 
L 345.202889 333.134007 
L 350.03853 338.302893 
L 354.874172 342.207055 
L 359.709814 345.120474 
L 364.545456 347.540792 
L 369.381098 350.03209 
L 374.21674 353.043707 
L 379.052382 356.76838 
L 383.888024 361.086328 
L 388.723666 365.609446 
L 393.559307 369.803971 
L 398.394949 373.143954 
L 403.230591 375.240892 
L 408.066233 375.909034 
L 412.901875 375.155055 
" style="fill:none;stroke:#ff7f0e;stroke-linecap:round;stroke-width:1.5;"/>
   </g>
   <g id="line2d_40">
    <path clip-path="url(#p83b0e5181a)" d="M 55.064375 353.477256 
L 59.900017 344.584409 
L 64.735659 335.895391 
L 69.571301 327.692038 
L 74.406943 319.99522 
L 79.242584 312.68922 
L 84.078226 305.673661 
L 88.913868 298.977649 
L 93.74951 292.798338 
L 98.585152 287.465384 
L 103.420794 283.3628 
L 108.256436 280.847257 
L 113.092078 280.188592 
L 117.92772 281.536823 
L 122.763361 284.904306 
L 127.599003 290.150224 
L 132.434645 296.964772 
L 137.270287 304.864251 
L 142.105929 313.215654 
L 146.941571 321.304644 
L 151.777213 328.444767 
L 156.612855 334.105467 
L 161.448497 338.021738 
L 166.284139 340.247328 
L 171.11978 341.128376 
L 175.955422 341.199568 
L 180.791064 341.030295 
L 185.626706 341.063797 
L 190.462348 341.493373 
L 195.29799 342.207738 
L 200.133632 342.818449 
L 204.969274 342.761769 
L 209.804916 341.449723 
L 214.640557 338.433116 
L 219.476199 333.534599 
L 224.311841 326.915114 
L 229.147483 319.052577 
L 233.983125 310.635154 
L 238.818767 302.396624 
L 243.654409 294.939329 
L 248.490051 288.594728 
L 253.325693 283.360171 
L 258.161334 278.927953 
L 262.996976 274.796618 
L 267.832618 270.433899 
L 272.66826 265.450096 
L 277.503902 259.741076 
L 282.339544 253.56848 
L 287.175186 247.557393 
L 292.010828 242.607069 
L 296.84647 239.727216 
L 301.682111 239.829901 
L 306.517753 243.521313 
L 311.353395 250.943006 
L 316.189037 261.703889 
L 321.024679 274.922632 
L 325.860321 289.371166 
L 330.695963 303.68389 
L 335.531605 316.582125 
L 340.367247 327.063632 
L 345.202889 334.520495 
L 350.03853 338.769592 
L 354.874172 340.002102 
L 359.709814 338.676172 
L 364.545456 335.386671 
L 369.381098 330.745792 
L 374.21674 325.299285 
L 379.052382 319.488011 
L 383.888024 313.648589 
L 388.723666 308.035213 
L 393.559307 302.841106 
L 398.394949 298.203267 
L 403.230591 294.186284 
L 408.066233 290.755051 
L 412.901875 287.756999 
" style="fill:none;stroke:#2ca02c;stroke-linecap:round;stroke-width:1.5;"/>
   </g>
   <g id="line2d_41">
    <path clip-path="url(#p83b0e5181a)" d="M 55.064375 317.029196 
L 59.900017 322.818866 
L 64.735659 327.451957 
L 69.571301 330.573869 
L 74.406943 331.885331 
L 79.242584 331.186681 
L 84.078226 328.410723 
L 88.913868 323.647328 
L 93.74951 317.171982 
L 98.585152 309.482571 
L 103.420794 301.327657 
L 108.256436 293.690379 
L 113.092078 287.691856 
L 117.92772 284.40374 
L 122.763361 284.602462 
L 127.599003 288.537178 
L 132.434645 295.797306 
L 137.270287 305.342914 
L 142.105929 315.708575 
L 146.941571 325.329525 
L 151.777213 332.894616 
L 156.612855 337.621302 
L 161.448497 339.376733 
L 166.284139 338.622194 
L 171.11978 336.21416 
L 175.955422 333.133902 
L 180.791064 330.228801 
L 185.626706 328.032965 
L 190.462348 326.702043 
L 195.29799 326.059431 
L 200.133632 325.719929 
L 204.969274 325.2401 
L 209.804916 324.24506 
L 214.640557 322.497868 
L 219.476199 319.903597 
L 224.311841 316.466115 
L 229.147483 312.232181 
L 233.983125 307.258121 
L 238.818767 301.618742 
L 243.654409 295.453445 
L 248.490051 289.021172 
L 253.325693 282.725873 
L 258.161334 277.083163 
L 262.996976 272.624292 
L 267.832618 269.764613 
L 272.66826 268.685352 
L 277.503902 269.278074 
L 282.339544 271.179058 
L 287.175186 273.885197 
L 292.010828 276.91029 
L 296.84647 279.926433 
L 301.682111 282.844088 
L 306.517753 285.811153 
L 311.353395 289.140308 
L 316.189037 293.193406 
L 321.024679 298.25597 
L 325.860321 304.429375 
L 330.695963 311.560594 
L 335.531605 319.224588 
L 340.367247 326.769386 
L 345.202889 333.423482 
L 350.03853 338.446503 
L 354.874172 341.284403 
L 359.709814 341.681461 
L 364.545456 339.713141 
L 369.381098 335.734231 
L 374.21674 330.271781 
L 379.052382 323.912589 
L 383.888024 317.228765 
L 388.723666 310.756132 
L 393.559307 305.006465 
L 398.394949 300.476133 
L 403.230591 297.620507 
L 408.066233 296.789173 
L 412.901875 298.144055 
" style="fill:none;stroke:#d62728;stroke-linecap:round;stroke-width:1.5;"/>
   </g>
   <g id="line2d_42">
    <path clip-path="url(#p83b0e5181a)" d="M 55.064375 297.266331 
L 59.900017 298.524696 
L 64.735659 296.535991 
L 69.571301 291.557732 
L 74.406943 284.363209 
L 79.242584 276.118137 
L 84.078226 268.171514 
L 88.913868 261.802381 
L 93.74951 257.98163 
L 98.585152 257.206464 
L 103.420794 259.445089 
L 108.256436 264.199901 
L 113.092078 270.667538 
L 117.92772 277.952315 
L 122.763361 285.278869 
L 127.599003 292.151675 
L 132.434645 298.423421 
L 137.270287 304.258446 
L 142.105929 310.00623 
L 146.941571 316.025098 
L 151.777213 322.509469 
L 156.612855 329.370989 
L 161.448497 336.206272 
L 166.284139 342.358759 
L 171.11978 347.057616 
L 175.955422 349.598827 
L 180.791064 349.525378 
L 185.626706 346.763454 
L 190.462348 341.679034 
L 195.29799 335.033313 
L 200.133632 327.835943 
L 204.969274 321.121274 
L 209.804916 315.698902 
L 214.640557 311.947251 
L 219.476199 309.716879 
L 224.311841 308.383894 
L 229.147483 307.047721 
L 233.983125 304.817212 
L 238.818767 301.095344 
L 243.654409 295.771334 
L 248.490051 289.262003 
L 253.325693 282.398589 
L 258.161334 276.207411 
L 262.996976 271.66223 
L 267.832618 269.482296 
L 272.66826 270.019882 
L 277.503902 273.241046 
L 282.339544 278.773542 
L 287.175186 285.986988 
L 292.010828 294.081911 
L 296.84647 302.183905 
L 301.682111 309.451741 
L 306.517753 315.204759 
L 311.353395 319.056292 
L 316.189037 321.018641 
L 321.024679 321.535289 
L 325.860321 321.407305 
L 330.695963 321.611889 
L 335.531605 323.049297 
L 340.367247 326.284985 
L 345.202889 331.363136 
L 350.03853 337.752137 
L 354.874172 344.446269 
L 359.709814 350.202328 
L 364.545456 353.84854 
L 369.381098 354.578973 
L 374.21674 352.148285 
L 379.052382 346.911186 
L 383.888024 339.700724 
L 388.723666 331.592944 
L 393.559307 323.64258 
L 398.394949 316.678984 
L 403.230591 311.220729 
L 408.066233 307.514505 
L 412.901875 305.65243 
" style="fill:none;stroke:#9467bd;stroke-linecap:round;stroke-width:1.5;"/>
   </g>
   <g id="patch_10">
    <path d="M 55.064375 382.718125 
L 55.064375 232.918125 
" style="fill:none;stroke:#ffffff;stroke-linecap:square;stroke-linejoin:miter;stroke-width:0.8;"/>
   </g>
   <g id="patch_11">
    <path d="M 412.901875 382.718125 
L 412.901875 232.918125 
" style="fill:none;stroke:#ffffff;stroke-linecap:square;stroke-linejoin:miter;stroke-width:0.8;"/>
   </g>
   <g id="patch_12">
    <path d="M 55.064375 382.718125 
L 412.901875 382.718125 
" style="fill:none;stroke:#ffffff;stroke-linecap:square;stroke-linejoin:miter;stroke-width:0.8;"/>
   </g>
   <g id="patch_13">
    <path d="M 55.064375 232.918125 
L 412.901875 232.918125 
" style="fill:none;stroke:#ffffff;stroke-linecap:square;stroke-linejoin:miter;stroke-width:0.8;"/>
   </g>
   <g id="text_38">
    <!-- 5 different function realizations from posterior -->
    <g style="fill:#262626;" transform="translate(95.192813 226.918125)scale(0.12 -0.12)">
     <defs>
      <path d="M 3122 3366 
L 3122 2828 
Q 2878 2963 2633 3030 
Q 2388 3097 2138 3097 
Q 1578 3097 1268 2742 
Q 959 2388 959 1747 
Q 959 1106 1268 751 
Q 1578 397 2138 397 
Q 2388 397 2633 464 
Q 2878 531 3122 666 
L 3122 134 
Q 2881 22 2623 -34 
Q 2366 -91 2075 -91 
Q 1284 -91 818 406 
Q 353 903 353 1747 
Q 353 2603 823 3093 
Q 1294 3584 2113 3584 
Q 2378 3584 2631 3529 
Q 2884 3475 3122 3366 
z
" id="DejaVuSans-63" transform="scale(0.015625)"/>
      <path d="M 603 4863 
L 1178 4863 
L 1178 0 
L 603 0 
L 603 4863 
z
" id="DejaVuSans-6c" transform="scale(0.015625)"/>
      <path d="M 353 3500 
L 3084 3500 
L 3084 2975 
L 922 459 
L 3084 459 
L 3084 0 
L 275 0 
L 275 525 
L 2438 3041 
L 353 3041 
L 353 3500 
z
" id="DejaVuSans-7a" transform="scale(0.015625)"/>
      <path d="M 3328 2828 
Q 3544 3216 3844 3400 
Q 4144 3584 4550 3584 
Q 5097 3584 5394 3201 
Q 5691 2819 5691 2113 
L 5691 0 
L 5113 0 
L 5113 2094 
Q 5113 2597 4934 2840 
Q 4756 3084 4391 3084 
Q 3944 3084 3684 2787 
Q 3425 2491 3425 1978 
L 3425 0 
L 2847 0 
L 2847 2094 
Q 2847 2600 2669 2842 
Q 2491 3084 2119 3084 
Q 1678 3084 1418 2786 
Q 1159 2488 1159 1978 
L 1159 0 
L 581 0 
L 581 3500 
L 1159 3500 
L 1159 2956 
Q 1356 3278 1631 3431 
Q 1906 3584 2284 3584 
Q 2666 3584 2933 3390 
Q 3200 3197 3328 2828 
z
" id="DejaVuSans-6d" transform="scale(0.015625)"/>
     </defs>
     <use xlink:href="#DejaVuSans-35"/>
     <use x="63.623047" xlink:href="#DejaVuSans-20"/>
     <use x="95.410156" xlink:href="#DejaVuSans-64"/>
     <use x="158.886719" xlink:href="#DejaVuSans-69"/>
     <use x="186.669922" xlink:href="#DejaVuSans-66"/>
     <use x="221.875" xlink:href="#DejaVuSans-66"/>
     <use x="257.080078" xlink:href="#DejaVuSans-65"/>
     <use x="318.603516" xlink:href="#DejaVuSans-72"/>
     <use x="357.466797" xlink:href="#DejaVuSans-65"/>
     <use x="418.990234" xlink:href="#DejaVuSans-6e"/>
     <use x="482.369141" xlink:href="#DejaVuSans-74"/>
     <use x="521.578125" xlink:href="#DejaVuSans-20"/>
     <use x="553.365234" xlink:href="#DejaVuSans-66"/>
     <use x="588.570312" xlink:href="#DejaVuSans-75"/>
     <use x="651.949219" xlink:href="#DejaVuSans-6e"/>
     <use x="715.328125" xlink:href="#DejaVuSans-63"/>
     <use x="770.308594" xlink:href="#DejaVuSans-74"/>
     <use x="809.517578" xlink:href="#DejaVuSans-69"/>
     <use x="837.300781" xlink:href="#DejaVuSans-6f"/>
     <use x="898.482422" xlink:href="#DejaVuSans-6e"/>
     <use x="961.861328" xlink:href="#DejaVuSans-20"/>
     <use x="993.648438" xlink:href="#DejaVuSans-72"/>
     <use x="1032.511719" xlink:href="#DejaVuSans-65"/>
     <use x="1094.035156" xlink:href="#DejaVuSans-61"/>
     <use x="1155.314453" xlink:href="#DejaVuSans-6c"/>
     <use x="1183.097656" xlink:href="#DejaVuSans-69"/>
     <use x="1210.880859" xlink:href="#DejaVuSans-7a"/>
     <use x="1263.371094" xlink:href="#DejaVuSans-61"/>
     <use x="1324.650391" xlink:href="#DejaVuSans-74"/>
     <use x="1363.859375" xlink:href="#DejaVuSans-69"/>
     <use x="1391.642578" xlink:href="#DejaVuSans-6f"/>
     <use x="1452.824219" xlink:href="#DejaVuSans-6e"/>
     <use x="1516.203125" xlink:href="#DejaVuSans-73"/>
     <use x="1568.302734" xlink:href="#DejaVuSans-20"/>
     <use x="1600.089844" xlink:href="#DejaVuSans-66"/>
     <use x="1635.294922" xlink:href="#DejaVuSans-72"/>
     <use x="1674.158203" xlink:href="#DejaVuSans-6f"/>
     <use x="1735.339844" xlink:href="#DejaVuSans-6d"/>
     <use x="1832.751953" xlink:href="#DejaVuSans-20"/>
     <use x="1864.539062" xlink:href="#DejaVuSans-70"/>
     <use x="1928.015625" xlink:href="#DejaVuSans-6f"/>
     <use x="1989.197266" xlink:href="#DejaVuSans-73"/>
     <use x="2041.296875" xlink:href="#DejaVuSans-74"/>
     <use x="2080.505859" xlink:href="#DejaVuSans-65"/>
     <use x="2142.029297" xlink:href="#DejaVuSans-72"/>
     <use x="2183.142578" xlink:href="#DejaVuSans-69"/>
     <use x="2210.925781" xlink:href="#DejaVuSans-6f"/>
     <use x="2272.107422" xlink:href="#DejaVuSans-72"/>
    </g>
   </g>
  </g>
 </g>
 <defs>
  <clipPath id="p7224f0a070">
   <rect height="149.8" width="357.8375" x="55.064375" y="22.318125"/>
  </clipPath>
  <clipPath id="p83b0e5181a">
   <rect height="149.8" width="357.8375" x="55.064375" y="232.918125"/>
  </clipPath>
 </defs>
</svg>
