<?xml version="1.0" encoding="utf-8" standalone="no"?>
<!DOCTYPE svg PUBLIC "-//W3C//DTD SVG 1.1//EN"
  "http://www.w3.org/Graphics/SVG/1.1/DTD/svg11.dtd">
<svg height="293.655187pt" version="1.1" viewBox="0 0 442.01125 293.655187" width="442.01125pt" xmlns="http://www.w3.org/2000/svg" xmlns:xlink="http://www.w3.org/1999/xlink">
 <metadata>
  <rdf:RDF xmlns:cc="http://creativecommons.org/ns#" xmlns:dc="http://purl.org/dc/elements/1.1/" xmlns:rdf="http://www.w3.org/1999/02/22-rdf-syntax-ns#">
   <cc:Work>
    <dc:type rdf:resource="http://purl.org/dc/dcmitype/StillImage"/>
    <dc:date>2021-08-20T14:53:43.448413</dc:date>
    <dc:format>image/svg+xml</dc:format>
    <dc:creator>
     <cc:Agent>
      <dc:title>Matplotlib v3.4.3, https://matplotlib.org/</dc:title>
     </cc:Agent>
    </dc:creator>
   </cc:Work>
  </rdf:RDF>
 </metadata>
 <defs>
  <style type="text/css">*{stroke-linecap:butt;stroke-linejoin:round;}</style>
 </defs>
 <g id="figure_1">
  <g id="patch_1">
   <path d="M 0 293.655187 
L 442.01125 293.655187 
L 442.01125 0 
L 0 0 
z
" style="fill:#ffffff;"/>
  </g>
  <g id="axes_1">
   <g id="patch_2">
    <path d="M 55.092813 253.1955 
L 389.892812 253.1955 
L 389.892812 35.7555 
L 55.092813 35.7555 
z
" style="fill:#eaeaf2;"/>
   </g>
   <g id="matplotlib.axis_1">
    <g id="xtick_1">
     <g id="line2d_1">
      <path clip-path="url(#pb1856e4a46)" d="M 55.092813 253.1955 
L 55.092813 35.7555 
" style="fill:none;stroke:#ffffff;stroke-linecap:round;stroke-width:0.8;"/>
     </g>
     <g id="text_1">
      <!-- −4 -->
      <g style="fill:#262626;" transform="translate(47.721719 267.793937)scale(0.1 -0.1)">
       <defs>
        <path d="M 678 2272 
L 4684 2272 
L 4684 1741 
L 678 1741 
L 678 2272 
z
" id="DejaVuSans-2212" transform="scale(0.015625)"/>
        <path d="M 2419 4116 
L 825 1625 
L 2419 1625 
L 2419 4116 
z
M 2253 4666 
L 3047 4666 
L 3047 1625 
L 3713 1625 
L 3713 1100 
L 3047 1100 
L 3047 0 
L 2419 0 
L 2419 1100 
L 313 1100 
L 313 1709 
L 2253 4666 
z
" id="DejaVuSans-34" transform="scale(0.015625)"/>
       </defs>
       <use xlink:href="#DejaVuSans-2212"/>
       <use x="83.789062" xlink:href="#DejaVuSans-34"/>
      </g>
     </g>
    </g>
    <g id="xtick_2">
     <g id="line2d_2">
      <path clip-path="url(#pb1856e4a46)" d="M 96.942813 253.1955 
L 96.942813 35.7555 
" style="fill:none;stroke:#ffffff;stroke-linecap:round;stroke-width:0.8;"/>
     </g>
     <g id="text_2">
      <!-- −3 -->
      <g style="fill:#262626;" transform="translate(89.571719 267.793937)scale(0.1 -0.1)">
       <defs>
        <path d="M 2597 2516 
Q 3050 2419 3304 2112 
Q 3559 1806 3559 1356 
Q 3559 666 3084 287 
Q 2609 -91 1734 -91 
Q 1441 -91 1130 -33 
Q 819 25 488 141 
L 488 750 
Q 750 597 1062 519 
Q 1375 441 1716 441 
Q 2309 441 2620 675 
Q 2931 909 2931 1356 
Q 2931 1769 2642 2001 
Q 2353 2234 1838 2234 
L 1294 2234 
L 1294 2753 
L 1863 2753 
Q 2328 2753 2575 2939 
Q 2822 3125 2822 3475 
Q 2822 3834 2567 4026 
Q 2313 4219 1838 4219 
Q 1578 4219 1281 4162 
Q 984 4106 628 3988 
L 628 4550 
Q 988 4650 1302 4700 
Q 1616 4750 1894 4750 
Q 2613 4750 3031 4423 
Q 3450 4097 3450 3541 
Q 3450 3153 3228 2886 
Q 3006 2619 2597 2516 
z
" id="DejaVuSans-33" transform="scale(0.015625)"/>
       </defs>
       <use xlink:href="#DejaVuSans-2212"/>
       <use x="83.789062" xlink:href="#DejaVuSans-33"/>
      </g>
     </g>
    </g>
    <g id="xtick_3">
     <g id="line2d_3">
      <path clip-path="url(#pb1856e4a46)" d="M 138.792812 253.1955 
L 138.792812 35.7555 
" style="fill:none;stroke:#ffffff;stroke-linecap:round;stroke-width:0.8;"/>
     </g>
     <g id="text_3">
      <!-- −2 -->
      <g style="fill:#262626;" transform="translate(131.421719 267.793937)scale(0.1 -0.1)">
       <defs>
        <path d="M 1228 531 
L 3431 531 
L 3431 0 
L 469 0 
L 469 531 
Q 828 903 1448 1529 
Q 2069 2156 2228 2338 
Q 2531 2678 2651 2914 
Q 2772 3150 2772 3378 
Q 2772 3750 2511 3984 
Q 2250 4219 1831 4219 
Q 1534 4219 1204 4116 
Q 875 4013 500 3803 
L 500 4441 
Q 881 4594 1212 4672 
Q 1544 4750 1819 4750 
Q 2544 4750 2975 4387 
Q 3406 4025 3406 3419 
Q 3406 3131 3298 2873 
Q 3191 2616 2906 2266 
Q 2828 2175 2409 1742 
Q 1991 1309 1228 531 
z
" id="DejaVuSans-32" transform="scale(0.015625)"/>
       </defs>
       <use xlink:href="#DejaVuSans-2212"/>
       <use x="83.789062" xlink:href="#DejaVuSans-32"/>
      </g>
     </g>
    </g>
    <g id="xtick_4">
     <g id="line2d_4">
      <path clip-path="url(#pb1856e4a46)" d="M 180.642812 253.1955 
L 180.642812 35.7555 
" style="fill:none;stroke:#ffffff;stroke-linecap:round;stroke-width:0.8;"/>
     </g>
     <g id="text_4">
      <!-- −1 -->
      <g style="fill:#262626;" transform="translate(173.271719 267.793937)scale(0.1 -0.1)">
       <defs>
        <path d="M 794 531 
L 1825 531 
L 1825 4091 
L 703 3866 
L 703 4441 
L 1819 4666 
L 2450 4666 
L 2450 531 
L 3481 531 
L 3481 0 
L 794 0 
L 794 531 
z
" id="DejaVuSans-31" transform="scale(0.015625)"/>
       </defs>
       <use xlink:href="#DejaVuSans-2212"/>
       <use x="83.789062" xlink:href="#DejaVuSans-31"/>
      </g>
     </g>
    </g>
    <g id="xtick_5">
     <g id="line2d_5">
      <path clip-path="url(#pb1856e4a46)" d="M 222.492812 253.1955 
L 222.492812 35.7555 
" style="fill:none;stroke:#ffffff;stroke-linecap:round;stroke-width:0.8;"/>
     </g>
     <g id="text_5">
      <!-- 0 -->
      <g style="fill:#262626;" transform="translate(219.311562 267.793937)scale(0.1 -0.1)">
       <defs>
        <path d="M 2034 4250 
Q 1547 4250 1301 3770 
Q 1056 3291 1056 2328 
Q 1056 1369 1301 889 
Q 1547 409 2034 409 
Q 2525 409 2770 889 
Q 3016 1369 3016 2328 
Q 3016 3291 2770 3770 
Q 2525 4250 2034 4250 
z
M 2034 4750 
Q 2819 4750 3233 4129 
Q 3647 3509 3647 2328 
Q 3647 1150 3233 529 
Q 2819 -91 2034 -91 
Q 1250 -91 836 529 
Q 422 1150 422 2328 
Q 422 3509 836 4129 
Q 1250 4750 2034 4750 
z
" id="DejaVuSans-30" transform="scale(0.015625)"/>
       </defs>
       <use xlink:href="#DejaVuSans-30"/>
      </g>
     </g>
    </g>
    <g id="xtick_6">
     <g id="line2d_6">
      <path clip-path="url(#pb1856e4a46)" d="M 264.342812 253.1955 
L 264.342812 35.7555 
" style="fill:none;stroke:#ffffff;stroke-linecap:round;stroke-width:0.8;"/>
     </g>
     <g id="text_6">
      <!-- 1 -->
      <g style="fill:#262626;" transform="translate(261.161563 267.793937)scale(0.1 -0.1)">
       <use xlink:href="#DejaVuSans-31"/>
      </g>
     </g>
    </g>
    <g id="xtick_7">
     <g id="line2d_7">
      <path clip-path="url(#pb1856e4a46)" d="M 306.192812 253.1955 
L 306.192812 35.7555 
" style="fill:none;stroke:#ffffff;stroke-linecap:round;stroke-width:0.8;"/>
     </g>
     <g id="text_7">
      <!-- 2 -->
      <g style="fill:#262626;" transform="translate(303.011562 267.793937)scale(0.1 -0.1)">
       <use xlink:href="#DejaVuSans-32"/>
      </g>
     </g>
    </g>
    <g id="xtick_8">
     <g id="line2d_8">
      <path clip-path="url(#pb1856e4a46)" d="M 348.042812 253.1955 
L 348.042812 35.7555 
" style="fill:none;stroke:#ffffff;stroke-linecap:round;stroke-width:0.8;"/>
     </g>
     <g id="text_8">
      <!-- 3 -->
      <g style="fill:#262626;" transform="translate(344.861562 267.793937)scale(0.1 -0.1)">
       <use xlink:href="#DejaVuSans-33"/>
      </g>
     </g>
    </g>
    <g id="xtick_9">
     <g id="line2d_9">
      <path clip-path="url(#pb1856e4a46)" d="M 389.892812 253.1955 
L 389.892812 35.7555 
" style="fill:none;stroke:#ffffff;stroke-linecap:round;stroke-width:0.8;"/>
     </g>
     <g id="text_9">
      <!-- 4 -->
      <g style="fill:#262626;" transform="translate(386.711563 267.793937)scale(0.1 -0.1)">
       <use xlink:href="#DejaVuSans-34"/>
      </g>
     </g>
    </g>
    <g id="text_10">
     <!-- $x$ -->
     <g style="fill:#262626;" transform="translate(218.592812 283.751594)scale(0.13 -0.13)">
      <defs>
       <path d="M 3841 3500 
L 2234 1784 
L 3219 0 
L 2559 0 
L 1819 1388 
L 531 0 
L -166 0 
L 1556 1844 
L 641 3500 
L 1300 3500 
L 1972 2234 
L 3144 3500 
L 3841 3500 
z
" id="DejaVuSans-Oblique-78" transform="scale(0.015625)"/>
      </defs>
      <use transform="translate(0 0.3125)" xlink:href="#DejaVuSans-Oblique-78"/>
     </g>
    </g>
   </g>
   <g id="matplotlib.axis_2">
    <g id="ytick_1">
     <g id="line2d_10">
      <path clip-path="url(#pb1856e4a46)" d="M 55.092813 247.138193 
L 389.892812 247.138193 
" style="fill:none;stroke:#ffffff;stroke-linecap:round;stroke-width:0.8;"/>
     </g>
     <g id="text_11">
      <!-- −1.5 -->
      <g style="fill:#262626;" transform="translate(23.81 250.937412)scale(0.1 -0.1)">
       <defs>
        <path d="M 684 794 
L 1344 794 
L 1344 0 
L 684 0 
L 684 794 
z
" id="DejaVuSans-2e" transform="scale(0.015625)"/>
        <path d="M 691 4666 
L 3169 4666 
L 3169 4134 
L 1269 4134 
L 1269 2991 
Q 1406 3038 1543 3061 
Q 1681 3084 1819 3084 
Q 2600 3084 3056 2656 
Q 3513 2228 3513 1497 
Q 3513 744 3044 326 
Q 2575 -91 1722 -91 
Q 1428 -91 1123 -41 
Q 819 9 494 109 
L 494 744 
Q 775 591 1075 516 
Q 1375 441 1709 441 
Q 2250 441 2565 725 
Q 2881 1009 2881 1497 
Q 2881 1984 2565 2268 
Q 2250 2553 1709 2553 
Q 1456 2553 1204 2497 
Q 953 2441 691 2322 
L 691 4666 
z
" id="DejaVuSans-35" transform="scale(0.015625)"/>
       </defs>
       <use xlink:href="#DejaVuSans-2212"/>
       <use x="83.789062" xlink:href="#DejaVuSans-31"/>
       <use x="147.412109" xlink:href="#DejaVuSans-2e"/>
       <use x="179.199219" xlink:href="#DejaVuSans-35"/>
      </g>
     </g>
    </g>
    <g id="ytick_2">
     <g id="line2d_11">
      <path clip-path="url(#pb1856e4a46)" d="M 55.092813 211.611618 
L 389.892812 211.611618 
" style="fill:none;stroke:#ffffff;stroke-linecap:round;stroke-width:0.8;"/>
     </g>
     <g id="text_12">
      <!-- −1.0 -->
      <g style="fill:#262626;" transform="translate(23.81 215.410836)scale(0.1 -0.1)">
       <use xlink:href="#DejaVuSans-2212"/>
       <use x="83.789062" xlink:href="#DejaVuSans-31"/>
       <use x="147.412109" xlink:href="#DejaVuSans-2e"/>
       <use x="179.199219" xlink:href="#DejaVuSans-30"/>
      </g>
     </g>
    </g>
    <g id="ytick_3">
     <g id="line2d_12">
      <path clip-path="url(#pb1856e4a46)" d="M 55.092813 176.085042 
L 389.892812 176.085042 
" style="fill:none;stroke:#ffffff;stroke-linecap:round;stroke-width:0.8;"/>
     </g>
     <g id="text_13">
      <!-- −0.5 -->
      <g style="fill:#262626;" transform="translate(23.81 179.884261)scale(0.1 -0.1)">
       <use xlink:href="#DejaVuSans-2212"/>
       <use x="83.789062" xlink:href="#DejaVuSans-30"/>
       <use x="147.412109" xlink:href="#DejaVuSans-2e"/>
       <use x="179.199219" xlink:href="#DejaVuSans-35"/>
      </g>
     </g>
    </g>
    <g id="ytick_4">
     <g id="line2d_13">
      <path clip-path="url(#pb1856e4a46)" d="M 55.092813 140.558467 
L 389.892812 140.558467 
" style="fill:none;stroke:#ffffff;stroke-linecap:round;stroke-width:0.8;"/>
     </g>
     <g id="text_14">
      <!-- 0.0 -->
      <g style="fill:#262626;" transform="translate(32.189688 144.357686)scale(0.1 -0.1)">
       <use xlink:href="#DejaVuSans-30"/>
       <use x="63.623047" xlink:href="#DejaVuSans-2e"/>
       <use x="95.410156" xlink:href="#DejaVuSans-30"/>
      </g>
     </g>
    </g>
    <g id="ytick_5">
     <g id="line2d_14">
      <path clip-path="url(#pb1856e4a46)" d="M 55.092813 105.031891 
L 389.892812 105.031891 
" style="fill:none;stroke:#ffffff;stroke-linecap:round;stroke-width:0.8;"/>
     </g>
     <g id="text_15">
      <!-- 0.5 -->
      <g style="fill:#262626;" transform="translate(32.189688 108.83111)scale(0.1 -0.1)">
       <use xlink:href="#DejaVuSans-30"/>
       <use x="63.623047" xlink:href="#DejaVuSans-2e"/>
       <use x="95.410156" xlink:href="#DejaVuSans-35"/>
      </g>
     </g>
    </g>
    <g id="ytick_6">
     <g id="line2d_15">
      <path clip-path="url(#pb1856e4a46)" d="M 55.092813 69.505316 
L 389.892812 69.505316 
" style="fill:none;stroke:#ffffff;stroke-linecap:round;stroke-width:0.8;"/>
     </g>
     <g id="text_16">
      <!-- 1.0 -->
      <g style="fill:#262626;" transform="translate(32.189688 73.304535)scale(0.1 -0.1)">
       <use xlink:href="#DejaVuSans-31"/>
       <use x="63.623047" xlink:href="#DejaVuSans-2e"/>
       <use x="95.410156" xlink:href="#DejaVuSans-30"/>
      </g>
     </g>
    </g>
    <g id="text_17">
     <!-- $y = f(x)$ -->
     <g style="fill:#262626;" transform="translate(17.08 167.5505)rotate(-90)scale(0.13 -0.13)">
      <defs>
       <path d="M 1588 -325 
Q 1188 -997 936 -1164 
Q 684 -1331 294 -1331 
L -159 -1331 
L -63 -850 
L 269 -850 
Q 509 -850 678 -719 
Q 847 -588 1056 -206 
L 1234 128 
L 459 3500 
L 1069 3500 
L 1650 819 
L 3256 3500 
L 3859 3500 
L 1588 -325 
z
" id="DejaVuSans-Oblique-79" transform="scale(0.015625)"/>
       <path d="M 678 2906 
L 4684 2906 
L 4684 2381 
L 678 2381 
L 678 2906 
z
M 678 1631 
L 4684 1631 
L 4684 1100 
L 678 1100 
L 678 1631 
z
" id="DejaVuSans-3d" transform="scale(0.015625)"/>
       <path d="M 3059 4863 
L 2969 4384 
L 2419 4384 
Q 2106 4384 1964 4261 
Q 1822 4138 1753 3809 
L 1691 3500 
L 2638 3500 
L 2553 3053 
L 1606 3053 
L 1013 0 
L 434 0 
L 1031 3053 
L 481 3053 
L 563 3500 
L 1113 3500 
L 1159 3744 
Q 1278 4363 1576 4613 
Q 1875 4863 2516 4863 
L 3059 4863 
z
" id="DejaVuSans-Oblique-66" transform="scale(0.015625)"/>
       <path d="M 1984 4856 
Q 1566 4138 1362 3434 
Q 1159 2731 1159 2009 
Q 1159 1288 1364 580 
Q 1569 -128 1984 -844 
L 1484 -844 
Q 1016 -109 783 600 
Q 550 1309 550 2009 
Q 550 2706 781 3412 
Q 1013 4119 1484 4856 
L 1984 4856 
z
" id="DejaVuSans-28" transform="scale(0.015625)"/>
       <path d="M 513 4856 
L 1013 4856 
Q 1481 4119 1714 3412 
Q 1947 2706 1947 2009 
Q 1947 1309 1714 600 
Q 1481 -109 1013 -844 
L 513 -844 
Q 928 -128 1133 580 
Q 1338 1288 1338 2009 
Q 1338 2731 1133 3434 
Q 928 4138 513 4856 
z
" id="DejaVuSans-29" transform="scale(0.015625)"/>
      </defs>
      <use transform="translate(0 0.015625)" xlink:href="#DejaVuSans-Oblique-79"/>
      <use transform="translate(78.662109 0.015625)" xlink:href="#DejaVuSans-3d"/>
      <use transform="translate(181.933594 0.015625)" xlink:href="#DejaVuSans-Oblique-66"/>
      <use transform="translate(217.138672 0.015625)" xlink:href="#DejaVuSans-28"/>
      <use transform="translate(256.152344 0.015625)" xlink:href="#DejaVuSans-Oblique-78"/>
      <use transform="translate(315.332031 0.015625)" xlink:href="#DejaVuSans-29"/>
     </g>
    </g>
   </g>
   <g id="line2d_16">
    <path clip-path="url(#pb1856e4a46)" d="M 55.092813 68.156915 
L 63.462813 57.305042 
L 71.832812 48.37966 
L 80.202813 45.639136 
L 88.572812 51.934183 
L 96.942813 67.721782 
L 105.312813 90.869358 
L 113.682813 117.324444 
L 122.052813 142.38703 
L 130.422812 162.067541 
L 138.792812 174.004193 
L 147.162813 177.680687 
L 155.532813 174.06671 
L 163.902812 165.051958 
L 172.272812 153.008371 
L 180.642812 140.559023 
L 189.012812 130.3745 
L 197.382812 124.761657 
L 205.752813 124.99532 
L 214.122813 130.633446 
L 222.492812 139.237064 
L 230.862812 146.840678 
L 239.232812 149.194172 
L 247.602812 143.38287 
L 255.972813 129.156783 
L 264.342812 109.33705 
L 272.712812 89.036481 
L 281.082812 73.966702 
L 289.452812 68.531659 
L 297.822812 74.493627 
L 306.192812 90.693433 
L 314.562812 113.788445 
L 322.932812 139.535177 
L 331.302812 164.014977 
L 339.672812 184.400077 
L 348.042812 199.197629 
L 356.412812 208.154905 
L 364.782812 212.036374 
L 373.152812 212.349938 
L 381.522812 210.967477 
L 389.892812 209.582821 
" style="fill:none;stroke:#1f77b4;stroke-linecap:round;stroke-width:1.5;"/>
    <defs>
     <path d="M 0 1.5 
C 0.397805 1.5 0.77937 1.341951 1.06066 1.06066 
C 1.341951 0.77937 1.5 0.397805 1.5 0 
C 1.5 -0.397805 1.341951 -0.77937 1.06066 -1.06066 
C 0.77937 -1.341951 0.397805 -1.5 0 -1.5 
C -0.397805 -1.5 -0.77937 -1.341951 -1.06066 -1.06066 
C -1.341951 -0.77937 -1.5 -0.397805 -1.5 0 
C -1.5 0.397805 -1.341951 0.77937 -1.06066 1.06066 
C -0.77937 1.341951 -0.397805 1.5 0 1.5 
z
" id="m5410a3e99f" style="stroke:#1f77b4;"/>
    </defs>
    <g clip-path="url(#pb1856e4a46)">
     <use style="fill:#1f77b4;stroke:#1f77b4;" x="55.092813" xlink:href="#m5410a3e99f" y="68.156915"/>
     <use style="fill:#1f77b4;stroke:#1f77b4;" x="63.462813" xlink:href="#m5410a3e99f" y="57.305042"/>
     <use style="fill:#1f77b4;stroke:#1f77b4;" x="71.832812" xlink:href="#m5410a3e99f" y="48.37966"/>
     <use style="fill:#1f77b4;stroke:#1f77b4;" x="80.202813" xlink:href="#m5410a3e99f" y="45.639136"/>
     <use style="fill:#1f77b4;stroke:#1f77b4;" x="88.572812" xlink:href="#m5410a3e99f" y="51.934183"/>
     <use style="fill:#1f77b4;stroke:#1f77b4;" x="96.942813" xlink:href="#m5410a3e99f" y="67.721782"/>
     <use style="fill:#1f77b4;stroke:#1f77b4;" x="105.312813" xlink:href="#m5410a3e99f" y="90.869358"/>
     <use style="fill:#1f77b4;stroke:#1f77b4;" x="113.682813" xlink:href="#m5410a3e99f" y="117.324444"/>
     <use style="fill:#1f77b4;stroke:#1f77b4;" x="122.052813" xlink:href="#m5410a3e99f" y="142.38703"/>
     <use style="fill:#1f77b4;stroke:#1f77b4;" x="130.422812" xlink:href="#m5410a3e99f" y="162.067541"/>
     <use style="fill:#1f77b4;stroke:#1f77b4;" x="138.792812" xlink:href="#m5410a3e99f" y="174.004193"/>
     <use style="fill:#1f77b4;stroke:#1f77b4;" x="147.162813" xlink:href="#m5410a3e99f" y="177.680687"/>
     <use style="fill:#1f77b4;stroke:#1f77b4;" x="155.532813" xlink:href="#m5410a3e99f" y="174.06671"/>
     <use style="fill:#1f77b4;stroke:#1f77b4;" x="163.902812" xlink:href="#m5410a3e99f" y="165.051958"/>
     <use style="fill:#1f77b4;stroke:#1f77b4;" x="172.272812" xlink:href="#m5410a3e99f" y="153.008371"/>
     <use style="fill:#1f77b4;stroke:#1f77b4;" x="180.642812" xlink:href="#m5410a3e99f" y="140.559023"/>
     <use style="fill:#1f77b4;stroke:#1f77b4;" x="189.012812" xlink:href="#m5410a3e99f" y="130.3745"/>
     <use style="fill:#1f77b4;stroke:#1f77b4;" x="197.382812" xlink:href="#m5410a3e99f" y="124.761657"/>
     <use style="fill:#1f77b4;stroke:#1f77b4;" x="205.752813" xlink:href="#m5410a3e99f" y="124.99532"/>
     <use style="fill:#1f77b4;stroke:#1f77b4;" x="214.122813" xlink:href="#m5410a3e99f" y="130.633446"/>
     <use style="fill:#1f77b4;stroke:#1f77b4;" x="222.492812" xlink:href="#m5410a3e99f" y="139.237064"/>
     <use style="fill:#1f77b4;stroke:#1f77b4;" x="230.862812" xlink:href="#m5410a3e99f" y="146.840678"/>
     <use style="fill:#1f77b4;stroke:#1f77b4;" x="239.232812" xlink:href="#m5410a3e99f" y="149.194172"/>
     <use style="fill:#1f77b4;stroke:#1f77b4;" x="247.602812" xlink:href="#m5410a3e99f" y="143.38287"/>
     <use style="fill:#1f77b4;stroke:#1f77b4;" x="255.972813" xlink:href="#m5410a3e99f" y="129.156783"/>
     <use style="fill:#1f77b4;stroke:#1f77b4;" x="264.342812" xlink:href="#m5410a3e99f" y="109.33705"/>
     <use style="fill:#1f77b4;stroke:#1f77b4;" x="272.712812" xlink:href="#m5410a3e99f" y="89.036481"/>
     <use style="fill:#1f77b4;stroke:#1f77b4;" x="281.082812" xlink:href="#m5410a3e99f" y="73.966702"/>
     <use style="fill:#1f77b4;stroke:#1f77b4;" x="289.452812" xlink:href="#m5410a3e99f" y="68.531659"/>
     <use style="fill:#1f77b4;stroke:#1f77b4;" x="297.822812" xlink:href="#m5410a3e99f" y="74.493627"/>
     <use style="fill:#1f77b4;stroke:#1f77b4;" x="306.192812" xlink:href="#m5410a3e99f" y="90.693433"/>
     <use style="fill:#1f77b4;stroke:#1f77b4;" x="314.562812" xlink:href="#m5410a3e99f" y="113.788445"/>
     <use style="fill:#1f77b4;stroke:#1f77b4;" x="322.932812" xlink:href="#m5410a3e99f" y="139.535177"/>
     <use style="fill:#1f77b4;stroke:#1f77b4;" x="331.302812" xlink:href="#m5410a3e99f" y="164.014977"/>
     <use style="fill:#1f77b4;stroke:#1f77b4;" x="339.672812" xlink:href="#m5410a3e99f" y="184.400077"/>
     <use style="fill:#1f77b4;stroke:#1f77b4;" x="348.042812" xlink:href="#m5410a3e99f" y="199.197629"/>
     <use style="fill:#1f77b4;stroke:#1f77b4;" x="356.412812" xlink:href="#m5410a3e99f" y="208.154905"/>
     <use style="fill:#1f77b4;stroke:#1f77b4;" x="364.782812" xlink:href="#m5410a3e99f" y="212.036374"/>
     <use style="fill:#1f77b4;stroke:#1f77b4;" x="373.152812" xlink:href="#m5410a3e99f" y="212.349938"/>
     <use style="fill:#1f77b4;stroke:#1f77b4;" x="381.522812" xlink:href="#m5410a3e99f" y="210.967477"/>
     <use style="fill:#1f77b4;stroke:#1f77b4;" x="389.892812" xlink:href="#m5410a3e99f" y="209.582821"/>
    </g>
   </g>
   <g id="line2d_17">
    <path clip-path="url(#pb1856e4a46)" d="M 55.092813 243.311864 
L 63.462813 229.660612 
L 71.832812 213.977529 
L 80.202813 199.416911 
L 88.572812 188.114263 
L 96.942813 180.681315 
L 105.312813 176.385047 
L 113.682813 173.83648 
L 122.052813 171.836141 
L 130.422812 170.002567 
L 138.792812 168.919787 
L 147.162813 169.735333 
L 155.532813 173.372311 
L 163.902812 179.713405 
L 172.272812 187.176848 
L 180.642812 192.971146 
L 189.012812 194.014045 
L 197.382812 188.165257 
L 205.752813 175.228158 
L 214.122813 157.245367 
L 222.492812 137.928579 
L 230.862812 121.464554 
L 239.232812 111.209588 
L 247.602812 108.781319 
L 255.972813 113.804978 
L 264.342812 124.244103 
L 272.712812 137.0467 
L 281.082812 148.853931 
L 289.452812 156.667801 
L 297.822812 158.479008 
L 306.192812 153.80739 
L 314.562812 143.966744 
L 322.932812 131.81746 
L 331.302812 120.940776 
L 339.672812 114.488076 
L 348.042812 114.192705 
L 356.412812 119.978323 
L 364.782812 130.266653 
L 373.152812 142.709209 
L 381.522812 154.907764 
L 389.892812 164.836931 
" style="fill:none;stroke:#ff7f0e;stroke-linecap:round;stroke-width:1.5;"/>
    <defs>
     <path d="M 0 1.5 
C 0.397805 1.5 0.77937 1.341951 1.06066 1.06066 
C 1.341951 0.77937 1.5 0.397805 1.5 0 
C 1.5 -0.397805 1.341951 -0.77937 1.06066 -1.06066 
C 0.77937 -1.341951 0.397805 -1.5 0 -1.5 
C -0.397805 -1.5 -0.77937 -1.341951 -1.06066 -1.06066 
C -1.341951 -0.77937 -1.5 -0.397805 -1.5 0 
C -1.5 0.397805 -1.341951 0.77937 -1.06066 1.06066 
C -0.77937 1.341951 -0.397805 1.5 0 1.5 
z
" id="m5701e016f1" style="stroke:#ff7f0e;"/>
    </defs>
    <g clip-path="url(#pb1856e4a46)">
     <use style="fill:#ff7f0e;stroke:#ff7f0e;" x="55.092813" xlink:href="#m5701e016f1" y="243.311864"/>
     <use style="fill:#ff7f0e;stroke:#ff7f0e;" x="63.462813" xlink:href="#m5701e016f1" y="229.660612"/>
     <use style="fill:#ff7f0e;stroke:#ff7f0e;" x="71.832812" xlink:href="#m5701e016f1" y="213.977529"/>
     <use style="fill:#ff7f0e;stroke:#ff7f0e;" x="80.202813" xlink:href="#m5701e016f1" y="199.416911"/>
     <use style="fill:#ff7f0e;stroke:#ff7f0e;" x="88.572812" xlink:href="#m5701e016f1" y="188.114263"/>
     <use style="fill:#ff7f0e;stroke:#ff7f0e;" x="96.942813" xlink:href="#m5701e016f1" y="180.681315"/>
     <use style="fill:#ff7f0e;stroke:#ff7f0e;" x="105.312813" xlink:href="#m5701e016f1" y="176.385047"/>
     <use style="fill:#ff7f0e;stroke:#ff7f0e;" x="113.682813" xlink:href="#m5701e016f1" y="173.83648"/>
     <use style="fill:#ff7f0e;stroke:#ff7f0e;" x="122.052813" xlink:href="#m5701e016f1" y="171.836141"/>
     <use style="fill:#ff7f0e;stroke:#ff7f0e;" x="130.422812" xlink:href="#m5701e016f1" y="170.002567"/>
     <use style="fill:#ff7f0e;stroke:#ff7f0e;" x="138.792812" xlink:href="#m5701e016f1" y="168.919787"/>
     <use style="fill:#ff7f0e;stroke:#ff7f0e;" x="147.162813" xlink:href="#m5701e016f1" y="169.735333"/>
     <use style="fill:#ff7f0e;stroke:#ff7f0e;" x="155.532813" xlink:href="#m5701e016f1" y="173.372311"/>
     <use style="fill:#ff7f0e;stroke:#ff7f0e;" x="163.902812" xlink:href="#m5701e016f1" y="179.713405"/>
     <use style="fill:#ff7f0e;stroke:#ff7f0e;" x="172.272812" xlink:href="#m5701e016f1" y="187.176848"/>
     <use style="fill:#ff7f0e;stroke:#ff7f0e;" x="180.642812" xlink:href="#m5701e016f1" y="192.971146"/>
     <use style="fill:#ff7f0e;stroke:#ff7f0e;" x="189.012812" xlink:href="#m5701e016f1" y="194.014045"/>
     <use style="fill:#ff7f0e;stroke:#ff7f0e;" x="197.382812" xlink:href="#m5701e016f1" y="188.165257"/>
     <use style="fill:#ff7f0e;stroke:#ff7f0e;" x="205.752813" xlink:href="#m5701e016f1" y="175.228158"/>
     <use style="fill:#ff7f0e;stroke:#ff7f0e;" x="214.122813" xlink:href="#m5701e016f1" y="157.245367"/>
     <use style="fill:#ff7f0e;stroke:#ff7f0e;" x="222.492812" xlink:href="#m5701e016f1" y="137.928579"/>
     <use style="fill:#ff7f0e;stroke:#ff7f0e;" x="230.862812" xlink:href="#m5701e016f1" y="121.464554"/>
     <use style="fill:#ff7f0e;stroke:#ff7f0e;" x="239.232812" xlink:href="#m5701e016f1" y="111.209588"/>
     <use style="fill:#ff7f0e;stroke:#ff7f0e;" x="247.602812" xlink:href="#m5701e016f1" y="108.781319"/>
     <use style="fill:#ff7f0e;stroke:#ff7f0e;" x="255.972813" xlink:href="#m5701e016f1" y="113.804978"/>
     <use style="fill:#ff7f0e;stroke:#ff7f0e;" x="264.342812" xlink:href="#m5701e016f1" y="124.244103"/>
     <use style="fill:#ff7f0e;stroke:#ff7f0e;" x="272.712812" xlink:href="#m5701e016f1" y="137.0467"/>
     <use style="fill:#ff7f0e;stroke:#ff7f0e;" x="281.082812" xlink:href="#m5701e016f1" y="148.853931"/>
     <use style="fill:#ff7f0e;stroke:#ff7f0e;" x="289.452812" xlink:href="#m5701e016f1" y="156.667801"/>
     <use style="fill:#ff7f0e;stroke:#ff7f0e;" x="297.822812" xlink:href="#m5701e016f1" y="158.479008"/>
     <use style="fill:#ff7f0e;stroke:#ff7f0e;" x="306.192812" xlink:href="#m5701e016f1" y="153.80739"/>
     <use style="fill:#ff7f0e;stroke:#ff7f0e;" x="314.562812" xlink:href="#m5701e016f1" y="143.966744"/>
     <use style="fill:#ff7f0e;stroke:#ff7f0e;" x="322.932812" xlink:href="#m5701e016f1" y="131.81746"/>
     <use style="fill:#ff7f0e;stroke:#ff7f0e;" x="331.302812" xlink:href="#m5701e016f1" y="120.940776"/>
     <use style="fill:#ff7f0e;stroke:#ff7f0e;" x="339.672812" xlink:href="#m5701e016f1" y="114.488076"/>
     <use style="fill:#ff7f0e;stroke:#ff7f0e;" x="348.042812" xlink:href="#m5701e016f1" y="114.192705"/>
     <use style="fill:#ff7f0e;stroke:#ff7f0e;" x="356.412812" xlink:href="#m5701e016f1" y="119.978323"/>
     <use style="fill:#ff7f0e;stroke:#ff7f0e;" x="364.782812" xlink:href="#m5701e016f1" y="130.266653"/>
     <use style="fill:#ff7f0e;stroke:#ff7f0e;" x="373.152812" xlink:href="#m5701e016f1" y="142.709209"/>
     <use style="fill:#ff7f0e;stroke:#ff7f0e;" x="381.522812" xlink:href="#m5701e016f1" y="154.907764"/>
     <use style="fill:#ff7f0e;stroke:#ff7f0e;" x="389.892812" xlink:href="#m5701e016f1" y="164.836931"/>
    </g>
   </g>
   <g id="line2d_18">
    <path clip-path="url(#pb1856e4a46)" d="M 55.092813 132.9053 
L 63.462813 117.711558 
L 71.832812 102.108911 
L 80.202813 89.826214 
L 88.572812 84.012865 
L 96.942813 85.990714 
L 105.312813 94.675143 
L 113.682813 107.004437 
L 122.052813 119.234937 
L 130.422812 128.521125 
L 138.792812 134.044367 
L 147.162813 137.169584 
L 155.532813 140.580673 
L 163.902812 146.828962 
L 172.272812 156.98761 
L 180.642812 170.028044 
L 189.012812 183.179322 
L 197.382812 193.076087 
L 205.752813 197.155549 
L 214.122813 194.684547 
L 222.492812 187.01021 
L 230.862812 177.013503 
L 239.232812 168.091348 
L 247.602812 163.122796 
L 255.972813 163.758147 
L 264.342812 170.139298 
L 272.712812 180.985655 
L 281.082812 193.941043 
L 289.452812 206.112686 
L 297.822812 214.738071 
L 306.192812 217.851668 
L 314.562812 214.756428 
L 322.932812 206.12532 
L 331.302812 193.692518 
L 339.672812 179.673363 
L 348.042812 166.169526 
L 356.412812 154.802474 
L 364.782812 146.679335 
L 373.152812 142.604487 
L 381.522812 143.305947 
L 389.892812 149.432098 
" style="fill:none;stroke:#2ca02c;stroke-linecap:round;stroke-width:1.5;"/>
    <defs>
     <path d="M 0 1.5 
C 0.397805 1.5 0.77937 1.341951 1.06066 1.06066 
C 1.341951 0.77937 1.5 0.397805 1.5 0 
C 1.5 -0.397805 1.341951 -0.77937 1.06066 -1.06066 
C 0.77937 -1.341951 0.397805 -1.5 0 -1.5 
C -0.397805 -1.5 -0.77937 -1.341951 -1.06066 -1.06066 
C -1.341951 -0.77937 -1.5 -0.397805 -1.5 0 
C -1.5 0.397805 -1.341951 0.77937 -1.06066 1.06066 
C -0.77937 1.341951 -0.397805 1.5 0 1.5 
z
" id="md24a21b5a1" style="stroke:#2ca02c;"/>
    </defs>
    <g clip-path="url(#pb1856e4a46)">
     <use style="fill:#2ca02c;stroke:#2ca02c;" x="55.092813" xlink:href="#md24a21b5a1" y="132.9053"/>
     <use style="fill:#2ca02c;stroke:#2ca02c;" x="63.462813" xlink:href="#md24a21b5a1" y="117.711558"/>
     <use style="fill:#2ca02c;stroke:#2ca02c;" x="71.832812" xlink:href="#md24a21b5a1" y="102.108911"/>
     <use style="fill:#2ca02c;stroke:#2ca02c;" x="80.202813" xlink:href="#md24a21b5a1" y="89.826214"/>
     <use style="fill:#2ca02c;stroke:#2ca02c;" x="88.572812" xlink:href="#md24a21b5a1" y="84.012865"/>
     <use style="fill:#2ca02c;stroke:#2ca02c;" x="96.942813" xlink:href="#md24a21b5a1" y="85.990714"/>
     <use style="fill:#2ca02c;stroke:#2ca02c;" x="105.312813" xlink:href="#md24a21b5a1" y="94.675143"/>
     <use style="fill:#2ca02c;stroke:#2ca02c;" x="113.682813" xlink:href="#md24a21b5a1" y="107.004437"/>
     <use style="fill:#2ca02c;stroke:#2ca02c;" x="122.052813" xlink:href="#md24a21b5a1" y="119.234937"/>
     <use style="fill:#2ca02c;stroke:#2ca02c;" x="130.422812" xlink:href="#md24a21b5a1" y="128.521125"/>
     <use style="fill:#2ca02c;stroke:#2ca02c;" x="138.792812" xlink:href="#md24a21b5a1" y="134.044367"/>
     <use style="fill:#2ca02c;stroke:#2ca02c;" x="147.162813" xlink:href="#md24a21b5a1" y="137.169584"/>
     <use style="fill:#2ca02c;stroke:#2ca02c;" x="155.532813" xlink:href="#md24a21b5a1" y="140.580673"/>
     <use style="fill:#2ca02c;stroke:#2ca02c;" x="163.902812" xlink:href="#md24a21b5a1" y="146.828962"/>
     <use style="fill:#2ca02c;stroke:#2ca02c;" x="172.272812" xlink:href="#md24a21b5a1" y="156.98761"/>
     <use style="fill:#2ca02c;stroke:#2ca02c;" x="180.642812" xlink:href="#md24a21b5a1" y="170.028044"/>
     <use style="fill:#2ca02c;stroke:#2ca02c;" x="189.012812" xlink:href="#md24a21b5a1" y="183.179322"/>
     <use style="fill:#2ca02c;stroke:#2ca02c;" x="197.382812" xlink:href="#md24a21b5a1" y="193.076087"/>
     <use style="fill:#2ca02c;stroke:#2ca02c;" x="205.752813" xlink:href="#md24a21b5a1" y="197.155549"/>
     <use style="fill:#2ca02c;stroke:#2ca02c;" x="214.122813" xlink:href="#md24a21b5a1" y="194.684547"/>
     <use style="fill:#2ca02c;stroke:#2ca02c;" x="222.492812" xlink:href="#md24a21b5a1" y="187.01021"/>
     <use style="fill:#2ca02c;stroke:#2ca02c;" x="230.862812" xlink:href="#md24a21b5a1" y="177.013503"/>
     <use style="fill:#2ca02c;stroke:#2ca02c;" x="239.232812" xlink:href="#md24a21b5a1" y="168.091348"/>
     <use style="fill:#2ca02c;stroke:#2ca02c;" x="247.602812" xlink:href="#md24a21b5a1" y="163.122796"/>
     <use style="fill:#2ca02c;stroke:#2ca02c;" x="255.972813" xlink:href="#md24a21b5a1" y="163.758147"/>
     <use style="fill:#2ca02c;stroke:#2ca02c;" x="264.342812" xlink:href="#md24a21b5a1" y="170.139298"/>
     <use style="fill:#2ca02c;stroke:#2ca02c;" x="272.712812" xlink:href="#md24a21b5a1" y="180.985655"/>
     <use style="fill:#2ca02c;stroke:#2ca02c;" x="281.082812" xlink:href="#md24a21b5a1" y="193.941043"/>
     <use style="fill:#2ca02c;stroke:#2ca02c;" x="289.452812" xlink:href="#md24a21b5a1" y="206.112686"/>
     <use style="fill:#2ca02c;stroke:#2ca02c;" x="297.822812" xlink:href="#md24a21b5a1" y="214.738071"/>
     <use style="fill:#2ca02c;stroke:#2ca02c;" x="306.192812" xlink:href="#md24a21b5a1" y="217.851668"/>
     <use style="fill:#2ca02c;stroke:#2ca02c;" x="314.562812" xlink:href="#md24a21b5a1" y="214.756428"/>
     <use style="fill:#2ca02c;stroke:#2ca02c;" x="322.932812" xlink:href="#md24a21b5a1" y="206.12532"/>
     <use style="fill:#2ca02c;stroke:#2ca02c;" x="331.302812" xlink:href="#md24a21b5a1" y="193.692518"/>
     <use style="fill:#2ca02c;stroke:#2ca02c;" x="339.672812" xlink:href="#md24a21b5a1" y="179.673363"/>
     <use style="fill:#2ca02c;stroke:#2ca02c;" x="348.042812" xlink:href="#md24a21b5a1" y="166.169526"/>
     <use style="fill:#2ca02c;stroke:#2ca02c;" x="356.412812" xlink:href="#md24a21b5a1" y="154.802474"/>
     <use style="fill:#2ca02c;stroke:#2ca02c;" x="364.782812" xlink:href="#md24a21b5a1" y="146.679335"/>
     <use style="fill:#2ca02c;stroke:#2ca02c;" x="373.152812" xlink:href="#md24a21b5a1" y="142.604487"/>
     <use style="fill:#2ca02c;stroke:#2ca02c;" x="381.522812" xlink:href="#md24a21b5a1" y="143.305947"/>
     <use style="fill:#2ca02c;stroke:#2ca02c;" x="389.892812" xlink:href="#md24a21b5a1" y="149.432098"/>
    </g>
   </g>
   <g id="line2d_19">
    <path clip-path="url(#pb1856e4a46)" d="M 55.092813 198.75214 
L 63.462813 196.117846 
L 71.832812 193.23867 
L 80.202813 191.588209 
L 88.572812 192.249534 
L 96.942813 195.553451 
L 105.312813 200.996172 
L 113.682813 207.409349 
L 122.052813 213.251538 
L 130.422812 216.896293 
L 138.792812 216.869713 
L 147.162813 212.048248 
L 155.532813 201.822786 
L 163.902812 186.210301 
L 172.272812 165.902316 
L 180.642812 142.268907 
L 189.012812 117.329937 
L 197.382812 93.646649 
L 205.752813 74.047396 
L 214.122813 61.160546 
L 222.492812 56.869943 
L 230.862812 61.91122 
L 239.232812 75.778227 
L 247.602812 96.926148 
L 255.972813 123.088984 
L 264.342812 151.517003 
L 272.712812 179.093457 
L 281.082812 202.474223 
L 289.452812 218.449706 
L 297.822812 224.597715 
L 306.192812 220.062563 
L 314.562812 206.114236 
L 322.932812 186.136523 
L 331.302812 164.890421 
L 339.672812 147.214916 
L 348.042812 136.61081 
L 356.412812 134.255899 
L 364.782812 138.850715 
L 373.152812 147.345273 
L 381.522812 156.211801 
L 389.892812 162.701891 
" style="fill:none;stroke:#d62728;stroke-linecap:round;stroke-width:1.5;"/>
    <defs>
     <path d="M 0 1.5 
C 0.397805 1.5 0.77937 1.341951 1.06066 1.06066 
C 1.341951 0.77937 1.5 0.397805 1.5 0 
C 1.5 -0.397805 1.341951 -0.77937 1.06066 -1.06066 
C 0.77937 -1.341951 0.397805 -1.5 0 -1.5 
C -0.397805 -1.5 -0.77937 -1.341951 -1.06066 -1.06066 
C -1.341951 -0.77937 -1.5 -0.397805 -1.5 0 
C -1.5 0.397805 -1.341951 0.77937 -1.06066 1.06066 
C -0.77937 1.341951 -0.397805 1.5 0 1.5 
z
" id="mc329b8ba6e" style="stroke:#d62728;"/>
    </defs>
    <g clip-path="url(#pb1856e4a46)">
     <use style="fill:#d62728;stroke:#d62728;" x="55.092813" xlink:href="#mc329b8ba6e" y="198.75214"/>
     <use style="fill:#d62728;stroke:#d62728;" x="63.462813" xlink:href="#mc329b8ba6e" y="196.117846"/>
     <use style="fill:#d62728;stroke:#d62728;" x="71.832812" xlink:href="#mc329b8ba6e" y="193.23867"/>
     <use style="fill:#d62728;stroke:#d62728;" x="80.202813" xlink:href="#mc329b8ba6e" y="191.588209"/>
     <use style="fill:#d62728;stroke:#d62728;" x="88.572812" xlink:href="#mc329b8ba6e" y="192.249534"/>
     <use style="fill:#d62728;stroke:#d62728;" x="96.942813" xlink:href="#mc329b8ba6e" y="195.553451"/>
     <use style="fill:#d62728;stroke:#d62728;" x="105.312813" xlink:href="#mc329b8ba6e" y="200.996172"/>
     <use style="fill:#d62728;stroke:#d62728;" x="113.682813" xlink:href="#mc329b8ba6e" y="207.409349"/>
     <use style="fill:#d62728;stroke:#d62728;" x="122.052813" xlink:href="#mc329b8ba6e" y="213.251538"/>
     <use style="fill:#d62728;stroke:#d62728;" x="130.422812" xlink:href="#mc329b8ba6e" y="216.896293"/>
     <use style="fill:#d62728;stroke:#d62728;" x="138.792812" xlink:href="#mc329b8ba6e" y="216.869713"/>
     <use style="fill:#d62728;stroke:#d62728;" x="147.162813" xlink:href="#mc329b8ba6e" y="212.048248"/>
     <use style="fill:#d62728;stroke:#d62728;" x="155.532813" xlink:href="#mc329b8ba6e" y="201.822786"/>
     <use style="fill:#d62728;stroke:#d62728;" x="163.902812" xlink:href="#mc329b8ba6e" y="186.210301"/>
     <use style="fill:#d62728;stroke:#d62728;" x="172.272812" xlink:href="#mc329b8ba6e" y="165.902316"/>
     <use style="fill:#d62728;stroke:#d62728;" x="180.642812" xlink:href="#mc329b8ba6e" y="142.268907"/>
     <use style="fill:#d62728;stroke:#d62728;" x="189.012812" xlink:href="#mc329b8ba6e" y="117.329937"/>
     <use style="fill:#d62728;stroke:#d62728;" x="197.382812" xlink:href="#mc329b8ba6e" y="93.646649"/>
     <use style="fill:#d62728;stroke:#d62728;" x="205.752813" xlink:href="#mc329b8ba6e" y="74.047396"/>
     <use style="fill:#d62728;stroke:#d62728;" x="214.122813" xlink:href="#mc329b8ba6e" y="61.160546"/>
     <use style="fill:#d62728;stroke:#d62728;" x="222.492812" xlink:href="#mc329b8ba6e" y="56.869943"/>
     <use style="fill:#d62728;stroke:#d62728;" x="230.862812" xlink:href="#mc329b8ba6e" y="61.91122"/>
     <use style="fill:#d62728;stroke:#d62728;" x="239.232812" xlink:href="#mc329b8ba6e" y="75.778227"/>
     <use style="fill:#d62728;stroke:#d62728;" x="247.602812" xlink:href="#mc329b8ba6e" y="96.926148"/>
     <use style="fill:#d62728;stroke:#d62728;" x="255.972813" xlink:href="#mc329b8ba6e" y="123.088984"/>
     <use style="fill:#d62728;stroke:#d62728;" x="264.342812" xlink:href="#mc329b8ba6e" y="151.517003"/>
     <use style="fill:#d62728;stroke:#d62728;" x="272.712812" xlink:href="#mc329b8ba6e" y="179.093457"/>
     <use style="fill:#d62728;stroke:#d62728;" x="281.082812" xlink:href="#mc329b8ba6e" y="202.474223"/>
     <use style="fill:#d62728;stroke:#d62728;" x="289.452812" xlink:href="#mc329b8ba6e" y="218.449706"/>
     <use style="fill:#d62728;stroke:#d62728;" x="297.822812" xlink:href="#mc329b8ba6e" y="224.597715"/>
     <use style="fill:#d62728;stroke:#d62728;" x="306.192812" xlink:href="#mc329b8ba6e" y="220.062563"/>
     <use style="fill:#d62728;stroke:#d62728;" x="314.562812" xlink:href="#mc329b8ba6e" y="206.114236"/>
     <use style="fill:#d62728;stroke:#d62728;" x="322.932812" xlink:href="#mc329b8ba6e" y="186.136523"/>
     <use style="fill:#d62728;stroke:#d62728;" x="331.302812" xlink:href="#mc329b8ba6e" y="164.890421"/>
     <use style="fill:#d62728;stroke:#d62728;" x="339.672812" xlink:href="#mc329b8ba6e" y="147.214916"/>
     <use style="fill:#d62728;stroke:#d62728;" x="348.042812" xlink:href="#mc329b8ba6e" y="136.61081"/>
     <use style="fill:#d62728;stroke:#d62728;" x="356.412812" xlink:href="#mc329b8ba6e" y="134.255899"/>
     <use style="fill:#d62728;stroke:#d62728;" x="364.782812" xlink:href="#mc329b8ba6e" y="138.850715"/>
     <use style="fill:#d62728;stroke:#d62728;" x="373.152812" xlink:href="#mc329b8ba6e" y="147.345273"/>
     <use style="fill:#d62728;stroke:#d62728;" x="381.522812" xlink:href="#mc329b8ba6e" y="156.211801"/>
     <use style="fill:#d62728;stroke:#d62728;" x="389.892812" xlink:href="#mc329b8ba6e" y="162.701891"/>
    </g>
   </g>
   <g id="line2d_20">
    <path clip-path="url(#pb1856e4a46)" d="M 55.092813 226.122719 
L 63.462813 224.664298 
L 71.832812 224.724043 
L 80.202813 225.583326 
L 88.572812 225.458706 
L 96.942813 221.964901 
L 105.312813 212.838835 
L 113.682813 196.73293 
L 122.052813 173.844454 
L 130.422812 146.169122 
L 138.792812 117.256574 
L 147.162813 91.489903 
L 155.532813 73.069786 
L 163.902812 64.99988 
L 172.272812 68.392269 
L 180.642812 82.31583 
L 189.012812 104.21562 
L 197.382812 130.708225 
L 205.752813 158.409943 
L 214.122813 184.472161 
L 222.492812 206.688651 
L 230.862812 223.308627 
L 239.232812 232.870345 
L 247.602812 234.331892 
L 255.972813 227.518925 
L 264.342812 213.593898 
L 272.712812 195.112298 
L 281.082812 175.409333 
L 289.452812 157.479544 
L 297.822812 142.900771 
L 306.192812 131.428785 
L 314.562812 121.557969 
L 322.932812 111.787474 
L 331.302812 101.892433 
L 339.672812 93.45479 
L 348.042812 89.302761 
L 356.412812 92.120526 
L 364.782812 102.964462 
L 373.152812 120.477988 
L 381.522812 141.198501 
L 389.892812 160.74248 
" style="fill:none;stroke:#9467bd;stroke-linecap:round;stroke-width:1.5;"/>
    <defs>
     <path d="M 0 1.5 
C 0.397805 1.5 0.77937 1.341951 1.06066 1.06066 
C 1.341951 0.77937 1.5 0.397805 1.5 0 
C 1.5 -0.397805 1.341951 -0.77937 1.06066 -1.06066 
C 0.77937 -1.341951 0.397805 -1.5 0 -1.5 
C -0.397805 -1.5 -0.77937 -1.341951 -1.06066 -1.06066 
C -1.341951 -0.77937 -1.5 -0.397805 -1.5 0 
C -1.5 0.397805 -1.341951 0.77937 -1.06066 1.06066 
C -0.77937 1.341951 -0.397805 1.5 0 1.5 
z
" id="m39442f6a66" style="stroke:#9467bd;"/>
    </defs>
    <g clip-path="url(#pb1856e4a46)">
     <use style="fill:#9467bd;stroke:#9467bd;" x="55.092813" xlink:href="#m39442f6a66" y="226.122719"/>
     <use style="fill:#9467bd;stroke:#9467bd;" x="63.462813" xlink:href="#m39442f6a66" y="224.664298"/>
     <use style="fill:#9467bd;stroke:#9467bd;" x="71.832812" xlink:href="#m39442f6a66" y="224.724043"/>
     <use style="fill:#9467bd;stroke:#9467bd;" x="80.202813" xlink:href="#m39442f6a66" y="225.583326"/>
     <use style="fill:#9467bd;stroke:#9467bd;" x="88.572812" xlink:href="#m39442f6a66" y="225.458706"/>
     <use style="fill:#9467bd;stroke:#9467bd;" x="96.942813" xlink:href="#m39442f6a66" y="221.964901"/>
     <use style="fill:#9467bd;stroke:#9467bd;" x="105.312813" xlink:href="#m39442f6a66" y="212.838835"/>
     <use style="fill:#9467bd;stroke:#9467bd;" x="113.682813" xlink:href="#m39442f6a66" y="196.73293"/>
     <use style="fill:#9467bd;stroke:#9467bd;" x="122.052813" xlink:href="#m39442f6a66" y="173.844454"/>
     <use style="fill:#9467bd;stroke:#9467bd;" x="130.422812" xlink:href="#m39442f6a66" y="146.169122"/>
     <use style="fill:#9467bd;stroke:#9467bd;" x="138.792812" xlink:href="#m39442f6a66" y="117.256574"/>
     <use style="fill:#9467bd;stroke:#9467bd;" x="147.162813" xlink:href="#m39442f6a66" y="91.489903"/>
     <use style="fill:#9467bd;stroke:#9467bd;" x="155.532813" xlink:href="#m39442f6a66" y="73.069786"/>
     <use style="fill:#9467bd;stroke:#9467bd;" x="163.902812" xlink:href="#m39442f6a66" y="64.99988"/>
     <use style="fill:#9467bd;stroke:#9467bd;" x="172.272812" xlink:href="#m39442f6a66" y="68.392269"/>
     <use style="fill:#9467bd;stroke:#9467bd;" x="180.642812" xlink:href="#m39442f6a66" y="82.31583"/>
     <use style="fill:#9467bd;stroke:#9467bd;" x="189.012812" xlink:href="#m39442f6a66" y="104.21562"/>
     <use style="fill:#9467bd;stroke:#9467bd;" x="197.382812" xlink:href="#m39442f6a66" y="130.708225"/>
     <use style="fill:#9467bd;stroke:#9467bd;" x="205.752813" xlink:href="#m39442f6a66" y="158.409943"/>
     <use style="fill:#9467bd;stroke:#9467bd;" x="214.122813" xlink:href="#m39442f6a66" y="184.472161"/>
     <use style="fill:#9467bd;stroke:#9467bd;" x="222.492812" xlink:href="#m39442f6a66" y="206.688651"/>
     <use style="fill:#9467bd;stroke:#9467bd;" x="230.862812" xlink:href="#m39442f6a66" y="223.308627"/>
     <use style="fill:#9467bd;stroke:#9467bd;" x="239.232812" xlink:href="#m39442f6a66" y="232.870345"/>
     <use style="fill:#9467bd;stroke:#9467bd;" x="247.602812" xlink:href="#m39442f6a66" y="234.331892"/>
     <use style="fill:#9467bd;stroke:#9467bd;" x="255.972813" xlink:href="#m39442f6a66" y="227.518925"/>
     <use style="fill:#9467bd;stroke:#9467bd;" x="264.342812" xlink:href="#m39442f6a66" y="213.593898"/>
     <use style="fill:#9467bd;stroke:#9467bd;" x="272.712812" xlink:href="#m39442f6a66" y="195.112298"/>
     <use style="fill:#9467bd;stroke:#9467bd;" x="281.082812" xlink:href="#m39442f6a66" y="175.409333"/>
     <use style="fill:#9467bd;stroke:#9467bd;" x="289.452812" xlink:href="#m39442f6a66" y="157.479544"/>
     <use style="fill:#9467bd;stroke:#9467bd;" x="297.822812" xlink:href="#m39442f6a66" y="142.900771"/>
     <use style="fill:#9467bd;stroke:#9467bd;" x="306.192812" xlink:href="#m39442f6a66" y="131.428785"/>
     <use style="fill:#9467bd;stroke:#9467bd;" x="314.562812" xlink:href="#m39442f6a66" y="121.557969"/>
     <use style="fill:#9467bd;stroke:#9467bd;" x="322.932812" xlink:href="#m39442f6a66" y="111.787474"/>
     <use style="fill:#9467bd;stroke:#9467bd;" x="331.302812" xlink:href="#m39442f6a66" y="101.892433"/>
     <use style="fill:#9467bd;stroke:#9467bd;" x="339.672812" xlink:href="#m39442f6a66" y="93.45479"/>
     <use style="fill:#9467bd;stroke:#9467bd;" x="348.042812" xlink:href="#m39442f6a66" y="89.302761"/>
     <use style="fill:#9467bd;stroke:#9467bd;" x="356.412812" xlink:href="#m39442f6a66" y="92.120526"/>
     <use style="fill:#9467bd;stroke:#9467bd;" x="364.782812" xlink:href="#m39442f6a66" y="102.964462"/>
     <use style="fill:#9467bd;stroke:#9467bd;" x="373.152812" xlink:href="#m39442f6a66" y="120.477988"/>
     <use style="fill:#9467bd;stroke:#9467bd;" x="381.522812" xlink:href="#m39442f6a66" y="141.198501"/>
     <use style="fill:#9467bd;stroke:#9467bd;" x="389.892812" xlink:href="#m39442f6a66" y="160.74248"/>
    </g>
   </g>
   <g id="patch_3">
    <path d="M 55.092813 253.1955 
L 55.092813 35.7555 
" style="fill:none;stroke:#ffffff;stroke-linecap:square;stroke-linejoin:miter;stroke-width:0.8;"/>
   </g>
   <g id="patch_4">
    <path d="M 389.892812 253.1955 
L 389.892812 35.7555 
" style="fill:none;stroke:#ffffff;stroke-linecap:square;stroke-linejoin:miter;stroke-width:0.8;"/>
   </g>
   <g id="patch_5">
    <path d="M 55.092813 253.1955 
L 389.892812 253.1955 
" style="fill:none;stroke:#ffffff;stroke-linecap:square;stroke-linejoin:miter;stroke-width:0.8;"/>
   </g>
   <g id="patch_6">
    <path d="M 55.092813 35.7555 
L 389.892812 35.7555 
" style="fill:none;stroke:#ffffff;stroke-linecap:square;stroke-linejoin:miter;stroke-width:0.8;"/>
   </g>
   <g id="text_18">
    <!-- 5 different function realizations at 41 points -->
    <g style="fill:#262626;" transform="translate(90.584688 16.318125)scale(0.12 -0.12)">
     <defs>
      <path id="DejaVuSans-20" transform="scale(0.015625)"/>
      <path d="M 2906 2969 
L 2906 4863 
L 3481 4863 
L 3481 0 
L 2906 0 
L 2906 525 
Q 2725 213 2448 61 
Q 2172 -91 1784 -91 
Q 1150 -91 751 415 
Q 353 922 353 1747 
Q 353 2572 751 3078 
Q 1150 3584 1784 3584 
Q 2172 3584 2448 3432 
Q 2725 3281 2906 2969 
z
M 947 1747 
Q 947 1113 1208 752 
Q 1469 391 1925 391 
Q 2381 391 2643 752 
Q 2906 1113 2906 1747 
Q 2906 2381 2643 2742 
Q 2381 3103 1925 3103 
Q 1469 3103 1208 2742 
Q 947 2381 947 1747 
z
" id="DejaVuSans-64" transform="scale(0.015625)"/>
      <path d="M 603 3500 
L 1178 3500 
L 1178 0 
L 603 0 
L 603 3500 
z
M 603 4863 
L 1178 4863 
L 1178 4134 
L 603 4134 
L 603 4863 
z
" id="DejaVuSans-69" transform="scale(0.015625)"/>
      <path d="M 2375 4863 
L 2375 4384 
L 1825 4384 
Q 1516 4384 1395 4259 
Q 1275 4134 1275 3809 
L 1275 3500 
L 2222 3500 
L 2222 3053 
L 1275 3053 
L 1275 0 
L 697 0 
L 697 3053 
L 147 3053 
L 147 3500 
L 697 3500 
L 697 3744 
Q 697 4328 969 4595 
Q 1241 4863 1831 4863 
L 2375 4863 
z
" id="DejaVuSans-66" transform="scale(0.015625)"/>
      <path d="M 3597 1894 
L 3597 1613 
L 953 1613 
Q 991 1019 1311 708 
Q 1631 397 2203 397 
Q 2534 397 2845 478 
Q 3156 559 3463 722 
L 3463 178 
Q 3153 47 2828 -22 
Q 2503 -91 2169 -91 
Q 1331 -91 842 396 
Q 353 884 353 1716 
Q 353 2575 817 3079 
Q 1281 3584 2069 3584 
Q 2775 3584 3186 3129 
Q 3597 2675 3597 1894 
z
M 3022 2063 
Q 3016 2534 2758 2815 
Q 2500 3097 2075 3097 
Q 1594 3097 1305 2825 
Q 1016 2553 972 2059 
L 3022 2063 
z
" id="DejaVuSans-65" transform="scale(0.015625)"/>
      <path d="M 2631 2963 
Q 2534 3019 2420 3045 
Q 2306 3072 2169 3072 
Q 1681 3072 1420 2755 
Q 1159 2438 1159 1844 
L 1159 0 
L 581 0 
L 581 3500 
L 1159 3500 
L 1159 2956 
Q 1341 3275 1631 3429 
Q 1922 3584 2338 3584 
Q 2397 3584 2469 3576 
Q 2541 3569 2628 3553 
L 2631 2963 
z
" id="DejaVuSans-72" transform="scale(0.015625)"/>
      <path d="M 3513 2113 
L 3513 0 
L 2938 0 
L 2938 2094 
Q 2938 2591 2744 2837 
Q 2550 3084 2163 3084 
Q 1697 3084 1428 2787 
Q 1159 2491 1159 1978 
L 1159 0 
L 581 0 
L 581 3500 
L 1159 3500 
L 1159 2956 
Q 1366 3272 1645 3428 
Q 1925 3584 2291 3584 
Q 2894 3584 3203 3211 
Q 3513 2838 3513 2113 
z
" id="DejaVuSans-6e" transform="scale(0.015625)"/>
      <path d="M 1172 4494 
L 1172 3500 
L 2356 3500 
L 2356 3053 
L 1172 3053 
L 1172 1153 
Q 1172 725 1289 603 
Q 1406 481 1766 481 
L 2356 481 
L 2356 0 
L 1766 0 
Q 1100 0 847 248 
Q 594 497 594 1153 
L 594 3053 
L 172 3053 
L 172 3500 
L 594 3500 
L 594 4494 
L 1172 4494 
z
" id="DejaVuSans-74" transform="scale(0.015625)"/>
      <path d="M 544 1381 
L 544 3500 
L 1119 3500 
L 1119 1403 
Q 1119 906 1312 657 
Q 1506 409 1894 409 
Q 2359 409 2629 706 
Q 2900 1003 2900 1516 
L 2900 3500 
L 3475 3500 
L 3475 0 
L 2900 0 
L 2900 538 
Q 2691 219 2414 64 
Q 2138 -91 1772 -91 
Q 1169 -91 856 284 
Q 544 659 544 1381 
z
M 1991 3584 
L 1991 3584 
z
" id="DejaVuSans-75" transform="scale(0.015625)"/>
      <path d="M 3122 3366 
L 3122 2828 
Q 2878 2963 2633 3030 
Q 2388 3097 2138 3097 
Q 1578 3097 1268 2742 
Q 959 2388 959 1747 
Q 959 1106 1268 751 
Q 1578 397 2138 397 
Q 2388 397 2633 464 
Q 2878 531 3122 666 
L 3122 134 
Q 2881 22 2623 -34 
Q 2366 -91 2075 -91 
Q 1284 -91 818 406 
Q 353 903 353 1747 
Q 353 2603 823 3093 
Q 1294 3584 2113 3584 
Q 2378 3584 2631 3529 
Q 2884 3475 3122 3366 
z
" id="DejaVuSans-63" transform="scale(0.015625)"/>
      <path d="M 1959 3097 
Q 1497 3097 1228 2736 
Q 959 2375 959 1747 
Q 959 1119 1226 758 
Q 1494 397 1959 397 
Q 2419 397 2687 759 
Q 2956 1122 2956 1747 
Q 2956 2369 2687 2733 
Q 2419 3097 1959 3097 
z
M 1959 3584 
Q 2709 3584 3137 3096 
Q 3566 2609 3566 1747 
Q 3566 888 3137 398 
Q 2709 -91 1959 -91 
Q 1206 -91 779 398 
Q 353 888 353 1747 
Q 353 2609 779 3096 
Q 1206 3584 1959 3584 
z
" id="DejaVuSans-6f" transform="scale(0.015625)"/>
      <path d="M 2194 1759 
Q 1497 1759 1228 1600 
Q 959 1441 959 1056 
Q 959 750 1161 570 
Q 1363 391 1709 391 
Q 2188 391 2477 730 
Q 2766 1069 2766 1631 
L 2766 1759 
L 2194 1759 
z
M 3341 1997 
L 3341 0 
L 2766 0 
L 2766 531 
Q 2569 213 2275 61 
Q 1981 -91 1556 -91 
Q 1019 -91 701 211 
Q 384 513 384 1019 
Q 384 1609 779 1909 
Q 1175 2209 1959 2209 
L 2766 2209 
L 2766 2266 
Q 2766 2663 2505 2880 
Q 2244 3097 1772 3097 
Q 1472 3097 1187 3025 
Q 903 2953 641 2809 
L 641 3341 
Q 956 3463 1253 3523 
Q 1550 3584 1831 3584 
Q 2591 3584 2966 3190 
Q 3341 2797 3341 1997 
z
" id="DejaVuSans-61" transform="scale(0.015625)"/>
      <path d="M 603 4863 
L 1178 4863 
L 1178 0 
L 603 0 
L 603 4863 
z
" id="DejaVuSans-6c" transform="scale(0.015625)"/>
      <path d="M 353 3500 
L 3084 3500 
L 3084 2975 
L 922 459 
L 3084 459 
L 3084 0 
L 275 0 
L 275 525 
L 2438 3041 
L 353 3041 
L 353 3500 
z
" id="DejaVuSans-7a" transform="scale(0.015625)"/>
      <path d="M 2834 3397 
L 2834 2853 
Q 2591 2978 2328 3040 
Q 2066 3103 1784 3103 
Q 1356 3103 1142 2972 
Q 928 2841 928 2578 
Q 928 2378 1081 2264 
Q 1234 2150 1697 2047 
L 1894 2003 
Q 2506 1872 2764 1633 
Q 3022 1394 3022 966 
Q 3022 478 2636 193 
Q 2250 -91 1575 -91 
Q 1294 -91 989 -36 
Q 684 19 347 128 
L 347 722 
Q 666 556 975 473 
Q 1284 391 1588 391 
Q 1994 391 2212 530 
Q 2431 669 2431 922 
Q 2431 1156 2273 1281 
Q 2116 1406 1581 1522 
L 1381 1569 
Q 847 1681 609 1914 
Q 372 2147 372 2553 
Q 372 3047 722 3315 
Q 1072 3584 1716 3584 
Q 2034 3584 2315 3537 
Q 2597 3491 2834 3397 
z
" id="DejaVuSans-73" transform="scale(0.015625)"/>
      <path d="M 1159 525 
L 1159 -1331 
L 581 -1331 
L 581 3500 
L 1159 3500 
L 1159 2969 
Q 1341 3281 1617 3432 
Q 1894 3584 2278 3584 
Q 2916 3584 3314 3078 
Q 3713 2572 3713 1747 
Q 3713 922 3314 415 
Q 2916 -91 2278 -91 
Q 1894 -91 1617 61 
Q 1341 213 1159 525 
z
M 3116 1747 
Q 3116 2381 2855 2742 
Q 2594 3103 2138 3103 
Q 1681 3103 1420 2742 
Q 1159 2381 1159 1747 
Q 1159 1113 1420 752 
Q 1681 391 2138 391 
Q 2594 391 2855 752 
Q 3116 1113 3116 1747 
z
" id="DejaVuSans-70" transform="scale(0.015625)"/>
     </defs>
     <use xlink:href="#DejaVuSans-35"/>
     <use x="63.623047" xlink:href="#DejaVuSans-20"/>
     <use x="95.410156" xlink:href="#DejaVuSans-64"/>
     <use x="158.886719" xlink:href="#DejaVuSans-69"/>
     <use x="186.669922" xlink:href="#DejaVuSans-66"/>
     <use x="221.875" xlink:href="#DejaVuSans-66"/>
     <use x="257.080078" xlink:href="#DejaVuSans-65"/>
     <use x="318.603516" xlink:href="#DejaVuSans-72"/>
     <use x="357.466797" xlink:href="#DejaVuSans-65"/>
     <use x="418.990234" xlink:href="#DejaVuSans-6e"/>
     <use x="482.369141" xlink:href="#DejaVuSans-74"/>
     <use x="521.578125" xlink:href="#DejaVuSans-20"/>
     <use x="553.365234" xlink:href="#DejaVuSans-66"/>
     <use x="588.570312" xlink:href="#DejaVuSans-75"/>
     <use x="651.949219" xlink:href="#DejaVuSans-6e"/>
     <use x="715.328125" xlink:href="#DejaVuSans-63"/>
     <use x="770.308594" xlink:href="#DejaVuSans-74"/>
     <use x="809.517578" xlink:href="#DejaVuSans-69"/>
     <use x="837.300781" xlink:href="#DejaVuSans-6f"/>
     <use x="898.482422" xlink:href="#DejaVuSans-6e"/>
     <use x="961.861328" xlink:href="#DejaVuSans-20"/>
     <use x="993.648438" xlink:href="#DejaVuSans-72"/>
     <use x="1032.511719" xlink:href="#DejaVuSans-65"/>
     <use x="1094.035156" xlink:href="#DejaVuSans-61"/>
     <use x="1155.314453" xlink:href="#DejaVuSans-6c"/>
     <use x="1183.097656" xlink:href="#DejaVuSans-69"/>
     <use x="1210.880859" xlink:href="#DejaVuSans-7a"/>
     <use x="1263.371094" xlink:href="#DejaVuSans-61"/>
     <use x="1324.650391" xlink:href="#DejaVuSans-74"/>
     <use x="1363.859375" xlink:href="#DejaVuSans-69"/>
     <use x="1391.642578" xlink:href="#DejaVuSans-6f"/>
     <use x="1452.824219" xlink:href="#DejaVuSans-6e"/>
     <use x="1516.203125" xlink:href="#DejaVuSans-73"/>
     <use x="1568.302734" xlink:href="#DejaVuSans-20"/>
     <use x="1600.089844" xlink:href="#DejaVuSans-61"/>
     <use x="1661.369141" xlink:href="#DejaVuSans-74"/>
     <use x="1700.578125" xlink:href="#DejaVuSans-20"/>
     <use x="1732.365234" xlink:href="#DejaVuSans-34"/>
     <use x="1795.988281" xlink:href="#DejaVuSans-31"/>
     <use x="1859.611328" xlink:href="#DejaVuSans-20"/>
     <use x="1891.398438" xlink:href="#DejaVuSans-70"/>
     <use x="1954.875" xlink:href="#DejaVuSans-6f"/>
     <use x="2016.056641" xlink:href="#DejaVuSans-69"/>
     <use x="2043.839844" xlink:href="#DejaVuSans-6e"/>
     <use x="2107.21875" xlink:href="#DejaVuSans-74"/>
     <use x="2146.427734" xlink:href="#DejaVuSans-73"/>
    </g>
    <!-- sampled from a Gaussian process with exponentiated quadratic kernel -->
    <g style="fill:#262626;" transform="translate(10.174375 29.7555)scale(0.12 -0.12)">
     <defs>
      <path d="M 3328 2828 
Q 3544 3216 3844 3400 
Q 4144 3584 4550 3584 
Q 5097 3584 5394 3201 
Q 5691 2819 5691 2113 
L 5691 0 
L 5113 0 
L 5113 2094 
Q 5113 2597 4934 2840 
Q 4756 3084 4391 3084 
Q 3944 3084 3684 2787 
Q 3425 2491 3425 1978 
L 3425 0 
L 2847 0 
L 2847 2094 
Q 2847 2600 2669 2842 
Q 2491 3084 2119 3084 
Q 1678 3084 1418 2786 
Q 1159 2488 1159 1978 
L 1159 0 
L 581 0 
L 581 3500 
L 1159 3500 
L 1159 2956 
Q 1356 3278 1631 3431 
Q 1906 3584 2284 3584 
Q 2666 3584 2933 3390 
Q 3200 3197 3328 2828 
z
" id="DejaVuSans-6d" transform="scale(0.015625)"/>
      <path d="M 3809 666 
L 3809 1919 
L 2778 1919 
L 2778 2438 
L 4434 2438 
L 4434 434 
Q 4069 175 3628 42 
Q 3188 -91 2688 -91 
Q 1594 -91 976 548 
Q 359 1188 359 2328 
Q 359 3472 976 4111 
Q 1594 4750 2688 4750 
Q 3144 4750 3555 4637 
Q 3966 4525 4313 4306 
L 4313 3634 
Q 3963 3931 3569 4081 
Q 3175 4231 2741 4231 
Q 1884 4231 1454 3753 
Q 1025 3275 1025 2328 
Q 1025 1384 1454 906 
Q 1884 428 2741 428 
Q 3075 428 3337 486 
Q 3600 544 3809 666 
z
" id="DejaVuSans-47" transform="scale(0.015625)"/>
      <path d="M 269 3500 
L 844 3500 
L 1563 769 
L 2278 3500 
L 2956 3500 
L 3675 769 
L 4391 3500 
L 4966 3500 
L 4050 0 
L 3372 0 
L 2619 2869 
L 1863 0 
L 1184 0 
L 269 3500 
z
" id="DejaVuSans-77" transform="scale(0.015625)"/>
      <path d="M 3513 2113 
L 3513 0 
L 2938 0 
L 2938 2094 
Q 2938 2591 2744 2837 
Q 2550 3084 2163 3084 
Q 1697 3084 1428 2787 
Q 1159 2491 1159 1978 
L 1159 0 
L 581 0 
L 581 4863 
L 1159 4863 
L 1159 2956 
Q 1366 3272 1645 3428 
Q 1925 3584 2291 3584 
Q 2894 3584 3203 3211 
Q 3513 2838 3513 2113 
z
" id="DejaVuSans-68" transform="scale(0.015625)"/>
      <path d="M 3513 3500 
L 2247 1797 
L 3578 0 
L 2900 0 
L 1881 1375 
L 863 0 
L 184 0 
L 1544 1831 
L 300 3500 
L 978 3500 
L 1906 2253 
L 2834 3500 
L 3513 3500 
z
" id="DejaVuSans-78" transform="scale(0.015625)"/>
      <path d="M 947 1747 
Q 947 1113 1208 752 
Q 1469 391 1925 391 
Q 2381 391 2643 752 
Q 2906 1113 2906 1747 
Q 2906 2381 2643 2742 
Q 2381 3103 1925 3103 
Q 1469 3103 1208 2742 
Q 947 2381 947 1747 
z
M 2906 525 
Q 2725 213 2448 61 
Q 2172 -91 1784 -91 
Q 1150 -91 751 415 
Q 353 922 353 1747 
Q 353 2572 751 3078 
Q 1150 3584 1784 3584 
Q 2172 3584 2448 3432 
Q 2725 3281 2906 2969 
L 2906 3500 
L 3481 3500 
L 3481 -1331 
L 2906 -1331 
L 2906 525 
z
" id="DejaVuSans-71" transform="scale(0.015625)"/>
      <path d="M 581 4863 
L 1159 4863 
L 1159 1991 
L 2875 3500 
L 3609 3500 
L 1753 1863 
L 3688 0 
L 2938 0 
L 1159 1709 
L 1159 0 
L 581 0 
L 581 4863 
z
" id="DejaVuSans-6b" transform="scale(0.015625)"/>
     </defs>
     <use xlink:href="#DejaVuSans-73"/>
     <use x="52.099609" xlink:href="#DejaVuSans-61"/>
     <use x="113.378906" xlink:href="#DejaVuSans-6d"/>
     <use x="210.791016" xlink:href="#DejaVuSans-70"/>
     <use x="274.267578" xlink:href="#DejaVuSans-6c"/>
     <use x="302.050781" xlink:href="#DejaVuSans-65"/>
     <use x="363.574219" xlink:href="#DejaVuSans-64"/>
     <use x="427.050781" xlink:href="#DejaVuSans-20"/>
     <use x="458.837891" xlink:href="#DejaVuSans-66"/>
     <use x="494.042969" xlink:href="#DejaVuSans-72"/>
     <use x="532.90625" xlink:href="#DejaVuSans-6f"/>
     <use x="594.087891" xlink:href="#DejaVuSans-6d"/>
     <use x="691.5" xlink:href="#DejaVuSans-20"/>
     <use x="723.287109" xlink:href="#DejaVuSans-61"/>
     <use x="784.566406" xlink:href="#DejaVuSans-20"/>
     <use x="816.353516" xlink:href="#DejaVuSans-47"/>
     <use x="893.84375" xlink:href="#DejaVuSans-61"/>
     <use x="955.123047" xlink:href="#DejaVuSans-75"/>
     <use x="1018.501953" xlink:href="#DejaVuSans-73"/>
     <use x="1070.601562" xlink:href="#DejaVuSans-73"/>
     <use x="1122.701172" xlink:href="#DejaVuSans-69"/>
     <use x="1150.484375" xlink:href="#DejaVuSans-61"/>
     <use x="1211.763672" xlink:href="#DejaVuSans-6e"/>
     <use x="1275.142578" xlink:href="#DejaVuSans-20"/>
     <use x="1306.929688" xlink:href="#DejaVuSans-70"/>
     <use x="1370.40625" xlink:href="#DejaVuSans-72"/>
     <use x="1409.269531" xlink:href="#DejaVuSans-6f"/>
     <use x="1470.451172" xlink:href="#DejaVuSans-63"/>
     <use x="1525.431641" xlink:href="#DejaVuSans-65"/>
     <use x="1586.955078" xlink:href="#DejaVuSans-73"/>
     <use x="1639.054688" xlink:href="#DejaVuSans-73"/>
     <use x="1691.154297" xlink:href="#DejaVuSans-20"/>
     <use x="1722.941406" xlink:href="#DejaVuSans-77"/>
     <use x="1804.728516" xlink:href="#DejaVuSans-69"/>
     <use x="1832.511719" xlink:href="#DejaVuSans-74"/>
     <use x="1871.720703" xlink:href="#DejaVuSans-68"/>
     <use x="1935.099609" xlink:href="#DejaVuSans-20"/>
     <use x="1966.886719" xlink:href="#DejaVuSans-65"/>
     <use x="2026.660156" xlink:href="#DejaVuSans-78"/>
     <use x="2085.839844" xlink:href="#DejaVuSans-70"/>
     <use x="2149.316406" xlink:href="#DejaVuSans-6f"/>
     <use x="2210.498047" xlink:href="#DejaVuSans-6e"/>
     <use x="2273.876953" xlink:href="#DejaVuSans-65"/>
     <use x="2335.400391" xlink:href="#DejaVuSans-6e"/>
     <use x="2398.779297" xlink:href="#DejaVuSans-74"/>
     <use x="2437.988281" xlink:href="#DejaVuSans-69"/>
     <use x="2465.771484" xlink:href="#DejaVuSans-61"/>
     <use x="2527.050781" xlink:href="#DejaVuSans-74"/>
     <use x="2566.259766" xlink:href="#DejaVuSans-65"/>
     <use x="2627.783203" xlink:href="#DejaVuSans-64"/>
     <use x="2691.259766" xlink:href="#DejaVuSans-20"/>
     <use x="2723.046875" xlink:href="#DejaVuSans-71"/>
     <use x="2786.523438" xlink:href="#DejaVuSans-75"/>
     <use x="2849.902344" xlink:href="#DejaVuSans-61"/>
     <use x="2911.181641" xlink:href="#DejaVuSans-64"/>
     <use x="2974.658203" xlink:href="#DejaVuSans-72"/>
     <use x="3015.771484" xlink:href="#DejaVuSans-61"/>
     <use x="3077.050781" xlink:href="#DejaVuSans-74"/>
     <use x="3116.259766" xlink:href="#DejaVuSans-69"/>
     <use x="3144.042969" xlink:href="#DejaVuSans-63"/>
     <use x="3199.023438" xlink:href="#DejaVuSans-20"/>
     <use x="3230.810547" xlink:href="#DejaVuSans-6b"/>
     <use x="3285.095703" xlink:href="#DejaVuSans-65"/>
     <use x="3346.619141" xlink:href="#DejaVuSans-72"/>
     <use x="3385.982422" xlink:href="#DejaVuSans-6e"/>
     <use x="3449.361328" xlink:href="#DejaVuSans-65"/>
     <use x="3510.884766" xlink:href="#DejaVuSans-6c"/>
    </g>
   </g>
  </g>
 </g>
 <defs>
  <clipPath id="pb1856e4a46">
   <rect height="217.44" width="334.8" x="55.092813" y="35.7555"/>
  </clipPath>
 </defs>
</svg>
