<?xml version="1.0" encoding="utf-8" standalone="no"?>
<!DOCTYPE svg PUBLIC "-//W3C//DTD SVG 1.1//EN"
  "http://www.w3.org/Graphics/SVG/1.1/DTD/svg11.dtd">
<svg height="275.615188pt" version="1.1" viewBox="0 0 420.331875 275.615188" width="420.331875pt" xmlns="http://www.w3.org/2000/svg" xmlns:xlink="http://www.w3.org/1999/xlink">
 <metadata>
  <rdf:RDF xmlns:cc="http://creativecommons.org/ns#" xmlns:dc="http://purl.org/dc/elements/1.1/" xmlns:rdf="http://www.w3.org/1999/02/22-rdf-syntax-ns#">
   <cc:Work>
    <dc:type rdf:resource="http://purl.org/dc/dcmitype/StillImage"/>
    <dc:date>2021-08-27T09:42:16.912230</dc:date>
    <dc:format>image/svg+xml</dc:format>
    <dc:creator>
     <cc:Agent>
      <dc:title>Matplotlib v3.4.3, https://matplotlib.org/</dc:title>
     </cc:Agent>
    </dc:creator>
   </cc:Work>
  </rdf:RDF>
 </metadata>
 <defs>
  <style type="text/css">*{stroke-linecap:butt;stroke-linejoin:round;}</style>
 </defs>
 <g id="figure_1">
  <g id="patch_1">
   <path d="M 0 275.615188 
L 420.331875 275.615188 
L 420.331875 0 
L 0 0 
z
" style="fill:#ffffff;"/>
  </g>
  <g id="axes_1">
   <g id="patch_2">
    <path d="M 55.092813 235.1555 
L 405.180313 235.1555 
L 405.180313 35.7555 
L 55.092813 35.7555 
z
" style="fill:#eaeaf2;"/>
   </g>
   <g id="matplotlib.axis_1">
    <g id="xtick_1">
     <g id="line2d_1">
      <path clip-path="url(#p4ca8c7d1f3)" d="M 55.092813 235.1555 
L 55.092813 35.7555 
" style="fill:none;stroke:#ffffff;stroke-linecap:round;stroke-width:0.8;"/>
     </g>
     <g id="text_1">
      <!-- 0.0 -->
      <g style="fill:#262626;" transform="translate(47.14125 249.753938)scale(0.1 -0.1)">
       <defs>
        <path d="M 2034 4250 
Q 1547 4250 1301 3770 
Q 1056 3291 1056 2328 
Q 1056 1369 1301 889 
Q 1547 409 2034 409 
Q 2525 409 2770 889 
Q 3016 1369 3016 2328 
Q 3016 3291 2770 3770 
Q 2525 4250 2034 4250 
z
M 2034 4750 
Q 2819 4750 3233 4129 
Q 3647 3509 3647 2328 
Q 3647 1150 3233 529 
Q 2819 -91 2034 -91 
Q 1250 -91 836 529 
Q 422 1150 422 2328 
Q 422 3509 836 4129 
Q 1250 4750 2034 4750 
z
" id="DejaVuSans-30" transform="scale(0.015625)"/>
        <path d="M 684 794 
L 1344 794 
L 1344 0 
L 684 0 
L 684 794 
z
" id="DejaVuSans-2e" transform="scale(0.015625)"/>
       </defs>
       <use xlink:href="#DejaVuSans-30"/>
       <use x="63.623047" xlink:href="#DejaVuSans-2e"/>
       <use x="95.410156" xlink:href="#DejaVuSans-30"/>
      </g>
     </g>
    </g>
    <g id="xtick_2">
     <g id="line2d_2">
      <path clip-path="url(#p4ca8c7d1f3)" d="M 125.110313 235.1555 
L 125.110313 35.7555 
" style="fill:none;stroke:#ffffff;stroke-linecap:round;stroke-width:0.8;"/>
     </g>
     <g id="text_2">
      <!-- 0.2 -->
      <g style="fill:#262626;" transform="translate(117.15875 249.753938)scale(0.1 -0.1)">
       <defs>
        <path d="M 1228 531 
L 3431 531 
L 3431 0 
L 469 0 
L 469 531 
Q 828 903 1448 1529 
Q 2069 2156 2228 2338 
Q 2531 2678 2651 2914 
Q 2772 3150 2772 3378 
Q 2772 3750 2511 3984 
Q 2250 4219 1831 4219 
Q 1534 4219 1204 4116 
Q 875 4013 500 3803 
L 500 4441 
Q 881 4594 1212 4672 
Q 1544 4750 1819 4750 
Q 2544 4750 2975 4387 
Q 3406 4025 3406 3419 
Q 3406 3131 3298 2873 
Q 3191 2616 2906 2266 
Q 2828 2175 2409 1742 
Q 1991 1309 1228 531 
z
" id="DejaVuSans-32" transform="scale(0.015625)"/>
       </defs>
       <use xlink:href="#DejaVuSans-30"/>
       <use x="63.623047" xlink:href="#DejaVuSans-2e"/>
       <use x="95.410156" xlink:href="#DejaVuSans-32"/>
      </g>
     </g>
    </g>
    <g id="xtick_3">
     <g id="line2d_3">
      <path clip-path="url(#p4ca8c7d1f3)" d="M 195.127813 235.1555 
L 195.127813 35.7555 
" style="fill:none;stroke:#ffffff;stroke-linecap:round;stroke-width:0.8;"/>
     </g>
     <g id="text_3">
      <!-- 0.4 -->
      <g style="fill:#262626;" transform="translate(187.17625 249.753938)scale(0.1 -0.1)">
       <defs>
        <path d="M 2419 4116 
L 825 1625 
L 2419 1625 
L 2419 4116 
z
M 2253 4666 
L 3047 4666 
L 3047 1625 
L 3713 1625 
L 3713 1100 
L 3047 1100 
L 3047 0 
L 2419 0 
L 2419 1100 
L 313 1100 
L 313 1709 
L 2253 4666 
z
" id="DejaVuSans-34" transform="scale(0.015625)"/>
       </defs>
       <use xlink:href="#DejaVuSans-30"/>
       <use x="63.623047" xlink:href="#DejaVuSans-2e"/>
       <use x="95.410156" xlink:href="#DejaVuSans-34"/>
      </g>
     </g>
    </g>
    <g id="xtick_4">
     <g id="line2d_4">
      <path clip-path="url(#p4ca8c7d1f3)" d="M 265.145313 235.1555 
L 265.145313 35.7555 
" style="fill:none;stroke:#ffffff;stroke-linecap:round;stroke-width:0.8;"/>
     </g>
     <g id="text_4">
      <!-- 0.6 -->
      <g style="fill:#262626;" transform="translate(257.19375 249.753938)scale(0.1 -0.1)">
       <defs>
        <path d="M 2113 2584 
Q 1688 2584 1439 2293 
Q 1191 2003 1191 1497 
Q 1191 994 1439 701 
Q 1688 409 2113 409 
Q 2538 409 2786 701 
Q 3034 994 3034 1497 
Q 3034 2003 2786 2293 
Q 2538 2584 2113 2584 
z
M 3366 4563 
L 3366 3988 
Q 3128 4100 2886 4159 
Q 2644 4219 2406 4219 
Q 1781 4219 1451 3797 
Q 1122 3375 1075 2522 
Q 1259 2794 1537 2939 
Q 1816 3084 2150 3084 
Q 2853 3084 3261 2657 
Q 3669 2231 3669 1497 
Q 3669 778 3244 343 
Q 2819 -91 2113 -91 
Q 1303 -91 875 529 
Q 447 1150 447 2328 
Q 447 3434 972 4092 
Q 1497 4750 2381 4750 
Q 2619 4750 2861 4703 
Q 3103 4656 3366 4563 
z
" id="DejaVuSans-36" transform="scale(0.015625)"/>
       </defs>
       <use xlink:href="#DejaVuSans-30"/>
       <use x="63.623047" xlink:href="#DejaVuSans-2e"/>
       <use x="95.410156" xlink:href="#DejaVuSans-36"/>
      </g>
     </g>
    </g>
    <g id="xtick_5">
     <g id="line2d_5">
      <path clip-path="url(#p4ca8c7d1f3)" d="M 335.162812 235.1555 
L 335.162812 35.7555 
" style="fill:none;stroke:#ffffff;stroke-linecap:round;stroke-width:0.8;"/>
     </g>
     <g id="text_5">
      <!-- 0.8 -->
      <g style="fill:#262626;" transform="translate(327.21125 249.753938)scale(0.1 -0.1)">
       <defs>
        <path d="M 2034 2216 
Q 1584 2216 1326 1975 
Q 1069 1734 1069 1313 
Q 1069 891 1326 650 
Q 1584 409 2034 409 
Q 2484 409 2743 651 
Q 3003 894 3003 1313 
Q 3003 1734 2745 1975 
Q 2488 2216 2034 2216 
z
M 1403 2484 
Q 997 2584 770 2862 
Q 544 3141 544 3541 
Q 544 4100 942 4425 
Q 1341 4750 2034 4750 
Q 2731 4750 3128 4425 
Q 3525 4100 3525 3541 
Q 3525 3141 3298 2862 
Q 3072 2584 2669 2484 
Q 3125 2378 3379 2068 
Q 3634 1759 3634 1313 
Q 3634 634 3220 271 
Q 2806 -91 2034 -91 
Q 1263 -91 848 271 
Q 434 634 434 1313 
Q 434 1759 690 2068 
Q 947 2378 1403 2484 
z
M 1172 3481 
Q 1172 3119 1398 2916 
Q 1625 2713 2034 2713 
Q 2441 2713 2670 2916 
Q 2900 3119 2900 3481 
Q 2900 3844 2670 4047 
Q 2441 4250 2034 4250 
Q 1625 4250 1398 4047 
Q 1172 3844 1172 3481 
z
" id="DejaVuSans-38" transform="scale(0.015625)"/>
       </defs>
       <use xlink:href="#DejaVuSans-30"/>
       <use x="63.623047" xlink:href="#DejaVuSans-2e"/>
       <use x="95.410156" xlink:href="#DejaVuSans-38"/>
      </g>
     </g>
    </g>
    <g id="xtick_6">
     <g id="line2d_6">
      <path clip-path="url(#p4ca8c7d1f3)" d="M 405.180313 235.1555 
L 405.180313 35.7555 
" style="fill:none;stroke:#ffffff;stroke-linecap:round;stroke-width:0.8;"/>
     </g>
     <g id="text_6">
      <!-- 1.0 -->
      <g style="fill:#262626;" transform="translate(397.22875 249.753938)scale(0.1 -0.1)">
       <defs>
        <path d="M 794 531 
L 1825 531 
L 1825 4091 
L 703 3866 
L 703 4441 
L 1819 4666 
L 2450 4666 
L 2450 531 
L 3481 531 
L 3481 0 
L 794 0 
L 794 531 
z
" id="DejaVuSans-31" transform="scale(0.015625)"/>
       </defs>
       <use xlink:href="#DejaVuSans-31"/>
       <use x="63.623047" xlink:href="#DejaVuSans-2e"/>
       <use x="95.410156" xlink:href="#DejaVuSans-30"/>
      </g>
     </g>
    </g>
    <g id="text_7">
     <!-- $t$ (time) -->
     <g style="fill:#262626;" transform="translate(205.761562 265.711594)scale(0.13 -0.13)">
      <defs>
       <path d="M 2706 3500 
L 2619 3053 
L 1472 3053 
L 1100 1153 
Q 1081 1047 1072 975 
Q 1063 903 1063 863 
Q 1063 663 1183 572 
Q 1303 481 1569 481 
L 2150 481 
L 2053 0 
L 1503 0 
Q 991 0 739 200 
Q 488 400 488 806 
Q 488 878 497 964 
Q 506 1050 525 1153 
L 897 3053 
L 409 3053 
L 500 3500 
L 978 3500 
L 1172 4494 
L 1747 4494 
L 1556 3500 
L 2706 3500 
z
" id="DejaVuSans-Oblique-74" transform="scale(0.015625)"/>
       <path id="DejaVuSans-20" transform="scale(0.015625)"/>
       <path d="M 1984 4856 
Q 1566 4138 1362 3434 
Q 1159 2731 1159 2009 
Q 1159 1288 1364 580 
Q 1569 -128 1984 -844 
L 1484 -844 
Q 1016 -109 783 600 
Q 550 1309 550 2009 
Q 550 2706 781 3412 
Q 1013 4119 1484 4856 
L 1984 4856 
z
" id="DejaVuSans-28" transform="scale(0.015625)"/>
       <path d="M 1172 4494 
L 1172 3500 
L 2356 3500 
L 2356 3053 
L 1172 3053 
L 1172 1153 
Q 1172 725 1289 603 
Q 1406 481 1766 481 
L 2356 481 
L 2356 0 
L 1766 0 
Q 1100 0 847 248 
Q 594 497 594 1153 
L 594 3053 
L 172 3053 
L 172 3500 
L 594 3500 
L 594 4494 
L 1172 4494 
z
" id="DejaVuSans-74" transform="scale(0.015625)"/>
       <path d="M 603 3500 
L 1178 3500 
L 1178 0 
L 603 0 
L 603 3500 
z
M 603 4863 
L 1178 4863 
L 1178 4134 
L 603 4134 
L 603 4863 
z
" id="DejaVuSans-69" transform="scale(0.015625)"/>
       <path d="M 3328 2828 
Q 3544 3216 3844 3400 
Q 4144 3584 4550 3584 
Q 5097 3584 5394 3201 
Q 5691 2819 5691 2113 
L 5691 0 
L 5113 0 
L 5113 2094 
Q 5113 2597 4934 2840 
Q 4756 3084 4391 3084 
Q 3944 3084 3684 2787 
Q 3425 2491 3425 1978 
L 3425 0 
L 2847 0 
L 2847 2094 
Q 2847 2600 2669 2842 
Q 2491 3084 2119 3084 
Q 1678 3084 1418 2786 
Q 1159 2488 1159 1978 
L 1159 0 
L 581 0 
L 581 3500 
L 1159 3500 
L 1159 2956 
Q 1356 3278 1631 3431 
Q 1906 3584 2284 3584 
Q 2666 3584 2933 3390 
Q 3200 3197 3328 2828 
z
" id="DejaVuSans-6d" transform="scale(0.015625)"/>
       <path d="M 3597 1894 
L 3597 1613 
L 953 1613 
Q 991 1019 1311 708 
Q 1631 397 2203 397 
Q 2534 397 2845 478 
Q 3156 559 3463 722 
L 3463 178 
Q 3153 47 2828 -22 
Q 2503 -91 2169 -91 
Q 1331 -91 842 396 
Q 353 884 353 1716 
Q 353 2575 817 3079 
Q 1281 3584 2069 3584 
Q 2775 3584 3186 3129 
Q 3597 2675 3597 1894 
z
M 3022 2063 
Q 3016 2534 2758 2815 
Q 2500 3097 2075 3097 
Q 1594 3097 1305 2825 
Q 1016 2553 972 2059 
L 3022 2063 
z
" id="DejaVuSans-65" transform="scale(0.015625)"/>
       <path d="M 513 4856 
L 1013 4856 
Q 1481 4119 1714 3412 
Q 1947 2706 1947 2009 
Q 1947 1309 1714 600 
Q 1481 -109 1013 -844 
L 513 -844 
Q 928 -128 1133 580 
Q 1338 1288 1338 2009 
Q 1338 2731 1133 3434 
Q 928 4138 513 4856 
z
" id="DejaVuSans-29" transform="scale(0.015625)"/>
      </defs>
      <use transform="translate(0 0.015625)" xlink:href="#DejaVuSans-Oblique-74"/>
      <use transform="translate(39.208984 0.015625)" xlink:href="#DejaVuSans-20"/>
      <use transform="translate(70.996094 0.015625)" xlink:href="#DejaVuSans-28"/>
      <use transform="translate(110.009766 0.015625)" xlink:href="#DejaVuSans-74"/>
      <use transform="translate(149.21875 0.015625)" xlink:href="#DejaVuSans-69"/>
      <use transform="translate(177.001953 0.015625)" xlink:href="#DejaVuSans-6d"/>
      <use transform="translate(274.414062 0.015625)" xlink:href="#DejaVuSans-65"/>
      <use transform="translate(335.9375 0.015625)" xlink:href="#DejaVuSans-29"/>
     </g>
    </g>
   </g>
   <g id="matplotlib.axis_2">
    <g id="ytick_1">
     <g id="line2d_7">
      <path clip-path="url(#p4ca8c7d1f3)" d="M 55.092813 219.956974 
L 405.180313 219.956974 
" style="fill:none;stroke:#ffffff;stroke-linecap:round;stroke-width:0.8;"/>
     </g>
     <g id="text_8">
      <!-- −1.5 -->
      <g style="fill:#262626;" transform="translate(23.81 223.756193)scale(0.1 -0.1)">
       <defs>
        <path d="M 678 2272 
L 4684 2272 
L 4684 1741 
L 678 1741 
L 678 2272 
z
" id="DejaVuSans-2212" transform="scale(0.015625)"/>
        <path d="M 691 4666 
L 3169 4666 
L 3169 4134 
L 1269 4134 
L 1269 2991 
Q 1406 3038 1543 3061 
Q 1681 3084 1819 3084 
Q 2600 3084 3056 2656 
Q 3513 2228 3513 1497 
Q 3513 744 3044 326 
Q 2575 -91 1722 -91 
Q 1428 -91 1123 -41 
Q 819 9 494 109 
L 494 744 
Q 775 591 1075 516 
Q 1375 441 1709 441 
Q 2250 441 2565 725 
Q 2881 1009 2881 1497 
Q 2881 1984 2565 2268 
Q 2250 2553 1709 2553 
Q 1456 2553 1204 2497 
Q 953 2441 691 2322 
L 691 4666 
z
" id="DejaVuSans-35" transform="scale(0.015625)"/>
       </defs>
       <use xlink:href="#DejaVuSans-2212"/>
       <use x="83.789062" xlink:href="#DejaVuSans-31"/>
       <use x="147.412109" xlink:href="#DejaVuSans-2e"/>
       <use x="179.199219" xlink:href="#DejaVuSans-35"/>
      </g>
     </g>
    </g>
    <g id="ytick_2">
     <g id="line2d_8">
      <path clip-path="url(#p4ca8c7d1f3)" d="M 55.092813 194.973771 
L 405.180313 194.973771 
" style="fill:none;stroke:#ffffff;stroke-linecap:round;stroke-width:0.8;"/>
     </g>
     <g id="text_9">
      <!-- −1.0 -->
      <g style="fill:#262626;" transform="translate(23.81 198.77299)scale(0.1 -0.1)">
       <use xlink:href="#DejaVuSans-2212"/>
       <use x="83.789062" xlink:href="#DejaVuSans-31"/>
       <use x="147.412109" xlink:href="#DejaVuSans-2e"/>
       <use x="179.199219" xlink:href="#DejaVuSans-30"/>
      </g>
     </g>
    </g>
    <g id="ytick_3">
     <g id="line2d_9">
      <path clip-path="url(#p4ca8c7d1f3)" d="M 55.092813 169.990568 
L 405.180313 169.990568 
" style="fill:none;stroke:#ffffff;stroke-linecap:round;stroke-width:0.8;"/>
     </g>
     <g id="text_10">
      <!-- −0.5 -->
      <g style="fill:#262626;" transform="translate(23.81 173.789787)scale(0.1 -0.1)">
       <use xlink:href="#DejaVuSans-2212"/>
       <use x="83.789062" xlink:href="#DejaVuSans-30"/>
       <use x="147.412109" xlink:href="#DejaVuSans-2e"/>
       <use x="179.199219" xlink:href="#DejaVuSans-35"/>
      </g>
     </g>
    </g>
    <g id="ytick_4">
     <g id="line2d_10">
      <path clip-path="url(#p4ca8c7d1f3)" d="M 55.092813 145.007365 
L 405.180313 145.007365 
" style="fill:none;stroke:#ffffff;stroke-linecap:round;stroke-width:0.8;"/>
     </g>
     <g id="text_11">
      <!-- 0.0 -->
      <g style="fill:#262626;" transform="translate(32.189688 148.806584)scale(0.1 -0.1)">
       <use xlink:href="#DejaVuSans-30"/>
       <use x="63.623047" xlink:href="#DejaVuSans-2e"/>
       <use x="95.410156" xlink:href="#DejaVuSans-30"/>
      </g>
     </g>
    </g>
    <g id="ytick_5">
     <g id="line2d_11">
      <path clip-path="url(#p4ca8c7d1f3)" d="M 55.092813 120.024162 
L 405.180313 120.024162 
" style="fill:none;stroke:#ffffff;stroke-linecap:round;stroke-width:0.8;"/>
     </g>
     <g id="text_12">
      <!-- 0.5 -->
      <g style="fill:#262626;" transform="translate(32.189688 123.823381)scale(0.1 -0.1)">
       <use xlink:href="#DejaVuSans-30"/>
       <use x="63.623047" xlink:href="#DejaVuSans-2e"/>
       <use x="95.410156" xlink:href="#DejaVuSans-35"/>
      </g>
     </g>
    </g>
    <g id="ytick_6">
     <g id="line2d_12">
      <path clip-path="url(#p4ca8c7d1f3)" d="M 55.092813 95.040959 
L 405.180313 95.040959 
" style="fill:none;stroke:#ffffff;stroke-linecap:round;stroke-width:0.8;"/>
     </g>
     <g id="text_13">
      <!-- 1.0 -->
      <g style="fill:#262626;" transform="translate(32.189688 98.840178)scale(0.1 -0.1)">
       <use xlink:href="#DejaVuSans-31"/>
       <use x="63.623047" xlink:href="#DejaVuSans-2e"/>
       <use x="95.410156" xlink:href="#DejaVuSans-30"/>
      </g>
     </g>
    </g>
    <g id="ytick_7">
     <g id="line2d_13">
      <path clip-path="url(#p4ca8c7d1f3)" d="M 55.092813 70.057756 
L 405.180313 70.057756 
" style="fill:none;stroke:#ffffff;stroke-linecap:round;stroke-width:0.8;"/>
     </g>
     <g id="text_14">
      <!-- 1.5 -->
      <g style="fill:#262626;" transform="translate(32.189688 73.856975)scale(0.1 -0.1)">
       <use xlink:href="#DejaVuSans-31"/>
       <use x="63.623047" xlink:href="#DejaVuSans-2e"/>
       <use x="95.410156" xlink:href="#DejaVuSans-35"/>
      </g>
     </g>
    </g>
    <g id="ytick_8">
     <g id="line2d_14">
      <path clip-path="url(#p4ca8c7d1f3)" d="M 55.092813 45.074554 
L 405.180313 45.074554 
" style="fill:none;stroke:#ffffff;stroke-linecap:round;stroke-width:0.8;"/>
     </g>
     <g id="text_15">
      <!-- 2.0 -->
      <g style="fill:#262626;" transform="translate(32.189688 48.873772)scale(0.1 -0.1)">
       <use xlink:href="#DejaVuSans-32"/>
       <use x="63.623047" xlink:href="#DejaVuSans-2e"/>
       <use x="95.410156" xlink:href="#DejaVuSans-30"/>
      </g>
     </g>
    </g>
    <g id="text_16">
     <!-- $d$ (position) -->
     <g style="fill:#262626;" transform="translate(17.08 172.5055)rotate(-90)scale(0.13 -0.13)">
      <defs>
       <path d="M 2675 525 
Q 2444 222 2128 65 
Q 1813 -91 1428 -91 
Q 903 -91 598 267 
Q 294 625 294 1247 
Q 294 1766 478 2236 
Q 663 2706 1013 3078 
Q 1244 3325 1534 3454 
Q 1825 3584 2144 3584 
Q 2481 3584 2739 3421 
Q 2997 3259 3138 2956 
L 3513 4863 
L 4091 4863 
L 3144 0 
L 2566 0 
L 2675 525 
z
M 891 1350 
Q 891 897 1095 644 
Q 1300 391 1663 391 
Q 1931 391 2161 520 
Q 2391 650 2566 903 
Q 2750 1166 2856 1509 
Q 2963 1853 2963 2188 
Q 2963 2622 2758 2865 
Q 2553 3109 2194 3109 
Q 1922 3109 1687 2981 
Q 1453 2853 1288 2613 
Q 1106 2353 998 2009 
Q 891 1666 891 1350 
z
" id="DejaVuSans-Oblique-64" transform="scale(0.015625)"/>
       <path d="M 1159 525 
L 1159 -1331 
L 581 -1331 
L 581 3500 
L 1159 3500 
L 1159 2969 
Q 1341 3281 1617 3432 
Q 1894 3584 2278 3584 
Q 2916 3584 3314 3078 
Q 3713 2572 3713 1747 
Q 3713 922 3314 415 
Q 2916 -91 2278 -91 
Q 1894 -91 1617 61 
Q 1341 213 1159 525 
z
M 3116 1747 
Q 3116 2381 2855 2742 
Q 2594 3103 2138 3103 
Q 1681 3103 1420 2742 
Q 1159 2381 1159 1747 
Q 1159 1113 1420 752 
Q 1681 391 2138 391 
Q 2594 391 2855 752 
Q 3116 1113 3116 1747 
z
" id="DejaVuSans-70" transform="scale(0.015625)"/>
       <path d="M 1959 3097 
Q 1497 3097 1228 2736 
Q 959 2375 959 1747 
Q 959 1119 1226 758 
Q 1494 397 1959 397 
Q 2419 397 2687 759 
Q 2956 1122 2956 1747 
Q 2956 2369 2687 2733 
Q 2419 3097 1959 3097 
z
M 1959 3584 
Q 2709 3584 3137 3096 
Q 3566 2609 3566 1747 
Q 3566 888 3137 398 
Q 2709 -91 1959 -91 
Q 1206 -91 779 398 
Q 353 888 353 1747 
Q 353 2609 779 3096 
Q 1206 3584 1959 3584 
z
" id="DejaVuSans-6f" transform="scale(0.015625)"/>
       <path d="M 2834 3397 
L 2834 2853 
Q 2591 2978 2328 3040 
Q 2066 3103 1784 3103 
Q 1356 3103 1142 2972 
Q 928 2841 928 2578 
Q 928 2378 1081 2264 
Q 1234 2150 1697 2047 
L 1894 2003 
Q 2506 1872 2764 1633 
Q 3022 1394 3022 966 
Q 3022 478 2636 193 
Q 2250 -91 1575 -91 
Q 1294 -91 989 -36 
Q 684 19 347 128 
L 347 722 
Q 666 556 975 473 
Q 1284 391 1588 391 
Q 1994 391 2212 530 
Q 2431 669 2431 922 
Q 2431 1156 2273 1281 
Q 2116 1406 1581 1522 
L 1381 1569 
Q 847 1681 609 1914 
Q 372 2147 372 2553 
Q 372 3047 722 3315 
Q 1072 3584 1716 3584 
Q 2034 3584 2315 3537 
Q 2597 3491 2834 3397 
z
" id="DejaVuSans-73" transform="scale(0.015625)"/>
       <path d="M 3513 2113 
L 3513 0 
L 2938 0 
L 2938 2094 
Q 2938 2591 2744 2837 
Q 2550 3084 2163 3084 
Q 1697 3084 1428 2787 
Q 1159 2491 1159 1978 
L 1159 0 
L 581 0 
L 581 3500 
L 1159 3500 
L 1159 2956 
Q 1366 3272 1645 3428 
Q 1925 3584 2291 3584 
Q 2894 3584 3203 3211 
Q 3513 2838 3513 2113 
z
" id="DejaVuSans-6e" transform="scale(0.015625)"/>
      </defs>
      <use transform="translate(0 0.015625)" xlink:href="#DejaVuSans-Oblique-64"/>
      <use transform="translate(63.476562 0.015625)" xlink:href="#DejaVuSans-20"/>
      <use transform="translate(95.263672 0.015625)" xlink:href="#DejaVuSans-28"/>
      <use transform="translate(134.277344 0.015625)" xlink:href="#DejaVuSans-70"/>
      <use transform="translate(197.753906 0.015625)" xlink:href="#DejaVuSans-6f"/>
      <use transform="translate(258.935547 0.015625)" xlink:href="#DejaVuSans-73"/>
      <use transform="translate(311.035156 0.015625)" xlink:href="#DejaVuSans-69"/>
      <use transform="translate(338.818359 0.015625)" xlink:href="#DejaVuSans-74"/>
      <use transform="translate(378.027344 0.015625)" xlink:href="#DejaVuSans-69"/>
      <use transform="translate(405.810547 0.015625)" xlink:href="#DejaVuSans-6f"/>
      <use transform="translate(466.992188 0.015625)" xlink:href="#DejaVuSans-6e"/>
      <use transform="translate(530.371094 0.015625)" xlink:href="#DejaVuSans-29"/>
     </g>
    </g>
   </g>
   <g id="line2d_15">
    <path clip-path="url(#p4ca8c7d1f3)" d="M 55.092813 136.828933 
L 59.760646 138.817903 
L 64.428479 139.927436 
L 69.096313 135.319604 
L 73.764146 131.153917 
L 78.431979 128.439491 
L 83.099813 126.722522 
L 87.767646 120.897265 
L 92.435479 117.580218 
L 97.103313 119.843207 
L 101.771146 131.099878 
L 106.438979 125.937979 
L 111.106813 120.587027 
L 115.774646 128.056616 
L 120.442479 120.071606 
L 125.110313 128.925494 
L 129.778146 131.949208 
L 134.445979 132.532227 
L 139.113812 136.813263 
L 143.781646 133.256661 
L 148.449479 134.969302 
L 153.117313 139.175835 
L 157.785146 134.04636 
L 162.452979 137.310326 
L 167.120812 134.621255 
L 171.788646 145.233525 
L 176.456479 141.180884 
L 181.124313 143.939013 
L 185.792146 145.86229 
L 190.459979 153.054326 
L 195.127813 157.277132 
L 199.795646 140.408949 
L 204.463479 156.374817 
L 209.131313 168.000988 
L 213.799146 163.969278 
L 218.466979 160.431861 
L 223.134813 173.554761 
L 227.802646 173.370296 
L 232.470479 184.242217 
L 237.138313 182.668643 
L 241.806146 184.156991 
L 246.473979 190.361035 
L 251.141813 188.801271 
L 255.809646 192.636477 
L 260.477479 186.060401 
L 265.145313 177.843423 
L 269.813146 180.797447 
L 274.480979 177.079354 
L 279.148812 174.537814 
L 283.816646 170.582401 
L 288.484479 170.598006 
L 293.152312 177.582299 
L 297.820146 177.261528 
L 302.487979 173.502687 
L 307.155813 176.41284 
L 311.823646 178.425513 
L 316.491479 171.641631 
L 321.159312 174.716798 
L 325.827146 180.369468 
L 330.494979 164.45314 
L 335.162812 172.28753 
L 339.830646 181.324208 
L 344.498479 177.819593 
L 349.166313 188.647087 
L 353.834146 186.622694 
L 358.501979 185.749537 
L 363.169813 178.120605 
L 367.837646 168.065627 
L 372.505479 162.555758 
L 377.173312 164.996473 
L 381.841146 169.053849 
L 386.508979 170.244089 
L 391.176812 163.685579 
L 395.844646 160.191935 
L 400.512479 167.191158 
" style="fill:none;stroke:#1f77b4;stroke-linecap:round;stroke-width:1.5;"/>
   </g>
   <g id="line2d_16">
    <path clip-path="url(#p4ca8c7d1f3)" d="M 55.092813 147.421449 
L 59.760646 139.960341 
L 64.428479 139.498277 
L 69.096313 139.268016 
L 73.764146 137.779916 
L 78.431979 128.87914 
L 83.099813 132.127679 
L 87.767646 121.548452 
L 92.435479 115.910379 
L 97.103313 108.685284 
L 101.771146 120.825797 
L 106.438979 127.170352 
L 111.106813 129.002357 
L 115.774646 131.910795 
L 120.442479 131.270701 
L 125.110313 123.984086 
L 129.778146 128.718778 
L 134.445979 125.341116 
L 139.113812 121.156024 
L 143.781646 120.052802 
L 148.449479 123.013784 
L 153.117313 136.202123 
L 157.785146 142.382092 
L 162.452979 155.508655 
L 167.120812 147.883621 
L 171.788646 149.230361 
L 176.456479 134.129221 
L 181.124313 129.929596 
L 185.792146 125.829199 
L 190.459979 126.191528 
L 195.127813 128.202955 
L 199.795646 120.270361 
L 204.463479 117.715332 
L 209.131313 123.325232 
L 213.799146 117.410667 
L 218.466979 107.776315 
L 223.134813 108.503098 
L 227.802646 98.701616 
L 232.470479 93.210434 
L 237.138313 85.547455 
L 241.806146 84.541596 
L 246.473979 84.600091 
L 251.141813 85.92745 
L 255.809646 90.005692 
L 260.477479 87.825752 
L 265.145313 75.025942 
L 269.813146 69.44057 
L 274.480979 69.343013 
L 279.148812 68.372802 
L 283.816646 65.678277 
L 288.484479 70.723736 
L 293.152312 72.967559 
L 297.820146 61.018781 
L 302.487979 62.054563 
L 307.155813 57.695974 
L 311.823646 56.766354 
L 316.491479 57.005114 
L 321.159312 64.388884 
L 325.827146 66.604378 
L 330.494979 55.650801 
L 335.162812 56.497177 
L 339.830646 54.308579 
L 344.498479 47.178305 
L 349.166313 53.972694 
L 353.834146 44.819136 
L 358.501979 52.194768 
L 363.169813 50.477131 
L 367.837646 52.538531 
L 372.505479 56.202779 
L 377.173312 50.920008 
L 381.841146 49.283806 
L 386.508979 51.414018 
L 391.176812 51.42679 
L 395.844646 50.057645 
L 400.512479 50.976206 
" style="fill:none;stroke:#ff7f0e;stroke-linecap:round;stroke-width:1.5;"/>
   </g>
   <g id="line2d_17">
    <path clip-path="url(#p4ca8c7d1f3)" d="M 55.092813 140.23864 
L 59.760646 135.028871 
L 64.428479 143.202816 
L 69.096313 142.070437 
L 73.764146 147.604601 
L 78.431979 158.469694 
L 83.099813 154.962894 
L 87.767646 155.204241 
L 92.435479 155.530863 
L 97.103313 153.91104 
L 101.771146 148.139887 
L 106.438979 140.453468 
L 111.106813 146.290079 
L 115.774646 149.152492 
L 120.442479 144.309939 
L 125.110313 153.979532 
L 129.778146 159.599493 
L 134.445979 164.74954 
L 139.113812 175.693989 
L 143.781646 170.804922 
L 148.449479 166.462773 
L 153.117313 166.091101 
L 157.785146 175.391884 
L 162.452979 171.936126 
L 167.120812 170.081665 
L 171.788646 166.49065 
L 176.456479 158.613636 
L 181.124313 158.594589 
L 185.792146 152.346887 
L 190.459979 160.28817 
L 195.127813 154.134059 
L 199.795646 151.069354 
L 204.463479 150.579798 
L 209.131313 160.353716 
L 213.799146 150.323904 
L 218.466979 158.633765 
L 223.134813 162.415724 
L 227.802646 163.84768 
L 232.470479 162.619453 
L 237.138313 163.004808 
L 241.806146 166.201537 
L 246.473979 165.862513 
L 251.141813 163.323268 
L 255.809646 160.490932 
L 260.477479 159.183719 
L 265.145313 148.258723 
L 269.813146 157.047579 
L 274.480979 163.347543 
L 279.148812 162.264293 
L 283.816646 168.782997 
L 288.484479 165.248285 
L 293.152312 166.684809 
L 297.820146 171.14948 
L 302.487979 174.523802 
L 307.155813 180.53557 
L 311.823646 181.646267 
L 316.491479 180.157047 
L 321.159312 185.779143 
L 325.827146 189.638213 
L 330.494979 191.043491 
L 335.162812 187.38912 
L 339.830646 192.804047 
L 344.498479 191.866443 
L 349.166313 189.159428 
L 353.834146 182.970978 
L 358.501979 190.267297 
L 363.169813 198.723316 
L 367.837646 192.064874 
L 372.505479 189.88781 
L 377.173312 180.19101 
L 381.841146 179.48505 
L 386.508979 169.980414 
L 391.176812 168.566387 
L 395.844646 155.489043 
L 400.512479 161.75443 
" style="fill:none;stroke:#2ca02c;stroke-linecap:round;stroke-width:1.5;"/>
   </g>
   <g id="line2d_18">
    <path clip-path="url(#p4ca8c7d1f3)" d="M 55.092813 147.432452 
L 59.760646 146.596955 
L 64.428479 150.981935 
L 69.096313 152.791983 
L 73.764146 145.135702 
L 78.431979 153.421731 
L 83.099813 154.198523 
L 87.767646 155.482022 
L 92.435479 150.334254 
L 97.103313 148.588274 
L 101.771146 156.766462 
L 106.438979 161.871476 
L 111.106813 165.927922 
L 115.774646 168.324743 
L 120.442479 168.01161 
L 125.110313 162.588004 
L 129.778146 170.253768 
L 134.445979 165.86311 
L 139.113812 165.067283 
L 143.781646 152.397942 
L 148.449479 155.029374 
L 153.117313 146.882039 
L 157.785146 146.520979 
L 162.452979 154.374716 
L 167.120812 160.732806 
L 171.788646 172.142697 
L 176.456479 176.258391 
L 181.124313 181.11337 
L 185.792146 175.800049 
L 190.459979 176.003274 
L 195.127813 178.001304 
L 199.795646 182.213632 
L 204.463479 185.600867 
L 209.131313 191.345692 
L 213.799146 188.072277 
L 218.466979 178.039419 
L 223.134813 177.527914 
L 227.802646 187.807015 
L 232.470479 182.760188 
L 237.138313 184.15308 
L 241.806146 195.651513 
L 246.473979 190.138469 
L 251.141813 187.673452 
L 255.809646 185.361893 
L 260.477479 186.642349 
L 265.145313 180.190007 
L 269.813146 180.517841 
L 274.480979 184.424553 
L 279.148812 186.509193 
L 283.816646 190.610347 
L 288.484479 186.465233 
L 293.152312 183.590947 
L 297.820146 186.724755 
L 302.487979 183.285695 
L 307.155813 184.641942 
L 311.823646 186.735567 
L 316.491479 185.035075 
L 321.159312 187.673659 
L 325.827146 192.661466 
L 330.494979 192.547415 
L 335.162812 184.662944 
L 339.830646 192.673361 
L 344.498479 198.298878 
L 349.166313 207.637978 
L 353.834146 203.108135 
L 358.501979 198.417868 
L 363.169813 201.821739 
L 367.837646 195.868275 
L 372.505479 208.127089 
L 377.173312 214.645787 
L 381.841146 211.194711 
L 386.508979 226.091864 
L 391.176812 222.018706 
L 395.844646 221.048166 
L 400.512479 221.399751 
" style="fill:none;stroke:#d62728;stroke-linecap:round;stroke-width:1.5;"/>
   </g>
   <g id="line2d_19">
    <path clip-path="url(#p4ca8c7d1f3)" d="M 55.092813 145.17336 
L 59.760646 148.59052 
L 64.428479 156.94873 
L 69.096313 155.927989 
L 73.764146 164.384855 
L 78.431979 168.817622 
L 83.099813 170.435602 
L 87.767646 175.643003 
L 92.435479 181.03578 
L 97.103313 190.40614 
L 101.771146 190.072238 
L 106.438979 184.410071 
L 111.106813 186.61188 
L 115.774646 185.117031 
L 120.442479 183.587153 
L 125.110313 180.802409 
L 129.778146 192.202183 
L 134.445979 192.843005 
L 139.113812 196.996404 
L 143.781646 190.591111 
L 148.449479 193.949781 
L 153.117313 198.103392 
L 157.785146 191.80824 
L 162.452979 189.308675 
L 167.120812 194.411985 
L 171.788646 205.208002 
L 176.456479 204.446474 
L 181.124313 197.491421 
L 185.792146 196.302999 
L 190.459979 193.968367 
L 195.127813 196.757209 
L 199.795646 195.440578 
L 204.463479 188.108642 
L 209.131313 187.767466 
L 213.799146 183.94624 
L 218.466979 176.44665 
L 223.134813 182.062585 
L 227.802646 179.121969 
L 232.470479 175.972446 
L 237.138313 185.011684 
L 241.806146 177.339721 
L 246.473979 173.46349 
L 251.141813 170.483856 
L 255.809646 173.114256 
L 260.477479 175.301401 
L 265.145313 174.007259 
L 269.813146 178.001668 
L 274.480979 173.631365 
L 279.148812 168.360255 
L 283.816646 164.637528 
L 288.484479 159.056264 
L 293.152312 155.207385 
L 297.820146 158.90221 
L 302.487979 159.465089 
L 307.155813 161.150755 
L 311.823646 154.419779 
L 316.491479 152.831616 
L 321.159312 160.394468 
L 325.827146 160.205801 
L 330.494979 158.054724 
L 335.162812 170.246184 
L 339.830646 176.638271 
L 344.498479 175.67876 
L 349.166313 184.637149 
L 353.834146 185.588356 
L 358.501979 180.289809 
L 363.169813 176.303154 
L 367.837646 182.098424 
L 372.505479 189.483892 
L 377.173312 187.959118 
L 381.841146 185.92113 
L 386.508979 180.549118 
L 391.176812 189.646952 
L 395.844646 190.499011 
L 400.512479 186.067456 
" style="fill:none;stroke:#9467bd;stroke-linecap:round;stroke-width:1.5;"/>
   </g>
   <g id="patch_3">
    <path d="M 55.092813 235.1555 
L 55.092813 35.7555 
" style="fill:none;stroke:#ffffff;stroke-linecap:square;stroke-linejoin:miter;stroke-width:0.8;"/>
   </g>
   <g id="patch_4">
    <path d="M 405.180313 235.1555 
L 405.180313 35.7555 
" style="fill:none;stroke:#ffffff;stroke-linecap:square;stroke-linejoin:miter;stroke-width:0.8;"/>
   </g>
   <g id="patch_5">
    <path d="M 55.092813 235.1555 
L 405.180313 235.1555 
" style="fill:none;stroke:#ffffff;stroke-linecap:square;stroke-linejoin:miter;stroke-width:0.8;"/>
   </g>
   <g id="patch_6">
    <path d="M 55.092813 35.7555 
L 405.180313 35.7555 
" style="fill:none;stroke:#ffffff;stroke-linecap:square;stroke-linejoin:miter;stroke-width:0.8;"/>
   </g>
   <g id="text_17">
    <!-- Brownian motion process -->
    <g style="fill:#262626;" transform="translate(154.285313 16.318125)scale(0.12 -0.12)">
     <defs>
      <path d="M 1259 2228 
L 1259 519 
L 2272 519 
Q 2781 519 3026 730 
Q 3272 941 3272 1375 
Q 3272 1813 3026 2020 
Q 2781 2228 2272 2228 
L 1259 2228 
z
M 1259 4147 
L 1259 2741 
L 2194 2741 
Q 2656 2741 2882 2914 
Q 3109 3088 3109 3444 
Q 3109 3797 2882 3972 
Q 2656 4147 2194 4147 
L 1259 4147 
z
M 628 4666 
L 2241 4666 
Q 2963 4666 3353 4366 
Q 3744 4066 3744 3513 
Q 3744 3084 3544 2831 
Q 3344 2578 2956 2516 
Q 3422 2416 3680 2098 
Q 3938 1781 3938 1306 
Q 3938 681 3513 340 
Q 3088 0 2303 0 
L 628 0 
L 628 4666 
z
" id="DejaVuSans-42" transform="scale(0.015625)"/>
      <path d="M 2631 2963 
Q 2534 3019 2420 3045 
Q 2306 3072 2169 3072 
Q 1681 3072 1420 2755 
Q 1159 2438 1159 1844 
L 1159 0 
L 581 0 
L 581 3500 
L 1159 3500 
L 1159 2956 
Q 1341 3275 1631 3429 
Q 1922 3584 2338 3584 
Q 2397 3584 2469 3576 
Q 2541 3569 2628 3553 
L 2631 2963 
z
" id="DejaVuSans-72" transform="scale(0.015625)"/>
      <path d="M 269 3500 
L 844 3500 
L 1563 769 
L 2278 3500 
L 2956 3500 
L 3675 769 
L 4391 3500 
L 4966 3500 
L 4050 0 
L 3372 0 
L 2619 2869 
L 1863 0 
L 1184 0 
L 269 3500 
z
" id="DejaVuSans-77" transform="scale(0.015625)"/>
      <path d="M 2194 1759 
Q 1497 1759 1228 1600 
Q 959 1441 959 1056 
Q 959 750 1161 570 
Q 1363 391 1709 391 
Q 2188 391 2477 730 
Q 2766 1069 2766 1631 
L 2766 1759 
L 2194 1759 
z
M 3341 1997 
L 3341 0 
L 2766 0 
L 2766 531 
Q 2569 213 2275 61 
Q 1981 -91 1556 -91 
Q 1019 -91 701 211 
Q 384 513 384 1019 
Q 384 1609 779 1909 
Q 1175 2209 1959 2209 
L 2766 2209 
L 2766 2266 
Q 2766 2663 2505 2880 
Q 2244 3097 1772 3097 
Q 1472 3097 1187 3025 
Q 903 2953 641 2809 
L 641 3341 
Q 956 3463 1253 3523 
Q 1550 3584 1831 3584 
Q 2591 3584 2966 3190 
Q 3341 2797 3341 1997 
z
" id="DejaVuSans-61" transform="scale(0.015625)"/>
      <path d="M 3122 3366 
L 3122 2828 
Q 2878 2963 2633 3030 
Q 2388 3097 2138 3097 
Q 1578 3097 1268 2742 
Q 959 2388 959 1747 
Q 959 1106 1268 751 
Q 1578 397 2138 397 
Q 2388 397 2633 464 
Q 2878 531 3122 666 
L 3122 134 
Q 2881 22 2623 -34 
Q 2366 -91 2075 -91 
Q 1284 -91 818 406 
Q 353 903 353 1747 
Q 353 2603 823 3093 
Q 1294 3584 2113 3584 
Q 2378 3584 2631 3529 
Q 2884 3475 3122 3366 
z
" id="DejaVuSans-63" transform="scale(0.015625)"/>
     </defs>
     <use xlink:href="#DejaVuSans-42"/>
     <use x="68.603516" xlink:href="#DejaVuSans-72"/>
     <use x="107.466797" xlink:href="#DejaVuSans-6f"/>
     <use x="168.648438" xlink:href="#DejaVuSans-77"/>
     <use x="250.435547" xlink:href="#DejaVuSans-6e"/>
     <use x="313.814453" xlink:href="#DejaVuSans-69"/>
     <use x="341.597656" xlink:href="#DejaVuSans-61"/>
     <use x="402.876953" xlink:href="#DejaVuSans-6e"/>
     <use x="466.255859" xlink:href="#DejaVuSans-20"/>
     <use x="498.042969" xlink:href="#DejaVuSans-6d"/>
     <use x="595.455078" xlink:href="#DejaVuSans-6f"/>
     <use x="656.636719" xlink:href="#DejaVuSans-74"/>
     <use x="695.845703" xlink:href="#DejaVuSans-69"/>
     <use x="723.628906" xlink:href="#DejaVuSans-6f"/>
     <use x="784.810547" xlink:href="#DejaVuSans-6e"/>
     <use x="848.189453" xlink:href="#DejaVuSans-20"/>
     <use x="879.976562" xlink:href="#DejaVuSans-70"/>
     <use x="943.453125" xlink:href="#DejaVuSans-72"/>
     <use x="982.316406" xlink:href="#DejaVuSans-6f"/>
     <use x="1043.498047" xlink:href="#DejaVuSans-63"/>
     <use x="1098.478516" xlink:href="#DejaVuSans-65"/>
     <use x="1160.001953" xlink:href="#DejaVuSans-73"/>
     <use x="1212.101562" xlink:href="#DejaVuSans-73"/>
    </g>
    <!--  Position over time for 5 independent realizations -->
    <g style="fill:#262626;" transform="translate(82.02 29.7555)scale(0.12 -0.12)">
     <defs>
      <path d="M 1259 4147 
L 1259 2394 
L 2053 2394 
Q 2494 2394 2734 2622 
Q 2975 2850 2975 3272 
Q 2975 3691 2734 3919 
Q 2494 4147 2053 4147 
L 1259 4147 
z
M 628 4666 
L 2053 4666 
Q 2838 4666 3239 4311 
Q 3641 3956 3641 3272 
Q 3641 2581 3239 2228 
Q 2838 1875 2053 1875 
L 1259 1875 
L 1259 0 
L 628 0 
L 628 4666 
z
" id="DejaVuSans-50" transform="scale(0.015625)"/>
      <path d="M 191 3500 
L 800 3500 
L 1894 563 
L 2988 3500 
L 3597 3500 
L 2284 0 
L 1503 0 
L 191 3500 
z
" id="DejaVuSans-76" transform="scale(0.015625)"/>
      <path d="M 2375 4863 
L 2375 4384 
L 1825 4384 
Q 1516 4384 1395 4259 
Q 1275 4134 1275 3809 
L 1275 3500 
L 2222 3500 
L 2222 3053 
L 1275 3053 
L 1275 0 
L 697 0 
L 697 3053 
L 147 3053 
L 147 3500 
L 697 3500 
L 697 3744 
Q 697 4328 969 4595 
Q 1241 4863 1831 4863 
L 2375 4863 
z
" id="DejaVuSans-66" transform="scale(0.015625)"/>
      <path d="M 2906 2969 
L 2906 4863 
L 3481 4863 
L 3481 0 
L 2906 0 
L 2906 525 
Q 2725 213 2448 61 
Q 2172 -91 1784 -91 
Q 1150 -91 751 415 
Q 353 922 353 1747 
Q 353 2572 751 3078 
Q 1150 3584 1784 3584 
Q 2172 3584 2448 3432 
Q 2725 3281 2906 2969 
z
M 947 1747 
Q 947 1113 1208 752 
Q 1469 391 1925 391 
Q 2381 391 2643 752 
Q 2906 1113 2906 1747 
Q 2906 2381 2643 2742 
Q 2381 3103 1925 3103 
Q 1469 3103 1208 2742 
Q 947 2381 947 1747 
z
" id="DejaVuSans-64" transform="scale(0.015625)"/>
      <path d="M 603 4863 
L 1178 4863 
L 1178 0 
L 603 0 
L 603 4863 
z
" id="DejaVuSans-6c" transform="scale(0.015625)"/>
      <path d="M 353 3500 
L 3084 3500 
L 3084 2975 
L 922 459 
L 3084 459 
L 3084 0 
L 275 0 
L 275 525 
L 2438 3041 
L 353 3041 
L 353 3500 
z
" id="DejaVuSans-7a" transform="scale(0.015625)"/>
     </defs>
     <use xlink:href="#DejaVuSans-20"/>
     <use x="31.787109" xlink:href="#DejaVuSans-50"/>
     <use x="88.464844" xlink:href="#DejaVuSans-6f"/>
     <use x="149.646484" xlink:href="#DejaVuSans-73"/>
     <use x="201.746094" xlink:href="#DejaVuSans-69"/>
     <use x="229.529297" xlink:href="#DejaVuSans-74"/>
     <use x="268.738281" xlink:href="#DejaVuSans-69"/>
     <use x="296.521484" xlink:href="#DejaVuSans-6f"/>
     <use x="357.703125" xlink:href="#DejaVuSans-6e"/>
     <use x="421.082031" xlink:href="#DejaVuSans-20"/>
     <use x="452.869141" xlink:href="#DejaVuSans-6f"/>
     <use x="514.050781" xlink:href="#DejaVuSans-76"/>
     <use x="573.230469" xlink:href="#DejaVuSans-65"/>
     <use x="634.753906" xlink:href="#DejaVuSans-72"/>
     <use x="675.867188" xlink:href="#DejaVuSans-20"/>
     <use x="707.654297" xlink:href="#DejaVuSans-74"/>
     <use x="746.863281" xlink:href="#DejaVuSans-69"/>
     <use x="774.646484" xlink:href="#DejaVuSans-6d"/>
     <use x="872.058594" xlink:href="#DejaVuSans-65"/>
     <use x="933.582031" xlink:href="#DejaVuSans-20"/>
     <use x="965.369141" xlink:href="#DejaVuSans-66"/>
     <use x="1000.574219" xlink:href="#DejaVuSans-6f"/>
     <use x="1061.755859" xlink:href="#DejaVuSans-72"/>
     <use x="1102.869141" xlink:href="#DejaVuSans-20"/>
     <use x="1134.65625" xlink:href="#DejaVuSans-35"/>
     <use x="1198.279297" xlink:href="#DejaVuSans-20"/>
     <use x="1230.066406" xlink:href="#DejaVuSans-69"/>
     <use x="1257.849609" xlink:href="#DejaVuSans-6e"/>
     <use x="1321.228516" xlink:href="#DejaVuSans-64"/>
     <use x="1384.705078" xlink:href="#DejaVuSans-65"/>
     <use x="1446.228516" xlink:href="#DejaVuSans-70"/>
     <use x="1509.705078" xlink:href="#DejaVuSans-65"/>
     <use x="1571.228516" xlink:href="#DejaVuSans-6e"/>
     <use x="1634.607422" xlink:href="#DejaVuSans-64"/>
     <use x="1698.083984" xlink:href="#DejaVuSans-65"/>
     <use x="1759.607422" xlink:href="#DejaVuSans-6e"/>
     <use x="1822.986328" xlink:href="#DejaVuSans-74"/>
     <use x="1862.195312" xlink:href="#DejaVuSans-20"/>
     <use x="1893.982422" xlink:href="#DejaVuSans-72"/>
     <use x="1932.845703" xlink:href="#DejaVuSans-65"/>
     <use x="1994.369141" xlink:href="#DejaVuSans-61"/>
     <use x="2055.648438" xlink:href="#DejaVuSans-6c"/>
     <use x="2083.431641" xlink:href="#DejaVuSans-69"/>
     <use x="2111.214844" xlink:href="#DejaVuSans-7a"/>
     <use x="2163.705078" xlink:href="#DejaVuSans-61"/>
     <use x="2224.984375" xlink:href="#DejaVuSans-74"/>
     <use x="2264.193359" xlink:href="#DejaVuSans-69"/>
     <use x="2291.976562" xlink:href="#DejaVuSans-6f"/>
     <use x="2353.158203" xlink:href="#DejaVuSans-6e"/>
     <use x="2416.537109" xlink:href="#DejaVuSans-73"/>
    </g>
   </g>
  </g>
 </g>
 <defs>
  <clipPath id="p4ca8c7d1f3">
   <rect height="199.4" width="350.0875" x="55.092813" y="35.7555"/>
  </clipPath>
 </defs>
</svg>
