<?xml version="1.0" encoding="utf-8" standalone="no"?>
<!DOCTYPE svg PUBLIC "-//W3C//DTD SVG 1.1//EN"
  "http://www.w3.org/Graphics/SVG/1.1/DTD/svg11.dtd">
<svg height="293.655187pt" version="1.1" viewBox="0 0 442.01125 293.655187" width="442.01125pt" xmlns="http://www.w3.org/2000/svg" xmlns:xlink="http://www.w3.org/1999/xlink">
 <metadata>
  <rdf:RDF xmlns:cc="http://creativecommons.org/ns#" xmlns:dc="http://purl.org/dc/elements/1.1/" xmlns:rdf="http://www.w3.org/1999/02/22-rdf-syntax-ns#">
   <cc:Work>
    <dc:type rdf:resource="http://purl.org/dc/dcmitype/StillImage"/>
    <dc:date>2021-08-24T11:34:38.212758</dc:date>
    <dc:format>image/svg+xml</dc:format>
    <dc:creator>
     <cc:Agent>
      <dc:title>Matplotlib v3.4.3, https://matplotlib.org/</dc:title>
     </cc:Agent>
    </dc:creator>
   </cc:Work>
  </rdf:RDF>
 </metadata>
 <defs>
  <style type="text/css">*{stroke-linecap:butt;stroke-linejoin:round;}</style>
 </defs>
 <g id="figure_1">
  <g id="patch_1">
   <path d="M 0 293.655187 
L 442.01125 293.655187 
L 442.01125 0 
L 0 0 
z
" style="fill:#ffffff;"/>
  </g>
  <g id="axes_1">
   <g id="patch_2">
    <path d="M 55.092813 253.1955 
L 389.892812 253.1955 
L 389.892812 35.7555 
L 55.092813 35.7555 
z
" style="fill:#eaeaf2;"/>
   </g>
   <g id="matplotlib.axis_1">
    <g id="xtick_1">
     <g id="line2d_1">
      <path clip-path="url(#pb96230fbf0)" d="M 55.092813 253.1955 
L 55.092813 35.7555 
" style="fill:none;stroke:#ffffff;stroke-linecap:round;stroke-width:0.8;"/>
     </g>
     <g id="text_1">
      <!-- −4 -->
      <g style="fill:#262626;" transform="translate(47.721719 267.793937)scale(0.1 -0.1)">
       <defs>
        <path d="M 678 2272 
L 4684 2272 
L 4684 1741 
L 678 1741 
L 678 2272 
z
" id="DejaVuSans-2212" transform="scale(0.015625)"/>
        <path d="M 2419 4116 
L 825 1625 
L 2419 1625 
L 2419 4116 
z
M 2253 4666 
L 3047 4666 
L 3047 1625 
L 3713 1625 
L 3713 1100 
L 3047 1100 
L 3047 0 
L 2419 0 
L 2419 1100 
L 313 1100 
L 313 1709 
L 2253 4666 
z
" id="DejaVuSans-34" transform="scale(0.015625)"/>
       </defs>
       <use xlink:href="#DejaVuSans-2212"/>
       <use x="83.789062" xlink:href="#DejaVuSans-34"/>
      </g>
     </g>
    </g>
    <g id="xtick_2">
     <g id="line2d_2">
      <path clip-path="url(#pb96230fbf0)" d="M 96.942813 253.1955 
L 96.942813 35.7555 
" style="fill:none;stroke:#ffffff;stroke-linecap:round;stroke-width:0.8;"/>
     </g>
     <g id="text_2">
      <!-- −3 -->
      <g style="fill:#262626;" transform="translate(89.571719 267.793937)scale(0.1 -0.1)">
       <defs>
        <path d="M 2597 2516 
Q 3050 2419 3304 2112 
Q 3559 1806 3559 1356 
Q 3559 666 3084 287 
Q 2609 -91 1734 -91 
Q 1441 -91 1130 -33 
Q 819 25 488 141 
L 488 750 
Q 750 597 1062 519 
Q 1375 441 1716 441 
Q 2309 441 2620 675 
Q 2931 909 2931 1356 
Q 2931 1769 2642 2001 
Q 2353 2234 1838 2234 
L 1294 2234 
L 1294 2753 
L 1863 2753 
Q 2328 2753 2575 2939 
Q 2822 3125 2822 3475 
Q 2822 3834 2567 4026 
Q 2313 4219 1838 4219 
Q 1578 4219 1281 4162 
Q 984 4106 628 3988 
L 628 4550 
Q 988 4650 1302 4700 
Q 1616 4750 1894 4750 
Q 2613 4750 3031 4423 
Q 3450 4097 3450 3541 
Q 3450 3153 3228 2886 
Q 3006 2619 2597 2516 
z
" id="DejaVuSans-33" transform="scale(0.015625)"/>
       </defs>
       <use xlink:href="#DejaVuSans-2212"/>
       <use x="83.789062" xlink:href="#DejaVuSans-33"/>
      </g>
     </g>
    </g>
    <g id="xtick_3">
     <g id="line2d_3">
      <path clip-path="url(#pb96230fbf0)" d="M 138.792812 253.1955 
L 138.792812 35.7555 
" style="fill:none;stroke:#ffffff;stroke-linecap:round;stroke-width:0.8;"/>
     </g>
     <g id="text_3">
      <!-- −2 -->
      <g style="fill:#262626;" transform="translate(131.421719 267.793937)scale(0.1 -0.1)">
       <defs>
        <path d="M 1228 531 
L 3431 531 
L 3431 0 
L 469 0 
L 469 531 
Q 828 903 1448 1529 
Q 2069 2156 2228 2338 
Q 2531 2678 2651 2914 
Q 2772 3150 2772 3378 
Q 2772 3750 2511 3984 
Q 2250 4219 1831 4219 
Q 1534 4219 1204 4116 
Q 875 4013 500 3803 
L 500 4441 
Q 881 4594 1212 4672 
Q 1544 4750 1819 4750 
Q 2544 4750 2975 4387 
Q 3406 4025 3406 3419 
Q 3406 3131 3298 2873 
Q 3191 2616 2906 2266 
Q 2828 2175 2409 1742 
Q 1991 1309 1228 531 
z
" id="DejaVuSans-32" transform="scale(0.015625)"/>
       </defs>
       <use xlink:href="#DejaVuSans-2212"/>
       <use x="83.789062" xlink:href="#DejaVuSans-32"/>
      </g>
     </g>
    </g>
    <g id="xtick_4">
     <g id="line2d_4">
      <path clip-path="url(#pb96230fbf0)" d="M 180.642812 253.1955 
L 180.642812 35.7555 
" style="fill:none;stroke:#ffffff;stroke-linecap:round;stroke-width:0.8;"/>
     </g>
     <g id="text_4">
      <!-- −1 -->
      <g style="fill:#262626;" transform="translate(173.271719 267.793937)scale(0.1 -0.1)">
       <defs>
        <path d="M 794 531 
L 1825 531 
L 1825 4091 
L 703 3866 
L 703 4441 
L 1819 4666 
L 2450 4666 
L 2450 531 
L 3481 531 
L 3481 0 
L 794 0 
L 794 531 
z
" id="DejaVuSans-31" transform="scale(0.015625)"/>
       </defs>
       <use xlink:href="#DejaVuSans-2212"/>
       <use x="83.789062" xlink:href="#DejaVuSans-31"/>
      </g>
     </g>
    </g>
    <g id="xtick_5">
     <g id="line2d_5">
      <path clip-path="url(#pb96230fbf0)" d="M 222.492812 253.1955 
L 222.492812 35.7555 
" style="fill:none;stroke:#ffffff;stroke-linecap:round;stroke-width:0.8;"/>
     </g>
     <g id="text_5">
      <!-- 0 -->
      <g style="fill:#262626;" transform="translate(219.311562 267.793937)scale(0.1 -0.1)">
       <defs>
        <path d="M 2034 4250 
Q 1547 4250 1301 3770 
Q 1056 3291 1056 2328 
Q 1056 1369 1301 889 
Q 1547 409 2034 409 
Q 2525 409 2770 889 
Q 3016 1369 3016 2328 
Q 3016 3291 2770 3770 
Q 2525 4250 2034 4250 
z
M 2034 4750 
Q 2819 4750 3233 4129 
Q 3647 3509 3647 2328 
Q 3647 1150 3233 529 
Q 2819 -91 2034 -91 
Q 1250 -91 836 529 
Q 422 1150 422 2328 
Q 422 3509 836 4129 
Q 1250 4750 2034 4750 
z
" id="DejaVuSans-30" transform="scale(0.015625)"/>
       </defs>
       <use xlink:href="#DejaVuSans-30"/>
      </g>
     </g>
    </g>
    <g id="xtick_6">
     <g id="line2d_6">
      <path clip-path="url(#pb96230fbf0)" d="M 264.342812 253.1955 
L 264.342812 35.7555 
" style="fill:none;stroke:#ffffff;stroke-linecap:round;stroke-width:0.8;"/>
     </g>
     <g id="text_6">
      <!-- 1 -->
      <g style="fill:#262626;" transform="translate(261.161563 267.793937)scale(0.1 -0.1)">
       <use xlink:href="#DejaVuSans-31"/>
      </g>
     </g>
    </g>
    <g id="xtick_7">
     <g id="line2d_7">
      <path clip-path="url(#pb96230fbf0)" d="M 306.192812 253.1955 
L 306.192812 35.7555 
" style="fill:none;stroke:#ffffff;stroke-linecap:round;stroke-width:0.8;"/>
     </g>
     <g id="text_7">
      <!-- 2 -->
      <g style="fill:#262626;" transform="translate(303.011562 267.793937)scale(0.1 -0.1)">
       <use xlink:href="#DejaVuSans-32"/>
      </g>
     </g>
    </g>
    <g id="xtick_8">
     <g id="line2d_8">
      <path clip-path="url(#pb96230fbf0)" d="M 348.042812 253.1955 
L 348.042812 35.7555 
" style="fill:none;stroke:#ffffff;stroke-linecap:round;stroke-width:0.8;"/>
     </g>
     <g id="text_8">
      <!-- 3 -->
      <g style="fill:#262626;" transform="translate(344.861562 267.793937)scale(0.1 -0.1)">
       <use xlink:href="#DejaVuSans-33"/>
      </g>
     </g>
    </g>
    <g id="xtick_9">
     <g id="line2d_9">
      <path clip-path="url(#pb96230fbf0)" d="M 389.892812 253.1955 
L 389.892812 35.7555 
" style="fill:none;stroke:#ffffff;stroke-linecap:round;stroke-width:0.8;"/>
     </g>
     <g id="text_9">
      <!-- 4 -->
      <g style="fill:#262626;" transform="translate(386.711563 267.793937)scale(0.1 -0.1)">
       <use xlink:href="#DejaVuSans-34"/>
      </g>
     </g>
    </g>
    <g id="text_10">
     <!-- $x$ -->
     <g style="fill:#262626;" transform="translate(218.592812 283.751594)scale(0.13 -0.13)">
      <defs>
       <path d="M 3841 3500 
L 2234 1784 
L 3219 0 
L 2559 0 
L 1819 1388 
L 531 0 
L -166 0 
L 1556 1844 
L 641 3500 
L 1300 3500 
L 1972 2234 
L 3144 3500 
L 3841 3500 
z
" id="DejaVuSans-Oblique-78" transform="scale(0.015625)"/>
      </defs>
      <use transform="translate(0 0.3125)" xlink:href="#DejaVuSans-Oblique-78"/>
     </g>
    </g>
   </g>
   <g id="matplotlib.axis_2">
    <g id="ytick_1">
     <g id="line2d_10">
      <path clip-path="url(#pb96230fbf0)" d="M 55.092813 233.868666 
L 389.892812 233.868666 
" style="fill:none;stroke:#ffffff;stroke-linecap:round;stroke-width:0.8;"/>
     </g>
     <g id="text_11">
      <!-- −1.5 -->
      <g style="fill:#262626;" transform="translate(23.81 237.667885)scale(0.1 -0.1)">
       <defs>
        <path d="M 684 794 
L 1344 794 
L 1344 0 
L 684 0 
L 684 794 
z
" id="DejaVuSans-2e" transform="scale(0.015625)"/>
        <path d="M 691 4666 
L 3169 4666 
L 3169 4134 
L 1269 4134 
L 1269 2991 
Q 1406 3038 1543 3061 
Q 1681 3084 1819 3084 
Q 2600 3084 3056 2656 
Q 3513 2228 3513 1497 
Q 3513 744 3044 326 
Q 2575 -91 1722 -91 
Q 1428 -91 1123 -41 
Q 819 9 494 109 
L 494 744 
Q 775 591 1075 516 
Q 1375 441 1709 441 
Q 2250 441 2565 725 
Q 2881 1009 2881 1497 
Q 2881 1984 2565 2268 
Q 2250 2553 1709 2553 
Q 1456 2553 1204 2497 
Q 953 2441 691 2322 
L 691 4666 
z
" id="DejaVuSans-35" transform="scale(0.015625)"/>
       </defs>
       <use xlink:href="#DejaVuSans-2212"/>
       <use x="83.789062" xlink:href="#DejaVuSans-31"/>
       <use x="147.412109" xlink:href="#DejaVuSans-2e"/>
       <use x="179.199219" xlink:href="#DejaVuSans-35"/>
      </g>
     </g>
    </g>
    <g id="ytick_2">
     <g id="line2d_11">
      <path clip-path="url(#pb96230fbf0)" d="M 55.092813 203.899576 
L 389.892812 203.899576 
" style="fill:none;stroke:#ffffff;stroke-linecap:round;stroke-width:0.8;"/>
     </g>
     <g id="text_12">
      <!-- −1.0 -->
      <g style="fill:#262626;" transform="translate(23.81 207.698795)scale(0.1 -0.1)">
       <use xlink:href="#DejaVuSans-2212"/>
       <use x="83.789062" xlink:href="#DejaVuSans-31"/>
       <use x="147.412109" xlink:href="#DejaVuSans-2e"/>
       <use x="179.199219" xlink:href="#DejaVuSans-30"/>
      </g>
     </g>
    </g>
    <g id="ytick_3">
     <g id="line2d_12">
      <path clip-path="url(#pb96230fbf0)" d="M 55.092813 173.930487 
L 389.892812 173.930487 
" style="fill:none;stroke:#ffffff;stroke-linecap:round;stroke-width:0.8;"/>
     </g>
     <g id="text_13">
      <!-- −0.5 -->
      <g style="fill:#262626;" transform="translate(23.81 177.729706)scale(0.1 -0.1)">
       <use xlink:href="#DejaVuSans-2212"/>
       <use x="83.789062" xlink:href="#DejaVuSans-30"/>
       <use x="147.412109" xlink:href="#DejaVuSans-2e"/>
       <use x="179.199219" xlink:href="#DejaVuSans-35"/>
      </g>
     </g>
    </g>
    <g id="ytick_4">
     <g id="line2d_13">
      <path clip-path="url(#pb96230fbf0)" d="M 55.092813 143.961397 
L 389.892812 143.961397 
" style="fill:none;stroke:#ffffff;stroke-linecap:round;stroke-width:0.8;"/>
     </g>
     <g id="text_14">
      <!-- 0.0 -->
      <g style="fill:#262626;" transform="translate(32.189688 147.760616)scale(0.1 -0.1)">
       <use xlink:href="#DejaVuSans-30"/>
       <use x="63.623047" xlink:href="#DejaVuSans-2e"/>
       <use x="95.410156" xlink:href="#DejaVuSans-30"/>
      </g>
     </g>
    </g>
    <g id="ytick_5">
     <g id="line2d_14">
      <path clip-path="url(#pb96230fbf0)" d="M 55.092813 113.992308 
L 389.892812 113.992308 
" style="fill:none;stroke:#ffffff;stroke-linecap:round;stroke-width:0.8;"/>
     </g>
     <g id="text_15">
      <!-- 0.5 -->
      <g style="fill:#262626;" transform="translate(32.189688 117.791527)scale(0.1 -0.1)">
       <use xlink:href="#DejaVuSans-30"/>
       <use x="63.623047" xlink:href="#DejaVuSans-2e"/>
       <use x="95.410156" xlink:href="#DejaVuSans-35"/>
      </g>
     </g>
    </g>
    <g id="ytick_6">
     <g id="line2d_15">
      <path clip-path="url(#pb96230fbf0)" d="M 55.092813 84.023218 
L 389.892812 84.023218 
" style="fill:none;stroke:#ffffff;stroke-linecap:round;stroke-width:0.8;"/>
     </g>
     <g id="text_16">
      <!-- 1.0 -->
      <g style="fill:#262626;" transform="translate(32.189688 87.822437)scale(0.1 -0.1)">
       <use xlink:href="#DejaVuSans-31"/>
       <use x="63.623047" xlink:href="#DejaVuSans-2e"/>
       <use x="95.410156" xlink:href="#DejaVuSans-30"/>
      </g>
     </g>
    </g>
    <g id="ytick_7">
     <g id="line2d_16">
      <path clip-path="url(#pb96230fbf0)" d="M 55.092813 54.054129 
L 389.892812 54.054129 
" style="fill:none;stroke:#ffffff;stroke-linecap:round;stroke-width:0.8;"/>
     </g>
     <g id="text_17">
      <!-- 1.5 -->
      <g style="fill:#262626;" transform="translate(32.189688 57.853347)scale(0.1 -0.1)">
       <use xlink:href="#DejaVuSans-31"/>
       <use x="63.623047" xlink:href="#DejaVuSans-2e"/>
       <use x="95.410156" xlink:href="#DejaVuSans-35"/>
      </g>
     </g>
    </g>
    <g id="text_18">
     <!-- $y = f(x)$ -->
     <g style="fill:#262626;" transform="translate(17.08 167.5505)rotate(-90)scale(0.13 -0.13)">
      <defs>
       <path d="M 1588 -325 
Q 1188 -997 936 -1164 
Q 684 -1331 294 -1331 
L -159 -1331 
L -63 -850 
L 269 -850 
Q 509 -850 678 -719 
Q 847 -588 1056 -206 
L 1234 128 
L 459 3500 
L 1069 3500 
L 1650 819 
L 3256 3500 
L 3859 3500 
L 1588 -325 
z
" id="DejaVuSans-Oblique-79" transform="scale(0.015625)"/>
       <path d="M 678 2906 
L 4684 2906 
L 4684 2381 
L 678 2381 
L 678 2906 
z
M 678 1631 
L 4684 1631 
L 4684 1100 
L 678 1100 
L 678 1631 
z
" id="DejaVuSans-3d" transform="scale(0.015625)"/>
       <path d="M 3059 4863 
L 2969 4384 
L 2419 4384 
Q 2106 4384 1964 4261 
Q 1822 4138 1753 3809 
L 1691 3500 
L 2638 3500 
L 2553 3053 
L 1606 3053 
L 1013 0 
L 434 0 
L 1031 3053 
L 481 3053 
L 563 3500 
L 1113 3500 
L 1159 3744 
Q 1278 4363 1576 4613 
Q 1875 4863 2516 4863 
L 3059 4863 
z
" id="DejaVuSans-Oblique-66" transform="scale(0.015625)"/>
       <path d="M 1984 4856 
Q 1566 4138 1362 3434 
Q 1159 2731 1159 2009 
Q 1159 1288 1364 580 
Q 1569 -128 1984 -844 
L 1484 -844 
Q 1016 -109 783 600 
Q 550 1309 550 2009 
Q 550 2706 781 3412 
Q 1013 4119 1484 4856 
L 1984 4856 
z
" id="DejaVuSans-28" transform="scale(0.015625)"/>
       <path d="M 513 4856 
L 1013 4856 
Q 1481 4119 1714 3412 
Q 1947 2706 1947 2009 
Q 1947 1309 1714 600 
Q 1481 -109 1013 -844 
L 513 -844 
Q 928 -128 1133 580 
Q 1338 1288 1338 2009 
Q 1338 2731 1133 3434 
Q 928 4138 513 4856 
z
" id="DejaVuSans-29" transform="scale(0.015625)"/>
      </defs>
      <use transform="translate(0 0.015625)" xlink:href="#DejaVuSans-Oblique-79"/>
      <use transform="translate(78.662109 0.015625)" xlink:href="#DejaVuSans-3d"/>
      <use transform="translate(181.933594 0.015625)" xlink:href="#DejaVuSans-Oblique-66"/>
      <use transform="translate(217.138672 0.015625)" xlink:href="#DejaVuSans-28"/>
      <use transform="translate(256.152344 0.015625)" xlink:href="#DejaVuSans-Oblique-78"/>
      <use transform="translate(315.332031 0.015625)" xlink:href="#DejaVuSans-29"/>
     </g>
    </g>
   </g>
   <g id="line2d_17">
    <path clip-path="url(#pb96230fbf0)" d="M 55.092813 230.428326 
L 63.462813 237.216223 
L 71.832812 240.323637 
L 80.202813 237.940615 
L 88.572812 229.093006 
L 96.942813 214.14021 
L 105.312813 194.871991 
L 113.682813 174.12013 
L 122.052813 155.032247 
L 130.422812 140.286114 
L 138.792812 131.495437 
L 147.162813 128.927301 
L 155.532813 131.525919 
L 163.902812 137.184637 
L 172.272812 143.212607 
L 180.642812 146.942261 
L 189.012812 146.377654 
L 197.382812 140.714933 
L 205.752813 130.54348 
L 214.122813 117.616658 
L 222.492812 104.25373 
L 230.862812 92.613817 
L 239.232812 84.153751 
L 247.602812 79.482684 
L 255.972813 78.603893 
L 264.342812 81.325221 
L 272.712812 87.55746 
L 281.082812 97.334379 
L 289.452812 110.586032 
L 297.822812 126.841296 
L 306.192812 145.050221 
L 314.562812 163.625738 
L 322.932812 180.687669 
L 331.302812 194.410906 
L 339.672812 203.356209 
L 348.042812 206.691481 
L 356.412812 204.281453 
L 364.782812 196.698695 
L 373.152812 185.229955 
L 381.522812 171.878934 
L 389.892812 159.241386 
" style="fill:none;stroke:#1f77b4;stroke-linecap:round;stroke-width:1.5;"/>
    <defs>
     <path d="M 0 1.5 
C 0.397805 1.5 0.77937 1.341951 1.06066 1.06066 
C 1.341951 0.77937 1.5 0.397805 1.5 0 
C 1.5 -0.397805 1.341951 -0.77937 1.06066 -1.06066 
C 0.77937 -1.341951 0.397805 -1.5 0 -1.5 
C -0.397805 -1.5 -0.77937 -1.341951 -1.06066 -1.06066 
C -1.341951 -0.77937 -1.5 -0.397805 -1.5 0 
C -1.5 0.397805 -1.341951 0.77937 -1.06066 1.06066 
C -0.77937 1.341951 -0.397805 1.5 0 1.5 
z
" id="mde2f123fd3" style="stroke:#1f77b4;"/>
    </defs>
    <g clip-path="url(#pb96230fbf0)">
     <use style="fill:#1f77b4;stroke:#1f77b4;" x="55.092813" xlink:href="#mde2f123fd3" y="230.428326"/>
     <use style="fill:#1f77b4;stroke:#1f77b4;" x="63.462813" xlink:href="#mde2f123fd3" y="237.216223"/>
     <use style="fill:#1f77b4;stroke:#1f77b4;" x="71.832812" xlink:href="#mde2f123fd3" y="240.323637"/>
     <use style="fill:#1f77b4;stroke:#1f77b4;" x="80.202813" xlink:href="#mde2f123fd3" y="237.940615"/>
     <use style="fill:#1f77b4;stroke:#1f77b4;" x="88.572812" xlink:href="#mde2f123fd3" y="229.093006"/>
     <use style="fill:#1f77b4;stroke:#1f77b4;" x="96.942813" xlink:href="#mde2f123fd3" y="214.14021"/>
     <use style="fill:#1f77b4;stroke:#1f77b4;" x="105.312813" xlink:href="#mde2f123fd3" y="194.871991"/>
     <use style="fill:#1f77b4;stroke:#1f77b4;" x="113.682813" xlink:href="#mde2f123fd3" y="174.12013"/>
     <use style="fill:#1f77b4;stroke:#1f77b4;" x="122.052813" xlink:href="#mde2f123fd3" y="155.032247"/>
     <use style="fill:#1f77b4;stroke:#1f77b4;" x="130.422812" xlink:href="#mde2f123fd3" y="140.286114"/>
     <use style="fill:#1f77b4;stroke:#1f77b4;" x="138.792812" xlink:href="#mde2f123fd3" y="131.495437"/>
     <use style="fill:#1f77b4;stroke:#1f77b4;" x="147.162813" xlink:href="#mde2f123fd3" y="128.927301"/>
     <use style="fill:#1f77b4;stroke:#1f77b4;" x="155.532813" xlink:href="#mde2f123fd3" y="131.525919"/>
     <use style="fill:#1f77b4;stroke:#1f77b4;" x="163.902812" xlink:href="#mde2f123fd3" y="137.184637"/>
     <use style="fill:#1f77b4;stroke:#1f77b4;" x="172.272812" xlink:href="#mde2f123fd3" y="143.212607"/>
     <use style="fill:#1f77b4;stroke:#1f77b4;" x="180.642812" xlink:href="#mde2f123fd3" y="146.942261"/>
     <use style="fill:#1f77b4;stroke:#1f77b4;" x="189.012812" xlink:href="#mde2f123fd3" y="146.377654"/>
     <use style="fill:#1f77b4;stroke:#1f77b4;" x="197.382812" xlink:href="#mde2f123fd3" y="140.714933"/>
     <use style="fill:#1f77b4;stroke:#1f77b4;" x="205.752813" xlink:href="#mde2f123fd3" y="130.54348"/>
     <use style="fill:#1f77b4;stroke:#1f77b4;" x="214.122813" xlink:href="#mde2f123fd3" y="117.616658"/>
     <use style="fill:#1f77b4;stroke:#1f77b4;" x="222.492812" xlink:href="#mde2f123fd3" y="104.25373"/>
     <use style="fill:#1f77b4;stroke:#1f77b4;" x="230.862812" xlink:href="#mde2f123fd3" y="92.613817"/>
     <use style="fill:#1f77b4;stroke:#1f77b4;" x="239.232812" xlink:href="#mde2f123fd3" y="84.153751"/>
     <use style="fill:#1f77b4;stroke:#1f77b4;" x="247.602812" xlink:href="#mde2f123fd3" y="79.482684"/>
     <use style="fill:#1f77b4;stroke:#1f77b4;" x="255.972813" xlink:href="#mde2f123fd3" y="78.603893"/>
     <use style="fill:#1f77b4;stroke:#1f77b4;" x="264.342812" xlink:href="#mde2f123fd3" y="81.325221"/>
     <use style="fill:#1f77b4;stroke:#1f77b4;" x="272.712812" xlink:href="#mde2f123fd3" y="87.55746"/>
     <use style="fill:#1f77b4;stroke:#1f77b4;" x="281.082812" xlink:href="#mde2f123fd3" y="97.334379"/>
     <use style="fill:#1f77b4;stroke:#1f77b4;" x="289.452812" xlink:href="#mde2f123fd3" y="110.586032"/>
     <use style="fill:#1f77b4;stroke:#1f77b4;" x="297.822812" xlink:href="#mde2f123fd3" y="126.841296"/>
     <use style="fill:#1f77b4;stroke:#1f77b4;" x="306.192812" xlink:href="#mde2f123fd3" y="145.050221"/>
     <use style="fill:#1f77b4;stroke:#1f77b4;" x="314.562812" xlink:href="#mde2f123fd3" y="163.625738"/>
     <use style="fill:#1f77b4;stroke:#1f77b4;" x="322.932812" xlink:href="#mde2f123fd3" y="180.687669"/>
     <use style="fill:#1f77b4;stroke:#1f77b4;" x="331.302812" xlink:href="#mde2f123fd3" y="194.410906"/>
     <use style="fill:#1f77b4;stroke:#1f77b4;" x="339.672812" xlink:href="#mde2f123fd3" y="203.356209"/>
     <use style="fill:#1f77b4;stroke:#1f77b4;" x="348.042812" xlink:href="#mde2f123fd3" y="206.691481"/>
     <use style="fill:#1f77b4;stroke:#1f77b4;" x="356.412812" xlink:href="#mde2f123fd3" y="204.281453"/>
     <use style="fill:#1f77b4;stroke:#1f77b4;" x="364.782812" xlink:href="#mde2f123fd3" y="196.698695"/>
     <use style="fill:#1f77b4;stroke:#1f77b4;" x="373.152812" xlink:href="#mde2f123fd3" y="185.229955"/>
     <use style="fill:#1f77b4;stroke:#1f77b4;" x="381.522812" xlink:href="#mde2f123fd3" y="171.878934"/>
     <use style="fill:#1f77b4;stroke:#1f77b4;" x="389.892812" xlink:href="#mde2f123fd3" y="159.241386"/>
    </g>
   </g>
   <g id="line2d_18">
    <path clip-path="url(#pb96230fbf0)" d="M 55.092813 194.62058 
L 63.462813 212.106391 
L 71.832812 225.875031 
L 80.202813 235.049408 
L 88.572812 239.476693 
L 96.942813 239.793932 
L 105.312813 237.300548 
L 113.682813 233.64032 
L 122.052813 230.369166 
L 130.422812 228.53778 
L 138.792812 228.430459 
L 147.162813 229.557468 
L 155.532813 230.904464 
L 163.902812 231.335873 
L 172.272812 229.983947 
L 180.642812 226.466658 
L 189.012812 220.861583 
L 197.382812 213.480363 
L 205.752813 204.587327 
L 214.122813 194.234685 
L 222.492812 182.315447 
L 230.862812 168.786838 
L 239.232812 153.885987 
L 247.602812 138.161953 
L 255.972813 122.31131 
L 264.342812 107.001772 
L 272.712812 92.900957 
L 281.082812 80.922172 
L 289.452812 72.41746 
L 297.822812 68.972029 
L 306.192812 71.715736 
L 314.562812 80.493446 
L 322.932812 93.472582 
L 331.302812 107.581717 
L 339.672812 119.667577 
L 348.042812 127.784852 
L 356.412812 131.926768 
L 364.782812 133.829576 
L 373.152812 136.013286 
L 381.522812 140.611464 
L 389.892812 148.578737 
" style="fill:none;stroke:#ff7f0e;stroke-linecap:round;stroke-width:1.5;"/>
    <defs>
     <path d="M 0 1.5 
C 0.397805 1.5 0.77937 1.341951 1.06066 1.06066 
C 1.341951 0.77937 1.5 0.397805 1.5 0 
C 1.5 -0.397805 1.341951 -0.77937 1.06066 -1.06066 
C 0.77937 -1.341951 0.397805 -1.5 0 -1.5 
C -0.397805 -1.5 -0.77937 -1.341951 -1.06066 -1.06066 
C -1.341951 -0.77937 -1.5 -0.397805 -1.5 0 
C -1.5 0.397805 -1.341951 0.77937 -1.06066 1.06066 
C -0.77937 1.341951 -0.397805 1.5 0 1.5 
z
" id="m73359ca941" style="stroke:#ff7f0e;"/>
    </defs>
    <g clip-path="url(#pb96230fbf0)">
     <use style="fill:#ff7f0e;stroke:#ff7f0e;" x="55.092813" xlink:href="#m73359ca941" y="194.62058"/>
     <use style="fill:#ff7f0e;stroke:#ff7f0e;" x="63.462813" xlink:href="#m73359ca941" y="212.106391"/>
     <use style="fill:#ff7f0e;stroke:#ff7f0e;" x="71.832812" xlink:href="#m73359ca941" y="225.875031"/>
     <use style="fill:#ff7f0e;stroke:#ff7f0e;" x="80.202813" xlink:href="#m73359ca941" y="235.049408"/>
     <use style="fill:#ff7f0e;stroke:#ff7f0e;" x="88.572812" xlink:href="#m73359ca941" y="239.476693"/>
     <use style="fill:#ff7f0e;stroke:#ff7f0e;" x="96.942813" xlink:href="#m73359ca941" y="239.793932"/>
     <use style="fill:#ff7f0e;stroke:#ff7f0e;" x="105.312813" xlink:href="#m73359ca941" y="237.300548"/>
     <use style="fill:#ff7f0e;stroke:#ff7f0e;" x="113.682813" xlink:href="#m73359ca941" y="233.64032"/>
     <use style="fill:#ff7f0e;stroke:#ff7f0e;" x="122.052813" xlink:href="#m73359ca941" y="230.369166"/>
     <use style="fill:#ff7f0e;stroke:#ff7f0e;" x="130.422812" xlink:href="#m73359ca941" y="228.53778"/>
     <use style="fill:#ff7f0e;stroke:#ff7f0e;" x="138.792812" xlink:href="#m73359ca941" y="228.430459"/>
     <use style="fill:#ff7f0e;stroke:#ff7f0e;" x="147.162813" xlink:href="#m73359ca941" y="229.557468"/>
     <use style="fill:#ff7f0e;stroke:#ff7f0e;" x="155.532813" xlink:href="#m73359ca941" y="230.904464"/>
     <use style="fill:#ff7f0e;stroke:#ff7f0e;" x="163.902812" xlink:href="#m73359ca941" y="231.335873"/>
     <use style="fill:#ff7f0e;stroke:#ff7f0e;" x="172.272812" xlink:href="#m73359ca941" y="229.983947"/>
     <use style="fill:#ff7f0e;stroke:#ff7f0e;" x="180.642812" xlink:href="#m73359ca941" y="226.466658"/>
     <use style="fill:#ff7f0e;stroke:#ff7f0e;" x="189.012812" xlink:href="#m73359ca941" y="220.861583"/>
     <use style="fill:#ff7f0e;stroke:#ff7f0e;" x="197.382812" xlink:href="#m73359ca941" y="213.480363"/>
     <use style="fill:#ff7f0e;stroke:#ff7f0e;" x="205.752813" xlink:href="#m73359ca941" y="204.587327"/>
     <use style="fill:#ff7f0e;stroke:#ff7f0e;" x="214.122813" xlink:href="#m73359ca941" y="194.234685"/>
     <use style="fill:#ff7f0e;stroke:#ff7f0e;" x="222.492812" xlink:href="#m73359ca941" y="182.315447"/>
     <use style="fill:#ff7f0e;stroke:#ff7f0e;" x="230.862812" xlink:href="#m73359ca941" y="168.786838"/>
     <use style="fill:#ff7f0e;stroke:#ff7f0e;" x="239.232812" xlink:href="#m73359ca941" y="153.885987"/>
     <use style="fill:#ff7f0e;stroke:#ff7f0e;" x="247.602812" xlink:href="#m73359ca941" y="138.161953"/>
     <use style="fill:#ff7f0e;stroke:#ff7f0e;" x="255.972813" xlink:href="#m73359ca941" y="122.31131"/>
     <use style="fill:#ff7f0e;stroke:#ff7f0e;" x="264.342812" xlink:href="#m73359ca941" y="107.001772"/>
     <use style="fill:#ff7f0e;stroke:#ff7f0e;" x="272.712812" xlink:href="#m73359ca941" y="92.900957"/>
     <use style="fill:#ff7f0e;stroke:#ff7f0e;" x="281.082812" xlink:href="#m73359ca941" y="80.922172"/>
     <use style="fill:#ff7f0e;stroke:#ff7f0e;" x="289.452812" xlink:href="#m73359ca941" y="72.41746"/>
     <use style="fill:#ff7f0e;stroke:#ff7f0e;" x="297.822812" xlink:href="#m73359ca941" y="68.972029"/>
     <use style="fill:#ff7f0e;stroke:#ff7f0e;" x="306.192812" xlink:href="#m73359ca941" y="71.715736"/>
     <use style="fill:#ff7f0e;stroke:#ff7f0e;" x="314.562812" xlink:href="#m73359ca941" y="80.493446"/>
     <use style="fill:#ff7f0e;stroke:#ff7f0e;" x="322.932812" xlink:href="#m73359ca941" y="93.472582"/>
     <use style="fill:#ff7f0e;stroke:#ff7f0e;" x="331.302812" xlink:href="#m73359ca941" y="107.581717"/>
     <use style="fill:#ff7f0e;stroke:#ff7f0e;" x="339.672812" xlink:href="#m73359ca941" y="119.667577"/>
     <use style="fill:#ff7f0e;stroke:#ff7f0e;" x="348.042812" xlink:href="#m73359ca941" y="127.784852"/>
     <use style="fill:#ff7f0e;stroke:#ff7f0e;" x="356.412812" xlink:href="#m73359ca941" y="131.926768"/>
     <use style="fill:#ff7f0e;stroke:#ff7f0e;" x="364.782812" xlink:href="#m73359ca941" y="133.829576"/>
     <use style="fill:#ff7f0e;stroke:#ff7f0e;" x="373.152812" xlink:href="#m73359ca941" y="136.013286"/>
     <use style="fill:#ff7f0e;stroke:#ff7f0e;" x="381.522812" xlink:href="#m73359ca941" y="140.611464"/>
     <use style="fill:#ff7f0e;stroke:#ff7f0e;" x="389.892812" xlink:href="#m73359ca941" y="148.578737"/>
    </g>
   </g>
   <g id="line2d_19">
    <path clip-path="url(#pb96230fbf0)" d="M 55.092813 243.311864 
L 63.462813 229.987573 
L 71.832812 214.645937 
L 80.202813 198.317403 
L 88.572812 182.336085 
L 96.942813 168.154428 
L 105.312813 157.042294 
L 113.682813 149.726559 
L 122.052813 146.101977 
L 130.422812 145.164795 
L 138.792812 145.252558 
L 147.162813 144.538313 
L 155.532813 141.601113 
L 163.902812 135.853841 
L 172.272812 127.679764 
L 180.642812 118.267282 
L 189.012812 109.25588 
L 197.382812 102.346959 
L 205.752813 98.980914 
L 214.122813 100.092406 
L 222.492812 105.911882 
L 230.862812 115.821877 
L 239.232812 128.355962 
L 247.602812 141.449881 
L 255.972813 152.961761 
L 264.342812 161.314732 
L 272.712812 165.997776 
L 281.082812 167.68694 
L 289.452812 167.919759 
L 297.822812 168.472918 
L 306.192812 170.727488 
L 314.562812 175.281381 
L 322.932812 181.908593 
L 331.302812 189.779164 
L 339.672812 197.758548 
L 348.042812 204.647198 
L 356.412812 209.340533 
L 364.782812 210.9786 
L 373.152812 209.144544 
L 381.522812 204.084026 
L 389.892812 196.836983 
" style="fill:none;stroke:#2ca02c;stroke-linecap:round;stroke-width:1.5;"/>
    <defs>
     <path d="M 0 1.5 
C 0.397805 1.5 0.77937 1.341951 1.06066 1.06066 
C 1.341951 0.77937 1.5 0.397805 1.5 0 
C 1.5 -0.397805 1.341951 -0.77937 1.06066 -1.06066 
C 0.77937 -1.341951 0.397805 -1.5 0 -1.5 
C -0.397805 -1.5 -0.77937 -1.341951 -1.06066 -1.06066 
C -1.341951 -0.77937 -1.5 -0.397805 -1.5 0 
C -1.5 0.397805 -1.341951 0.77937 -1.06066 1.06066 
C -0.77937 1.341951 -0.397805 1.5 0 1.5 
z
" id="mc53a31d3b6" style="stroke:#2ca02c;"/>
    </defs>
    <g clip-path="url(#pb96230fbf0)">
     <use style="fill:#2ca02c;stroke:#2ca02c;" x="55.092813" xlink:href="#mc53a31d3b6" y="243.311864"/>
     <use style="fill:#2ca02c;stroke:#2ca02c;" x="63.462813" xlink:href="#mc53a31d3b6" y="229.987573"/>
     <use style="fill:#2ca02c;stroke:#2ca02c;" x="71.832812" xlink:href="#mc53a31d3b6" y="214.645937"/>
     <use style="fill:#2ca02c;stroke:#2ca02c;" x="80.202813" xlink:href="#mc53a31d3b6" y="198.317403"/>
     <use style="fill:#2ca02c;stroke:#2ca02c;" x="88.572812" xlink:href="#mc53a31d3b6" y="182.336085"/>
     <use style="fill:#2ca02c;stroke:#2ca02c;" x="96.942813" xlink:href="#mc53a31d3b6" y="168.154428"/>
     <use style="fill:#2ca02c;stroke:#2ca02c;" x="105.312813" xlink:href="#mc53a31d3b6" y="157.042294"/>
     <use style="fill:#2ca02c;stroke:#2ca02c;" x="113.682813" xlink:href="#mc53a31d3b6" y="149.726559"/>
     <use style="fill:#2ca02c;stroke:#2ca02c;" x="122.052813" xlink:href="#mc53a31d3b6" y="146.101977"/>
     <use style="fill:#2ca02c;stroke:#2ca02c;" x="130.422812" xlink:href="#mc53a31d3b6" y="145.164795"/>
     <use style="fill:#2ca02c;stroke:#2ca02c;" x="138.792812" xlink:href="#mc53a31d3b6" y="145.252558"/>
     <use style="fill:#2ca02c;stroke:#2ca02c;" x="147.162813" xlink:href="#mc53a31d3b6" y="144.538313"/>
     <use style="fill:#2ca02c;stroke:#2ca02c;" x="155.532813" xlink:href="#mc53a31d3b6" y="141.601113"/>
     <use style="fill:#2ca02c;stroke:#2ca02c;" x="163.902812" xlink:href="#mc53a31d3b6" y="135.853841"/>
     <use style="fill:#2ca02c;stroke:#2ca02c;" x="172.272812" xlink:href="#mc53a31d3b6" y="127.679764"/>
     <use style="fill:#2ca02c;stroke:#2ca02c;" x="180.642812" xlink:href="#mc53a31d3b6" y="118.267282"/>
     <use style="fill:#2ca02c;stroke:#2ca02c;" x="189.012812" xlink:href="#mc53a31d3b6" y="109.25588"/>
     <use style="fill:#2ca02c;stroke:#2ca02c;" x="197.382812" xlink:href="#mc53a31d3b6" y="102.346959"/>
     <use style="fill:#2ca02c;stroke:#2ca02c;" x="205.752813" xlink:href="#mc53a31d3b6" y="98.980914"/>
     <use style="fill:#2ca02c;stroke:#2ca02c;" x="214.122813" xlink:href="#mc53a31d3b6" y="100.092406"/>
     <use style="fill:#2ca02c;stroke:#2ca02c;" x="222.492812" xlink:href="#mc53a31d3b6" y="105.911882"/>
     <use style="fill:#2ca02c;stroke:#2ca02c;" x="230.862812" xlink:href="#mc53a31d3b6" y="115.821877"/>
     <use style="fill:#2ca02c;stroke:#2ca02c;" x="239.232812" xlink:href="#mc53a31d3b6" y="128.355962"/>
     <use style="fill:#2ca02c;stroke:#2ca02c;" x="247.602812" xlink:href="#mc53a31d3b6" y="141.449881"/>
     <use style="fill:#2ca02c;stroke:#2ca02c;" x="255.972813" xlink:href="#mc53a31d3b6" y="152.961761"/>
     <use style="fill:#2ca02c;stroke:#2ca02c;" x="264.342812" xlink:href="#mc53a31d3b6" y="161.314732"/>
     <use style="fill:#2ca02c;stroke:#2ca02c;" x="272.712812" xlink:href="#mc53a31d3b6" y="165.997776"/>
     <use style="fill:#2ca02c;stroke:#2ca02c;" x="281.082812" xlink:href="#mc53a31d3b6" y="167.68694"/>
     <use style="fill:#2ca02c;stroke:#2ca02c;" x="289.452812" xlink:href="#mc53a31d3b6" y="167.919759"/>
     <use style="fill:#2ca02c;stroke:#2ca02c;" x="297.822812" xlink:href="#mc53a31d3b6" y="168.472918"/>
     <use style="fill:#2ca02c;stroke:#2ca02c;" x="306.192812" xlink:href="#mc53a31d3b6" y="170.727488"/>
     <use style="fill:#2ca02c;stroke:#2ca02c;" x="314.562812" xlink:href="#mc53a31d3b6" y="175.281381"/>
     <use style="fill:#2ca02c;stroke:#2ca02c;" x="322.932812" xlink:href="#mc53a31d3b6" y="181.908593"/>
     <use style="fill:#2ca02c;stroke:#2ca02c;" x="331.302812" xlink:href="#mc53a31d3b6" y="189.779164"/>
     <use style="fill:#2ca02c;stroke:#2ca02c;" x="339.672812" xlink:href="#mc53a31d3b6" y="197.758548"/>
     <use style="fill:#2ca02c;stroke:#2ca02c;" x="348.042812" xlink:href="#mc53a31d3b6" y="204.647198"/>
     <use style="fill:#2ca02c;stroke:#2ca02c;" x="356.412812" xlink:href="#mc53a31d3b6" y="209.340533"/>
     <use style="fill:#2ca02c;stroke:#2ca02c;" x="364.782812" xlink:href="#mc53a31d3b6" y="210.9786"/>
     <use style="fill:#2ca02c;stroke:#2ca02c;" x="373.152812" xlink:href="#mc53a31d3b6" y="209.144544"/>
     <use style="fill:#2ca02c;stroke:#2ca02c;" x="381.522812" xlink:href="#mc53a31d3b6" y="204.084026"/>
     <use style="fill:#2ca02c;stroke:#2ca02c;" x="389.892812" xlink:href="#mc53a31d3b6" y="196.836983"/>
    </g>
   </g>
   <g id="line2d_20">
    <path clip-path="url(#pb96230fbf0)" d="M 55.092813 177.813957 
L 63.462813 181.836652 
L 71.832812 182.24063 
L 80.202813 177.353692 
L 88.572812 166.39753 
L 96.942813 150.075285 
L 105.312813 130.763313 
L 113.682813 112.120782 
L 122.052813 98.195698 
L 130.422812 92.341073 
L 138.792812 96.32082 
L 147.162813 109.877591 
L 155.532813 130.855135 
L 163.902812 155.805533 
L 172.272812 180.888969 
L 180.642812 202.787508 
L 189.012812 219.338199 
L 197.382812 229.695344 
L 205.752813 234.045293 
L 214.122813 233.106739 
L 222.492812 227.716352 
L 230.862812 218.678313 
L 239.232812 206.844233 
L 247.602812 193.245777 
L 255.972813 179.113105 
L 264.342812 165.732652 
L 272.712812 154.213279 
L 281.082812 145.270227 
L 289.452812 139.113437 
L 297.822812 135.484592 
L 306.192812 133.8371 
L 314.562812 133.587277 
L 322.932812 134.308462 
L 331.302812 135.755267 
L 339.672812 137.717072 
L 348.042812 139.837598 
L 356.412812 141.581435 
L 364.782812 142.427962 
L 373.152812 142.200907 
L 381.522812 141.329149 
L 389.892812 140.854247 
" style="fill:none;stroke:#d62728;stroke-linecap:round;stroke-width:1.5;"/>
    <defs>
     <path d="M 0 1.5 
C 0.397805 1.5 0.77937 1.341951 1.06066 1.06066 
C 1.341951 0.77937 1.5 0.397805 1.5 0 
C 1.5 -0.397805 1.341951 -0.77937 1.06066 -1.06066 
C 0.77937 -1.341951 0.397805 -1.5 0 -1.5 
C -0.397805 -1.5 -0.77937 -1.341951 -1.06066 -1.06066 
C -1.341951 -0.77937 -1.5 -0.397805 -1.5 0 
C -1.5 0.397805 -1.341951 0.77937 -1.06066 1.06066 
C -0.77937 1.341951 -0.397805 1.5 0 1.5 
z
" id="m19d0f12be5" style="stroke:#d62728;"/>
    </defs>
    <g clip-path="url(#pb96230fbf0)">
     <use style="fill:#d62728;stroke:#d62728;" x="55.092813" xlink:href="#m19d0f12be5" y="177.813957"/>
     <use style="fill:#d62728;stroke:#d62728;" x="63.462813" xlink:href="#m19d0f12be5" y="181.836652"/>
     <use style="fill:#d62728;stroke:#d62728;" x="71.832812" xlink:href="#m19d0f12be5" y="182.24063"/>
     <use style="fill:#d62728;stroke:#d62728;" x="80.202813" xlink:href="#m19d0f12be5" y="177.353692"/>
     <use style="fill:#d62728;stroke:#d62728;" x="88.572812" xlink:href="#m19d0f12be5" y="166.39753"/>
     <use style="fill:#d62728;stroke:#d62728;" x="96.942813" xlink:href="#m19d0f12be5" y="150.075285"/>
     <use style="fill:#d62728;stroke:#d62728;" x="105.312813" xlink:href="#m19d0f12be5" y="130.763313"/>
     <use style="fill:#d62728;stroke:#d62728;" x="113.682813" xlink:href="#m19d0f12be5" y="112.120782"/>
     <use style="fill:#d62728;stroke:#d62728;" x="122.052813" xlink:href="#m19d0f12be5" y="98.195698"/>
     <use style="fill:#d62728;stroke:#d62728;" x="130.422812" xlink:href="#m19d0f12be5" y="92.341073"/>
     <use style="fill:#d62728;stroke:#d62728;" x="138.792812" xlink:href="#m19d0f12be5" y="96.32082"/>
     <use style="fill:#d62728;stroke:#d62728;" x="147.162813" xlink:href="#m19d0f12be5" y="109.877591"/>
     <use style="fill:#d62728;stroke:#d62728;" x="155.532813" xlink:href="#m19d0f12be5" y="130.855135"/>
     <use style="fill:#d62728;stroke:#d62728;" x="163.902812" xlink:href="#m19d0f12be5" y="155.805533"/>
     <use style="fill:#d62728;stroke:#d62728;" x="172.272812" xlink:href="#m19d0f12be5" y="180.888969"/>
     <use style="fill:#d62728;stroke:#d62728;" x="180.642812" xlink:href="#m19d0f12be5" y="202.787508"/>
     <use style="fill:#d62728;stroke:#d62728;" x="189.012812" xlink:href="#m19d0f12be5" y="219.338199"/>
     <use style="fill:#d62728;stroke:#d62728;" x="197.382812" xlink:href="#m19d0f12be5" y="229.695344"/>
     <use style="fill:#d62728;stroke:#d62728;" x="205.752813" xlink:href="#m19d0f12be5" y="234.045293"/>
     <use style="fill:#d62728;stroke:#d62728;" x="214.122813" xlink:href="#m19d0f12be5" y="233.106739"/>
     <use style="fill:#d62728;stroke:#d62728;" x="222.492812" xlink:href="#m19d0f12be5" y="227.716352"/>
     <use style="fill:#d62728;stroke:#d62728;" x="230.862812" xlink:href="#m19d0f12be5" y="218.678313"/>
     <use style="fill:#d62728;stroke:#d62728;" x="239.232812" xlink:href="#m19d0f12be5" y="206.844233"/>
     <use style="fill:#d62728;stroke:#d62728;" x="247.602812" xlink:href="#m19d0f12be5" y="193.245777"/>
     <use style="fill:#d62728;stroke:#d62728;" x="255.972813" xlink:href="#m19d0f12be5" y="179.113105"/>
     <use style="fill:#d62728;stroke:#d62728;" x="264.342812" xlink:href="#m19d0f12be5" y="165.732652"/>
     <use style="fill:#d62728;stroke:#d62728;" x="272.712812" xlink:href="#m19d0f12be5" y="154.213279"/>
     <use style="fill:#d62728;stroke:#d62728;" x="281.082812" xlink:href="#m19d0f12be5" y="145.270227"/>
     <use style="fill:#d62728;stroke:#d62728;" x="289.452812" xlink:href="#m19d0f12be5" y="139.113437"/>
     <use style="fill:#d62728;stroke:#d62728;" x="297.822812" xlink:href="#m19d0f12be5" y="135.484592"/>
     <use style="fill:#d62728;stroke:#d62728;" x="306.192812" xlink:href="#m19d0f12be5" y="133.8371"/>
     <use style="fill:#d62728;stroke:#d62728;" x="314.562812" xlink:href="#m19d0f12be5" y="133.587277"/>
     <use style="fill:#d62728;stroke:#d62728;" x="322.932812" xlink:href="#m19d0f12be5" y="134.308462"/>
     <use style="fill:#d62728;stroke:#d62728;" x="331.302812" xlink:href="#m19d0f12be5" y="135.755267"/>
     <use style="fill:#d62728;stroke:#d62728;" x="339.672812" xlink:href="#m19d0f12be5" y="137.717072"/>
     <use style="fill:#d62728;stroke:#d62728;" x="348.042812" xlink:href="#m19d0f12be5" y="139.837598"/>
     <use style="fill:#d62728;stroke:#d62728;" x="356.412812" xlink:href="#m19d0f12be5" y="141.581435"/>
     <use style="fill:#d62728;stroke:#d62728;" x="364.782812" xlink:href="#m19d0f12be5" y="142.427962"/>
     <use style="fill:#d62728;stroke:#d62728;" x="373.152812" xlink:href="#m19d0f12be5" y="142.200907"/>
     <use style="fill:#d62728;stroke:#d62728;" x="381.522812" xlink:href="#m19d0f12be5" y="141.329149"/>
     <use style="fill:#d62728;stroke:#d62728;" x="389.892812" xlink:href="#m19d0f12be5" y="140.854247"/>
    </g>
   </g>
   <g id="line2d_21">
    <path clip-path="url(#pb96230fbf0)" d="M 55.092813 213.114428 
L 63.462813 217.155989 
L 71.832812 213.170388 
L 80.202813 199.963719 
L 88.572812 178.336879 
L 96.942813 151.105307 
L 105.312813 122.428113 
L 113.682813 96.590876 
L 122.052813 76.699535 
L 130.422812 63.855682 
L 138.792812 57.167435 
L 147.162813 54.510398 
L 155.532813 53.579277 
L 163.902812 52.706735 
L 172.272812 51.174338 
L 180.642812 49.077244 
L 189.012812 46.988818 
L 197.382812 45.639136 
L 205.752813 45.691372 
L 214.122813 47.617367 
L 222.492812 51.667767 
L 230.862812 57.930561 
L 239.232812 66.420502 
L 247.602812 77.086832 
L 255.972813 89.659138 
L 264.342812 103.389568 
L 272.712812 116.894187 
L 281.082812 128.310863 
L 289.452812 135.831464 
L 297.822812 138.425625 
L 306.192812 136.41145 
L 314.562812 131.554441 
L 322.932812 126.578312 
L 331.302812 124.240333 
L 339.672812 126.323331 
L 348.042812 132.938234 
L 356.412812 142.40812 
L 364.782812 151.782428 
L 373.152812 157.803738 
L 381.522812 158.000151 
L 389.892812 151.541774 
" style="fill:none;stroke:#9467bd;stroke-linecap:round;stroke-width:1.5;"/>
    <defs>
     <path d="M 0 1.5 
C 0.397805 1.5 0.77937 1.341951 1.06066 1.06066 
C 1.341951 0.77937 1.5 0.397805 1.5 0 
C 1.5 -0.397805 1.341951 -0.77937 1.06066 -1.06066 
C 0.77937 -1.341951 0.397805 -1.5 0 -1.5 
C -0.397805 -1.5 -0.77937 -1.341951 -1.06066 -1.06066 
C -1.341951 -0.77937 -1.5 -0.397805 -1.5 0 
C -1.5 0.397805 -1.341951 0.77937 -1.06066 1.06066 
C -0.77937 1.341951 -0.397805 1.5 0 1.5 
z
" id="mf6b6b85261" style="stroke:#9467bd;"/>
    </defs>
    <g clip-path="url(#pb96230fbf0)">
     <use style="fill:#9467bd;stroke:#9467bd;" x="55.092813" xlink:href="#mf6b6b85261" y="213.114428"/>
     <use style="fill:#9467bd;stroke:#9467bd;" x="63.462813" xlink:href="#mf6b6b85261" y="217.155989"/>
     <use style="fill:#9467bd;stroke:#9467bd;" x="71.832812" xlink:href="#mf6b6b85261" y="213.170388"/>
     <use style="fill:#9467bd;stroke:#9467bd;" x="80.202813" xlink:href="#mf6b6b85261" y="199.963719"/>
     <use style="fill:#9467bd;stroke:#9467bd;" x="88.572812" xlink:href="#mf6b6b85261" y="178.336879"/>
     <use style="fill:#9467bd;stroke:#9467bd;" x="96.942813" xlink:href="#mf6b6b85261" y="151.105307"/>
     <use style="fill:#9467bd;stroke:#9467bd;" x="105.312813" xlink:href="#mf6b6b85261" y="122.428113"/>
     <use style="fill:#9467bd;stroke:#9467bd;" x="113.682813" xlink:href="#mf6b6b85261" y="96.590876"/>
     <use style="fill:#9467bd;stroke:#9467bd;" x="122.052813" xlink:href="#mf6b6b85261" y="76.699535"/>
     <use style="fill:#9467bd;stroke:#9467bd;" x="130.422812" xlink:href="#mf6b6b85261" y="63.855682"/>
     <use style="fill:#9467bd;stroke:#9467bd;" x="138.792812" xlink:href="#mf6b6b85261" y="57.167435"/>
     <use style="fill:#9467bd;stroke:#9467bd;" x="147.162813" xlink:href="#mf6b6b85261" y="54.510398"/>
     <use style="fill:#9467bd;stroke:#9467bd;" x="155.532813" xlink:href="#mf6b6b85261" y="53.579277"/>
     <use style="fill:#9467bd;stroke:#9467bd;" x="163.902812" xlink:href="#mf6b6b85261" y="52.706735"/>
     <use style="fill:#9467bd;stroke:#9467bd;" x="172.272812" xlink:href="#mf6b6b85261" y="51.174338"/>
     <use style="fill:#9467bd;stroke:#9467bd;" x="180.642812" xlink:href="#mf6b6b85261" y="49.077244"/>
     <use style="fill:#9467bd;stroke:#9467bd;" x="189.012812" xlink:href="#mf6b6b85261" y="46.988818"/>
     <use style="fill:#9467bd;stroke:#9467bd;" x="197.382812" xlink:href="#mf6b6b85261" y="45.639136"/>
     <use style="fill:#9467bd;stroke:#9467bd;" x="205.752813" xlink:href="#mf6b6b85261" y="45.691372"/>
     <use style="fill:#9467bd;stroke:#9467bd;" x="214.122813" xlink:href="#mf6b6b85261" y="47.617367"/>
     <use style="fill:#9467bd;stroke:#9467bd;" x="222.492812" xlink:href="#mf6b6b85261" y="51.667767"/>
     <use style="fill:#9467bd;stroke:#9467bd;" x="230.862812" xlink:href="#mf6b6b85261" y="57.930561"/>
     <use style="fill:#9467bd;stroke:#9467bd;" x="239.232812" xlink:href="#mf6b6b85261" y="66.420502"/>
     <use style="fill:#9467bd;stroke:#9467bd;" x="247.602812" xlink:href="#mf6b6b85261" y="77.086832"/>
     <use style="fill:#9467bd;stroke:#9467bd;" x="255.972813" xlink:href="#mf6b6b85261" y="89.659138"/>
     <use style="fill:#9467bd;stroke:#9467bd;" x="264.342812" xlink:href="#mf6b6b85261" y="103.389568"/>
     <use style="fill:#9467bd;stroke:#9467bd;" x="272.712812" xlink:href="#mf6b6b85261" y="116.894187"/>
     <use style="fill:#9467bd;stroke:#9467bd;" x="281.082812" xlink:href="#mf6b6b85261" y="128.310863"/>
     <use style="fill:#9467bd;stroke:#9467bd;" x="289.452812" xlink:href="#mf6b6b85261" y="135.831464"/>
     <use style="fill:#9467bd;stroke:#9467bd;" x="297.822812" xlink:href="#mf6b6b85261" y="138.425625"/>
     <use style="fill:#9467bd;stroke:#9467bd;" x="306.192812" xlink:href="#mf6b6b85261" y="136.41145"/>
     <use style="fill:#9467bd;stroke:#9467bd;" x="314.562812" xlink:href="#mf6b6b85261" y="131.554441"/>
     <use style="fill:#9467bd;stroke:#9467bd;" x="322.932812" xlink:href="#mf6b6b85261" y="126.578312"/>
     <use style="fill:#9467bd;stroke:#9467bd;" x="331.302812" xlink:href="#mf6b6b85261" y="124.240333"/>
     <use style="fill:#9467bd;stroke:#9467bd;" x="339.672812" xlink:href="#mf6b6b85261" y="126.323331"/>
     <use style="fill:#9467bd;stroke:#9467bd;" x="348.042812" xlink:href="#mf6b6b85261" y="132.938234"/>
     <use style="fill:#9467bd;stroke:#9467bd;" x="356.412812" xlink:href="#mf6b6b85261" y="142.40812"/>
     <use style="fill:#9467bd;stroke:#9467bd;" x="364.782812" xlink:href="#mf6b6b85261" y="151.782428"/>
     <use style="fill:#9467bd;stroke:#9467bd;" x="373.152812" xlink:href="#mf6b6b85261" y="157.803738"/>
     <use style="fill:#9467bd;stroke:#9467bd;" x="381.522812" xlink:href="#mf6b6b85261" y="158.000151"/>
     <use style="fill:#9467bd;stroke:#9467bd;" x="389.892812" xlink:href="#mf6b6b85261" y="151.541774"/>
    </g>
   </g>
   <g id="patch_3">
    <path d="M 55.092813 253.1955 
L 55.092813 35.7555 
" style="fill:none;stroke:#ffffff;stroke-linecap:square;stroke-linejoin:miter;stroke-width:0.8;"/>
   </g>
   <g id="patch_4">
    <path d="M 389.892812 253.1955 
L 389.892812 35.7555 
" style="fill:none;stroke:#ffffff;stroke-linecap:square;stroke-linejoin:miter;stroke-width:0.8;"/>
   </g>
   <g id="patch_5">
    <path d="M 55.092813 253.1955 
L 389.892812 253.1955 
" style="fill:none;stroke:#ffffff;stroke-linecap:square;stroke-linejoin:miter;stroke-width:0.8;"/>
   </g>
   <g id="patch_6">
    <path d="M 55.092813 35.7555 
L 389.892812 35.7555 
" style="fill:none;stroke:#ffffff;stroke-linecap:square;stroke-linejoin:miter;stroke-width:0.8;"/>
   </g>
   <g id="text_19">
    <!-- 5 different function realizations at 41 points -->
    <g style="fill:#262626;" transform="translate(90.584688 16.318125)scale(0.12 -0.12)">
     <defs>
      <path id="DejaVuSans-20" transform="scale(0.015625)"/>
      <path d="M 2906 2969 
L 2906 4863 
L 3481 4863 
L 3481 0 
L 2906 0 
L 2906 525 
Q 2725 213 2448 61 
Q 2172 -91 1784 -91 
Q 1150 -91 751 415 
Q 353 922 353 1747 
Q 353 2572 751 3078 
Q 1150 3584 1784 3584 
Q 2172 3584 2448 3432 
Q 2725 3281 2906 2969 
z
M 947 1747 
Q 947 1113 1208 752 
Q 1469 391 1925 391 
Q 2381 391 2643 752 
Q 2906 1113 2906 1747 
Q 2906 2381 2643 2742 
Q 2381 3103 1925 3103 
Q 1469 3103 1208 2742 
Q 947 2381 947 1747 
z
" id="DejaVuSans-64" transform="scale(0.015625)"/>
      <path d="M 603 3500 
L 1178 3500 
L 1178 0 
L 603 0 
L 603 3500 
z
M 603 4863 
L 1178 4863 
L 1178 4134 
L 603 4134 
L 603 4863 
z
" id="DejaVuSans-69" transform="scale(0.015625)"/>
      <path d="M 2375 4863 
L 2375 4384 
L 1825 4384 
Q 1516 4384 1395 4259 
Q 1275 4134 1275 3809 
L 1275 3500 
L 2222 3500 
L 2222 3053 
L 1275 3053 
L 1275 0 
L 697 0 
L 697 3053 
L 147 3053 
L 147 3500 
L 697 3500 
L 697 3744 
Q 697 4328 969 4595 
Q 1241 4863 1831 4863 
L 2375 4863 
z
" id="DejaVuSans-66" transform="scale(0.015625)"/>
      <path d="M 3597 1894 
L 3597 1613 
L 953 1613 
Q 991 1019 1311 708 
Q 1631 397 2203 397 
Q 2534 397 2845 478 
Q 3156 559 3463 722 
L 3463 178 
Q 3153 47 2828 -22 
Q 2503 -91 2169 -91 
Q 1331 -91 842 396 
Q 353 884 353 1716 
Q 353 2575 817 3079 
Q 1281 3584 2069 3584 
Q 2775 3584 3186 3129 
Q 3597 2675 3597 1894 
z
M 3022 2063 
Q 3016 2534 2758 2815 
Q 2500 3097 2075 3097 
Q 1594 3097 1305 2825 
Q 1016 2553 972 2059 
L 3022 2063 
z
" id="DejaVuSans-65" transform="scale(0.015625)"/>
      <path d="M 2631 2963 
Q 2534 3019 2420 3045 
Q 2306 3072 2169 3072 
Q 1681 3072 1420 2755 
Q 1159 2438 1159 1844 
L 1159 0 
L 581 0 
L 581 3500 
L 1159 3500 
L 1159 2956 
Q 1341 3275 1631 3429 
Q 1922 3584 2338 3584 
Q 2397 3584 2469 3576 
Q 2541 3569 2628 3553 
L 2631 2963 
z
" id="DejaVuSans-72" transform="scale(0.015625)"/>
      <path d="M 3513 2113 
L 3513 0 
L 2938 0 
L 2938 2094 
Q 2938 2591 2744 2837 
Q 2550 3084 2163 3084 
Q 1697 3084 1428 2787 
Q 1159 2491 1159 1978 
L 1159 0 
L 581 0 
L 581 3500 
L 1159 3500 
L 1159 2956 
Q 1366 3272 1645 3428 
Q 1925 3584 2291 3584 
Q 2894 3584 3203 3211 
Q 3513 2838 3513 2113 
z
" id="DejaVuSans-6e" transform="scale(0.015625)"/>
      <path d="M 1172 4494 
L 1172 3500 
L 2356 3500 
L 2356 3053 
L 1172 3053 
L 1172 1153 
Q 1172 725 1289 603 
Q 1406 481 1766 481 
L 2356 481 
L 2356 0 
L 1766 0 
Q 1100 0 847 248 
Q 594 497 594 1153 
L 594 3053 
L 172 3053 
L 172 3500 
L 594 3500 
L 594 4494 
L 1172 4494 
z
" id="DejaVuSans-74" transform="scale(0.015625)"/>
      <path d="M 544 1381 
L 544 3500 
L 1119 3500 
L 1119 1403 
Q 1119 906 1312 657 
Q 1506 409 1894 409 
Q 2359 409 2629 706 
Q 2900 1003 2900 1516 
L 2900 3500 
L 3475 3500 
L 3475 0 
L 2900 0 
L 2900 538 
Q 2691 219 2414 64 
Q 2138 -91 1772 -91 
Q 1169 -91 856 284 
Q 544 659 544 1381 
z
M 1991 3584 
L 1991 3584 
z
" id="DejaVuSans-75" transform="scale(0.015625)"/>
      <path d="M 3122 3366 
L 3122 2828 
Q 2878 2963 2633 3030 
Q 2388 3097 2138 3097 
Q 1578 3097 1268 2742 
Q 959 2388 959 1747 
Q 959 1106 1268 751 
Q 1578 397 2138 397 
Q 2388 397 2633 464 
Q 2878 531 3122 666 
L 3122 134 
Q 2881 22 2623 -34 
Q 2366 -91 2075 -91 
Q 1284 -91 818 406 
Q 353 903 353 1747 
Q 353 2603 823 3093 
Q 1294 3584 2113 3584 
Q 2378 3584 2631 3529 
Q 2884 3475 3122 3366 
z
" id="DejaVuSans-63" transform="scale(0.015625)"/>
      <path d="M 1959 3097 
Q 1497 3097 1228 2736 
Q 959 2375 959 1747 
Q 959 1119 1226 758 
Q 1494 397 1959 397 
Q 2419 397 2687 759 
Q 2956 1122 2956 1747 
Q 2956 2369 2687 2733 
Q 2419 3097 1959 3097 
z
M 1959 3584 
Q 2709 3584 3137 3096 
Q 3566 2609 3566 1747 
Q 3566 888 3137 398 
Q 2709 -91 1959 -91 
Q 1206 -91 779 398 
Q 353 888 353 1747 
Q 353 2609 779 3096 
Q 1206 3584 1959 3584 
z
" id="DejaVuSans-6f" transform="scale(0.015625)"/>
      <path d="M 2194 1759 
Q 1497 1759 1228 1600 
Q 959 1441 959 1056 
Q 959 750 1161 570 
Q 1363 391 1709 391 
Q 2188 391 2477 730 
Q 2766 1069 2766 1631 
L 2766 1759 
L 2194 1759 
z
M 3341 1997 
L 3341 0 
L 2766 0 
L 2766 531 
Q 2569 213 2275 61 
Q 1981 -91 1556 -91 
Q 1019 -91 701 211 
Q 384 513 384 1019 
Q 384 1609 779 1909 
Q 1175 2209 1959 2209 
L 2766 2209 
L 2766 2266 
Q 2766 2663 2505 2880 
Q 2244 3097 1772 3097 
Q 1472 3097 1187 3025 
Q 903 2953 641 2809 
L 641 3341 
Q 956 3463 1253 3523 
Q 1550 3584 1831 3584 
Q 2591 3584 2966 3190 
Q 3341 2797 3341 1997 
z
" id="DejaVuSans-61" transform="scale(0.015625)"/>
      <path d="M 603 4863 
L 1178 4863 
L 1178 0 
L 603 0 
L 603 4863 
z
" id="DejaVuSans-6c" transform="scale(0.015625)"/>
      <path d="M 353 3500 
L 3084 3500 
L 3084 2975 
L 922 459 
L 3084 459 
L 3084 0 
L 275 0 
L 275 525 
L 2438 3041 
L 353 3041 
L 353 3500 
z
" id="DejaVuSans-7a" transform="scale(0.015625)"/>
      <path d="M 2834 3397 
L 2834 2853 
Q 2591 2978 2328 3040 
Q 2066 3103 1784 3103 
Q 1356 3103 1142 2972 
Q 928 2841 928 2578 
Q 928 2378 1081 2264 
Q 1234 2150 1697 2047 
L 1894 2003 
Q 2506 1872 2764 1633 
Q 3022 1394 3022 966 
Q 3022 478 2636 193 
Q 2250 -91 1575 -91 
Q 1294 -91 989 -36 
Q 684 19 347 128 
L 347 722 
Q 666 556 975 473 
Q 1284 391 1588 391 
Q 1994 391 2212 530 
Q 2431 669 2431 922 
Q 2431 1156 2273 1281 
Q 2116 1406 1581 1522 
L 1381 1569 
Q 847 1681 609 1914 
Q 372 2147 372 2553 
Q 372 3047 722 3315 
Q 1072 3584 1716 3584 
Q 2034 3584 2315 3537 
Q 2597 3491 2834 3397 
z
" id="DejaVuSans-73" transform="scale(0.015625)"/>
      <path d="M 1159 525 
L 1159 -1331 
L 581 -1331 
L 581 3500 
L 1159 3500 
L 1159 2969 
Q 1341 3281 1617 3432 
Q 1894 3584 2278 3584 
Q 2916 3584 3314 3078 
Q 3713 2572 3713 1747 
Q 3713 922 3314 415 
Q 2916 -91 2278 -91 
Q 1894 -91 1617 61 
Q 1341 213 1159 525 
z
M 3116 1747 
Q 3116 2381 2855 2742 
Q 2594 3103 2138 3103 
Q 1681 3103 1420 2742 
Q 1159 2381 1159 1747 
Q 1159 1113 1420 752 
Q 1681 391 2138 391 
Q 2594 391 2855 752 
Q 3116 1113 3116 1747 
z
" id="DejaVuSans-70" transform="scale(0.015625)"/>
     </defs>
     <use xlink:href="#DejaVuSans-35"/>
     <use x="63.623047" xlink:href="#DejaVuSans-20"/>
     <use x="95.410156" xlink:href="#DejaVuSans-64"/>
     <use x="158.886719" xlink:href="#DejaVuSans-69"/>
     <use x="186.669922" xlink:href="#DejaVuSans-66"/>
     <use x="221.875" xlink:href="#DejaVuSans-66"/>
     <use x="257.080078" xlink:href="#DejaVuSans-65"/>
     <use x="318.603516" xlink:href="#DejaVuSans-72"/>
     <use x="357.466797" xlink:href="#DejaVuSans-65"/>
     <use x="418.990234" xlink:href="#DejaVuSans-6e"/>
     <use x="482.369141" xlink:href="#DejaVuSans-74"/>
     <use x="521.578125" xlink:href="#DejaVuSans-20"/>
     <use x="553.365234" xlink:href="#DejaVuSans-66"/>
     <use x="588.570312" xlink:href="#DejaVuSans-75"/>
     <use x="651.949219" xlink:href="#DejaVuSans-6e"/>
     <use x="715.328125" xlink:href="#DejaVuSans-63"/>
     <use x="770.308594" xlink:href="#DejaVuSans-74"/>
     <use x="809.517578" xlink:href="#DejaVuSans-69"/>
     <use x="837.300781" xlink:href="#DejaVuSans-6f"/>
     <use x="898.482422" xlink:href="#DejaVuSans-6e"/>
     <use x="961.861328" xlink:href="#DejaVuSans-20"/>
     <use x="993.648438" xlink:href="#DejaVuSans-72"/>
     <use x="1032.511719" xlink:href="#DejaVuSans-65"/>
     <use x="1094.035156" xlink:href="#DejaVuSans-61"/>
     <use x="1155.314453" xlink:href="#DejaVuSans-6c"/>
     <use x="1183.097656" xlink:href="#DejaVuSans-69"/>
     <use x="1210.880859" xlink:href="#DejaVuSans-7a"/>
     <use x="1263.371094" xlink:href="#DejaVuSans-61"/>
     <use x="1324.650391" xlink:href="#DejaVuSans-74"/>
     <use x="1363.859375" xlink:href="#DejaVuSans-69"/>
     <use x="1391.642578" xlink:href="#DejaVuSans-6f"/>
     <use x="1452.824219" xlink:href="#DejaVuSans-6e"/>
     <use x="1516.203125" xlink:href="#DejaVuSans-73"/>
     <use x="1568.302734" xlink:href="#DejaVuSans-20"/>
     <use x="1600.089844" xlink:href="#DejaVuSans-61"/>
     <use x="1661.369141" xlink:href="#DejaVuSans-74"/>
     <use x="1700.578125" xlink:href="#DejaVuSans-20"/>
     <use x="1732.365234" xlink:href="#DejaVuSans-34"/>
     <use x="1795.988281" xlink:href="#DejaVuSans-31"/>
     <use x="1859.611328" xlink:href="#DejaVuSans-20"/>
     <use x="1891.398438" xlink:href="#DejaVuSans-70"/>
     <use x="1954.875" xlink:href="#DejaVuSans-6f"/>
     <use x="2016.056641" xlink:href="#DejaVuSans-69"/>
     <use x="2043.839844" xlink:href="#DejaVuSans-6e"/>
     <use x="2107.21875" xlink:href="#DejaVuSans-74"/>
     <use x="2146.427734" xlink:href="#DejaVuSans-73"/>
    </g>
    <!-- sampled from a Gaussian process with exponentiated quadratic kernel -->
    <g style="fill:#262626;" transform="translate(10.174375 29.7555)scale(0.12 -0.12)">
     <defs>
      <path d="M 3328 2828 
Q 3544 3216 3844 3400 
Q 4144 3584 4550 3584 
Q 5097 3584 5394 3201 
Q 5691 2819 5691 2113 
L 5691 0 
L 5113 0 
L 5113 2094 
Q 5113 2597 4934 2840 
Q 4756 3084 4391 3084 
Q 3944 3084 3684 2787 
Q 3425 2491 3425 1978 
L 3425 0 
L 2847 0 
L 2847 2094 
Q 2847 2600 2669 2842 
Q 2491 3084 2119 3084 
Q 1678 3084 1418 2786 
Q 1159 2488 1159 1978 
L 1159 0 
L 581 0 
L 581 3500 
L 1159 3500 
L 1159 2956 
Q 1356 3278 1631 3431 
Q 1906 3584 2284 3584 
Q 2666 3584 2933 3390 
Q 3200 3197 3328 2828 
z
" id="DejaVuSans-6d" transform="scale(0.015625)"/>
      <path d="M 3809 666 
L 3809 1919 
L 2778 1919 
L 2778 2438 
L 4434 2438 
L 4434 434 
Q 4069 175 3628 42 
Q 3188 -91 2688 -91 
Q 1594 -91 976 548 
Q 359 1188 359 2328 
Q 359 3472 976 4111 
Q 1594 4750 2688 4750 
Q 3144 4750 3555 4637 
Q 3966 4525 4313 4306 
L 4313 3634 
Q 3963 3931 3569 4081 
Q 3175 4231 2741 4231 
Q 1884 4231 1454 3753 
Q 1025 3275 1025 2328 
Q 1025 1384 1454 906 
Q 1884 428 2741 428 
Q 3075 428 3337 486 
Q 3600 544 3809 666 
z
" id="DejaVuSans-47" transform="scale(0.015625)"/>
      <path d="M 269 3500 
L 844 3500 
L 1563 769 
L 2278 3500 
L 2956 3500 
L 3675 769 
L 4391 3500 
L 4966 3500 
L 4050 0 
L 3372 0 
L 2619 2869 
L 1863 0 
L 1184 0 
L 269 3500 
z
" id="DejaVuSans-77" transform="scale(0.015625)"/>
      <path d="M 3513 2113 
L 3513 0 
L 2938 0 
L 2938 2094 
Q 2938 2591 2744 2837 
Q 2550 3084 2163 3084 
Q 1697 3084 1428 2787 
Q 1159 2491 1159 1978 
L 1159 0 
L 581 0 
L 581 4863 
L 1159 4863 
L 1159 2956 
Q 1366 3272 1645 3428 
Q 1925 3584 2291 3584 
Q 2894 3584 3203 3211 
Q 3513 2838 3513 2113 
z
" id="DejaVuSans-68" transform="scale(0.015625)"/>
      <path d="M 3513 3500 
L 2247 1797 
L 3578 0 
L 2900 0 
L 1881 1375 
L 863 0 
L 184 0 
L 1544 1831 
L 300 3500 
L 978 3500 
L 1906 2253 
L 2834 3500 
L 3513 3500 
z
" id="DejaVuSans-78" transform="scale(0.015625)"/>
      <path d="M 947 1747 
Q 947 1113 1208 752 
Q 1469 391 1925 391 
Q 2381 391 2643 752 
Q 2906 1113 2906 1747 
Q 2906 2381 2643 2742 
Q 2381 3103 1925 3103 
Q 1469 3103 1208 2742 
Q 947 2381 947 1747 
z
M 2906 525 
Q 2725 213 2448 61 
Q 2172 -91 1784 -91 
Q 1150 -91 751 415 
Q 353 922 353 1747 
Q 353 2572 751 3078 
Q 1150 3584 1784 3584 
Q 2172 3584 2448 3432 
Q 2725 3281 2906 2969 
L 2906 3500 
L 3481 3500 
L 3481 -1331 
L 2906 -1331 
L 2906 525 
z
" id="DejaVuSans-71" transform="scale(0.015625)"/>
      <path d="M 581 4863 
L 1159 4863 
L 1159 1991 
L 2875 3500 
L 3609 3500 
L 1753 1863 
L 3688 0 
L 2938 0 
L 1159 1709 
L 1159 0 
L 581 0 
L 581 4863 
z
" id="DejaVuSans-6b" transform="scale(0.015625)"/>
     </defs>
     <use xlink:href="#DejaVuSans-73"/>
     <use x="52.099609" xlink:href="#DejaVuSans-61"/>
     <use x="113.378906" xlink:href="#DejaVuSans-6d"/>
     <use x="210.791016" xlink:href="#DejaVuSans-70"/>
     <use x="274.267578" xlink:href="#DejaVuSans-6c"/>
     <use x="302.050781" xlink:href="#DejaVuSans-65"/>
     <use x="363.574219" xlink:href="#DejaVuSans-64"/>
     <use x="427.050781" xlink:href="#DejaVuSans-20"/>
     <use x="458.837891" xlink:href="#DejaVuSans-66"/>
     <use x="494.042969" xlink:href="#DejaVuSans-72"/>
     <use x="532.90625" xlink:href="#DejaVuSans-6f"/>
     <use x="594.087891" xlink:href="#DejaVuSans-6d"/>
     <use x="691.5" xlink:href="#DejaVuSans-20"/>
     <use x="723.287109" xlink:href="#DejaVuSans-61"/>
     <use x="784.566406" xlink:href="#DejaVuSans-20"/>
     <use x="816.353516" xlink:href="#DejaVuSans-47"/>
     <use x="893.84375" xlink:href="#DejaVuSans-61"/>
     <use x="955.123047" xlink:href="#DejaVuSans-75"/>
     <use x="1018.501953" xlink:href="#DejaVuSans-73"/>
     <use x="1070.601562" xlink:href="#DejaVuSans-73"/>
     <use x="1122.701172" xlink:href="#DejaVuSans-69"/>
     <use x="1150.484375" xlink:href="#DejaVuSans-61"/>
     <use x="1211.763672" xlink:href="#DejaVuSans-6e"/>
     <use x="1275.142578" xlink:href="#DejaVuSans-20"/>
     <use x="1306.929688" xlink:href="#DejaVuSans-70"/>
     <use x="1370.40625" xlink:href="#DejaVuSans-72"/>
     <use x="1409.269531" xlink:href="#DejaVuSans-6f"/>
     <use x="1470.451172" xlink:href="#DejaVuSans-63"/>
     <use x="1525.431641" xlink:href="#DejaVuSans-65"/>
     <use x="1586.955078" xlink:href="#DejaVuSans-73"/>
     <use x="1639.054688" xlink:href="#DejaVuSans-73"/>
     <use x="1691.154297" xlink:href="#DejaVuSans-20"/>
     <use x="1722.941406" xlink:href="#DejaVuSans-77"/>
     <use x="1804.728516" xlink:href="#DejaVuSans-69"/>
     <use x="1832.511719" xlink:href="#DejaVuSans-74"/>
     <use x="1871.720703" xlink:href="#DejaVuSans-68"/>
     <use x="1935.099609" xlink:href="#DejaVuSans-20"/>
     <use x="1966.886719" xlink:href="#DejaVuSans-65"/>
     <use x="2026.660156" xlink:href="#DejaVuSans-78"/>
     <use x="2085.839844" xlink:href="#DejaVuSans-70"/>
     <use x="2149.316406" xlink:href="#DejaVuSans-6f"/>
     <use x="2210.498047" xlink:href="#DejaVuSans-6e"/>
     <use x="2273.876953" xlink:href="#DejaVuSans-65"/>
     <use x="2335.400391" xlink:href="#DejaVuSans-6e"/>
     <use x="2398.779297" xlink:href="#DejaVuSans-74"/>
     <use x="2437.988281" xlink:href="#DejaVuSans-69"/>
     <use x="2465.771484" xlink:href="#DejaVuSans-61"/>
     <use x="2527.050781" xlink:href="#DejaVuSans-74"/>
     <use x="2566.259766" xlink:href="#DejaVuSans-65"/>
     <use x="2627.783203" xlink:href="#DejaVuSans-64"/>
     <use x="2691.259766" xlink:href="#DejaVuSans-20"/>
     <use x="2723.046875" xlink:href="#DejaVuSans-71"/>
     <use x="2786.523438" xlink:href="#DejaVuSans-75"/>
     <use x="2849.902344" xlink:href="#DejaVuSans-61"/>
     <use x="2911.181641" xlink:href="#DejaVuSans-64"/>
     <use x="2974.658203" xlink:href="#DejaVuSans-72"/>
     <use x="3015.771484" xlink:href="#DejaVuSans-61"/>
     <use x="3077.050781" xlink:href="#DejaVuSans-74"/>
     <use x="3116.259766" xlink:href="#DejaVuSans-69"/>
     <use x="3144.042969" xlink:href="#DejaVuSans-63"/>
     <use x="3199.023438" xlink:href="#DejaVuSans-20"/>
     <use x="3230.810547" xlink:href="#DejaVuSans-6b"/>
     <use x="3285.095703" xlink:href="#DejaVuSans-65"/>
     <use x="3346.619141" xlink:href="#DejaVuSans-72"/>
     <use x="3385.982422" xlink:href="#DejaVuSans-6e"/>
     <use x="3449.361328" xlink:href="#DejaVuSans-65"/>
     <use x="3510.884766" xlink:href="#DejaVuSans-6c"/>
    </g>
   </g>
  </g>
 </g>
 <defs>
  <clipPath id="pb96230fbf0">
   <rect height="217.44" width="334.8" x="55.092813" y="35.7555"/>
  </clipPath>
 </defs>
</svg>
