<?xml version="1.0" encoding="utf-8" standalone="no"?>
<!DOCTYPE svg PUBLIC "-//W3C//DTD SVG 1.1//EN"
  "http://www.w3.org/Graphics/SVG/1.1/DTD/svg11.dtd">
<!-- Created with matplotlib (https://matplotlib.org/) -->
<svg height="275.615188pt" version="1.1" viewBox="0 0 420.269375 275.615188" width="420.269375pt" xmlns="http://www.w3.org/2000/svg" xmlns:xlink="http://www.w3.org/1999/xlink">
 <metadata>
  <rdf:RDF xmlns:cc="http://creativecommons.org/ns#" xmlns:dc="http://purl.org/dc/elements/1.1/" xmlns:rdf="http://www.w3.org/1999/02/22-rdf-syntax-ns#">
   <cc:Work>
    <dc:type rdf:resource="http://purl.org/dc/dcmitype/StillImage"/>
    <dc:date>2021-08-20T11:24:34.419494</dc:date>
    <dc:format>image/svg+xml</dc:format>
    <dc:creator>
     <cc:Agent>
      <dc:title>Matplotlib v3.3.4, https://matplotlib.org/</dc:title>
     </cc:Agent>
    </dc:creator>
   </cc:Work>
  </rdf:RDF>
 </metadata>
 <defs>
  <style type="text/css">*{stroke-linecap:butt;stroke-linejoin:round;}</style>
 </defs>
 <g id="figure_1">
  <g id="patch_1">
   <path d="M 0 275.615188 
L 420.269375 275.615188 
L 420.269375 0 
L 0 0 
z
" style="fill:#ffffff;"/>
  </g>
  <g id="axes_1">
   <g id="patch_2">
    <path d="M 55.092813 235.1555 
L 405.117813 235.1555 
L 405.117813 35.7555 
L 55.092813 35.7555 
z
" style="fill:#eaeaf2;"/>
   </g>
   <g id="matplotlib.axis_1">
    <g id="xtick_1">
     <g id="line2d_1">
      <path clip-path="url(#p660dcdb6cb)" d="M 55.092813 235.1555 
L 55.092813 35.7555 
" style="fill:none;stroke:#ffffff;stroke-linecap:round;stroke-width:0.8;"/>
     </g>
     <g id="text_1">
      <!-- 0.0 -->
      <g style="fill:#262626;" transform="translate(47.14125 249.753938)scale(0.1 -0.1)">
       <defs>
        <path d="M 31.78125 66.40625 
Q 24.171875 66.40625 20.328125 58.90625 
Q 16.5 51.421875 16.5 36.375 
Q 16.5 21.390625 20.328125 13.890625 
Q 24.171875 6.390625 31.78125 6.390625 
Q 39.453125 6.390625 43.28125 13.890625 
Q 47.125 21.390625 47.125 36.375 
Q 47.125 51.421875 43.28125 58.90625 
Q 39.453125 66.40625 31.78125 66.40625 
z
M 31.78125 74.21875 
Q 44.046875 74.21875 50.515625 64.515625 
Q 56.984375 54.828125 56.984375 36.375 
Q 56.984375 17.96875 50.515625 8.265625 
Q 44.046875 -1.421875 31.78125 -1.421875 
Q 19.53125 -1.421875 13.0625 8.265625 
Q 6.59375 17.96875 6.59375 36.375 
Q 6.59375 54.828125 13.0625 64.515625 
Q 19.53125 74.21875 31.78125 74.21875 
z
" id="DejaVuSans-48"/>
        <path d="M 10.6875 12.40625 
L 21 12.40625 
L 21 0 
L 10.6875 0 
z
" id="DejaVuSans-46"/>
       </defs>
       <use xlink:href="#DejaVuSans-48"/>
       <use x="63.623047" xlink:href="#DejaVuSans-46"/>
       <use x="95.410156" xlink:href="#DejaVuSans-48"/>
      </g>
     </g>
    </g>
    <g id="xtick_2">
     <g id="line2d_2">
      <path clip-path="url(#p660dcdb6cb)" d="M 125.097813 235.1555 
L 125.097813 35.7555 
" style="fill:none;stroke:#ffffff;stroke-linecap:round;stroke-width:0.8;"/>
     </g>
     <g id="text_2">
      <!-- 0.2 -->
      <g style="fill:#262626;" transform="translate(117.14625 249.753938)scale(0.1 -0.1)">
       <defs>
        <path d="M 19.1875 8.296875 
L 53.609375 8.296875 
L 53.609375 0 
L 7.328125 0 
L 7.328125 8.296875 
Q 12.9375 14.109375 22.625 23.890625 
Q 32.328125 33.6875 34.8125 36.53125 
Q 39.546875 41.84375 41.421875 45.53125 
Q 43.3125 49.21875 43.3125 52.78125 
Q 43.3125 58.59375 39.234375 62.25 
Q 35.15625 65.921875 28.609375 65.921875 
Q 23.96875 65.921875 18.8125 64.3125 
Q 13.671875 62.703125 7.8125 59.421875 
L 7.8125 69.390625 
Q 13.765625 71.78125 18.9375 73 
Q 24.125 74.21875 28.421875 74.21875 
Q 39.75 74.21875 46.484375 68.546875 
Q 53.21875 62.890625 53.21875 53.421875 
Q 53.21875 48.921875 51.53125 44.890625 
Q 49.859375 40.875 45.40625 35.40625 
Q 44.1875 33.984375 37.640625 27.21875 
Q 31.109375 20.453125 19.1875 8.296875 
z
" id="DejaVuSans-50"/>
       </defs>
       <use xlink:href="#DejaVuSans-48"/>
       <use x="63.623047" xlink:href="#DejaVuSans-46"/>
       <use x="95.410156" xlink:href="#DejaVuSans-50"/>
      </g>
     </g>
    </g>
    <g id="xtick_3">
     <g id="line2d_3">
      <path clip-path="url(#p660dcdb6cb)" d="M 195.102812 235.1555 
L 195.102812 35.7555 
" style="fill:none;stroke:#ffffff;stroke-linecap:round;stroke-width:0.8;"/>
     </g>
     <g id="text_3">
      <!-- 0.4 -->
      <g style="fill:#262626;" transform="translate(187.15125 249.753938)scale(0.1 -0.1)">
       <defs>
        <path d="M 37.796875 64.3125 
L 12.890625 25.390625 
L 37.796875 25.390625 
z
M 35.203125 72.90625 
L 47.609375 72.90625 
L 47.609375 25.390625 
L 58.015625 25.390625 
L 58.015625 17.1875 
L 47.609375 17.1875 
L 47.609375 0 
L 37.796875 0 
L 37.796875 17.1875 
L 4.890625 17.1875 
L 4.890625 26.703125 
z
" id="DejaVuSans-52"/>
       </defs>
       <use xlink:href="#DejaVuSans-48"/>
       <use x="63.623047" xlink:href="#DejaVuSans-46"/>
       <use x="95.410156" xlink:href="#DejaVuSans-52"/>
      </g>
     </g>
    </g>
    <g id="xtick_4">
     <g id="line2d_4">
      <path clip-path="url(#p660dcdb6cb)" d="M 265.107813 235.1555 
L 265.107813 35.7555 
" style="fill:none;stroke:#ffffff;stroke-linecap:round;stroke-width:0.8;"/>
     </g>
     <g id="text_4">
      <!-- 0.6 -->
      <g style="fill:#262626;" transform="translate(257.15625 249.753938)scale(0.1 -0.1)">
       <defs>
        <path d="M 33.015625 40.375 
Q 26.375 40.375 22.484375 35.828125 
Q 18.609375 31.296875 18.609375 23.390625 
Q 18.609375 15.53125 22.484375 10.953125 
Q 26.375 6.390625 33.015625 6.390625 
Q 39.65625 6.390625 43.53125 10.953125 
Q 47.40625 15.53125 47.40625 23.390625 
Q 47.40625 31.296875 43.53125 35.828125 
Q 39.65625 40.375 33.015625 40.375 
z
M 52.59375 71.296875 
L 52.59375 62.3125 
Q 48.875 64.0625 45.09375 64.984375 
Q 41.3125 65.921875 37.59375 65.921875 
Q 27.828125 65.921875 22.671875 59.328125 
Q 17.53125 52.734375 16.796875 39.40625 
Q 19.671875 43.65625 24.015625 45.921875 
Q 28.375 48.1875 33.59375 48.1875 
Q 44.578125 48.1875 50.953125 41.515625 
Q 57.328125 34.859375 57.328125 23.390625 
Q 57.328125 12.15625 50.6875 5.359375 
Q 44.046875 -1.421875 33.015625 -1.421875 
Q 20.359375 -1.421875 13.671875 8.265625 
Q 6.984375 17.96875 6.984375 36.375 
Q 6.984375 53.65625 15.1875 63.9375 
Q 23.390625 74.21875 37.203125 74.21875 
Q 40.921875 74.21875 44.703125 73.484375 
Q 48.484375 72.75 52.59375 71.296875 
z
" id="DejaVuSans-54"/>
       </defs>
       <use xlink:href="#DejaVuSans-48"/>
       <use x="63.623047" xlink:href="#DejaVuSans-46"/>
       <use x="95.410156" xlink:href="#DejaVuSans-54"/>
      </g>
     </g>
    </g>
    <g id="xtick_5">
     <g id="line2d_5">
      <path clip-path="url(#p660dcdb6cb)" d="M 335.112813 235.1555 
L 335.112813 35.7555 
" style="fill:none;stroke:#ffffff;stroke-linecap:round;stroke-width:0.8;"/>
     </g>
     <g id="text_5">
      <!-- 0.8 -->
      <g style="fill:#262626;" transform="translate(327.16125 249.753938)scale(0.1 -0.1)">
       <defs>
        <path d="M 31.78125 34.625 
Q 24.75 34.625 20.71875 30.859375 
Q 16.703125 27.09375 16.703125 20.515625 
Q 16.703125 13.921875 20.71875 10.15625 
Q 24.75 6.390625 31.78125 6.390625 
Q 38.8125 6.390625 42.859375 10.171875 
Q 46.921875 13.96875 46.921875 20.515625 
Q 46.921875 27.09375 42.890625 30.859375 
Q 38.875 34.625 31.78125 34.625 
z
M 21.921875 38.8125 
Q 15.578125 40.375 12.03125 44.71875 
Q 8.5 49.078125 8.5 55.328125 
Q 8.5 64.0625 14.71875 69.140625 
Q 20.953125 74.21875 31.78125 74.21875 
Q 42.671875 74.21875 48.875 69.140625 
Q 55.078125 64.0625 55.078125 55.328125 
Q 55.078125 49.078125 51.53125 44.71875 
Q 48 40.375 41.703125 38.8125 
Q 48.828125 37.15625 52.796875 32.3125 
Q 56.78125 27.484375 56.78125 20.515625 
Q 56.78125 9.90625 50.3125 4.234375 
Q 43.84375 -1.421875 31.78125 -1.421875 
Q 19.734375 -1.421875 13.25 4.234375 
Q 6.78125 9.90625 6.78125 20.515625 
Q 6.78125 27.484375 10.78125 32.3125 
Q 14.796875 37.15625 21.921875 38.8125 
z
M 18.3125 54.390625 
Q 18.3125 48.734375 21.84375 45.5625 
Q 25.390625 42.390625 31.78125 42.390625 
Q 38.140625 42.390625 41.71875 45.5625 
Q 45.3125 48.734375 45.3125 54.390625 
Q 45.3125 60.0625 41.71875 63.234375 
Q 38.140625 66.40625 31.78125 66.40625 
Q 25.390625 66.40625 21.84375 63.234375 
Q 18.3125 60.0625 18.3125 54.390625 
z
" id="DejaVuSans-56"/>
       </defs>
       <use xlink:href="#DejaVuSans-48"/>
       <use x="63.623047" xlink:href="#DejaVuSans-46"/>
       <use x="95.410156" xlink:href="#DejaVuSans-56"/>
      </g>
     </g>
    </g>
    <g id="xtick_6">
     <g id="line2d_6">
      <path clip-path="url(#p660dcdb6cb)" d="M 405.117813 235.1555 
L 405.117813 35.7555 
" style="fill:none;stroke:#ffffff;stroke-linecap:round;stroke-width:0.8;"/>
     </g>
     <g id="text_6">
      <!-- 1.0 -->
      <g style="fill:#262626;" transform="translate(397.16625 249.753938)scale(0.1 -0.1)">
       <defs>
        <path d="M 12.40625 8.296875 
L 28.515625 8.296875 
L 28.515625 63.921875 
L 10.984375 60.40625 
L 10.984375 69.390625 
L 28.421875 72.90625 
L 38.28125 72.90625 
L 38.28125 8.296875 
L 54.390625 8.296875 
L 54.390625 0 
L 12.40625 0 
z
" id="DejaVuSans-49"/>
       </defs>
       <use xlink:href="#DejaVuSans-49"/>
       <use x="63.623047" xlink:href="#DejaVuSans-46"/>
       <use x="95.410156" xlink:href="#DejaVuSans-48"/>
      </g>
     </g>
    </g>
    <g id="text_7">
     <!-- $t$ (time) -->
     <g style="fill:#262626;" transform="translate(205.730312 265.711594)scale(0.13 -0.13)">
      <defs>
       <path d="M 42.28125 54.6875 
L 40.921875 47.703125 
L 23 47.703125 
L 17.1875 18.015625 
Q 16.890625 16.359375 16.75 15.234375 
Q 16.609375 14.109375 16.609375 13.484375 
Q 16.609375 10.359375 18.484375 8.9375 
Q 20.359375 7.515625 24.515625 7.515625 
L 33.59375 7.515625 
L 32.078125 0 
L 23.484375 0 
Q 15.484375 0 11.546875 3.125 
Q 7.625 6.25 7.625 12.59375 
Q 7.625 13.71875 7.765625 15.0625 
Q 7.90625 16.40625 8.203125 18.015625 
L 14.015625 47.703125 
L 6.390625 47.703125 
L 7.8125 54.6875 
L 15.28125 54.6875 
L 18.3125 70.21875 
L 27.296875 70.21875 
L 24.3125 54.6875 
z
" id="DejaVuSans-Oblique-116"/>
       <path id="DejaVuSans-32"/>
       <path d="M 31 75.875 
Q 24.46875 64.65625 21.28125 53.65625 
Q 18.109375 42.671875 18.109375 31.390625 
Q 18.109375 20.125 21.3125 9.0625 
Q 24.515625 -2 31 -13.1875 
L 23.1875 -13.1875 
Q 15.875 -1.703125 12.234375 9.375 
Q 8.59375 20.453125 8.59375 31.390625 
Q 8.59375 42.28125 12.203125 53.3125 
Q 15.828125 64.359375 23.1875 75.875 
z
" id="DejaVuSans-40"/>
       <path d="M 18.3125 70.21875 
L 18.3125 54.6875 
L 36.8125 54.6875 
L 36.8125 47.703125 
L 18.3125 47.703125 
L 18.3125 18.015625 
Q 18.3125 11.328125 20.140625 9.421875 
Q 21.96875 7.515625 27.59375 7.515625 
L 36.8125 7.515625 
L 36.8125 0 
L 27.59375 0 
Q 17.1875 0 13.234375 3.875 
Q 9.28125 7.765625 9.28125 18.015625 
L 9.28125 47.703125 
L 2.6875 47.703125 
L 2.6875 54.6875 
L 9.28125 54.6875 
L 9.28125 70.21875 
z
" id="DejaVuSans-116"/>
       <path d="M 9.421875 54.6875 
L 18.40625 54.6875 
L 18.40625 0 
L 9.421875 0 
z
M 9.421875 75.984375 
L 18.40625 75.984375 
L 18.40625 64.59375 
L 9.421875 64.59375 
z
" id="DejaVuSans-105"/>
       <path d="M 52 44.1875 
Q 55.375 50.25 60.0625 53.125 
Q 64.75 56 71.09375 56 
Q 79.640625 56 84.28125 50.015625 
Q 88.921875 44.046875 88.921875 33.015625 
L 88.921875 0 
L 79.890625 0 
L 79.890625 32.71875 
Q 79.890625 40.578125 77.09375 44.375 
Q 74.3125 48.1875 68.609375 48.1875 
Q 61.625 48.1875 57.5625 43.546875 
Q 53.515625 38.921875 53.515625 30.90625 
L 53.515625 0 
L 44.484375 0 
L 44.484375 32.71875 
Q 44.484375 40.625 41.703125 44.40625 
Q 38.921875 48.1875 33.109375 48.1875 
Q 26.21875 48.1875 22.15625 43.53125 
Q 18.109375 38.875 18.109375 30.90625 
L 18.109375 0 
L 9.078125 0 
L 9.078125 54.6875 
L 18.109375 54.6875 
L 18.109375 46.1875 
Q 21.1875 51.21875 25.484375 53.609375 
Q 29.78125 56 35.6875 56 
Q 41.65625 56 45.828125 52.96875 
Q 50 49.953125 52 44.1875 
z
" id="DejaVuSans-109"/>
       <path d="M 56.203125 29.59375 
L 56.203125 25.203125 
L 14.890625 25.203125 
Q 15.484375 15.921875 20.484375 11.0625 
Q 25.484375 6.203125 34.421875 6.203125 
Q 39.59375 6.203125 44.453125 7.46875 
Q 49.3125 8.734375 54.109375 11.28125 
L 54.109375 2.78125 
Q 49.265625 0.734375 44.1875 -0.34375 
Q 39.109375 -1.421875 33.890625 -1.421875 
Q 20.796875 -1.421875 13.15625 6.1875 
Q 5.515625 13.8125 5.515625 26.8125 
Q 5.515625 40.234375 12.765625 48.109375 
Q 20.015625 56 32.328125 56 
Q 43.359375 56 49.78125 48.890625 
Q 56.203125 41.796875 56.203125 29.59375 
z
M 47.21875 32.234375 
Q 47.125 39.59375 43.09375 43.984375 
Q 39.0625 48.390625 32.421875 48.390625 
Q 24.90625 48.390625 20.390625 44.140625 
Q 15.875 39.890625 15.1875 32.171875 
z
" id="DejaVuSans-101"/>
       <path d="M 8.015625 75.875 
L 15.828125 75.875 
Q 23.140625 64.359375 26.78125 53.3125 
Q 30.421875 42.28125 30.421875 31.390625 
Q 30.421875 20.453125 26.78125 9.375 
Q 23.140625 -1.703125 15.828125 -13.1875 
L 8.015625 -13.1875 
Q 14.5 -2 17.703125 9.0625 
Q 20.90625 20.125 20.90625 31.390625 
Q 20.90625 42.671875 17.703125 53.65625 
Q 14.5 64.65625 8.015625 75.875 
z
" id="DejaVuSans-41"/>
      </defs>
      <use transform="translate(0 0.015625)" xlink:href="#DejaVuSans-Oblique-116"/>
      <use transform="translate(39.208984 0.015625)" xlink:href="#DejaVuSans-32"/>
      <use transform="translate(70.996094 0.015625)" xlink:href="#DejaVuSans-40"/>
      <use transform="translate(110.009766 0.015625)" xlink:href="#DejaVuSans-116"/>
      <use transform="translate(149.21875 0.015625)" xlink:href="#DejaVuSans-105"/>
      <use transform="translate(177.001953 0.015625)" xlink:href="#DejaVuSans-109"/>
      <use transform="translate(274.414062 0.015625)" xlink:href="#DejaVuSans-101"/>
      <use transform="translate(335.9375 0.015625)" xlink:href="#DejaVuSans-41"/>
     </g>
    </g>
   </g>
   <g id="matplotlib.axis_2">
    <g id="ytick_1">
     <g id="line2d_7">
      <path clip-path="url(#p660dcdb6cb)" d="M 55.092813 234.549344 
L 405.117813 234.549344 
" style="fill:none;stroke:#ffffff;stroke-linecap:round;stroke-width:0.8;"/>
     </g>
     <g id="text_8">
      <!-- −1.5 -->
      <g style="fill:#262626;" transform="translate(23.81 238.348563)scale(0.1 -0.1)">
       <defs>
        <path d="M 10.59375 35.5 
L 73.1875 35.5 
L 73.1875 27.203125 
L 10.59375 27.203125 
z
" id="DejaVuSans-8722"/>
        <path d="M 10.796875 72.90625 
L 49.515625 72.90625 
L 49.515625 64.59375 
L 19.828125 64.59375 
L 19.828125 46.734375 
Q 21.96875 47.46875 24.109375 47.828125 
Q 26.265625 48.1875 28.421875 48.1875 
Q 40.625 48.1875 47.75 41.5 
Q 54.890625 34.8125 54.890625 23.390625 
Q 54.890625 11.625 47.5625 5.09375 
Q 40.234375 -1.421875 26.90625 -1.421875 
Q 22.3125 -1.421875 17.546875 -0.640625 
Q 12.796875 0.140625 7.71875 1.703125 
L 7.71875 11.625 
Q 12.109375 9.234375 16.796875 8.0625 
Q 21.484375 6.890625 26.703125 6.890625 
Q 35.15625 6.890625 40.078125 11.328125 
Q 45.015625 15.765625 45.015625 23.390625 
Q 45.015625 31 40.078125 35.4375 
Q 35.15625 39.890625 26.703125 39.890625 
Q 22.75 39.890625 18.8125 39.015625 
Q 14.890625 38.140625 10.796875 36.28125 
z
" id="DejaVuSans-53"/>
       </defs>
       <use xlink:href="#DejaVuSans-8722"/>
       <use x="83.789062" xlink:href="#DejaVuSans-49"/>
       <use x="147.412109" xlink:href="#DejaVuSans-46"/>
       <use x="179.199219" xlink:href="#DejaVuSans-53"/>
      </g>
     </g>
    </g>
    <g id="ytick_2">
     <g id="line2d_8">
      <path clip-path="url(#p660dcdb6cb)" d="M 55.092813 205.803032 
L 405.117813 205.803032 
" style="fill:none;stroke:#ffffff;stroke-linecap:round;stroke-width:0.8;"/>
     </g>
     <g id="text_9">
      <!-- −1.0 -->
      <g style="fill:#262626;" transform="translate(23.81 209.602251)scale(0.1 -0.1)">
       <use xlink:href="#DejaVuSans-8722"/>
       <use x="83.789062" xlink:href="#DejaVuSans-49"/>
       <use x="147.412109" xlink:href="#DejaVuSans-46"/>
       <use x="179.199219" xlink:href="#DejaVuSans-48"/>
      </g>
     </g>
    </g>
    <g id="ytick_3">
     <g id="line2d_9">
      <path clip-path="url(#p660dcdb6cb)" d="M 55.092813 177.056721 
L 405.117813 177.056721 
" style="fill:none;stroke:#ffffff;stroke-linecap:round;stroke-width:0.8;"/>
     </g>
     <g id="text_10">
      <!-- −0.5 -->
      <g style="fill:#262626;" transform="translate(23.81 180.855939)scale(0.1 -0.1)">
       <use xlink:href="#DejaVuSans-8722"/>
       <use x="83.789062" xlink:href="#DejaVuSans-48"/>
       <use x="147.412109" xlink:href="#DejaVuSans-46"/>
       <use x="179.199219" xlink:href="#DejaVuSans-53"/>
      </g>
     </g>
    </g>
    <g id="ytick_4">
     <g id="line2d_10">
      <path clip-path="url(#p660dcdb6cb)" d="M 55.092813 148.310409 
L 405.117813 148.310409 
" style="fill:none;stroke:#ffffff;stroke-linecap:round;stroke-width:0.8;"/>
     </g>
     <g id="text_11">
      <!-- 0.0 -->
      <g style="fill:#262626;" transform="translate(32.189688 152.109627)scale(0.1 -0.1)">
       <use xlink:href="#DejaVuSans-48"/>
       <use x="63.623047" xlink:href="#DejaVuSans-46"/>
       <use x="95.410156" xlink:href="#DejaVuSans-48"/>
      </g>
     </g>
    </g>
    <g id="ytick_5">
     <g id="line2d_11">
      <path clip-path="url(#p660dcdb6cb)" d="M 55.092813 119.564097 
L 405.117813 119.564097 
" style="fill:none;stroke:#ffffff;stroke-linecap:round;stroke-width:0.8;"/>
     </g>
     <g id="text_12">
      <!-- 0.5 -->
      <g style="fill:#262626;" transform="translate(32.189688 123.363315)scale(0.1 -0.1)">
       <use xlink:href="#DejaVuSans-48"/>
       <use x="63.623047" xlink:href="#DejaVuSans-46"/>
       <use x="95.410156" xlink:href="#DejaVuSans-53"/>
      </g>
     </g>
    </g>
    <g id="ytick_6">
     <g id="line2d_12">
      <path clip-path="url(#p660dcdb6cb)" d="M 55.092813 90.817785 
L 405.117813 90.817785 
" style="fill:none;stroke:#ffffff;stroke-linecap:round;stroke-width:0.8;"/>
     </g>
     <g id="text_13">
      <!-- 1.0 -->
      <g style="fill:#262626;" transform="translate(32.189688 94.617004)scale(0.1 -0.1)">
       <use xlink:href="#DejaVuSans-49"/>
       <use x="63.623047" xlink:href="#DejaVuSans-46"/>
       <use x="95.410156" xlink:href="#DejaVuSans-48"/>
      </g>
     </g>
    </g>
    <g id="ytick_7">
     <g id="line2d_13">
      <path clip-path="url(#p660dcdb6cb)" d="M 55.092813 62.071473 
L 405.117813 62.071473 
" style="fill:none;stroke:#ffffff;stroke-linecap:round;stroke-width:0.8;"/>
     </g>
     <g id="text_14">
      <!-- 1.5 -->
      <g style="fill:#262626;" transform="translate(32.189688 65.870692)scale(0.1 -0.1)">
       <use xlink:href="#DejaVuSans-49"/>
       <use x="63.623047" xlink:href="#DejaVuSans-46"/>
       <use x="95.410156" xlink:href="#DejaVuSans-53"/>
      </g>
     </g>
    </g>
    <g id="text_15">
     <!-- $d$ (position) -->
     <g style="fill:#262626;" transform="translate(17.08 172.5055)rotate(-90)scale(0.13 -0.13)">
      <defs>
       <path d="M 41.796875 8.203125 
Q 38.1875 3.46875 33.25 1.015625 
Q 28.328125 -1.421875 22.3125 -1.421875 
Q 14.109375 -1.421875 9.34375 4.171875 
Q 4.59375 9.765625 4.59375 19.484375 
Q 4.59375 27.59375 7.46875 34.9375 
Q 10.359375 42.28125 15.828125 48.09375 
Q 19.4375 51.953125 23.96875 53.96875 
Q 28.515625 56 33.5 56 
Q 38.765625 56 42.796875 53.453125 
Q 46.828125 50.921875 49.03125 46.1875 
L 54.890625 75.984375 
L 63.921875 75.984375 
L 49.125 0 
L 40.09375 0 
z
M 13.921875 21.09375 
Q 13.921875 14.015625 17.109375 10.0625 
Q 20.3125 6.109375 25.984375 6.109375 
Q 30.171875 6.109375 33.765625 8.125 
Q 37.359375 10.15625 40.09375 14.109375 
Q 42.96875 18.21875 44.625 23.578125 
Q 46.296875 28.953125 46.296875 34.1875 
Q 46.296875 40.96875 43.09375 44.765625 
Q 39.890625 48.578125 34.28125 48.578125 
Q 30.03125 48.578125 26.359375 46.578125 
Q 22.703125 44.578125 20.125 40.828125 
Q 17.28125 36.765625 15.59375 31.390625 
Q 13.921875 26.03125 13.921875 21.09375 
z
" id="DejaVuSans-Oblique-100"/>
       <path d="M 18.109375 8.203125 
L 18.109375 -20.796875 
L 9.078125 -20.796875 
L 9.078125 54.6875 
L 18.109375 54.6875 
L 18.109375 46.390625 
Q 20.953125 51.265625 25.265625 53.625 
Q 29.59375 56 35.59375 56 
Q 45.5625 56 51.78125 48.09375 
Q 58.015625 40.1875 58.015625 27.296875 
Q 58.015625 14.40625 51.78125 6.484375 
Q 45.5625 -1.421875 35.59375 -1.421875 
Q 29.59375 -1.421875 25.265625 0.953125 
Q 20.953125 3.328125 18.109375 8.203125 
z
M 48.6875 27.296875 
Q 48.6875 37.203125 44.609375 42.84375 
Q 40.53125 48.484375 33.40625 48.484375 
Q 26.265625 48.484375 22.1875 42.84375 
Q 18.109375 37.203125 18.109375 27.296875 
Q 18.109375 17.390625 22.1875 11.75 
Q 26.265625 6.109375 33.40625 6.109375 
Q 40.53125 6.109375 44.609375 11.75 
Q 48.6875 17.390625 48.6875 27.296875 
z
" id="DejaVuSans-112"/>
       <path d="M 30.609375 48.390625 
Q 23.390625 48.390625 19.1875 42.75 
Q 14.984375 37.109375 14.984375 27.296875 
Q 14.984375 17.484375 19.15625 11.84375 
Q 23.34375 6.203125 30.609375 6.203125 
Q 37.796875 6.203125 41.984375 11.859375 
Q 46.1875 17.53125 46.1875 27.296875 
Q 46.1875 37.015625 41.984375 42.703125 
Q 37.796875 48.390625 30.609375 48.390625 
z
M 30.609375 56 
Q 42.328125 56 49.015625 48.375 
Q 55.71875 40.765625 55.71875 27.296875 
Q 55.71875 13.875 49.015625 6.21875 
Q 42.328125 -1.421875 30.609375 -1.421875 
Q 18.84375 -1.421875 12.171875 6.21875 
Q 5.515625 13.875 5.515625 27.296875 
Q 5.515625 40.765625 12.171875 48.375 
Q 18.84375 56 30.609375 56 
z
" id="DejaVuSans-111"/>
       <path d="M 44.28125 53.078125 
L 44.28125 44.578125 
Q 40.484375 46.53125 36.375 47.5 
Q 32.28125 48.484375 27.875 48.484375 
Q 21.1875 48.484375 17.84375 46.4375 
Q 14.5 44.390625 14.5 40.28125 
Q 14.5 37.15625 16.890625 35.375 
Q 19.28125 33.59375 26.515625 31.984375 
L 29.59375 31.296875 
Q 39.15625 29.25 43.1875 25.515625 
Q 47.21875 21.78125 47.21875 15.09375 
Q 47.21875 7.46875 41.1875 3.015625 
Q 35.15625 -1.421875 24.609375 -1.421875 
Q 20.21875 -1.421875 15.453125 -0.5625 
Q 10.6875 0.296875 5.421875 2 
L 5.421875 11.28125 
Q 10.40625 8.6875 15.234375 7.390625 
Q 20.0625 6.109375 24.8125 6.109375 
Q 31.15625 6.109375 34.5625 8.28125 
Q 37.984375 10.453125 37.984375 14.40625 
Q 37.984375 18.0625 35.515625 20.015625 
Q 33.0625 21.96875 24.703125 23.78125 
L 21.578125 24.515625 
Q 13.234375 26.265625 9.515625 29.90625 
Q 5.8125 33.546875 5.8125 39.890625 
Q 5.8125 47.609375 11.28125 51.796875 
Q 16.75 56 26.8125 56 
Q 31.78125 56 36.171875 55.265625 
Q 40.578125 54.546875 44.28125 53.078125 
z
" id="DejaVuSans-115"/>
       <path d="M 54.890625 33.015625 
L 54.890625 0 
L 45.90625 0 
L 45.90625 32.71875 
Q 45.90625 40.484375 42.875 44.328125 
Q 39.84375 48.1875 33.796875 48.1875 
Q 26.515625 48.1875 22.3125 43.546875 
Q 18.109375 38.921875 18.109375 30.90625 
L 18.109375 0 
L 9.078125 0 
L 9.078125 54.6875 
L 18.109375 54.6875 
L 18.109375 46.1875 
Q 21.34375 51.125 25.703125 53.5625 
Q 30.078125 56 35.796875 56 
Q 45.21875 56 50.046875 50.171875 
Q 54.890625 44.34375 54.890625 33.015625 
z
" id="DejaVuSans-110"/>
      </defs>
      <use transform="translate(0 0.015625)" xlink:href="#DejaVuSans-Oblique-100"/>
      <use transform="translate(63.476562 0.015625)" xlink:href="#DejaVuSans-32"/>
      <use transform="translate(95.263672 0.015625)" xlink:href="#DejaVuSans-40"/>
      <use transform="translate(134.277344 0.015625)" xlink:href="#DejaVuSans-112"/>
      <use transform="translate(197.753906 0.015625)" xlink:href="#DejaVuSans-111"/>
      <use transform="translate(258.935547 0.015625)" xlink:href="#DejaVuSans-115"/>
      <use transform="translate(311.035156 0.015625)" xlink:href="#DejaVuSans-105"/>
      <use transform="translate(338.818359 0.015625)" xlink:href="#DejaVuSans-116"/>
      <use transform="translate(378.027344 0.015625)" xlink:href="#DejaVuSans-105"/>
      <use transform="translate(405.810547 0.015625)" xlink:href="#DejaVuSans-111"/>
      <use transform="translate(466.992188 0.015625)" xlink:href="#DejaVuSans-110"/>
      <use transform="translate(530.371094 0.015625)" xlink:href="#DejaVuSans-41"/>
     </g>
    </g>
   </g>
   <g id="line2d_14">
    <path clip-path="url(#p660dcdb6cb)" d="M 55.092813 158.053651 
L 59.759813 142.898393 
L 64.426813 139.272427 
L 69.093813 136.756643 
L 73.760813 129.660511 
L 78.427813 131.608281 
L 83.094813 132.887445 
L 87.761813 139.526671 
L 92.428813 149.380639 
L 97.095813 132.84723 
L 101.762812 127.172317 
L 106.429812 117.335944 
L 111.096812 123.533457 
L 115.763813 128.891557 
L 120.430813 137.333943 
L 125.097813 142.089589 
L 129.764813 133.49905 
L 134.431813 135.819811 
L 139.098813 138.569864 
L 143.765813 131.731027 
L 148.432813 126.542817 
L 153.099813 126.742783 
L 157.766813 133.457656 
L 162.433813 141.494932 
L 167.100813 130.728552 
L 171.767813 121.75361 
L 176.434813 123.49795 
L 181.101812 116.017479 
L 185.768812 117.995797 
L 190.435813 126.868564 
L 195.102812 129.302483 
L 199.769813 128.525178 
L 204.436813 131.918601 
L 209.103813 136.506381 
L 213.770813 124.857056 
L 218.437813 128.164013 
L 223.104813 114.966557 
L 227.771813 108.735462 
L 232.438813 108.209343 
L 237.105813 104.118746 
L 241.772812 92.305032 
L 246.439813 85.906787 
L 251.106813 83.906559 
L 255.773812 89.491214 
L 260.440812 90.42517 
L 265.107813 92.685446 
L 269.774813 99.761489 
L 274.441812 102.925961 
L 279.108812 110.759878 
L 283.775813 113.481866 
L 288.442813 114.460371 
L 293.109812 90.928121 
L 297.776813 80.949423 
L 302.443812 85.769087 
L 307.110813 86.043362 
L 311.777812 85.232637 
L 316.444813 94.041556 
L 321.111813 91.569451 
L 325.778813 98.828548 
L 330.445812 98.993416 
L 335.112813 105.902959 
L 339.779813 112.138658 
L 344.446813 108.024565 
L 349.113812 104.35762 
L 353.780813 105.771771 
L 358.447813 110.819271 
L 363.114812 112.171133 
L 367.781813 107.29894 
L 372.448813 96.759284 
L 377.115812 89.604899 
L 381.782812 100.570062 
L 386.449813 94.36081 
L 391.116813 99.755509 
L 395.783812 99.907838 
L 400.450812 107.689767 
" style="fill:none;stroke:#1f77b4;stroke-linecap:round;stroke-width:1.5;"/>
   </g>
   <g id="line2d_15">
    <path clip-path="url(#p660dcdb6cb)" d="M 55.092813 139.371831 
L 59.759813 142.422859 
L 64.426813 150.675589 
L 69.093813 151.405462 
L 73.760813 146.605287 
L 78.427813 141.063799 
L 83.094813 131.660565 
L 87.761813 134.315738 
L 92.428813 135.483968 
L 97.095813 121.527889 
L 101.762812 120.433052 
L 106.429812 120.364191 
L 111.096812 117.839063 
L 115.763813 120.565399 
L 120.430813 118.529291 
L 125.097813 118.443705 
L 129.764813 121.709656 
L 134.431813 128.413464 
L 139.098813 132.939804 
L 143.765813 125.29717 
L 148.432813 119.005868 
L 153.099813 129.247984 
L 157.766813 126.651855 
L 162.433813 121.550644 
L 167.100813 113.687602 
L 171.767813 114.021667 
L 176.434813 106.761617 
L 181.101812 99.827424 
L 185.768812 97.217159 
L 190.435813 102.830066 
L 195.102812 108.50139 
L 199.769813 106.132173 
L 204.436813 92.504384 
L 209.103813 94.399963 
L 213.770813 92.923332 
L 218.437813 92.966757 
L 223.104813 98.284059 
L 227.771813 90.758952 
L 232.438813 96.844881 
L 237.105813 98.608931 
L 241.772812 104.334169 
L 246.439813 104.657231 
L 251.106813 97.217621 
L 255.773812 90.281116 
L 260.440812 91.340104 
L 265.107813 86.352364 
L 269.774813 89.715993 
L 274.441812 102.87787 
L 279.108812 105.283587 
L 283.775813 112.236344 
L 288.442813 117.809371 
L 293.109812 125.903798 
L 297.776813 114.23172 
L 302.443812 119.30125 
L 307.110813 109.008547 
L 311.777812 105.101102 
L 316.444813 93.712276 
L 321.111813 101.191022 
L 325.778813 118.216225 
L 330.445812 123.470826 
L 335.112813 136.349598 
L 339.779813 127.697445 
L 344.446813 128.361861 
L 349.113812 127.7161 
L 353.780813 117.791434 
L 358.447813 114.456051 
L 363.114812 113.477472 
L 367.781813 119.002131 
L 372.448813 117.525384 
L 377.115812 115.684752 
L 381.782812 118.976628 
L 386.449813 116.08541 
L 391.116813 110.642121 
L 395.783812 107.620676 
L 400.450812 99.586077 
" style="fill:none;stroke:#ff7f0e;stroke-linecap:round;stroke-width:1.5;"/>
   </g>
   <g id="line2d_16">
    <path clip-path="url(#p660dcdb6cb)" d="M 55.092813 154.641364 
L 59.759813 160.056618 
L 64.426813 147.128107 
L 69.093813 146.396151 
L 73.760813 146.389406 
L 78.427813 133.762834 
L 83.094813 130.29467 
L 87.761813 131.515012 
L 92.428813 132.606776 
L 97.095813 131.468954 
L 101.762812 142.183722 
L 106.429812 141.625598 
L 111.096812 135.540901 
L 115.763813 133.556397 
L 120.430813 142.807636 
L 125.097813 149.552305 
L 129.764813 138.919906 
L 134.431813 123.881846 
L 139.098813 119.862448 
L 143.765813 129.529878 
L 148.432813 133.881704 
L 153.099813 129.215791 
L 157.766813 126.51705 
L 162.433813 117.865511 
L 167.100813 110.849479 
L 171.767813 117.861688 
L 176.434813 127.224351 
L 181.101812 123.627941 
L 185.768812 125.99628 
L 190.435813 129.981219 
L 195.102812 139.020461 
L 199.769813 141.580267 
L 204.436813 135.325336 
L 209.103813 130.481964 
L 213.770813 139.761023 
L 218.437813 144.697353 
L 223.104813 136.806891 
L 227.771813 130.842639 
L 232.438813 127.494384 
L 237.105813 132.391294 
L 241.772812 122.770634 
L 246.439813 127.847651 
L 251.106813 123.930836 
L 255.773812 117.952708 
L 260.440812 111.976979 
L 265.107813 102.213715 
L 269.774813 95.187901 
L 274.441812 84.426339 
L 279.108812 78.798578 
L 283.775813 78.24769 
L 288.442813 70.39517 
L 293.109812 64.578056 
L 297.776813 67.004778 
L 302.443812 79.818249 
L 307.110813 81.879848 
L 311.777812 78.208323 
L 316.444813 76.194448 
L 321.111813 61.71596 
L 325.778813 56.021188 
L 330.445812 60.774056 
L 335.112813 61.584037 
L 339.779813 72.065552 
L 344.446813 70.21896 
L 349.113812 77.136003 
L 353.780813 63.936125 
L 358.447813 60.200187 
L 363.114812 52.144831 
L 367.781813 64.869676 
L 372.448813 62.180184 
L 377.115812 54.976943 
L 381.782812 52.122583 
L 386.449813 44.819136 
L 391.116813 65.693141 
L 395.783812 68.154275 
L 400.450812 74.006839 
" style="fill:none;stroke:#2ca02c;stroke-linecap:round;stroke-width:1.5;"/>
   </g>
   <g id="line2d_17">
    <path clip-path="url(#p660dcdb6cb)" d="M 55.092813 148.283812 
L 59.759813 146.246819 
L 64.426813 132.140044 
L 69.093813 134.555219 
L 73.760813 121.664747 
L 78.427813 117.786574 
L 83.094813 113.293465 
L 87.761813 112.014914 
L 92.428813 118.242256 
L 97.095813 123.460717 
L 101.762812 128.199656 
L 106.429812 129.253327 
L 111.096812 134.800302 
L 115.763813 133.839966 
L 120.430813 136.379523 
L 125.097813 137.005197 
L 129.764813 139.577729 
L 134.431813 147.829498 
L 139.098813 159.227986 
L 143.765813 168.025149 
L 148.432813 172.682864 
L 153.099813 171.622649 
L 157.766813 168.727237 
L 162.433813 171.214106 
L 167.100813 176.479172 
L 171.767813 170.761587 
L 176.434813 157.983222 
L 181.101812 162.045521 
L 185.768812 154.517651 
L 190.435813 160.191648 
L 195.102812 158.388573 
L 199.769813 148.224386 
L 204.436813 156.545476 
L 209.103813 148.0969 
L 213.770813 152.183825 
L 218.437813 146.434585 
L 223.104813 153.671847 
L 227.771813 153.099723 
L 232.438813 157.796437 
L 237.105813 156.037072 
L 241.772812 159.207785 
L 246.439813 145.842982 
L 251.106813 127.516554 
L 255.773812 124.362865 
L 260.440812 132.020758 
L 265.107813 125.781494 
L 269.774813 136.77115 
L 274.441812 135.840835 
L 279.108812 146.551614 
L 283.775813 156.906718 
L 288.442813 152.597209 
L 293.109812 160.7727 
L 297.776813 154.252773 
L 302.443812 151.050859 
L 307.110813 154.381018 
L 311.777812 153.880065 
L 316.444813 157.071132 
L 321.111813 166.721465 
L 325.778813 163.827184 
L 330.445812 175.451501 
L 335.112813 177.545612 
L 339.779813 184.348264 
L 344.446813 187.057746 
L 349.113812 194.092647 
L 353.780813 191.21472 
L 358.447813 188.511749 
L 363.114812 193.362506 
L 367.781813 190.788585 
L 372.448813 197.936462 
L 377.115812 206.708736 
L 381.782812 217.225419 
L 386.449813 216.233712 
L 391.116813 220.692702 
L 395.783812 226.091864 
L 400.450812 221.157987 
" style="fill:none;stroke:#d62728;stroke-linecap:round;stroke-width:1.5;"/>
   </g>
   <g id="line2d_18">
    <path clip-path="url(#p660dcdb6cb)" d="M 55.092813 164.411425 
L 59.759813 156.0007 
L 64.426813 167.541905 
L 69.093813 162.205173 
L 73.760813 153.110844 
L 78.427813 151.46885 
L 83.094813 147.332747 
L 87.761813 134.857211 
L 92.428813 150.225383 
L 97.095813 151.660966 
L 101.762812 154.535478 
L 106.429812 162.529567 
L 111.096812 167.720798 
L 115.763813 165.156905 
L 120.430813 162.099281 
L 125.097813 164.320825 
L 129.764813 161.724859 
L 134.431813 162.796524 
L 139.098813 158.004576 
L 143.765813 170.342467 
L 148.432813 169.780448 
L 153.099813 173.868505 
L 157.766813 180.083901 
L 162.433813 190.179565 
L 167.100813 186.822903 
L 171.767813 187.192768 
L 176.434813 186.804647 
L 181.101812 190.924625 
L 185.768812 187.996231 
L 190.435813 183.312405 
L 195.102812 193.040518 
L 199.769813 192.392575 
L 204.436813 180.637616 
L 209.103813 172.861972 
L 213.770813 177.96392 
L 218.437813 167.377224 
L 223.104813 163.619276 
L 227.771813 173.404681 
L 232.438813 171.015603 
L 237.105813 160.421541 
L 241.772812 161.390261 
L 246.439813 150.63257 
L 251.106813 157.65877 
L 255.773812 158.5404 
L 260.440812 159.48921 
L 265.107813 156.88601 
L 269.774813 159.59452 
L 274.441812 152.492672 
L 279.108812 154.22182 
L 283.775813 147.088761 
L 288.442813 140.91355 
L 293.109812 141.015003 
L 297.776813 134.70905 
L 302.443812 130.529463 
L 307.110813 136.54962 
L 311.777812 125.617768 
L 316.444813 127.768779 
L 321.111813 113.982029 
L 325.778813 108.469686 
L 330.445812 114.503125 
L 335.112813 113.826233 
L 339.779813 114.739186 
L 344.446813 128.104693 
L 349.113812 124.202375 
L 353.780813 126.24482 
L 358.447813 128.218462 
L 363.114812 135.679977 
L 367.781813 133.532035 
L 372.448813 137.579766 
L 377.115812 132.17367 
L 381.782812 133.955036 
L 386.449813 126.848435 
L 391.116813 137.996636 
L 395.783812 130.708001 
L 400.450812 131.157743 
" style="fill:none;stroke:#9467bd;stroke-linecap:round;stroke-width:1.5;"/>
   </g>
   <g id="patch_3">
    <path d="M 55.092813 235.1555 
L 55.092813 35.7555 
" style="fill:none;stroke:#ffffff;stroke-linecap:square;stroke-linejoin:miter;stroke-width:0.8;"/>
   </g>
   <g id="patch_4">
    <path d="M 405.117813 235.1555 
L 405.117813 35.7555 
" style="fill:none;stroke:#ffffff;stroke-linecap:square;stroke-linejoin:miter;stroke-width:0.8;"/>
   </g>
   <g id="patch_5">
    <path d="M 55.092813 235.1555 
L 405.117813 235.1555 
" style="fill:none;stroke:#ffffff;stroke-linecap:square;stroke-linejoin:miter;stroke-width:0.8;"/>
   </g>
   <g id="patch_6">
    <path d="M 55.092813 35.7555 
L 405.117813 35.7555 
" style="fill:none;stroke:#ffffff;stroke-linecap:square;stroke-linejoin:miter;stroke-width:0.8;"/>
   </g>
   <g id="text_16">
    <!-- Brownian motion process -->
    <g style="fill:#262626;" transform="translate(154.254063 16.318125)scale(0.12 -0.12)">
     <defs>
      <path d="M 19.671875 34.8125 
L 19.671875 8.109375 
L 35.5 8.109375 
Q 43.453125 8.109375 47.28125 11.40625 
Q 51.125 14.703125 51.125 21.484375 
Q 51.125 28.328125 47.28125 31.5625 
Q 43.453125 34.8125 35.5 34.8125 
z
M 19.671875 64.796875 
L 19.671875 42.828125 
L 34.28125 42.828125 
Q 41.5 42.828125 45.03125 45.53125 
Q 48.578125 48.25 48.578125 53.8125 
Q 48.578125 59.328125 45.03125 62.0625 
Q 41.5 64.796875 34.28125 64.796875 
z
M 9.8125 72.90625 
L 35.015625 72.90625 
Q 46.296875 72.90625 52.390625 68.21875 
Q 58.5 63.53125 58.5 54.890625 
Q 58.5 48.1875 55.375 44.234375 
Q 52.25 40.28125 46.1875 39.3125 
Q 53.46875 37.75 57.5 32.78125 
Q 61.53125 27.828125 61.53125 20.40625 
Q 61.53125 10.640625 54.890625 5.3125 
Q 48.25 0 35.984375 0 
L 9.8125 0 
z
" id="DejaVuSans-66"/>
      <path d="M 41.109375 46.296875 
Q 39.59375 47.171875 37.8125 47.578125 
Q 36.03125 48 33.890625 48 
Q 26.265625 48 22.1875 43.046875 
Q 18.109375 38.09375 18.109375 28.8125 
L 18.109375 0 
L 9.078125 0 
L 9.078125 54.6875 
L 18.109375 54.6875 
L 18.109375 46.1875 
Q 20.953125 51.171875 25.484375 53.578125 
Q 30.03125 56 36.53125 56 
Q 37.453125 56 38.578125 55.875 
Q 39.703125 55.765625 41.0625 55.515625 
z
" id="DejaVuSans-114"/>
      <path d="M 4.203125 54.6875 
L 13.1875 54.6875 
L 24.421875 12.015625 
L 35.59375 54.6875 
L 46.1875 54.6875 
L 57.421875 12.015625 
L 68.609375 54.6875 
L 77.59375 54.6875 
L 63.28125 0 
L 52.6875 0 
L 40.921875 44.828125 
L 29.109375 0 
L 18.5 0 
z
" id="DejaVuSans-119"/>
      <path d="M 34.28125 27.484375 
Q 23.390625 27.484375 19.1875 25 
Q 14.984375 22.515625 14.984375 16.5 
Q 14.984375 11.71875 18.140625 8.90625 
Q 21.296875 6.109375 26.703125 6.109375 
Q 34.1875 6.109375 38.703125 11.40625 
Q 43.21875 16.703125 43.21875 25.484375 
L 43.21875 27.484375 
z
M 52.203125 31.203125 
L 52.203125 0 
L 43.21875 0 
L 43.21875 8.296875 
Q 40.140625 3.328125 35.546875 0.953125 
Q 30.953125 -1.421875 24.3125 -1.421875 
Q 15.921875 -1.421875 10.953125 3.296875 
Q 6 8.015625 6 15.921875 
Q 6 25.140625 12.171875 29.828125 
Q 18.359375 34.515625 30.609375 34.515625 
L 43.21875 34.515625 
L 43.21875 35.40625 
Q 43.21875 41.609375 39.140625 45 
Q 35.0625 48.390625 27.6875 48.390625 
Q 23 48.390625 18.546875 47.265625 
Q 14.109375 46.140625 10.015625 43.890625 
L 10.015625 52.203125 
Q 14.9375 54.109375 19.578125 55.046875 
Q 24.21875 56 28.609375 56 
Q 40.484375 56 46.34375 49.84375 
Q 52.203125 43.703125 52.203125 31.203125 
z
" id="DejaVuSans-97"/>
      <path d="M 48.78125 52.59375 
L 48.78125 44.1875 
Q 44.96875 46.296875 41.140625 47.34375 
Q 37.3125 48.390625 33.40625 48.390625 
Q 24.65625 48.390625 19.8125 42.84375 
Q 14.984375 37.3125 14.984375 27.296875 
Q 14.984375 17.28125 19.8125 11.734375 
Q 24.65625 6.203125 33.40625 6.203125 
Q 37.3125 6.203125 41.140625 7.25 
Q 44.96875 8.296875 48.78125 10.40625 
L 48.78125 2.09375 
Q 45.015625 0.34375 40.984375 -0.53125 
Q 36.96875 -1.421875 32.421875 -1.421875 
Q 20.0625 -1.421875 12.78125 6.34375 
Q 5.515625 14.109375 5.515625 27.296875 
Q 5.515625 40.671875 12.859375 48.328125 
Q 20.21875 56 33.015625 56 
Q 37.15625 56 41.109375 55.140625 
Q 45.0625 54.296875 48.78125 52.59375 
z
" id="DejaVuSans-99"/>
     </defs>
     <use xlink:href="#DejaVuSans-66"/>
     <use x="68.603516" xlink:href="#DejaVuSans-114"/>
     <use x="107.466797" xlink:href="#DejaVuSans-111"/>
     <use x="168.648438" xlink:href="#DejaVuSans-119"/>
     <use x="250.435547" xlink:href="#DejaVuSans-110"/>
     <use x="313.814453" xlink:href="#DejaVuSans-105"/>
     <use x="341.597656" xlink:href="#DejaVuSans-97"/>
     <use x="402.876953" xlink:href="#DejaVuSans-110"/>
     <use x="466.255859" xlink:href="#DejaVuSans-32"/>
     <use x="498.042969" xlink:href="#DejaVuSans-109"/>
     <use x="595.455078" xlink:href="#DejaVuSans-111"/>
     <use x="656.636719" xlink:href="#DejaVuSans-116"/>
     <use x="695.845703" xlink:href="#DejaVuSans-105"/>
     <use x="723.628906" xlink:href="#DejaVuSans-111"/>
     <use x="784.810547" xlink:href="#DejaVuSans-110"/>
     <use x="848.189453" xlink:href="#DejaVuSans-32"/>
     <use x="879.976562" xlink:href="#DejaVuSans-112"/>
     <use x="943.453125" xlink:href="#DejaVuSans-114"/>
     <use x="982.316406" xlink:href="#DejaVuSans-111"/>
     <use x="1043.498047" xlink:href="#DejaVuSans-99"/>
     <use x="1098.478516" xlink:href="#DejaVuSans-101"/>
     <use x="1160.001953" xlink:href="#DejaVuSans-115"/>
     <use x="1212.101562" xlink:href="#DejaVuSans-115"/>
    </g>
    <!--  Position over time for 5 independent realizations -->
    <g style="fill:#262626;" transform="translate(81.98875 29.7555)scale(0.12 -0.12)">
     <defs>
      <path d="M 19.671875 64.796875 
L 19.671875 37.40625 
L 32.078125 37.40625 
Q 38.96875 37.40625 42.71875 40.96875 
Q 46.484375 44.53125 46.484375 51.125 
Q 46.484375 57.671875 42.71875 61.234375 
Q 38.96875 64.796875 32.078125 64.796875 
z
M 9.8125 72.90625 
L 32.078125 72.90625 
Q 44.34375 72.90625 50.609375 67.359375 
Q 56.890625 61.8125 56.890625 51.125 
Q 56.890625 40.328125 50.609375 34.8125 
Q 44.34375 29.296875 32.078125 29.296875 
L 19.671875 29.296875 
L 19.671875 0 
L 9.8125 0 
z
" id="DejaVuSans-80"/>
      <path d="M 2.984375 54.6875 
L 12.5 54.6875 
L 29.59375 8.796875 
L 46.6875 54.6875 
L 56.203125 54.6875 
L 35.6875 0 
L 23.484375 0 
z
" id="DejaVuSans-118"/>
      <path d="M 37.109375 75.984375 
L 37.109375 68.5 
L 28.515625 68.5 
Q 23.6875 68.5 21.796875 66.546875 
Q 19.921875 64.59375 19.921875 59.515625 
L 19.921875 54.6875 
L 34.71875 54.6875 
L 34.71875 47.703125 
L 19.921875 47.703125 
L 19.921875 0 
L 10.890625 0 
L 10.890625 47.703125 
L 2.296875 47.703125 
L 2.296875 54.6875 
L 10.890625 54.6875 
L 10.890625 58.5 
Q 10.890625 67.625 15.140625 71.796875 
Q 19.390625 75.984375 28.609375 75.984375 
z
" id="DejaVuSans-102"/>
      <path d="M 45.40625 46.390625 
L 45.40625 75.984375 
L 54.390625 75.984375 
L 54.390625 0 
L 45.40625 0 
L 45.40625 8.203125 
Q 42.578125 3.328125 38.25 0.953125 
Q 33.9375 -1.421875 27.875 -1.421875 
Q 17.96875 -1.421875 11.734375 6.484375 
Q 5.515625 14.40625 5.515625 27.296875 
Q 5.515625 40.1875 11.734375 48.09375 
Q 17.96875 56 27.875 56 
Q 33.9375 56 38.25 53.625 
Q 42.578125 51.265625 45.40625 46.390625 
z
M 14.796875 27.296875 
Q 14.796875 17.390625 18.875 11.75 
Q 22.953125 6.109375 30.078125 6.109375 
Q 37.203125 6.109375 41.296875 11.75 
Q 45.40625 17.390625 45.40625 27.296875 
Q 45.40625 37.203125 41.296875 42.84375 
Q 37.203125 48.484375 30.078125 48.484375 
Q 22.953125 48.484375 18.875 42.84375 
Q 14.796875 37.203125 14.796875 27.296875 
z
" id="DejaVuSans-100"/>
      <path d="M 9.421875 75.984375 
L 18.40625 75.984375 
L 18.40625 0 
L 9.421875 0 
z
" id="DejaVuSans-108"/>
      <path d="M 5.515625 54.6875 
L 48.1875 54.6875 
L 48.1875 46.484375 
L 14.40625 7.171875 
L 48.1875 7.171875 
L 48.1875 0 
L 4.296875 0 
L 4.296875 8.203125 
L 38.09375 47.515625 
L 5.515625 47.515625 
z
" id="DejaVuSans-122"/>
     </defs>
     <use xlink:href="#DejaVuSans-32"/>
     <use x="31.787109" xlink:href="#DejaVuSans-80"/>
     <use x="88.464844" xlink:href="#DejaVuSans-111"/>
     <use x="149.646484" xlink:href="#DejaVuSans-115"/>
     <use x="201.746094" xlink:href="#DejaVuSans-105"/>
     <use x="229.529297" xlink:href="#DejaVuSans-116"/>
     <use x="268.738281" xlink:href="#DejaVuSans-105"/>
     <use x="296.521484" xlink:href="#DejaVuSans-111"/>
     <use x="357.703125" xlink:href="#DejaVuSans-110"/>
     <use x="421.082031" xlink:href="#DejaVuSans-32"/>
     <use x="452.869141" xlink:href="#DejaVuSans-111"/>
     <use x="514.050781" xlink:href="#DejaVuSans-118"/>
     <use x="573.230469" xlink:href="#DejaVuSans-101"/>
     <use x="634.753906" xlink:href="#DejaVuSans-114"/>
     <use x="675.867188" xlink:href="#DejaVuSans-32"/>
     <use x="707.654297" xlink:href="#DejaVuSans-116"/>
     <use x="746.863281" xlink:href="#DejaVuSans-105"/>
     <use x="774.646484" xlink:href="#DejaVuSans-109"/>
     <use x="872.058594" xlink:href="#DejaVuSans-101"/>
     <use x="933.582031" xlink:href="#DejaVuSans-32"/>
     <use x="965.369141" xlink:href="#DejaVuSans-102"/>
     <use x="1000.574219" xlink:href="#DejaVuSans-111"/>
     <use x="1061.755859" xlink:href="#DejaVuSans-114"/>
     <use x="1102.869141" xlink:href="#DejaVuSans-32"/>
     <use x="1134.65625" xlink:href="#DejaVuSans-53"/>
     <use x="1198.279297" xlink:href="#DejaVuSans-32"/>
     <use x="1230.066406" xlink:href="#DejaVuSans-105"/>
     <use x="1257.849609" xlink:href="#DejaVuSans-110"/>
     <use x="1321.228516" xlink:href="#DejaVuSans-100"/>
     <use x="1384.705078" xlink:href="#DejaVuSans-101"/>
     <use x="1446.228516" xlink:href="#DejaVuSans-112"/>
     <use x="1509.705078" xlink:href="#DejaVuSans-101"/>
     <use x="1571.228516" xlink:href="#DejaVuSans-110"/>
     <use x="1634.607422" xlink:href="#DejaVuSans-100"/>
     <use x="1698.083984" xlink:href="#DejaVuSans-101"/>
     <use x="1759.607422" xlink:href="#DejaVuSans-110"/>
     <use x="1822.986328" xlink:href="#DejaVuSans-116"/>
     <use x="1862.195312" xlink:href="#DejaVuSans-32"/>
     <use x="1893.982422" xlink:href="#DejaVuSans-114"/>
     <use x="1932.845703" xlink:href="#DejaVuSans-101"/>
     <use x="1994.369141" xlink:href="#DejaVuSans-97"/>
     <use x="2055.648438" xlink:href="#DejaVuSans-108"/>
     <use x="2083.431641" xlink:href="#DejaVuSans-105"/>
     <use x="2111.214844" xlink:href="#DejaVuSans-122"/>
     <use x="2163.705078" xlink:href="#DejaVuSans-97"/>
     <use x="2224.984375" xlink:href="#DejaVuSans-116"/>
     <use x="2264.193359" xlink:href="#DejaVuSans-105"/>
     <use x="2291.976562" xlink:href="#DejaVuSans-111"/>
     <use x="2353.158203" xlink:href="#DejaVuSans-110"/>
     <use x="2416.537109" xlink:href="#DejaVuSans-115"/>
    </g>
   </g>
  </g>
 </g>
 <defs>
  <clipPath id="p660dcdb6cb">
   <rect height="199.4" width="350.025" x="55.092813" y="35.7555"/>
  </clipPath>
 </defs>
</svg>
