<?xml version="1.0" encoding="utf-8" standalone="no"?>
<!DOCTYPE svg PUBLIC "-//W3C//DTD SVG 1.1//EN"
  "http://www.w3.org/Graphics/SVG/1.1/DTD/svg11.dtd">
<!-- Created with matplotlib (https://matplotlib.org/) -->
<svg height="275.615188pt" version="1.1" viewBox="0 0 420.269375 275.615188" width="420.269375pt" xmlns="http://www.w3.org/2000/svg" xmlns:xlink="http://www.w3.org/1999/xlink">
 <metadata>
  <rdf:RDF xmlns:cc="http://creativecommons.org/ns#" xmlns:dc="http://purl.org/dc/elements/1.1/" xmlns:rdf="http://www.w3.org/1999/02/22-rdf-syntax-ns#">
   <cc:Work>
    <dc:type rdf:resource="http://purl.org/dc/dcmitype/StillImage"/>
    <dc:date>2021-08-20T15:14:45.555240</dc:date>
    <dc:format>image/svg+xml</dc:format>
    <dc:creator>
     <cc:Agent>
      <dc:title>Matplotlib v3.3.4, https://matplotlib.org/</dc:title>
     </cc:Agent>
    </dc:creator>
   </cc:Work>
  </rdf:RDF>
 </metadata>
 <defs>
  <style type="text/css">*{stroke-linecap:butt;stroke-linejoin:round;}</style>
 </defs>
 <g id="figure_1">
  <g id="patch_1">
   <path d="M 0 275.615188 
L 420.269375 275.615188 
L 420.269375 0 
L 0 0 
z
" style="fill:#ffffff;"/>
  </g>
  <g id="axes_1">
   <g id="patch_2">
    <path d="M 55.092813 235.1555 
L 405.117813 235.1555 
L 405.117813 35.7555 
L 55.092813 35.7555 
z
" style="fill:#eaeaf2;"/>
   </g>
   <g id="matplotlib.axis_1">
    <g id="xtick_1">
     <g id="line2d_1">
      <path clip-path="url(#p41ec80e72a)" d="M 55.092813 235.1555 
L 55.092813 35.7555 
" style="fill:none;stroke:#ffffff;stroke-linecap:round;stroke-width:0.8;"/>
     </g>
     <g id="text_1">
      <!-- 0.0 -->
      <g style="fill:#262626;" transform="translate(47.14125 249.753938)scale(0.1 -0.1)">
       <defs>
        <path d="M 31.78125 66.40625 
Q 24.171875 66.40625 20.328125 58.90625 
Q 16.5 51.421875 16.5 36.375 
Q 16.5 21.390625 20.328125 13.890625 
Q 24.171875 6.390625 31.78125 6.390625 
Q 39.453125 6.390625 43.28125 13.890625 
Q 47.125 21.390625 47.125 36.375 
Q 47.125 51.421875 43.28125 58.90625 
Q 39.453125 66.40625 31.78125 66.40625 
z
M 31.78125 74.21875 
Q 44.046875 74.21875 50.515625 64.515625 
Q 56.984375 54.828125 56.984375 36.375 
Q 56.984375 17.96875 50.515625 8.265625 
Q 44.046875 -1.421875 31.78125 -1.421875 
Q 19.53125 -1.421875 13.0625 8.265625 
Q 6.59375 17.96875 6.59375 36.375 
Q 6.59375 54.828125 13.0625 64.515625 
Q 19.53125 74.21875 31.78125 74.21875 
z
" id="DejaVuSans-48"/>
        <path d="M 10.6875 12.40625 
L 21 12.40625 
L 21 0 
L 10.6875 0 
z
" id="DejaVuSans-46"/>
       </defs>
       <use xlink:href="#DejaVuSans-48"/>
       <use x="63.623047" xlink:href="#DejaVuSans-46"/>
       <use x="95.410156" xlink:href="#DejaVuSans-48"/>
      </g>
     </g>
    </g>
    <g id="xtick_2">
     <g id="line2d_2">
      <path clip-path="url(#p41ec80e72a)" d="M 125.097813 235.1555 
L 125.097813 35.7555 
" style="fill:none;stroke:#ffffff;stroke-linecap:round;stroke-width:0.8;"/>
     </g>
     <g id="text_2">
      <!-- 0.2 -->
      <g style="fill:#262626;" transform="translate(117.14625 249.753938)scale(0.1 -0.1)">
       <defs>
        <path d="M 19.1875 8.296875 
L 53.609375 8.296875 
L 53.609375 0 
L 7.328125 0 
L 7.328125 8.296875 
Q 12.9375 14.109375 22.625 23.890625 
Q 32.328125 33.6875 34.8125 36.53125 
Q 39.546875 41.84375 41.421875 45.53125 
Q 43.3125 49.21875 43.3125 52.78125 
Q 43.3125 58.59375 39.234375 62.25 
Q 35.15625 65.921875 28.609375 65.921875 
Q 23.96875 65.921875 18.8125 64.3125 
Q 13.671875 62.703125 7.8125 59.421875 
L 7.8125 69.390625 
Q 13.765625 71.78125 18.9375 73 
Q 24.125 74.21875 28.421875 74.21875 
Q 39.75 74.21875 46.484375 68.546875 
Q 53.21875 62.890625 53.21875 53.421875 
Q 53.21875 48.921875 51.53125 44.890625 
Q 49.859375 40.875 45.40625 35.40625 
Q 44.1875 33.984375 37.640625 27.21875 
Q 31.109375 20.453125 19.1875 8.296875 
z
" id="DejaVuSans-50"/>
       </defs>
       <use xlink:href="#DejaVuSans-48"/>
       <use x="63.623047" xlink:href="#DejaVuSans-46"/>
       <use x="95.410156" xlink:href="#DejaVuSans-50"/>
      </g>
     </g>
    </g>
    <g id="xtick_3">
     <g id="line2d_3">
      <path clip-path="url(#p41ec80e72a)" d="M 195.102812 235.1555 
L 195.102812 35.7555 
" style="fill:none;stroke:#ffffff;stroke-linecap:round;stroke-width:0.8;"/>
     </g>
     <g id="text_3">
      <!-- 0.4 -->
      <g style="fill:#262626;" transform="translate(187.15125 249.753938)scale(0.1 -0.1)">
       <defs>
        <path d="M 37.796875 64.3125 
L 12.890625 25.390625 
L 37.796875 25.390625 
z
M 35.203125 72.90625 
L 47.609375 72.90625 
L 47.609375 25.390625 
L 58.015625 25.390625 
L 58.015625 17.1875 
L 47.609375 17.1875 
L 47.609375 0 
L 37.796875 0 
L 37.796875 17.1875 
L 4.890625 17.1875 
L 4.890625 26.703125 
z
" id="DejaVuSans-52"/>
       </defs>
       <use xlink:href="#DejaVuSans-48"/>
       <use x="63.623047" xlink:href="#DejaVuSans-46"/>
       <use x="95.410156" xlink:href="#DejaVuSans-52"/>
      </g>
     </g>
    </g>
    <g id="xtick_4">
     <g id="line2d_4">
      <path clip-path="url(#p41ec80e72a)" d="M 265.107813 235.1555 
L 265.107813 35.7555 
" style="fill:none;stroke:#ffffff;stroke-linecap:round;stroke-width:0.8;"/>
     </g>
     <g id="text_4">
      <!-- 0.6 -->
      <g style="fill:#262626;" transform="translate(257.15625 249.753938)scale(0.1 -0.1)">
       <defs>
        <path d="M 33.015625 40.375 
Q 26.375 40.375 22.484375 35.828125 
Q 18.609375 31.296875 18.609375 23.390625 
Q 18.609375 15.53125 22.484375 10.953125 
Q 26.375 6.390625 33.015625 6.390625 
Q 39.65625 6.390625 43.53125 10.953125 
Q 47.40625 15.53125 47.40625 23.390625 
Q 47.40625 31.296875 43.53125 35.828125 
Q 39.65625 40.375 33.015625 40.375 
z
M 52.59375 71.296875 
L 52.59375 62.3125 
Q 48.875 64.0625 45.09375 64.984375 
Q 41.3125 65.921875 37.59375 65.921875 
Q 27.828125 65.921875 22.671875 59.328125 
Q 17.53125 52.734375 16.796875 39.40625 
Q 19.671875 43.65625 24.015625 45.921875 
Q 28.375 48.1875 33.59375 48.1875 
Q 44.578125 48.1875 50.953125 41.515625 
Q 57.328125 34.859375 57.328125 23.390625 
Q 57.328125 12.15625 50.6875 5.359375 
Q 44.046875 -1.421875 33.015625 -1.421875 
Q 20.359375 -1.421875 13.671875 8.265625 
Q 6.984375 17.96875 6.984375 36.375 
Q 6.984375 53.65625 15.1875 63.9375 
Q 23.390625 74.21875 37.203125 74.21875 
Q 40.921875 74.21875 44.703125 73.484375 
Q 48.484375 72.75 52.59375 71.296875 
z
" id="DejaVuSans-54"/>
       </defs>
       <use xlink:href="#DejaVuSans-48"/>
       <use x="63.623047" xlink:href="#DejaVuSans-46"/>
       <use x="95.410156" xlink:href="#DejaVuSans-54"/>
      </g>
     </g>
    </g>
    <g id="xtick_5">
     <g id="line2d_5">
      <path clip-path="url(#p41ec80e72a)" d="M 335.112813 235.1555 
L 335.112813 35.7555 
" style="fill:none;stroke:#ffffff;stroke-linecap:round;stroke-width:0.8;"/>
     </g>
     <g id="text_5">
      <!-- 0.8 -->
      <g style="fill:#262626;" transform="translate(327.16125 249.753938)scale(0.1 -0.1)">
       <defs>
        <path d="M 31.78125 34.625 
Q 24.75 34.625 20.71875 30.859375 
Q 16.703125 27.09375 16.703125 20.515625 
Q 16.703125 13.921875 20.71875 10.15625 
Q 24.75 6.390625 31.78125 6.390625 
Q 38.8125 6.390625 42.859375 10.171875 
Q 46.921875 13.96875 46.921875 20.515625 
Q 46.921875 27.09375 42.890625 30.859375 
Q 38.875 34.625 31.78125 34.625 
z
M 21.921875 38.8125 
Q 15.578125 40.375 12.03125 44.71875 
Q 8.5 49.078125 8.5 55.328125 
Q 8.5 64.0625 14.71875 69.140625 
Q 20.953125 74.21875 31.78125 74.21875 
Q 42.671875 74.21875 48.875 69.140625 
Q 55.078125 64.0625 55.078125 55.328125 
Q 55.078125 49.078125 51.53125 44.71875 
Q 48 40.375 41.703125 38.8125 
Q 48.828125 37.15625 52.796875 32.3125 
Q 56.78125 27.484375 56.78125 20.515625 
Q 56.78125 9.90625 50.3125 4.234375 
Q 43.84375 -1.421875 31.78125 -1.421875 
Q 19.734375 -1.421875 13.25 4.234375 
Q 6.78125 9.90625 6.78125 20.515625 
Q 6.78125 27.484375 10.78125 32.3125 
Q 14.796875 37.15625 21.921875 38.8125 
z
M 18.3125 54.390625 
Q 18.3125 48.734375 21.84375 45.5625 
Q 25.390625 42.390625 31.78125 42.390625 
Q 38.140625 42.390625 41.71875 45.5625 
Q 45.3125 48.734375 45.3125 54.390625 
Q 45.3125 60.0625 41.71875 63.234375 
Q 38.140625 66.40625 31.78125 66.40625 
Q 25.390625 66.40625 21.84375 63.234375 
Q 18.3125 60.0625 18.3125 54.390625 
z
" id="DejaVuSans-56"/>
       </defs>
       <use xlink:href="#DejaVuSans-48"/>
       <use x="63.623047" xlink:href="#DejaVuSans-46"/>
       <use x="95.410156" xlink:href="#DejaVuSans-56"/>
      </g>
     </g>
    </g>
    <g id="xtick_6">
     <g id="line2d_6">
      <path clip-path="url(#p41ec80e72a)" d="M 405.117813 235.1555 
L 405.117813 35.7555 
" style="fill:none;stroke:#ffffff;stroke-linecap:round;stroke-width:0.8;"/>
     </g>
     <g id="text_6">
      <!-- 1.0 -->
      <g style="fill:#262626;" transform="translate(397.16625 249.753938)scale(0.1 -0.1)">
       <defs>
        <path d="M 12.40625 8.296875 
L 28.515625 8.296875 
L 28.515625 63.921875 
L 10.984375 60.40625 
L 10.984375 69.390625 
L 28.421875 72.90625 
L 38.28125 72.90625 
L 38.28125 8.296875 
L 54.390625 8.296875 
L 54.390625 0 
L 12.40625 0 
z
" id="DejaVuSans-49"/>
       </defs>
       <use xlink:href="#DejaVuSans-49"/>
       <use x="63.623047" xlink:href="#DejaVuSans-46"/>
       <use x="95.410156" xlink:href="#DejaVuSans-48"/>
      </g>
     </g>
    </g>
    <g id="text_7">
     <!-- $t$ (time) -->
     <g style="fill:#262626;" transform="translate(205.730312 265.711594)scale(0.13 -0.13)">
      <defs>
       <path d="M 42.28125 54.6875 
L 40.921875 47.703125 
L 23 47.703125 
L 17.1875 18.015625 
Q 16.890625 16.359375 16.75 15.234375 
Q 16.609375 14.109375 16.609375 13.484375 
Q 16.609375 10.359375 18.484375 8.9375 
Q 20.359375 7.515625 24.515625 7.515625 
L 33.59375 7.515625 
L 32.078125 0 
L 23.484375 0 
Q 15.484375 0 11.546875 3.125 
Q 7.625 6.25 7.625 12.59375 
Q 7.625 13.71875 7.765625 15.0625 
Q 7.90625 16.40625 8.203125 18.015625 
L 14.015625 47.703125 
L 6.390625 47.703125 
L 7.8125 54.6875 
L 15.28125 54.6875 
L 18.3125 70.21875 
L 27.296875 70.21875 
L 24.3125 54.6875 
z
" id="DejaVuSans-Oblique-116"/>
       <path id="DejaVuSans-32"/>
       <path d="M 31 75.875 
Q 24.46875 64.65625 21.28125 53.65625 
Q 18.109375 42.671875 18.109375 31.390625 
Q 18.109375 20.125 21.3125 9.0625 
Q 24.515625 -2 31 -13.1875 
L 23.1875 -13.1875 
Q 15.875 -1.703125 12.234375 9.375 
Q 8.59375 20.453125 8.59375 31.390625 
Q 8.59375 42.28125 12.203125 53.3125 
Q 15.828125 64.359375 23.1875 75.875 
z
" id="DejaVuSans-40"/>
       <path d="M 18.3125 70.21875 
L 18.3125 54.6875 
L 36.8125 54.6875 
L 36.8125 47.703125 
L 18.3125 47.703125 
L 18.3125 18.015625 
Q 18.3125 11.328125 20.140625 9.421875 
Q 21.96875 7.515625 27.59375 7.515625 
L 36.8125 7.515625 
L 36.8125 0 
L 27.59375 0 
Q 17.1875 0 13.234375 3.875 
Q 9.28125 7.765625 9.28125 18.015625 
L 9.28125 47.703125 
L 2.6875 47.703125 
L 2.6875 54.6875 
L 9.28125 54.6875 
L 9.28125 70.21875 
z
" id="DejaVuSans-116"/>
       <path d="M 9.421875 54.6875 
L 18.40625 54.6875 
L 18.40625 0 
L 9.421875 0 
z
M 9.421875 75.984375 
L 18.40625 75.984375 
L 18.40625 64.59375 
L 9.421875 64.59375 
z
" id="DejaVuSans-105"/>
       <path d="M 52 44.1875 
Q 55.375 50.25 60.0625 53.125 
Q 64.75 56 71.09375 56 
Q 79.640625 56 84.28125 50.015625 
Q 88.921875 44.046875 88.921875 33.015625 
L 88.921875 0 
L 79.890625 0 
L 79.890625 32.71875 
Q 79.890625 40.578125 77.09375 44.375 
Q 74.3125 48.1875 68.609375 48.1875 
Q 61.625 48.1875 57.5625 43.546875 
Q 53.515625 38.921875 53.515625 30.90625 
L 53.515625 0 
L 44.484375 0 
L 44.484375 32.71875 
Q 44.484375 40.625 41.703125 44.40625 
Q 38.921875 48.1875 33.109375 48.1875 
Q 26.21875 48.1875 22.15625 43.53125 
Q 18.109375 38.875 18.109375 30.90625 
L 18.109375 0 
L 9.078125 0 
L 9.078125 54.6875 
L 18.109375 54.6875 
L 18.109375 46.1875 
Q 21.1875 51.21875 25.484375 53.609375 
Q 29.78125 56 35.6875 56 
Q 41.65625 56 45.828125 52.96875 
Q 50 49.953125 52 44.1875 
z
" id="DejaVuSans-109"/>
       <path d="M 56.203125 29.59375 
L 56.203125 25.203125 
L 14.890625 25.203125 
Q 15.484375 15.921875 20.484375 11.0625 
Q 25.484375 6.203125 34.421875 6.203125 
Q 39.59375 6.203125 44.453125 7.46875 
Q 49.3125 8.734375 54.109375 11.28125 
L 54.109375 2.78125 
Q 49.265625 0.734375 44.1875 -0.34375 
Q 39.109375 -1.421875 33.890625 -1.421875 
Q 20.796875 -1.421875 13.15625 6.1875 
Q 5.515625 13.8125 5.515625 26.8125 
Q 5.515625 40.234375 12.765625 48.109375 
Q 20.015625 56 32.328125 56 
Q 43.359375 56 49.78125 48.890625 
Q 56.203125 41.796875 56.203125 29.59375 
z
M 47.21875 32.234375 
Q 47.125 39.59375 43.09375 43.984375 
Q 39.0625 48.390625 32.421875 48.390625 
Q 24.90625 48.390625 20.390625 44.140625 
Q 15.875 39.890625 15.1875 32.171875 
z
" id="DejaVuSans-101"/>
       <path d="M 8.015625 75.875 
L 15.828125 75.875 
Q 23.140625 64.359375 26.78125 53.3125 
Q 30.421875 42.28125 30.421875 31.390625 
Q 30.421875 20.453125 26.78125 9.375 
Q 23.140625 -1.703125 15.828125 -13.1875 
L 8.015625 -13.1875 
Q 14.5 -2 17.703125 9.0625 
Q 20.90625 20.125 20.90625 31.390625 
Q 20.90625 42.671875 17.703125 53.65625 
Q 14.5 64.65625 8.015625 75.875 
z
" id="DejaVuSans-41"/>
      </defs>
      <use transform="translate(0 0.015625)" xlink:href="#DejaVuSans-Oblique-116"/>
      <use transform="translate(39.208984 0.015625)" xlink:href="#DejaVuSans-32"/>
      <use transform="translate(70.996094 0.015625)" xlink:href="#DejaVuSans-40"/>
      <use transform="translate(110.009766 0.015625)" xlink:href="#DejaVuSans-116"/>
      <use transform="translate(149.21875 0.015625)" xlink:href="#DejaVuSans-105"/>
      <use transform="translate(177.001953 0.015625)" xlink:href="#DejaVuSans-109"/>
      <use transform="translate(274.414062 0.015625)" xlink:href="#DejaVuSans-101"/>
      <use transform="translate(335.9375 0.015625)" xlink:href="#DejaVuSans-41"/>
     </g>
    </g>
   </g>
   <g id="matplotlib.axis_2">
    <g id="ytick_1">
     <g id="line2d_7">
      <path clip-path="url(#p41ec80e72a)" d="M 55.092813 202.576953 
L 405.117813 202.576953 
" style="fill:none;stroke:#ffffff;stroke-linecap:round;stroke-width:0.8;"/>
     </g>
     <g id="text_8">
      <!-- −0.5 -->
      <g style="fill:#262626;" transform="translate(23.81 206.376172)scale(0.1 -0.1)">
       <defs>
        <path d="M 10.59375 35.5 
L 73.1875 35.5 
L 73.1875 27.203125 
L 10.59375 27.203125 
z
" id="DejaVuSans-8722"/>
        <path d="M 10.796875 72.90625 
L 49.515625 72.90625 
L 49.515625 64.59375 
L 19.828125 64.59375 
L 19.828125 46.734375 
Q 21.96875 47.46875 24.109375 47.828125 
Q 26.265625 48.1875 28.421875 48.1875 
Q 40.625 48.1875 47.75 41.5 
Q 54.890625 34.8125 54.890625 23.390625 
Q 54.890625 11.625 47.5625 5.09375 
Q 40.234375 -1.421875 26.90625 -1.421875 
Q 22.3125 -1.421875 17.546875 -0.640625 
Q 12.796875 0.140625 7.71875 1.703125 
L 7.71875 11.625 
Q 12.109375 9.234375 16.796875 8.0625 
Q 21.484375 6.890625 26.703125 6.890625 
Q 35.15625 6.890625 40.078125 11.328125 
Q 45.015625 15.765625 45.015625 23.390625 
Q 45.015625 31 40.078125 35.4375 
Q 35.15625 39.890625 26.703125 39.890625 
Q 22.75 39.890625 18.8125 39.015625 
Q 14.890625 38.140625 10.796875 36.28125 
z
" id="DejaVuSans-53"/>
       </defs>
       <use xlink:href="#DejaVuSans-8722"/>
       <use x="83.789062" xlink:href="#DejaVuSans-48"/>
       <use x="147.412109" xlink:href="#DejaVuSans-46"/>
       <use x="179.199219" xlink:href="#DejaVuSans-53"/>
      </g>
     </g>
    </g>
    <g id="ytick_2">
     <g id="line2d_8">
      <path clip-path="url(#p41ec80e72a)" d="M 55.092813 160.826303 
L 405.117813 160.826303 
" style="fill:none;stroke:#ffffff;stroke-linecap:round;stroke-width:0.8;"/>
     </g>
     <g id="text_9">
      <!-- 0.0 -->
      <g style="fill:#262626;" transform="translate(32.189688 164.625522)scale(0.1 -0.1)">
       <use xlink:href="#DejaVuSans-48"/>
       <use x="63.623047" xlink:href="#DejaVuSans-46"/>
       <use x="95.410156" xlink:href="#DejaVuSans-48"/>
      </g>
     </g>
    </g>
    <g id="ytick_3">
     <g id="line2d_9">
      <path clip-path="url(#p41ec80e72a)" d="M 55.092813 119.075653 
L 405.117813 119.075653 
" style="fill:none;stroke:#ffffff;stroke-linecap:round;stroke-width:0.8;"/>
     </g>
     <g id="text_10">
      <!-- 0.5 -->
      <g style="fill:#262626;" transform="translate(32.189688 122.874872)scale(0.1 -0.1)">
       <use xlink:href="#DejaVuSans-48"/>
       <use x="63.623047" xlink:href="#DejaVuSans-46"/>
       <use x="95.410156" xlink:href="#DejaVuSans-53"/>
      </g>
     </g>
    </g>
    <g id="ytick_4">
     <g id="line2d_10">
      <path clip-path="url(#p41ec80e72a)" d="M 55.092813 77.325003 
L 405.117813 77.325003 
" style="fill:none;stroke:#ffffff;stroke-linecap:round;stroke-width:0.8;"/>
     </g>
     <g id="text_11">
      <!-- 1.0 -->
      <g style="fill:#262626;" transform="translate(32.189688 81.124222)scale(0.1 -0.1)">
       <use xlink:href="#DejaVuSans-49"/>
       <use x="63.623047" xlink:href="#DejaVuSans-46"/>
       <use x="95.410156" xlink:href="#DejaVuSans-48"/>
      </g>
     </g>
    </g>
    <g id="text_12">
     <!-- $d$ (position) -->
     <g style="fill:#262626;" transform="translate(17.08 172.5055)rotate(-90)scale(0.13 -0.13)">
      <defs>
       <path d="M 41.796875 8.203125 
Q 38.1875 3.46875 33.25 1.015625 
Q 28.328125 -1.421875 22.3125 -1.421875 
Q 14.109375 -1.421875 9.34375 4.171875 
Q 4.59375 9.765625 4.59375 19.484375 
Q 4.59375 27.59375 7.46875 34.9375 
Q 10.359375 42.28125 15.828125 48.09375 
Q 19.4375 51.953125 23.96875 53.96875 
Q 28.515625 56 33.5 56 
Q 38.765625 56 42.796875 53.453125 
Q 46.828125 50.921875 49.03125 46.1875 
L 54.890625 75.984375 
L 63.921875 75.984375 
L 49.125 0 
L 40.09375 0 
z
M 13.921875 21.09375 
Q 13.921875 14.015625 17.109375 10.0625 
Q 20.3125 6.109375 25.984375 6.109375 
Q 30.171875 6.109375 33.765625 8.125 
Q 37.359375 10.15625 40.09375 14.109375 
Q 42.96875 18.21875 44.625 23.578125 
Q 46.296875 28.953125 46.296875 34.1875 
Q 46.296875 40.96875 43.09375 44.765625 
Q 39.890625 48.578125 34.28125 48.578125 
Q 30.03125 48.578125 26.359375 46.578125 
Q 22.703125 44.578125 20.125 40.828125 
Q 17.28125 36.765625 15.59375 31.390625 
Q 13.921875 26.03125 13.921875 21.09375 
z
" id="DejaVuSans-Oblique-100"/>
       <path d="M 18.109375 8.203125 
L 18.109375 -20.796875 
L 9.078125 -20.796875 
L 9.078125 54.6875 
L 18.109375 54.6875 
L 18.109375 46.390625 
Q 20.953125 51.265625 25.265625 53.625 
Q 29.59375 56 35.59375 56 
Q 45.5625 56 51.78125 48.09375 
Q 58.015625 40.1875 58.015625 27.296875 
Q 58.015625 14.40625 51.78125 6.484375 
Q 45.5625 -1.421875 35.59375 -1.421875 
Q 29.59375 -1.421875 25.265625 0.953125 
Q 20.953125 3.328125 18.109375 8.203125 
z
M 48.6875 27.296875 
Q 48.6875 37.203125 44.609375 42.84375 
Q 40.53125 48.484375 33.40625 48.484375 
Q 26.265625 48.484375 22.1875 42.84375 
Q 18.109375 37.203125 18.109375 27.296875 
Q 18.109375 17.390625 22.1875 11.75 
Q 26.265625 6.109375 33.40625 6.109375 
Q 40.53125 6.109375 44.609375 11.75 
Q 48.6875 17.390625 48.6875 27.296875 
z
" id="DejaVuSans-112"/>
       <path d="M 30.609375 48.390625 
Q 23.390625 48.390625 19.1875 42.75 
Q 14.984375 37.109375 14.984375 27.296875 
Q 14.984375 17.484375 19.15625 11.84375 
Q 23.34375 6.203125 30.609375 6.203125 
Q 37.796875 6.203125 41.984375 11.859375 
Q 46.1875 17.53125 46.1875 27.296875 
Q 46.1875 37.015625 41.984375 42.703125 
Q 37.796875 48.390625 30.609375 48.390625 
z
M 30.609375 56 
Q 42.328125 56 49.015625 48.375 
Q 55.71875 40.765625 55.71875 27.296875 
Q 55.71875 13.875 49.015625 6.21875 
Q 42.328125 -1.421875 30.609375 -1.421875 
Q 18.84375 -1.421875 12.171875 6.21875 
Q 5.515625 13.875 5.515625 27.296875 
Q 5.515625 40.765625 12.171875 48.375 
Q 18.84375 56 30.609375 56 
z
" id="DejaVuSans-111"/>
       <path d="M 44.28125 53.078125 
L 44.28125 44.578125 
Q 40.484375 46.53125 36.375 47.5 
Q 32.28125 48.484375 27.875 48.484375 
Q 21.1875 48.484375 17.84375 46.4375 
Q 14.5 44.390625 14.5 40.28125 
Q 14.5 37.15625 16.890625 35.375 
Q 19.28125 33.59375 26.515625 31.984375 
L 29.59375 31.296875 
Q 39.15625 29.25 43.1875 25.515625 
Q 47.21875 21.78125 47.21875 15.09375 
Q 47.21875 7.46875 41.1875 3.015625 
Q 35.15625 -1.421875 24.609375 -1.421875 
Q 20.21875 -1.421875 15.453125 -0.5625 
Q 10.6875 0.296875 5.421875 2 
L 5.421875 11.28125 
Q 10.40625 8.6875 15.234375 7.390625 
Q 20.0625 6.109375 24.8125 6.109375 
Q 31.15625 6.109375 34.5625 8.28125 
Q 37.984375 10.453125 37.984375 14.40625 
Q 37.984375 18.0625 35.515625 20.015625 
Q 33.0625 21.96875 24.703125 23.78125 
L 21.578125 24.515625 
Q 13.234375 26.265625 9.515625 29.90625 
Q 5.8125 33.546875 5.8125 39.890625 
Q 5.8125 47.609375 11.28125 51.796875 
Q 16.75 56 26.8125 56 
Q 31.78125 56 36.171875 55.265625 
Q 40.578125 54.546875 44.28125 53.078125 
z
" id="DejaVuSans-115"/>
       <path d="M 54.890625 33.015625 
L 54.890625 0 
L 45.90625 0 
L 45.90625 32.71875 
Q 45.90625 40.484375 42.875 44.328125 
Q 39.84375 48.1875 33.796875 48.1875 
Q 26.515625 48.1875 22.3125 43.546875 
Q 18.109375 38.921875 18.109375 30.90625 
L 18.109375 0 
L 9.078125 0 
L 9.078125 54.6875 
L 18.109375 54.6875 
L 18.109375 46.1875 
Q 21.34375 51.125 25.703125 53.5625 
Q 30.078125 56 35.796875 56 
Q 45.21875 56 50.046875 50.171875 
Q 54.890625 44.34375 54.890625 33.015625 
z
" id="DejaVuSans-110"/>
      </defs>
      <use transform="translate(0 0.015625)" xlink:href="#DejaVuSans-Oblique-100"/>
      <use transform="translate(63.476562 0.015625)" xlink:href="#DejaVuSans-32"/>
      <use transform="translate(95.263672 0.015625)" xlink:href="#DejaVuSans-40"/>
      <use transform="translate(134.277344 0.015625)" xlink:href="#DejaVuSans-112"/>
      <use transform="translate(197.753906 0.015625)" xlink:href="#DejaVuSans-111"/>
      <use transform="translate(258.935547 0.015625)" xlink:href="#DejaVuSans-115"/>
      <use transform="translate(311.035156 0.015625)" xlink:href="#DejaVuSans-105"/>
      <use transform="translate(338.818359 0.015625)" xlink:href="#DejaVuSans-116"/>
      <use transform="translate(378.027344 0.015625)" xlink:href="#DejaVuSans-105"/>
      <use transform="translate(405.810547 0.015625)" xlink:href="#DejaVuSans-111"/>
      <use transform="translate(466.992188 0.015625)" xlink:href="#DejaVuSans-110"/>
      <use transform="translate(530.371094 0.015625)" xlink:href="#DejaVuSans-41"/>
     </g>
    </g>
   </g>
   <g id="line2d_11">
    <path clip-path="url(#p41ec80e72a)" d="M 55.092813 165.936559 
L 59.759813 166.232826 
L 64.426813 190.681846 
L 69.093813 180.767885 
L 73.760813 175.012892 
L 78.427813 193.847885 
L 83.094813 193.571172 
L 87.761813 191.471793 
L 92.428813 198.374699 
L 97.095813 215.475563 
L 101.762812 219.317644 
L 106.429812 212.385007 
L 111.096812 211.340721 
L 115.763813 208.884229 
L 120.430813 193.832849 
L 125.097813 181.628669 
L 129.764813 195.002988 
L 134.431813 200.63404 
L 139.098813 226.091864 
L 143.765813 214.942396 
L 148.432813 203.202284 
L 153.099813 199.625182 
L 157.766813 176.55787 
L 162.433813 173.968296 
L 167.100813 178.422823 
L 171.767813 175.136037 
L 176.434813 165.947894 
L 181.101812 178.352037 
L 185.768812 167.578334 
L 190.435813 166.580551 
L 195.102812 172.436836 
L 199.769813 192.414859 
L 204.436813 194.801254 
L 209.103813 195.67398 
L 213.770813 194.134924 
L 218.437813 185.998751 
L 223.104813 177.670007 
L 227.771813 153.663075 
L 232.438813 160.484408 
L 237.105813 164.062934 
L 241.772812 168.25828 
L 246.439813 165.758172 
L 251.106813 145.472621 
L 255.773812 122.327191 
L 260.440812 121.405541 
L 265.107813 115.876329 
L 269.774813 102.450444 
L 274.441812 105.599807 
L 279.108812 112.954659 
L 283.775813 113.183811 
L 288.442813 105.092996 
L 293.109812 97.865803 
L 297.776813 93.472123 
L 302.443812 66.187562 
L 307.110813 66.93233 
L 311.777812 63.751969 
L 316.444813 69.641877 
L 321.111813 45.709741 
L 325.778813 64.239428 
L 330.445812 69.138791 
L 335.112813 65.862081 
L 339.779813 75.517808 
L 344.446813 105.301964 
L 349.113812 112.568895 
L 353.780813 84.15875 
L 358.447813 79.709453 
L 363.114812 80.901317 
L 367.781813 88.67455 
L 372.448813 99.849653 
L 377.115812 103.758825 
L 381.782812 91.77856 
L 386.449813 101.651688 
L 391.116813 99.711436 
L 395.783812 100.212087 
L 400.450812 100.725905 
" style="fill:none;stroke:#1f77b4;stroke-linecap:round;stroke-width:1.5;"/>
   </g>
   <g id="line2d_12">
    <path clip-path="url(#p41ec80e72a)" d="M 55.092813 156.700281 
L 59.759813 135.435888 
L 64.426813 148.699299 
L 69.093813 144.675722 
L 73.760813 149.389663 
L 78.427813 155.22483 
L 83.094813 161.674984 
L 87.761813 170.825589 
L 92.428813 173.089918 
L 97.095813 172.980146 
L 101.762812 181.495052 
L 106.429812 186.730661 
L 111.096812 191.323923 
L 115.763813 186.854051 
L 120.430813 198.063834 
L 125.097813 194.404697 
L 129.764813 199.33766 
L 134.431813 200.872001 
L 139.098813 205.764457 
L 143.765813 197.470094 
L 148.432813 202.286498 
L 153.099813 197.579715 
L 157.766813 184.911657 
L 162.433813 165.574493 
L 167.100813 173.383163 
L 171.767813 154.314725 
L 176.434813 149.578712 
L 181.101812 149.078298 
L 185.768812 151.402169 
L 190.435813 144.736038 
L 195.102812 142.017545 
L 199.769813 146.5278 
L 204.436813 146.801185 
L 209.103813 149.78624 
L 213.770813 157.650366 
L 218.437813 154.598886 
L 223.104813 156.33706 
L 227.771813 158.213305 
L 232.438813 161.230612 
L 237.105813 159.41597 
L 241.772812 150.379298 
L 246.439813 147.707018 
L 251.106813 157.170505 
L 255.773812 162.464628 
L 260.440812 154.662387 
L 265.107813 154.215886 
L 269.774813 158.304802 
L 274.441812 164.47451 
L 279.108812 181.51655 
L 283.775813 175.539147 
L 288.442813 165.014924 
L 293.109812 165.32499 
L 297.776813 162.235436 
L 302.443812 172.983908 
L 307.110813 176.908954 
L 311.777812 184.195076 
L 316.444813 172.408984 
L 321.111813 187.674925 
L 325.778813 174.72206 
L 330.445812 175.041168 
L 335.112813 166.180816 
L 339.779813 166.423093 
L 344.446813 153.267418 
L 349.113812 160.413789 
L 353.780813 136.560285 
L 358.447813 134.153175 
L 363.114812 126.595696 
L 367.781813 138.271942 
L 372.448813 137.504896 
L 377.115812 133.005165 
L 381.782812 134.194111 
L 386.449813 139.679957 
L 391.116813 132.649358 
L 395.783812 133.122751 
L 400.450812 137.679986 
" style="fill:none;stroke:#ff7f0e;stroke-linecap:round;stroke-width:1.5;"/>
   </g>
   <g id="line2d_13">
    <path clip-path="url(#p41ec80e72a)" d="M 55.092813 158.678521 
L 59.759813 126.418358 
L 64.426813 132.064331 
L 69.093813 132.268677 
L 73.760813 132.206169 
L 78.427813 133.615662 
L 83.094813 138.223722 
L 87.761813 132.716589 
L 92.428813 134.641402 
L 97.095813 154.633222 
L 101.762812 142.727249 
L 106.429812 144.193886 
L 111.096812 113.574809 
L 115.763813 94.065495 
L 120.430813 105.792295 
L 125.097813 114.034056 
L 129.764813 105.170683 
L 134.431813 97.290844 
L 139.098813 67.571213 
L 143.765813 64.588123 
L 148.432813 74.399491 
L 153.099813 70.895299 
L 157.766813 71.340227 
L 162.433813 77.785047 
L 167.100813 77.688423 
L 171.767813 89.835148 
L 176.434813 91.275828 
L 181.101812 85.33001 
L 185.768812 86.515489 
L 190.435813 76.512592 
L 195.102812 78.90085 
L 199.769813 76.415651 
L 204.436813 86.632508 
L 209.103813 74.159295 
L 213.770813 64.87849 
L 218.437813 65.089891 
L 223.104813 83.689871 
L 227.771813 81.094993 
L 232.438813 75.11121 
L 237.105813 94.016185 
L 241.772812 82.115319 
L 246.439813 72.493404 
L 251.106813 68.215896 
L 255.773812 78.129195 
L 260.440812 88.01674 
L 265.107813 80.869733 
L 269.774813 62.527136 
L 274.441812 67.348963 
L 279.108812 70.588306 
L 283.775813 77.713982 
L 288.442813 75.694478 
L 293.109812 75.028743 
L 297.776813 64.78876 
L 302.443812 50.328169 
L 307.110813 44.819136 
L 311.777812 52.916428 
L 316.444813 61.438879 
L 321.111813 61.371228 
L 325.778813 58.005961 
L 330.445812 69.039461 
L 335.112813 55.492601 
L 339.779813 53.133115 
L 344.446813 53.363974 
L 349.113812 70.05371 
L 353.780813 73.325421 
L 358.447813 84.472172 
L 363.114812 68.569846 
L 367.781813 75.832272 
L 372.448813 59.91077 
L 377.115812 73.303643 
L 381.782812 79.39689 
L 386.449813 84.296281 
L 391.116813 88.647816 
L 395.783812 86.935032 
L 400.450812 78.926022 
" style="fill:none;stroke:#2ca02c;stroke-linecap:round;stroke-width:1.5;"/>
   </g>
   <g id="line2d_14">
    <path clip-path="url(#p41ec80e72a)" d="M 55.092813 147.037065 
L 59.759813 138.507413 
L 64.426813 148.038343 
L 69.093813 151.641155 
L 73.760813 163.805774 
L 78.427813 173.62543 
L 83.094813 174.543428 
L 87.761813 181.268325 
L 92.428813 168.697605 
L 97.095813 145.90147 
L 101.762812 139.861905 
L 106.429812 135.319513 
L 111.096812 129.721539 
L 115.763813 123.156907 
L 120.430813 112.739368 
L 125.097813 120.835598 
L 129.764813 118.936019 
L 134.431813 118.451969 
L 139.098813 125.508074 
L 143.765813 103.505303 
L 148.432813 98.089745 
L 153.099813 106.386341 
L 157.766813 98.173979 
L 162.433813 102.405073 
L 167.100813 100.678882 
L 171.767813 97.416219 
L 176.434813 100.749306 
L 181.101812 92.158161 
L 185.768812 76.475116 
L 190.435813 81.836357 
L 195.102812 80.370556 
L 199.769813 80.905932 
L 204.436813 73.89757 
L 209.103813 71.94677 
L 213.770813 98.896839 
L 218.437813 97.161314 
L 223.104813 95.681439 
L 227.771813 96.090006 
L 232.438813 113.428756 
L 237.105813 126.446259 
L 241.772812 115.949989 
L 246.439813 95.601168 
L 251.106813 92.379739 
L 255.773812 94.294871 
L 260.440812 94.495062 
L 265.107813 87.113155 
L 269.774813 109.484692 
L 274.441812 102.956922 
L 279.108812 100.055431 
L 283.775813 86.026002 
L 288.442813 80.646808 
L 293.109812 89.757088 
L 297.776813 87.773744 
L 302.443812 100.678748 
L 307.110813 123.209532 
L 311.777812 109.166276 
L 316.444813 102.962812 
L 321.111813 93.734364 
L 325.778813 84.64078 
L 330.445812 85.144395 
L 335.112813 90.431342 
L 339.779813 100.982567 
L 344.446813 114.95163 
L 349.113812 107.105626 
L 353.780813 103.199995 
L 358.447813 106.439148 
L 363.114812 107.528721 
L 367.781813 104.882206 
L 372.448813 90.331507 
L 377.115812 88.275221 
L 381.782812 69.890381 
L 386.449813 73.798395 
L 391.116813 89.877946 
L 395.783812 80.577363 
L 400.450812 72.344754 
" style="fill:none;stroke:#d62728;stroke-linecap:round;stroke-width:1.5;"/>
   </g>
   <g id="line2d_15">
    <path clip-path="url(#p41ec80e72a)" d="M 55.092813 161.432556 
L 59.759813 150.076137 
L 64.426813 143.933915 
L 69.093813 156.597208 
L 73.760813 171.985389 
L 78.427813 159.890136 
L 83.094813 160.229312 
L 87.761813 153.919027 
L 92.428813 154.944316 
L 97.095813 144.584648 
L 101.762812 144.172258 
L 106.429812 152.942055 
L 111.096812 163.144677 
L 115.763813 167.580538 
L 120.430813 171.414743 
L 125.097813 170.409338 
L 129.764813 159.519096 
L 134.431813 149.512782 
L 139.098813 147.671372 
L 143.765813 147.485255 
L 148.432813 137.63274 
L 153.099813 115.245056 
L 157.766813 122.588534 
L 162.433813 126.888777 
L 167.100813 142.99178 
L 171.767813 149.136981 
L 176.434813 154.344656 
L 181.101812 167.988921 
L 185.768812 163.72142 
L 190.435813 160.465499 
L 195.102812 134.312836 
L 199.769813 131.020961 
L 204.436813 133.011385 
L 209.103813 111.165263 
L 213.770813 107.687787 
L 218.437813 109.435387 
L 223.104813 104.281915 
L 227.771813 102.187707 
L 232.438813 107.758961 
L 237.105813 107.887132 
L 241.772812 105.499069 
L 246.439813 114.05236 
L 251.106813 113.060405 
L 255.773812 92.483016 
L 260.440812 101.857417 
L 265.107813 102.880998 
L 269.774813 98.278826 
L 274.441812 109.845363 
L 279.108812 109.333666 
L 283.775813 99.597427 
L 288.442813 107.904184 
L 293.109812 104.852101 
L 297.776813 107.104191 
L 302.443812 144.332935 
L 307.110813 143.453515 
L 311.777812 144.529919 
L 316.444813 152.790178 
L 321.111813 145.631879 
L 325.778813 148.197983 
L 330.445812 153.131945 
L 335.112813 155.894689 
L 339.779813 149.369697 
L 344.446813 145.933868 
L 349.113812 140.443908 
L 353.780813 138.384272 
L 358.447813 130.725866 
L 363.114812 104.581562 
L 367.781813 116.058809 
L 372.448813 115.246441 
L 377.115812 115.577123 
L 381.782812 107.992755 
L 386.449813 121.988774 
L 391.116813 138.504022 
L 395.783812 139.299696 
L 400.450812 139.728558 
" style="fill:none;stroke:#9467bd;stroke-linecap:round;stroke-width:1.5;"/>
   </g>
   <g id="patch_3">
    <path d="M 55.092813 235.1555 
L 55.092813 35.7555 
" style="fill:none;stroke:#ffffff;stroke-linecap:square;stroke-linejoin:miter;stroke-width:0.8;"/>
   </g>
   <g id="patch_4">
    <path d="M 405.117813 235.1555 
L 405.117813 35.7555 
" style="fill:none;stroke:#ffffff;stroke-linecap:square;stroke-linejoin:miter;stroke-width:0.8;"/>
   </g>
   <g id="patch_5">
    <path d="M 55.092813 235.1555 
L 405.117813 235.1555 
" style="fill:none;stroke:#ffffff;stroke-linecap:square;stroke-linejoin:miter;stroke-width:0.8;"/>
   </g>
   <g id="patch_6">
    <path d="M 55.092813 35.7555 
L 405.117813 35.7555 
" style="fill:none;stroke:#ffffff;stroke-linecap:square;stroke-linejoin:miter;stroke-width:0.8;"/>
   </g>
   <g id="text_13">
    <!-- Brownian motion process -->
    <g style="fill:#262626;" transform="translate(154.254063 16.318125)scale(0.12 -0.12)">
     <defs>
      <path d="M 19.671875 34.8125 
L 19.671875 8.109375 
L 35.5 8.109375 
Q 43.453125 8.109375 47.28125 11.40625 
Q 51.125 14.703125 51.125 21.484375 
Q 51.125 28.328125 47.28125 31.5625 
Q 43.453125 34.8125 35.5 34.8125 
z
M 19.671875 64.796875 
L 19.671875 42.828125 
L 34.28125 42.828125 
Q 41.5 42.828125 45.03125 45.53125 
Q 48.578125 48.25 48.578125 53.8125 
Q 48.578125 59.328125 45.03125 62.0625 
Q 41.5 64.796875 34.28125 64.796875 
z
M 9.8125 72.90625 
L 35.015625 72.90625 
Q 46.296875 72.90625 52.390625 68.21875 
Q 58.5 63.53125 58.5 54.890625 
Q 58.5 48.1875 55.375 44.234375 
Q 52.25 40.28125 46.1875 39.3125 
Q 53.46875 37.75 57.5 32.78125 
Q 61.53125 27.828125 61.53125 20.40625 
Q 61.53125 10.640625 54.890625 5.3125 
Q 48.25 0 35.984375 0 
L 9.8125 0 
z
" id="DejaVuSans-66"/>
      <path d="M 41.109375 46.296875 
Q 39.59375 47.171875 37.8125 47.578125 
Q 36.03125 48 33.890625 48 
Q 26.265625 48 22.1875 43.046875 
Q 18.109375 38.09375 18.109375 28.8125 
L 18.109375 0 
L 9.078125 0 
L 9.078125 54.6875 
L 18.109375 54.6875 
L 18.109375 46.1875 
Q 20.953125 51.171875 25.484375 53.578125 
Q 30.03125 56 36.53125 56 
Q 37.453125 56 38.578125 55.875 
Q 39.703125 55.765625 41.0625 55.515625 
z
" id="DejaVuSans-114"/>
      <path d="M 4.203125 54.6875 
L 13.1875 54.6875 
L 24.421875 12.015625 
L 35.59375 54.6875 
L 46.1875 54.6875 
L 57.421875 12.015625 
L 68.609375 54.6875 
L 77.59375 54.6875 
L 63.28125 0 
L 52.6875 0 
L 40.921875 44.828125 
L 29.109375 0 
L 18.5 0 
z
" id="DejaVuSans-119"/>
      <path d="M 34.28125 27.484375 
Q 23.390625 27.484375 19.1875 25 
Q 14.984375 22.515625 14.984375 16.5 
Q 14.984375 11.71875 18.140625 8.90625 
Q 21.296875 6.109375 26.703125 6.109375 
Q 34.1875 6.109375 38.703125 11.40625 
Q 43.21875 16.703125 43.21875 25.484375 
L 43.21875 27.484375 
z
M 52.203125 31.203125 
L 52.203125 0 
L 43.21875 0 
L 43.21875 8.296875 
Q 40.140625 3.328125 35.546875 0.953125 
Q 30.953125 -1.421875 24.3125 -1.421875 
Q 15.921875 -1.421875 10.953125 3.296875 
Q 6 8.015625 6 15.921875 
Q 6 25.140625 12.171875 29.828125 
Q 18.359375 34.515625 30.609375 34.515625 
L 43.21875 34.515625 
L 43.21875 35.40625 
Q 43.21875 41.609375 39.140625 45 
Q 35.0625 48.390625 27.6875 48.390625 
Q 23 48.390625 18.546875 47.265625 
Q 14.109375 46.140625 10.015625 43.890625 
L 10.015625 52.203125 
Q 14.9375 54.109375 19.578125 55.046875 
Q 24.21875 56 28.609375 56 
Q 40.484375 56 46.34375 49.84375 
Q 52.203125 43.703125 52.203125 31.203125 
z
" id="DejaVuSans-97"/>
      <path d="M 48.78125 52.59375 
L 48.78125 44.1875 
Q 44.96875 46.296875 41.140625 47.34375 
Q 37.3125 48.390625 33.40625 48.390625 
Q 24.65625 48.390625 19.8125 42.84375 
Q 14.984375 37.3125 14.984375 27.296875 
Q 14.984375 17.28125 19.8125 11.734375 
Q 24.65625 6.203125 33.40625 6.203125 
Q 37.3125 6.203125 41.140625 7.25 
Q 44.96875 8.296875 48.78125 10.40625 
L 48.78125 2.09375 
Q 45.015625 0.34375 40.984375 -0.53125 
Q 36.96875 -1.421875 32.421875 -1.421875 
Q 20.0625 -1.421875 12.78125 6.34375 
Q 5.515625 14.109375 5.515625 27.296875 
Q 5.515625 40.671875 12.859375 48.328125 
Q 20.21875 56 33.015625 56 
Q 37.15625 56 41.109375 55.140625 
Q 45.0625 54.296875 48.78125 52.59375 
z
" id="DejaVuSans-99"/>
     </defs>
     <use xlink:href="#DejaVuSans-66"/>
     <use x="68.603516" xlink:href="#DejaVuSans-114"/>
     <use x="107.466797" xlink:href="#DejaVuSans-111"/>
     <use x="168.648438" xlink:href="#DejaVuSans-119"/>
     <use x="250.435547" xlink:href="#DejaVuSans-110"/>
     <use x="313.814453" xlink:href="#DejaVuSans-105"/>
     <use x="341.597656" xlink:href="#DejaVuSans-97"/>
     <use x="402.876953" xlink:href="#DejaVuSans-110"/>
     <use x="466.255859" xlink:href="#DejaVuSans-32"/>
     <use x="498.042969" xlink:href="#DejaVuSans-109"/>
     <use x="595.455078" xlink:href="#DejaVuSans-111"/>
     <use x="656.636719" xlink:href="#DejaVuSans-116"/>
     <use x="695.845703" xlink:href="#DejaVuSans-105"/>
     <use x="723.628906" xlink:href="#DejaVuSans-111"/>
     <use x="784.810547" xlink:href="#DejaVuSans-110"/>
     <use x="848.189453" xlink:href="#DejaVuSans-32"/>
     <use x="879.976562" xlink:href="#DejaVuSans-112"/>
     <use x="943.453125" xlink:href="#DejaVuSans-114"/>
     <use x="982.316406" xlink:href="#DejaVuSans-111"/>
     <use x="1043.498047" xlink:href="#DejaVuSans-99"/>
     <use x="1098.478516" xlink:href="#DejaVuSans-101"/>
     <use x="1160.001953" xlink:href="#DejaVuSans-115"/>
     <use x="1212.101562" xlink:href="#DejaVuSans-115"/>
    </g>
    <!--  Position over time for 5 independent realizations -->
    <g style="fill:#262626;" transform="translate(81.98875 29.7555)scale(0.12 -0.12)">
     <defs>
      <path d="M 19.671875 64.796875 
L 19.671875 37.40625 
L 32.078125 37.40625 
Q 38.96875 37.40625 42.71875 40.96875 
Q 46.484375 44.53125 46.484375 51.125 
Q 46.484375 57.671875 42.71875 61.234375 
Q 38.96875 64.796875 32.078125 64.796875 
z
M 9.8125 72.90625 
L 32.078125 72.90625 
Q 44.34375 72.90625 50.609375 67.359375 
Q 56.890625 61.8125 56.890625 51.125 
Q 56.890625 40.328125 50.609375 34.8125 
Q 44.34375 29.296875 32.078125 29.296875 
L 19.671875 29.296875 
L 19.671875 0 
L 9.8125 0 
z
" id="DejaVuSans-80"/>
      <path d="M 2.984375 54.6875 
L 12.5 54.6875 
L 29.59375 8.796875 
L 46.6875 54.6875 
L 56.203125 54.6875 
L 35.6875 0 
L 23.484375 0 
z
" id="DejaVuSans-118"/>
      <path d="M 37.109375 75.984375 
L 37.109375 68.5 
L 28.515625 68.5 
Q 23.6875 68.5 21.796875 66.546875 
Q 19.921875 64.59375 19.921875 59.515625 
L 19.921875 54.6875 
L 34.71875 54.6875 
L 34.71875 47.703125 
L 19.921875 47.703125 
L 19.921875 0 
L 10.890625 0 
L 10.890625 47.703125 
L 2.296875 47.703125 
L 2.296875 54.6875 
L 10.890625 54.6875 
L 10.890625 58.5 
Q 10.890625 67.625 15.140625 71.796875 
Q 19.390625 75.984375 28.609375 75.984375 
z
" id="DejaVuSans-102"/>
      <path d="M 45.40625 46.390625 
L 45.40625 75.984375 
L 54.390625 75.984375 
L 54.390625 0 
L 45.40625 0 
L 45.40625 8.203125 
Q 42.578125 3.328125 38.25 0.953125 
Q 33.9375 -1.421875 27.875 -1.421875 
Q 17.96875 -1.421875 11.734375 6.484375 
Q 5.515625 14.40625 5.515625 27.296875 
Q 5.515625 40.1875 11.734375 48.09375 
Q 17.96875 56 27.875 56 
Q 33.9375 56 38.25 53.625 
Q 42.578125 51.265625 45.40625 46.390625 
z
M 14.796875 27.296875 
Q 14.796875 17.390625 18.875 11.75 
Q 22.953125 6.109375 30.078125 6.109375 
Q 37.203125 6.109375 41.296875 11.75 
Q 45.40625 17.390625 45.40625 27.296875 
Q 45.40625 37.203125 41.296875 42.84375 
Q 37.203125 48.484375 30.078125 48.484375 
Q 22.953125 48.484375 18.875 42.84375 
Q 14.796875 37.203125 14.796875 27.296875 
z
" id="DejaVuSans-100"/>
      <path d="M 9.421875 75.984375 
L 18.40625 75.984375 
L 18.40625 0 
L 9.421875 0 
z
" id="DejaVuSans-108"/>
      <path d="M 5.515625 54.6875 
L 48.1875 54.6875 
L 48.1875 46.484375 
L 14.40625 7.171875 
L 48.1875 7.171875 
L 48.1875 0 
L 4.296875 0 
L 4.296875 8.203125 
L 38.09375 47.515625 
L 5.515625 47.515625 
z
" id="DejaVuSans-122"/>
     </defs>
     <use xlink:href="#DejaVuSans-32"/>
     <use x="31.787109" xlink:href="#DejaVuSans-80"/>
     <use x="88.464844" xlink:href="#DejaVuSans-111"/>
     <use x="149.646484" xlink:href="#DejaVuSans-115"/>
     <use x="201.746094" xlink:href="#DejaVuSans-105"/>
     <use x="229.529297" xlink:href="#DejaVuSans-116"/>
     <use x="268.738281" xlink:href="#DejaVuSans-105"/>
     <use x="296.521484" xlink:href="#DejaVuSans-111"/>
     <use x="357.703125" xlink:href="#DejaVuSans-110"/>
     <use x="421.082031" xlink:href="#DejaVuSans-32"/>
     <use x="452.869141" xlink:href="#DejaVuSans-111"/>
     <use x="514.050781" xlink:href="#DejaVuSans-118"/>
     <use x="573.230469" xlink:href="#DejaVuSans-101"/>
     <use x="634.753906" xlink:href="#DejaVuSans-114"/>
     <use x="675.867188" xlink:href="#DejaVuSans-32"/>
     <use x="707.654297" xlink:href="#DejaVuSans-116"/>
     <use x="746.863281" xlink:href="#DejaVuSans-105"/>
     <use x="774.646484" xlink:href="#DejaVuSans-109"/>
     <use x="872.058594" xlink:href="#DejaVuSans-101"/>
     <use x="933.582031" xlink:href="#DejaVuSans-32"/>
     <use x="965.369141" xlink:href="#DejaVuSans-102"/>
     <use x="1000.574219" xlink:href="#DejaVuSans-111"/>
     <use x="1061.755859" xlink:href="#DejaVuSans-114"/>
     <use x="1102.869141" xlink:href="#DejaVuSans-32"/>
     <use x="1134.65625" xlink:href="#DejaVuSans-53"/>
     <use x="1198.279297" xlink:href="#DejaVuSans-32"/>
     <use x="1230.066406" xlink:href="#DejaVuSans-105"/>
     <use x="1257.849609" xlink:href="#DejaVuSans-110"/>
     <use x="1321.228516" xlink:href="#DejaVuSans-100"/>
     <use x="1384.705078" xlink:href="#DejaVuSans-101"/>
     <use x="1446.228516" xlink:href="#DejaVuSans-112"/>
     <use x="1509.705078" xlink:href="#DejaVuSans-101"/>
     <use x="1571.228516" xlink:href="#DejaVuSans-110"/>
     <use x="1634.607422" xlink:href="#DejaVuSans-100"/>
     <use x="1698.083984" xlink:href="#DejaVuSans-101"/>
     <use x="1759.607422" xlink:href="#DejaVuSans-110"/>
     <use x="1822.986328" xlink:href="#DejaVuSans-116"/>
     <use x="1862.195312" xlink:href="#DejaVuSans-32"/>
     <use x="1893.982422" xlink:href="#DejaVuSans-114"/>
     <use x="1932.845703" xlink:href="#DejaVuSans-101"/>
     <use x="1994.369141" xlink:href="#DejaVuSans-97"/>
     <use x="2055.648438" xlink:href="#DejaVuSans-108"/>
     <use x="2083.431641" xlink:href="#DejaVuSans-105"/>
     <use x="2111.214844" xlink:href="#DejaVuSans-122"/>
     <use x="2163.705078" xlink:href="#DejaVuSans-97"/>
     <use x="2224.984375" xlink:href="#DejaVuSans-116"/>
     <use x="2264.193359" xlink:href="#DejaVuSans-105"/>
     <use x="2291.976562" xlink:href="#DejaVuSans-111"/>
     <use x="2353.158203" xlink:href="#DejaVuSans-110"/>
     <use x="2416.537109" xlink:href="#DejaVuSans-115"/>
    </g>
   </g>
  </g>
 </g>
 <defs>
  <clipPath id="p41ec80e72a">
   <rect height="199.4" width="350.025" x="55.092813" y="35.7555"/>
  </clipPath>
 </defs>
</svg>
