<?xml version="1.0" encoding="utf-8" standalone="no"?>
<!DOCTYPE svg PUBLIC "-//W3C//DTD SVG 1.1//EN"
  "http://www.w3.org/Graphics/SVG/1.1/DTD/svg11.dtd">
<!-- Created with matplotlib (https://matplotlib.org/) -->
<svg height="293.655187pt" version="1.1" viewBox="0 0 439.036875 293.655187" width="439.036875pt" xmlns="http://www.w3.org/2000/svg" xmlns:xlink="http://www.w3.org/1999/xlink">
 <metadata>
  <rdf:RDF xmlns:cc="http://creativecommons.org/ns#" xmlns:dc="http://purl.org/dc/elements/1.1/" xmlns:rdf="http://www.w3.org/1999/02/22-rdf-syntax-ns#">
   <cc:Work>
    <dc:type rdf:resource="http://purl.org/dc/dcmitype/StillImage"/>
    <dc:date>2021-08-20T15:14:45.726750</dc:date>
    <dc:format>image/svg+xml</dc:format>
    <dc:creator>
     <cc:Agent>
      <dc:title>Matplotlib v3.3.4, https://matplotlib.org/</dc:title>
     </cc:Agent>
    </dc:creator>
   </cc:Work>
  </rdf:RDF>
 </metadata>
 <defs>
  <style type="text/css">*{stroke-linecap:butt;stroke-linejoin:round;}</style>
 </defs>
 <g id="figure_1">
  <g id="patch_1">
   <path d="M -0 293.655187 
L 439.036875 293.655187 
L 439.036875 0 
L -0 0 
z
" style="fill:#ffffff;"/>
  </g>
  <g id="axes_1">
   <g id="patch_2">
    <path d="M 52.118437 253.1955 
L 386.918437 253.1955 
L 386.918437 35.7555 
L 52.118437 35.7555 
z
" style="fill:#eaeaf2;"/>
   </g>
   <g id="matplotlib.axis_1">
    <g id="xtick_1">
     <g id="line2d_1">
      <path clip-path="url(#pdae0f057f5)" d="M 52.118437 253.1955 
L 52.118437 35.7555 
" style="fill:none;stroke:#ffffff;stroke-linecap:round;stroke-width:0.8;"/>
     </g>
     <g id="text_1">
      <!-- −4 -->
      <g style="fill:#262626;" transform="translate(44.747344 267.793937)scale(0.1 -0.1)">
       <defs>
        <path d="M 10.59375 35.5 
L 73.1875 35.5 
L 73.1875 27.203125 
L 10.59375 27.203125 
z
" id="DejaVuSans-8722"/>
        <path d="M 37.796875 64.3125 
L 12.890625 25.390625 
L 37.796875 25.390625 
z
M 35.203125 72.90625 
L 47.609375 72.90625 
L 47.609375 25.390625 
L 58.015625 25.390625 
L 58.015625 17.1875 
L 47.609375 17.1875 
L 47.609375 0 
L 37.796875 0 
L 37.796875 17.1875 
L 4.890625 17.1875 
L 4.890625 26.703125 
z
" id="DejaVuSans-52"/>
       </defs>
       <use xlink:href="#DejaVuSans-8722"/>
       <use x="83.789062" xlink:href="#DejaVuSans-52"/>
      </g>
     </g>
    </g>
    <g id="xtick_2">
     <g id="line2d_2">
      <path clip-path="url(#pdae0f057f5)" d="M 93.968437 253.1955 
L 93.968437 35.7555 
" style="fill:none;stroke:#ffffff;stroke-linecap:round;stroke-width:0.8;"/>
     </g>
     <g id="text_2">
      <!-- −3 -->
      <g style="fill:#262626;" transform="translate(86.597344 267.793937)scale(0.1 -0.1)">
       <defs>
        <path d="M 40.578125 39.3125 
Q 47.65625 37.796875 51.625 33 
Q 55.609375 28.21875 55.609375 21.1875 
Q 55.609375 10.40625 48.1875 4.484375 
Q 40.765625 -1.421875 27.09375 -1.421875 
Q 22.515625 -1.421875 17.65625 -0.515625 
Q 12.796875 0.390625 7.625 2.203125 
L 7.625 11.71875 
Q 11.71875 9.328125 16.59375 8.109375 
Q 21.484375 6.890625 26.8125 6.890625 
Q 36.078125 6.890625 40.9375 10.546875 
Q 45.796875 14.203125 45.796875 21.1875 
Q 45.796875 27.640625 41.28125 31.265625 
Q 36.765625 34.90625 28.71875 34.90625 
L 20.21875 34.90625 
L 20.21875 43.015625 
L 29.109375 43.015625 
Q 36.375 43.015625 40.234375 45.921875 
Q 44.09375 48.828125 44.09375 54.296875 
Q 44.09375 59.90625 40.109375 62.90625 
Q 36.140625 65.921875 28.71875 65.921875 
Q 24.65625 65.921875 20.015625 65.03125 
Q 15.375 64.15625 9.8125 62.3125 
L 9.8125 71.09375 
Q 15.4375 72.65625 20.34375 73.4375 
Q 25.25 74.21875 29.59375 74.21875 
Q 40.828125 74.21875 47.359375 69.109375 
Q 53.90625 64.015625 53.90625 55.328125 
Q 53.90625 49.265625 50.4375 45.09375 
Q 46.96875 40.921875 40.578125 39.3125 
z
" id="DejaVuSans-51"/>
       </defs>
       <use xlink:href="#DejaVuSans-8722"/>
       <use x="83.789062" xlink:href="#DejaVuSans-51"/>
      </g>
     </g>
    </g>
    <g id="xtick_3">
     <g id="line2d_3">
      <path clip-path="url(#pdae0f057f5)" d="M 135.818438 253.1955 
L 135.818438 35.7555 
" style="fill:none;stroke:#ffffff;stroke-linecap:round;stroke-width:0.8;"/>
     </g>
     <g id="text_3">
      <!-- −2 -->
      <g style="fill:#262626;" transform="translate(128.447344 267.793937)scale(0.1 -0.1)">
       <defs>
        <path d="M 19.1875 8.296875 
L 53.609375 8.296875 
L 53.609375 0 
L 7.328125 0 
L 7.328125 8.296875 
Q 12.9375 14.109375 22.625 23.890625 
Q 32.328125 33.6875 34.8125 36.53125 
Q 39.546875 41.84375 41.421875 45.53125 
Q 43.3125 49.21875 43.3125 52.78125 
Q 43.3125 58.59375 39.234375 62.25 
Q 35.15625 65.921875 28.609375 65.921875 
Q 23.96875 65.921875 18.8125 64.3125 
Q 13.671875 62.703125 7.8125 59.421875 
L 7.8125 69.390625 
Q 13.765625 71.78125 18.9375 73 
Q 24.125 74.21875 28.421875 74.21875 
Q 39.75 74.21875 46.484375 68.546875 
Q 53.21875 62.890625 53.21875 53.421875 
Q 53.21875 48.921875 51.53125 44.890625 
Q 49.859375 40.875 45.40625 35.40625 
Q 44.1875 33.984375 37.640625 27.21875 
Q 31.109375 20.453125 19.1875 8.296875 
z
" id="DejaVuSans-50"/>
       </defs>
       <use xlink:href="#DejaVuSans-8722"/>
       <use x="83.789062" xlink:href="#DejaVuSans-50"/>
      </g>
     </g>
    </g>
    <g id="xtick_4">
     <g id="line2d_4">
      <path clip-path="url(#pdae0f057f5)" d="M 177.668438 253.1955 
L 177.668438 35.7555 
" style="fill:none;stroke:#ffffff;stroke-linecap:round;stroke-width:0.8;"/>
     </g>
     <g id="text_4">
      <!-- −1 -->
      <g style="fill:#262626;" transform="translate(170.297344 267.793937)scale(0.1 -0.1)">
       <defs>
        <path d="M 12.40625 8.296875 
L 28.515625 8.296875 
L 28.515625 63.921875 
L 10.984375 60.40625 
L 10.984375 69.390625 
L 28.421875 72.90625 
L 38.28125 72.90625 
L 38.28125 8.296875 
L 54.390625 8.296875 
L 54.390625 0 
L 12.40625 0 
z
" id="DejaVuSans-49"/>
       </defs>
       <use xlink:href="#DejaVuSans-8722"/>
       <use x="83.789062" xlink:href="#DejaVuSans-49"/>
      </g>
     </g>
    </g>
    <g id="xtick_5">
     <g id="line2d_5">
      <path clip-path="url(#pdae0f057f5)" d="M 219.518438 253.1955 
L 219.518438 35.7555 
" style="fill:none;stroke:#ffffff;stroke-linecap:round;stroke-width:0.8;"/>
     </g>
     <g id="text_5">
      <!-- 0 -->
      <g style="fill:#262626;" transform="translate(216.337187 267.793937)scale(0.1 -0.1)">
       <defs>
        <path d="M 31.78125 66.40625 
Q 24.171875 66.40625 20.328125 58.90625 
Q 16.5 51.421875 16.5 36.375 
Q 16.5 21.390625 20.328125 13.890625 
Q 24.171875 6.390625 31.78125 6.390625 
Q 39.453125 6.390625 43.28125 13.890625 
Q 47.125 21.390625 47.125 36.375 
Q 47.125 51.421875 43.28125 58.90625 
Q 39.453125 66.40625 31.78125 66.40625 
z
M 31.78125 74.21875 
Q 44.046875 74.21875 50.515625 64.515625 
Q 56.984375 54.828125 56.984375 36.375 
Q 56.984375 17.96875 50.515625 8.265625 
Q 44.046875 -1.421875 31.78125 -1.421875 
Q 19.53125 -1.421875 13.0625 8.265625 
Q 6.59375 17.96875 6.59375 36.375 
Q 6.59375 54.828125 13.0625 64.515625 
Q 19.53125 74.21875 31.78125 74.21875 
z
" id="DejaVuSans-48"/>
       </defs>
       <use xlink:href="#DejaVuSans-48"/>
      </g>
     </g>
    </g>
    <g id="xtick_6">
     <g id="line2d_6">
      <path clip-path="url(#pdae0f057f5)" d="M 261.368438 253.1955 
L 261.368438 35.7555 
" style="fill:none;stroke:#ffffff;stroke-linecap:round;stroke-width:0.8;"/>
     </g>
     <g id="text_6">
      <!-- 1 -->
      <g style="fill:#262626;" transform="translate(258.187188 267.793937)scale(0.1 -0.1)">
       <use xlink:href="#DejaVuSans-49"/>
      </g>
     </g>
    </g>
    <g id="xtick_7">
     <g id="line2d_7">
      <path clip-path="url(#pdae0f057f5)" d="M 303.218437 253.1955 
L 303.218437 35.7555 
" style="fill:none;stroke:#ffffff;stroke-linecap:round;stroke-width:0.8;"/>
     </g>
     <g id="text_7">
      <!-- 2 -->
      <g style="fill:#262626;" transform="translate(300.037188 267.793937)scale(0.1 -0.1)">
       <use xlink:href="#DejaVuSans-50"/>
      </g>
     </g>
    </g>
    <g id="xtick_8">
     <g id="line2d_8">
      <path clip-path="url(#pdae0f057f5)" d="M 345.068438 253.1955 
L 345.068438 35.7555 
" style="fill:none;stroke:#ffffff;stroke-linecap:round;stroke-width:0.8;"/>
     </g>
     <g id="text_8">
      <!-- 3 -->
      <g style="fill:#262626;" transform="translate(341.887188 267.793937)scale(0.1 -0.1)">
       <use xlink:href="#DejaVuSans-51"/>
      </g>
     </g>
    </g>
    <g id="xtick_9">
     <g id="line2d_9">
      <path clip-path="url(#pdae0f057f5)" d="M 386.918437 253.1955 
L 386.918437 35.7555 
" style="fill:none;stroke:#ffffff;stroke-linecap:round;stroke-width:0.8;"/>
     </g>
     <g id="text_9">
      <!-- 4 -->
      <g style="fill:#262626;" transform="translate(383.737188 267.793937)scale(0.1 -0.1)">
       <use xlink:href="#DejaVuSans-52"/>
      </g>
     </g>
    </g>
    <g id="text_10">
     <!-- $x$ -->
     <g style="fill:#262626;" transform="translate(215.618437 283.751594)scale(0.13 -0.13)">
      <defs>
       <path d="M 60.015625 54.6875 
L 34.90625 27.875 
L 50.296875 0 
L 39.984375 0 
L 28.421875 21.6875 
L 8.296875 0 
L -2.59375 0 
L 24.3125 28.8125 
L 10.015625 54.6875 
L 20.3125 54.6875 
L 30.8125 34.90625 
L 49.125 54.6875 
z
" id="DejaVuSans-Oblique-120"/>
      </defs>
      <use transform="translate(0 0.3125)" xlink:href="#DejaVuSans-Oblique-120"/>
     </g>
    </g>
   </g>
   <g id="matplotlib.axis_2">
    <g id="ytick_1">
     <g id="line2d_10">
      <path clip-path="url(#pdae0f057f5)" d="M 52.118437 211.277229 
L 386.918437 211.277229 
" style="fill:none;stroke:#ffffff;stroke-linecap:round;stroke-width:0.8;"/>
     </g>
     <g id="text_11">
      <!-- −1 -->
      <g style="fill:#262626;" transform="translate(30.37625 215.076447)scale(0.1 -0.1)">
       <use xlink:href="#DejaVuSans-8722"/>
       <use x="83.789062" xlink:href="#DejaVuSans-49"/>
      </g>
     </g>
    </g>
    <g id="ytick_2">
     <g id="line2d_11">
      <path clip-path="url(#pdae0f057f5)" d="M 52.118437 164.622498 
L 386.918437 164.622498 
" style="fill:none;stroke:#ffffff;stroke-linecap:round;stroke-width:0.8;"/>
     </g>
     <g id="text_12">
      <!-- 0 -->
      <g style="fill:#262626;" transform="translate(38.755937 168.421717)scale(0.1 -0.1)">
       <use xlink:href="#DejaVuSans-48"/>
      </g>
     </g>
    </g>
    <g id="ytick_3">
     <g id="line2d_12">
      <path clip-path="url(#pdae0f057f5)" d="M 52.118437 117.967767 
L 386.918437 117.967767 
" style="fill:none;stroke:#ffffff;stroke-linecap:round;stroke-width:0.8;"/>
     </g>
     <g id="text_13">
      <!-- 1 -->
      <g style="fill:#262626;" transform="translate(38.755937 121.766986)scale(0.1 -0.1)">
       <use xlink:href="#DejaVuSans-49"/>
      </g>
     </g>
    </g>
    <g id="ytick_4">
     <g id="line2d_13">
      <path clip-path="url(#pdae0f057f5)" d="M 52.118437 71.313036 
L 386.918437 71.313036 
" style="fill:none;stroke:#ffffff;stroke-linecap:round;stroke-width:0.8;"/>
     </g>
     <g id="text_14">
      <!-- 2 -->
      <g style="fill:#262626;" transform="translate(38.755937 75.112255)scale(0.1 -0.1)">
       <use xlink:href="#DejaVuSans-50"/>
      </g>
     </g>
    </g>
    <g id="text_15">
     <!-- $y = f(x)$ -->
     <g style="fill:#262626;" transform="translate(23.64625 167.5505)rotate(-90)scale(0.13 -0.13)">
      <defs>
       <path d="M 24.8125 -5.078125 
Q 18.5625 -15.578125 14.625 -18.1875 
Q 10.6875 -20.796875 4.59375 -20.796875 
L -2.484375 -20.796875 
L -0.984375 -13.28125 
L 4.203125 -13.28125 
Q 7.953125 -13.28125 10.59375 -11.234375 
Q 13.234375 -9.1875 16.5 -3.21875 
L 19.28125 2 
L 7.171875 54.6875 
L 16.703125 54.6875 
L 25.78125 12.796875 
L 50.875 54.6875 
L 60.296875 54.6875 
z
" id="DejaVuSans-Oblique-121"/>
       <path d="M 10.59375 45.40625 
L 73.1875 45.40625 
L 73.1875 37.203125 
L 10.59375 37.203125 
z
M 10.59375 25.484375 
L 73.1875 25.484375 
L 73.1875 17.1875 
L 10.59375 17.1875 
z
" id="DejaVuSans-61"/>
       <path d="M 47.796875 75.984375 
L 46.390625 68.5 
L 37.796875 68.5 
Q 32.90625 68.5 30.6875 66.578125 
Q 28.46875 64.65625 27.390625 59.515625 
L 26.421875 54.6875 
L 41.21875 54.6875 
L 39.890625 47.703125 
L 25.09375 47.703125 
L 15.828125 0 
L 6.78125 0 
L 16.109375 47.703125 
L 7.515625 47.703125 
L 8.796875 54.6875 
L 17.390625 54.6875 
L 18.109375 58.5 
Q 19.96875 68.171875 24.625 72.078125 
Q 29.296875 75.984375 39.3125 75.984375 
z
" id="DejaVuSans-Oblique-102"/>
       <path d="M 31 75.875 
Q 24.46875 64.65625 21.28125 53.65625 
Q 18.109375 42.671875 18.109375 31.390625 
Q 18.109375 20.125 21.3125 9.0625 
Q 24.515625 -2 31 -13.1875 
L 23.1875 -13.1875 
Q 15.875 -1.703125 12.234375 9.375 
Q 8.59375 20.453125 8.59375 31.390625 
Q 8.59375 42.28125 12.203125 53.3125 
Q 15.828125 64.359375 23.1875 75.875 
z
" id="DejaVuSans-40"/>
       <path d="M 8.015625 75.875 
L 15.828125 75.875 
Q 23.140625 64.359375 26.78125 53.3125 
Q 30.421875 42.28125 30.421875 31.390625 
Q 30.421875 20.453125 26.78125 9.375 
Q 23.140625 -1.703125 15.828125 -13.1875 
L 8.015625 -13.1875 
Q 14.5 -2 17.703125 9.0625 
Q 20.90625 20.125 20.90625 31.390625 
Q 20.90625 42.671875 17.703125 53.65625 
Q 14.5 64.65625 8.015625 75.875 
z
" id="DejaVuSans-41"/>
      </defs>
      <use transform="translate(0 0.015625)" xlink:href="#DejaVuSans-Oblique-121"/>
      <use transform="translate(78.662109 0.015625)" xlink:href="#DejaVuSans-61"/>
      <use transform="translate(181.933594 0.015625)" xlink:href="#DejaVuSans-Oblique-102"/>
      <use transform="translate(217.138672 0.015625)" xlink:href="#DejaVuSans-40"/>
      <use transform="translate(256.152344 0.015625)" xlink:href="#DejaVuSans-Oblique-120"/>
      <use transform="translate(315.332031 0.015625)" xlink:href="#DejaVuSans-41"/>
     </g>
    </g>
   </g>
   <g id="line2d_14">
    <path clip-path="url(#pdae0f057f5)" d="M 52.118437 163.995804 
L 60.488438 160.789059 
L 68.858438 158.159591 
L 77.228438 156.730267 
L 85.598437 156.23853 
L 93.968437 155.587658 
L 102.338438 153.273897 
L 110.708438 147.982949 
L 119.078438 139.114843 
L 127.448437 127.078836 
L 135.818438 113.317319 
L 144.188438 100.088871 
L 152.558438 90.051314 
L 160.928438 85.686279 
L 169.298438 88.650368 
L 177.668438 99.216261 
L 186.038438 116.012344 
L 194.408438 136.214701 
L 202.778437 156.192142 
L 211.148438 172.426439 
L 219.518438 182.416748 
L 227.888438 185.279405 
L 236.258438 181.861736 
L 244.628438 174.354523 
L 252.998438 165.555273 
L 261.368438 158.049541 
L 269.738438 153.597497 
L 278.108438 152.919348 
L 286.478438 155.894779 
L 294.848438 162.003678 
L 303.218437 170.733434 
L 311.588437 181.721908 
L 319.958438 194.577048 
L 328.328438 208.519692 
L 336.698438 222.118292 
L 345.068438 233.351582 
L 353.438438 240.062189 
L 361.808438 240.640531 
L 370.178438 234.623497 
L 378.548438 222.898145 
L 386.918437 207.381647 
" style="fill:none;stroke:#1f77b4;stroke-linecap:round;stroke-width:1.5;"/>
    <defs>
     <path d="M 0 1.5 
C 0.397805 1.5 0.77937 1.341951 1.06066 1.06066 
C 1.341951 0.77937 1.5 0.397805 1.5 0 
C 1.5 -0.397805 1.341951 -0.77937 1.06066 -1.06066 
C 0.77937 -1.341951 0.397805 -1.5 0 -1.5 
C -0.397805 -1.5 -0.77937 -1.341951 -1.06066 -1.06066 
C -1.341951 -0.77937 -1.5 -0.397805 -1.5 0 
C -1.5 0.397805 -1.341951 0.77937 -1.06066 1.06066 
C -0.77937 1.341951 -0.397805 1.5 0 1.5 
z
" id="m40755e6f42" style="stroke:#1f77b4;"/>
    </defs>
    <g clip-path="url(#pdae0f057f5)">
     <use style="fill:#1f77b4;stroke:#1f77b4;" x="52.118437" xlink:href="#m40755e6f42" y="163.995804"/>
     <use style="fill:#1f77b4;stroke:#1f77b4;" x="60.488438" xlink:href="#m40755e6f42" y="160.789059"/>
     <use style="fill:#1f77b4;stroke:#1f77b4;" x="68.858438" xlink:href="#m40755e6f42" y="158.159591"/>
     <use style="fill:#1f77b4;stroke:#1f77b4;" x="77.228438" xlink:href="#m40755e6f42" y="156.730267"/>
     <use style="fill:#1f77b4;stroke:#1f77b4;" x="85.598437" xlink:href="#m40755e6f42" y="156.23853"/>
     <use style="fill:#1f77b4;stroke:#1f77b4;" x="93.968437" xlink:href="#m40755e6f42" y="155.587658"/>
     <use style="fill:#1f77b4;stroke:#1f77b4;" x="102.338438" xlink:href="#m40755e6f42" y="153.273897"/>
     <use style="fill:#1f77b4;stroke:#1f77b4;" x="110.708438" xlink:href="#m40755e6f42" y="147.982949"/>
     <use style="fill:#1f77b4;stroke:#1f77b4;" x="119.078438" xlink:href="#m40755e6f42" y="139.114843"/>
     <use style="fill:#1f77b4;stroke:#1f77b4;" x="127.448437" xlink:href="#m40755e6f42" y="127.078836"/>
     <use style="fill:#1f77b4;stroke:#1f77b4;" x="135.818438" xlink:href="#m40755e6f42" y="113.317319"/>
     <use style="fill:#1f77b4;stroke:#1f77b4;" x="144.188438" xlink:href="#m40755e6f42" y="100.088871"/>
     <use style="fill:#1f77b4;stroke:#1f77b4;" x="152.558438" xlink:href="#m40755e6f42" y="90.051314"/>
     <use style="fill:#1f77b4;stroke:#1f77b4;" x="160.928438" xlink:href="#m40755e6f42" y="85.686279"/>
     <use style="fill:#1f77b4;stroke:#1f77b4;" x="169.298438" xlink:href="#m40755e6f42" y="88.650368"/>
     <use style="fill:#1f77b4;stroke:#1f77b4;" x="177.668438" xlink:href="#m40755e6f42" y="99.216261"/>
     <use style="fill:#1f77b4;stroke:#1f77b4;" x="186.038438" xlink:href="#m40755e6f42" y="116.012344"/>
     <use style="fill:#1f77b4;stroke:#1f77b4;" x="194.408438" xlink:href="#m40755e6f42" y="136.214701"/>
     <use style="fill:#1f77b4;stroke:#1f77b4;" x="202.778437" xlink:href="#m40755e6f42" y="156.192142"/>
     <use style="fill:#1f77b4;stroke:#1f77b4;" x="211.148438" xlink:href="#m40755e6f42" y="172.426439"/>
     <use style="fill:#1f77b4;stroke:#1f77b4;" x="219.518438" xlink:href="#m40755e6f42" y="182.416748"/>
     <use style="fill:#1f77b4;stroke:#1f77b4;" x="227.888438" xlink:href="#m40755e6f42" y="185.279405"/>
     <use style="fill:#1f77b4;stroke:#1f77b4;" x="236.258438" xlink:href="#m40755e6f42" y="181.861736"/>
     <use style="fill:#1f77b4;stroke:#1f77b4;" x="244.628438" xlink:href="#m40755e6f42" y="174.354523"/>
     <use style="fill:#1f77b4;stroke:#1f77b4;" x="252.998438" xlink:href="#m40755e6f42" y="165.555273"/>
     <use style="fill:#1f77b4;stroke:#1f77b4;" x="261.368438" xlink:href="#m40755e6f42" y="158.049541"/>
     <use style="fill:#1f77b4;stroke:#1f77b4;" x="269.738438" xlink:href="#m40755e6f42" y="153.597497"/>
     <use style="fill:#1f77b4;stroke:#1f77b4;" x="278.108438" xlink:href="#m40755e6f42" y="152.919348"/>
     <use style="fill:#1f77b4;stroke:#1f77b4;" x="286.478438" xlink:href="#m40755e6f42" y="155.894779"/>
     <use style="fill:#1f77b4;stroke:#1f77b4;" x="294.848438" xlink:href="#m40755e6f42" y="162.003678"/>
     <use style="fill:#1f77b4;stroke:#1f77b4;" x="303.218437" xlink:href="#m40755e6f42" y="170.733434"/>
     <use style="fill:#1f77b4;stroke:#1f77b4;" x="311.588437" xlink:href="#m40755e6f42" y="181.721908"/>
     <use style="fill:#1f77b4;stroke:#1f77b4;" x="319.958438" xlink:href="#m40755e6f42" y="194.577048"/>
     <use style="fill:#1f77b4;stroke:#1f77b4;" x="328.328438" xlink:href="#m40755e6f42" y="208.519692"/>
     <use style="fill:#1f77b4;stroke:#1f77b4;" x="336.698438" xlink:href="#m40755e6f42" y="222.118292"/>
     <use style="fill:#1f77b4;stroke:#1f77b4;" x="345.068438" xlink:href="#m40755e6f42" y="233.351582"/>
     <use style="fill:#1f77b4;stroke:#1f77b4;" x="353.438438" xlink:href="#m40755e6f42" y="240.062189"/>
     <use style="fill:#1f77b4;stroke:#1f77b4;" x="361.808438" xlink:href="#m40755e6f42" y="240.640531"/>
     <use style="fill:#1f77b4;stroke:#1f77b4;" x="370.178438" xlink:href="#m40755e6f42" y="234.623497"/>
     <use style="fill:#1f77b4;stroke:#1f77b4;" x="378.548438" xlink:href="#m40755e6f42" y="222.898145"/>
     <use style="fill:#1f77b4;stroke:#1f77b4;" x="386.918437" xlink:href="#m40755e6f42" y="207.381647"/>
    </g>
   </g>
   <g id="line2d_15">
    <path clip-path="url(#pdae0f057f5)" d="M 52.118437 142.762627 
L 60.488438 147.158822 
L 68.858438 149.690897 
L 77.228438 148.939832 
L 85.598437 143.951655 
L 93.968437 134.765467 
L 102.338438 122.683345 
L 110.708438 110.082074 
L 119.078438 99.776509 
L 127.448437 94.164634 
L 135.818438 94.496112 
L 144.188438 100.553838 
L 152.558438 110.85295 
L 160.928438 123.238478 
L 169.298438 135.610361 
L 177.668438 146.48963 
L 186.038438 155.25061 
L 194.408438 162.007573 
L 202.778437 167.276331 
L 211.148438 171.585449 
L 219.518438 175.189273 
L 227.888438 177.963263 
L 236.258438 179.474488 
L 244.628438 179.150808 
L 252.998438 176.453268 
L 261.368438 170.997784 
L 269.738438 162.643598 
L 278.108438 151.605761 
L 286.478438 138.611134 
L 294.848438 125.020735 
L 303.218437 112.768538 
L 311.588437 104.001907 
L 319.958438 100.461379 
L 328.328438 102.82076 
L 336.698438 110.294778 
L 345.068438 120.738133 
L 353.438438 131.240453 
L 361.808438 138.988511 
L 370.178438 142.049857 
L 378.548438 139.791762 
L 386.918437 132.844906 
" style="fill:none;stroke:#ff7f0e;stroke-linecap:round;stroke-width:1.5;"/>
    <defs>
     <path d="M 0 1.5 
C 0.397805 1.5 0.77937 1.341951 1.06066 1.06066 
C 1.341951 0.77937 1.5 0.397805 1.5 0 
C 1.5 -0.397805 1.341951 -0.77937 1.06066 -1.06066 
C 0.77937 -1.341951 0.397805 -1.5 0 -1.5 
C -0.397805 -1.5 -0.77937 -1.341951 -1.06066 -1.06066 
C -1.341951 -0.77937 -1.5 -0.397805 -1.5 0 
C -1.5 0.397805 -1.341951 0.77937 -1.06066 1.06066 
C -0.77937 1.341951 -0.397805 1.5 0 1.5 
z
" id="mc580de61d7" style="stroke:#ff7f0e;"/>
    </defs>
    <g clip-path="url(#pdae0f057f5)">
     <use style="fill:#ff7f0e;stroke:#ff7f0e;" x="52.118437" xlink:href="#mc580de61d7" y="142.762627"/>
     <use style="fill:#ff7f0e;stroke:#ff7f0e;" x="60.488438" xlink:href="#mc580de61d7" y="147.158822"/>
     <use style="fill:#ff7f0e;stroke:#ff7f0e;" x="68.858438" xlink:href="#mc580de61d7" y="149.690897"/>
     <use style="fill:#ff7f0e;stroke:#ff7f0e;" x="77.228438" xlink:href="#mc580de61d7" y="148.939832"/>
     <use style="fill:#ff7f0e;stroke:#ff7f0e;" x="85.598437" xlink:href="#mc580de61d7" y="143.951655"/>
     <use style="fill:#ff7f0e;stroke:#ff7f0e;" x="93.968437" xlink:href="#mc580de61d7" y="134.765467"/>
     <use style="fill:#ff7f0e;stroke:#ff7f0e;" x="102.338438" xlink:href="#mc580de61d7" y="122.683345"/>
     <use style="fill:#ff7f0e;stroke:#ff7f0e;" x="110.708438" xlink:href="#mc580de61d7" y="110.082074"/>
     <use style="fill:#ff7f0e;stroke:#ff7f0e;" x="119.078438" xlink:href="#mc580de61d7" y="99.776509"/>
     <use style="fill:#ff7f0e;stroke:#ff7f0e;" x="127.448437" xlink:href="#mc580de61d7" y="94.164634"/>
     <use style="fill:#ff7f0e;stroke:#ff7f0e;" x="135.818438" xlink:href="#mc580de61d7" y="94.496112"/>
     <use style="fill:#ff7f0e;stroke:#ff7f0e;" x="144.188438" xlink:href="#mc580de61d7" y="100.553838"/>
     <use style="fill:#ff7f0e;stroke:#ff7f0e;" x="152.558438" xlink:href="#mc580de61d7" y="110.85295"/>
     <use style="fill:#ff7f0e;stroke:#ff7f0e;" x="160.928438" xlink:href="#mc580de61d7" y="123.238478"/>
     <use style="fill:#ff7f0e;stroke:#ff7f0e;" x="169.298438" xlink:href="#mc580de61d7" y="135.610361"/>
     <use style="fill:#ff7f0e;stroke:#ff7f0e;" x="177.668438" xlink:href="#mc580de61d7" y="146.48963"/>
     <use style="fill:#ff7f0e;stroke:#ff7f0e;" x="186.038438" xlink:href="#mc580de61d7" y="155.25061"/>
     <use style="fill:#ff7f0e;stroke:#ff7f0e;" x="194.408438" xlink:href="#mc580de61d7" y="162.007573"/>
     <use style="fill:#ff7f0e;stroke:#ff7f0e;" x="202.778437" xlink:href="#mc580de61d7" y="167.276331"/>
     <use style="fill:#ff7f0e;stroke:#ff7f0e;" x="211.148438" xlink:href="#mc580de61d7" y="171.585449"/>
     <use style="fill:#ff7f0e;stroke:#ff7f0e;" x="219.518438" xlink:href="#mc580de61d7" y="175.189273"/>
     <use style="fill:#ff7f0e;stroke:#ff7f0e;" x="227.888438" xlink:href="#mc580de61d7" y="177.963263"/>
     <use style="fill:#ff7f0e;stroke:#ff7f0e;" x="236.258438" xlink:href="#mc580de61d7" y="179.474488"/>
     <use style="fill:#ff7f0e;stroke:#ff7f0e;" x="244.628438" xlink:href="#mc580de61d7" y="179.150808"/>
     <use style="fill:#ff7f0e;stroke:#ff7f0e;" x="252.998438" xlink:href="#mc580de61d7" y="176.453268"/>
     <use style="fill:#ff7f0e;stroke:#ff7f0e;" x="261.368438" xlink:href="#mc580de61d7" y="170.997784"/>
     <use style="fill:#ff7f0e;stroke:#ff7f0e;" x="269.738438" xlink:href="#mc580de61d7" y="162.643598"/>
     <use style="fill:#ff7f0e;stroke:#ff7f0e;" x="278.108438" xlink:href="#mc580de61d7" y="151.605761"/>
     <use style="fill:#ff7f0e;stroke:#ff7f0e;" x="286.478438" xlink:href="#mc580de61d7" y="138.611134"/>
     <use style="fill:#ff7f0e;stroke:#ff7f0e;" x="294.848438" xlink:href="#mc580de61d7" y="125.020735"/>
     <use style="fill:#ff7f0e;stroke:#ff7f0e;" x="303.218437" xlink:href="#mc580de61d7" y="112.768538"/>
     <use style="fill:#ff7f0e;stroke:#ff7f0e;" x="311.588437" xlink:href="#mc580de61d7" y="104.001907"/>
     <use style="fill:#ff7f0e;stroke:#ff7f0e;" x="319.958438" xlink:href="#mc580de61d7" y="100.461379"/>
     <use style="fill:#ff7f0e;stroke:#ff7f0e;" x="328.328438" xlink:href="#mc580de61d7" y="102.82076"/>
     <use style="fill:#ff7f0e;stroke:#ff7f0e;" x="336.698438" xlink:href="#mc580de61d7" y="110.294778"/>
     <use style="fill:#ff7f0e;stroke:#ff7f0e;" x="345.068438" xlink:href="#mc580de61d7" y="120.738133"/>
     <use style="fill:#ff7f0e;stroke:#ff7f0e;" x="353.438438" xlink:href="#mc580de61d7" y="131.240453"/>
     <use style="fill:#ff7f0e;stroke:#ff7f0e;" x="361.808438" xlink:href="#mc580de61d7" y="138.988511"/>
     <use style="fill:#ff7f0e;stroke:#ff7f0e;" x="370.178438" xlink:href="#mc580de61d7" y="142.049857"/>
     <use style="fill:#ff7f0e;stroke:#ff7f0e;" x="378.548438" xlink:href="#mc580de61d7" y="139.791762"/>
     <use style="fill:#ff7f0e;stroke:#ff7f0e;" x="386.918437" xlink:href="#mc580de61d7" y="132.844906"/>
    </g>
   </g>
   <g id="line2d_16">
    <path clip-path="url(#pdae0f057f5)" d="M 52.118437 195.503063 
L 60.488438 189.842095 
L 68.858438 185.070682 
L 77.228438 183.386174 
L 85.598437 186.125522 
L 93.968437 193.433263 
L 102.338438 204.302288 
L 110.708438 216.891026 
L 119.078438 228.970499 
L 127.448437 238.366831 
L 135.818438 243.311864 
L 144.188438 242.674781 
L 152.558438 236.095204 
L 160.928438 224.04796 
L 169.298438 207.836356 
L 177.668438 189.462762 
L 186.038438 171.311973 
L 194.408438 155.641443 
L 202.778437 143.990093 
L 211.148438 136.726876 
L 219.518438 132.97306 
L 227.888438 131.001353 
L 236.258438 128.983958 
L 244.628438 125.75718 
L 252.998438 121.229467 
L 261.368438 116.231474 
L 269.738438 111.9044 
L 278.108438 108.969573 
L 286.478438 107.269456 
L 294.848438 105.796982 
L 303.218437 103.155156 
L 311.588437 98.18159 
L 319.958438 90.438069 
L 328.328438 80.386227 
L 336.698438 69.245259 
L 345.068438 58.654387 
L 353.438438 50.300771 
L 361.808438 45.639136 
L 370.178438 45.757987 
L 378.548438 51.367119 
L 386.918437 62.820672 
" style="fill:none;stroke:#2ca02c;stroke-linecap:round;stroke-width:1.5;"/>
    <defs>
     <path d="M 0 1.5 
C 0.397805 1.5 0.77937 1.341951 1.06066 1.06066 
C 1.341951 0.77937 1.5 0.397805 1.5 0 
C 1.5 -0.397805 1.341951 -0.77937 1.06066 -1.06066 
C 0.77937 -1.341951 0.397805 -1.5 0 -1.5 
C -0.397805 -1.5 -0.77937 -1.341951 -1.06066 -1.06066 
C -1.341951 -0.77937 -1.5 -0.397805 -1.5 0 
C -1.5 0.397805 -1.341951 0.77937 -1.06066 1.06066 
C -0.77937 1.341951 -0.397805 1.5 0 1.5 
z
" id="mdcaeb62281" style="stroke:#2ca02c;"/>
    </defs>
    <g clip-path="url(#pdae0f057f5)">
     <use style="fill:#2ca02c;stroke:#2ca02c;" x="52.118437" xlink:href="#mdcaeb62281" y="195.503063"/>
     <use style="fill:#2ca02c;stroke:#2ca02c;" x="60.488438" xlink:href="#mdcaeb62281" y="189.842095"/>
     <use style="fill:#2ca02c;stroke:#2ca02c;" x="68.858438" xlink:href="#mdcaeb62281" y="185.070682"/>
     <use style="fill:#2ca02c;stroke:#2ca02c;" x="77.228438" xlink:href="#mdcaeb62281" y="183.386174"/>
     <use style="fill:#2ca02c;stroke:#2ca02c;" x="85.598437" xlink:href="#mdcaeb62281" y="186.125522"/>
     <use style="fill:#2ca02c;stroke:#2ca02c;" x="93.968437" xlink:href="#mdcaeb62281" y="193.433263"/>
     <use style="fill:#2ca02c;stroke:#2ca02c;" x="102.338438" xlink:href="#mdcaeb62281" y="204.302288"/>
     <use style="fill:#2ca02c;stroke:#2ca02c;" x="110.708438" xlink:href="#mdcaeb62281" y="216.891026"/>
     <use style="fill:#2ca02c;stroke:#2ca02c;" x="119.078438" xlink:href="#mdcaeb62281" y="228.970499"/>
     <use style="fill:#2ca02c;stroke:#2ca02c;" x="127.448437" xlink:href="#mdcaeb62281" y="238.366831"/>
     <use style="fill:#2ca02c;stroke:#2ca02c;" x="135.818438" xlink:href="#mdcaeb62281" y="243.311864"/>
     <use style="fill:#2ca02c;stroke:#2ca02c;" x="144.188438" xlink:href="#mdcaeb62281" y="242.674781"/>
     <use style="fill:#2ca02c;stroke:#2ca02c;" x="152.558438" xlink:href="#mdcaeb62281" y="236.095204"/>
     <use style="fill:#2ca02c;stroke:#2ca02c;" x="160.928438" xlink:href="#mdcaeb62281" y="224.04796"/>
     <use style="fill:#2ca02c;stroke:#2ca02c;" x="169.298438" xlink:href="#mdcaeb62281" y="207.836356"/>
     <use style="fill:#2ca02c;stroke:#2ca02c;" x="177.668438" xlink:href="#mdcaeb62281" y="189.462762"/>
     <use style="fill:#2ca02c;stroke:#2ca02c;" x="186.038438" xlink:href="#mdcaeb62281" y="171.311973"/>
     <use style="fill:#2ca02c;stroke:#2ca02c;" x="194.408438" xlink:href="#mdcaeb62281" y="155.641443"/>
     <use style="fill:#2ca02c;stroke:#2ca02c;" x="202.778437" xlink:href="#mdcaeb62281" y="143.990093"/>
     <use style="fill:#2ca02c;stroke:#2ca02c;" x="211.148438" xlink:href="#mdcaeb62281" y="136.726876"/>
     <use style="fill:#2ca02c;stroke:#2ca02c;" x="219.518438" xlink:href="#mdcaeb62281" y="132.97306"/>
     <use style="fill:#2ca02c;stroke:#2ca02c;" x="227.888438" xlink:href="#mdcaeb62281" y="131.001353"/>
     <use style="fill:#2ca02c;stroke:#2ca02c;" x="236.258438" xlink:href="#mdcaeb62281" y="128.983958"/>
     <use style="fill:#2ca02c;stroke:#2ca02c;" x="244.628438" xlink:href="#mdcaeb62281" y="125.75718"/>
     <use style="fill:#2ca02c;stroke:#2ca02c;" x="252.998438" xlink:href="#mdcaeb62281" y="121.229467"/>
     <use style="fill:#2ca02c;stroke:#2ca02c;" x="261.368438" xlink:href="#mdcaeb62281" y="116.231474"/>
     <use style="fill:#2ca02c;stroke:#2ca02c;" x="269.738438" xlink:href="#mdcaeb62281" y="111.9044"/>
     <use style="fill:#2ca02c;stroke:#2ca02c;" x="278.108438" xlink:href="#mdcaeb62281" y="108.969573"/>
     <use style="fill:#2ca02c;stroke:#2ca02c;" x="286.478438" xlink:href="#mdcaeb62281" y="107.269456"/>
     <use style="fill:#2ca02c;stroke:#2ca02c;" x="294.848438" xlink:href="#mdcaeb62281" y="105.796982"/>
     <use style="fill:#2ca02c;stroke:#2ca02c;" x="303.218437" xlink:href="#mdcaeb62281" y="103.155156"/>
     <use style="fill:#2ca02c;stroke:#2ca02c;" x="311.588437" xlink:href="#mdcaeb62281" y="98.18159"/>
     <use style="fill:#2ca02c;stroke:#2ca02c;" x="319.958438" xlink:href="#mdcaeb62281" y="90.438069"/>
     <use style="fill:#2ca02c;stroke:#2ca02c;" x="328.328438" xlink:href="#mdcaeb62281" y="80.386227"/>
     <use style="fill:#2ca02c;stroke:#2ca02c;" x="336.698438" xlink:href="#mdcaeb62281" y="69.245259"/>
     <use style="fill:#2ca02c;stroke:#2ca02c;" x="345.068438" xlink:href="#mdcaeb62281" y="58.654387"/>
     <use style="fill:#2ca02c;stroke:#2ca02c;" x="353.438438" xlink:href="#mdcaeb62281" y="50.300771"/>
     <use style="fill:#2ca02c;stroke:#2ca02c;" x="361.808438" xlink:href="#mdcaeb62281" y="45.639136"/>
     <use style="fill:#2ca02c;stroke:#2ca02c;" x="370.178438" xlink:href="#mdcaeb62281" y="45.757987"/>
     <use style="fill:#2ca02c;stroke:#2ca02c;" x="378.548438" xlink:href="#mdcaeb62281" y="51.367119"/>
     <use style="fill:#2ca02c;stroke:#2ca02c;" x="386.918437" xlink:href="#mdcaeb62281" y="62.820672"/>
    </g>
   </g>
   <g id="line2d_17">
    <path clip-path="url(#pdae0f057f5)" d="M 52.118437 155.766983 
L 60.488438 163.675373 
L 68.858438 171.95948 
L 77.228438 181.364888 
L 85.598437 191.749187 
L 93.968437 201.908288 
L 102.338438 209.869559 
L 110.708438 213.60081 
L 119.078438 211.891204 
L 127.448437 205.032776 
L 135.818438 194.961268 
L 144.188438 184.733605 
L 152.558438 177.536271 
L 160.928438 175.652423 
L 169.298438 179.813656 
L 177.668438 189.131541 
L 186.038438 201.513032 
L 194.408438 214.304885 
L 202.778437 224.940656 
L 211.148438 231.476175 
L 219.518438 232.957985 
L 227.888438 229.547701 
L 236.258438 222.317971 
L 244.628438 212.737812 
L 252.998438 202.049421 
L 261.368438 190.859655 
L 269.738438 179.191462 
L 278.108438 166.969662 
L 286.478438 154.619979 
L 294.848438 143.354606 
L 303.218437 134.900612 
L 311.588437 130.792046 
L 319.958438 131.643931 
L 328.328438 136.845021 
L 336.698438 144.834516 
L 345.068438 153.76692 
L 353.438438 162.171806 
L 361.808438 169.293355 
L 370.178438 175.047722 
L 378.548438 179.759537 
L 386.918437 183.894001 
" style="fill:none;stroke:#d62728;stroke-linecap:round;stroke-width:1.5;"/>
    <defs>
     <path d="M 0 1.5 
C 0.397805 1.5 0.77937 1.341951 1.06066 1.06066 
C 1.341951 0.77937 1.5 0.397805 1.5 0 
C 1.5 -0.397805 1.341951 -0.77937 1.06066 -1.06066 
C 0.77937 -1.341951 0.397805 -1.5 0 -1.5 
C -0.397805 -1.5 -0.77937 -1.341951 -1.06066 -1.06066 
C -1.341951 -0.77937 -1.5 -0.397805 -1.5 0 
C -1.5 0.397805 -1.341951 0.77937 -1.06066 1.06066 
C -0.77937 1.341951 -0.397805 1.5 0 1.5 
z
" id="m119e8ca1a3" style="stroke:#d62728;"/>
    </defs>
    <g clip-path="url(#pdae0f057f5)">
     <use style="fill:#d62728;stroke:#d62728;" x="52.118437" xlink:href="#m119e8ca1a3" y="155.766983"/>
     <use style="fill:#d62728;stroke:#d62728;" x="60.488438" xlink:href="#m119e8ca1a3" y="163.675373"/>
     <use style="fill:#d62728;stroke:#d62728;" x="68.858438" xlink:href="#m119e8ca1a3" y="171.95948"/>
     <use style="fill:#d62728;stroke:#d62728;" x="77.228438" xlink:href="#m119e8ca1a3" y="181.364888"/>
     <use style="fill:#d62728;stroke:#d62728;" x="85.598437" xlink:href="#m119e8ca1a3" y="191.749187"/>
     <use style="fill:#d62728;stroke:#d62728;" x="93.968437" xlink:href="#m119e8ca1a3" y="201.908288"/>
     <use style="fill:#d62728;stroke:#d62728;" x="102.338438" xlink:href="#m119e8ca1a3" y="209.869559"/>
     <use style="fill:#d62728;stroke:#d62728;" x="110.708438" xlink:href="#m119e8ca1a3" y="213.60081"/>
     <use style="fill:#d62728;stroke:#d62728;" x="119.078438" xlink:href="#m119e8ca1a3" y="211.891204"/>
     <use style="fill:#d62728;stroke:#d62728;" x="127.448437" xlink:href="#m119e8ca1a3" y="205.032776"/>
     <use style="fill:#d62728;stroke:#d62728;" x="135.818438" xlink:href="#m119e8ca1a3" y="194.961268"/>
     <use style="fill:#d62728;stroke:#d62728;" x="144.188438" xlink:href="#m119e8ca1a3" y="184.733605"/>
     <use style="fill:#d62728;stroke:#d62728;" x="152.558438" xlink:href="#m119e8ca1a3" y="177.536271"/>
     <use style="fill:#d62728;stroke:#d62728;" x="160.928438" xlink:href="#m119e8ca1a3" y="175.652423"/>
     <use style="fill:#d62728;stroke:#d62728;" x="169.298438" xlink:href="#m119e8ca1a3" y="179.813656"/>
     <use style="fill:#d62728;stroke:#d62728;" x="177.668438" xlink:href="#m119e8ca1a3" y="189.131541"/>
     <use style="fill:#d62728;stroke:#d62728;" x="186.038438" xlink:href="#m119e8ca1a3" y="201.513032"/>
     <use style="fill:#d62728;stroke:#d62728;" x="194.408438" xlink:href="#m119e8ca1a3" y="214.304885"/>
     <use style="fill:#d62728;stroke:#d62728;" x="202.778437" xlink:href="#m119e8ca1a3" y="224.940656"/>
     <use style="fill:#d62728;stroke:#d62728;" x="211.148438" xlink:href="#m119e8ca1a3" y="231.476175"/>
     <use style="fill:#d62728;stroke:#d62728;" x="219.518438" xlink:href="#m119e8ca1a3" y="232.957985"/>
     <use style="fill:#d62728;stroke:#d62728;" x="227.888438" xlink:href="#m119e8ca1a3" y="229.547701"/>
     <use style="fill:#d62728;stroke:#d62728;" x="236.258438" xlink:href="#m119e8ca1a3" y="222.317971"/>
     <use style="fill:#d62728;stroke:#d62728;" x="244.628438" xlink:href="#m119e8ca1a3" y="212.737812"/>
     <use style="fill:#d62728;stroke:#d62728;" x="252.998438" xlink:href="#m119e8ca1a3" y="202.049421"/>
     <use style="fill:#d62728;stroke:#d62728;" x="261.368438" xlink:href="#m119e8ca1a3" y="190.859655"/>
     <use style="fill:#d62728;stroke:#d62728;" x="269.738438" xlink:href="#m119e8ca1a3" y="179.191462"/>
     <use style="fill:#d62728;stroke:#d62728;" x="278.108438" xlink:href="#m119e8ca1a3" y="166.969662"/>
     <use style="fill:#d62728;stroke:#d62728;" x="286.478438" xlink:href="#m119e8ca1a3" y="154.619979"/>
     <use style="fill:#d62728;stroke:#d62728;" x="294.848438" xlink:href="#m119e8ca1a3" y="143.354606"/>
     <use style="fill:#d62728;stroke:#d62728;" x="303.218437" xlink:href="#m119e8ca1a3" y="134.900612"/>
     <use style="fill:#d62728;stroke:#d62728;" x="311.588437" xlink:href="#m119e8ca1a3" y="130.792046"/>
     <use style="fill:#d62728;stroke:#d62728;" x="319.958438" xlink:href="#m119e8ca1a3" y="131.643931"/>
     <use style="fill:#d62728;stroke:#d62728;" x="328.328438" xlink:href="#m119e8ca1a3" y="136.845021"/>
     <use style="fill:#d62728;stroke:#d62728;" x="336.698438" xlink:href="#m119e8ca1a3" y="144.834516"/>
     <use style="fill:#d62728;stroke:#d62728;" x="345.068438" xlink:href="#m119e8ca1a3" y="153.76692"/>
     <use style="fill:#d62728;stroke:#d62728;" x="353.438438" xlink:href="#m119e8ca1a3" y="162.171806"/>
     <use style="fill:#d62728;stroke:#d62728;" x="361.808438" xlink:href="#m119e8ca1a3" y="169.293355"/>
     <use style="fill:#d62728;stroke:#d62728;" x="370.178438" xlink:href="#m119e8ca1a3" y="175.047722"/>
     <use style="fill:#d62728;stroke:#d62728;" x="378.548438" xlink:href="#m119e8ca1a3" y="179.759537"/>
     <use style="fill:#d62728;stroke:#d62728;" x="386.918437" xlink:href="#m119e8ca1a3" y="183.894001"/>
    </g>
   </g>
   <g id="line2d_18">
    <path clip-path="url(#pdae0f057f5)" d="M 52.118437 130.05297 
L 60.488438 141.54388 
L 68.858438 156.436726 
L 77.228438 172.268821 
L 85.598437 186.89137 
L 93.968437 198.942596 
L 102.338438 207.896403 
L 110.708438 213.787081 
L 119.078438 216.858711 
L 127.448437 217.372388 
L 135.818438 215.655864 
L 144.188438 212.29611 
L 152.558438 208.265338 
L 160.928438 204.803313 
L 169.298438 203.037629 
L 177.668438 203.513884 
L 186.038438 205.903015 
L 194.408438 209.078737 
L 202.778437 211.54983 
L 211.148438 212.02248 
L 219.518438 209.800049 
L 227.888438 204.849488 
L 236.258438 197.586683 
L 244.628438 188.594675 
L 252.998438 178.477946 
L 261.368438 167.897177 
L 269.738438 157.658748 
L 278.108438 148.686017 
L 286.478438 141.801033 
L 294.848438 137.406888 
L 303.218437 135.257425 
L 311.588437 134.46743 
L 319.958438 133.783867 
L 328.328438 131.999078 
L 336.698438 128.324562 
L 345.068438 122.583778 
L 353.438438 115.183576 
L 361.808438 106.918709 
L 370.178438 98.707732 
L 378.548438 91.351708 
L 386.918437 85.376928 
" style="fill:none;stroke:#9467bd;stroke-linecap:round;stroke-width:1.5;"/>
    <defs>
     <path d="M 0 1.5 
C 0.397805 1.5 0.77937 1.341951 1.06066 1.06066 
C 1.341951 0.77937 1.5 0.397805 1.5 0 
C 1.5 -0.397805 1.341951 -0.77937 1.06066 -1.06066 
C 0.77937 -1.341951 0.397805 -1.5 0 -1.5 
C -0.397805 -1.5 -0.77937 -1.341951 -1.06066 -1.06066 
C -1.341951 -0.77937 -1.5 -0.397805 -1.5 0 
C -1.5 0.397805 -1.341951 0.77937 -1.06066 1.06066 
C -0.77937 1.341951 -0.397805 1.5 0 1.5 
z
" id="m65e81adf2e" style="stroke:#9467bd;"/>
    </defs>
    <g clip-path="url(#pdae0f057f5)">
     <use style="fill:#9467bd;stroke:#9467bd;" x="52.118437" xlink:href="#m65e81adf2e" y="130.05297"/>
     <use style="fill:#9467bd;stroke:#9467bd;" x="60.488438" xlink:href="#m65e81adf2e" y="141.54388"/>
     <use style="fill:#9467bd;stroke:#9467bd;" x="68.858438" xlink:href="#m65e81adf2e" y="156.436726"/>
     <use style="fill:#9467bd;stroke:#9467bd;" x="77.228438" xlink:href="#m65e81adf2e" y="172.268821"/>
     <use style="fill:#9467bd;stroke:#9467bd;" x="85.598437" xlink:href="#m65e81adf2e" y="186.89137"/>
     <use style="fill:#9467bd;stroke:#9467bd;" x="93.968437" xlink:href="#m65e81adf2e" y="198.942596"/>
     <use style="fill:#9467bd;stroke:#9467bd;" x="102.338438" xlink:href="#m65e81adf2e" y="207.896403"/>
     <use style="fill:#9467bd;stroke:#9467bd;" x="110.708438" xlink:href="#m65e81adf2e" y="213.787081"/>
     <use style="fill:#9467bd;stroke:#9467bd;" x="119.078438" xlink:href="#m65e81adf2e" y="216.858711"/>
     <use style="fill:#9467bd;stroke:#9467bd;" x="127.448437" xlink:href="#m65e81adf2e" y="217.372388"/>
     <use style="fill:#9467bd;stroke:#9467bd;" x="135.818438" xlink:href="#m65e81adf2e" y="215.655864"/>
     <use style="fill:#9467bd;stroke:#9467bd;" x="144.188438" xlink:href="#m65e81adf2e" y="212.29611"/>
     <use style="fill:#9467bd;stroke:#9467bd;" x="152.558438" xlink:href="#m65e81adf2e" y="208.265338"/>
     <use style="fill:#9467bd;stroke:#9467bd;" x="160.928438" xlink:href="#m65e81adf2e" y="204.803313"/>
     <use style="fill:#9467bd;stroke:#9467bd;" x="169.298438" xlink:href="#m65e81adf2e" y="203.037629"/>
     <use style="fill:#9467bd;stroke:#9467bd;" x="177.668438" xlink:href="#m65e81adf2e" y="203.513884"/>
     <use style="fill:#9467bd;stroke:#9467bd;" x="186.038438" xlink:href="#m65e81adf2e" y="205.903015"/>
     <use style="fill:#9467bd;stroke:#9467bd;" x="194.408438" xlink:href="#m65e81adf2e" y="209.078737"/>
     <use style="fill:#9467bd;stroke:#9467bd;" x="202.778437" xlink:href="#m65e81adf2e" y="211.54983"/>
     <use style="fill:#9467bd;stroke:#9467bd;" x="211.148438" xlink:href="#m65e81adf2e" y="212.02248"/>
     <use style="fill:#9467bd;stroke:#9467bd;" x="219.518438" xlink:href="#m65e81adf2e" y="209.800049"/>
     <use style="fill:#9467bd;stroke:#9467bd;" x="227.888438" xlink:href="#m65e81adf2e" y="204.849488"/>
     <use style="fill:#9467bd;stroke:#9467bd;" x="236.258438" xlink:href="#m65e81adf2e" y="197.586683"/>
     <use style="fill:#9467bd;stroke:#9467bd;" x="244.628438" xlink:href="#m65e81adf2e" y="188.594675"/>
     <use style="fill:#9467bd;stroke:#9467bd;" x="252.998438" xlink:href="#m65e81adf2e" y="178.477946"/>
     <use style="fill:#9467bd;stroke:#9467bd;" x="261.368438" xlink:href="#m65e81adf2e" y="167.897177"/>
     <use style="fill:#9467bd;stroke:#9467bd;" x="269.738438" xlink:href="#m65e81adf2e" y="157.658748"/>
     <use style="fill:#9467bd;stroke:#9467bd;" x="278.108438" xlink:href="#m65e81adf2e" y="148.686017"/>
     <use style="fill:#9467bd;stroke:#9467bd;" x="286.478438" xlink:href="#m65e81adf2e" y="141.801033"/>
     <use style="fill:#9467bd;stroke:#9467bd;" x="294.848438" xlink:href="#m65e81adf2e" y="137.406888"/>
     <use style="fill:#9467bd;stroke:#9467bd;" x="303.218437" xlink:href="#m65e81adf2e" y="135.257425"/>
     <use style="fill:#9467bd;stroke:#9467bd;" x="311.588437" xlink:href="#m65e81adf2e" y="134.46743"/>
     <use style="fill:#9467bd;stroke:#9467bd;" x="319.958438" xlink:href="#m65e81adf2e" y="133.783867"/>
     <use style="fill:#9467bd;stroke:#9467bd;" x="328.328438" xlink:href="#m65e81adf2e" y="131.999078"/>
     <use style="fill:#9467bd;stroke:#9467bd;" x="336.698438" xlink:href="#m65e81adf2e" y="128.324562"/>
     <use style="fill:#9467bd;stroke:#9467bd;" x="345.068438" xlink:href="#m65e81adf2e" y="122.583778"/>
     <use style="fill:#9467bd;stroke:#9467bd;" x="353.438438" xlink:href="#m65e81adf2e" y="115.183576"/>
     <use style="fill:#9467bd;stroke:#9467bd;" x="361.808438" xlink:href="#m65e81adf2e" y="106.918709"/>
     <use style="fill:#9467bd;stroke:#9467bd;" x="370.178438" xlink:href="#m65e81adf2e" y="98.707732"/>
     <use style="fill:#9467bd;stroke:#9467bd;" x="378.548438" xlink:href="#m65e81adf2e" y="91.351708"/>
     <use style="fill:#9467bd;stroke:#9467bd;" x="386.918437" xlink:href="#m65e81adf2e" y="85.376928"/>
    </g>
   </g>
   <g id="patch_3">
    <path d="M 52.118437 253.1955 
L 52.118437 35.7555 
" style="fill:none;stroke:#ffffff;stroke-linecap:square;stroke-linejoin:miter;stroke-width:0.8;"/>
   </g>
   <g id="patch_4">
    <path d="M 386.918437 253.1955 
L 386.918437 35.7555 
" style="fill:none;stroke:#ffffff;stroke-linecap:square;stroke-linejoin:miter;stroke-width:0.8;"/>
   </g>
   <g id="patch_5">
    <path d="M 52.118437 253.1955 
L 386.918437 253.1955 
" style="fill:none;stroke:#ffffff;stroke-linecap:square;stroke-linejoin:miter;stroke-width:0.8;"/>
   </g>
   <g id="patch_6">
    <path d="M 52.118437 35.7555 
L 386.918437 35.7555 
" style="fill:none;stroke:#ffffff;stroke-linecap:square;stroke-linejoin:miter;stroke-width:0.8;"/>
   </g>
   <g id="text_16">
    <!-- 5 different function realizations at 41 points -->
    <g style="fill:#262626;" transform="translate(87.610313 16.318125)scale(0.12 -0.12)">
     <defs>
      <path d="M 10.796875 72.90625 
L 49.515625 72.90625 
L 49.515625 64.59375 
L 19.828125 64.59375 
L 19.828125 46.734375 
Q 21.96875 47.46875 24.109375 47.828125 
Q 26.265625 48.1875 28.421875 48.1875 
Q 40.625 48.1875 47.75 41.5 
Q 54.890625 34.8125 54.890625 23.390625 
Q 54.890625 11.625 47.5625 5.09375 
Q 40.234375 -1.421875 26.90625 -1.421875 
Q 22.3125 -1.421875 17.546875 -0.640625 
Q 12.796875 0.140625 7.71875 1.703125 
L 7.71875 11.625 
Q 12.109375 9.234375 16.796875 8.0625 
Q 21.484375 6.890625 26.703125 6.890625 
Q 35.15625 6.890625 40.078125 11.328125 
Q 45.015625 15.765625 45.015625 23.390625 
Q 45.015625 31 40.078125 35.4375 
Q 35.15625 39.890625 26.703125 39.890625 
Q 22.75 39.890625 18.8125 39.015625 
Q 14.890625 38.140625 10.796875 36.28125 
z
" id="DejaVuSans-53"/>
      <path id="DejaVuSans-32"/>
      <path d="M 45.40625 46.390625 
L 45.40625 75.984375 
L 54.390625 75.984375 
L 54.390625 0 
L 45.40625 0 
L 45.40625 8.203125 
Q 42.578125 3.328125 38.25 0.953125 
Q 33.9375 -1.421875 27.875 -1.421875 
Q 17.96875 -1.421875 11.734375 6.484375 
Q 5.515625 14.40625 5.515625 27.296875 
Q 5.515625 40.1875 11.734375 48.09375 
Q 17.96875 56 27.875 56 
Q 33.9375 56 38.25 53.625 
Q 42.578125 51.265625 45.40625 46.390625 
z
M 14.796875 27.296875 
Q 14.796875 17.390625 18.875 11.75 
Q 22.953125 6.109375 30.078125 6.109375 
Q 37.203125 6.109375 41.296875 11.75 
Q 45.40625 17.390625 45.40625 27.296875 
Q 45.40625 37.203125 41.296875 42.84375 
Q 37.203125 48.484375 30.078125 48.484375 
Q 22.953125 48.484375 18.875 42.84375 
Q 14.796875 37.203125 14.796875 27.296875 
z
" id="DejaVuSans-100"/>
      <path d="M 9.421875 54.6875 
L 18.40625 54.6875 
L 18.40625 0 
L 9.421875 0 
z
M 9.421875 75.984375 
L 18.40625 75.984375 
L 18.40625 64.59375 
L 9.421875 64.59375 
z
" id="DejaVuSans-105"/>
      <path d="M 37.109375 75.984375 
L 37.109375 68.5 
L 28.515625 68.5 
Q 23.6875 68.5 21.796875 66.546875 
Q 19.921875 64.59375 19.921875 59.515625 
L 19.921875 54.6875 
L 34.71875 54.6875 
L 34.71875 47.703125 
L 19.921875 47.703125 
L 19.921875 0 
L 10.890625 0 
L 10.890625 47.703125 
L 2.296875 47.703125 
L 2.296875 54.6875 
L 10.890625 54.6875 
L 10.890625 58.5 
Q 10.890625 67.625 15.140625 71.796875 
Q 19.390625 75.984375 28.609375 75.984375 
z
" id="DejaVuSans-102"/>
      <path d="M 56.203125 29.59375 
L 56.203125 25.203125 
L 14.890625 25.203125 
Q 15.484375 15.921875 20.484375 11.0625 
Q 25.484375 6.203125 34.421875 6.203125 
Q 39.59375 6.203125 44.453125 7.46875 
Q 49.3125 8.734375 54.109375 11.28125 
L 54.109375 2.78125 
Q 49.265625 0.734375 44.1875 -0.34375 
Q 39.109375 -1.421875 33.890625 -1.421875 
Q 20.796875 -1.421875 13.15625 6.1875 
Q 5.515625 13.8125 5.515625 26.8125 
Q 5.515625 40.234375 12.765625 48.109375 
Q 20.015625 56 32.328125 56 
Q 43.359375 56 49.78125 48.890625 
Q 56.203125 41.796875 56.203125 29.59375 
z
M 47.21875 32.234375 
Q 47.125 39.59375 43.09375 43.984375 
Q 39.0625 48.390625 32.421875 48.390625 
Q 24.90625 48.390625 20.390625 44.140625 
Q 15.875 39.890625 15.1875 32.171875 
z
" id="DejaVuSans-101"/>
      <path d="M 41.109375 46.296875 
Q 39.59375 47.171875 37.8125 47.578125 
Q 36.03125 48 33.890625 48 
Q 26.265625 48 22.1875 43.046875 
Q 18.109375 38.09375 18.109375 28.8125 
L 18.109375 0 
L 9.078125 0 
L 9.078125 54.6875 
L 18.109375 54.6875 
L 18.109375 46.1875 
Q 20.953125 51.171875 25.484375 53.578125 
Q 30.03125 56 36.53125 56 
Q 37.453125 56 38.578125 55.875 
Q 39.703125 55.765625 41.0625 55.515625 
z
" id="DejaVuSans-114"/>
      <path d="M 54.890625 33.015625 
L 54.890625 0 
L 45.90625 0 
L 45.90625 32.71875 
Q 45.90625 40.484375 42.875 44.328125 
Q 39.84375 48.1875 33.796875 48.1875 
Q 26.515625 48.1875 22.3125 43.546875 
Q 18.109375 38.921875 18.109375 30.90625 
L 18.109375 0 
L 9.078125 0 
L 9.078125 54.6875 
L 18.109375 54.6875 
L 18.109375 46.1875 
Q 21.34375 51.125 25.703125 53.5625 
Q 30.078125 56 35.796875 56 
Q 45.21875 56 50.046875 50.171875 
Q 54.890625 44.34375 54.890625 33.015625 
z
" id="DejaVuSans-110"/>
      <path d="M 18.3125 70.21875 
L 18.3125 54.6875 
L 36.8125 54.6875 
L 36.8125 47.703125 
L 18.3125 47.703125 
L 18.3125 18.015625 
Q 18.3125 11.328125 20.140625 9.421875 
Q 21.96875 7.515625 27.59375 7.515625 
L 36.8125 7.515625 
L 36.8125 0 
L 27.59375 0 
Q 17.1875 0 13.234375 3.875 
Q 9.28125 7.765625 9.28125 18.015625 
L 9.28125 47.703125 
L 2.6875 47.703125 
L 2.6875 54.6875 
L 9.28125 54.6875 
L 9.28125 70.21875 
z
" id="DejaVuSans-116"/>
      <path d="M 8.5 21.578125 
L 8.5 54.6875 
L 17.484375 54.6875 
L 17.484375 21.921875 
Q 17.484375 14.15625 20.5 10.265625 
Q 23.53125 6.390625 29.59375 6.390625 
Q 36.859375 6.390625 41.078125 11.03125 
Q 45.3125 15.671875 45.3125 23.6875 
L 45.3125 54.6875 
L 54.296875 54.6875 
L 54.296875 0 
L 45.3125 0 
L 45.3125 8.40625 
Q 42.046875 3.421875 37.71875 1 
Q 33.40625 -1.421875 27.6875 -1.421875 
Q 18.265625 -1.421875 13.375 4.4375 
Q 8.5 10.296875 8.5 21.578125 
z
M 31.109375 56 
z
" id="DejaVuSans-117"/>
      <path d="M 48.78125 52.59375 
L 48.78125 44.1875 
Q 44.96875 46.296875 41.140625 47.34375 
Q 37.3125 48.390625 33.40625 48.390625 
Q 24.65625 48.390625 19.8125 42.84375 
Q 14.984375 37.3125 14.984375 27.296875 
Q 14.984375 17.28125 19.8125 11.734375 
Q 24.65625 6.203125 33.40625 6.203125 
Q 37.3125 6.203125 41.140625 7.25 
Q 44.96875 8.296875 48.78125 10.40625 
L 48.78125 2.09375 
Q 45.015625 0.34375 40.984375 -0.53125 
Q 36.96875 -1.421875 32.421875 -1.421875 
Q 20.0625 -1.421875 12.78125 6.34375 
Q 5.515625 14.109375 5.515625 27.296875 
Q 5.515625 40.671875 12.859375 48.328125 
Q 20.21875 56 33.015625 56 
Q 37.15625 56 41.109375 55.140625 
Q 45.0625 54.296875 48.78125 52.59375 
z
" id="DejaVuSans-99"/>
      <path d="M 30.609375 48.390625 
Q 23.390625 48.390625 19.1875 42.75 
Q 14.984375 37.109375 14.984375 27.296875 
Q 14.984375 17.484375 19.15625 11.84375 
Q 23.34375 6.203125 30.609375 6.203125 
Q 37.796875 6.203125 41.984375 11.859375 
Q 46.1875 17.53125 46.1875 27.296875 
Q 46.1875 37.015625 41.984375 42.703125 
Q 37.796875 48.390625 30.609375 48.390625 
z
M 30.609375 56 
Q 42.328125 56 49.015625 48.375 
Q 55.71875 40.765625 55.71875 27.296875 
Q 55.71875 13.875 49.015625 6.21875 
Q 42.328125 -1.421875 30.609375 -1.421875 
Q 18.84375 -1.421875 12.171875 6.21875 
Q 5.515625 13.875 5.515625 27.296875 
Q 5.515625 40.765625 12.171875 48.375 
Q 18.84375 56 30.609375 56 
z
" id="DejaVuSans-111"/>
      <path d="M 34.28125 27.484375 
Q 23.390625 27.484375 19.1875 25 
Q 14.984375 22.515625 14.984375 16.5 
Q 14.984375 11.71875 18.140625 8.90625 
Q 21.296875 6.109375 26.703125 6.109375 
Q 34.1875 6.109375 38.703125 11.40625 
Q 43.21875 16.703125 43.21875 25.484375 
L 43.21875 27.484375 
z
M 52.203125 31.203125 
L 52.203125 0 
L 43.21875 0 
L 43.21875 8.296875 
Q 40.140625 3.328125 35.546875 0.953125 
Q 30.953125 -1.421875 24.3125 -1.421875 
Q 15.921875 -1.421875 10.953125 3.296875 
Q 6 8.015625 6 15.921875 
Q 6 25.140625 12.171875 29.828125 
Q 18.359375 34.515625 30.609375 34.515625 
L 43.21875 34.515625 
L 43.21875 35.40625 
Q 43.21875 41.609375 39.140625 45 
Q 35.0625 48.390625 27.6875 48.390625 
Q 23 48.390625 18.546875 47.265625 
Q 14.109375 46.140625 10.015625 43.890625 
L 10.015625 52.203125 
Q 14.9375 54.109375 19.578125 55.046875 
Q 24.21875 56 28.609375 56 
Q 40.484375 56 46.34375 49.84375 
Q 52.203125 43.703125 52.203125 31.203125 
z
" id="DejaVuSans-97"/>
      <path d="M 9.421875 75.984375 
L 18.40625 75.984375 
L 18.40625 0 
L 9.421875 0 
z
" id="DejaVuSans-108"/>
      <path d="M 5.515625 54.6875 
L 48.1875 54.6875 
L 48.1875 46.484375 
L 14.40625 7.171875 
L 48.1875 7.171875 
L 48.1875 0 
L 4.296875 0 
L 4.296875 8.203125 
L 38.09375 47.515625 
L 5.515625 47.515625 
z
" id="DejaVuSans-122"/>
      <path d="M 44.28125 53.078125 
L 44.28125 44.578125 
Q 40.484375 46.53125 36.375 47.5 
Q 32.28125 48.484375 27.875 48.484375 
Q 21.1875 48.484375 17.84375 46.4375 
Q 14.5 44.390625 14.5 40.28125 
Q 14.5 37.15625 16.890625 35.375 
Q 19.28125 33.59375 26.515625 31.984375 
L 29.59375 31.296875 
Q 39.15625 29.25 43.1875 25.515625 
Q 47.21875 21.78125 47.21875 15.09375 
Q 47.21875 7.46875 41.1875 3.015625 
Q 35.15625 -1.421875 24.609375 -1.421875 
Q 20.21875 -1.421875 15.453125 -0.5625 
Q 10.6875 0.296875 5.421875 2 
L 5.421875 11.28125 
Q 10.40625 8.6875 15.234375 7.390625 
Q 20.0625 6.109375 24.8125 6.109375 
Q 31.15625 6.109375 34.5625 8.28125 
Q 37.984375 10.453125 37.984375 14.40625 
Q 37.984375 18.0625 35.515625 20.015625 
Q 33.0625 21.96875 24.703125 23.78125 
L 21.578125 24.515625 
Q 13.234375 26.265625 9.515625 29.90625 
Q 5.8125 33.546875 5.8125 39.890625 
Q 5.8125 47.609375 11.28125 51.796875 
Q 16.75 56 26.8125 56 
Q 31.78125 56 36.171875 55.265625 
Q 40.578125 54.546875 44.28125 53.078125 
z
" id="DejaVuSans-115"/>
      <path d="M 18.109375 8.203125 
L 18.109375 -20.796875 
L 9.078125 -20.796875 
L 9.078125 54.6875 
L 18.109375 54.6875 
L 18.109375 46.390625 
Q 20.953125 51.265625 25.265625 53.625 
Q 29.59375 56 35.59375 56 
Q 45.5625 56 51.78125 48.09375 
Q 58.015625 40.1875 58.015625 27.296875 
Q 58.015625 14.40625 51.78125 6.484375 
Q 45.5625 -1.421875 35.59375 -1.421875 
Q 29.59375 -1.421875 25.265625 0.953125 
Q 20.953125 3.328125 18.109375 8.203125 
z
M 48.6875 27.296875 
Q 48.6875 37.203125 44.609375 42.84375 
Q 40.53125 48.484375 33.40625 48.484375 
Q 26.265625 48.484375 22.1875 42.84375 
Q 18.109375 37.203125 18.109375 27.296875 
Q 18.109375 17.390625 22.1875 11.75 
Q 26.265625 6.109375 33.40625 6.109375 
Q 40.53125 6.109375 44.609375 11.75 
Q 48.6875 17.390625 48.6875 27.296875 
z
" id="DejaVuSans-112"/>
     </defs>
     <use xlink:href="#DejaVuSans-53"/>
     <use x="63.623047" xlink:href="#DejaVuSans-32"/>
     <use x="95.410156" xlink:href="#DejaVuSans-100"/>
     <use x="158.886719" xlink:href="#DejaVuSans-105"/>
     <use x="186.669922" xlink:href="#DejaVuSans-102"/>
     <use x="221.875" xlink:href="#DejaVuSans-102"/>
     <use x="257.080078" xlink:href="#DejaVuSans-101"/>
     <use x="318.603516" xlink:href="#DejaVuSans-114"/>
     <use x="357.466797" xlink:href="#DejaVuSans-101"/>
     <use x="418.990234" xlink:href="#DejaVuSans-110"/>
     <use x="482.369141" xlink:href="#DejaVuSans-116"/>
     <use x="521.578125" xlink:href="#DejaVuSans-32"/>
     <use x="553.365234" xlink:href="#DejaVuSans-102"/>
     <use x="588.570312" xlink:href="#DejaVuSans-117"/>
     <use x="651.949219" xlink:href="#DejaVuSans-110"/>
     <use x="715.328125" xlink:href="#DejaVuSans-99"/>
     <use x="770.308594" xlink:href="#DejaVuSans-116"/>
     <use x="809.517578" xlink:href="#DejaVuSans-105"/>
     <use x="837.300781" xlink:href="#DejaVuSans-111"/>
     <use x="898.482422" xlink:href="#DejaVuSans-110"/>
     <use x="961.861328" xlink:href="#DejaVuSans-32"/>
     <use x="993.648438" xlink:href="#DejaVuSans-114"/>
     <use x="1032.511719" xlink:href="#DejaVuSans-101"/>
     <use x="1094.035156" xlink:href="#DejaVuSans-97"/>
     <use x="1155.314453" xlink:href="#DejaVuSans-108"/>
     <use x="1183.097656" xlink:href="#DejaVuSans-105"/>
     <use x="1210.880859" xlink:href="#DejaVuSans-122"/>
     <use x="1263.371094" xlink:href="#DejaVuSans-97"/>
     <use x="1324.650391" xlink:href="#DejaVuSans-116"/>
     <use x="1363.859375" xlink:href="#DejaVuSans-105"/>
     <use x="1391.642578" xlink:href="#DejaVuSans-111"/>
     <use x="1452.824219" xlink:href="#DejaVuSans-110"/>
     <use x="1516.203125" xlink:href="#DejaVuSans-115"/>
     <use x="1568.302734" xlink:href="#DejaVuSans-32"/>
     <use x="1600.089844" xlink:href="#DejaVuSans-97"/>
     <use x="1661.369141" xlink:href="#DejaVuSans-116"/>
     <use x="1700.578125" xlink:href="#DejaVuSans-32"/>
     <use x="1732.365234" xlink:href="#DejaVuSans-52"/>
     <use x="1795.988281" xlink:href="#DejaVuSans-49"/>
     <use x="1859.611328" xlink:href="#DejaVuSans-32"/>
     <use x="1891.398438" xlink:href="#DejaVuSans-112"/>
     <use x="1954.875" xlink:href="#DejaVuSans-111"/>
     <use x="2016.056641" xlink:href="#DejaVuSans-105"/>
     <use x="2043.839844" xlink:href="#DejaVuSans-110"/>
     <use x="2107.21875" xlink:href="#DejaVuSans-116"/>
     <use x="2146.427734" xlink:href="#DejaVuSans-115"/>
    </g>
    <!-- sampled from a Gaussian process with exponentiated quadratic kernel -->
    <g style="fill:#262626;" transform="translate(7.2 29.7555)scale(0.12 -0.12)">
     <defs>
      <path d="M 52 44.1875 
Q 55.375 50.25 60.0625 53.125 
Q 64.75 56 71.09375 56 
Q 79.640625 56 84.28125 50.015625 
Q 88.921875 44.046875 88.921875 33.015625 
L 88.921875 0 
L 79.890625 0 
L 79.890625 32.71875 
Q 79.890625 40.578125 77.09375 44.375 
Q 74.3125 48.1875 68.609375 48.1875 
Q 61.625 48.1875 57.5625 43.546875 
Q 53.515625 38.921875 53.515625 30.90625 
L 53.515625 0 
L 44.484375 0 
L 44.484375 32.71875 
Q 44.484375 40.625 41.703125 44.40625 
Q 38.921875 48.1875 33.109375 48.1875 
Q 26.21875 48.1875 22.15625 43.53125 
Q 18.109375 38.875 18.109375 30.90625 
L 18.109375 0 
L 9.078125 0 
L 9.078125 54.6875 
L 18.109375 54.6875 
L 18.109375 46.1875 
Q 21.1875 51.21875 25.484375 53.609375 
Q 29.78125 56 35.6875 56 
Q 41.65625 56 45.828125 52.96875 
Q 50 49.953125 52 44.1875 
z
" id="DejaVuSans-109"/>
      <path d="M 59.515625 10.40625 
L 59.515625 29.984375 
L 43.40625 29.984375 
L 43.40625 38.09375 
L 69.28125 38.09375 
L 69.28125 6.78125 
Q 63.578125 2.734375 56.6875 0.65625 
Q 49.8125 -1.421875 42 -1.421875 
Q 24.90625 -1.421875 15.25 8.5625 
Q 5.609375 18.5625 5.609375 36.375 
Q 5.609375 54.25 15.25 64.234375 
Q 24.90625 74.21875 42 74.21875 
Q 49.125 74.21875 55.546875 72.453125 
Q 61.96875 70.703125 67.390625 67.28125 
L 67.390625 56.78125 
Q 61.921875 61.421875 55.765625 63.765625 
Q 49.609375 66.109375 42.828125 66.109375 
Q 29.4375 66.109375 22.71875 58.640625 
Q 16.015625 51.171875 16.015625 36.375 
Q 16.015625 21.625 22.71875 14.15625 
Q 29.4375 6.6875 42.828125 6.6875 
Q 48.046875 6.6875 52.140625 7.59375 
Q 56.25 8.5 59.515625 10.40625 
z
" id="DejaVuSans-71"/>
      <path d="M 4.203125 54.6875 
L 13.1875 54.6875 
L 24.421875 12.015625 
L 35.59375 54.6875 
L 46.1875 54.6875 
L 57.421875 12.015625 
L 68.609375 54.6875 
L 77.59375 54.6875 
L 63.28125 0 
L 52.6875 0 
L 40.921875 44.828125 
L 29.109375 0 
L 18.5 0 
z
" id="DejaVuSans-119"/>
      <path d="M 54.890625 33.015625 
L 54.890625 0 
L 45.90625 0 
L 45.90625 32.71875 
Q 45.90625 40.484375 42.875 44.328125 
Q 39.84375 48.1875 33.796875 48.1875 
Q 26.515625 48.1875 22.3125 43.546875 
Q 18.109375 38.921875 18.109375 30.90625 
L 18.109375 0 
L 9.078125 0 
L 9.078125 75.984375 
L 18.109375 75.984375 
L 18.109375 46.1875 
Q 21.34375 51.125 25.703125 53.5625 
Q 30.078125 56 35.796875 56 
Q 45.21875 56 50.046875 50.171875 
Q 54.890625 44.34375 54.890625 33.015625 
z
" id="DejaVuSans-104"/>
      <path d="M 54.890625 54.6875 
L 35.109375 28.078125 
L 55.90625 0 
L 45.3125 0 
L 29.390625 21.484375 
L 13.484375 0 
L 2.875 0 
L 24.125 28.609375 
L 4.6875 54.6875 
L 15.28125 54.6875 
L 29.78125 35.203125 
L 44.28125 54.6875 
z
" id="DejaVuSans-120"/>
      <path d="M 14.796875 27.296875 
Q 14.796875 17.390625 18.875 11.75 
Q 22.953125 6.109375 30.078125 6.109375 
Q 37.203125 6.109375 41.296875 11.75 
Q 45.40625 17.390625 45.40625 27.296875 
Q 45.40625 37.203125 41.296875 42.84375 
Q 37.203125 48.484375 30.078125 48.484375 
Q 22.953125 48.484375 18.875 42.84375 
Q 14.796875 37.203125 14.796875 27.296875 
z
M 45.40625 8.203125 
Q 42.578125 3.328125 38.25 0.953125 
Q 33.9375 -1.421875 27.875 -1.421875 
Q 17.96875 -1.421875 11.734375 6.484375 
Q 5.515625 14.40625 5.515625 27.296875 
Q 5.515625 40.1875 11.734375 48.09375 
Q 17.96875 56 27.875 56 
Q 33.9375 56 38.25 53.625 
Q 42.578125 51.265625 45.40625 46.390625 
L 45.40625 54.6875 
L 54.390625 54.6875 
L 54.390625 -20.796875 
L 45.40625 -20.796875 
z
" id="DejaVuSans-113"/>
      <path d="M 9.078125 75.984375 
L 18.109375 75.984375 
L 18.109375 31.109375 
L 44.921875 54.6875 
L 56.390625 54.6875 
L 27.390625 29.109375 
L 57.625 0 
L 45.90625 0 
L 18.109375 26.703125 
L 18.109375 0 
L 9.078125 0 
z
" id="DejaVuSans-107"/>
     </defs>
     <use xlink:href="#DejaVuSans-115"/>
     <use x="52.099609" xlink:href="#DejaVuSans-97"/>
     <use x="113.378906" xlink:href="#DejaVuSans-109"/>
     <use x="210.791016" xlink:href="#DejaVuSans-112"/>
     <use x="274.267578" xlink:href="#DejaVuSans-108"/>
     <use x="302.050781" xlink:href="#DejaVuSans-101"/>
     <use x="363.574219" xlink:href="#DejaVuSans-100"/>
     <use x="427.050781" xlink:href="#DejaVuSans-32"/>
     <use x="458.837891" xlink:href="#DejaVuSans-102"/>
     <use x="494.042969" xlink:href="#DejaVuSans-114"/>
     <use x="532.90625" xlink:href="#DejaVuSans-111"/>
     <use x="594.087891" xlink:href="#DejaVuSans-109"/>
     <use x="691.5" xlink:href="#DejaVuSans-32"/>
     <use x="723.287109" xlink:href="#DejaVuSans-97"/>
     <use x="784.566406" xlink:href="#DejaVuSans-32"/>
     <use x="816.353516" xlink:href="#DejaVuSans-71"/>
     <use x="893.84375" xlink:href="#DejaVuSans-97"/>
     <use x="955.123047" xlink:href="#DejaVuSans-117"/>
     <use x="1018.501953" xlink:href="#DejaVuSans-115"/>
     <use x="1070.601562" xlink:href="#DejaVuSans-115"/>
     <use x="1122.701172" xlink:href="#DejaVuSans-105"/>
     <use x="1150.484375" xlink:href="#DejaVuSans-97"/>
     <use x="1211.763672" xlink:href="#DejaVuSans-110"/>
     <use x="1275.142578" xlink:href="#DejaVuSans-32"/>
     <use x="1306.929688" xlink:href="#DejaVuSans-112"/>
     <use x="1370.40625" xlink:href="#DejaVuSans-114"/>
     <use x="1409.269531" xlink:href="#DejaVuSans-111"/>
     <use x="1470.451172" xlink:href="#DejaVuSans-99"/>
     <use x="1525.431641" xlink:href="#DejaVuSans-101"/>
     <use x="1586.955078" xlink:href="#DejaVuSans-115"/>
     <use x="1639.054688" xlink:href="#DejaVuSans-115"/>
     <use x="1691.154297" xlink:href="#DejaVuSans-32"/>
     <use x="1722.941406" xlink:href="#DejaVuSans-119"/>
     <use x="1804.728516" xlink:href="#DejaVuSans-105"/>
     <use x="1832.511719" xlink:href="#DejaVuSans-116"/>
     <use x="1871.720703" xlink:href="#DejaVuSans-104"/>
     <use x="1935.099609" xlink:href="#DejaVuSans-32"/>
     <use x="1966.886719" xlink:href="#DejaVuSans-101"/>
     <use x="2026.660156" xlink:href="#DejaVuSans-120"/>
     <use x="2085.839844" xlink:href="#DejaVuSans-112"/>
     <use x="2149.316406" xlink:href="#DejaVuSans-111"/>
     <use x="2210.498047" xlink:href="#DejaVuSans-110"/>
     <use x="2273.876953" xlink:href="#DejaVuSans-101"/>
     <use x="2335.400391" xlink:href="#DejaVuSans-110"/>
     <use x="2398.779297" xlink:href="#DejaVuSans-116"/>
     <use x="2437.988281" xlink:href="#DejaVuSans-105"/>
     <use x="2465.771484" xlink:href="#DejaVuSans-97"/>
     <use x="2527.050781" xlink:href="#DejaVuSans-116"/>
     <use x="2566.259766" xlink:href="#DejaVuSans-101"/>
     <use x="2627.783203" xlink:href="#DejaVuSans-100"/>
     <use x="2691.259766" xlink:href="#DejaVuSans-32"/>
     <use x="2723.046875" xlink:href="#DejaVuSans-113"/>
     <use x="2786.523438" xlink:href="#DejaVuSans-117"/>
     <use x="2849.902344" xlink:href="#DejaVuSans-97"/>
     <use x="2911.181641" xlink:href="#DejaVuSans-100"/>
     <use x="2974.658203" xlink:href="#DejaVuSans-114"/>
     <use x="3015.771484" xlink:href="#DejaVuSans-97"/>
     <use x="3077.050781" xlink:href="#DejaVuSans-116"/>
     <use x="3116.259766" xlink:href="#DejaVuSans-105"/>
     <use x="3144.042969" xlink:href="#DejaVuSans-99"/>
     <use x="3199.023438" xlink:href="#DejaVuSans-32"/>
     <use x="3230.810547" xlink:href="#DejaVuSans-107"/>
     <use x="3285.095703" xlink:href="#DejaVuSans-101"/>
     <use x="3346.619141" xlink:href="#DejaVuSans-114"/>
     <use x="3385.982422" xlink:href="#DejaVuSans-110"/>
     <use x="3449.361328" xlink:href="#DejaVuSans-101"/>
     <use x="3510.884766" xlink:href="#DejaVuSans-108"/>
    </g>
   </g>
  </g>
 </g>
 <defs>
  <clipPath id="pdae0f057f5">
   <rect height="217.44" width="334.8" x="52.118437" y="35.7555"/>
  </clipPath>
 </defs>
</svg>
